<svg width="211" height="235" viewBox="0 0 211 235" fill="none" xmlns="http://www.w3.org/2000/svg">
<path d="M101.325 118.686C98.7966 124.89 96.0571 131.053 93.7933 137.358C93.6534 137.693 93.5948 138.016 93.5685 138.333C92.959 139.105 92.3243 139.863 91.637 140.586C89.3265 143.015 92.7749 146.347 95.2706 144.224C96.0643 143.549 96.8101 142.833 97.5249 142.094C97.8918 142.11 98.2564 142.091 98.6042 142.006C99.9859 145.248 105.374 146.008 106.101 141.786C107.362 134.47 108.384 127.132 109.152 119.747C109.658 114.88 102.863 114.908 101.325 118.686Z" fill="#E0DFE6" fill-opacity="0.2"/>
<path d="M169.023 96.986C165.111 81.0115 142.724 88.7822 131.829 87.5985C125.996 86.9655 126.053 96.0908 131.829 96.7311C143.221 97.9937 157.06 88.0055 165.746 98.8961C167.042 100.52 169.452 98.7357 169.023 96.986Z" fill="#E0DFE6" fill-opacity="0.2"/>
<path d="M157.194 80.3617C152.973 79.0237 148.508 78.6682 144.471 77.1268C145.119 76.7235 145.573 76.0545 145.499 75.2048C145.383 73.8979 144.903 72.8148 144.377 71.6312C143.504 69.6697 140.057 70.6152 140.276 72.743C140.364 73.5999 140.461 74.3958 140.668 75.1832C137.497 73.2445 134.213 77.3075 135.797 80.3066C137.395 83.3332 140.738 84.238 143.945 84.5121C148.08 84.8639 152.563 84.6389 156.678 84.183C158.783 83.9484 159.401 81.0618 157.194 80.3617Z" fill="#E0DFE6" fill-opacity="0.2"/>
<path d="M126.805 67.6735C127.183 65.9035 125.634 64.8084 124.214 64.9508C122.306 63.7158 120.224 63.1138 117.793 63.3089C116.279 63.4309 114.853 64.2088 114.072 65.4415C111.476 63.6882 109.033 61.6872 106.5 59.7928C104.794 58.5158 102.639 60.962 103.666 62.6303C101.827 64.1251 101.015 67.026 103.125 69.0091C107.047 72.6951 111.282 75.9899 115.802 78.91C118.024 80.3461 120.916 79.0799 121.911 76.8599C122.905 76.2412 123.555 75.0791 123.744 73.8249C124.576 73.716 125.337 73.205 125.617 72.159C125.643 72.0597 125.671 71.9591 125.697 71.8598C126.765 70.7289 127.304 69.1264 126.805 67.6735Z" fill="#E0DFE6" fill-opacity="0.2"/>
<path d="M90.2743 73.7112C89.9696 72.7729 89.3456 71.9483 88.2675 71.7018C86.8905 71.3883 84.9841 72.1219 84.7331 73.7112C84.5311 74.9941 84.0769 76.4123 84.1606 77.6976C84.2729 79.4413 85.6176 81.13 87.5037 81.045C89.4114 80.9588 90.7262 79.573 90.8469 77.6976C90.9305 76.4063 90.4775 74.9977 90.2743 73.7112Z" fill="#E0DFE6" fill-opacity="0.2"/>
<path d="M135.584 22.1375C135.189 19.3455 131.693 18.7016 129.632 19.7129C127.568 20.7265 125.769 21.8826 124.159 23.2625C122.808 19.9642 121.62 16.6013 119.769 13.5339C119.092 12.4126 117.213 12.8446 117.249 14.2173C117.385 19.4999 119.099 24.5095 119.487 29.7753C119.715 32.8726 123.357 34.6977 125.734 32.3664C126.318 31.7943 126.896 31.2629 127.479 30.7567C126.652 36.3552 124.134 41.4008 119.808 45.7151C115.711 49.8021 122.125 56.224 126.154 52.0688C134.088 43.8853 137.173 33.3357 135.584 22.1375Z" fill="#E0DFE6" fill-opacity="0.2"/>
<path d="M157.536 209.572C154.865 206.071 152.328 202.468 149.63 198.99C148.25 197.211 145.95 198.552 145.54 200.35C145.477 199.389 145.082 198.412 144.195 197.538C140.392 193.78 136.069 192.999 130.875 194.148C127.156 194.97 122.745 196.486 119.295 198.108C114.34 200.44 115.737 198.387 113.962 193.515C112.364 189.128 111.654 187.035 107.081 186.472C100.116 185.617 90.6856 188.473 83.9108 189.849C82.1836 190.2 82.5565 193.05 84.3291 192.944C88.1121 192.719 91.888 192.558 95.6782 192.535C97.8524 192.522 103.017 191.598 104.792 192.478C108.013 194.074 106.73 202.126 109.666 205.706C117.18 214.864 130.855 197.344 137.667 204.073C140.74 207.108 145.003 204.496 145.5 201.236C145.538 201.491 145.607 201.747 145.738 201.996C146.605 203.647 147.513 205.276 148.424 206.906C147.923 207.194 147.462 207.614 147.096 208.228C140.253 219.713 120.395 224.376 108.13 225.482C94.5821 226.703 81.5788 223.911 68.9616 219.154C67.0468 218.432 65.9638 221.362 67.6073 222.371C81.7712 231.069 98.8397 233.475 115.14 231.129C127.3 229.378 144.523 224.37 152.33 213.711C154.778 216.214 159.9 212.674 157.536 209.572Z" fill="#E0DFE6" fill-opacity="0.2"/>
<path d="M192.715 199.807C186.436 196.466 177.469 199.658 173.463 193.305C168.977 186.191 169.07 175.996 169.999 167.969C170.296 165.401 166.463 165.191 165.712 167.389C162.49 176.815 161.87 188.221 166.547 197.352C168.219 200.617 170.635 203.462 173.999 205.028C178.909 207.314 184.325 205.585 189.399 207.679C193.92 209.546 196.969 202.07 192.715 199.807Z" fill="#E0DFE6" fill-opacity="0.2"/>
<path d="M31.65 182.633C29.8845 183.668 28.4682 185.317 26.839 186.566C25.2242 187.803 23.4779 188.848 21.8786 190.1C20.0786 191.508 22.0376 194.474 24.0552 193.843C26.0824 193.21 28.0283 192.12 29.8439 191.031C31.6213 189.966 33.8289 188.784 35.1425 187.165C37.1004 184.755 34.6632 180.865 31.65 182.633Z" fill="#E0DFE6" fill-opacity="0.2"/>
<path d="M203.391 78.7915C202.846 80.1463 202.194 81.5585 201.466 82.9982C201.328 82.9934 201.199 82.9683 201.055 82.979C200.823 82.997 200.591 83.0137 200.36 83.0305C197.742 83.2256 196.266 84.9393 196.097 87.23C195.39 87.8595 193.978 90.7353 193.378 91.5467C191.274 94.3927 189.067 97.1524 186.708 99.7901C182.426 104.581 177.701 108.979 172.216 112.366C169.187 114.235 165.907 115.73 162.497 116.797C159.288 117.234 156.058 117.082 152.867 116.18C150.761 115.585 149.178 116.596 148.398 118.078C146.932 117.889 145.301 117.657 143.687 117.415C144.657 116.122 144.819 114.387 143.197 113.037C141.962 112.006 140.724 110.978 139.481 109.955C137.033 107.933 133.731 109.748 133.884 112.484C133.676 112.603 133.482 112.739 133.29 112.879C133.053 112.776 132.813 112.703 132.571 112.688C132.256 111.593 131.953 110.494 131.609 109.409C130.906 107.192 127.804 108.126 128.183 110.354C129.209 116.398 130.43 122.397 131.065 128.501C131.255 130.327 132.06 135.144 132.223 138.574C131.841 138.044 131.541 137.424 131.411 136.623C130.246 132.689 123.591 133.218 123.974 137.631C124.319 141.616 125.961 145.036 129.633 146.932C130.697 147.481 131.928 147.879 133.154 148.022C133.037 148.654 133.018 149.301 133.114 149.891L133.192 150.368C133.199 150.409 133.219 150.443 133.227 150.484C132.655 150.094 132.048 149.722 131.357 149.389C122.229 144.987 108.617 146.536 98.7655 145.597C97.0359 145.431 96.6259 148.347 98.3519 148.655C105.541 149.94 112.823 151.164 119.932 152.842C122.878 153.537 126.532 154.121 128.749 156.35C131.385 159 131.163 162.367 132.15 165.579C135.035 174.962 140.522 175.987 148.921 174.521C153.294 173.758 153.23 174.202 153.268 178.815C153.29 181.363 152.569 183.923 152.619 186.505C152.723 191.78 154.106 196.93 156.802 201.475C161.279 209.025 169.8 215.791 178.841 215.739C182.606 215.718 184.772 209.842 180.901 208.124C174.41 205.246 168.599 203.395 164.647 196.883C160.217 189.579 162.178 182.554 163.11 174.755C163.821 168.8 161.353 164.281 156.347 163.452C158.854 151.985 160.133 139.603 155.942 128.411C155.172 126.356 151.938 126.52 151.946 128.952C151.976 138.618 152.163 147.787 149.882 156.944C147.706 157.346 145.756 159.326 146.593 161.882C147.057 163.055 147.367 164.267 147.573 165.508C147.153 165.693 146.81 165.816 146.616 165.824C139.283 166.136 140.45 162.69 138.92 158.581C138.16 156.539 137.32 154.781 136.187 153.281C136.932 153.48 137.708 153.514 138.395 153.325C143.118 152.022 143.142 146.11 142.957 142.064C142.803 138.686 142.086 135.359 141.285 132.084C141.123 131.424 140.089 127.556 139.485 124.225C139.832 124.356 140.174 124.483 140.48 124.592C148.897 127.607 158.299 127.139 166.737 124.369C173.806 122.595 180.32 118.455 186.077 113.266C189.351 110.316 192.652 107.12 195.681 103.678C200.089 99.1199 205.288 93.087 205.58 88.4722C206.781 85.5856 207.657 82.5757 208.071 79.4234C208.456 76.5332 204.3 76.5332 203.391 78.7915Z" fill="#E0DFE6" fill-opacity="0.2"/>
<path d="M111.57 106.716C110.344 104.529 109.022 102.386 106.654 101.36C105.153 100.71 103.515 100.696 102.282 101.925C97.8906 106.304 95.4988 114.137 92.7485 119.64C89.6636 125.812 85.5447 132.25 84.1665 139.049C83.8354 140.681 85.7933 142.056 87.0734 140.744C91.3166 136.39 93.9486 130.535 96.8949 125.255C99.2843 120.973 101.619 114.623 104.769 110.104C104.867 110.244 104.965 110.383 105.063 110.523C107.082 114.863 113.98 111.013 111.57 106.716Z" fill="#E0DFE6" fill-opacity="0.2"/>
<path d="M126.627 100.825C125.853 99.8224 124.241 99.0612 122.965 99.5746C121.95 99.9839 121.087 100.386 120.312 101.194C118.959 102.605 118.808 105.093 120.312 106.476C121.887 107.923 124.013 107.849 125.588 106.476C126.13 106.005 126.597 105.359 126.9 104.699C127.501 103.389 127.55 102.022 126.627 100.825Z" fill="#E0DFE6" fill-opacity="0.2"/>
<path d="M158.461 117.554C149.759 117.554 141.344 115.388 134.124 111.286C132.865 110.573 132.424 108.97 133.138 107.711C133.854 106.455 135.448 106.011 136.708 106.725C143.141 110.379 150.664 112.309 158.461 112.309C180.634 112.309 198.73 98.6926 204.678 78.0052C201.373 78.6204 198.014 78.9303 194.645 78.9303C179.563 78.9303 172.574 74.2641 165.176 69.325C156.043 63.2263 145.692 56.3161 115.939 55.8889C114.557 55.8685 113.429 54.7795 113.361 53.3984C113.36 53.3541 113.356 53.2105 113.356 53.1662C113.356 51.7864 113.617 50.4998 114.132 49.3425C115.235 46.8556 117.133 45.1766 119.141 43.403C123.427 39.6128 128.287 35.3188 128.287 20.7134C128.287 7.06897 115.555 6.00863 111.654 6.00863C104.354 6.00863 96.5554 9.55587 90.6758 15.3315C92.3516 15.3662 93.9545 15.3841 95.5083 15.3913C96.5075 15.3949 97.4183 15.9682 97.8546 16.8681C98.2909 17.7693 98.1773 18.8404 97.563 19.6267C95.6326 22.1004 93.6604 25.5938 93.6604 32.7457C93.6604 41.7287 101.143 45.6373 104.36 46.8987C105.363 47.2937 106.172 48.3241 106.172 49.4036C106.172 52.7988 103.151 59.2219 91.7133 59.2219C90.9651 59.2219 90.2109 59.2051 89.4579 59.1884C88.7395 59.1728 88.0223 59.1561 87.304 59.1561C79.5897 59.1561 71.2874 63.3663 71.2874 72.609C71.2874 77.9909 73.2859 87.0971 80.7778 87.0971C81.5416 87.0971 82.2683 87.4322 82.7656 88.0126C83.264 88.5931 83.4815 89.3626 83.3656 90.1189C82.9532 92.8057 81.3779 94.7014 79.989 96.3745C78.9335 97.6442 78.0156 98.7489 77.9582 99.8116C78.4769 99.8942 79.4654 99.9768 81.3468 99.9768C85.7764 99.9768 86.6155 98.4269 86.6155 95.5655C86.6155 92.4886 84.6087 89.201 82.6687 86.0236C80.7025 82.8043 78.8475 79.7645 78.8475 76.6254C78.8475 70.6606 84.0959 65.7108 90.7966 65.3577C92.244 65.2883 93.474 66.3918 93.5505 67.8387C93.6269 69.2843 92.5165 70.5194 91.0727 70.596C87.2191 70.7995 84.0851 73.5054 84.0851 76.6265C84.0851 78.2901 85.6366 80.832 87.1367 83.2878C89.3467 86.9092 91.8532 91.0129 91.8532 95.5667C91.8532 99.1725 90.487 105.223 81.3468 105.223C77.302 105.223 72.717 105.223 72.717 99.9205C72.717 96.9274 74.4405 94.8534 75.9621 93.0235C76.3111 92.5999 76.647 92.1977 76.947 91.8028C69.4873 89.5708 66.0474 80.8212 66.0474 72.6114C66.0474 61.777 74.9856 53.913 87.3016 53.913C88.0582 53.913 88.816 53.9298 89.5726 53.9477C90.2874 53.9633 91.0021 53.98 91.7109 53.98C97.0502 53.98 99.4539 52.2758 100.401 50.8624C95.9804 48.6341 88.4204 43.2833 88.4204 32.7481C88.4204 27.2609 89.4638 23.4217 90.8157 20.5817C88.9618 20.5458 87.0255 20.4932 84.9744 20.4214C84.0027 20.3878 83.1277 19.817 82.7046 18.9398C82.2827 18.0625 82.3807 17.0225 82.9604 16.241C89.9168 6.838 101.179 0.763184 111.654 0.763184C124.941 0.763184 133.525 8.59486 133.525 20.7122C133.525 37.6836 127.214 43.2617 122.607 47.3332C121.209 48.5694 120.05 49.5915 119.326 50.7188C148.105 51.626 158.697 58.6953 168.08 64.9604C175.382 69.8349 181.148 73.6849 194.644 73.6849C199.004 73.6849 203.343 73.1116 207.547 71.9795C208.426 71.7425 209.359 71.9795 210.021 72.6006C210.683 73.2217 210.973 74.142 210.793 75.0336C205.711 100.069 184.189 117.554 158.461 117.554Z" fill="white"/>
<path d="M82.493 146.903C78.2606 146.903 75.4182 144.477 75.4182 140.868C75.4182 140.587 75.4648 140.308 75.5533 140.04C75.6704 139.683 87.4498 103.842 89.018 67.1624C89.0813 65.7167 90.2682 64.6014 91.7479 64.654C93.1918 64.7174 94.3142 65.9393 94.2532 67.3874C92.7627 102.216 82.2647 136.246 80.7132 141.107C80.9678 141.599 82.0113 141.659 82.493 141.659C86.0453 141.659 93.9269 130.716 102.84 106.689C103.344 105.33 104.85 104.644 106.207 105.144C107.563 105.648 108.253 107.159 107.75 108.516C98.3028 133.988 89.8044 146.903 82.493 146.903Z" fill="white"/>
<path d="M143.822 74.4556C143.152 74.4556 142.482 74.1995 141.971 73.6873C134.874 66.5832 125.08 66.1715 114.709 65.7347C111.128 65.5851 107.426 65.4295 103.904 64.9652C102.47 64.7761 101.458 63.4597 101.648 62.0235C101.837 60.5874 103.159 59.5773 104.586 59.7652C107.879 60.1985 111.305 60.3445 114.929 60.4953C125.845 60.9548 137.135 61.4287 145.674 69.9797C146.697 71.0041 146.697 72.664 145.674 73.6873C145.162 74.1995 144.493 74.4556 143.822 74.4556Z" fill="white"/>
<path d="M123.162 109.146C119.622 109.146 110.311 105.095 110.311 95.9736C110.311 89.6654 114.643 85.9805 118.466 82.7301C121.657 80.017 124.413 77.6737 124.413 74.2893C124.413 73.5724 124.277 72.8436 123.998 72.0633C123.51 70.699 124.217 69.1982 125.578 68.7087C126.945 68.2216 128.439 68.9277 128.928 70.2909C129.407 71.6312 129.651 72.9764 129.651 74.2893C129.651 80.1008 125.51 83.6217 121.857 86.7285C118.472 89.6068 115.548 92.0924 115.548 95.9736C115.548 101.717 122.033 103.902 123.162 103.902C123.521 103.902 126.664 103.835 126.664 101.513C126.664 100.917 126.423 100.6 125.673 99.7721C124.862 98.8746 123.634 97.515 123.634 95.4003C123.634 94.2167 124.102 93.7105 126.069 91.573C129.028 88.3585 136.891 79.8172 136.891 74.5813C136.891 72.7514 136.223 71.046 134.848 69.3634C133.933 68.242 134.098 66.5904 135.216 65.6725C136.339 64.757 137.986 64.9197 138.903 66.0411C141.042 68.6621 142.129 71.5331 142.129 74.5813C142.129 81.866 133.882 90.8227 129.92 95.1287C129.688 95.38 129.446 95.6421 129.226 95.8826C129.338 96.0131 129.458 96.1435 129.557 96.2548C130.491 97.2876 131.901 98.8494 131.901 101.515C131.902 105.938 128.226 109.146 123.162 109.146Z" fill="white"/>
<path d="M119.521 85.6742C118.407 85.6742 117.376 84.9609 117.023 83.8419C116.304 81.5573 115.968 79.1637 115.968 76.3082C115.968 74.2079 116.152 72.1327 116.331 70.1245C116.44 68.8847 116.551 67.646 116.616 66.4061C116.691 64.9604 117.939 63.8498 119.367 63.924C120.813 64.0006 121.921 65.2333 121.846 66.679C121.778 67.9823 121.662 69.2856 121.547 70.5889C121.37 72.5695 121.204 74.4401 121.204 76.3082C121.204 78.6132 121.461 80.5041 122.017 82.261C122.452 83.6421 121.688 85.1153 120.309 85.5521C120.048 85.6347 119.782 85.6742 119.521 85.6742Z" fill="white"/>
<path d="M127.505 147.113C117.831 147.113 112.627 132.089 108.446 120.017C106.914 115.589 105.173 110.567 104.117 109.509C103.094 108.485 103.094 106.825 104.117 105.801C105.14 104.777 106.797 104.777 107.82 105.801C109.639 107.623 111.053 111.538 113.396 118.301C116.43 127.066 121.502 141.706 127.405 141.867C127.409 141.606 127.407 141.312 127.405 141.063L127.404 140.498C127.404 133.705 125.663 126.935 123.818 119.769C123.043 116.748 122.238 113.626 121.587 110.528C121.288 109.111 122.194 107.719 123.609 107.421C125.027 107.133 126.416 108.029 126.712 109.446C127.34 112.432 128.128 115.497 128.891 118.462C130.737 125.63 132.643 133.042 132.643 140.499L132.644 141.031C132.656 142.716 132.667 144.457 131.346 145.787C130.028 147.113 128.128 147.113 127.505 147.113Z" fill="white"/>
<path d="M124.594 42.0482C124.084 42.0482 123.57 41.8998 123.118 41.591C118.88 38.6865 118.17 34.2309 117.542 30.2995C116.592 24.3408 115.964 20.4046 104.838 20.4046C103.499 20.4046 102.14 20.4525 100.789 20.5003C98.7536 20.5721 96.7384 20.6404 94.8164 20.5638C93.3725 20.5075 92.2454 19.288 92.3016 17.8411C92.3578 16.3954 93.5136 15.2477 95.0208 15.3231C96.8149 15.3925 98.7022 15.3267 100.605 15.2597C102.019 15.2106 103.439 15.1603 104.838 15.1603C120.432 15.1603 121.752 23.4336 122.715 29.4737C123.242 32.7792 123.698 35.6335 126.074 37.2623C127.269 38.0797 127.574 39.7121 126.758 40.9077C126.25 41.6485 125.43 42.0482 124.594 42.0482Z" fill="white"/>
<path d="M59.1639 162.043C58.1419 162.043 57.1725 161.442 56.7494 160.443C53.8748 153.638 52.4728 146.249 52.5851 138.478C52.7692 125.895 57.506 113.823 65.9255 104.49C66.8936 103.413 68.5527 103.33 69.6236 104.301C70.6982 105.273 70.7831 106.93 69.8125 108.004C62.2453 116.395 57.9853 127.244 57.8216 138.554C57.7188 145.593 58.981 152.267 61.5723 158.397C62.1353 159.733 61.5126 161.271 60.181 161.836C59.8487 161.977 59.5033 162.043 59.1639 162.043Z" fill="white"/>
<path d="M146.98 166.681C146.545 166.681 146.108 166.574 145.701 166.346C144.439 165.638 143.99 164.04 144.697 162.776C148.65 155.712 150.717 147.632 150.67 139.414C150.626 131.069 148.251 122.932 143.802 115.883C143.027 114.658 143.393 113.038 144.615 112.265C145.835 111.493 147.456 111.856 148.228 113.079C153.202 120.96 155.859 130.056 155.908 139.384C155.959 148.508 153.662 157.483 149.266 165.34C148.787 166.199 147.896 166.681 146.98 166.681Z" fill="white"/>
<path d="M3.46811 224.212C3.26969 224.212 3.06889 224.19 2.86569 224.142C1.45767 223.81 0.586317 222.399 0.916211 220.988C6.55189 197.006 15.9754 194.756 25.1455 194.507C29.501 194.39 30.0592 194.375 30.0592 190.193C30.0592 189.286 29.9911 188.337 29.9241 187.376C29.8476 186.271 29.7723 185.153 29.7723 184.062C29.7723 184.022 29.7759 183.869 29.7771 183.83C29.8321 182.609 30.7238 181.588 31.925 181.369C36.485 180.54 41.0437 180.433 44.5076 180.433C45.6861 180.433 46.8635 180.447 48.0384 180.464C67.8846 143.21 73.6255 141.915 93.9605 142.505C96.3678 142.575 99.0966 142.654 102.07 142.654C133.625 142.654 136.685 143.557 138.464 153.388C138.989 156.286 139.628 159.824 142.522 164.636C146.256 163.598 150.065 162.646 153.766 161.721C156.701 160.985 159.637 160.251 162.544 159.474C163.327 159.262 164.172 159.431 164.818 159.931C165.465 160.431 165.842 161.201 165.838 162.017C165.83 164.234 165.769 166.528 165.705 168.855C165.635 171.403 165.565 173.989 165.565 176.555C165.565 196.802 173.116 204.016 180.18 204.016C181.74 204.016 183.438 203.603 185.236 203.164C187.234 202.675 189.301 202.172 191.452 202.172C199.892 202.172 202.945 209.992 204.965 215.168C205.526 216.609 206.057 217.969 206.599 218.962C207.292 220.234 206.824 221.827 205.555 222.52C204.287 223.218 202.694 222.748 202.002 221.475C201.301 220.188 200.711 218.677 200.085 217.077C197.878 211.419 195.967 207.416 191.451 207.416C189.929 207.416 188.25 207.825 186.474 208.259C184.455 208.751 182.368 209.26 180.179 209.26C170.581 209.26 160.327 200.667 160.327 176.555C160.327 173.942 160.398 171.307 160.468 168.713C160.496 167.604 160.527 166.504 160.551 165.415C158.717 165.887 156.877 166.347 155.035 166.808C150.752 167.88 146.324 168.989 142.083 170.211C140.984 170.53 139.813 170.096 139.181 169.149C134.808 162.6 133.905 157.62 133.31 154.323C132.686 150.873 132.555 150.156 129.856 149.369C125.632 148.14 116.469 147.899 102.069 147.899C99.0201 147.899 96.2507 147.819 93.81 147.75C75.4542 147.222 71.6258 147.108 51.9123 184.341C51.4485 185.213 50.5401 185.724 49.554 185.736C47.8747 185.708 46.1917 185.68 44.5064 185.68C41.8445 185.68 38.499 185.745 35.0925 186.185C35.1092 186.461 35.1295 186.738 35.1486 187.014C35.2239 188.099 35.2957 189.171 35.2957 190.193C35.2957 199.479 29.5106 199.636 25.2865 199.75C19.0078 199.922 11.1955 200.132 6.01163 222.191C5.73194 223.399 4.6562 224.212 3.46811 224.212Z" fill="white"/>
<path d="M152.377 220.134C151.439 220.134 150.53 219.626 150.062 218.738C147.444 213.791 143.726 209.497 140.003 205.381C131.574 209.451 121.754 211.481 110.06 211.582C108.932 211.521 107.962 210.906 107.581 209.868C105.949 205.442 105.31 200.676 104.99 196.336C100.751 196.317 96.4443 195.976 92.2752 195.643C88.6488 195.355 84.9076 195.058 81.2979 194.987C74.1956 200.83 67.8834 208.055 61.7744 215.051L59.2931 217.885C58.338 218.971 56.6826 219.078 55.5961 218.121C54.5096 217.165 54.4044 215.507 55.3606 214.419L57.8301 211.598C64.2976 204.194 70.9852 196.537 78.7448 190.305C79.2098 189.932 79.7883 189.729 80.3835 189.729C84.4881 189.762 88.6584 190.094 92.6888 190.416C97.5571 190.805 102.575 191.197 107.371 191.063C108.836 191.062 109.99 192.149 110.064 193.545C110.276 197.548 110.669 202.112 111.915 206.304C122.749 205.999 131.747 203.873 139.376 199.825C140.433 199.257 141.734 199.493 142.539 200.376L142.686 200.537C147.011 205.299 151.484 210.222 154.69 216.285C155.366 217.566 154.881 219.151 153.602 219.83C153.211 220.037 152.792 220.134 152.377 220.134Z" fill="white"/>
<path d="M41.8027 181.388C40.9517 181.388 40.1162 180.973 39.613 180.208C38.5217 178.547 37.4866 176.839 36.54 175.134C35.8372 173.868 36.295 172.271 37.5584 171.568C38.817 170.868 40.4162 171.319 41.1202 172.587C42.0035 174.179 42.9681 175.773 43.9877 177.323C44.7825 178.533 44.4479 180.159 43.2406 180.956C42.7984 181.248 42.2964 181.388 41.8027 181.388ZM32.6781 162.033C31.5593 162.033 30.523 161.309 30.1764 160.18C29.47 157.884 28.8652 155.526 28.3751 153.173C28.0799 151.756 28.9895 150.367 30.4059 150.071C31.8127 149.778 33.2088 150.688 33.504 152.105C33.9594 154.298 34.526 156.498 35.1822 158.64C35.6065 160.025 34.8308 161.491 33.4478 161.917C33.1932 161.995 32.9339 162.033 32.6781 162.033ZM29.3588 139.633C27.9078 139.632 26.7376 138.455 26.74 137.007C26.7436 134.595 26.8571 132.165 27.0806 129.787C27.2133 128.345 28.4875 127.279 29.9314 127.421C31.3717 127.556 32.4295 128.835 32.2944 130.275C32.0876 132.494 31.98 134.762 31.9777 137.014C31.9753 138.463 30.8027 139.633 29.3588 139.633ZM32.7582 117.255C32.5012 117.255 32.2394 117.217 31.9812 117.137C30.6007 116.706 29.8274 115.237 30.2577 113.855C30.9688 111.566 31.7972 109.28 32.7235 107.058C33.2805 105.721 34.8152 105.092 36.1491 105.646C37.4842 106.204 38.1153 107.739 37.5595 109.076C36.6954 111.149 35.9232 113.279 35.2611 115.412C34.9096 116.534 33.8757 117.255 32.7582 117.255ZM42.6466 96.9058C42.1338 96.9058 41.6163 96.7551 41.1609 96.4427C39.9704 95.6193 39.6704 93.9881 40.4903 92.7937C41.8506 90.8167 43.3207 88.8791 44.8555 87.0349C45.783 85.9231 47.4324 85.7747 48.5452 86.6998C49.6556 87.6285 49.8051 89.2812 48.8799 90.3942C47.4456 92.1152 46.0746 93.9235 44.8053 95.7701C44.2973 96.5097 43.4785 96.9058 42.6466 96.9058ZM58.105 80.3796C57.3305 80.3796 56.5655 80.0385 56.0491 79.3839C55.1527 78.247 55.3451 76.5978 56.4794 75.7003C58.3572 74.2151 60.3294 72.7957 62.347 71.4816C63.5578 70.6918 65.1822 71.034 65.9698 72.2488C66.7599 73.4623 66.4169 75.0863 65.2037 75.8762C63.3211 77.1041 61.478 78.4289 59.7282 79.8148C59.2477 80.1953 58.6739 80.3796 58.105 80.3796Z" fill="white"/>
<path d="M169.952 178.368C169.496 178.368 169.036 178.25 168.617 178C167.374 177.261 166.963 175.652 167.701 174.406C168.845 172.476 169.912 170.471 170.872 168.451C171.493 167.142 173.062 166.587 174.361 167.208C175.669 167.829 176.223 169.393 175.603 170.701C174.575 172.867 173.433 175.013 172.206 177.082C171.716 177.911 170.845 178.368 169.952 178.368ZM178.451 157.389C178.251 157.389 178.047 157.367 177.843 157.318C176.436 156.983 175.566 155.569 175.902 154.159C176.418 151.987 176.84 149.758 177.157 147.53C177.361 146.098 178.673 145.106 180.12 145.304C181.552 145.509 182.546 146.838 182.343 148.271C182.003 150.656 181.551 153.046 180.996 155.375C180.71 156.578 179.636 157.389 178.451 157.389ZM180.346 134.828C178.976 134.828 177.825 133.763 177.735 132.375C177.591 130.126 177.34 127.869 176.993 125.665C176.768 124.237 177.744 122.893 179.172 122.668C180.589 122.443 181.942 123.419 182.166 124.849C182.539 127.21 182.806 129.628 182.962 132.037C183.056 133.482 181.962 134.73 180.517 134.823C180.461 134.826 180.403 134.828 180.346 134.828Z" fill="white"/>
<path d="M104.932 234.763C82.6377 234.763 61.6548 227.429 44.2506 213.554C43.1198 212.65 42.9322 211.001 43.8334 209.868C44.737 208.736 46.3829 208.548 47.5148 209.449C63.9808 222.578 83.8366 229.518 104.933 229.518C123.614 229.518 141.605 223.958 156.962 213.436C158.156 212.622 159.785 212.924 160.603 214.12C161.419 215.316 161.114 216.947 159.919 217.765C143.687 228.886 124.674 234.763 104.932 234.763Z" fill="white"/>
<path d="M173.238 205.694C172.583 205.694 171.928 205.449 171.42 204.96C170.378 203.956 170.348 202.295 171.352 201.252C172.911 199.631 174.438 197.927 175.885 196.186C176.813 195.071 178.465 194.925 179.574 195.85C180.686 196.778 180.836 198.432 179.91 199.543C178.382 201.38 176.771 203.179 175.124 204.892C174.61 205.427 173.925 205.694 173.238 205.694ZM186.902 187.619C186.451 187.619 185.998 187.504 185.583 187.261C184.335 186.53 183.913 184.925 184.643 183.674C185.777 181.732 186.854 179.716 187.848 177.686C188.486 176.383 190.058 175.847 191.352 176.482C192.651 177.118 193.19 178.688 192.555 179.991C191.504 182.136 190.365 184.268 189.166 186.321C188.678 187.154 187.802 187.619 186.902 187.619ZM195.901 166.82C195.654 166.82 195.403 166.787 195.154 166.712C193.768 166.301 192.976 164.841 193.388 163.451C194.031 161.283 194.598 159.071 195.074 156.873C195.381 155.457 196.776 154.559 198.189 154.867C199.603 155.174 200.499 156.571 200.192 157.985C199.689 160.31 199.089 162.649 198.41 164.942C198.074 166.083 197.031 166.82 195.901 166.82ZM199.687 144.474C199.644 144.474 199.602 144.473 199.559 144.47C198.115 144.401 197 143.171 197.069 141.725C197.142 140.211 197.178 138.686 197.18 137.151C197.18 136.41 197.172 135.666 197.153 134.925C197.119 133.477 198.261 132.274 199.707 132.238C201.177 132.245 202.354 133.348 202.39 134.796C202.409 135.581 202.418 136.367 202.418 137.155C202.417 138.775 202.377 140.381 202.301 141.977C202.235 143.381 201.076 144.474 199.687 144.474ZM198.108 121.853C196.877 121.853 195.778 120.979 195.538 119.724C195.114 117.499 194.602 115.269 194.019 113.098C193.642 111.7 194.471 110.261 195.867 109.885C197.271 109.509 198.701 110.337 199.076 111.735C199.693 114.032 200.234 116.387 200.684 118.736C200.955 120.158 200.024 121.533 198.604 121.806C198.438 121.837 198.271 121.853 198.108 121.853Z" fill="white"/>
<path d="M28.1406 195.558C27.3326 195.558 26.5342 195.185 26.0214 194.479C24.6254 192.557 23.2783 190.55 22.0173 188.515C21.2571 187.284 21.636 185.668 22.8647 184.904C24.0923 184.145 25.7071 184.52 26.4708 185.753C27.6613 187.677 28.9343 189.574 30.2563 191.392C31.1073 192.564 30.8491 194.205 29.6801 195.057C29.2152 195.394 28.6761 195.558 28.1406 195.558ZM17.1083 175.759C16.0756 175.759 15.0967 175.144 14.6819 174.129C13.7759 171.911 12.9464 169.641 12.2113 167.384C11.7643 166.007 12.5161 164.527 13.8931 164.078C15.2724 163.629 16.7462 164.386 17.1944 165.762C17.8888 167.898 18.6741 170.045 19.5323 172.146C20.0798 173.486 19.4367 175.017 18.098 175.565C17.7741 175.698 17.4382 175.759 17.1083 175.759ZM11.1009 153.896C9.82556 153.896 8.70679 152.963 8.51435 151.662C8.16295 149.305 7.89521 146.903 7.71831 144.521C7.61073 143.076 8.69364 141.818 10.1363 141.711C11.5683 141.603 12.8376 142.687 12.9428 144.132C13.1102 146.386 13.3636 148.659 13.6946 150.887C13.9074 152.32 12.9225 153.654 11.4918 153.869C11.3603 153.888 11.2288 153.896 11.1009 153.896ZM10.4471 131.23C10.3682 131.23 10.2905 131.227 10.2116 131.22C8.77134 131.092 7.70635 129.818 7.83425 128.375C8.04581 126.005 8.34702 123.611 8.73309 121.251C8.96616 119.822 10.3264 118.849 11.7416 119.086C13.1687 119.319 14.1369 120.668 13.9038 122.097C13.5393 124.33 13.2524 126.599 13.0528 128.839C12.9309 130.204 11.787 131.23 10.4471 131.23ZM15.1337 109.058C14.8529 109.058 14.5672 109.014 14.2863 108.917C12.9165 108.449 12.1874 106.959 12.656 105.587C13.4269 103.329 14.2911 101.072 15.2234 98.8829C15.7911 97.5533 17.3271 96.931 18.661 97.5006C19.9913 98.0691 20.6105 99.6106 20.0415 100.943C19.1582 103.013 18.3394 105.147 17.6103 107.285C17.2398 108.373 16.2238 109.058 15.1337 109.058ZM24.9696 88.6445C24.4855 88.6445 23.9978 88.5117 23.5592 88.2316C22.3412 87.4514 21.985 85.8297 22.7643 84.609C24.0445 82.6044 25.4214 80.6178 26.8509 78.7053C27.7187 77.5445 29.3622 77.3123 30.5168 78.18C31.675 79.0476 31.9105 80.6908 31.0415 81.8505C29.6897 83.66 28.3881 85.5401 27.1761 87.437C26.6776 88.2173 25.8314 88.6445 24.9696 88.6445ZM39.3546 71.1382C38.6662 71.1382 37.9765 70.8665 37.4625 70.3291C36.4633 69.2832 36.4991 67.622 37.545 66.6215C39.2674 64.9736 41.0698 63.3675 42.9058 61.85C44.021 60.9261 45.6716 61.0853 46.592 62.2019C47.5123 63.3185 47.3557 64.9712 46.2406 65.8927C44.5026 67.33 42.7958 68.8511 41.1667 70.4117C40.6575 70.8976 40.0061 71.1382 39.3546 71.1382ZM57.4581 57.5189C56.5545 57.5189 55.6748 57.0498 55.1883 56.2096C54.4652 54.9566 54.8931 53.3517 56.1445 52.6265C58.21 51.4321 60.3423 50.2976 62.483 49.26C63.7859 48.6281 65.3529 49.175 65.9816 50.4759C66.6127 51.7804 66.0688 53.3469 64.7672 53.9788C62.7412 54.9626 60.7224 56.0349 58.767 57.1682C58.3558 57.4064 57.904 57.5189 57.4581 57.5189ZM78.2689 48.5922C77.1346 48.5922 76.0912 47.849 75.7577 46.7061C75.3513 45.3166 76.1485 43.8601 77.5362 43.4532C79.8264 42.7819 82.1679 42.1894 84.4927 41.6952C85.8995 41.402 87.298 42.2948 87.5992 43.7129C87.9004 45.1299 86.9992 46.5218 85.584 46.8233C83.3847 47.2925 81.171 47.8526 79.0052 48.4869C78.7602 48.5575 78.5128 48.5922 78.2689 48.5922Z" fill="white"/>
</svg>
