<svg width="133" height="131" viewBox="0 0 133 131" fill="none" xmlns="http://www.w3.org/2000/svg">
<g filter="url(#filter0_f_3220_8073)">
<path d="M5.79297 34.6231V65.5088H8.26382H10.7347L10.817 42.324L10.9194 23.1398C10.9311 20.9466 12.7068 19.1718 14.9001 19.1612L36.5551 19.0568L62.2108 18.9744V16.5035V14.0327H36.4727H10.6935L10.817 11.4383C10.8863 10.0068 12.0636 8.87967 13.4968 8.87275L36.5551 8.76154L62.2108 8.67918V6.20832V3.73747H34.0019H9.79297C7.58383 3.73747 5.79297 5.52833 5.79297 7.73747V34.6231Z" fill="#E0DFE6"/>
<path d="M67.5645 21.6515V34.5797C67.5645 37.3354 69.7942 39.5716 72.5499 39.5796L95.8969 39.6475L119.289 39.7496C122.011 39.7615 124.223 41.9481 124.267 44.6694L124.312 47.4719L124.394 55.2139H126.865H129.336V29.4758V8.73777C129.336 5.97635 127.097 3.73777 124.336 3.73777H98.4501H72.5644C69.803 3.73777 67.5645 5.97635 67.5645 8.73777V21.6515ZM124.312 16.7098C124.394 20.9926 124.312 26.7991 124.188 29.5582L124.168 29.9075C124.018 32.5543 121.827 34.6234 119.176 34.6234H98.203H77.5062C74.7447 34.6234 72.5062 32.3849 72.5062 29.6234V21.9397C72.5062 16.3158 72.5859 11.436 72.7026 9.67006C72.7339 9.19731 73.0233 8.92469 73.4967 8.90363C76.2215 8.78241 86.5343 8.72641 98.6148 8.76184L119.29 8.86172C122.011 8.87487 124.223 11.0618 124.265 13.7827L124.312 16.7098Z" fill="#E0DFE6"/>
<path d="M82.9255 17.492C80.8253 19.5922 79.0957 21.4866 79.0957 21.6925C79.0957 21.8984 80.8665 23.8339 83.0079 25.9753L86.9201 29.8875L88.6497 28.1167L90.4204 26.3871L88.1555 24.1221L85.9317 21.8572L88.279 19.4687L90.6264 17.0802L88.8556 15.3506C87.9084 14.4034 87.0024 13.621 86.9201 13.621C86.7965 13.621 84.9846 15.3506 82.9255 17.492Z" fill="#E0DFE6"/>
<path d="M108.003 15.3506L106.273 17.1214L108.621 19.4687L110.968 21.8572L108.744 24.1221L106.479 26.3871L108.25 28.1167L109.98 29.8875L113.892 25.9753C116.033 23.8339 117.804 21.8984 117.804 21.6513C117.804 21.2395 110.392 13.621 109.98 13.621C109.856 13.621 108.991 14.4034 108.003 15.3506Z" fill="#E0DFE6"/>
<path d="M96.3489 20.2513L92.1484 26.5108L93.5486 27.6639C95.1958 29.0228 96.3901 29.517 96.7607 28.9405C96.8842 28.7346 98.7786 25.9343 100.92 22.681L104.791 16.8333L103.803 16.092C103.267 15.6802 102.32 15.0625 101.702 14.6919L100.549 13.9918L96.3489 20.2513Z" fill="#E0DFE6"/>
<path d="M41.3733 39.8121L40.5908 45.0009L37.5846 46.2363L34.5784 47.4717L29.7602 45.2068L24.9421 42.9418L19.5062 48.2953L14.1115 53.69L15.9646 57.6434C18.9297 63.9441 18.8473 63.2852 17.2824 66.5385L15.8823 69.38L12.9996 70.1624C11.4347 70.5742 9.12862 71.1919 7.93437 71.5214L5.79297 72.1391V80.54V88.9409L10.6523 90.4234C13.2879 91.247 15.6764 92.153 15.9235 92.4001C16.1706 92.6883 16.8706 94.1708 17.5295 95.6945L18.6826 98.4948L16.3765 103.313L14.1115 108.131L19.465 113.567L24.8597 118.962L28.8131 117.109C34.949 114.226 34.4549 114.308 37.7082 115.708L40.5908 116.944L41.3733 122.091L42.1969 127.28H52.1626H62.1284L62.3755 126.168C62.499 125.509 62.8285 123.45 63.0756 121.515C63.3227 119.579 63.6933 117.726 63.8992 117.356C64.0639 117.026 65.5052 116.203 67.0701 115.585L69.9116 114.432L74.8121 116.738L79.6715 119.085L85.025 113.691L90.4197 108.337L88.8548 105.249C88.0312 103.56 87.3311 101.954 87.3311 101.748C87.3311 101.501 94.826 101.336 108.333 101.336H129.336V80.9518V60.5673L110.516 60.6496L91.6963 60.7732L91.0786 61.885C90.502 62.9146 90.502 63.0793 91.2845 64.15L92.1493 65.3031L108.292 65.4266L119.419 65.4835C122.171 65.4976 124.394 67.732 124.394 70.4834V80.9518V91.3946C124.394 94.156 122.155 96.3946 119.394 96.3946H90.8315H62.2691C59.5076 96.3946 57.2691 94.156 57.2691 91.3946V80.9518V70.509C57.2691 67.7475 59.5076 65.509 62.2691 65.509H70.9823L84.6544 65.4678L87.3311 59.9084C88.8136 56.8198 90.049 54.1019 90.1314 53.8548C90.1726 53.5665 87.8665 50.9721 84.9426 48.0895L79.6715 42.8183L74.8121 45.1656L69.9116 47.4717L67.0701 46.3187C65.5052 45.701 64.0639 44.8773 63.8992 44.5479C63.6933 44.1773 63.3227 42.3241 63.0756 40.3886C62.8285 38.4531 62.499 36.3941 62.3755 35.7352L62.1284 34.6233H52.1626H42.1557L41.3733 39.8121ZM58.5045 44.0125C58.7583 45.5916 59.0507 47.0548 59.2891 47.8734C59.4259 48.3429 59.7703 48.6901 60.2083 48.9076C62.41 50.0008 69.3492 52.7429 69.994 52.7429C70.4058 52.7429 72.4648 51.8781 74.565 50.8486L74.7326 50.7683C76.9487 49.7075 79.5938 50.1697 81.3187 51.9193L81.9998 52.5908C83.3341 53.9063 83.6587 55.9362 82.8012 57.6022C81.9141 59.3005 80.1631 60.3716 78.2471 60.3879L66.8642 60.4849L52.3274 60.5673V61.8027C52.3274 62.8734 52.1626 63.0381 50.8037 63.244C45.3266 64.1088 42.4851 65.5501 39.1907 69.0093C35.4432 72.9627 33.796 78.275 34.6608 83.6285C35.2373 87.376 36.6786 90.2587 39.3554 93.059C42.6087 96.477 45.2443 97.7536 50.8037 98.6596C52.1626 98.8655 52.3274 99.0302 52.3274 100.101V101.336H66.7407H81.154L82.6365 104.301C83.5208 106.045 83.1837 108.16 81.801 109.543L81.2775 110.067C79.5749 111.769 76.9834 112.213 74.8115 111.173L74.565 111.055C72.4648 110.025 70.4058 109.161 69.994 109.161C69.3492 109.161 62.41 111.903 60.2083 112.996C59.7703 113.213 59.4259 113.561 59.2891 114.03C59.0507 114.849 58.7583 116.312 58.5045 117.891C58.1233 120.345 56.0371 122.173 53.5541 122.227L52.245 122.256L47.8234 122.354C47.1392 122.369 46.5407 121.896 46.3973 121.227C46.2738 120.568 45.9855 118.55 45.6972 116.697C45.4166 114.631 44.062 112.868 42.1377 112.065L40.0143 111.179C37.1728 110.025 34.6608 109.037 34.4137 109.037C34.2078 109.037 32.1487 109.943 29.925 110.973L29.391 111.224C27.2404 112.234 24.6869 111.788 23.0066 110.108C21.3019 108.403 20.8503 105.812 21.8778 103.631L22.183 102.984L22.5412 102.2C23.5739 99.9408 23.6271 97.3554 22.6881 95.0557L22.1418 93.7179C21.0299 90.9999 19.9592 88.5703 19.7533 88.3232C19.5474 88.0761 17.4472 87.2936 15.0587 86.5112C12.4768 85.7074 10.744 83.2843 10.817 80.5812C10.8905 77.8631 12.7288 75.5087 15.3469 74.7747L15.627 74.6969C18.2611 73.9652 20.4198 72.0758 21.4942 69.5619L21.8535 68.7211C22.9654 66.0855 23.9126 63.6558 23.9126 63.3264C23.9126 62.9557 23.0889 60.8555 22.0594 58.6729L21.8726 58.2749C20.8479 56.0919 21.3014 53.5009 23.0066 51.7957C24.6869 50.1154 27.2404 49.6692 29.391 50.68L29.925 50.9309C32.1487 51.9605 34.2078 52.8664 34.4137 52.8664C34.6608 52.8664 37.1728 51.8781 40.0143 50.725L42.1377 49.8389C44.062 49.0358 45.4166 47.273 45.6972 45.2068C45.9855 43.3536 46.2738 41.3358 46.3973 40.6769C46.5407 40.0077 47.1392 39.5347 47.8234 39.5498L52.245 39.6474L53.5541 39.6762C56.0371 39.731 58.1233 41.5584 58.5045 44.0125ZM52.245 70.533C52.1215 72.6744 52.1215 72.7156 50.5978 72.9627C46.7679 73.5804 44.0912 76.8749 44.0912 80.9518C44.0912 85.2758 46.562 88.282 50.6801 88.9409C52.0803 89.188 52.1215 89.2291 52.245 91.4117L52.3685 93.6355L50.3095 93.3884C44.5854 92.7295 40.0966 87.9114 39.6437 82.0225C39.5613 80.54 39.6848 78.5221 39.9319 77.575C41.2497 72.7156 46.2738 68.5563 51.0096 68.4328L52.3685 68.3916L52.245 70.533ZM52.3274 80.9518C52.3274 83.5874 52.2038 84.0404 51.6273 84.0404C50.4742 84.0404 49.0329 82.3519 49.0329 80.993C49.0329 79.5928 50.433 77.8632 51.5861 77.8632C52.245 77.8632 52.3274 78.2338 52.3274 80.9518Z" fill="#E0DFE6"/>
<path d="M62.623 73.3333V75.8042H65.0939H67.5648V73.3333V70.8625H65.0939H62.623V73.3333Z" fill="#E0DFE6"/>
<path d="M72.918 73.3333V75.8042H75.3888H77.8597V73.3333V70.8625H75.3888H72.918V73.3333Z" fill="#E0DFE6"/>
<path d="M83.2129 73.3333V75.8042H85.6837H88.1546V73.3333V70.8625H85.6837H83.2129V73.3333Z" fill="#E0DFE6"/>
<path d="M93.5078 73.3333V75.8042H95.9787H98.4495V73.3333V70.8625H95.9787H93.5078V73.3333Z" fill="#E0DFE6"/>
<path d="M103.805 73.3333V75.8042H106.276H108.746V73.3333V70.8625H106.276H103.805V73.3333Z" fill="#E0DFE6"/>
<path d="M114.098 73.3333V75.8042H116.569H119.039V73.3333V70.8625H116.569H114.098V73.3333Z" fill="#E0DFE6"/>
<path d="M62.623 80.9517V83.6284H67.5648H72.5065V80.9517V78.2749H67.5648H62.623V80.9517Z" fill="#E0DFE6"/>
<path d="M77.8594 80.9517V83.6284H80.3302H82.8011V80.9517V78.2749H80.3302H77.8594V80.9517Z" fill="#E0DFE6"/>
<path d="M88.1543 80.9517V83.6284H90.6251H93.096V80.9517V78.2749H90.6251H88.1543V80.9517Z" fill="#E0DFE6"/>
<path d="M98.4492 80.9517V83.6284H100.92H103.391V80.9517V78.2749H100.92H98.4492V80.9517Z" fill="#E0DFE6"/>
<path d="M108.746 80.9517V83.6284H113.894H119.041V80.9517V78.2749H113.894H108.746V80.9517Z" fill="#E0DFE6"/>
<path d="M62.623 88.5702V91.041H65.0939H67.5648V88.5702V86.0993H65.0939H62.623V88.5702Z" fill="#E0DFE6"/>
<path d="M72.918 88.5702V91.041H75.3888H77.8597V88.5702V86.0993H75.3888H72.918V88.5702Z" fill="#E0DFE6"/>
<path d="M83.2129 88.5702V91.041H90.8314H98.4498V88.5702V86.0993H90.8314H83.2129V88.5702Z" fill="#E0DFE6"/>
<path d="M103.805 88.5702V91.041H106.276H108.746V88.5702V86.0993H106.276H103.805V88.5702Z" fill="#E0DFE6"/>
<path d="M114.098 88.5702V91.041H116.569H119.039V88.5702V86.0993H116.569H114.098V88.5702Z" fill="#E0DFE6"/>
<path d="M103.805 109.161V111.632H106.276H108.746V109.161V106.69H106.276H103.805V109.161Z" fill="#E0DFE6"/>
<path d="M114.098 109.161V111.632H116.569H119.039V109.161V106.69H116.569H114.098V109.161Z" fill="#E0DFE6"/>
<path d="M124.395 109.161V111.632H126.865H129.336V109.161V106.69H126.865H124.395V109.161Z" fill="#E0DFE6"/>
</g>
<path d="M0.667969 31.9041V62.7898H3.13882H5.60967L5.69204 39.605L5.79444 20.4208C5.80615 18.2276 7.58184 16.4528 9.77509 16.4422L31.4301 16.3378L57.0858 16.2554V13.7845V11.3137H31.3477H5.56849L5.69204 8.7193C5.7613 7.28777 6.93856 6.16067 8.37175 6.15376L31.4301 6.04254L57.0858 5.96018V3.48933V1.01848H28.8769H4.66797C2.45883 1.01848 0.667969 2.80934 0.667969 5.01848V31.9041Z" fill="#525D7D"/>
<path d="M62.4395 18.9322V31.8604C62.4395 34.6162 64.6692 36.8524 67.4249 36.8604L90.7719 36.9283L114.164 37.0304C116.886 37.0423 119.098 39.2288 119.142 41.9502L119.187 44.7526L119.269 52.4946H121.74H124.211V26.7566V6.01854C124.211 3.25711 121.972 1.01853 119.211 1.01853H93.3251H67.4394C64.678 1.01853 62.4395 3.25711 62.4395 6.01853V18.9322ZM119.187 13.9905C119.269 18.2733 119.187 24.0798 119.063 26.8389L119.043 27.1883C118.893 29.8351 116.702 31.9042 114.051 31.9042H93.078H72.3812C69.6197 31.9042 67.3812 29.6656 67.3812 26.9042V19.2205C67.3812 13.5966 67.4609 8.71675 67.5776 6.95082C67.6089 6.47807 67.8983 6.20545 68.3717 6.18439C71.0965 6.06318 81.4093 6.00717 93.4898 6.0426L114.165 6.14248C116.886 6.15563 119.098 8.34258 119.14 11.0635L119.187 13.9905Z" fill="#525D7D"/>
<path d="M77.8005 14.773C75.7003 16.8732 73.9707 18.7676 73.9707 18.9735C73.9707 19.1794 75.7415 21.1149 77.8829 23.2563L81.7951 27.1685L83.5247 25.3977L85.2954 23.6681L83.0305 21.4031L80.8067 19.1382L83.154 16.7497L85.5014 14.3612L83.7306 12.6316C82.7834 11.6844 81.8774 10.902 81.7951 10.902C81.6715 10.902 79.8596 12.6316 77.8005 14.773Z" fill="#525D7D"/>
<path d="M102.878 12.6316L101.148 14.4024L103.496 16.7497L105.843 19.1382L103.619 21.4031L101.354 23.6681L103.125 25.3977L104.855 27.1685L108.767 23.2563C110.908 21.1149 112.679 19.1794 112.679 18.9323C112.679 18.5205 105.267 10.902 104.855 10.902C104.731 10.902 103.866 11.6844 102.878 12.6316Z" fill="#525D7D"/>
<path d="M91.2239 17.5321L87.0234 23.7916L88.4236 24.9446C90.0708 26.3036 91.2651 26.7978 91.6357 26.2212C91.7592 26.0153 93.6536 23.215 95.795 19.9617L99.666 14.1141L98.6776 13.3728C98.1423 12.961 97.1951 12.3433 96.5774 11.9727L95.4243 11.2726L91.2239 17.5321Z" fill="#525D7D"/>
<path d="M36.2483 37.0929L35.4658 42.2816L32.4596 43.5171L29.4534 44.7525L24.6352 42.4875L19.8171 40.2226L14.3812 45.5761L8.98651 50.9708L10.8396 54.9242C13.8047 61.2248 13.7223 60.566 12.1574 63.8192L10.7573 66.6607L7.87462 67.4432C6.30975 67.855 4.00362 68.4727 2.80937 68.8021L0.667969 69.4198V77.8207V86.2216L5.52731 87.7042C8.16289 88.5278 10.5514 89.4338 10.7985 89.6808C11.0456 89.9691 11.7456 91.4516 12.4045 92.9753L13.5576 95.7756L11.2515 100.594L8.98651 105.412L14.34 110.848L19.7347 116.242L23.6881 114.389C29.824 111.507 29.3299 111.589 32.5832 112.989L35.4658 114.225L36.2483 119.372L37.0719 124.561H47.0376H57.0034L57.2505 123.449C57.374 122.79 57.7035 120.731 57.9506 118.796C58.1977 116.86 58.5683 115.007 58.7742 114.636C58.9389 114.307 60.3802 113.483 61.9451 112.866L64.7866 111.713L69.6871 114.019L74.5465 116.366L79.9 110.971L85.2947 105.618L83.7298 102.529C82.9062 100.841 82.2061 99.2348 82.2061 99.0289C82.2061 98.7818 89.701 98.6171 103.208 98.6171H124.211V78.2325V57.848L105.391 57.9304L86.5713 58.0539L85.9536 59.1658C85.377 60.1953 85.377 60.36 86.1595 61.4308L87.0243 62.5838L103.167 62.7074L114.294 62.7643C117.046 62.7784 119.269 65.0128 119.269 67.7642V78.2325V88.6754C119.269 91.4368 117.03 93.6754 114.269 93.6754H85.7065H57.1441C54.3826 93.6754 52.1441 91.4368 52.1441 88.6754V78.2325V67.7897C52.1441 65.0283 54.3826 62.7897 57.1441 62.7897H65.8573L79.5294 62.7485L82.2061 57.1891C83.6886 54.1006 84.924 51.3826 85.0064 51.1355C85.0476 50.8473 82.7415 48.2529 79.8176 45.3702L74.5465 40.0991L69.6871 42.4464L64.7866 44.7525L61.9451 43.5994C60.3802 42.9817 58.9389 42.1581 58.7742 41.8287C58.5683 41.458 58.1977 39.6049 57.9506 37.6694C57.7035 35.7339 57.374 33.6748 57.2505 33.0159L57.0034 31.9041H47.0376H37.0307L36.2483 37.0929ZM53.3795 41.2933C53.6333 42.8724 53.9257 44.3356 54.1641 45.1541C54.3009 45.6236 54.6453 45.9709 55.0833 46.1884C57.285 47.2815 64.2242 50.0236 64.869 50.0236C65.2808 50.0236 67.3398 49.1588 69.44 48.1293L69.6076 48.0491C71.8237 46.9882 74.4688 47.4505 76.1937 49.2L76.8748 49.8715C78.2091 51.187 78.5337 53.217 77.6762 54.883C76.7891 56.5813 75.0381 57.6523 73.1221 57.6686L61.7392 57.7656L47.2024 57.848V59.0834C47.2024 60.1541 47.0376 60.3189 45.6787 60.5248C40.2016 61.3896 37.3601 62.8309 34.0657 66.2901C30.3182 70.2435 28.671 75.5558 29.5358 80.9093C30.1123 84.6568 31.5536 87.5394 34.2304 90.3397C37.4837 93.7577 40.1193 95.0343 45.6787 95.9403C47.0376 96.1462 47.2024 96.311 47.2024 97.3817V98.6171H61.6157H76.029L77.5115 101.582C78.3958 103.326 78.0587 105.441 76.676 106.824L76.1525 107.347C74.4499 109.05 71.8584 109.493 69.6865 108.454L69.44 108.336C67.3398 107.306 65.2808 106.441 64.869 106.441C64.2242 106.441 57.285 109.184 55.0833 110.277C54.6453 110.494 54.3009 110.841 54.1641 111.311C53.9257 112.13 53.6333 113.593 53.3795 115.172C52.9983 117.626 50.9121 119.453 48.4291 119.508L47.12 119.537L42.6984 119.635C42.0142 119.65 41.4157 119.177 41.2723 118.507C41.1488 117.849 40.8605 115.831 40.5722 113.978C40.2916 111.911 38.937 110.149 37.0127 109.345L34.8893 108.459C32.0478 107.306 29.5358 106.318 29.2887 106.318C29.0828 106.318 27.0237 107.224 24.8 108.253L24.266 108.504C22.1154 109.515 19.5619 109.069 17.8816 107.389C16.1769 105.684 15.7253 103.093 16.7528 100.912L17.058 100.264L17.4162 99.4806C18.4489 97.2216 18.5021 94.6361 17.5631 92.3365L17.0168 90.9986C15.9049 88.2807 14.8342 85.851 14.6283 85.6039C14.4224 85.3568 12.3222 84.5744 9.93367 83.792C7.35177 82.9882 5.61898 80.5651 5.69204 77.8619C5.7655 75.1439 7.60383 72.7895 10.2219 72.0554L10.502 71.9776C13.1361 71.2459 15.2948 69.3566 16.3692 66.8427L16.7285 66.0018C17.8404 63.3663 18.7876 60.9366 18.7876 60.6071C18.7876 60.2365 17.9639 58.1363 16.9344 55.9537L16.7476 55.5556C15.7229 53.3727 16.1764 50.7817 17.8816 49.0765C19.5619 47.3962 22.1154 46.9499 24.266 47.9607L24.8 48.2117C27.0237 49.2412 29.0828 50.1472 29.2887 50.1472C29.5358 50.1472 32.0478 49.1589 34.8893 48.0058L37.0127 47.1197C38.937 46.3166 40.2916 44.5538 40.5722 42.4875C40.8605 40.6344 41.1488 38.6165 41.2723 37.9577C41.4157 37.2885 42.0142 36.8155 42.6984 36.8306L47.12 36.9281L48.4291 36.957C50.9121 37.0118 52.9983 38.8392 53.3795 41.2933ZM47.12 67.8138C46.9965 69.9552 46.9965 69.9964 45.4728 70.2435C41.6429 70.8612 38.9662 74.1556 38.9662 78.2325C38.9662 82.5565 41.437 85.5627 45.5551 86.2216C46.9553 86.4687 46.9965 86.5099 47.12 88.6925L47.2435 90.9163L45.1845 90.6692C39.4604 90.0103 34.9716 85.1921 34.5187 79.3033C34.4363 77.8207 34.5598 75.8029 34.8069 74.8557C36.1247 69.9964 41.1488 65.8371 45.8846 65.7136L47.2435 65.6724L47.12 67.8138ZM47.2024 78.2325C47.2024 80.8681 47.0788 81.3211 46.5023 81.3211C45.3492 81.3211 43.9079 79.6327 43.9079 78.2737C43.9079 76.8736 45.308 75.144 46.4611 75.144C47.12 75.144 47.2024 75.5146 47.2024 78.2325Z" fill="#525D7D"/>
<path d="M57.498 70.6144V73.0852H59.9689H62.4398V70.6144V68.1435H59.9689H57.498V70.6144Z" fill="#525D7D"/>
<path d="M67.793 70.6144V73.0852H70.2638H72.7347V70.6144V68.1435H70.2638H67.793V70.6144Z" fill="#525D7D"/>
<path d="M78.0879 70.6144V73.0852H80.5587H83.0296V70.6144V68.1435H80.5587H78.0879V70.6144Z" fill="#525D7D"/>
<path d="M88.3828 70.6144V73.0852H90.8537H93.3245V70.6144V68.1435H90.8537H88.3828V70.6144Z" fill="#525D7D"/>
<path d="M98.6797 70.6144V73.0852H101.151H103.621V70.6144V68.1435H101.151H98.6797V70.6144Z" fill="#525D7D"/>
<path d="M108.975 70.6144V73.0852H111.445H113.916V70.6144V68.1435H111.445H108.975V70.6144Z" fill="#525D7D"/>
<path d="M57.498 78.2327V80.9094H62.4398H67.3815V78.2327V75.5559H62.4398H57.498V78.2327Z" fill="#525D7D"/>
<path d="M72.7344 78.2327V80.9094H75.2052H77.6761V78.2327V75.5559H75.2052H72.7344V78.2327Z" fill="#525D7D"/>
<path d="M83.0293 78.2327V80.9094H85.5001H87.971V78.2327V75.5559H85.5001H83.0293V78.2327Z" fill="#525D7D"/>
<path d="M93.3242 78.2327V80.9094H95.7951H98.2659V78.2327V75.5559H95.7951H93.3242V78.2327Z" fill="#525D7D"/>
<path d="M103.621 78.2327V80.9094H108.769H113.916V78.2327V75.5559H108.769H103.621V78.2327Z" fill="#525D7D"/>
<path d="M57.498 85.8512V88.322H59.9689H62.4398V85.8512V83.3803H59.9689H57.498V85.8512Z" fill="#525D7D"/>
<path d="M67.793 85.8512V88.322H70.2638H72.7347V85.8512V83.3803H70.2638H67.793V85.8512Z" fill="#525D7D"/>
<path d="M78.0879 85.8512V88.322H85.7064H93.3248V85.8512V83.3803H85.7064H78.0879V85.8512Z" fill="#525D7D"/>
<path d="M98.6797 85.8512V88.322H101.151H103.621V85.8512V83.3803H101.151H98.6797V85.8512Z" fill="#525D7D"/>
<path d="M108.975 85.8512V88.322H111.445H113.916V85.8512V83.3803H111.445H108.975V85.8512Z" fill="#525D7D"/>
<path d="M98.6797 106.442V108.912H101.151H103.621V106.442V103.971H101.151H98.6797V106.442Z" fill="#525D7D"/>
<path d="M108.975 106.442V108.912H111.445H113.916V106.442V103.971H111.445H108.975V106.442Z" fill="#525D7D"/>
<path d="M119.27 106.442V108.912H121.74H124.211V106.442V103.971H121.74H119.27V106.442Z" fill="#525D7D"/>
<defs>
<filter id="filter0_f_3220_8073" x="2.79297" y="0.737549" width="129.543" height="129.543" filterUnits="userSpaceOnUse" color-interpolation-filters="sRGB">
<feFlood flood-opacity="0" result="BackgroundImageFix"/>
<feBlend mode="normal" in="SourceGraphic" in2="BackgroundImageFix" result="shape"/>
<feGaussianBlur stdDeviation="1.5" result="effect1_foregroundBlur_3220_8073"/>
</filter>
</defs>
</svg>
