<svg width="191" height="191" viewBox="0 0 191 191" fill="none" xmlns="http://www.w3.org/2000/svg">
<path d="M0 47.5283V95.0566H3.80227H7.60454L7.73128 59.3787L7.90026 27.7236C7.91197 25.5303 9.68765 23.7556 11.8809 23.745L47.3383 23.574L86.8185 23.4472V19.645V15.8427H47.2115H7.54117L7.73128 11.8503L7.73809 11.7096C7.84087 9.58559 9.58762 7.91325 11.7141 7.903L47.3383 7.73118L86.8185 7.60444V3.80216V-0.000106812H43.4092H4C1.79086 -0.000106812 0 1.79076 0 3.99989V47.5283Z" fill="#525D7D"/>
<path d="M95.0559 27.5669V50.1478C95.0559 52.9036 97.2856 55.1398 100.041 55.1478L138.655 55.2601L177.292 55.4288C180.014 55.4407 182.226 57.6272 182.27 60.3485L182.381 67.3006L182.508 79.2144H186.31H190.113V39.6074V5.0004C190.113 2.23898 187.874 0.000396729 185.113 0.000396729H142.584H100.056C97.2945 0.000396729 95.0559 2.23898 95.0559 5.0004V27.5669ZM182.381 19.9623C182.508 26.5529 182.381 35.4883 182.191 39.7341L182.016 42.8129C181.865 45.4596 179.675 47.5288 177.024 47.5288H142.204H107.66C104.899 47.5288 102.66 45.2902 102.66 42.5288V28.0105C102.66 18.9121 102.796 11.0793 102.991 8.74936C103.03 8.27722 103.327 7.99606 103.8 7.96912C107.308 7.76933 123.62 7.67532 142.838 7.73168L177.293 7.89813C180.015 7.91128 182.226 10.0982 182.269 12.8191L182.381 19.9623Z" fill="#525D7D"/>
<path d="M118.694 21.1665C115.462 24.3984 112.801 27.3135 112.801 27.6303C112.801 27.9472 115.526 30.9256 118.821 34.221L124.841 40.2412L127.503 37.5163L130.228 34.8547L126.742 31.3692L123.32 27.8838L126.933 24.2083L130.545 20.5328L127.82 17.8712C126.362 16.4137 124.968 15.2096 124.841 15.2096C124.651 15.2096 121.863 17.8712 118.694 21.1665Z" fill="#525D7D"/>
<path d="M157.287 17.8712L154.625 20.5961L158.238 24.2083L161.85 27.8838L158.428 31.3692L154.942 34.8547L157.667 37.5163L160.329 40.2412L166.349 34.221C169.644 30.9256 172.369 27.9472 172.369 27.567C172.369 26.9333 160.963 15.2096 160.329 15.2096C160.139 15.2096 158.808 16.4137 157.287 17.8712Z" fill="#525D7D"/>
<path d="M139.354 25.4124L132.89 35.0448L135.044 36.8192C137.579 38.9105 139.417 39.6709 139.987 38.7837C140.177 38.4669 143.092 34.1576 146.388 29.1513L152.345 20.1526L150.824 19.0119C150 18.3782 148.542 17.4276 147.592 16.8573L145.817 15.78L139.354 25.4124Z" fill="#525D7D"/>
<path d="M54.7532 55.5134L53.5491 63.4982L48.923 65.3993L44.2969 67.3005L36.8825 63.815L29.4681 60.3296L21.1031 68.5679L12.8015 76.8695L15.6532 82.9531C20.2159 92.6489 20.0891 91.635 17.681 96.6413L15.5264 101.014L11.0904 102.218C8.68234 102.852 5.13355 103.802 3.29579 104.309L0.000488281 105.26V118.187V131.115L7.47829 133.397C11.534 134.664 15.2096 136.058 15.5898 136.438C15.97 136.882 17.0473 139.163 18.0613 141.508L19.8357 145.817L16.2869 153.232L12.8015 160.646L21.0397 169.011L29.3413 177.313L35.425 174.461C44.8673 170.025 44.1068 170.152 49.1131 172.306L53.5491 174.208L54.7532 182.129L56.0206 190.114H71.3564H86.6922L87.0725 188.403C87.2626 187.389 87.7696 184.22 88.1498 181.242C88.53 178.263 89.1003 175.412 89.4172 174.841C89.6707 174.334 91.8887 173.067 94.2968 172.116L98.6694 170.342L106.211 173.891L113.688 177.503L121.927 169.201L130.228 160.963L127.82 156.21C126.553 153.612 125.475 151.141 125.475 150.824C125.475 150.443 137.009 150.19 157.795 150.19H190.114V118.821V87.4525L161.153 87.5792L132.193 87.7693L131.242 89.4804C130.355 91.0646 130.355 91.3181 131.559 92.9658L132.89 94.7402L157.731 94.9303L177.535 95.0316C180.286 95.0456 182.509 97.2801 182.509 100.032V118.821V137.585C182.509 140.347 180.271 142.585 177.509 142.585H130.862H84.2145C81.453 142.585 79.2144 140.347 79.2144 137.585V118.821V100.057C79.2144 97.2956 81.453 95.057 84.2144 95.057H100.317L121.356 94.9936L125.475 86.4385C127.757 81.6857 129.658 77.5032 129.785 77.123C129.848 76.6794 126.299 72.687 121.8 68.251L113.688 60.1395L106.211 63.7517L98.6694 67.3005L94.2968 65.5261C91.8887 64.5755 89.6707 63.3081 89.4172 62.8011C89.1003 62.2308 88.53 59.379 88.1498 56.4006C87.7696 53.4222 87.2626 50.2536 87.0725 49.2397L86.6922 47.5286H71.3564H55.9572L54.7532 55.5134ZM81.1156 61.9773C81.5491 64.6747 82.0559 67.1525 82.441 68.2974C82.597 68.7609 82.9528 69.1028 83.3855 69.3306C86.3046 70.8673 97.7664 75.4119 98.7961 75.4119C99.4298 75.4119 102.598 74.0812 105.83 72.4969L106.088 72.3734C109.498 70.7409 113.569 71.4522 116.223 74.1445L117.271 75.1779C119.325 77.2022 119.824 80.326 118.505 82.8897C117.139 85.5032 114.445 87.1513 111.496 87.1764L93.9799 87.3257L71.6099 87.4525V89.3536C71.6099 91.0013 71.3564 91.2547 69.2652 91.5716C60.8368 92.9024 56.4642 95.1204 51.3945 100.444C45.6277 106.527 43.0929 114.702 44.4237 122.94C45.3109 128.707 47.5289 133.143 51.648 137.452C56.6543 142.712 60.7101 144.677 69.2652 146.071C71.3564 146.388 71.6099 146.641 71.6099 148.289V150.19H93.7898H115.97L118.251 154.753C119.612 157.437 119.093 160.691 116.965 162.819L116.16 163.625C113.54 166.245 109.552 166.927 106.21 165.327L105.83 165.146C102.598 163.561 99.4298 162.23 98.7961 162.23C97.7664 162.23 86.3046 166.775 83.3855 168.312C82.9528 168.54 82.597 168.881 82.441 169.345C82.0559 170.49 81.5491 172.968 81.1156 175.665C80.5289 179.442 77.3186 182.254 73.4977 182.338L71.4832 182.382L64.6789 182.533C63.6261 182.556 62.7051 181.828 62.4845 180.798C62.2943 179.784 61.8507 176.679 61.4071 173.827C60.9774 170.663 58.8993 167.939 55.9519 166.709L52.6619 165.336C48.2893 163.561 44.4237 162.04 44.0434 162.04C43.7266 162.04 40.558 163.435 37.136 165.019L36.3143 165.405C33.0048 166.96 29.0754 166.274 26.4896 163.688C23.8664 161.065 23.1715 157.077 24.7527 153.721L25.2222 152.725L26.6456 149.611C27.6783 147.352 27.7315 144.767 26.7925 142.467L25.1588 138.466C23.4478 134.284 21.8002 130.545 21.4833 130.165C21.1665 129.784 17.9345 128.58 14.259 127.376L14.0472 127.31C10.1993 126.112 7.61686 122.503 7.72574 118.474L7.73177 118.251L7.74265 117.848C7.84923 113.905 10.5114 110.491 14.3097 109.426L14.7026 109.316L17.3792 108.572C20.0133 107.84 22.1721 105.951 23.2464 103.437L24.7152 100C26.4263 95.9442 27.8838 92.2053 27.8838 91.6983C27.8838 91.128 26.6164 87.8961 25.0321 84.5374L24.7446 83.9248C23.1678 80.5656 23.8656 76.5784 26.4896 73.9544C29.0754 71.3687 33.0048 70.682 36.3143 72.2374L37.136 72.6236C40.558 74.2079 43.7266 75.6021 44.0434 75.6021C44.4237 75.6021 48.2893 74.0812 52.6619 72.3068L55.9519 70.9338C58.8993 69.7038 60.9774 66.9798 61.4071 63.815C61.8507 60.9633 62.2943 57.8581 62.4845 56.8442C62.7051 55.8145 63.6261 55.0866 64.6789 55.1098L71.4832 55.2599L73.4977 55.3044C77.3186 55.3886 80.5289 58.2008 81.1156 61.9773ZM71.4832 102.788C71.2931 106.084 71.2931 106.147 68.9483 106.527C63.0548 107.478 58.9357 112.547 58.9357 118.821C58.9357 125.475 62.7379 130.101 69.0751 131.115C71.2297 131.495 71.2931 131.559 71.4832 134.917L71.6733 138.34L68.5047 137.959C59.6961 136.945 52.7887 129.531 52.0916 120.469C51.9649 118.187 52.155 115.082 52.5352 113.625C54.5631 106.147 62.2943 99.7465 69.582 99.5564L71.6733 99.493L71.4832 102.788ZM71.6099 118.821C71.6099 122.877 71.4198 123.574 70.5326 123.574C68.7582 123.574 66.5402 120.976 66.5402 118.885C66.5402 116.73 68.6948 114.068 70.4692 114.068C71.4832 114.068 71.6099 114.639 71.6099 118.821Z" fill="#525D7D"/>
<path d="M87.4531 107.098V110.9H91.2554H95.0577V107.098V103.295H91.2554H87.4531V107.098Z" fill="#525D7D"/>
<path d="M103.295 107.098V110.9H107.097H110.899V107.098V103.295H107.097H103.295V107.098Z" fill="#525D7D"/>
<path d="M119.137 107.098V110.9H122.94H126.742V107.098V103.295H122.94H119.137V107.098Z" fill="#525D7D"/>
<path d="M134.98 107.098V110.9H138.783H142.585V107.098V103.295H138.783H134.98V107.098Z" fill="#525D7D"/>
<path d="M150.823 107.098V110.9H154.626H158.428V107.098V103.295H154.626H150.823V107.098Z" fill="#525D7D"/>
<path d="M166.666 107.098V110.9H170.468H174.271V107.098V103.295H170.468H166.666V107.098Z" fill="#525D7D"/>
<path d="M87.4531 118.821V122.94H95.0577H102.662V118.821V114.702H95.0577H87.4531V118.821Z" fill="#525D7D"/>
<path d="M110.899 118.821V122.94H114.701H118.503V118.821V114.702H114.701H110.899V118.821Z" fill="#525D7D"/>
<path d="M126.742 118.821V122.94H130.544H134.346V118.821V114.702H130.544H126.742V118.821Z" fill="#525D7D"/>
<path d="M142.584 118.821V122.94H146.387H150.189V118.821V114.702H146.387H142.584V118.821Z" fill="#525D7D"/>
<path d="M158.429 118.821V122.94H166.35H174.272V118.821V114.702H166.35H158.429V118.821Z" fill="#525D7D"/>
<path d="M87.4531 130.545V134.347H91.2554H95.0577V130.545V126.743H91.2554H87.4531V130.545Z" fill="#525D7D"/>
<path d="M103.295 130.545V134.347H107.097H110.899V130.545V126.743H107.097H103.295V130.545Z" fill="#525D7D"/>
<path d="M119.137 130.545V134.347H130.861H142.585V130.545V126.743H130.861H119.137V130.545Z" fill="#525D7D"/>
<path d="M150.823 130.545V134.347H154.626H158.428V130.545V126.743H154.626H150.823V130.545Z" fill="#525D7D"/>
<path d="M166.666 130.545V134.347H170.468H174.271V130.545V126.743H170.468H166.666V130.545Z" fill="#525D7D"/>
<path d="M150.823 162.23V166.033H154.626H158.428V162.23V158.428H154.626H150.823V162.23Z" fill="#525D7D"/>
<path d="M166.666 162.23V166.033H170.468H174.271V162.23V158.428H170.468H166.666V162.23Z" fill="#525D7D"/>
<path d="M182.509 162.23V166.033H186.312H190.114V162.23V158.428H186.312H182.509V162.23Z" fill="#525D7D"/>
</svg>
