<svg width="89" height="82" viewBox="0 0 89 82" fill="none" xmlns="http://www.w3.org/2000/svg">
<path d="M39.5979 16.3891C40.491 14.7225 38.0763 13.3075 37.0723 14.9079C36.2659 16.193 35.3627 17.5399 34.5339 18.9173C34.1312 18.2964 33.3358 17.9087 32.6302 18.4063C30.8106 19.6897 29.3541 21.9392 29.16 24.2453C29.031 24.085 28.9245 23.8991 28.8444 23.7193C28.4016 22.7297 27.0151 23.4742 27.196 24.4166C27.4856 25.9243 28.7291 26.7748 30.1702 27.0177C31.0417 27.1643 31.6324 26.6737 31.7429 25.8156C31.8982 24.6083 32.1408 23.6089 32.6126 22.7129C31.7838 25.0976 33.0171 27.7963 32.3388 30.2198C32.0408 30.135 31.7367 30.0109 31.4312 29.8723C31.5369 29.568 31.6443 29.2637 31.779 28.9617C32.3811 27.6108 30.4167 26.4171 29.7714 27.7843C29.6288 28.0864 29.5042 28.3902 29.388 28.6949C28.5447 28.1275 27.7528 27.5286 27.1045 27.0919C26.5261 26.7024 25.9891 27.5335 26.3989 28.0096C27.0741 28.7947 27.9113 29.7058 28.8365 30.5395C28.2678 33.1402 28.5147 35.8053 29.2181 38.4152C29.6006 42.1242 30.977 45.5648 33.772 48.5192C34.5669 49.3595 35.7866 48.2939 35.3068 47.3308C33.0242 42.7473 30.2089 37.3505 30.903 32.1147C31.5355 32.5025 32.1821 32.8067 32.8261 32.9719C33.4282 33.1265 33.9771 32.8589 34.3151 32.3638C35.7413 30.2754 35.1088 27.5158 35.236 25.1775C35.3988 22.1777 38.1938 19.0091 39.5979 16.3891Z" fill="#E0DFE6"/>
<path d="M18.6842 23.846C16.4552 24.0615 14.4464 24.0319 12.2513 23.4741C11.0488 23.1685 10.2895 24.2085 10.367 25.154C9.67065 24.8047 9.01041 24.4532 8.41179 24.1392C6.91482 23.3536 5.64232 22.292 3.9191 22.6832C3.29055 22.8259 3.27515 23.8407 3.9191 23.974C5.27919 24.2553 6.52704 25.6831 7.65824 26.4435C8.92238 27.2927 10.2759 28.0143 11.6703 28.6224C13.1175 29.2539 15.8967 30.845 17.5011 29.9534C19.0927 29.0689 18.9104 27.9746 17.9989 26.9363C18.3576 26.8953 18.7177 26.8449 19.0799 26.7796C20.7138 26.4841 20.3586 23.6839 18.6842 23.846Z" fill="#E0DFE6"/>
<path d="M88.1089 17.7107C87.3857 15.9306 84.5449 16.5881 85.1501 18.529C85.5639 19.8569 86.7906 22.4752 85.2624 23.5929C83.9736 24.5353 82.8582 22.5101 81.8503 21.9077C81.3546 21.6114 80.7235 21.7214 80.3141 22.1065C79.5218 22.8519 78.8079 23.6256 78.1543 24.458C76.6881 19.8631 74.0788 15.7389 70.231 13.0535C69.841 12.7815 69.3625 13.3092 69.5945 13.6921C73.8557 20.7181 77.0684 27.9591 76.3478 35.9496C76.3104 35.9858 76.284 36.0343 76.2506 36.0754C76.5767 32.346 75.8469 28.3813 73.728 24.3273C73.585 24.0535 73.3975 23.8711 73.191 23.7523C72.2693 19.0673 69.9717 14.5691 66.2229 11.8859C65.7625 11.5565 65.2242 12.1871 65.4794 12.6318C69.0016 18.7661 71.3397 24.0261 70.716 31.2897C70.595 32.6976 72.2046 32.9563 73.0282 32.1862C73.8918 41.142 67.9751 49.7003 59.6958 53.7684C48.3947 59.3212 35.7155 57.7663 26.8582 48.7195C26.4876 48.3411 25.8621 48.8255 26.128 49.2848C36.414 67.0626 62.9534 60.741 72.6835 45.9833C70.3912 50.2581 67.1261 53.9208 62.919 56.6287C60.654 57.9509 58.2041 58.9737 55.63 59.6193C55.2057 59.7257 54.9143 59.9514 54.7268 60.2314C48.7398 61.8097 42.3817 61.4838 36.3247 59.9832C36.6156 58.5515 34.8251 57.1052 33.7057 58.4557C33.5306 58.6672 33.3593 58.8814 33.1859 59.0938C33.0314 59.0448 32.876 58.9988 32.7224 58.9481C32.7554 58.9141 32.7867 58.8787 32.8197 58.8447C33.851 57.7822 32.8276 55.6409 31.2888 56.2066C31.2466 56.222 31.2087 56.2388 31.1678 56.2547C29.8772 54.959 25.5052 52.354 24.5738 55.0067C24.1944 56.0864 25.1055 57.5795 25.815 58.3492C26.3595 58.9397 27.1465 59.3923 27.9467 59.4762C25.8802 61.8004 23.9329 64.2262 22.1291 66.7694C20.1097 69.6169 15.4189 79.8609 11.2097 73.802C11.0253 73.5361 10.5116 73.5145 10.4429 73.9027C10.3875 74.2175 10.3628 74.5099 10.3659 74.7819C10.1916 74.9625 10.0824 75.2174 10.1265 75.5004C11.0658 81.5363 16.8767 83.9886 21.8558 80.1797C24.7925 77.9328 26.4062 74.3968 28.3054 71.3224C30.3099 68.0779 32.5332 64.9901 34.9219 62.0243C42.5014 65.18 50.8996 64.9954 58.3383 62.2367C67.8233 59.2002 75.7122 51.5449 78.5037 41.845C79.8445 37.1856 79.9571 31.6774 78.7357 26.5552C79.4298 25.8601 80.1649 25.2207 80.9699 24.6656C82.5629 26.4104 84.5471 27.7957 86.8932 26.1529C89.715 24.1758 89.248 20.5154 88.1089 17.7107ZM24.7041 71.1647C23.3242 73.5092 22.1146 76.1827 19.8742 77.8343C18.5066 78.8429 16.7183 79.5725 14.9902 79.0302C14.1843 78.7772 13.6024 78.2843 13.1275 77.6881C15.1064 78.0198 17.6439 77.3327 18.9516 76.2216C21.2484 74.2705 22.7079 71.2199 24.4356 68.7955C26.5712 65.7978 28.9362 62.9914 31.4438 60.3078C31.6207 60.4102 31.8021 60.4985 31.9803 60.597C29.3301 63.9585 26.8793 67.468 24.7041 71.1647Z" fill="#E0DFE6"/>
<path d="M45.4796 69.3966C45.392 67.7984 43.4764 67.3528 42.5886 68.6109C41.5327 70.108 40.2012 70.3707 38.5462 70.8018C38.0479 70.9316 37.6095 71.1277 37.2257 71.3758C37.0998 71.3772 36.9744 71.4253 36.8723 71.549C36.8098 71.6249 36.764 71.7035 36.7094 71.7808C36.1372 72.3266 35.7697 73.0557 35.6772 73.9844C35.6064 74.6928 36.1407 75.2545 36.7741 75.4656C37.4955 76.4702 38.7315 77.172 40.0854 77.1353C44.0772 77.0289 45.6662 72.8 45.4796 69.3966ZM40.8442 74.0683C40.3834 74.3616 39.8565 74.4486 39.3688 74.3739C39.4815 74.192 39.5497 73.995 39.5766 73.7923C40.2205 73.6139 41.1418 73.3459 41.7725 73.1339C41.5437 73.496 41.2417 73.8157 40.8442 74.0683Z" fill="#E0DFE6"/>
<path d="M55.7968 20.7846C55.2951 19.9606 54.1124 20.6808 54.5208 21.5327C55.9945 24.6072 56.1186 27.8344 55.13 30.7698C55.13 30.7115 55.1353 30.6568 55.1287 30.5949C54.9958 29.3333 54.7999 28.0932 54.5547 26.8647C55.0032 24.9945 54.6256 23.013 52.9798 21.6519C51.9793 20.8244 50.2293 21.5685 50.658 23.0081C51.0942 24.4729 51.4247 25.9457 51.669 27.4361C51.1646 28.3538 50.4102 29.1972 49.8235 29.7475C48.1398 31.3267 46.252 32.6047 43.9693 33.0706C43.567 33.1527 43.3817 33.502 43.3813 33.8575C43.1414 34.1437 43.0785 34.5915 43.3888 34.9947C44.7779 36.796 46.9034 37.269 49.0734 37.4465C49.187 37.4558 49.2931 37.465 49.3943 37.4747C49.3278 37.5949 49.2689 37.7243 49.2292 37.874C48.4524 40.7965 48.3075 43.6758 48.7222 46.6341C47.9387 46.7459 47.1495 46.8262 46.3497 46.8638C45.3845 46.9097 41.5692 47.3716 40.9648 46.6227C40.647 46.2287 40.129 46.6006 40.0819 46.9896C39.6166 50.8188 51.7619 49.1416 53.5749 48.5962C55.7211 47.951 57.8026 46.8585 57.984 44.3647C58.1799 41.6678 56.917 38.4414 55.9456 35.6081C58.8058 31.1169 58.7085 25.5663 55.7968 20.7846ZM50.5105 34.8622C48.7354 34.9801 47.1367 35.2367 45.6063 34.478C48.0034 33.937 50.3244 32.6171 52.0947 30.8767C52.3953 32.149 54.0556 32.4011 54.7893 31.6667C54.6648 31.9604 54.5287 32.2505 54.3813 32.5367C54.1863 32.4515 53.9763 32.3989 53.7585 32.3949C53.0089 32.3817 52.5802 32.5221 51.905 32.833C51.0819 33.2119 50.9824 34.1238 51.3041 34.841C51.0506 34.8335 50.787 34.8436 50.5105 34.8622Z" fill="#E0DFE6"/>
<path d="M16.2062 52.7576C15.8791 50.7827 15.5486 48.7398 15.067 46.7981C14.7735 45.6141 13.6889 44.3644 13.7717 43.2811C13.9314 41.1963 10.8059 41.2722 10.5735 43.2811L9.83708 49.6469C9.73892 50.4935 9.75961 51.9596 9.52192 52.8313C8.06764 53.6956 6.61468 54.494 4.99446 55.1149C4.09785 55.4585 3.74 56.4318 3.94644 57.2033C3.85709 57.2885 3.78358 57.4011 3.75629 57.5729C3.49352 59.2307 4.17312 60.6955 5.91615 61.164C8.66538 61.9033 11.6505 59.2263 13.8518 57.969C15.9993 56.7435 16.6036 55.1577 16.2062 52.7576ZM5.28892 58.2397C5.3325 58.2419 5.37211 58.249 5.41745 58.2481C6.54293 58.2265 7.73576 58.1165 8.82295 57.7813C7.58875 58.6857 5.79334 59.7107 5.28892 58.2397ZM11.5977 55.9425C11.7689 55.7142 11.9265 55.4677 12.0616 55.1931C12.1259 55.0623 12.1778 54.9246 12.2311 54.7872C12.4182 54.6455 12.6057 54.505 12.7883 54.3553C12.8288 54.3222 12.8579 54.2851 12.8931 54.2498C12.7412 54.7303 12.4644 55.1948 11.993 55.6426C11.8785 55.7513 11.7412 55.8484 11.5977 55.9425Z" fill="#E0DFE6"/>
<path d="M61.4685 21.0961C61.0943 20.4124 60.0732 21.0174 60.4288 21.7059C63.8823 28.3835 63.6635 36.3934 59.8438 42.8669C59.0392 44.2306 61.2572 45.4949 61.9416 44.0972C65.5875 36.6513 65.4563 28.3804 61.4685 21.0961Z" fill="#E0DFE6"/>
<path d="M19.112 19.5933C14.5889 20.5255 0.477448 21.0757 2.7381 12.6366C2.98899 11.7004 1.64035 11.3621 1.31331 12.2422C-2.4791 22.4483 13.7438 24.2562 19.8999 22.4606C21.745 21.9227 20.9699 19.2104 19.112 19.5933Z" fill="#E0DFE6"/>
<path d="M47.2981 61.4384C47.0736 61.4384 46.8491 61.4358 46.6242 61.4313C39.0658 61.2741 32.0691 58.2164 26.9232 52.82C21.4582 47.0892 18.5558 39.3841 18.7499 31.1251C19.1117 15.9068 31.908 3.41728 47.2739 3.28171C49.399 3.26183 51.5236 3.49147 53.5875 3.96002C60.2594 5.47208 66.1487 8.96609 70.6186 14.0649C74.2741 18.2346 76.6056 24.951 76.7024 31.5932C76.8217 39.7298 73.793 47.2955 68.1744 52.8946C62.631 58.42 55.2403 61.4384 47.2981 61.4384ZM47.5089 5.18769C47.4359 5.18769 47.3628 5.18813 47.2897 5.18901C32.9379 5.31487 20.9872 16.9707 20.6491 31.1706C20.4669 38.9195 23.1827 46.1398 28.2956 51.5022C33.0898 56.5295 39.6129 59.3787 46.6634 59.5245C54.349 59.706 61.5046 56.8541 66.8345 51.5424C72.0834 46.3107 74.9127 39.2361 74.8014 31.6215C74.7111 25.4129 72.561 19.1681 69.1911 15.3239C64.9881 10.5294 59.4473 7.24293 53.1685 5.81963C51.3181 5.40054 49.4153 5.18769 47.5089 5.18769Z" fill="#525D7D"/>
<path d="M47.3891 55.406C47.2113 55.406 47.0339 55.4042 46.8552 55.4002C40.8638 55.2761 35.3169 52.8517 31.2375 48.5734C26.9068 44.0324 24.6065 37.928 24.7602 31.3851C25.0471 19.3222 35.1893 9.42132 47.368 9.31401C49.0666 9.29546 50.7379 9.48094 52.3744 9.85233C57.6567 11.0491 62.3202 13.8162 65.8604 17.8543C68.7623 21.1641 70.6132 26.4908 70.6898 31.7552C70.784 38.2027 68.3838 44.198 63.9312 48.6357C59.5384 53.0133 53.6816 55.406 47.3891 55.406ZM47.5546 11.2204C47.4979 11.2204 47.4415 11.2204 47.3847 11.2209C36.2201 11.3194 26.9231 20.3851 26.6603 31.4306C26.5186 37.4621 28.6318 43.0825 32.6108 47.2552C36.339 51.1648 41.4118 53.3799 46.8953 53.4938C52.881 53.621 58.445 51.4156 62.5922 47.2826C66.6755 43.2132 68.8768 37.7081 68.7896 31.7835C68.7196 26.9527 67.0501 22.0981 64.4334 19.1133C61.1599 15.3795 56.8455 12.8204 51.9558 11.7124C50.5165 11.3856 49.0362 11.2204 47.5546 11.2204Z" fill="#525D7D"/>
<path d="M47.9811 35.0844C47.9529 35.0844 47.9252 35.0839 47.8975 35.0839C43.6332 35.0455 39.0424 31.8271 38.74 26.5079C38.5032 22.3502 40.858 18.4291 44.598 16.7497C45.7759 16.2215 47.0695 15.9543 48.3605 15.983C50.6951 16.033 52.9985 17.0813 54.6803 18.8601C56.4916 20.7763 57.4414 23.3336 57.3552 26.0605C57.1963 31.0529 52.9993 35.0844 47.9811 35.0844ZM45.3749 18.4901C42.3493 19.8484 40.446 23.0263 40.6379 26.3988C40.8765 30.6025 44.5254 33.1461 47.9146 33.1766C47.9358 33.1766 47.9569 33.1771 47.9776 33.1771C51.9139 33.1771 55.3313 29.9047 55.4554 25.9996C55.5259 23.7854 54.7609 21.716 53.3013 20.1721C51.9663 18.7599 50.1511 17.9283 48.3209 17.8895C47.3195 17.8634 46.2975 18.0758 45.3749 18.4901Z" fill="#525D7D"/>
<path d="M39.623 47.6773C39.4316 47.6773 39.2427 47.619 39.0821 47.5078C38.8611 47.3545 38.715 47.1143 38.6807 46.8467C38.5235 45.6375 38.4438 44.4637 38.4438 43.3571C38.4438 38.8995 39.7216 35.2991 42.2415 32.656C42.6051 32.2762 43.2059 32.2626 43.5853 32.626C43.9648 32.9903 43.978 33.5936 43.6153 33.9742C41.4448 36.2507 40.3444 39.4069 40.3444 43.3566C40.3444 44.0654 40.3801 44.806 40.4501 45.5682C43.9375 44.8736 47.4552 44.7729 50.4853 44.7729C51.355 44.7729 52.2248 44.7817 53.0932 44.7927C52.7701 40.9 51.885 37.2015 50.5152 34.0409C50.3057 33.5578 50.5262 32.9969 51.0077 32.7863C51.4906 32.5787 52.0491 32.7982 52.2582 33.2809C53.8357 36.9202 54.805 41.2166 55.0625 45.7042C55.0774 45.9679 54.9828 46.2271 54.8006 46.4179C54.6183 46.6091 54.367 46.7071 54.1016 46.712L53.7578 46.7076C52.6684 46.6934 51.5768 46.6789 50.4853 46.6789C47.2611 46.6789 43.4753 46.7941 39.84 47.6504C39.7687 47.6689 39.6957 47.6773 39.623 47.6773Z" fill="#525D7D"/>
<path d="M40.6853 30.4587C40.4423 30.4587 40.1989 30.3655 40.0132 30.1791C39.6421 29.8069 39.6421 29.2032 40.0132 28.8309C40.9265 27.9141 41.4318 26.9391 41.9666 25.9061C43.4103 23.117 44.9038 20.2333 54.0965 19.7205C54.6163 19.7073 55.0688 20.0941 55.0978 20.6201C55.1269 21.1461 54.7259 21.5961 54.2017 21.6252C46.0909 22.077 44.961 24.259 43.6533 26.7854C43.1022 27.8492 42.478 29.0548 41.357 30.1796C41.1712 30.3655 40.9282 30.4587 40.6853 30.4587Z" fill="#525D7D"/>
<path d="M16.347 24.7433C16.3175 24.7433 16.2872 24.742 16.2572 24.7389C15.3893 24.6576 14.5067 24.6046 13.5718 24.549C7.52495 24.1882 0 23.7391 0 13.6501C0 1.55137 11.9978 0 22.4507 0C27.2784 0 33.8209 0.763099 34.8909 7.35719C34.9754 7.87696 34.6237 8.36715 34.1057 8.4515C33.5876 8.53893 33.099 8.18344 33.015 7.66367C32.3688 3.68213 29.1107 1.90686 22.4507 1.90686C8.04653 1.90686 1.90104 5.41897 1.90104 13.6501C1.90104 21.9417 7.36165 22.2676 13.685 22.6452C14.5943 22.7 15.5354 22.7556 16.4351 22.8409C16.9575 22.8899 17.3414 23.3549 17.2925 23.8786C17.2458 24.3728 16.8317 24.7433 16.347 24.7433Z" fill="#525D7D"/>
<path d="M32.0452 30.327C31.7745 30.327 31.5104 30.2108 31.3269 29.998C30.3489 28.8657 28.9685 27.9507 27.2246 27.2781C26.7347 27.0886 26.4904 26.5371 26.6788 26.046C26.8668 25.5545 27.4157 25.3112 27.9069 25.498C29.1486 25.9771 30.2402 26.5706 31.172 27.2715C31.179 27.1165 31.1861 26.9619 31.1931 26.8073C31.2481 25.6106 31.3049 24.3741 31.3049 23.1548C31.3049 22.9022 31.4053 22.6593 31.5835 22.4805C33.8767 20.1792 35.0889 17.3128 35.0889 14.1897C35.0889 13.9998 35.0841 13.8086 35.0753 13.6161C35.0506 13.0901 35.456 12.6441 35.9803 12.6198C36.5181 12.6048 36.9495 13.0022 36.9741 13.5277C36.9843 13.7485 36.9895 13.9698 36.9895 14.1893C36.9895 17.7001 35.6823 20.926 33.2042 23.5434C33.1945 24.6757 33.1426 25.8018 33.0924 26.8943C33.0541 27.7285 33.0158 28.5614 32.9955 29.3965C32.9859 29.79 32.7363 30.1375 32.367 30.2704C32.2614 30.3088 32.1526 30.327 32.0452 30.327Z" fill="#525D7D"/>
<path d="M10.0458 15.3203C8.92606 15.3203 8.04883 14.4004 8.04883 13.2266C8.04883 12.6203 8.8081 10.8684 9.98156 10.8684C10.0991 10.8684 10.2197 10.8821 10.3403 10.9095C11.946 11.2681 11.946 12.9276 11.946 13.5525L11.9455 13.745C11.9451 14.6177 10.9063 15.3203 10.0458 15.3203ZM9.95295 13.2818C9.96572 13.3816 10.0128 13.4116 10.0436 13.4134C10.0414 13.2893 10.0361 13.1882 10.0287 13.1056C9.99565 13.1714 9.9688 13.2337 9.95295 13.2818ZM9.91994 12.7691C9.92654 12.7709 9.93755 12.7726 9.95295 12.7739C9.95207 12.7731 9.95119 12.7722 9.91994 12.7691Z" fill="#525D7D"/>
<path d="M16.6694 14.3541C15.9528 14.3541 15.1548 13.5994 15.1548 12.5165C15.1548 11.4942 15.6821 10.709 16.5646 10.4154C16.6975 10.3712 16.8327 10.3491 16.966 10.3491C18.0792 10.3491 18.4247 11.7645 18.4247 12.2803C18.4247 13.1463 17.893 14.1302 16.8767 14.3338C16.8164 14.3461 16.7319 14.3541 16.6694 14.3541Z" fill="#525D7D"/>
<path d="M24.0993 13.9878C23.1437 13.9878 22.395 13.2897 22.395 12.3976C22.395 11.8023 23.2098 10.3455 24.2776 10.3455C24.403 10.3455 24.5329 10.3605 24.6645 10.3901C25.4973 10.5755 26.0351 11.2251 26.0351 12.0457C26.0356 13.1161 25.1671 13.9878 24.0993 13.9878ZM24.2516 12.2457C24.256 12.2272 24.4585 11.3201 24.4585 11.3201L24.2538 12.2236C24.208 12.1335 24.1358 12.0801 24.0993 12.0801C24.1306 12.1225 24.1939 12.2073 24.2516 12.2457Z" fill="#525D7D"/>
<path d="M15.9321 79.5001C13.4716 79.5001 9.07666 77.606 9.07666 73.832C9.07666 70.6087 12.4293 67.0194 16.6742 62.4748C19.6849 59.2515 23.0979 55.5976 26.0971 51.299C26.3982 50.868 26.9911 50.762 27.4207 51.0649C27.8507 51.3666 27.955 51.9614 27.6544 52.3929C24.5773 56.8028 21.1159 60.5092 18.0616 63.7784C14.2604 67.8478 10.9777 71.3626 10.9777 73.832C10.9777 76.2653 14.2512 77.5932 15.9326 77.5932C18.6655 77.5932 21.7435 72.7227 25.0016 67.5669C27.4568 63.6812 29.9956 59.6635 32.9363 56.714C33.3074 56.3417 33.9091 56.3417 34.2801 56.714C34.6512 57.0863 34.6512 57.6899 34.2801 58.0622C31.4886 60.8629 29.007 64.7897 26.6068 68.5879C22.906 74.4428 19.7104 79.5001 15.9321 79.5001Z" fill="#525D7D"/>
<path d="M27.738 64.0566C27.5443 64.0566 27.3489 63.9975 27.1798 63.8743C25.4888 62.6404 23.7963 61.0568 21.8539 58.892C21.5027 58.5003 21.5344 57.8975 21.9244 57.5451C22.3148 57.1932 22.9156 57.2241 23.2664 57.6158C25.1177 59.6799 26.7164 61.1782 28.2978 62.3322C28.7222 62.6417 28.8159 63.2379 28.5074 63.6636C28.3212 63.9206 28.0315 64.0566 27.738 64.0566Z" fill="#525D7D"/>
<path d="M39.8554 73.8743C39.8092 73.8743 39.7634 73.8739 39.7167 73.8717C37.8786 73.8077 35.8187 72.2899 35.6959 69.9507C35.5841 67.8164 37.0591 65.8512 39.1265 65.3787C39.4069 65.3142 39.6749 65.2873 39.9835 65.2842C42.0804 65.301 44.036 67.0886 44.1698 69.1103C44.2557 70.4068 43.8155 71.6257 42.9303 72.5425C42.1094 73.3939 40.9954 73.8743 39.8554 73.8743ZM39.9601 67.1915C39.8233 67.1915 39.6846 67.2069 39.5499 67.2379C38.3897 67.5028 37.5309 68.6501 37.5939 69.85C37.6599 71.1121 38.781 71.9313 39.7819 71.9662C40.432 71.9865 41.0834 71.7149 41.5645 71.2163C42.0711 70.6917 42.3229 69.9886 42.2732 69.2375C42.1992 68.1131 40.9531 67.199 39.9601 67.1915Z" fill="#525D7D"/>
<path d="M8.14529 49.2522C8.11052 49.2522 8.07531 49.2522 8.04053 49.2517C4.65616 49.1947 2.09311 46.58 2.07771 43.169C2.0645 40.2902 3.86563 37.8326 6.4564 37.1932C6.90669 37.0814 7.36269 37.0161 7.81121 37.0002C11.5358 36.8752 14.0905 39.641 14.33 42.2915C14.4906 44.0739 13.8401 45.9441 12.59 47.2945C11.4179 48.5593 9.84298 49.2522 8.14529 49.2522ZM8.06034 38.9026C8.00048 38.9026 7.94106 38.9031 7.88032 38.9057C7.5612 38.9176 7.23548 38.964 6.91153 39.0448C5.17466 39.4732 3.96907 41.1654 3.97787 43.1602C3.98844 45.5064 5.74819 47.3055 8.07134 47.3444C9.28882 47.3775 10.3729 46.8856 11.1969 45.9962C12.086 45.0361 12.5495 43.7148 12.4368 42.4629C12.2788 40.7137 10.4935 38.9026 8.06034 38.9026Z" fill="#525D7D"/>
<path d="M5.39819 58.1161C4.94747 58.1161 4.53372 58.0105 4.16091 57.7292C3.29203 57.0739 3.11377 55.7919 3.11377 54.0683C3.11377 51.4818 4.10765 49.2596 5.91274 47.8107C6.3234 47.4835 6.9207 47.5488 7.24862 47.9604C7.57653 48.3711 7.51007 48.9717 7.10028 49.3007C5.75516 50.3795 5.01481 52.0731 5.01481 54.0687C5.01481 55.8815 5.27627 56.1801 5.3062 56.2079C5.49943 56.2843 6.32957 56.0414 6.93478 55.8665C8.12893 55.5203 9.76412 55.046 11.8267 55.046C12.0169 55.046 12.0512 55.0036 12.108 54.8733C12.6229 53.6934 11.3777 49.8576 10.2967 48.6833C9.94062 48.2965 9.96483 47.6932 10.35 47.3355C10.7364 46.9792 11.3377 47.0026 11.6929 47.3894C13.012 48.8229 14.8057 53.4452 13.8488 55.6378C13.4843 56.4733 12.7471 56.9524 11.8267 56.9524C10.0331 56.9524 8.60739 57.3658 7.46253 57.6979C6.71118 57.9156 6.01925 58.1161 5.39819 58.1161Z" fill="#525D7D"/>
<path d="M3.5713 46.0451C3.42825 46.0451 3.28344 46.0129 3.14699 45.9444C2.67778 45.7086 2.48763 45.1363 2.72179 44.6651C4.61491 40.8668 8.42448 40.064 11.7864 39.3561L12.0069 39.3097C12.518 39.198 13.0246 39.5305 13.1329 40.0468C13.2411 40.5621 12.9123 41.0673 12.3987 41.1759L12.1773 41.2228C9.09308 41.8728 5.90414 42.5449 4.42212 45.5187C4.2553 45.8521 3.91946 46.0451 3.5713 46.0451Z" fill="#525D7D"/>
<path d="M78.7894 24.893C78.6631 24.893 78.5359 24.8673 78.4153 24.8161C78.0671 24.666 77.8413 24.3237 77.8396 23.9439L77.8347 22.8819C77.8347 21.8905 77.8634 20.8408 78.0456 19.795C77.572 19.3755 77.119 18.9423 76.678 18.5192C76.4276 18.279 76.1767 18.0392 75.9231 17.8029C75.6384 17.5371 75.5437 17.1237 75.6846 16.7603C75.825 16.3964 76.1723 16.1549 76.5618 16.1513C77.6239 16.1416 78.7278 16.0979 79.7956 16.0559C79.9251 14.3209 80.0963 12.6061 80.4669 10.8573C80.5527 10.4533 80.8881 10.1508 81.2975 10.1075C81.7125 10.0708 82.0977 10.2912 82.2649 10.6688C82.8521 11.9936 83.5784 13.2703 84.3412 14.5615C84.644 14.6287 84.9446 14.7011 85.2444 14.7739C85.9244 14.9378 86.5662 15.0923 87.2176 15.1824C87.5636 15.231 87.8563 15.4655 87.9782 15.7945C88.1001 16.1231 88.0328 16.4922 87.8017 16.7559C87.0772 17.5848 86.4993 18.3245 86.0208 19.0416C86.0265 19.0628 86.0318 19.0845 86.0358 19.1061C86.3228 20.5444 86.8487 21.9863 87.3576 23.3804C87.4892 23.7404 87.3923 24.1453 87.1124 24.4063C86.8325 24.6677 86.4231 24.7357 86.0745 24.5772C84.7285 23.9682 83.4652 23.2705 82.0431 22.4301C81.0725 23.1755 80.2178 23.9007 79.4422 24.6342C79.2617 24.8033 79.0276 24.893 78.7894 24.893ZM78.8977 17.9981C79.1605 18.2401 79.4242 18.4759 79.6971 18.7051C79.9722 18.9365 80.0941 19.3031 80.0122 19.6537C79.852 20.3409 79.7807 21.0435 79.7516 21.8194C80.271 21.3897 80.8221 20.9578 81.4115 20.5175C81.7196 20.2874 82.136 20.2667 82.4652 20.4641C83.2896 20.9569 84.0498 21.4003 84.7906 21.803C84.6876 21.4837 84.5899 21.1618 84.4987 20.8363C84.3218 20.8553 84.1374 20.82 83.9675 20.7308C83.5031 20.4857 83.3244 19.909 83.5691 19.4435C84.0313 18.5625 84.6035 17.6868 85.3306 16.7532C85.1519 16.7117 84.9746 16.6689 84.7989 16.626C84.3847 16.5262 83.9697 16.426 83.5484 16.3412C83.2852 16.2878 83.0568 16.1257 82.9194 15.8943C82.5642 15.2964 82.2148 14.7024 81.8785 14.1036C81.7706 15.0756 81.6976 16.0528 81.6298 17.0407C81.5963 17.5269 81.2024 17.9098 80.7173 17.9279L79.8854 17.9601C79.5593 17.9734 79.2292 17.9858 78.8977 17.9981Z" fill="#525D7D"/>
<path d="M83.0055 34.0316C80.8047 34.0316 78.5436 32.2608 77.8583 29.9993C77.7055 29.4954 77.989 28.9628 78.4908 28.8091C78.993 28.6563 79.5238 28.9403 79.6766 29.4442C80.1172 30.8975 81.6414 32.1247 83.0055 32.1247C84.8519 32.1247 85.9026 30.7809 86.3119 27.895L86.3445 27.6773C86.4308 27.1575 86.9202 26.8078 87.4383 26.8939C87.9559 26.9809 88.3054 27.472 88.2191 27.9913L88.1936 28.164C87.5056 33.0133 84.9923 34.0316 83.0055 34.0316Z" fill="#525D7D"/>
<path d="M49.321 71.8192C48.434 71.8024 47.5603 71.7552 46.7064 71.6788C46.1835 71.6324 45.7975 71.1687 45.8442 70.6445C45.8908 70.1194 46.3547 69.7344 46.8754 69.779C47.6858 69.8518 48.5146 69.8964 49.339 69.9119C49.8641 69.9216 50.2814 70.357 50.2713 70.8834C50.2611 71.4036 49.8373 71.8192 49.321 71.8192ZM55.0065 71.4893C54.5373 71.4893 54.1293 71.1409 54.0659 70.6617C53.9968 70.1398 54.3621 69.6597 54.8824 69.5904C55.694 69.4822 56.514 69.3453 57.32 69.1828C57.8367 69.0817 58.3358 69.4138 58.4388 69.93C58.5423 70.4458 58.2086 70.9488 57.6941 71.0521C56.8472 71.2226 55.9854 71.367 55.1328 71.4809C55.0906 71.4871 55.0483 71.4893 55.0065 71.4893ZM62.9976 69.5392C62.608 69.5392 62.2427 69.2972 62.1032 68.9086C61.9258 68.4126 62.182 67.8668 62.6763 67.6888C63.4514 67.4089 64.2243 67.1011 64.973 66.7725C65.4545 66.5596 66.014 66.7818 66.2244 67.264C66.4343 67.7462 66.2151 68.3089 65.734 68.5191C64.9466 68.8648 64.1345 69.189 63.3193 69.4827C63.2128 69.5211 63.1041 69.5392 62.9976 69.5392ZM70.379 65.9047C70.0665 65.9047 69.7602 65.7502 69.5788 65.4671C69.2949 65.0237 69.423 64.4342 69.8645 64.1494C70.5582 63.702 71.2373 63.2264 71.8835 62.7353C72.3021 62.4174 72.898 62.5008 73.2145 62.9204C73.5314 63.3399 73.4491 63.9383 73.0305 64.2562C72.3461 64.776 71.6264 65.2799 70.8918 65.7533C70.7329 65.8557 70.5551 65.9047 70.379 65.9047ZM76.6662 60.6024C76.4387 60.6024 76.2098 60.5202 76.0276 60.3546C75.6389 60.0009 75.6099 59.3981 75.9624 59.0082C76.5139 58.3987 77.0399 57.7624 77.525 57.1185C77.8419 56.6977 78.4374 56.6151 78.8565 56.933C79.2751 57.2501 79.3578 57.8485 79.0413 58.268C78.5215 58.9578 77.9594 59.6374 77.3701 60.2893C77.1825 60.4968 76.9246 60.6024 76.6662 60.6024ZM81.2087 53.7548C81.0757 53.7548 80.9406 53.727 80.8125 53.6678C80.3354 53.4474 80.1268 52.8813 80.346 52.4026C80.6844 51.6638 80.9895 50.9002 81.2518 50.1345C81.4221 49.6359 81.9613 49.374 82.4596 49.5423C82.9557 49.7136 83.2202 50.2564 83.049 50.7541C82.7659 51.5803 82.4376 52.4035 82.0723 53.1997C81.9125 53.5494 81.5683 53.7548 81.2087 53.7548ZM83.3848 45.8301C83.3505 45.8301 83.3157 45.8284 83.2809 45.8244C82.7589 45.7674 82.3821 45.2967 82.4389 44.7734C82.5256 43.9732 82.5758 43.15 82.5877 42.3277C82.5956 41.8062 83.0195 41.3884 83.5375 41.3884C84.0767 41.3964 84.4958 41.8292 84.4883 42.356C84.4755 43.2374 84.4214 44.1202 84.3285 44.9791C84.2757 45.468 83.8633 45.8301 83.3848 45.8301Z" fill="#525D7D"/>
</svg>
