<svg width="76" height="76" viewBox="0 0 76 76" fill="none" xmlns="http://www.w3.org/2000/svg">
<path d="M53.0417 11.2732V6.33325C53.0417 5.03492 51.9651 3.95825 50.6667 3.95825C49.3684 3.95825 48.2917 5.03492 48.2917 6.33325V11.0833H27.7084V6.33325C27.7084 5.03492 26.6317 3.95825 25.3334 3.95825C24.0351 3.95825 22.9584 5.03492 22.9584 6.33325V11.2732C14.4084 12.0649 10.2601 17.1632 9.62674 24.7316C9.56341 25.6499 10.3234 26.4099 11.2101 26.4099H64.7901C65.7084 26.4099 66.4684 25.6182 66.3734 24.7316C65.7401 17.1632 61.5917 12.0649 53.0417 11.2732Z" fill="white"/>
<path opacity="0.4" d="M63.3333 31.1599C65.075 31.1599 66.5 32.5849 66.5 34.3266V53.8333C66.5 63.3333 61.75 69.6666 50.6667 69.6666H25.3333C14.25 69.6666 9.5 63.3333 9.5 53.8333V34.3266C9.5 32.5849 10.925 31.1599 12.6667 31.1599H63.3333Z" fill="white"/>
<path d="M26.9167 47.5C26.0933 47.5 25.27 47.1516 24.6683 46.5816C24.0983 45.98 23.75 45.1567 23.75 44.3333C23.75 43.51 24.0983 42.6867 24.6683 42.085C25.555 41.1984 26.9483 40.9133 28.12 41.42C28.5317 41.5783 28.88 41.8 29.165 42.085C29.735 42.6867 30.0833 43.51 30.0833 44.3333C30.0833 45.1567 29.735 45.98 29.165 46.5816C28.5633 47.1516 27.74 47.5 26.9167 47.5Z" fill="white"/>
<path d="M37.9999 47.5C37.1766 47.5 36.3533 47.1516 35.7516 46.5816C35.1816 45.98 34.8333 45.1567 34.8333 44.3333C34.8333 43.51 35.1816 42.6867 35.7516 42.085C36.0366 41.8 36.3849 41.5783 36.7966 41.42C37.9682 40.9133 39.3616 41.1984 40.2482 42.085C40.8182 42.6867 41.1666 43.51 41.1666 44.3333C41.1666 45.1567 40.8182 45.98 40.2482 46.5816C40.0899 46.7083 39.9316 46.835 39.7733 46.9616C39.5833 47.0883 39.3933 47.1834 39.2033 47.2467C39.0133 47.3417 38.8233 47.405 38.6333 47.4367C38.4116 47.4684 38.2216 47.5 37.9999 47.5Z" fill="white"/>
<path d="M49.0834 47.5001C48.2601 47.5001 47.4368 47.1518 46.8351 46.5818C46.2651 45.9801 45.9167 45.1568 45.9167 44.3335C45.9167 43.5101 46.2651 42.6868 46.8351 42.0851C47.1518 41.8001 47.4684 41.5784 47.8801 41.4201C48.4501 41.1667 49.0834 41.1034 49.7168 41.2301C49.9068 41.2618 50.0968 41.3251 50.2868 41.4201C50.4768 41.4834 50.6668 41.5785 50.8568 41.7052C51.0151 41.8318 51.1734 41.9585 51.3317 42.0851C51.9017 42.6868 52.2501 43.5101 52.2501 44.3335C52.2501 45.1568 51.9017 45.9801 51.3317 46.5818C51.1734 46.7084 51.0151 46.8351 50.8568 46.9617C50.6668 47.0884 50.4768 47.1835 50.2868 47.2468C50.0968 47.3418 49.9068 47.4052 49.7168 47.4368C49.4951 47.4685 49.2734 47.5001 49.0834 47.5001Z" fill="white"/>
<path d="M26.9167 58.5834C26.505 58.5834 26.0933 58.4884 25.7133 58.3301C25.3017 58.1717 24.985 57.95 24.6683 57.665C24.0983 57.0633 23.75 56.24 23.75 55.4167C23.75 54.5934 24.0983 53.7701 24.6683 53.1684C24.985 52.8834 25.3017 52.6617 25.7133 52.5033C26.2833 52.25 26.9167 52.1867 27.55 52.3133C27.74 52.345 27.93 52.4083 28.12 52.5033C28.31 52.5667 28.5 52.6617 28.69 52.7884C28.8483 52.9151 29.0067 53.0417 29.165 53.1684C29.735 53.7701 30.0833 54.5934 30.0833 55.4167C30.0833 56.24 29.735 57.0633 29.165 57.665C29.0067 57.7917 28.8483 57.95 28.69 58.045C28.5 58.1717 28.31 58.2667 28.12 58.3301C27.93 58.4251 27.74 58.4884 27.55 58.5201C27.3283 58.5517 27.1383 58.5834 26.9167 58.5834Z" fill="white"/>
<path d="M37.9999 58.5833C37.1766 58.5833 36.3533 58.2349 35.7516 57.6649C35.1816 57.0632 34.8333 56.2399 34.8333 55.4166C34.8333 54.5933 35.1816 53.77 35.7516 53.1683C36.9233 51.9966 39.0766 51.9966 40.2482 53.1683C40.8182 53.77 41.1666 54.5933 41.1666 55.4166C41.1666 56.2399 40.8182 57.0632 40.2482 57.6649C39.6466 58.2349 38.8233 58.5833 37.9999 58.5833Z" fill="white"/>
<path d="M49.0834 58.5833C48.2601 58.5833 47.4368 58.2349 46.8351 57.6649C46.2651 57.0632 45.9167 56.2399 45.9167 55.4166C45.9167 54.5933 46.2651 53.77 46.8351 53.1683C48.0068 51.9966 50.1601 51.9966 51.3317 53.1683C51.9017 53.77 52.2501 54.5933 52.2501 55.4166C52.2501 56.2399 51.9017 57.0632 51.3317 57.6649C50.7301 58.2349 49.9067 58.5833 49.0834 58.5833Z" fill="white"/>
</svg>
