<svg width="60" height="61" viewBox="0 0 60 61" fill="none" xmlns="http://www.w3.org/2000/svg">
<rect y="0.5" width="60" height="60" rx="8" fill="#0B409C" fill-opacity="0.21"/>
<path d="M37.6957 28.1771C37.0686 28.1771 36.5728 27.6667 36.5728 27.0542C36.5728 26.5146 36.0332 25.3917 35.129 24.4146C34.2394 23.4667 33.2623 22.9125 32.4457 22.9125C31.8186 22.9125 31.3228 22.4021 31.3228 21.7896C31.3228 21.1771 31.8332 20.6667 32.4457 20.6667C33.904 20.6667 35.4353 21.4542 36.7769 22.8687C38.0311 24.1958 38.8332 25.8437 38.8332 27.0396C38.8332 27.6667 38.3228 28.1771 37.6957 28.1771Z" fill="#0B409C"/>
<path d="M42.9603 28.1771C42.3332 28.1771 41.8374 27.6667 41.8374 27.0542C41.8374 21.8771 37.6228 17.6771 32.4603 17.6771C31.8332 17.6771 31.3374 17.1667 31.3374 16.5542C31.3374 15.9417 31.8332 15.4167 32.4457 15.4167C38.8624 15.4167 44.0832 20.6375 44.0832 27.0542C44.0832 27.6667 43.5728 28.1771 42.9603 28.1771Z" fill="#0B409C"/>
<path opacity="0.4" d="M29.1936 33.2229L24.4248 37.9917C23.8998 37.525 23.3894 37.0437 22.8936 36.5479C21.3915 35.0312 20.0353 33.4417 18.8248 31.7792C17.629 30.1167 16.6665 28.4542 15.9665 26.8062C15.2665 25.1437 14.9165 23.5542 14.9165 22.0375C14.9165 21.0458 15.0915 20.0979 15.4415 19.2229C15.7915 18.3333 16.3457 17.5167 17.1186 16.7875C18.0519 15.8687 19.0728 15.4167 20.1519 15.4167C20.5603 15.4167 20.9686 15.5042 21.3332 15.6792C21.7123 15.8542 22.0478 16.1167 22.3103 16.4958L25.6936 21.2646C25.9561 21.6292 26.1457 21.9646 26.2769 22.2854C26.4082 22.5917 26.4811 22.8979 26.4811 23.175C26.4811 23.525 26.379 23.875 26.1748 24.2104C25.9853 24.5458 25.7082 24.8958 25.3582 25.2458L24.2498 26.3979C24.0894 26.5583 24.0165 26.7479 24.0165 26.9812C24.0165 27.0979 24.0311 27.2 24.0603 27.3167C24.104 27.4333 24.1478 27.5208 24.1769 27.6083C24.4394 28.0896 24.8915 28.7167 25.5332 29.475C26.1894 30.2333 26.8894 31.0062 27.6478 31.7792C28.1728 32.2896 28.6832 32.7854 29.1936 33.2229Z" fill="#0B409C"/>
<path d="M44.0396 39.2313C44.0396 39.6396 43.9667 40.0625 43.8208 40.4708C43.7771 40.5875 43.7333 40.7042 43.675 40.8208C43.4271 41.3458 43.1063 41.8417 42.6833 42.3083C41.9688 43.0958 41.1812 43.6646 40.2917 44.0292C40.2771 44.0292 40.2625 44.0438 40.2479 44.0438C39.3875 44.3938 38.4542 44.5833 37.4479 44.5833C35.9604 44.5833 34.3708 44.2333 32.6937 43.5188C31.0167 42.8042 29.3396 41.8417 27.6771 40.6313C27.1083 40.2083 26.5396 39.7854 26 39.3333L30.7687 34.5646C31.1771 34.8708 31.5417 35.1042 31.8479 35.2646C31.9208 35.2938 32.0083 35.3375 32.1104 35.3813C32.2271 35.425 32.3437 35.4396 32.475 35.4396C32.7229 35.4396 32.9125 35.3521 33.0729 35.1917L34.1812 34.0979C34.5458 33.7333 34.8958 33.4563 35.2312 33.2813C35.5667 33.0771 35.9021 32.975 36.2667 32.975C36.5437 32.975 36.8354 33.0333 37.1562 33.1646C37.4771 33.2958 37.8125 33.4854 38.1771 33.7333L43.0042 37.1604C43.3833 37.4229 43.6458 37.7292 43.8062 38.0938C43.9521 38.4583 44.0396 38.8229 44.0396 39.2313Z" fill="#0B409C"/>
</svg>
