<?xml version="1.0" encoding="UTF-8"?>
<svg id="Layer_1" xmlns="http://www.w3.org/2000/svg" version="1.1" viewBox="0 0 1024 1024">
  <!-- Generator: Adobe Illustrator 29.7.1, SVG Export Plug-In . SVG Version: 2.1.1 Build 8)  -->
  <defs>
    <style>
      .st0 {
        fill: #525d7d;
      }
    </style>
  </defs>
  <path class="st0" d="M631.8,334.3c98.08-7.06,177.16,88.36,145.22,183.22-4.71,14-12.25,26.38-19.92,38.84.17,1.02,14.24,13.52,15.19,13.92,3.72,1.55,8.53-2.37,12.21,1.72,21.66,21.71,45.43,41.26,67.51,62.49,7.45,7.17,20.44,17.63,21.9,28.1,3.7,26.65-20.25,44.77-44.91,34.91-31.4-24.46-58.49-54.27-88.4-80.6-4.81-5.55-.45-7.27-2.08-10.86-1.94-4.28-14.6-11.46-17.51-16.57-32.94,18.42-69.78,25.32-107.03,17.04-155.89-34.65-141.8-260.73,17.81-272.21ZM628.8,343.3c-91.84,7.22-144.98,108.5-100.97,189.37,48.15,88.48,182.42,92.84,231.69,3.35,51.77-94.03-26.67-200.9-130.72-192.72ZM751.5,563.02l-23.48,21.48,16.48,15.48,22.48-22.48-15.48-14.48ZM750.35,606.35l-2.91,4.65,80.23,75.83c21.91,15.41,47.91-7.43,34.32-30.32l-83.49-77.46-28.15,27.31Z"/>
  <path class="st0" d="M658,288c-70.76-6.97-139.02-30.92-199.51-67.65-59.23,37.96-127.25,62.09-197.44,69.7l-.1,46.49c4.49,132.88,55.08,245.75,173.37,312.63,3.85,2.18,20.31,11.63,23.25,11.82,4.97.32,41.34-23.65,47.74-28.17,7.53-5.32,15.08-10.94,22.16-16.84,4.6-3.84,15.49-15.92,19.15-17.84,4.56-2.4,9.78-.57,7.65,4.56-1.05,2.55-19.25,18.35-22.81,21.28-14.26,11.76-31.23,23.44-47.16,32.84-4.74,2.8-21.59,13.05-25.82,13.26s-15.17-6.26-19.51-8.54c-80.94-42.55-142.11-115.91-168.25-203.75-16.86-56.68-19.39-115.72-17.59-174.62,52.15-6.63,103.69-19.68,151.22-42.28,18.65-8.87,36.12-20.25,54.12-29.94,3.29-.05,25.64,14.46,30.85,17.25,47.35,25.35,100.13,41.69,153.3,49.7,5.07.76,17.5.74,21.37,2.63,1.17.57,1.81,1.76,1.97,3.03-.94,5.27,1.07,11.14,1.08,15.94,0,2.81-.98,15.84-2.04,17.05-2.04,2.34-7.02.37-7.02-1.02v-27.5Z"/>
  <path class="st0" d="M459.85,244.15c1.6,2.85,1.34,5.77-1.49,7.71-52.21,30.05-109.61,50.37-168.78,62.02l-.65,1.58c.3,60.38,8.3,120.26,33.89,175.21,28.27,60.72,75.87,108.79,134.73,140.27,3.08,2.59,1.46,8.22-2.89,7.83-2.35-.21-18.21-10.27-21.58-12.35-83.91-52.07-132.04-132.93-146.92-230.08-4.47-29.21-6.47-58.84-4.68-88.34.49-.98,1.31-1.35,2.27-1.73,5.13-2.07,16.95-3.23,23.26-4.74,39.23-9.42,78.02-22.05,114.34-39.66,7.91-3.83,25.74-15.78,32.38-17.61,1.89-.52,4.18-.46,6.11-.1Z"/>
  <path class="st0" d="M351.01,421.02l79.01,78.98,56.97-61.99-3.53,16.96c-14.63,14.38-26.7,31.36-40.95,46.05-2.73,2.81-6.89,8.08-10.91,7.94s-12.72-8.81-16.13-11.93c-21.32-19.49-42.37-41.61-62.95-62.05-3.94-3.92-13.32-8.77-10-15.96l30.22-27.88,2.49.04,58.73,51.8c.12-1.18.66-2.16,1.47-3,33.66-35,62.52-74.98,96.05-109.99,2.7-2.82,5.55-7.08,9.8-5.81,6.9,2.06-2.37,10.91-4.77,13.84-31.05,37.93-66.08,72.9-96.99,111.01-1.99,2.2-4.5,4.54-7.78,3.83l-57.38-51.77-23.36,19.95Z"/>
  <path class="st0" d="M282.5,600l-19.24,17.76-89.76.24c-3.09.58-4.67,7.89-8,11-18.31,17.09-47.58-4.47-34.91-26.91,8.03-14.21,29.29-14.99,38.25-1.42,3.31,5.02,1.09,8.36,7.77,9.21,17.97,2.28,58.2,1.52,76.94.17,13.73-.99,16.28-12.36,26.96-19.04h49c3.17,0,3.17,9,0,9h-47ZM146.73,599.23c-15.87,3.23-13.07,29.38,4.65,27.72,19.16-1.8,15.8-31.88-4.65-27.72Z"/>
  <path class="st0" d="M322.5,633l-30.2,29.8-55.68.14c-5.06,20.97-35.48,23.61-43.08,3.04-8.97-24.25,24.03-41.08,38.89-20.89,2.52,3.43,2.71,6.76,5.22,9.78l49.84.11,32.02-29.98h47c.5,0,2.61,2.51,2.55,3.55.53,1.28-1.82,4.45-2.55,4.45h-44ZM224.66,648.34c-13.08-12.95-32.15,6.43-20.67,19.17,12.85,14.26,33.4-6.57,20.67-19.17Z"/>
  <path class="st0" d="M266.5,514c3.72,1.15,3.29,7.95-3.06,8.94l-57.77.02c-6.92,23.08-41.11,21.14-44.25-2.93-2.05-15.74,14.66-28.42,29.57-23.52,8.43,2.77,12.51,9.67,15.51,17.49h60ZM179.73,504.23c-14.1,2.91-13.48,27.58,4.79,26.83,19.27-.8,16.53-31.23-4.79-26.83Z"/>
  <path class="st0" d="M221.74,545.24c9.13-1.56,18.4.84,23.69,8.83,1.65,2.49,2.72,8.29,4.19,8.81l54.84.16c5.15.97,5.57,8.12-1.95,8.99-12.11,1.4-32.3.41-45.06.02-2.68-.08-5.1-1.44-7.81-.95-3.81,6.2-4.84,11.62-11.96,15.09-18.51,9-37.83-7.47-31.4-27.4,1.96-6.08,9.14-12.46,15.46-13.54ZM223.73,553.23c-14.36,2.98-13.09,25.15.75,26.79,23.45,2.77,20.71-31.25-.75-26.79Z"/>
  <path class="st0" d="M631.8,361.3c85.18-7.54,149.77,76.31,115.06,156.06-33.13,76.13-137.28,86.31-188.83,23.11-55.46-67.99-13.95-171.4,73.77-179.17ZM637.8,369.3c-80.11,4.77-123.78,93.15-78.02,159.43,43.99,63.71,143.89,59.09,177.93-11.51,34.15-70.81-22.37-152.54-99.92-147.92Z"/>
  <path class="st0" d="M658.71,383.18c2.67-.8,5.13-.09,5.86,2.79.28,1.12-.41,14.11-.58,16.53-2.64,38.79-17.02,88.19-35.82,122.18-2.05,3.71-14.56,24.46-16.87,25.17-3.59,1.1-7.11-1.15-6.12-5.08.5-1.99,8.35-11.74,10.24-14.84,22.7-37.38,34.68-81.03,39.58-124.42.63-5.6.07-13.65,1.03-18.97.28-1.57,1.09-2.87,2.68-3.35Z"/>
</svg>