<svg width="171" height="150" viewBox="0 0 171 150" fill="none" xmlns="http://www.w3.org/2000/svg">
<path fill-rule="evenodd" clip-rule="evenodd" d="M13.9212 27.671C-7.88777 45.708 -2.84277 68.644 31.4652 107.427C50.3632 128.79 95.4422 153.085 108.407 148.893C120.536 144.972 133 134.277 133 127.789C133 119.443 110.454 100.983 100.29 101.007C95.0532 101.019 86.0002 109.979 86.0002 115.15C86.0002 120.575 72.6662 116.424 60.4022 107.183C39.5432 91.464 29.1422 74.538 37.6522 70.162C48.6022 64.531 51.4922 56.173 45.5432 47.34C33.3942 29.3 21.1562 21.687 13.9212 27.671ZM14.8632 36.149C-2.87477 55.363 20.3702 98.203 63.2592 125.343C93.8092 144.674 109.354 146.42 122.396 131.983C128.023 125.755 124.716 120.566 109.413 111.607C98.6482 105.306 91.0002 108.747 91.0002 119.891C91.0002 122.669 90.1262 122.989 82.2302 123.11C61.7052 123.422 28.0002 92.224 28.0002 72.912V67.094L32.4812 65.112C43.3372 60.309 44.2212 56.235 36.5092 46.556C24.2592 31.184 20.9262 29.581 14.8632 36.149Z" fill="#10316B"/>
<path fill-rule="evenodd" clip-rule="evenodd" d="M31.9999 3.22599C23.1349 7.70599 20.3029 25 28.4339 25C28.7449 25 28.9999 22.335 28.9999 19.077C28.9999 14.163 29.4409 12.629 31.5889 10.077L34.1779 6.99999H97.1339H160.091L162.545 9.45499L165 11.909V53.502V95.095L162.354 97.548L159.708 100H134.158H108.608L113.471 103.084L118.334 106.168L139.596 105.834C172.637 105.315 170.5 108.935 170.5 53.5C170.5 -5.10801 179.693 1.58299 98.6769 1.22599L36.4999 0.950989L31.9999 3.22599ZM36.9519 17.557C35.3829 19.448 34.2729 18.34 58.9999 39.56C69.1749 48.291 77.7249 55.687 77.9999 55.994C81.9429 60.398 97.1809 72.01 98.2049 71.39C99.4659 70.626 113.71 58.297 142.402 33.137C155.89 21.308 158.852 17.451 155.342 16.281C154.141 15.88 151.975 17.69 118.186 47.311C107.011 57.108 97.4849 64.983 97.0159 64.811C96.5469 64.64 83.5189 53.588 68.0649 40.25C38.5449 14.772 38.9929 15.099 36.9519 17.557ZM71.8329 57.77C71.6499 58.194 65.1129 64.047 57.3059 70.776C41.3969 84.489 41.3619 84.527 43.0359 86.544C44.9309 88.826 44.2939 89.264 63.9789 72.137C78.2859 59.688 77.7559 60.312 75.4999 58.59C73.2359 56.862 72.3149 56.656 71.8329 57.77ZM118.65 58.834C117.074 60.575 117.507 61.118 127.224 69.584C132.853 74.488 141.202 81.802 145.777 85.838C153.93 93.03 157 94.243 157 90.274C157 88.811 122.338 57 120.743 57C120.505 57 119.563 57.825 118.65 58.834ZM59.3469 103C62.7389 105.978 62.8519 106 74.8049 106H86.8459L89.8459 103L92.8459 100H74.3879H55.9299L59.3469 103Z" fill="#10316B"/>
</svg>
