<svg width="107" height="110" viewBox="0 0 107 110" fill="none" xmlns="http://www.w3.org/2000/svg">
<path d="M75.9073 79.0828L66.0244 76.854C64.9837 76.6826 64.2 75.7694 64.2 74.7286V69.5034C69.3573 66.0439 72.76 60.1628 72.76 53.5V50.1061L73.3869 50.733C74.7171 52.0632 77.04 51.0886 77.04 49.22V40.66C77.04 30.0405 68.4006 21.4 57.78 21.4H55.64V19.26H90.9504C90.9504 19.26 81.4906 41.9633 81.485 41.9768C81.3897 42.2054 81.322 42.5756 81.3226 42.8257C81.337 48.7131 86.1292 53.5 92.02 53.5H96.3C102.19 53.5 106.982 48.714 107 42.8C107 42.5545 106.917 42.1942 106.829 41.9628L97.3696 19.26H98.44C103.161 19.26 107 15.4199 107 10.7C107 5.98008 103.161 2.14 98.44 2.14H97.8151C96.4943 2.14 95.1694 2.45244 93.9865 3.04385C92.9291 3.57258 92.5007 4.85784 93.0294 5.9153C93.5602 6.97381 94.8434 7.40222 95.9008 6.87246C96.4922 6.57673 97.1547 6.42 97.8151 6.42H98.44C100.799 6.42 102.72 8.33951 102.72 10.7C102.72 13.0605 100.799 14.98 98.44 14.98H55.64V12.4457C58.1256 11.5594 59.92 9.20615 59.92 6.42C59.92 2.8798 57.0402 0 53.5 0C49.9598 0 47.08 2.8798 47.08 6.42C47.08 9.20615 48.8744 11.5593 51.36 12.4455V14.98H8.56C6.20056 14.98 4.28 13.0605 4.28 10.7C4.28 8.33951 6.20056 6.42 8.56 6.42H9.18486C9.84524 6.42 10.5077 6.57673 11.0992 6.87246C12.1566 7.40224 13.4419 6.97381 13.9706 5.9153C14.4993 4.85784 14.0709 3.57258 13.0134 3.04385C11.8306 2.45244 10.5056 2.14 9.18486 2.14H8.56C3.83905 2.14 0 5.98008 0 10.7C0 15.4199 3.83905 19.26 8.56 19.26H9.63038C9.63038 19.26 0.183205 41.933 0.165079 41.9766C0.0686081 42.2091 0.00199068 42.5725 0.00261128 42.8257C0.0169707 48.7131 4.80924 53.5 10.7 53.5H14.98C20.8703 53.5 25.6621 48.714 25.68 42.7999C25.68 42.5728 25.5984 42.1769 25.5092 41.9628L16.0496 19.26H51.36V21.4H49.22C38.5994 21.4 29.96 30.0405 29.96 40.66C29.96 40.66 29.96 49.1869 29.96 49.2199C29.96 51.0937 32.2857 52.0581 33.613 50.733L34.24 50.1061V53.5C34.24 60.1628 37.6427 66.0439 42.8 69.5034V74.7286C42.8 75.7694 42.0163 76.6826 40.8502 76.878L31.2285 79.0577C21.8138 80.5572 14.98 88.5644 14.98 98.0972V107C14.98 108.182 15.9372 109.14 17.12 109.14H74.9C76.0828 109.14 77.04 108.182 77.04 107C77.04 105.818 76.0828 104.86 74.9 104.86H55.64V89.4994L62.6661 93.974C63.4784 94.4907 64.5006 94.4015 65.2261 93.7796L76.782 83.6612C83.2215 85.448 87.74 91.2635 87.74 98.0972V104.86H83.46C82.2771 104.86 81.32 105.818 81.32 107C81.32 108.182 82.2771 109.14 83.46 109.14H89.88C91.0628 109.14 92.02 108.182 92.02 107V98.0972C92.02 88.5644 85.1862 80.5572 75.9073 79.0828ZM94.16 22.6842L101.65 40.66H86.6697L94.16 22.6842ZM96.3 49.22H92.02C89.23 49.22 86.8497 47.4311 85.9657 44.94H102.354C101.47 47.4311 99.0899 49.22 96.3 49.22ZM12.84 22.6842L20.3303 40.66H5.34974L12.84 22.6842ZM14.98 49.22H10.7C7.91006 49.22 5.52972 47.4311 4.64573 44.94H21.0343C20.1503 47.4311 17.7699 49.22 14.98 49.22ZM53.5 4.28C54.6808 4.28 55.64 5.24028 55.64 6.42C55.64 7.59972 54.6808 8.56 53.5 8.56C52.3192 8.56 51.36 7.59972 51.36 6.42C51.36 5.24028 52.3192 4.28 53.5 4.28ZM34.24 40.66C34.24 32.3999 40.9609 25.68 49.22 25.68H57.78C66.0391 25.68 72.76 32.3999 72.76 40.66V44.0539L72.1349 43.4288L72.1316 43.4255L70.829 42.1229C67.1404 38.4354 61.2847 38.1083 57.2116 41.3695C55.0256 43.1187 51.9744 43.1187 49.7884 41.3695C45.7112 38.1094 39.8596 38.4364 36.171 42.1229L34.8684 43.4255L34.8651 43.4288L34.24 44.0539V40.66ZM38.52 53.5V45.8261L39.1971 45.149C41.3455 43.0058 44.7456 42.8177 47.1134 44.7111C50.8752 47.7205 56.1249 47.7205 59.8866 44.7111C62.2544 42.8177 65.6566 43.0058 67.8029 45.149L68.48 45.8261V53.5C68.48 61.7601 61.7591 68.48 53.5 68.48C45.2409 68.48 38.52 61.7601 38.52 53.5ZM53.5 72.76C55.7536 72.76 57.9084 72.3508 59.92 71.6363V74.7286C59.92 76.0774 60.3521 77.3225 61.0601 78.3613L53.5 83.0773L45.9337 78.3575C46.649 77.3179 47.08 76.0747 47.08 74.7286V71.6363C49.0916 72.3508 51.2464 72.76 53.5 72.76ZM41.6694 81.0776C41.8009 81.0559 41.9212 81.0089 42.0496 80.9797L49.4875 85.6188L43.3872 89.5028L35.3899 82.4993L41.6694 81.0776ZM19.26 104.86V98.0972C19.26 91.2973 23.7354 85.5072 30.2284 83.6703L41.7741 93.7798C42.4897 94.4058 43.5346 94.4824 44.334 93.974L51.36 89.4994V104.86H19.26ZM63.6128 89.5028L57.5125 85.6188L64.9418 80.9851C65.0312 81.0039 65.1144 81.0386 65.2052 81.0535L71.612 82.4976L63.6128 89.5028Z" fill="#0B409C"/>
<path d="M25.68 66.312C25.68 64.0048 24.7291 61.8429 23.0008 60.2253C20.2882 57.6862 16.1984 57.0864 12.84 58.6172C9.48161 57.0885 5.39179 57.6862 2.67917 60.2253C0.950888 61.8429 0 64.0048 0 66.312C0 68.6182 0.952964 70.779 2.67917 72.3955L11.3774 80.5378C12.1978 81.306 13.4824 81.3056 14.3029 80.5376L23.0008 72.3955C24.727 70.779 25.68 68.6181 25.68 66.312ZM20.075 69.2712L12.84 76.0444L5.60496 69.2712C4.75022 68.4718 4.28 67.4206 4.28 66.3109C4.28 65.2013 4.75018 64.1491 5.60487 63.3497C7.23853 61.8218 9.81243 61.6443 11.6801 62.847C12.3865 63.3026 13.2935 63.3026 13.9999 62.847C15.9058 61.6224 18.4575 61.8355 20.075 63.3496C20.9298 64.149 21.4 65.2012 21.4 66.3109C21.4 67.4207 20.9298 68.4718 20.075 69.2712Z" fill="#FEB402"/>
<path d="M94.1576 62.897C90.7992 61.3683 86.7094 61.967 83.9968 64.5051C82.2685 66.1227 81.3176 68.2846 81.3176 70.5918C81.3176 72.898 82.2706 75.0589 83.9968 76.6754C83.9968 76.6754 92.6783 84.802 92.6947 84.8174C93.4679 85.5412 94.7801 85.6045 95.6205 84.8174L104.318 76.6754C106.045 75.0589 106.998 72.898 106.998 70.5918C106.998 68.2846 106.047 66.1227 104.318 64.5051C101.606 61.966 97.516 61.3672 94.1576 62.897ZM101.393 73.551L94.1576 80.3242L86.9226 73.551C86.0678 72.7517 85.5976 71.7005 85.5976 70.5908C85.5976 69.4811 86.0678 68.4289 86.9225 67.6296C88.5541 66.1036 91.1352 65.9275 92.9977 67.1268C93.7041 67.5824 94.6111 67.5824 95.3175 67.1268C97.2234 65.9012 99.7751 66.1154 101.393 67.6294C102.247 68.4288 102.718 69.4811 102.718 70.5908C102.718 71.7005 102.247 72.7517 101.393 73.551Z" fill="#FEB402"/>
</svg>
