<svg width="107" height="117" viewBox="0 0 107 117" fill="none" xmlns="http://www.w3.org/2000/svg">
<path d="M77.8504 67.3472L67.1127 64.928C65.9815 64.7395 65.1273 63.7469 65.1273 62.6157V58.143C76.0435 53.5763 83.736 42.7908 83.736 30.238C83.736 13.5653 70.1702 0 53.4969 0C38.6659 0 26.128 10.5987 23.6849 25.2021C23.4725 26.4696 24.3278 27.6689 25.5953 27.8802C26.8662 28.1005 28.0611 27.2373 28.2735 25.9699C30.3395 13.6175 40.9477 4.652 53.4969 4.652C67.6056 4.652 79.0838 16.1298 79.0838 30.238C79.0838 44.3461 67.6056 55.8239 53.4969 55.8239C50.5652 55.8239 47.747 55.3171 45.1113 54.4095C45.0943 54.4022 45.0758 54.3996 45.0585 54.3926C36.4379 51.4034 29.8536 43.9535 28.2735 34.5061C28.0611 33.2386 26.8662 32.3754 25.5953 32.5958C24.3278 32.807 23.4725 34.0064 23.6849 35.2739C25.4505 45.8275 32.5011 54.2643 41.8665 58.1461V62.6157C41.8665 63.7469 41.0135 64.7395 39.7494 64.953L29.2889 67.3199C19.0555 68.9508 11.6274 77.6552 11.6274 88.0154V113.974C11.6274 115.26 12.6689 116.3 13.9535 116.3H93.0403C94.326 116.3 95.3664 115.26 95.3664 113.974V88.0154C95.3664 77.6552 87.9384 68.9508 77.8504 67.3472ZM71.064 70.5819L64.4868 76.3491L57.8583 72.1264L63.6823 68.4907C64.4433 68.9809 65.2947 69.3396 66.2222 69.4915L71.064 70.5819ZM57.9833 96.8946L53.4969 101.381L49.0095 96.8946L50.8154 86.0619H56.1797L57.9833 96.8946ZM56.6431 81.4099H50.3508L48.768 77.8766L53.4969 74.8642L58.2266 77.8768L56.6431 81.4099ZM53.4969 60.4759C55.9021 60.4759 58.2307 60.1637 60.4752 59.6307V62.6157C60.4752 63.3731 60.6135 64.0968 60.8358 64.7827L53.4969 69.3635L46.1568 64.7825C46.3804 64.0965 46.5187 63.3728 46.5187 62.6157V59.6437C48.766 60.1711 51.0965 60.4759 53.4969 60.4759ZM40.641 69.5164C41.6185 69.3555 42.5054 68.9839 43.2926 68.4797L49.1355 72.1264L42.5071 76.3491L35.9306 70.5819L40.641 69.5164ZM90.7143 111.648H81.4099V104.27C81.4099 99.4773 79.4655 94.7844 76.0763 91.3953C75.1677 90.4868 73.6957 90.4868 72.7871 91.3953C71.8785 92.3039 71.8785 93.7759 72.7871 94.6844C75.3108 97.2081 76.7578 100.702 76.7578 104.27V111.648H30.2361V104.27C30.2361 100.649 31.6468 97.2444 34.2068 94.6845C35.1154 93.7759 35.1154 92.3039 34.2068 91.3954C33.2982 90.4868 31.8262 90.4868 30.9176 91.3954C27.4784 94.8321 25.5839 99.4046 25.5839 104.27V111.648H16.2796V88.0154C16.2796 79.9539 22.0585 73.1826 30.1668 71.8856L30.3218 71.8505L40.7525 80.9967C41.5321 81.6805 42.6652 81.7623 43.535 81.21L44.8018 80.4031L46.4349 84.0473L44.2244 97.3103C44.1006 98.0508 44.3425 98.8049 44.8741 99.3365L51.8523 106.314C52.3066 106.769 52.9018 106.996 53.4969 106.996C54.0921 106.996 54.6872 106.769 55.1415 106.314L62.1198 99.3365C62.6514 98.8049 62.8921 98.0508 62.7695 97.3103L60.5585 84.0454L62.1914 80.402L63.46 81.21C64.2733 81.7281 65.4391 81.6997 66.2427 80.9965L76.678 71.8463L76.9736 71.9128C84.9354 73.1826 90.7143 79.9539 90.7143 88.0154V111.648Z" fill="#0B409C"/>
<path d="M56.6264 9.44737C55.5758 9.05895 54.4037 9.47463 53.8278 10.4332L39.8713 33.6932C38.9497 35.2259 40.084 37.2162 41.8658 37.2162H50.7499C50.7499 37.2162 48.8808 48.4348 48.8758 48.4646C48.4666 50.921 51.8698 52.2023 53.1646 50.0433L67.1211 26.7833C67.5527 26.0656 67.564 25.1706 67.1506 24.4392C66.7371 23.71 65.9648 23.2603 65.1266 23.2603H56.2425L58.1165 12.0119C58.3005 10.9102 57.6736 9.83353 56.6264 9.44737ZM61.0173 27.9123L55.4781 37.1458L55.7905 35.2719C55.904 34.5972 55.7132 33.909 55.2714 33.3865C54.8296 32.8641 54.1799 32.5642 53.4962 32.5642H45.9739L51.5142 23.3307L51.2019 25.2046C51.0895 25.8793 51.2791 26.5675 51.7209 27.09C52.1628 27.6124 52.8124 27.9123 53.4962 27.9123H61.0173Z" fill="#FEB402"/>
<path d="M13.9567 30.2332V8.952C13.9567 8.952 19.1019 15.3838 19.1188 15.4049C19.9156 16.4009 21.3932 16.565 22.3876 15.7684C23.3917 14.9643 23.5541 13.5015 22.7511 12.4975L13.4468 0.867507C12.5654 -0.236435 10.6959 -0.236435 9.81454 0.867507L0.510206 12.4975C-0.292782 13.5015 -0.130374 14.9643 0.873656 15.7684C1.87429 16.5703 3.33944 16.4067 4.14243 15.405L9.30457 8.952V30.2332C9.30457 31.5189 10.3461 32.5592 11.6307 32.5592C12.9152 32.5592 13.9567 31.5189 13.9567 30.2332Z" fill="#FEB402"/>
<path d="M106.487 12.4975L97.1827 0.867507C96.2968 -0.236435 94.4341 -0.236435 93.5482 0.867507L84.2439 12.4975C83.442 13.5015 83.6056 14.9643 84.6073 15.7684C85.6136 16.5748 87.0765 16.4067 87.8784 15.405L93.0394 8.95242V30.2332C93.0394 31.5189 94.0798 32.5592 95.3655 32.5592C96.6512 32.5592 97.6916 31.5189 97.6916 30.2332V8.95242C97.6916 8.95242 102.835 15.3829 102.853 15.4049C103.651 16.4028 105.135 16.5584 106.124 15.7684C107.125 14.9643 107.289 13.5015 106.487 12.4975Z" fill="#FEB402"/>
</svg>
