<svg width="108" height="107" viewBox="0 0 108 107" fill="none" xmlns="http://www.w3.org/2000/svg">
<path d="M53.9998 0.865234C24.6855 0.865234 0.836914 24.7138 0.836914 54.0282C0.836914 81.487 22.2443 104.752 49.5734 106.993C50.7364 107.085 51.7695 106.218 51.8661 105.047C51.9626 103.877 51.0914 102.85 49.9202 102.754C24.782 100.693 5.08995 79.2899 5.08995 54.0282C5.08995 27.0594 27.0311 5.11827 53.9998 5.11827C80.9686 5.11827 102.91 27.0594 102.91 54.0282C102.91 79.2899 83.2177 100.693 58.0795 102.754C56.9082 102.85 56.0371 103.877 56.1336 105.047C56.225 106.159 57.1543 107 58.2508 107C58.309 107 58.3671 106.998 58.4263 106.993C85.7554 104.752 107.163 81.487 107.163 54.0282C107.163 24.7138 83.3142 0.865234 53.9998 0.865234Z" fill="#0B409C"/>
<path d="M80.9371 78.1026V74.3273C80.9371 73.153 79.985 72.2008 78.8106 72.2008C77.6362 72.2008 76.6841 73.153 76.6841 74.3273V83.3495C76.6841 84.5239 77.6362 85.476 78.8106 85.476H87.8317C89.0061 85.476 89.9582 84.5239 89.9582 83.3495C89.9582 82.1751 89.0061 81.223 87.8317 81.223H83.839C85.4694 79.434 86.9522 77.5205 88.2294 75.4664C92.2685 69.038 94.4033 61.6243 94.4033 54.0278C94.4033 48.0906 93.067 42.1357 90.5397 36.806C90.0361 35.7448 88.7714 35.291 87.7071 35.7967C86.6459 36.2992 86.1942 37.5681 86.6978 38.6293C88.9562 43.3921 90.1503 48.7167 90.1503 54.0278C90.1503 60.8227 88.2408 67.4546 84.6232 73.2122C83.5419 74.9507 82.3001 76.5773 80.9371 78.1026Z" fill="#FEB402"/>
<path d="M27.0622 29.9539V33.7292C27.0622 34.9036 28.0143 35.8557 29.1887 35.8557C30.363 35.8557 31.3152 34.9036 31.3152 33.7292V24.7071C31.3152 23.5327 30.363 22.5806 29.1887 22.5806H20.1676C18.9932 22.5806 18.0411 23.5327 18.0411 24.7071C18.0411 25.8815 18.9932 26.8336 20.1676 26.8336H24.1603C22.5298 28.6225 21.0471 30.5361 19.7699 32.5901C15.7308 39.0185 13.5959 46.4322 13.5959 54.0287C13.5959 59.9659 14.9323 65.9207 17.4595 71.2504C17.9576 72.3008 19.2456 72.7574 20.2922 72.2599C21.3534 71.7573 21.805 70.4885 21.3014 69.4273C19.0431 64.6644 17.849 59.3398 17.849 54.0287C17.849 47.2339 19.7585 40.602 23.3761 34.8444C24.4573 33.1058 25.6992 31.4793 27.0622 29.9539Z" fill="#FEB402"/>
<path d="M83.3217 18.0696C82.1473 18.0696 81.1952 19.0218 81.1952 20.1962V24.1887C79.4063 22.5582 77.4927 21.0756 75.4386 19.7985C69.0103 15.7593 61.5966 13.6245 54.0001 13.6245C48.0629 13.6245 42.108 14.9609 36.7782 17.4882C35.717 17.9907 35.2653 19.2596 35.7689 20.3207C36.2715 21.3809 37.5393 21.8367 38.6015 21.33C43.3644 19.0716 48.689 17.8775 54.0001 17.8775C60.795 17.8775 67.4268 19.7871 73.1844 23.4046C74.923 24.4859 76.5495 25.7278 78.0748 27.0907H74.2996C73.1252 27.0907 72.1731 28.0429 72.1731 29.2172C72.1731 30.3916 73.1252 31.3438 74.2996 31.3438H83.3217C84.4961 31.3438 85.4482 30.3916 85.4482 29.2172V20.1962C85.4482 19.0218 84.4961 18.0696 83.3217 18.0696Z" fill="#FEB402"/>
<path d="M24.6785 89.9865C25.8529 89.9865 26.805 89.0344 26.805 87.86V83.8673C28.594 85.4978 30.5075 86.9805 32.5616 88.2577C38.9899 92.2968 46.4037 94.4317 54.0001 94.4317C59.9374 94.4317 65.8922 93.0953 71.222 90.568C72.2832 90.0654 72.7349 88.7966 72.2313 87.7354C71.7277 86.6742 70.4609 86.2205 69.3987 86.7261C64.6358 88.9845 59.3113 90.1786 54.0001 90.1786C47.2053 90.1786 40.5734 88.2691 34.8158 84.6515C33.0772 83.5702 31.4507 82.3284 29.9254 80.9654H33.7006C34.875 80.9654 35.8272 80.0133 35.8272 78.8389C35.8272 77.6646 34.875 76.7124 33.7006 76.7124H24.6785C23.5041 76.7124 22.552 77.6646 22.552 78.8389V87.86C22.552 89.0344 23.5041 89.9865 24.6785 89.9865Z" fill="#FEB402"/>
<path d="M24.2285 54.0281C24.2285 57.0829 26.3885 59.6369 29.2602 60.258C31.5431 69.3138 38.714 76.4848 47.7698 78.7677C48.3909 81.6393 50.945 83.7993 53.9998 83.7993C57.0545 83.7993 59.6086 81.6393 60.2297 78.7677C69.2855 76.4847 76.4564 69.3138 78.7393 60.258C81.611 59.6369 83.771 57.0829 83.771 54.0281C83.771 50.9733 81.611 48.4192 78.7393 47.7982C76.4564 38.7423 69.2855 31.5714 60.2297 29.2885C59.6086 26.4168 57.0545 24.2568 53.9998 24.2568C50.945 24.2568 48.3909 26.4168 47.7698 29.2885C38.714 31.5714 31.5431 38.7423 29.2602 47.7982C26.3885 48.4192 24.2285 50.9733 24.2285 54.0281ZM30.6081 51.9016C31.7804 51.9016 32.7346 52.8558 32.7346 54.0281C32.7346 55.2004 31.7804 56.1546 30.6081 56.1546C29.4358 56.1546 28.4815 55.2004 28.4815 54.0281C28.4815 52.8558 29.4358 51.9016 30.6081 51.9016ZM53.9998 79.5463C52.8275 79.5463 51.8732 78.592 51.8732 77.4198C51.8732 76.2475 52.8275 75.2932 53.9998 75.2932C55.172 75.2932 56.1263 76.2475 56.1263 77.4198C56.1263 78.592 55.172 79.5463 53.9998 79.5463ZM77.3914 56.1546C76.2192 56.1546 75.2649 55.2004 75.2649 54.0281C75.2649 52.8558 76.2192 51.9016 77.3914 51.9016C78.5637 51.9016 79.518 52.8558 79.518 54.0281C79.518 55.2004 78.5637 56.1546 77.3914 56.1546ZM53.9998 28.5099C55.172 28.5099 56.1263 29.4641 56.1263 30.6364C56.1263 31.8087 55.172 32.7629 53.9998 32.7629C52.8275 32.7629 51.8732 31.8087 51.8732 30.6364C51.8732 29.4641 52.8275 28.5099 53.9998 28.5099ZM48.3477 33.532C49.4073 35.5903 51.5297 37.0159 53.9998 37.0159C56.4698 37.0159 58.5922 35.5903 59.6518 33.532C66.8286 35.5139 72.514 41.1993 74.4958 48.376C72.4375 49.4356 71.0119 51.558 71.0119 54.0281C71.0119 56.4982 72.4375 58.6205 74.4958 59.6801C72.5141 66.8569 66.8286 72.5423 59.6518 74.5241C58.5923 72.4658 56.4698 71.0402 53.9998 71.0402C51.5297 71.0402 49.4072 72.4658 48.3477 74.5241C41.1709 72.5424 35.4854 66.8569 33.5037 59.6801C35.562 58.6207 36.9876 56.4982 36.9876 54.0281C36.9876 51.558 35.562 49.4355 33.5037 48.376C35.4855 41.1993 41.1709 35.5137 48.3477 33.532Z" fill="#0B409C"/>
<path d="M49.3065 61.9111C50.0911 62.6956 51.4763 62.7483 52.3135 61.9111L65.0726 49.152C65.9033 48.3213 65.9033 46.9756 65.0726 46.145C64.242 45.3143 62.8963 45.3143 62.0656 46.145L50.81 57.4006L45.934 52.5245C45.1033 51.6939 43.7576 51.6939 42.927 52.5245C42.0963 53.3552 42.0963 54.7009 42.927 55.5315C42.927 55.5315 49.2793 61.8839 49.3065 61.9111Z" fill="#FEB402"/>
</svg>
