<svg width="110" height="123" viewBox="0 0 110 123" fill="none" xmlns="http://www.w3.org/2000/svg">
<path d="M55 39.3599C46.8609 39.3599 40.24 45.9807 40.24 54.1199C40.24 62.259 46.8609 68.8799 55 68.8799C63.1391 68.8799 69.76 62.259 69.76 54.1199C69.76 45.9807 63.1391 39.3599 55 39.3599ZM55 63.9599C49.5743 63.9599 45.16 59.5456 45.16 54.1199C45.16 48.6942 49.5743 44.2799 55 44.2799C60.4257 44.2799 64.84 48.6942 64.84 54.1199C64.84 59.5456 60.4257 63.9599 55 63.9599Z" fill="#FEB402"/>
<path d="M106.906 15.7439C105.848 15.6456 105.43 14.883 105.282 14.5632C105.159 14.2187 104.913 13.3824 105.577 12.5705C106.389 11.5865 106.315 10.1598 105.43 9.27408L99.8456 3.69C98.96 2.80442 97.5332 2.73057 96.5493 3.5424C95.7374 4.2065 94.901 3.96055 94.5567 3.8376C94.2369 3.69 93.4743 3.2717 93.3758 2.21393C93.2282 0.959425 92.1704 0 90.9158 0H83.0439C81.7893 0 80.7315 0.959425 80.5839 2.2139C80.4854 3.2717 79.7228 3.69 79.403 3.8376C79.0832 3.96058 78.2223 4.2065 77.4104 3.5424C76.4265 2.73057 74.9997 2.80442 74.1141 3.69L68.5299 9.2741C67.6443 10.1598 67.5704 11.5865 68.3823 12.5706C69.0465 13.3824 68.8004 14.2187 68.6775 14.5632C68.5299 14.883 68.1117 15.6456 67.0539 15.7439C66.5619 15.7932 66.1682 16.0146 65.7993 16.3098C58.7882 14.2926 51.2115 14.2926 44.2004 16.3098C43.8315 16.0146 43.4378 15.7932 42.9458 15.7439C41.888 15.6456 41.4699 14.883 41.3223 14.5632C41.1993 14.2187 40.9532 13.3824 41.6175 12.5705C42.4293 11.5865 42.3554 10.1598 41.4699 9.27408L35.8856 3.69C35 2.80442 33.5732 2.73057 32.5893 3.5424C31.7774 4.2065 30.941 3.96055 30.5967 3.8376C30.2769 3.69 29.5143 3.2717 29.4158 2.21393C29.2682 0.959425 28.2104 0 26.9558 0H19.0839C17.8293 0 16.7715 0.959425 16.6239 2.2139C16.5254 3.2717 15.7628 3.69 15.443 3.8376C15.1232 3.96058 14.2623 4.2065 13.4504 3.5424C12.4665 2.73057 11.0397 2.80442 10.1541 3.69L4.56986 9.2741C3.68428 10.1598 3.61043 11.5865 4.42226 12.5706C5.08651 13.3824 4.84041 14.2187 4.71746 14.5632C4.56986 14.883 4.15171 15.6456 3.09393 15.7439C1.83931 15.8915 0.879883 16.9494 0.879883 18.2039V26.076C0.879883 27.3306 1.83931 28.3883 3.09393 28.5359C4.15171 28.6344 4.56986 29.397 4.71746 29.7167C4.84044 30.0611 5.08651 30.8976 4.42226 31.7094C3.61041 32.6934 3.68428 34.1202 4.56986 35.0058L10.1541 40.59C11.0397 41.4756 12.4665 41.5494 13.4504 40.7376C14.2623 40.0733 15.1232 40.3195 15.443 40.4424C15.7628 40.59 16.5254 41.0082 16.6239 42.0659C16.673 42.558 16.8945 42.9515 17.1897 43.3205C16.181 46.8137 15.6399 50.43 15.6399 54.12C15.6399 69.2244 24.2745 82.9265 37.7799 89.4948V93.48H32.8599C31.5069 93.48 30.3999 94.587 30.3999 95.94V105.78C30.3999 107.133 31.5069 108.24 32.8599 108.24H37.7799V113.16C37.7799 118.597 42.1832 123 47.6199 123H62.3799C67.8165 123 72.2199 118.597 72.2199 113.16V108.24H77.1399C78.4928 108.24 79.5999 107.133 79.5999 105.78V95.94C79.5999 94.587 78.4928 93.48 77.1399 93.48H72.2199V89.4948C85.7252 82.9265 94.3599 69.2244 94.3599 54.12C94.3599 50.43 93.8187 46.8137 92.8101 43.3206C93.1053 42.9515 93.3267 42.558 93.3758 42.0659C93.4743 41.0081 94.2369 40.59 94.5567 40.4424C94.901 40.3194 95.7374 40.0733 96.5493 40.7376C97.5332 41.5494 98.9601 41.4756 99.8456 40.59L105.43 35.0058C106.315 34.1202 106.389 32.6934 105.577 31.7094C104.913 30.8976 105.159 30.0611 105.282 29.7167C105.43 29.397 105.848 28.6344 106.906 28.5359C108.16 28.3883 109.12 27.3306 109.12 26.0759V18.2039C109.12 16.9494 108.16 15.8915 106.906 15.7439ZM41.3223 29.7167C41.4699 29.397 41.888 28.6344 42.9458 28.5359C44.2004 28.3883 45.1598 27.3306 45.1598 26.076V21.156C51.5313 19.2372 58.4684 19.2372 64.8398 21.156V26.076C64.8398 27.3306 65.7993 28.3883 67.0539 28.5359C68.1117 28.6344 68.5299 29.397 68.6775 29.7167C68.7513 29.9382 68.8497 30.3563 68.7758 30.8237C68.2839 30.8484 67.7673 30.996 67.3491 31.3404C66.4634 32.0784 65.3073 32.226 64.2495 31.8078C63.1917 31.365 62.4782 30.4056 62.3799 29.2739C62.2323 28.0194 61.1745 27.06 59.9199 27.06H50.0799C48.8252 27.06 47.7675 28.0194 47.6199 29.2739C47.5215 30.4056 46.808 31.365 45.7502 31.8078C44.6925 32.2259 43.5363 32.0784 42.6506 31.3404C42.2325 30.996 41.7158 30.8484 41.2239 30.8237C41.1501 30.3563 41.2484 29.9382 41.3223 29.7167ZM41.4699 36.3341C43.4132 37.146 45.6273 37.1706 47.6445 36.3587C49.6371 35.5224 51.1869 33.9234 51.9741 31.98H58.0256C58.8128 33.9234 60.3626 35.5224 62.3552 36.3587C64.3725 37.1706 66.5865 37.146 68.5299 36.3341L72.7856 40.59C71.9739 42.5334 71.9493 44.7474 72.761 46.7646C73.5975 48.7572 75.1965 50.307 77.1399 51.0941V57.1458C75.1965 57.933 73.5975 59.4828 72.761 61.4754C71.9493 63.4926 71.9739 65.7065 72.7856 67.65L68.5299 71.9058C66.5865 71.0939 64.3725 71.0694 62.3552 71.8811C60.3626 72.7176 58.8128 74.3165 58.0256 76.26H51.9741C51.1869 74.3165 49.6371 72.7176 47.6445 71.8811C45.6273 71.0694 43.4132 71.0939 41.4699 71.9058L37.2141 67.65C38.0258 65.7065 38.0504 63.4926 37.2387 61.4754C36.4023 59.4828 34.8032 57.933 32.8599 57.1458V51.0941C34.8032 50.307 36.4023 48.7572 37.2387 46.7646C38.0504 44.7474 38.0258 42.5334 37.2141 40.59L41.4699 36.3341ZM17.3126 35.8913C15.6891 35.2272 13.9178 35.2026 12.3189 35.793L9.36689 32.841C9.95726 31.242 9.93264 29.4707 9.26839 27.8472C8.57966 26.2235 7.34966 24.9444 5.79986 24.2309V20.0489C7.34966 19.3356 8.57966 18.0563 9.26839 16.4328C9.93264 14.8091 9.95726 13.038 9.36689 11.4389L12.3189 8.48705C13.9178 9.07742 15.6891 9.0528 17.3126 8.38855C18.9363 7.6998 20.2154 6.4698 20.9289 4.92H25.1108C25.8243 6.4698 27.1034 7.6998 28.7271 8.38853C30.3506 9.05278 32.1219 9.0774 33.7208 8.48703L36.6728 11.4389C36.0824 13.0379 36.1071 14.8091 36.7713 16.4328C37.4601 18.0563 38.6901 19.3356 40.2399 20.0489V24.2309C38.6901 24.9444 37.4601 26.2235 36.7713 27.8472C36.1071 29.4707 36.0825 31.242 36.6728 32.8409L33.7208 35.793C32.1219 35.2026 30.3506 35.2272 28.7271 35.8913C27.1034 36.5802 25.8243 37.8102 25.1108 39.36H20.9289C20.2154 37.8102 18.9363 36.5802 17.3126 35.8913ZM67.2999 113.16C67.2999 115.866 65.0858 118.08 62.3799 118.08H47.6199C44.9139 118.08 42.6999 115.866 42.6999 113.16V108.24H67.2999V113.16ZM68.7758 85.6572C67.8902 86.0508 67.2999 86.9363 67.2999 87.9204V93.48H59.9199C58.5669 93.48 57.4599 94.587 57.4599 95.94C57.4599 97.293 58.5669 98.4 59.9199 98.4H74.6799V103.32H35.3199V98.4H50.0799C51.4328 98.4 52.5399 97.293 52.5399 95.94C52.5399 94.587 51.4328 93.48 50.0799 93.48H42.6999V87.9204C42.6999 86.9363 42.1095 86.0508 41.2239 85.6572C28.6778 80.196 20.5599 67.8222 20.5599 54.12C20.5599 50.7498 21.0765 47.4534 22.0358 44.28H26.9558C28.2104 44.28 29.2682 43.3206 29.4158 42.0659C29.5143 41.0081 30.2769 40.59 30.5967 40.4424C30.818 40.3685 31.2363 40.2702 31.7037 40.3439C31.7282 40.8359 31.8758 41.3526 32.2202 41.7708C32.9582 42.6563 33.1304 43.8126 32.6876 44.8704C32.2448 45.9282 31.2854 46.6415 30.1539 46.74C28.8993 46.8876 27.9399 47.9454 27.9399 49.2V59.04C27.9399 60.2946 28.8993 61.3524 30.1539 61.5C31.2854 61.5984 32.2449 62.3117 32.6876 63.3696C33.1304 64.4274 32.9582 65.5835 32.2202 66.4691C31.433 67.4531 31.4823 68.88 32.3925 69.7656L39.3543 76.7274C40.2399 77.6376 41.6667 77.6867 42.6506 76.8996C43.5363 76.1615 44.6925 75.9894 45.7502 76.4322C46.808 76.875 47.5215 77.8098 47.6199 78.966C47.7675 80.2206 48.8252 81.18 50.0799 81.18H59.9199C61.1745 81.18 62.2323 80.2206 62.3799 78.966C62.4782 77.8098 63.1917 76.875 64.2495 76.4322C65.3073 75.9895 66.4634 76.1615 67.3491 76.8996C68.333 77.7113 69.7599 77.6376 70.6454 76.7274L77.6073 69.7656C78.5175 68.88 78.5667 67.4532 77.7795 66.4691C77.0415 65.5835 76.8693 64.4274 77.3121 63.3696C77.7549 62.3117 78.7143 61.5984 79.8458 61.5C81.1004 61.3524 82.0599 60.2946 82.0599 59.04V49.2C82.0599 47.9454 81.1004 46.8876 79.8458 46.74C78.7143 46.6415 77.7549 45.9282 77.3121 44.8704C76.8693 43.8126 77.0415 42.6563 77.7795 41.7708C78.1239 41.3526 78.2715 40.8359 78.296 40.3439C78.7634 40.2702 79.1817 40.3685 79.403 40.4424C79.7228 40.59 80.4854 41.0082 80.5839 42.0659C80.7315 43.3206 81.7893 44.28 83.0439 44.28H87.9639C88.9232 47.4534 89.4399 50.7498 89.4399 54.12C89.4399 67.8222 81.3219 80.196 68.7758 85.6572ZM104.2 24.2309C102.65 24.9444 101.42 26.2235 100.731 27.8472C100.067 29.4707 100.042 31.242 100.633 32.841L97.6808 35.793C96.0819 35.2026 94.3106 35.2272 92.6871 35.8913C91.0634 36.5802 89.7843 37.8102 89.0708 39.36H84.8889C84.1754 37.8102 82.8963 36.5802 81.2727 35.8913C79.6491 35.2272 77.8779 35.2026 76.2789 35.793L73.3269 32.841C73.9173 31.242 73.8927 29.4707 73.2284 27.8472C72.5397 26.2235 71.3097 24.9444 69.7599 24.2309V20.0489C71.3097 19.3356 72.5397 18.0563 73.2284 16.4328C73.8926 14.8091 73.9173 13.038 73.3269 11.4389L76.2789 8.48705C77.8778 9.07742 79.6491 9.0528 81.2726 8.38855C82.8963 7.6998 84.1754 6.4698 84.8889 4.92H89.0708C89.7843 6.4698 91.0634 7.6998 92.6871 8.38853C94.3106 9.05278 96.0819 9.0774 97.6808 8.48703L100.633 11.4389C100.042 13.0379 100.067 14.8091 100.731 16.4328C101.42 18.0563 102.65 19.3356 104.2 20.0489V24.2309Z" fill="#0B409C"/>
<path d="M92.6206 15.4805L84.5199 23.5812L81.3392 20.4005C80.3783 19.4395 78.8215 19.4395 77.8606 20.4005C76.8997 21.3614 76.8997 22.9181 77.8606 23.8791C77.8606 23.8791 82.7663 28.7848 82.7806 28.799C83.7367 29.7552 85.3055 29.7527 86.2592 28.7991L96.0992 18.9591C97.0601 17.9981 97.0601 16.4414 96.0992 15.4805C95.1383 14.5195 93.5815 14.5195 92.6206 15.4805Z" fill="#0B409C"/>
<path d="M20.5599 29.5157C21.1916 29.5154 21.8226 29.2757 22.2992 28.799L32.1392 18.959C33.1001 17.9981 33.1001 16.4414 32.1392 15.4805C31.1783 14.5195 29.6216 14.5195 28.6606 15.4805L20.5599 23.5812L17.3792 20.4005C16.4183 19.4395 14.8616 19.4395 13.9006 20.4005C12.9397 21.3614 12.9397 22.9181 13.9006 23.879C13.9006 23.879 18.8073 28.7857 18.8206 28.799C19.2994 29.2779 19.93 29.5159 20.5599 29.5157Z" fill="#0B409C"/>
<path d="M10.7199 54.1202C10.7199 52.7616 9.61842 51.6602 8.25988 51.6602H3.33988C1.98135 51.6602 0.879883 52.7616 0.879883 54.1202C0.879883 55.4787 1.98135 56.5802 3.33988 56.5802H8.25988C9.61842 56.5802 10.7199 55.4787 10.7199 54.1202Z" fill="#FEB402"/>
<path d="M13.2914 75.3587L9.03085 77.8187C7.85369 78.4986 7.45131 80.0024 8.13007 81.1798C8.80586 82.3497 10.3217 82.7558 11.4908 82.0804L15.7514 79.6204C16.9286 78.9406 17.3309 77.4367 16.6523 76.2596C15.9724 75.08 14.4673 74.6764 13.2914 75.3587Z" fill="#FEB402"/>
<path d="M100.969 77.8187L96.7084 75.3587C95.5301 74.6764 94.025 75.08 93.3475 76.2596C92.6689 77.4367 93.0713 78.9406 94.2484 79.6204C94.2484 79.6204 98.4959 82.0729 98.5089 82.0804C99.6059 82.7138 101.181 82.3731 101.87 81.1796C102.548 80.0024 102.146 78.4986 100.969 77.8187Z" fill="#FEB402"/>
<path d="M106.66 51.6602H101.74C100.381 51.6602 99.2798 52.7616 99.2798 54.1202C99.2798 55.4787 100.381 56.5802 101.74 56.5802H106.66C108.018 56.5802 109.12 55.4787 109.12 54.1202C109.12 52.7616 108.018 51.6602 106.66 51.6602Z" fill="#FEB402"/>
</svg>
