<svg width="107" height="107" viewBox="0 0 107 107" fill="none" xmlns="http://www.w3.org/2000/svg">
<path d="M105.096 14.9936C104.164 14.8891 103.784 14.2057 103.665 13.9163C103.545 13.6279 103.33 12.8776 103.915 12.1451C104.599 11.2935 104.53 10.0657 103.759 9.29458L97.7065 3.24135C96.9353 2.4702 95.7065 2.40228 94.858 3.08252C94.1203 3.67185 93.368 3.45242 93.0817 3.33538C92.7933 3.21522 92.1099 2.83591 92.0075 1.90383C91.8862 0.820262 90.9709 0 89.88 0H81.32C80.2291 0 79.3137 0.820262 79.1925 1.90385C79.0901 2.83593 78.4068 3.21522 78.1184 3.33541C77.83 3.45349 77.0797 3.67188 76.342 3.08254C75.4956 2.4044 74.2668 2.46813 73.4936 3.24137L67.4414 9.2946C66.6702 10.0657 66.6013 11.2935 67.2846 12.1451C67.8698 12.8776 67.6545 13.6279 67.5354 13.9163C67.4163 14.2057 67.0359 14.8891 66.1039 14.9936C65.3491 15.0772 64.7426 15.5589 64.4316 16.2039C62.3204 15.4203 60.0753 14.98 57.78 14.98H49.22C47.0154 14.98 44.8534 15.3973 42.8 16.1252V6.42C42.8 5.77843 42.4092 5.19222 41.9139 4.78575C41.4186 4.38137 40.6663 4.23821 40.033 4.36359C33.9621 5.57883 27.6361 4.1431 22.6852 0.428407C21.9204 -0.142117 20.8796 -0.142117 20.1147 0.428407C15.1639 4.1431 8.83585 5.57673 2.56423 4.32282C1.93728 4.19536 1.28317 4.35627 0.785786 4.76379C0.288408 5.17028 0 5.77843 0 6.42V16.6498C0 29.2777 8.61016 40.0101 20.9361 42.7488C21.2411 42.8177 21.559 42.8166 21.864 42.7488C24.7981 42.0969 27.5129 40.98 29.96 39.5043V47.08C29.96 47.9452 30.4804 48.7257 31.2808 49.057C32.0812 49.3893 32.9986 49.2064 33.613 48.593L34.24 47.9662V51.36C34.24 58.0235 37.6427 63.9043 42.8 67.3636V72.5886C42.8 73.6294 42.0142 74.5426 40.8523 74.7391L31.2285 76.9167C21.8138 78.4172 14.98 86.4255 14.98 95.9573V104.86C14.98 106.043 15.9372 107 17.12 107H34.24C35.4228 107 36.38 106.043 36.38 104.86C36.38 103.677 35.4228 102.72 34.24 102.72H19.26V95.9573C19.26 89.1568 23.7358 83.3663 30.2282 81.5291C30.2282 81.5291 41.7624 91.6296 41.7739 91.6396C42.4413 92.2241 43.5097 92.3579 44.334 91.8361L51.36 87.3608V102.72H42.8C41.6172 102.72 40.66 103.677 40.66 104.86C40.66 106.043 41.6172 107 42.8 107H89.88C91.0628 107 92.02 106.043 92.02 104.86V95.9573C92.02 86.4255 85.1862 78.4172 75.9052 76.9418L66.0265 74.7161C64.9858 74.5426 64.2 73.6294 64.2 72.5886V67.3636C69.3573 63.9043 72.76 58.0235 72.76 51.36V47.9662L73.387 48.593C73.7966 49.0027 74.3441 49.22 74.9 49.22C75.1759 49.22 75.4538 49.1667 75.7192 49.057C76.5196 48.7257 77.04 47.9452 77.04 47.08V39.3873C77.5109 39.2777 77.9234 39.384 78.1184 39.4646C78.4068 39.5848 79.0901 39.9641 79.1925 40.8961C79.3137 41.9797 80.2291 42.8 81.32 42.8H89.88C90.9709 42.8 91.8862 41.9797 92.0075 40.8961C92.1099 39.9641 92.7933 39.5848 93.0816 39.4646C93.37 39.3465 94.1203 39.1313 94.858 39.7175C95.7044 40.3946 96.9353 40.3319 97.7065 39.5586L103.759 33.5054C104.53 32.7343 104.599 31.5065 103.915 30.6549C103.33 29.9224 103.545 29.1721 103.665 28.8837C103.784 28.5943 104.164 27.9109 105.096 27.8064C106.181 27.6863 107 26.7699 107 25.68V17.12C107 16.0301 106.181 15.1137 105.096 14.9936ZM21.4 38.4625C11.2956 35.9996 4.28 27.0969 4.28 16.6498V8.91946C10.2883 9.55058 16.3489 8.0877 21.4 4.75544C26.4512 8.0877 32.5075 9.55163 38.52 8.91946V16.6498C38.52 23.4329 35.5501 29.5517 30.7099 33.6927C30.658 33.7378 30.602 33.7731 30.5547 33.8229C27.9703 35.9935 24.8744 37.6157 21.4 38.4625ZM43.3872 87.3638L35.3882 80.3588L41.6715 78.9376C41.8025 78.916 41.9223 78.8691 42.0501 78.8401L49.4875 83.4788L43.3872 87.3638ZM87.74 95.9573V102.72H55.64V87.3608C55.64 87.3608 62.666 91.8361 62.6666 91.8365C63.4683 92.3437 64.5077 92.2688 65.2261 91.6397C65.2263 91.6395 76.7818 81.5204 76.7818 81.5204C83.2211 83.308 87.74 89.1233 87.74 95.9573ZM64.9412 78.8455C65.0316 78.8646 65.1156 78.8996 65.2073 78.9146L71.6135 80.3574L63.6127 87.3638L57.5125 83.4788L64.9412 78.8455ZM61.0604 76.2212L53.5 80.9373L45.9336 76.2174C46.6488 75.1777 47.08 73.9345 47.08 72.5886V69.4964C49.0916 70.2108 51.2464 70.62 53.5 70.62C55.7536 70.62 57.9084 70.2108 59.92 69.4965V72.5887C59.92 73.937 60.3521 75.1823 61.0604 76.2212ZM68.48 51.36C68.48 59.6191 61.7591 66.34 53.5 66.34C45.2409 66.34 38.52 59.6191 38.52 51.36V43.687L39.1992 43.0079C41.2661 40.9421 44.823 40.7384 47.1155 42.5691C50.7435 45.4614 56.2523 45.4646 59.8887 42.566C62.2544 40.6725 65.6566 40.8638 67.8008 43.0079L68.48 43.687V51.36ZM70.8269 39.9819C67.1383 36.2891 61.2826 35.9683 57.2178 39.2212C55.0653 40.9369 51.9347 40.9359 49.7822 39.2222C47.9682 37.775 45.7028 36.9788 43.3998 36.9788C40.7143 36.9788 38.079 38.0738 36.1731 39.9819L34.24 41.9139V36.2925C38.5656 32.3043 41.5023 26.9334 42.4535 20.9142C44.5406 19.8493 46.8522 19.26 49.22 19.26H57.78C60.0319 19.26 62.219 19.7899 64.2 20.7469V25.68C64.2 26.7699 65.0192 27.6863 66.1039 27.8064C67.0359 27.9109 67.4163 28.5943 67.5354 28.8837C67.6545 29.1721 67.8698 29.9224 67.2846 30.6549C66.6012 31.5065 66.6702 32.7343 67.4414 33.5054L72.76 38.825V41.9139L70.8269 39.9819ZM102.72 24.0802C101.376 24.703 100.304 25.8096 99.7106 27.2463C99.115 28.6831 99.0899 30.2202 99.602 31.611L95.811 35.4009C94.415 34.8889 92.8769 34.915 91.4411 35.5117C90.0054 36.1062 88.902 37.1762 88.2792 38.52H82.9208C82.298 37.1762 81.1946 36.1062 79.7589 35.5117C78.3232 34.915 76.783 34.8899 75.389 35.4009L71.5981 31.611C72.1101 30.2202 72.085 28.6831 71.4894 27.2463C70.8959 25.8096 69.8238 24.703 68.48 24.0802V18.7198C69.8238 18.097 70.8959 16.9904 71.4894 15.5537C72.085 14.1169 72.1101 12.5798 71.5981 11.189L75.389 7.39909C76.783 7.90796 78.3232 7.88288 79.7589 7.28833C81.1946 6.69377 82.298 5.62377 82.9208 4.28H88.2792C88.902 5.62377 90.0054 6.69377 91.4411 7.28833C92.8769 7.88498 94.415 7.90901 95.811 7.39909L99.602 11.189C99.0899 12.5798 99.115 14.1169 99.7106 15.5537C100.304 16.9904 101.376 18.097 102.72 18.7198V24.0802Z" fill="#0B409C"/>
<path d="M85.6004 10.6992C79.7008 10.6992 74.9004 15.4996 74.9004 21.3992C74.9004 27.2989 79.7008 32.0992 85.6004 32.0992C91.5 32.0992 96.3004 27.2989 96.3004 21.3992C96.3004 15.4996 91.5 10.6992 85.6004 10.6992ZM85.6004 27.8192C82.0602 27.8192 79.1804 24.9394 79.1804 21.3992C79.1804 17.859 82.0602 14.9792 85.6004 14.9792C89.1406 14.9792 92.0204 17.859 92.0204 21.3992C92.0204 24.9394 89.1406 27.8192 85.6004 27.8192Z" fill="#FEB402"/>
<path d="M29.3334 15.6064C28.4974 14.7705 27.1432 14.7705 26.3073 15.6064L19.2603 22.6534L16.4934 19.8864C15.6574 19.0505 14.3032 19.0505 13.4673 19.8864C12.6314 20.7224 12.6314 22.0766 13.4673 22.9125C13.4673 22.9125 17.744 27.1893 17.7473 27.1925C18.5574 28.0027 19.9462 28.0197 20.7734 27.1925L29.3334 18.6325C30.1693 17.7966 30.1693 16.4424 29.3334 15.6064Z" fill="#FEB402"/>
</svg>
