<svg width="107" height="107" viewBox="0 0 107 107" fill="none" xmlns="http://www.w3.org/2000/svg">
<path d="M102.72 85.9852V70.62C102.72 69.443 101.757 68.48 100.58 68.48H68.48C62.0386 68.48 56.4318 72.0537 53.5 77.3396C50.5682 72.0537 44.9614 68.48 38.52 68.48H6.42C5.24302 68.48 4.28 69.443 4.28 70.62V85.9852C1.79766 86.8839 0 89.238 0 92.02C0 95.5509 2.88896 98.44 6.42 98.44H17.12C18.297 98.44 19.26 97.477 19.26 96.3C19.26 95.123 18.297 94.16 17.12 94.16H6.42C5.24302 94.16 4.28 93.197 4.28 92.02C4.28 90.843 5.24302 89.88 6.42 89.88H100.58C101.757 89.88 102.72 90.843 102.72 92.02C102.72 93.197 101.757 94.16 100.58 94.16H62.06C60.883 94.16 59.92 95.123 59.92 96.3C59.92 99.8309 57.031 102.72 53.5 102.72C49.969 102.72 47.08 99.8309 47.08 96.3C47.08 95.123 46.117 94.16 44.94 94.16H25.68C24.503 94.16 23.54 95.123 23.54 96.3C23.54 97.477 24.503 98.44 25.68 98.44H43.014C43.9984 103.319 48.3427 107 53.5 107C58.6788 107 62.9802 103.319 63.986 98.44H100.58C104.111 98.44 107 95.5509 107 92.02C107 89.238 105.202 86.8839 102.72 85.9852ZM8.56 72.76H38.52C43.5277 72.76 47.8718 75.6489 49.9904 79.8648C47.2512 78.0671 44.0198 77.04 40.66 77.04H8.56V72.76ZM8.56 85.6V81.32H40.66C44.3836 81.32 47.7862 82.9036 50.2044 85.6H8.56ZM98.44 85.6H56.7956C59.2138 82.9036 62.6164 81.32 66.34 81.32H98.44V85.6ZM98.44 77.04H66.34C62.9802 77.04 59.7488 78.0671 57.0096 79.8648C59.1282 75.6489 63.4723 72.76 68.48 72.76H98.44V77.04Z" fill="#0B409C"/>
<path d="M77.04 23.54C77.04 10.5502 66.4898 0 53.5 0C40.5101 0 29.96 10.5502 29.96 23.54C29.96 32.4209 34.9462 40.4888 42.8 44.4906V47.4652C40.3176 48.364 38.52 50.718 38.52 53.5C38.52 57.0309 41.4089 59.92 44.94 59.92V66.34C44.94 67.517 45.903 68.48 47.08 68.48H59.92C61.0969 68.48 62.06 67.517 62.06 66.34V59.92C65.591 59.92 68.48 57.0309 68.48 53.5C68.48 50.718 66.6823 48.364 64.2 47.4652V44.4906C72.0537 40.4888 77.04 32.4209 77.04 23.54ZM57.78 64.2H49.22V59.92H57.78V64.2ZM62.06 55.64H44.94C43.763 55.64 42.8 54.677 42.8 53.5C42.8 52.323 43.763 51.36 44.94 51.36H62.06C63.2369 51.36 64.2 52.323 64.2 53.5C64.2 54.677 63.2369 55.64 62.06 55.64ZM61.2039 41.195C60.4335 41.5373 59.92 42.2864 59.92 43.1423V47.08H55.64V35.5668L63.023 31.8646C63.7505 31.5007 64.2 30.7732 64.2 29.96V17.12C64.2 15.943 63.2369 14.98 62.06 14.98C60.883 14.98 59.92 15.943 59.92 17.12V28.6332L53.5 31.8432L47.08 28.6332V17.12C47.08 15.943 46.1169 14.98 44.94 14.98C43.763 14.98 42.8 15.943 42.8 17.12V29.96C42.8 30.7732 43.2494 31.5007 43.9769 31.8646L51.36 35.5668V47.08H47.08V43.1423C47.08 42.2864 46.5664 41.5373 45.796 41.195C38.7768 38.1134 34.24 31.2011 34.24 23.54C34.24 12.9256 42.8855 4.28 53.5 4.28C64.1144 4.28 72.76 12.9256 72.76 23.54C72.76 31.2011 68.2232 38.1134 61.2039 41.195Z" fill="#FEB402"/>
<path d="M24.2111 7.20361C24.2111 7.20361 27.8967 9.33161 27.9174 9.34357C28.863 9.88957 30.2493 9.58479 30.8412 8.55992C31.4315 7.53589 31.0815 6.22767 30.0575 5.63623L26.3511 3.49623C25.3282 2.9048 24.0178 3.25382 23.4274 4.27992C22.8371 5.30396 23.1871 6.61218 24.2111 7.20361Z" fill="#FEB402"/>
<path d="M19.2601 25.6799H23.5401C24.7219 25.6799 25.6801 24.7227 25.6801 23.5399C25.6801 22.3571 24.7219 21.3999 23.5401 21.3999H19.2601C18.0783 21.3999 17.1201 22.3571 17.1201 23.5399C17.1201 24.7227 18.0783 25.6799 19.2601 25.6799Z" fill="#FEB402"/>
<path d="M27.9175 37.736L24.2111 39.876C23.1873 40.4673 22.8372 41.7753 23.4272 42.7992C24.015 43.8194 25.3333 44.1713 26.3511 43.5834L30.0575 41.4434C31.0815 40.852 31.4315 39.5437 30.8412 38.5197C30.2497 37.4957 28.9394 37.1446 27.9175 37.736Z" fill="#FEB402"/>
<path d="M78.0142 9.62628C78.3794 9.62793 78.7481 9.53709 79.0821 9.34417L82.7894 7.20417C83.8135 6.61274 84.1646 5.30451 83.5731 4.28048C82.9796 3.25854 81.6672 2.90536 80.6494 3.49679L76.9421 5.63679C75.9182 6.22811 75.5671 7.53597 76.158 8.5599C76.5512 9.24115 77.2755 9.62295 78.0142 9.62628Z" fill="#FEB402"/>
<path d="M81.3203 23.5399C81.3203 24.7227 82.2775 25.6799 83.4603 25.6799H87.7403C88.9232 25.6799 89.8803 24.7227 89.8803 23.5399C89.8803 22.3571 88.9232 21.3999 87.7403 21.3999H83.4603C82.2775 21.3999 81.3203 22.3571 81.3203 23.5399Z" fill="#FEB402"/>
<path d="M82.7894 39.876L79.0821 37.736C78.0601 37.1446 76.7498 37.4957 76.1584 38.5197C75.5669 39.5437 75.9181 40.852 76.9421 41.4434L80.6497 43.5835C81.6631 44.1687 82.985 43.8181 83.5731 42.7997C84.1646 41.7757 83.8135 40.4674 82.7894 39.876Z" fill="#FEB402"/>
</svg>
