<svg width="107" height="107" viewBox="0 0 107 107" fill="none" xmlns="http://www.w3.org/2000/svg">
<path d="M51.3594 25.6769C51.909 25.6767 52.4579 25.4682 52.8725 25.0536L61.4325 16.4938C62.2684 15.6579 62.2684 14.3037 61.4325 13.4678C60.5966 12.6318 59.2423 12.6318 58.4064 13.4678L51.3594 20.5145L48.5925 17.7476C47.7566 16.9117 46.4023 16.9117 45.5664 17.7476C44.7305 18.5836 44.7305 19.9378 45.5664 20.7737C45.5664 20.7737 49.8351 25.0423 49.8464 25.0535C50.2629 25.4701 50.8115 25.6771 51.3594 25.6769Z" fill="#0B409C"/>
<path d="M75.9026 61.9516L65.9945 59.7259C64.9672 59.5547 64.1969 58.6774 64.1969 57.6074V53.4987H66.3369C67.5138 53.4987 68.4769 52.5357 68.4769 51.3588V42.799C68.4769 41.622 67.5138 40.659 66.3369 40.659H63.1269V35.9297C69.0974 32.4844 72.7569 26.2144 72.7569 19.2595C72.7569 8.64535 64.1113 0 53.4968 0C42.8824 0 34.2368 8.64535 34.2368 19.2595C34.2368 26.2144 37.8963 32.4844 43.8668 35.9297V40.659H40.6568C39.4799 40.659 38.5168 41.622 38.5168 42.799V51.3588C38.5168 52.5357 39.4799 53.4987 40.6568 53.4987H42.7968V57.6074C42.7968 58.6774 42.0479 59.5547 40.8495 59.7473L31.2195 61.9301C21.8034 63.4281 14.9768 71.4529 14.9768 80.9756V104.858C14.9768 106.034 15.9398 106.997 17.1168 106.997H36.3768C37.5538 106.997 38.5168 106.034 38.5168 104.858C38.5168 103.681 37.5538 102.718 36.3768 102.718H32.0968V95.9339C32.0968 92.5955 33.4022 89.4713 35.7563 87.1173C36.5908 86.2828 36.5908 84.9132 35.7563 84.0786C34.9216 83.244 33.552 83.244 32.7174 84.0786C29.5502 87.2457 27.8168 91.4614 27.8168 95.9339V102.718H19.2568V80.9756C19.2568 73.5501 24.564 67.3228 32.0326 66.1458L32.1824 66.1031C32.1824 66.1031 41.7661 74.5099 41.7697 74.5131C42.4475 75.1077 43.5139 75.2385 44.3376 74.7056L45.4933 73.9781L46.9913 77.3164L44.9583 89.5354C44.8513 90.1988 45.0652 90.905 45.5574 91.3972C45.5574 91.3972 51.9623 97.8019 51.9774 97.817C52.8174 98.657 54.1719 98.6191 55.0163 97.817L61.4363 91.3972C61.9285 90.905 62.1424 90.1988 62.0355 89.5354L60.0024 77.3164L61.5004 73.9781L62.6561 74.7056C63.4117 75.1812 64.4786 75.1799 65.224 74.513L74.8326 66.1031L75.0895 66.1672C82.4297 67.3227 87.7369 73.5501 87.7369 80.9756V102.718H79.1769V95.9339C79.1769 91.5256 77.3792 87.2029 74.2763 84.0786C73.4417 83.244 72.072 83.244 71.2374 84.0786C70.4029 84.9132 70.4029 86.2828 71.2374 87.1173C73.5701 89.4285 74.8969 92.6384 74.8969 95.9339V102.718H44.9368C43.7599 102.718 42.7968 103.681 42.7968 104.858C42.7968 106.034 43.7599 106.997 44.9368 106.997H89.8769C91.0539 106.997 92.0169 106.034 92.0169 104.858V80.9756C92.0169 71.4529 85.1903 63.4281 75.9026 61.9516ZM38.5168 19.2595C38.5168 10.9994 45.2365 4.2799 53.4968 4.2799C61.7572 4.2799 68.4769 10.9994 68.4769 19.2595C68.4769 25.016 65.2454 30.1732 60.0453 32.7198C59.3176 33.0622 58.8469 33.8112 58.8469 34.6458V40.659H48.1468V34.6458C48.1468 33.8112 47.6761 33.0622 46.9484 32.7198C41.7483 30.1732 38.5168 25.016 38.5168 19.2595ZM42.7968 44.9389H64.1969V49.2188H42.7968V44.9389ZM60.2379 59.5975L53.4968 63.8133L46.7558 59.5975C46.9484 58.977 47.0768 58.3136 47.0768 57.6074V53.4987H59.9169V57.6074C59.9169 58.3136 60.0453 58.977 60.2379 59.5975ZM43.3961 70.2332L37.3399 64.926L41.6626 63.9417C42.5615 63.8133 43.3747 63.4708 44.1022 63.0001L49.4736 66.3599L43.3961 70.2332ZM53.4968 93.2803L49.3667 89.1503L51.0358 79.1781H55.9579L57.6271 89.1502L53.4968 93.2803ZM56.3858 74.8982H50.6079L49.1526 71.6455L53.4968 68.885L57.8411 71.6455L56.3858 74.8982ZM63.5976 70.2332L57.5201 66.3599L62.8701 63.0215C63.5549 63.4708 64.3467 63.7919 65.2026 63.9203L69.6538 64.926L63.5976 70.2332Z" fill="#0B409C"/>
<path d="M34.24 40.6567C34.24 31.2171 26.5598 23.5371 17.12 23.5371C7.68019 23.5371 0 31.2171 0 40.6567C0 50.0963 7.68019 57.7763 17.12 57.7763C26.5598 57.7763 34.24 50.0963 34.24 40.6567ZM4.28 40.6567C4.28 33.5765 10.0396 27.817 17.12 27.817C24.2004 27.817 29.96 33.5765 29.96 40.6567C29.96 47.7369 24.2004 53.4964 17.12 53.4964C10.0396 53.4964 4.28 47.7369 4.28 40.6567Z" fill="#0B409C"/>
<path d="M24.8249 46.6474C25.7705 45.939 25.9618 44.5973 25.2523 43.6517C24.5449 42.7081 23.2053 42.5148 22.2565 43.2243C20.2701 44.7133 18.1865 44.9359 17.1207 44.9359C14.6379 44.9359 12.8376 43.8628 11.9849 43.2243C11.0382 42.5149 9.6986 42.7082 8.9891 43.6517C8.2796 44.5973 8.47081 45.939 9.41648 46.6474C10.6955 47.6066 13.3966 49.2158 17.1207 49.2158C18.7194 49.2158 21.8458 48.8824 24.8249 46.6474Z" fill="#0B409C"/>
<path d="M11.7682 38.5226C12.9501 38.5226 13.9082 37.5645 13.9082 36.3826C13.9082 35.2008 12.9501 34.2427 11.7682 34.2427C10.5863 34.2427 9.62817 35.2008 9.62817 36.3826C9.62817 37.5645 10.5863 38.5226 11.7682 38.5226Z" fill="#0B409C"/>
<path d="M22.4745 38.5226C23.6564 38.5226 24.6145 37.5645 24.6145 36.3826C24.6145 35.2008 23.6564 34.2427 22.4745 34.2427C21.2926 34.2427 20.3345 35.2008 20.3345 36.3826C20.3345 37.5645 21.2926 38.5226 22.4745 38.5226Z" fill="#0B409C"/>
<path d="M89.8771 23.5371C80.4373 23.5371 72.7571 31.2171 72.7571 40.6567C72.7571 50.0963 80.4373 57.7763 89.8771 57.7763C99.3169 57.7763 106.997 50.0963 106.997 40.6567C106.997 31.2171 99.3169 23.5371 89.8771 23.5371ZM89.8771 53.4964C82.7967 53.4964 77.0371 47.7369 77.0371 40.6567C77.0371 33.5765 82.7967 27.817 89.8771 27.817C96.9575 27.817 102.717 33.5765 102.717 40.6567C102.717 47.7369 96.9575 53.4964 89.8771 53.4964Z" fill="#0B409C"/>
<path d="M95.015 43.2255C94.1623 43.864 92.3609 44.9371 89.8781 44.9371C88.8123 44.9371 86.7287 44.7145 84.7413 43.2255C83.7967 42.5171 82.455 42.7104 81.7466 43.6529C81.036 44.5985 81.2283 45.9402 82.175 46.6486C85.153 48.8836 88.2794 49.217 89.8781 49.217C93.6022 49.217 96.3044 47.6078 97.5813 46.6486C98.528 45.9402 98.7203 44.5985 98.0097 43.6529C97.3013 42.7083 95.9596 42.5139 95.015 43.2255Z" fill="#0B409C"/>
<path d="M95.2308 38.5226C96.4127 38.5226 97.3708 37.5645 97.3708 36.3826C97.3708 35.2008 96.4127 34.2427 95.2308 34.2427C94.0489 34.2427 93.0908 35.2008 93.0908 36.3826C93.0908 37.5645 94.0489 38.5226 95.2308 38.5226Z" fill="#0B409C"/>
<path d="M84.5253 38.5226C85.7071 38.5226 86.6653 37.5645 86.6653 36.3826C86.6653 35.2008 85.7071 34.2427 84.5253 34.2427C83.3434 34.2427 82.3853 35.2008 82.3853 36.3826C82.3853 37.5645 83.3434 38.5226 84.5253 38.5226Z" fill="#0B409C"/>
<path d="M77.0421 12.8397C80.5823 12.8397 83.4621 15.7194 83.4621 19.2596C83.4621 20.4413 84.4193 21.3995 85.6021 21.3995C86.785 21.3995 87.7421 20.4413 87.7421 19.2596C87.7421 15.7194 90.6219 12.8397 94.1621 12.8397C95.345 12.8397 96.3021 11.8815 96.3021 10.6997C96.3021 9.51796 95.345 8.5598 94.1621 8.5598C90.6219 8.5598 87.7421 5.68007 87.7421 2.13995C87.7421 0.958163 86.785 0 85.6021 0C84.4193 0 83.4621 0.958163 83.4621 2.13995C83.4621 5.68007 80.5823 8.5598 77.0421 8.5598C75.8593 8.5598 74.9021 9.51796 74.9021 10.6997C74.9021 11.8815 75.8593 12.8397 77.0421 12.8397ZM85.6021 8.55353C86.2124 9.36541 86.9354 10.0895 87.7484 10.6997C86.9354 11.31 86.2124 12.0341 85.6021 12.846C84.9919 12.0341 84.2688 11.31 83.4558 10.6997C84.2688 10.0895 84.9919 9.36541 85.6021 8.55353Z" fill="#FEB402"/>
<path d="M12.8356 12.8397C16.3758 12.8397 19.2556 15.7194 19.2556 19.2596C19.2556 20.4413 20.2138 21.3995 21.3956 21.3995C22.5774 21.3995 23.5356 20.4413 23.5356 19.2596C23.5356 15.7194 26.4154 12.8397 29.9556 12.8397C31.1374 12.8397 32.0956 11.8815 32.0956 10.6997C32.0956 9.51796 31.1374 8.5598 29.9556 8.5598C26.4154 8.5598 23.5356 5.68007 23.5356 2.13995C23.5356 0.958163 22.5774 0 21.3956 0C20.2138 0 19.2556 0.958163 19.2556 2.13995C19.2556 5.68007 16.3758 8.5598 12.8356 8.5598C11.6537 8.5598 10.6956 9.51796 10.6956 10.6997C10.6956 11.8815 11.6537 12.8397 12.8356 12.8397ZM21.3956 8.55353C22.0058 9.36541 22.7299 10.0895 23.5418 10.6997C22.7299 11.31 22.0058 12.0341 21.3956 12.846C20.7853 12.0341 20.0612 11.31 19.2493 10.6997C20.0612 10.0895 20.7853 9.36541 21.3956 8.55353Z" fill="#FEB402"/>
</svg>
