<svg width="104" height="98" viewBox="0 0 104 98" fill="none" xmlns="http://www.w3.org/2000/svg">
<path d="M16.9601 72.5601H4.24012C3.06935 72.5601 2.12012 73.5093 2.12012 74.6801V95.8801C2.12012 97.0508 3.06935 98.0001 4.24012 98.0001H16.9601C18.1309 98.0001 19.0801 97.0508 19.0801 95.8801V74.6801C19.0801 73.5093 18.1309 72.5601 16.9601 72.5601ZM14.8401 93.7601H6.36012V76.8001H14.8401V93.7601Z" fill="#0B409C"/>
<path d="M38.1601 81.04H25.4401C24.2693 81.04 23.3201 81.9893 23.3201 83.16V95.88C23.3201 97.0508 24.2693 98 25.4401 98H38.1601C39.3308 98 40.2801 97.0508 40.2801 95.88V83.16C40.2801 81.9893 39.3308 81.04 38.1601 81.04ZM36.0401 93.76H27.5601V85.28H36.0401V93.76Z" fill="#0B409C"/>
<path d="M101.76 38.6401H89.0399C87.8692 38.6401 86.9199 39.5894 86.9199 40.7601V95.8801C86.9199 97.0509 87.8692 98.0001 89.0399 98.0001H101.76C102.931 98.0001 103.88 97.0509 103.88 95.8801V57.7201C103.88 56.5494 102.931 55.6001 101.76 55.6001C100.589 55.6001 99.6399 56.5494 99.6399 57.7201V93.7601H91.1599V42.8801H99.6399V49.2401C99.6399 50.4109 100.589 51.3601 101.76 51.3601C102.931 51.3601 103.88 50.4109 103.88 49.2401V40.7601C103.88 39.5894 102.931 38.6401 101.76 38.6401Z" fill="#0B409C"/>
<path d="M80.56 47.1201H67.84C66.6692 47.1201 65.72 48.0693 65.72 49.2401V95.8801C65.72 97.0509 66.6692 98.0001 67.84 98.0001H80.56C81.7307 98.0001 82.68 97.0509 82.68 95.8801V49.2401C82.68 48.0693 81.7307 47.1201 80.56 47.1201ZM78.44 93.7601H69.96V51.3601H78.44V93.7601Z" fill="#0B409C"/>
<path d="M59.36 64.0801H46.64C45.4692 64.0801 44.52 65.0293 44.52 66.2001V95.8801C44.52 97.0508 45.4692 98.0001 46.64 98.0001H59.36C60.5308 98.0001 61.48 97.0508 61.48 95.8801V66.2001C61.48 65.0293 60.5308 64.0801 59.36 64.0801ZM57.24 93.7601H48.76V68.3201H57.24V93.7601Z" fill="#0B409C"/>
<path d="M61.6311 23.8052C60.0836 23.6944 58.8051 22.7731 58.212 21.3404C57.6178 19.9067 57.8704 18.3509 58.8869 17.1781C59.6147 16.3375 59.5702 15.0767 58.7834 14.291L49.7889 5.29757C49.0032 4.51188 47.7435 4.46946 46.9019 5.19406C45.7301 6.21057 44.1753 6.46315 42.7395 5.86794C41.3069 5.27478 40.3856 3.99638 40.2748 2.44883C40.1951 1.33915 39.2717 0.47998 38.16 0.47998H25.44C24.3282 0.47998 23.4049 1.33915 23.3252 2.44885C23.2144 3.9964 22.2931 5.27483 20.8605 5.86796C19.4268 6.46112 17.872 6.20956 16.6981 5.19304C15.8607 4.46738 14.5988 4.50777 13.811 5.29656L4.81759 14.291C4.03088 15.0777 3.98636 16.3375 4.71408 17.1781C5.72956 18.3509 5.98213 19.9068 5.38796 21.3405C4.7948 22.7731 3.5164 23.6944 1.96884 23.8052C0.859172 23.8849 0 24.8082 0 25.92V38.64C0 39.7517 0.859172 40.6751 1.96887 40.7548C3.51642 40.8656 4.79485 41.7869 5.38798 43.2195C5.98215 44.6532 5.72957 46.2091 4.71306 47.3819C3.98534 48.2224 4.02984 49.4832 4.81658 50.2689L13.8111 59.2624C14.5988 60.0522 15.8607 60.0926 16.6981 59.3659C17.8689 58.3504 19.4247 58.0979 20.8605 58.692C22.2931 59.2852 23.2144 60.5636 23.3252 62.1111C23.4049 63.2208 24.3282 64.08 25.44 64.08H38.16C39.2717 64.08 40.1951 63.2208 40.2748 62.1111C40.3856 60.5636 41.3069 59.2851 42.7395 58.692C44.1722 58.0978 45.728 58.3494 46.9019 59.3669C47.7435 60.0946 49.0033 60.0522 49.789 59.2634L58.7834 50.2689C59.5701 49.4822 59.6147 48.2224 58.887 47.3819C57.8704 46.209 57.6179 44.6532 58.212 43.2195C58.8052 41.7868 60.0836 40.8656 61.6312 40.7548C62.7408 40.6751 63.6 39.7517 63.6 38.64V25.92C63.6 24.8082 62.7408 23.8849 61.6311 23.8052ZM59.36 36.9061C57.093 37.639 55.2359 39.3232 54.295 41.5974C53.353 43.8717 53.4741 46.3757 54.56 48.4967L48.0167 55.0389C45.8957 53.9551 43.3937 53.834 41.1174 54.775C38.8432 55.717 37.159 57.573 36.4261 59.84H27.1739C26.441 57.573 24.7568 55.7159 22.4826 54.775C20.2104 53.833 17.7053 53.9541 15.5832 55.04L9.04002 48.4967C10.1259 46.3757 10.247 43.8717 9.30502 41.5974C8.36406 39.3232 6.507 37.639 4.24 36.9061V27.6539C6.507 26.921 8.36406 25.2368 9.30502 22.9625C10.247 20.6883 10.1259 18.1842 9.04002 16.0632L15.5832 9.52104C17.7053 10.6059 20.2094 10.728 22.4826 9.785C24.7568 8.843 26.441 6.98698 27.1739 4.71998H36.4261C37.159 6.98698 38.8432 8.84404 41.1174 9.785C43.3917 10.728 45.8957 10.6059 48.0167 9.52L54.5589 16.0632C53.4741 18.1843 53.3519 20.6883 54.295 22.9625C55.237 25.2368 57.093 26.921 59.36 27.6539V36.9061Z" fill="#FEB402"/>
<path d="M31.8001 11.0801C20.1101 11.0801 10.6001 20.5901 10.6001 32.2801C10.6001 43.9701 20.1101 53.4801 31.8001 53.4801C43.4901 53.4801 53.0001 43.9701 53.0001 32.2801C53.0001 20.5901 43.4901 11.0801 31.8001 11.0801ZM31.8001 49.2401C22.4485 49.2401 14.8401 41.6317 14.8401 32.2801C14.8401 22.9285 22.4485 15.3201 31.8001 15.3201C41.1517 15.3201 48.7601 22.9285 48.7601 32.2801C48.7601 41.6317 41.1517 49.2401 31.8001 49.2401Z" fill="#FEB402"/>
<path d="M31.7999 25.9201C32.9686 25.9201 33.9199 26.8714 33.9199 28.0401C33.9199 29.2108 34.8692 30.1601 36.0399 30.1601C37.2107 30.1601 38.1599 29.2108 38.1599 28.0401C38.1599 25.2799 36.3823 22.9486 33.9199 22.0707V21.6801C33.9199 20.5093 32.9707 19.5601 31.7999 19.5601C30.6292 19.5601 29.6799 20.5093 29.6799 21.6801V22.0707C27.2176 22.9486 25.4399 25.2799 25.4399 28.0401C25.4399 31.5472 28.2928 34.4001 31.7999 34.4001C32.9686 34.4001 33.9199 35.3514 33.9199 36.5201C33.9199 37.6888 32.9686 38.6401 31.7999 38.6401C30.6312 38.6401 29.6799 37.6888 29.6799 36.5201C29.6799 35.3493 28.7307 34.4001 27.5599 34.4001C26.3892 34.4001 25.4399 35.3493 25.4399 36.5201C25.4399 39.2802 27.2176 41.6113 29.6799 42.4893V42.8801C29.6799 44.0508 30.6292 45.0001 31.7999 45.0001C32.9707 45.0001 33.9199 44.0508 33.9199 42.8801V42.4894C36.3823 41.6115 38.1599 39.2802 38.1599 36.5201C38.1599 33.0129 35.3071 30.1601 31.7999 30.1601C30.6312 30.1601 29.6799 29.2088 29.6799 28.0401C29.6799 26.8714 30.6312 25.9201 31.7999 25.9201Z" fill="#FEB402"/>
</svg>
