<svg width="136" height="105" viewBox="0 0 136 105" fill="none" xmlns="http://www.w3.org/2000/svg">
<path d="M62.0427 18.2591L60.8315 25.3182C60.6639 26.3005 61.0681 27.2943 61.8739 27.8801C62.6822 28.4672 63.7515 28.5427 64.6328 28.0796L70.9718 24.7464L77.3107 28.0796C77.6945 28.2805 78.1127 28.3802 78.5297 28.3802C79.072 28.3802 79.613 28.2114 80.0697 27.8801C80.8755 27.2943 81.2796 26.3005 81.1121 25.3182L79.9008 18.2591L85.0285 13.2606C85.7435 12.5635 86.0006 11.5236 85.6924 10.5746C85.3841 9.62677 84.5643 8.93481 83.5768 8.79157L76.4896 7.76193L73.3214 1.34109C72.4388 -0.44703 69.5047 -0.44703 68.6221 1.34109L65.4539 7.76193L58.3667 8.79157C57.3793 8.93483 56.5594 9.6268 56.2511 10.5746C55.9429 11.5236 56.2 12.5635 56.915 13.2606L62.0427 18.2591ZM67.5695 12.749C68.4239 12.6249 69.1606 12.089 69.5431 11.3151L70.9718 8.41934L72.4005 11.3151C72.7829 12.0889 73.5196 12.6249 74.374 12.7489L77.5717 13.2132L75.2579 15.4682C74.6401 16.0706 74.3574 16.9378 74.5045 17.7871L75.0507 20.972L72.1907 19.4678C71.8095 19.267 71.39 19.1672 70.9718 19.1672C70.5535 19.1672 70.134 19.267 69.7528 19.4678L66.8929 20.972L67.439 17.7871C67.5861 16.9378 67.3034 16.0707 66.6857 15.4682L64.3719 13.2133L67.5695 12.749Z" fill="#FEB402"/>
<path d="M115.777 43.1603L114.882 48.3776C114.714 49.3599 115.118 50.3537 115.924 50.9395C116.731 51.5266 117.801 51.6021 118.683 51.1391L123.368 48.6756L128.053 51.139C128.437 51.3399 128.855 51.4396 129.272 51.4396C129.815 51.4396 130.356 51.2708 130.812 50.9395C131.618 50.3537 132.022 49.3599 131.855 48.3776L130.96 43.1603L134.752 39.4639C135.466 38.7681 135.723 37.7269 135.414 36.7791C135.106 35.8314 134.286 35.1394 133.299 34.9962L128.06 34.2351L125.718 29.4886C124.835 27.7004 121.901 27.7004 121.019 29.4886L118.677 34.2351L113.438 34.9962C112.45 35.1394 111.63 35.8314 111.322 36.7791C111.014 37.7269 111.271 38.7681 111.985 39.4639L115.777 43.1603ZM120.792 39.2221C121.647 39.0981 122.383 38.5622 122.766 37.7883L123.368 36.5668L123.971 37.7883C124.353 38.5622 125.09 39.0981 125.944 39.2221L127.294 39.4178L126.317 40.3707C125.7 40.9719 125.419 41.8391 125.563 42.6884L125.793 44.0314L124.587 43.397C124.206 43.1962 123.787 43.0964 123.368 43.0964C122.95 43.0964 122.531 43.1961 122.149 43.397L120.943 44.0314L121.173 42.6884C121.318 41.8391 121.037 40.9719 120.42 40.3707L119.443 39.4178L120.792 39.2221Z" fill="#FEB402"/>
<path d="M3.71133 46.7376C3.57747 47.4927 3.86335 48.2627 4.45231 48.7276C5.04031 49.1926 5.831 49.2731 6.4955 48.9353L10.4777 46.9164L14.4598 48.9353C14.7323 49.0744 15.0258 49.1419 15.3184 49.1419C15.7381 49.1419 16.1559 49.0018 16.503 48.7276C17.092 48.2627 17.3778 47.4927 17.244 46.7376L16.5183 42.6552L19.6237 39.7353C20.1888 39.2037 20.4058 38.3801 20.1802 37.623C19.9545 36.867 19.3273 36.3156 18.572 36.2093L14.1548 35.5903L12.2063 31.7822C11.5275 30.4528 9.42785 30.4528 8.74904 31.7822L6.8005 35.5903L2.38331 36.2093C1.62799 36.3156 1.0008 36.867 0.775145 37.623C0.549514 38.3801 0.766549 39.2037 1.3316 39.7353L4.43702 42.6552L3.71133 46.7376ZM8.31974 39.4839C8.94504 39.3955 9.49096 39.0011 9.78639 38.4219L10.4777 37.0717L11.1689 38.4218C11.4644 39.0011 12.0103 39.3955 12.6356 39.4839L13.8699 39.6568L13.0802 40.3989C12.5763 40.8728 12.3449 41.5842 12.4683 42.2777L12.6872 43.5087L11.3362 42.8241C11.0657 42.686 10.7712 42.6175 10.4777 42.6175C10.1841 42.6175 9.88966 42.686 9.61907 42.8241L8.26811 43.5087L8.48706 42.2777C8.6104 41.5842 8.37901 40.8729 7.87516 40.399L7.08542 39.6568L8.31974 39.4839Z" fill="#FEB402"/>
<path d="M7.77015 93.424L13.0974 90.8249L18.4246 93.424C18.7892 93.6031 19.1818 93.69 19.5732 93.69C20.1348 93.69 20.6937 93.5097 21.158 93.1567C21.9459 92.5581 22.3283 91.5668 22.1493 90.5947L21.1785 85.3391L25.3328 81.58C26.0887 80.8957 26.3791 79.8353 26.0772 78.8607C25.7754 77.8873 24.9363 77.1774 23.9259 77.0406L18.0166 76.2437L15.4099 71.3411C14.5018 69.6298 11.693 69.6298 10.7849 71.3411L8.17817 76.2437L2.26894 77.0406C1.2585 77.1775 0.419448 77.8873 0.117577 78.8607C-0.184268 79.8353 0.106076 80.8957 0.861985 81.58L5.01635 85.3391L4.04554 90.5947C3.86647 91.5668 4.24892 92.5581 5.03681 93.1567C5.82342 93.754 6.87991 93.8588 7.77015 93.424ZM10.2106 81.2564C11.0471 81.1425 11.7774 80.6348 12.1726 79.8891L13.0974 78.1508L14.0222 79.889C14.4174 80.6347 15.1477 81.1425 15.9842 81.2563L17.6355 81.4789L16.579 82.4344C15.9049 83.0445 15.5954 83.9603 15.7604 84.853L16.0533 86.4378L14.246 85.5565C13.884 85.3787 13.4901 85.2905 13.0974 85.2905C12.7047 85.2905 12.3108 85.3787 11.9488 85.5565L10.1415 86.4378L10.4344 84.8531C10.5994 83.9603 10.2899 83.0445 9.61583 82.4344L8.55933 81.4789L10.2106 81.2564Z" fill="#FEB402"/>
<path d="M134.377 81.8052C134.213 81.2761 133.776 80.8902 133.25 80.8104L129.445 80.232L127.743 76.6233C127.273 75.6262 125.709 75.6262 125.239 76.6233L123.537 80.232L119.732 80.8104C119.206 80.8902 118.769 81.2761 118.605 81.8052C118.44 82.333 118.577 82.9135 118.958 83.3015L121.712 86.1114L121.062 90.0767C120.973 90.6244 121.187 91.1779 121.617 91.5045C122.049 91.8326 122.617 91.8768 123.087 91.6158L126.491 89.7444L129.895 91.6158C130.099 91.7285 130.322 91.7841 130.544 91.7841C130.833 91.7841 131.122 91.69 131.365 91.5045C131.795 91.1779 132.01 90.6244 131.92 90.0767L131.27 86.1114L134.024 83.3015C134.405 82.9135 134.542 82.333 134.377 81.8052ZM128.796 84.5553C128.467 84.8905 128.316 85.374 128.394 85.8476L128.69 87.6533L127.141 86.8018C126.938 86.6891 126.714 86.6335 126.491 86.6335C126.268 86.6335 126.045 86.6891 125.842 86.8018L124.292 87.6533L124.588 85.8475C124.666 85.374 124.515 84.8905 124.186 84.5553L122.932 83.2758L124.665 83.0119C125.12 82.9435 125.512 82.644 125.716 82.2132L126.491 80.57L127.266 82.2132C127.47 82.6439 127.862 82.9435 128.318 83.012L130.05 83.2758L128.796 84.5553Z" fill="#FEB402"/>
<path d="M69.7333 65.1855C69.4376 65.156 69.0827 65.156 68.7574 65.1855C61.7198 64.949 56.1311 59.1828 56.1311 52.0861C56.1311 44.8414 61.9859 38.957 69.2601 38.957C76.5048 38.957 82.3892 44.8414 82.3892 52.0861C82.3596 59.1828 76.7709 64.949 69.7333 65.1855Z" stroke="#0B409C" stroke-width="4" stroke-linecap="round" stroke-linejoin="round"/>
<path d="M91.171 44.8711C96.9076 44.8711 101.52 49.5136 101.52 55.2206C101.52 60.8093 97.085 65.363 91.5554 65.57C91.3189 65.5404 91.0528 65.5404 90.7866 65.57" stroke="#0B409C" stroke-width="4" stroke-linecap="round" stroke-linejoin="round"/>
<path d="M46.6085 44.8711C40.872 44.8711 36.259 49.5136 36.259 55.2206C36.259 60.8093 40.6945 65.363 46.2241 65.57C46.4607 65.5404 46.7268 65.5404 46.9929 65.57" stroke="#0B409C" stroke-width="4" stroke-linecap="round" stroke-linejoin="round"/>
<path d="M54.9492 76.097C47.7933 80.8874 47.7933 88.6938 54.9492 93.4546C63.0809 98.8954 76.417 98.8954 84.5487 93.4546C91.7046 88.6642 91.7046 80.8578 84.5487 76.097C76.4465 70.6858 63.1105 70.6858 54.9492 76.097Z" stroke="#0B409C" stroke-width="4" stroke-linecap="round" stroke-linejoin="round"/>
<path d="M96.8774 92.1824C99.0065 91.7388 101.017 90.8813 102.673 89.6098C107.286 86.1501 107.286 80.4431 102.673 76.9834C101.047 75.7415 99.0656 74.9135 96.9662 74.4404" stroke="#0B409C" stroke-width="4" stroke-linecap="round" stroke-linejoin="round"/>
<path d="M40.9016 92.1824C38.7726 91.7388 36.7618 90.8813 35.1059 89.6098C30.493 86.1501 30.493 80.4431 35.1059 76.9834C36.7323 75.7415 38.7134 74.9135 40.8129 74.4404" stroke="#0B409C" stroke-width="4" stroke-linecap="round" stroke-linejoin="round"/>
</svg>
