<svg width="108" height="108" viewBox="0 0 108 108" fill="none" xmlns="http://www.w3.org/2000/svg">
<path d="M84.2456 25.9231C85.4363 25.9231 86.4055 26.8923 86.4055 28.083C86.4055 29.2758 87.3726 30.2429 88.5654 30.2429C89.7582 30.2429 90.7253 29.2758 90.7253 28.083C90.7253 25.2709 88.9142 22.8957 86.4055 22.0013V21.6033C86.4055 20.4105 85.4384 19.4434 84.2456 19.4434C83.0528 19.4434 82.0857 20.4105 82.0857 21.6033V22.0013C79.577 22.8957 77.7659 25.2709 77.7659 28.083C77.7659 31.6561 80.6725 34.5627 84.2456 34.5627C85.4363 34.5627 86.4055 35.5319 86.4055 36.7226C86.4055 37.9133 85.4363 38.8825 84.2456 38.8825C83.0549 38.8825 82.0857 37.9133 82.0857 36.7226C82.0857 35.5298 81.1186 34.5627 79.9258 34.5627C78.733 34.5627 77.7659 35.5298 77.7659 36.7226C77.7659 39.5347 79.577 41.9098 82.0857 42.8042V43.2024C82.0857 44.3952 83.0528 45.3623 84.2456 45.3623C85.4384 45.3623 86.4055 44.3952 86.4055 43.2024V42.8043C88.9142 41.9099 90.7253 39.5347 90.7253 36.7226C90.7253 33.1495 87.8187 30.2429 84.2456 30.2429C83.0549 30.2429 82.0857 29.2737 82.0857 28.083C82.0857 26.8923 83.0549 25.9231 84.2456 25.9231Z" fill="#FEB402"/>
<path d="M70.8799 77.925C71.2661 77.3801 71.4073 76.6617 71.1647 75.9682L67.1728 64.5675C65.2439 59.8469 63.4478 54.6075 61.5242 48.0877C60.6098 44.9322 59.1607 41.938 57.217 39.1907C56.5273 38.2173 55.1794 37.9874 54.206 38.675C53.2326 39.3637 53.0016 40.7115 53.6903 41.686C55.3556 44.0389 56.5948 46.5975 57.3784 49.3005C59.3463 55.9722 61.1888 61.3435 63.1346 66.0978L66.0823 74.5212H55.7996C54.7576 74.5212 53.8643 75.2648 53.6755 76.2888L51.3205 89.0384C51.1887 89.7671 50.7679 90.3947 50.1361 90.8049C49.4896 91.2247 48.7197 91.3575 47.9752 91.1709C47.9752 91.1709 39.7651 89.1665 39.7458 89.1618C38.492 88.8557 37.2343 89.7379 37.0881 91.0127L35.6232 103.68H6.35369L10.4552 78.724C10.9045 76.0526 10.2706 73.2715 8.67602 70.9059C5.53109 66.178 4.04086 60.6738 4.3678 54.9977C4.62198 50.8245 5.87488 46.8886 8.08963 43.3006C8.71609 42.285 8.40074 40.9541 7.38619 40.3276C6.36952 39.7001 5.0396 40.0154 4.41316 41.0311C1.85672 45.1737 0.350676 49.9122 0.0553737 54.7414C-0.325353 61.3677 1.41164 67.7842 5.08602 73.3084C6.06683 74.7628 6.46021 76.4312 6.1934 78.0153L1.67846 105.49C1.46521 106.794 2.48605 108 3.8099 108H37.5479C38.6447 108 39.5676 107.177 39.6931 106.088L41.0978 93.9393L46.9501 95.3684C48.8431 95.8282 50.8575 95.4854 52.489 94.4276C54.1058 93.3783 55.229 91.695 55.5696 89.8167L57.5967 78.8411C57.5967 78.8411 69.0878 78.8411 69.1259 78.8411C69.863 78.8411 70.4938 78.4697 70.8799 77.925Z" fill="#0B409C"/>
<path d="M54.0068 23.7629C54.0068 10.6522 43.3584 0.00390625 30.2478 0.00390625C17.1371 0.00390625 6.48877 10.6522 6.48877 23.7629C6.48877 32.7264 11.5214 40.8693 19.4482 44.9084V47.9107C16.9428 48.8178 15.1284 51.1938 15.1284 54.0016C15.1284 57.5654 18.0442 60.4813 21.6081 60.4813V66.9611C21.6081 68.149 22.5801 69.121 23.768 69.121H36.7275C37.9154 69.121 38.8874 68.149 38.8874 66.9611V60.4813C42.4513 60.4813 45.3671 57.5654 45.3671 54.0016C45.3671 51.1938 43.5527 48.8178 41.0473 47.9107V44.9084C48.9741 40.8693 54.0068 32.7264 54.0068 23.7629ZM34.5676 64.8012H25.9279V60.4813H34.5676V64.8012ZM38.8874 56.1615H21.6081C20.4202 56.1615 19.4482 55.1895 19.4482 54.0016C19.4482 52.8137 20.4202 51.8417 21.6081 51.8417H38.8874C40.0753 51.8417 41.0473 52.8137 41.0473 54.0016C41.0473 55.1895 40.0753 56.1615 38.8874 56.1615ZM38.0234 41.5821C37.2458 41.9277 36.7275 42.6837 36.7275 43.5476V47.5219H32.4077V35.9016L39.8594 32.165C40.5937 31.8193 41.0473 31.0634 41.0473 30.2426V17.2832C41.0473 16.0952 40.0753 15.1233 38.8874 15.1233C37.6995 15.1233 36.7275 16.0952 36.7275 17.2832V28.9035L30.2478 32.1433L23.768 28.9035V17.2832C23.768 16.0952 22.7961 15.1233 21.6081 15.1233C20.4202 15.1233 19.4482 16.0952 19.4482 17.2832V30.2426C19.4482 31.0634 19.9018 31.8193 20.6361 32.165L28.0879 35.9016V47.5219H23.768V43.5476C23.768 42.6837 23.2497 41.9277 22.4721 41.5821C15.3876 38.4719 10.8086 31.4738 10.8086 23.7629C10.8086 13.0497 19.5346 4.32372 30.2478 4.32372C40.9609 4.32372 49.6869 13.0497 49.6869 23.7629C49.6869 31.4738 45.1079 38.4719 38.0234 41.5821Z" fill="#0B409C"/>
<path d="M106.06 25.9339C105.057 25.8337 104.227 25.2178 103.841 24.2865C103.456 23.3552 103.607 22.3333 104.245 21.5529C104.947 20.6944 104.885 19.4425 104.101 18.6579L97.991 12.5483C97.2042 11.7626 95.9524 11.7015 95.096 12.4039C94.3156 13.044 93.2936 13.1917 92.3624 12.8078C91.4311 12.4218 90.8152 11.5918 90.715 10.5888C90.6042 9.48459 89.6751 8.64404 88.5656 8.64404H79.926C78.8165 8.64404 77.8874 9.48459 77.7766 10.5888C77.6764 11.5918 77.0605 12.4218 76.1293 12.8078C75.1991 13.1916 74.1761 13.044 73.3956 12.4038C72.5382 11.7025 71.2864 11.7626 70.5006 12.5483L64.3911 18.6579C63.6065 19.4425 63.5442 20.6944 64.2466 21.5529C64.8847 22.3333 65.0355 23.3552 64.6506 24.2865C64.2646 25.2177 63.4345 25.8337 62.4316 25.9339C61.3274 26.0446 60.4868 26.9737 60.4868 28.0832V36.7229C60.4868 37.8323 61.3274 38.7615 62.4316 38.8722C63.4346 38.9724 64.2645 39.5883 64.6505 40.5196C65.0355 41.4508 64.8847 42.4728 64.2466 43.2532C63.5442 44.1117 63.6064 45.3635 64.3911 46.1482L70.5006 52.2577C71.2874 53.0434 72.5371 53.1046 73.3956 52.4022C74.1761 51.7631 75.199 51.6154 76.1292 51.9983C77.0605 52.3843 77.6764 53.2143 77.7766 54.2172C77.8874 55.3215 78.8165 56.162 79.926 56.162H88.5656C89.6751 56.162 90.6043 55.3215 90.715 54.2173C90.8152 53.2143 91.4311 52.3843 92.3624 51.9983C93.2936 51.6155 94.3156 51.7631 95.096 52.4022C95.9534 53.1057 97.2063 53.0456 97.991 52.2578L104.101 46.1482C104.885 45.3636 104.947 44.1117 104.245 43.2532C103.607 42.4728 103.456 41.4508 103.841 40.5196C104.227 39.5884 105.057 38.9724 106.06 38.8722C107.164 38.7615 108.005 37.8323 108.005 36.7229V28.0832C108.005 26.9737 107.164 26.0446 106.06 25.9339ZM103.685 35.0544C101.973 35.7505 100.58 37.1057 99.8503 38.8669C99.1215 40.6271 99.1479 42.5708 99.8661 44.273L96.1158 48.0234C94.4136 47.303 92.4667 47.2788 90.7097 48.0076C88.9485 48.7373 87.5932 50.1305 86.8972 51.8422H81.5944C80.8984 50.1305 79.5431 48.7373 77.7819 48.0075C76.0217 47.2767 74.0769 47.3051 72.3758 48.0233L68.6255 44.273C69.3437 42.5708 69.3701 40.6271 68.6413 38.8669C67.9115 37.1057 66.5183 35.7505 64.8066 35.0544V29.7517C66.5183 29.0556 67.9115 27.7004 68.6413 25.9391C69.3701 24.1789 69.3437 22.2352 68.6255 20.533L72.3758 16.7827C74.077 17.502 76.0217 17.5241 77.7819 16.7985C79.5432 16.0687 80.8984 14.6755 81.5944 12.9639H86.8972C87.5933 14.6755 88.9485 16.0687 90.7097 16.7985C92.4668 17.5262 94.4136 17.4978 96.1158 16.7827L99.8661 20.533C99.1479 22.2352 99.1216 24.1789 99.8503 25.9391C100.58 27.7004 101.973 29.0556 103.685 29.7517V35.0544Z" fill="#FEB402"/>
<path d="M71.2864 82.0806H62.6467C61.4539 82.0806 60.4868 83.0477 60.4868 84.2405V105.84C60.4868 107.032 61.4539 107.999 62.6467 107.999H71.2864C72.4792 107.999 73.4463 107.032 73.4463 105.84V84.2405C73.4463 83.0477 72.4792 82.0806 71.2864 82.0806ZM69.1264 103.68H64.8066V86.4004H69.1264V103.68Z" fill="#0B409C"/>
<path d="M88.5654 90.7207H79.9258C78.733 90.7207 77.7659 91.6878 77.7659 92.8806V105.84C77.7659 107.033 78.733 108 79.9258 108H88.5654C89.7582 108 90.7253 107.033 90.7253 105.84V92.8806C90.7253 91.6878 89.7582 90.7207 88.5654 90.7207ZM86.4055 103.68H82.0857V95.0405H86.4055V103.68Z" fill="#0B409C"/>
<path d="M105.845 64.8013H97.2058C96.013 64.8013 95.0459 65.7684 95.0459 66.9612V105.84C95.0459 107.032 96.013 107.999 97.2058 107.999H105.845C107.038 107.999 108.005 107.032 108.005 105.84V66.9612C108.005 65.7684 107.038 64.8013 105.845 64.8013ZM103.686 103.68H99.3657V69.1211H103.686V103.68Z" fill="#0B409C"/>
</svg>
