<svg width="172" height="246" viewBox="0 0 172 246" fill="none" xmlns="http://www.w3.org/2000/svg">
<g clip-path="url(#clip0_2111_5053)">
<path d="M53.4032 137.215C50.5988 134.4 47.8013 131.832 45.0941 129.227C44.9741 127.285 44.6448 125.405 44.0709 123.619C42.8225 119.738 39.0727 118.272 35.8681 119.14C35.053 118.063 34.2584 116.948 33.4959 115.768C32.6465 114.453 30.3097 114.88 30.3874 116.607C30.4926 118.956 30.8184 121.177 31.3249 123.326C31.2872 123.426 31.2357 123.515 31.2014 123.619C29.7278 128.058 29.9919 132.787 28.7423 137.327C27.5465 141.672 25.8224 145.76 23.5337 149.644C18.9973 157.342 12.5265 162.324 6.63652 168.669C6.40329 168.794 6.15978 168.918 5.93799 169.04C5.32293 169.379 5.02911 170.059 5.05884 170.719C4.69529 171.935 5.48412 173.28 6.9429 173.345C7.91238 173.389 8.88528 173.342 9.85704 173.253C11.4679 173.579 13.0078 173.876 13.5303 174.265C15.2349 175.534 16.2169 179.463 18.0895 181.185C22.0452 184.822 27.758 186.789 32.2841 183.007C33.5908 181.914 34.8049 180.689 35.9893 179.416C38.102 178.703 39.9164 177.068 40.7235 174.295C40.7384 174.245 40.7498 174.194 40.7647 174.142C41.9353 172.885 43.1426 171.664 44.4505 170.555C46.6272 168.708 48.7742 166.825 50.6514 164.749C54.8357 166.297 60.2272 164.949 61.1521 159.728C62.7024 150.991 59.6442 143.478 53.4032 137.215ZM43.7588 150.558C43.6925 149.4 43.5919 148.244 43.4501 147.095C43.8446 147.958 44.1921 148.84 44.4928 149.744C44.2447 150.02 44.0046 150.285 43.7588 150.558Z" fill="#E0DFE6"/>
<path d="M114.035 52.4378C114.648 52.3968 115.251 52.2419 115.779 51.9344C117.612 50.8662 118.433 48.2379 117.237 46.3931L112.857 39.6332C110.612 36.1713 105.783 38.3487 105.997 41.7411C103.669 39.9384 100.285 39.5045 97.5233 42.1317C84.4366 54.5798 68.0082 61.0128 49.7151 58.3378C47.9408 58.0782 46.3243 60.6997 48.349 61.5652C65.1901 68.7634 85.2117 67.1088 100.261 56.7504C102.626 60.2419 106.65 62.8224 110.299 64.3552C113.883 65.8607 117.788 62.4044 118.237 59.0883C118.686 55.7585 116.782 53.4615 114.035 52.4378ZM110.504 51.4436C110.445 51.4117 110.369 51.3696 110.261 51.3115C109.85 51.0928 109.439 50.8788 109.043 50.6328C108.982 50.5952 108.609 50.3492 108.462 50.257C108.378 50.1795 108.167 49.9996 107.985 49.8425C108.399 49.1205 108.633 48.3757 108.718 47.6355C109.218 48.5841 109.716 49.5327 110.216 50.4813C110.459 50.9437 110.803 51.324 111.205 51.6281C111.03 51.5746 110.852 51.5256 110.676 51.4721C110.543 51.4322 110.504 51.4311 110.504 51.4436Z" fill="#E0DFE6"/>
<path d="M103.254 25.6592C98.7501 25.1217 95.5856 28.6223 92.4233 31.2347C79.9974 41.502 65.9218 49.5123 49.2281 48.1435C47.2983 47.9852 47.0434 50.88 48.7846 51.4072C58.3318 54.2963 67.5726 53.5527 76.9107 50.1033C81.4779 48.4156 85.8623 46.2018 90.0317 43.7045C92.1444 42.4393 95.6622 39.1015 98.6952 37.0596C102.382 40.3279 109.519 40.8279 109.643 33.124C109.706 29.1781 107.231 26.1329 103.254 25.6592Z" fill="#E0DFE6"/>
<path d="M104.442 198.664C89.1273 200.091 72.9413 199.393 58.1111 203.926C56.6226 204.382 56.5254 206.621 58.1111 207.031C73.0819 210.905 89.1216 209.535 104.442 210.296C112.036 210.674 111.878 197.972 104.442 198.664Z" fill="#E0DFE6"/>
<path d="M167.558 157.387C164.427 143.994 165.353 131.562 166.658 118.047C167.793 106.285 168.893 94.8599 165.665 83.3308C165.186 81.6181 162.415 81.9062 162.49 83.759C162.996 96.042 159.135 107.579 156.013 119.249C156.711 114.429 157.421 109.64 158.008 104.915C160.606 83.9776 161.721 55.6036 146.512 38.6835C145.355 37.3966 143.346 38.7677 143.724 40.3005C147.043 53.761 149.361 65.6659 148.494 79.6525C147.709 92.2965 145.321 104.745 143.258 117.227C140.754 132.373 138.813 147.564 139.975 162.499C139.788 160.842 139.605 159.189 139.391 157.556C139.081 155.186 135.62 154.029 134.64 156.369C129.956 152.987 121.382 155.558 121.725 162.611C121.769 163.516 121.832 164.419 121.893 165.322C121.402 164.655 120.896 164.001 120.42 163.324C121.251 162.19 121.715 160.836 121.538 159.403C121.153 156.282 120.217 153.751 117.324 152.102C116.569 151.671 115.813 151.417 115.022 151.206C114.994 150.834 114.966 150.46 114.902 150.084C114.468 147.537 113.285 145.295 110.975 143.96C111.269 142.912 111.517 141.853 111.652 140.769C111.964 138.25 108.729 136.338 106.541 137.307C106.351 134.429 103.927 131.648 100.64 132.915C93.4911 135.667 85.1671 140.196 80.218 146.157C79.3663 147.182 79.8613 148.918 81.3612 148.905C81.822 148.9 82.2941 148.859 82.7629 148.831C82.5639 149.34 82.5445 149.903 82.82 150.544C82.9995 150.963 83.2648 151.289 83.5769 151.565C83.4099 155.495 85.9239 159.77 88.6014 162.34C92.2975 165.89 96.667 168.327 101.36 170.286C104.478 171.588 108.242 168.883 109.055 165.934C109.202 165.406 109.252 164.889 109.259 164.381C109.323 164.398 109.389 164.418 109.464 164.441C110.696 165.712 112.38 166.516 114.396 166.516C115.38 166.516 116.41 166.249 117.376 165.792C118.917 170.939 121.049 175.799 123.728 180.427C124.44 184.478 125.318 188.502 126.376 192.498C126.714 193.771 127.26 194.814 127.951 195.647C127.879 195.892 127.811 196.143 127.771 196.411C126.901 202.141 127.365 207.729 127.56 213.519C127.776 219.962 129.978 227.438 122.132 229.289C116.494 230.621 109.894 230.069 104.102 230.419C97.8068 230.799 91.511 231.18 85.2163 231.56C78.9056 231.942 72.6326 232.598 66.331 233.059C63.9211 233.235 60.92 233.862 58.605 233.076C56.1116 232.23 54.4161 229.827 52.3206 228.404C43.8617 222.663 38.4964 230.509 30.5212 232.323C28.1867 232.854 27.4447 236.693 29.8112 237.733C35.0118 240.019 37.7339 236.891 42.7733 237.162C46.7369 237.376 48.7651 241.391 51.8953 243.163C53.641 244.152 55.6817 244.761 57.6343 245.187C64.4012 246.66 72.0712 245.73 78.9204 245.456C86.7917 245.14 94.6595 244.636 102.527 244.227C113.231 243.67 130.141 245.821 137.977 236.641C142.165 231.735 142.022 225.76 141.902 219.654C141.832 216.098 141.894 212.463 141.829 208.837C143.47 209.093 145.337 208.877 147.365 207.987C156.288 204.072 165.488 199.083 169.792 189.89C174.808 179.182 170.054 168.065 167.558 157.387ZM100.096 144.844C99.8509 144.616 99.5949 144.398 99.3216 144.201C99.8384 143.962 100.359 143.726 100.859 143.478C100.589 143.922 100.351 144.388 100.096 144.844ZM142.358 191.864C142.431 191.476 142.472 191.072 142.481 190.655C143.74 189.755 144.727 188.45 145.198 186.945C145.577 187.971 145.949 188.998 146.374 190.019C145.109 190.665 143.75 191.271 142.358 191.864ZM153.06 152.2C154.043 159.039 155.703 165.772 156.607 172.636C156.77 173.87 156.809 175.007 156.772 176.084C154.185 168.311 153.166 160.303 153.06 152.2Z" fill="#E0DFE6"/>
<path d="M128.702 197.289C127.572 197.289 126.552 196.512 126.294 195.368C125.997 194.043 126.833 192.727 128.164 192.431C137.506 190.346 146.099 187.172 153.741 182.986C150.082 174.583 148.301 165.337 148.301 154.804C148.301 140.45 151.527 126.228 154.375 113.68C156.776 103.106 159.041 93.1188 159.041 84.6963C159.041 59.9447 147.047 8.83586 109.973 8.83586C105.327 8.83586 100.69 9.59202 96.1916 11.0804C95.5228 11.3025 94.7922 11.2285 94.1829 10.8788C87.3692 6.9785 79.259 4.91729 70.7292 4.91729C32.6992 4.91729 6.19651 39.2734 6.19651 70.1061C6.19651 76.768 7.62557 83.9037 9.28098 92.1667C11.6178 103.835 14.2655 117.058 14.2655 134.431C14.2655 145.915 10.9821 159.196 5.43511 170.302C12.5495 178.067 20.8883 183.626 29.6376 186.421C30.9363 186.835 31.6509 188.219 31.2347 189.513C30.8186 190.805 29.4318 191.518 28.1297 191.102C18.0634 187.888 8.54702 181.384 0.604902 172.295C-0.0638959 171.53 -0.190796 170.435 0.28365 169.536C4.65427 161.254 9.32786 147.682 9.32786 134.429C9.32786 117.542 6.73155 104.572 4.4382 93.1279C2.73362 84.6086 1.25998 77.252 1.25998 70.105C1.25998 51.3514 8.93344 33.6057 22.8662 20.1372C36.1061 7.34063 53.5508 0 70.7292 0C79.7266 0 88.3272 2.09993 95.6805 6.07999C100.354 4.64512 105.157 3.91857 109.973 3.91857C127.8 3.91857 142.451 14.3362 152.34 34.0452C160.921 51.143 163.978 71.4203 163.978 84.6951C163.978 93.6676 161.653 103.914 159.191 114.763C156.263 127.66 153.237 140.998 153.237 154.801C153.237 165.464 155.172 174.671 159.151 182.949C159.706 184.102 159.279 185.487 158.173 186.133C149.614 191.119 139.882 194.852 129.244 197.227C129.062 197.269 128.88 197.289 128.702 197.289Z" fill="#525D7D"/>
<path d="M131.159 97.0601C127.244 97.0601 121.147 93.646 119.296 90.4198C118.622 89.2412 119.032 87.738 120.216 87.0649C121.397 86.3931 122.907 86.7996 123.584 87.9794C124.566 89.691 129.024 92.1417 131.159 92.1417C139.526 92.1417 139.95 83.0006 139.95 81.1683C139.95 76.5596 137.824 75.5506 137.004 75.5506C136.422 75.5506 135.656 75.8023 134.845 76.0688C133.758 76.4241 132.527 76.8272 131.169 76.8272C123.594 76.8272 110.279 58.987 106.891 38.556C91.6848 55.7505 76.5711 59.2785 56.346 59.2785C44.4562 59.2785 34.6129 56.8905 26.2523 51.9789C25.0782 51.2888 24.6872 49.7821 25.38 48.6115C26.0728 47.4419 27.5899 47.0559 28.7595 47.7426C36.3392 52.1952 45.364 54.3601 56.346 54.3601C77.185 54.3601 91.3864 50.6442 106.729 31.0422C107.359 30.2382 108.424 29.9034 109.399 30.2041C110.378 30.5036 111.071 31.3748 111.138 32.3928C112.639 55.098 127.529 71.9099 131.171 71.9099C131.738 71.9099 132.499 71.6605 133.302 71.3963C134.395 71.0388 135.635 70.6334 137.006 70.6334C139.733 70.6334 144.889 72.8358 144.889 81.1683C144.887 89.0783 140.642 97.0601 131.159 97.0601Z" fill="#525D7D"/>
<path d="M25.8968 66.8867C22.7712 66.8867 19.5255 66.2513 16.5108 65.0498C15.2463 64.5454 14.6301 63.115 15.1366 61.8544C15.643 60.5938 17.0824 59.9822 18.3457 60.4856C23.5623 62.5661 29.562 62.4227 33.3679 59.9834C34.5123 59.2523 36.0408 59.578 36.7793 60.7213C37.5167 61.8635 37.1841 63.3849 36.0385 64.1195C33.2113 65.929 29.7038 66.8867 25.8968 66.8867Z" fill="#525D7D"/>
<path d="M24.4254 76.1474C20.6744 76.1474 16.9748 75.4971 13.3976 74.8674C12.0555 74.6317 11.1592 73.3562 11.3958 72.0193C11.6336 70.6823 12.922 69.7907 14.2562 70.0253C17.7808 70.6448 21.1088 71.2301 24.4254 71.2301C26.9839 71.2301 29.2521 70.8702 31.3614 70.1278C32.6453 69.6768 34.0583 70.3475 34.5099 71.6275C34.9649 72.9087 34.2893 74.3128 33.0043 74.7649C30.3588 75.6953 27.5533 76.1474 24.4254 76.1474Z" fill="#525D7D"/>
<path d="M26.2375 214.835C24.8747 214.835 23.7692 213.735 23.7692 212.376C23.7692 210.947 23.7384 209.488 23.7086 208.015C23.6778 206.477 23.6458 204.924 23.6458 203.373C23.6458 181.387 37.3795 173.474 48.4164 167.116C56.2499 162.602 61.0516 159.558 61.0516 154.093C61.0516 145.654 55.5926 140.788 48.6805 134.626C39.3665 126.322 27.774 115.988 27.774 92.8113C27.774 88.1992 28.4634 83.636 29.825 79.2494C30.2286 77.9535 31.613 77.2304 32.914 77.6267C34.2162 78.0275 34.9456 79.4043 34.5432 80.7014C33.3267 84.6177 32.7117 88.6923 32.7117 92.8113C32.7117 113.789 42.9449 122.912 51.9742 130.962C59.1812 137.387 65.9892 143.457 65.9892 154.092C65.9892 162.669 58.653 166.896 50.8881 171.371C40.432 177.396 28.5811 184.224 28.5811 203.373C28.5811 204.891 28.6131 206.41 28.644 207.913C28.6749 209.421 28.7046 210.914 28.7046 212.376C28.7058 213.734 27.6002 214.835 26.2375 214.835Z" fill="#525D7D"/>
<path d="M115.692 159.927C114.795 159.927 113.96 159.441 113.524 158.645C113.045 157.768 113.145 156.688 113.78 155.915C116.697 152.351 118.894 147.884 120.556 142.079C117.232 143.399 113.745 144.441 110.138 145.192C109.055 145.418 107.96 144.899 107.448 143.927C106.936 142.953 107.133 141.76 107.933 141.003C118.241 131.251 124.153 116.814 124.153 101.392C124.153 98.8992 123.991 96.3836 123.673 93.9136C123.498 92.5675 124.452 91.3354 125.805 91.1611C127.155 90.9846 128.396 91.9401 128.567 93.2861C128.915 95.9623 129.089 98.6897 129.089 101.392C129.089 115.043 124.798 128.013 117.109 138.123C119.158 137.382 121.143 136.532 123.053 135.573C123.901 135.147 124.918 135.243 125.671 135.822C126.423 136.4 126.776 137.356 126.578 138.281C125.216 144.65 123.396 149.806 120.969 154.088C126.407 152.866 131.958 150.735 137.54 147.722C138.741 147.073 140.237 147.519 140.888 148.713C141.537 149.908 141.09 151.4 139.893 152.046C131.832 156.396 123.781 159.042 115.964 159.911C115.874 159.921 115.781 159.927 115.692 159.927Z" fill="#525D7D"/>
<path d="M68.4141 236.814C67.1028 236.814 66.0144 235.788 65.9504 234.477C65.8052 231.564 65.7949 228.643 65.7949 226.135L65.796 223.425C65.796 218.138 65.7274 212.988 64.8894 208.054C64.774 207.382 64.9455 206.692 65.3616 206.151C65.7778 205.609 66.4008 205.264 67.0822 205.198C69.6088 204.952 72.2931 204.833 75.2941 204.833C78.4426 204.833 81.2527 204.952 83.7335 205.057C85.5056 205.133 87.0581 205.199 88.3362 205.199C90.896 205.199 93.5369 205.046 96.0897 204.897C98.7135 204.744 101.426 204.586 104.131 204.586C107.1 204.586 109.717 204.78 112.129 205.181C113.473 205.404 114.383 206.672 114.158 208.01C113.935 209.349 112.667 210.256 111.317 210.031C109.178 209.676 106.827 209.503 104.131 209.503C101.572 209.503 98.9307 209.657 96.3778 209.806C93.7541 209.958 91.0412 210.117 88.3362 210.117C87.0009 210.117 85.3775 210.048 83.5232 209.97C81.0915 209.866 78.3363 209.75 75.2941 209.75C73.4604 209.75 71.7558 209.797 70.1404 209.891C70.68 214.337 70.7314 218.838 70.7314 223.425L70.7303 226.135C70.7303 227.89 70.7371 229.85 70.7897 231.852C73.9325 231.799 77.0902 231.781 80.2547 231.763C93.4854 231.684 107.165 231.603 120.041 228.984C122.533 228.476 128.332 226.844 128.332 222.663C128.332 221.35 128.344 220.038 128.357 218.719C128.372 217.408 128.384 216.093 128.384 214.77C128.384 199.414 125.029 179.172 109.044 169.937C107.434 169.006 105.944 168.24 104.503 167.499C98.7809 164.555 93.8375 162.012 93.8375 153.799C93.8375 135.555 109.628 127.616 121.158 121.82C122.374 121.208 123.859 121.694 124.473 122.906C125.087 124.118 124.599 125.597 123.382 126.208C109.92 132.977 98.7741 139.726 98.7741 153.798C98.7741 159.016 101.114 160.22 106.769 163.128C108.192 163.86 109.808 164.692 111.522 165.682C125.783 173.921 133.321 190.895 133.321 214.769C133.321 216.109 133.308 217.44 133.293 218.767C133.281 220.069 133.268 221.365 133.268 222.66C133.268 228.156 128.807 232.217 121.03 233.8C107.679 236.516 93.7529 236.598 80.2855 236.678C76.331 236.703 72.388 236.726 68.4141 236.814Z" fill="#525D7D"/>
<path d="M15.9379 237.948C7.32814 237.948 6.39868 233.329 6.39868 231.343C6.39868 226.688 11.9011 224.089 18.2713 221.078C21.3649 219.615 24.5625 218.104 27.1451 216.354C29.6306 214.666 31.1351 213.297 32.4612 212.089C36.4706 208.438 38.5947 206.957 51.0893 206.957C52.2508 206.957 53.4112 206.969 54.5704 206.981C55.708 206.992 56.8443 207.003 57.9807 207.003C60.6822 207.003 63.8753 206.945 67.0764 206.509C68.4323 206.321 69.6715 207.269 69.8568 208.614C70.042 209.958 69.0954 211.199 67.7452 211.382C64.2503 211.857 60.848 211.921 57.9807 211.921C56.8283 211.921 55.6748 211.908 54.519 211.897C53.378 211.885 52.2359 211.874 51.0893 211.874C40.0135 211.874 38.9503 212.842 35.7926 215.718C34.415 216.973 32.7025 218.534 29.9221 220.419C27.0251 222.385 23.6514 223.979 20.3874 225.521C16.7828 227.225 11.3352 229.798 11.3352 231.343C11.3352 232.908 14.8575 233.03 15.9379 233.03C22.7722 233.03 45.0746 222.448 47.0913 221.155C47.7601 220.726 48.6118 220.637 49.3504 220.927C50.0901 221.219 50.6571 221.839 50.8503 222.608C51.9513 226.989 54.2983 228.776 58.9593 228.776C61.8838 228.776 64.7659 228.266 67.8149 227.725L68.7192 232.56C65.5513 233.12 62.3182 233.693 58.9582 233.693C53.1551 233.693 49.1652 231.346 47.0605 226.708C40.2513 230.099 23.0603 237.948 15.9379 237.948Z" fill="#525D7D"/>
<path d="M83.2556 186.099C69.8762 186.099 60.2935 180.024 54.7762 168.043C54.6128 167.684 54.4916 167.407 54.3933 167.239C53.7153 166.075 54.088 164.562 55.2461 163.872C56.4077 163.18 57.895 163.526 58.6015 164.67C58.7604 164.927 58.9811 165.381 59.2635 165.993C61.1761 170.148 66.2556 181.181 83.2545 181.181C89.6292 181.181 98.8803 174.762 101.963 165.551C102.391 164.262 103.785 163.563 105.085 163.996C106.377 164.425 107.076 165.818 106.645 167.105C102.846 178.466 91.4835 186.099 83.2556 186.099Z" fill="#525D7D"/>
<path d="M80.7062 134.86C74.1966 134.86 69.7219 129.446 69.6202 124.361C69.5219 119.558 73.0476 114.953 77.8207 113.649L78.4735 116.02L77.8515 113.64C78.6209 113.428 79.4166 113.21 80.4113 113.168C80.7519 113.156 81.0778 113.156 81.4059 113.167C86.8969 113.379 91.1955 117.282 91.6265 122.445C91.8871 125.569 90.7062 128.889 88.4654 131.328C86.3916 133.587 83.6626 134.841 80.7062 134.86ZM80.9257 118.075C80.8217 118.075 80.7165 118.076 80.6113 118.082C80.186 118.099 79.779 118.212 79.1628 118.38C76.5094 119.106 74.503 121.684 74.5556 124.263C74.6104 127.015 77.0936 129.943 80.7051 129.943C82.2393 129.933 83.6855 129.247 84.8208 128.01C86.1286 126.585 86.85 124.609 86.7037 122.851C86.4419 119.709 83.6729 118.175 81.2115 118.081C81.1155 118.078 81.0206 118.075 80.9257 118.075Z" fill="#525D7D"/>
<path d="M93.4786 126.194C92.4965 126.194 91.5087 126.151 90.5416 126.066C89.1834 125.947 88.1796 124.753 88.2997 123.401C88.4186 122.05 89.6201 121.05 90.9748 121.168C91.798 121.24 92.6394 121.278 93.4786 121.278C105.015 121.278 116.486 114.331 123.413 103.148C124.13 101.992 125.651 101.634 126.811 102.348C127.971 103.06 128.332 104.575 127.615 105.731C119.794 118.352 106.715 126.194 93.4786 126.194Z" fill="#525D7D"/>
<path d="M71.2538 126.075C65.565 126.075 58.2746 123.987 54.8654 118.123C54.1829 116.948 54.5842 115.445 55.764 114.764C56.9461 114.085 58.4529 114.482 59.1366 115.659C61.4951 119.716 67.1382 121.157 71.2538 121.157C72.6166 121.157 73.7221 122.257 73.7221 123.615C73.7221 124.975 72.6166 126.075 71.2538 126.075Z" fill="#525D7D"/>
<path d="M69.8934 108.153C68.6975 108.153 67.4994 108.056 66.6202 106.964C65.5948 105.691 65.9137 104.323 66.4408 102.058C67.1267 99.1156 68.5523 92.9912 69.2897 80.8768C69.372 79.5227 70.5347 78.4956 71.9032 78.5719C73.2648 78.6539 74.2994 79.8188 74.2171 81.1751C73.4557 93.7018 71.9661 100.096 71.2504 103.17C72.6097 103.145 74.0628 102.691 75.5947 102.215C76.6968 101.871 77.8378 101.516 79.0222 101.282C80.3483 101.013 81.6596 101.877 81.926 103.211C82.1947 104.542 81.3269 105.838 79.9894 106.103C79.0599 106.288 78.0927 106.589 77.0684 106.909C75.1123 107.519 73.0899 108.15 70.8514 108.15L70.2843 108.153C70.154 108.151 70.0237 108.153 69.8934 108.153Z" fill="#525D7D"/>
<path d="M49.9255 88.1832C46.5883 88.1832 44.0709 85.4979 44.0709 81.9369C44.0709 80.0625 44.7351 78.2313 45.8921 76.9149C46.7827 75.9037 48.3204 75.7909 49.3493 76.6598C50.2639 76.4104 51.2917 76.7042 51.9273 77.4968C51.9959 77.5355 52.4189 77.679 52.6967 77.7747C53.7794 78.1448 56.3139 79.0103 56.3139 82.0121C56.3128 85.0686 53.09 88.1832 49.9255 88.1832ZM49.0429 81.4746C49.02 81.6283 49.0075 81.7844 49.0075 81.9381C49.0075 82.4346 49.1263 83.2671 49.9255 83.2671C50.2387 83.2443 50.7921 82.8309 51.1179 82.4357C50.496 82.2216 49.7471 81.9666 49.0429 81.4746Z" fill="#525D7D"/>
<path d="M93.3779 88.0489C91.4046 88.0489 87.5382 86.7552 87.5382 83.7659C87.5382 83.6133 87.5142 83.463 87.4947 83.3093C87.4524 82.9619 87.417 82.6135 87.417 82.2673C87.417 79.3429 90.6169 75.6327 94.2113 75.6327C94.8732 75.6327 95.5226 75.7534 96.1445 75.9914C98.1486 76.7601 99.4828 78.4489 99.7103 80.5067L99.7343 80.7208C99.7869 81.1683 99.8406 81.6592 99.8406 82.1523C99.8418 85.7941 96.4864 88.0489 93.3779 88.0489ZM92.4153 82.8742C92.7331 83.0063 93.1561 83.1259 93.3813 83.1316C93.9026 83.1316 94.9052 82.7501 94.9052 82.1523C94.9052 81.8573 94.8652 81.5635 94.8332 81.297L94.8046 81.0488C94.7898 80.9144 94.7703 80.7333 94.3725 80.5807C93.6522 80.2994 92.4404 81.7127 92.3535 82.3105C92.3547 82.4199 92.3798 82.5713 92.3981 82.7239C92.4027 82.7729 92.4095 82.8241 92.4153 82.8742Z" fill="#525D7D"/>
<path d="M42.2509 74.2695C41.2928 74.2695 40.3817 73.7104 39.9804 72.7789C39.4431 71.5308 40.0238 70.0856 41.2768 69.5504C44.9089 68.0005 48.6645 66.3971 52.8373 66.1192C54.1326 66.0213 55.373 67.0519 55.4645 68.4082C55.5548 69.7634 54.5259 70.9352 53.1643 71.0251C49.8329 71.2472 46.6203 72.6183 43.2203 74.0703C42.9048 74.2058 42.5755 74.2695 42.2509 74.2695Z" fill="#525D7D"/>
<path d="M97.0123 68.5391C96.9529 68.5391 96.8934 68.538 96.834 68.5323C95.5993 68.4446 94.3966 68.2988 93.2019 68.1519C91.0343 67.8866 89.0348 67.6326 86.9346 67.7852C85.5982 67.8843 84.3943 66.8674 84.2949 65.5111C84.1965 64.157 85.2186 62.9784 86.5779 62.8816C89.0965 62.6994 91.5076 62.9909 93.8044 63.2722C94.9145 63.4077 96.036 63.5466 97.1838 63.6286C98.5431 63.7243 99.5663 64.9007 99.4703 66.2558C99.3777 67.5506 98.2939 68.5391 97.0123 68.5391Z" fill="#525D7D"/>
</g>
<defs>
<clipPath id="clip0_2111_5053">
<rect width="172" height="246" fill="white"/>
</clipPath>
</defs>
</svg>
