<svg width="128" height="184" viewBox="0 0 128 184" fill="none" xmlns="http://www.w3.org/2000/svg">
<g clip-path="url(#clip0_2929_8878)">
<path d="M39.7419 102.632C37.655 100.527 35.5731 98.6059 33.5584 96.6579C33.4691 95.2048 33.2241 93.7985 32.797 92.4629C31.8679 89.5601 29.0773 88.4638 26.6926 89.1129C26.086 88.3071 25.4947 87.4732 24.9272 86.5908C24.295 85.607 22.556 85.9264 22.6139 87.2185C22.6922 88.9749 22.9346 90.6367 23.3115 92.244C23.2835 92.319 23.2452 92.3854 23.2197 92.4629C22.123 95.7832 22.3195 99.3206 21.3896 102.716C20.4997 105.966 19.2167 109.024 17.5134 111.929C14.1375 117.687 9.32205 121.413 4.9388 126.159C4.76524 126.252 4.58402 126.345 4.41897 126.436C3.96125 126.69 3.7426 127.198 3.76472 127.692C3.49417 128.602 4.08121 129.608 5.16681 129.657C5.88828 129.689 6.6123 129.654 7.33547 129.588C8.53423 129.831 9.68024 130.054 10.069 130.345C11.3376 131.294 12.0684 134.232 13.462 135.52C16.4057 138.241 20.6571 139.712 24.0254 136.883C24.9978 136.065 25.9013 135.15 26.7827 134.197C28.355 133.664 29.7052 132.441 30.3059 130.367C30.3169 130.33 30.3254 130.291 30.3365 130.253C31.2077 129.313 32.1061 128.399 33.0794 127.57C34.6993 126.188 36.2971 124.779 37.6941 123.227C40.808 124.385 44.8203 123.376 45.5086 119.471C46.6622 112.936 44.3864 107.317 39.7419 102.632ZM32.5647 112.613C32.5154 111.746 32.4405 110.882 32.335 110.022C32.6285 110.668 32.8871 111.327 33.1109 112.004C32.9263 112.21 32.7476 112.408 32.5647 112.613Z" fill="#E0DFE6"/>
<path d="M84.8636 39.2218C85.3196 39.1911 85.768 39.0753 86.1611 38.8453C87.5257 38.0463 88.1366 36.0804 87.2467 34.7005L83.9865 29.6444C82.3164 27.055 78.7226 28.6836 78.8817 31.221C77.1495 29.8727 74.6312 29.5481 72.5757 31.5132C62.8367 40.824 50.6109 45.6356 36.9975 43.6348C35.6771 43.4406 34.4741 45.4014 35.9808 46.0488C48.5137 51.4328 63.4136 50.1952 74.6133 42.4474C76.3728 45.059 79.3675 46.9891 82.0832 48.1356C84.7505 49.2617 87.6567 46.6765 87.9902 44.1961C88.3246 41.7055 86.9081 39.9875 84.8636 39.2218ZM82.2355 38.4782C82.1921 38.4543 82.1351 38.4228 82.0552 38.3794C81.7489 38.2158 81.4434 38.0557 81.1482 37.8717C81.1031 37.8436 80.8258 37.6596 80.716 37.5906C80.6539 37.5327 80.4965 37.3981 80.3612 37.2806C80.6692 36.7405 80.8436 36.1835 80.9066 35.6298C81.2784 36.3394 81.6493 37.0489 82.0211 37.7584C82.2023 38.1042 82.4584 38.3887 82.7571 38.6162C82.6269 38.5761 82.495 38.5395 82.364 38.4995C82.2645 38.4696 82.2355 38.4688 82.2355 38.4782Z" fill="#E0DFE6"/>
<path d="M76.8399 19.1922C73.4878 18.7902 71.1328 21.4086 68.7796 23.3625C59.5324 31.0422 49.0575 37.0336 36.6343 36.0097C35.1982 35.8913 35.0084 38.0565 36.3042 38.4509C43.4091 40.6119 50.286 40.0557 57.2352 37.4756C60.6341 36.2133 63.8969 34.5574 66.9997 32.6895C68.572 31.7432 71.1898 29.2466 73.447 27.7194C76.1908 30.164 81.5022 30.5379 81.5941 24.7756C81.6409 21.8242 79.799 19.5466 76.8399 19.1922Z" fill="#E0DFE6"/>
<path d="M77.7248 148.594C66.3277 149.661 54.2822 149.139 43.2458 152.53C42.1381 152.871 42.0658 154.546 43.2458 154.852C54.3869 157.75 66.3234 156.725 77.7248 157.294C83.3757 157.577 83.2583 148.076 77.7248 148.594Z" fill="#E0DFE6"/>
<path d="M124.695 117.721C122.364 107.703 123.053 98.4041 124.024 88.2952C124.869 79.4981 125.687 70.9522 123.286 62.3288C122.929 61.0477 120.867 61.2632 120.923 62.6491C121.299 71.8363 118.426 80.4657 116.102 89.1947C116.622 85.5891 117.151 82.0074 117.587 78.4734C119.521 62.8126 120.35 41.5897 109.032 28.934C108.171 27.9715 106.676 28.9971 106.957 30.1436C109.427 40.2116 111.153 49.116 110.507 59.5776C109.923 69.0348 108.146 78.3456 106.61 87.6819C104.747 99.0106 103.302 110.373 104.168 121.544C104.028 120.305 103.892 119.068 103.733 117.847C103.502 116.074 100.926 115.209 100.197 116.959C96.7113 114.429 90.3304 116.353 90.5857 121.628C90.6188 122.305 90.6656 122.98 90.7107 123.656C90.3457 123.157 89.9688 122.668 89.6149 122.161C90.2334 121.313 90.5789 120.3 90.447 119.228C90.1603 116.894 89.4635 115.001 87.311 113.768C86.7486 113.445 86.1862 113.255 85.5975 113.097C85.5771 112.819 85.5558 112.539 85.5082 112.258C85.1857 110.353 84.3052 108.676 82.5857 107.677C82.8044 106.894 82.989 106.102 83.0894 105.291C83.3217 103.407 80.9148 101.976 79.2864 102.701C79.1451 100.549 77.3406 98.4688 74.8946 99.416C69.5746 101.475 63.3801 104.862 59.697 109.32C59.0632 110.087 59.4316 111.386 60.5478 111.376C60.8907 111.372 61.242 111.342 61.5909 111.32C61.4428 111.701 61.4284 112.123 61.6334 112.602C61.767 112.916 61.9644 113.159 62.1966 113.366C62.0724 116.305 63.9433 119.503 65.9358 121.425C68.6864 124.08 71.9381 125.903 75.4306 127.369C77.7507 128.342 80.5523 126.319 81.1572 124.113C81.2661 123.718 81.3036 123.331 81.3087 122.951C81.3563 122.964 81.4057 122.98 81.4618 122.997C82.3781 123.947 83.6313 124.549 85.1321 124.549C85.8638 124.549 86.6304 124.349 87.3493 124.007C88.4961 127.857 90.0828 131.492 92.0762 134.954C92.6063 137.984 93.2597 140.994 94.0475 143.983C94.2985 144.934 94.7052 145.714 95.219 146.338C95.1654 146.521 95.1152 146.708 95.0855 146.909C94.438 151.195 94.7834 155.374 94.9281 159.706C95.0889 164.524 96.7275 170.116 90.8885 171.501C86.6933 172.497 81.7817 172.085 77.4708 172.346C72.7864 172.631 68.1011 172.915 63.4166 173.199C58.7203 173.485 54.052 173.975 49.3625 174.32C47.569 174.452 45.3357 174.921 43.6129 174.333C41.7573 173.7 40.4956 171.903 38.9361 170.839C32.6411 166.545 28.6484 172.413 22.7133 173.77C20.976 174.167 20.4238 177.038 22.185 177.817C26.0552 179.526 28.0809 177.187 31.8312 177.389C34.7809 177.55 36.2902 180.553 38.6196 181.878C39.9188 182.618 41.4374 183.073 42.8906 183.392C47.9264 184.494 53.6343 183.798 58.7314 183.593C64.589 183.357 70.4441 182.98 76.2993 182.674C84.2652 182.257 96.8492 183.866 102.68 177C105.797 173.331 105.691 168.861 105.601 164.294C105.549 161.634 105.595 158.915 105.547 156.203C106.768 156.395 108.158 156.233 109.667 155.568C116.307 152.639 123.154 148.908 126.357 142.031C130.089 134.022 126.552 125.707 124.695 117.721ZM74.4896 108.338C74.3076 108.168 74.117 108.005 73.9137 107.858C74.2982 107.679 74.6853 107.503 75.058 107.317C74.8572 107.649 74.6794 107.998 74.4896 108.338ZM105.941 143.508C105.995 143.218 106.026 142.915 106.033 142.604C106.969 141.931 107.703 140.955 108.054 139.829C108.336 140.596 108.613 141.364 108.929 142.128C107.988 142.611 106.977 143.064 105.941 143.508ZM113.905 113.841C114.637 118.956 115.872 123.992 116.545 129.126C116.666 130.049 116.695 130.899 116.667 131.705C114.742 125.891 113.984 119.901 113.905 113.841Z" fill="#E0DFE6"/>
<path d="M95.7779 147.566C94.9373 147.566 94.1776 146.984 93.9862 146.129C93.7649 145.138 94.3869 144.154 95.3772 143.932C102.33 142.373 108.724 139.999 114.412 136.868C111.688 130.583 110.363 123.667 110.363 115.788C110.363 105.052 112.764 94.4144 114.883 85.0286C116.67 77.1199 118.356 69.6498 118.356 63.3501C118.356 44.8367 109.43 6.60894 81.8403 6.60894C78.3827 6.60894 74.9319 7.17452 71.5841 8.28779C71.0864 8.45389 70.5427 8.39852 70.0893 8.13702C65.0186 5.21969 58.9831 3.67797 52.6354 3.67797C24.334 3.67797 4.61102 29.3752 4.61102 52.4371C4.61102 57.42 5.6745 62.7572 6.90644 68.9377C8.64545 77.665 10.6159 87.5558 10.6159 100.55C10.6159 109.14 8.17241 119.073 4.04439 127.381C9.33884 133.188 15.5445 137.346 22.0555 139.437C23.022 139.747 23.5538 140.782 23.2441 141.749C22.9344 142.716 21.9024 143.249 20.9334 142.938C13.4422 140.534 6.36023 135.669 0.449819 128.871C-0.0478911 128.299 -0.142328 127.479 0.210748 126.807C3.46331 120.612 6.94132 110.461 6.94132 100.549C6.94132 87.9179 5.00918 78.2161 3.30251 69.6566C2.03398 63.2845 0.93732 57.782 0.93732 52.4362C0.93732 38.4092 6.6478 25.1359 17.0163 15.062C26.8693 5.49055 39.8515 0 52.6354 0C59.3311 0 65.7315 1.57068 71.2038 4.54764C74.6818 3.4744 78.256 2.93096 81.8403 2.93096C95.1066 2.93096 106.009 10.723 113.369 25.4647C119.755 38.2533 122.03 53.42 122.03 63.3492C122.03 70.0604 120.299 77.7246 118.468 85.8387C116.289 95.4859 114.037 105.462 114.037 115.786C114.037 123.761 115.476 130.648 118.438 136.84C118.85 137.702 118.533 138.738 117.709 139.221C111.34 142.951 104.098 145.743 96.1812 147.519C96.0459 147.551 95.9106 147.566 95.7779 147.566Z" fill="#525D7D"/>
<path d="M97.6059 72.5978C94.6928 72.5978 90.1555 70.0441 88.7781 67.6311C88.2762 66.7495 88.5816 65.6251 89.4622 65.1217C90.341 64.6192 91.4649 64.9233 91.9686 65.8057C92.6994 67.0859 96.0175 68.9189 97.6059 68.9189C103.833 68.9189 104.148 62.0817 104.148 60.7112C104.148 57.2641 102.566 56.5094 101.956 56.5094C101.523 56.5094 100.953 56.6976 100.349 56.897C99.5406 57.1627 98.6243 57.4642 97.6135 57.4642C91.9762 57.4642 82.0671 44.1203 79.5462 28.8386C68.2299 41.6996 56.9825 44.3384 41.9313 44.3384C33.0831 44.3384 25.7578 42.5522 19.536 38.8785C18.6623 38.3623 18.3713 37.2354 18.8869 36.3598C19.4024 35.485 20.5314 35.1962 21.4018 35.7099C27.0425 39.0403 33.7586 40.6595 41.9313 40.6595C57.4394 40.6595 68.0079 37.8802 79.4254 23.2186C79.8942 22.6172 80.6871 22.3668 81.4129 22.5917C82.1411 22.8157 82.6567 23.4673 82.7069 24.2288C83.824 41.2115 94.9046 53.7863 97.6152 53.7863C98.0372 53.7863 98.603 53.5997 99.2011 53.4021C100.014 53.1347 100.937 52.8314 101.958 52.8314C103.987 52.8314 107.824 54.4788 107.824 60.7112C107.822 66.6277 104.663 72.5978 97.6059 72.5978Z" fill="#525D7D"/>
<path d="M19.2723 50.0291C16.9463 50.0291 14.5309 49.5538 12.2874 48.6552C11.3464 48.2779 10.8878 47.208 11.2647 46.2651C11.6416 45.3222 12.7127 44.8648 13.6529 45.2413C17.535 46.7975 21.9999 46.6901 24.8322 44.8656C25.6838 44.3188 26.8213 44.5624 27.3709 45.4176C27.9197 46.2719 27.6721 47.4099 26.8196 47.9593C24.7156 49.3128 22.1054 50.0291 19.2723 50.0291Z" fill="#525D7D"/>
<path d="M18.1768 56.9557C15.3853 56.9557 12.6322 56.4694 9.97008 55.9984C8.97125 55.822 8.30424 54.868 8.48035 53.8681C8.65731 52.8681 9.61615 52.2011 10.609 52.3766C13.232 52.84 15.7086 53.2778 18.1768 53.2778C20.0808 53.2778 21.7688 53.0086 23.3385 52.4533C24.2939 52.116 25.3455 52.6177 25.6816 53.575C26.0202 54.5333 25.5174 55.5835 24.5611 55.9217C22.5923 56.6176 20.5045 56.9557 18.1768 56.9557Z" fill="#525D7D"/>
<path d="M19.5254 160.689C18.5113 160.689 17.6886 159.867 17.6886 158.85C17.6886 157.781 17.6656 156.69 17.6435 155.588C17.6205 154.438 17.5967 153.276 17.5967 152.116C17.5967 135.672 27.8172 129.753 36.0307 124.997C41.8603 121.621 45.4336 119.344 45.4336 115.256C45.4336 108.945 41.3711 105.305 36.2272 100.696C29.2958 94.485 20.6689 86.7552 20.6689 69.4198C20.6689 65.9701 21.1819 62.557 22.1952 59.276C22.4955 58.3067 23.5258 57.7658 24.494 58.0622C25.4631 58.362 26.0059 59.3918 25.7064 60.362C24.8011 63.2913 24.3434 66.3389 24.3434 69.4198C24.3434 85.1104 31.9588 91.934 38.6783 97.9552C44.0417 102.761 49.1081 107.301 49.1081 115.256C49.1081 121.671 43.6486 124.833 37.8701 128.18C30.0888 132.686 21.2695 137.794 21.2695 152.116C21.2695 153.252 21.2933 154.388 21.3163 155.512C21.3393 156.64 21.3614 157.757 21.3614 158.85C21.3623 159.866 20.5396 160.689 19.5254 160.689Z" fill="#525D7D"/>
<path d="M86.0962 119.62C85.4292 119.62 84.8072 119.256 84.4831 118.661C84.1266 118.005 84.2006 117.198 84.6737 116.619C86.844 113.953 88.4792 110.613 89.7163 106.27C87.2422 107.257 84.6473 108.037 81.9631 108.599C81.1574 108.768 80.3423 108.38 79.9612 107.653C79.58 106.924 79.7272 106.032 80.3219 105.465C87.9934 98.1715 92.3929 87.3727 92.3929 75.8379C92.3929 73.9734 92.272 72.0918 92.0355 70.2443C91.9054 69.2375 92.6158 68.3159 93.6222 68.1856C94.627 68.0535 95.5501 68.7682 95.6777 69.775C95.9364 71.7767 96.0666 73.8167 96.0666 75.8379C96.0666 86.0482 92.8727 95.7499 87.1512 103.311C88.6758 102.757 90.1527 102.121 91.5744 101.404C92.2057 101.085 92.962 101.157 93.5227 101.591C94.0825 102.022 94.3446 102.738 94.1974 103.43C93.1841 108.194 91.8296 112.05 90.0234 115.253C94.0706 114.339 98.2012 112.745 102.356 110.492C103.249 110.006 104.363 110.339 104.847 111.233C105.33 112.126 104.997 113.242 104.106 113.726C98.1076 116.979 92.1164 118.958 86.2987 119.608C86.2315 119.616 86.1625 119.62 86.0962 119.62Z" fill="#525D7D"/>
<path d="M50.9128 177.13C49.937 177.13 49.127 176.362 49.0794 175.381C48.9713 173.202 48.9637 171.017 48.9637 169.142L48.9645 167.114C48.9645 163.16 48.9135 159.308 48.2899 155.618C48.2039 155.115 48.3316 154.599 48.6412 154.195C48.9509 153.789 49.4146 153.531 49.9217 153.482C51.8019 153.298 53.7996 153.208 56.0329 153.208C58.3759 153.208 60.4672 153.298 62.3134 153.376C63.6321 153.433 64.7875 153.483 65.7386 153.483C67.6436 153.483 69.6089 153.368 71.5087 153.256C73.4612 153.142 75.4802 153.023 77.4931 153.023C79.7026 153.023 81.6501 153.169 83.4452 153.469C84.4449 153.636 85.1221 154.584 84.9545 155.585C84.7886 156.586 83.8451 157.264 82.8403 157.097C81.2485 156.831 79.4993 156.701 77.4931 156.701C75.5882 156.701 73.6229 156.816 71.7231 156.928C69.7705 157.042 67.7516 157.161 65.7386 157.161C64.7449 157.161 63.5368 157.109 62.1568 157.051C60.3472 156.973 58.2968 156.886 56.0329 156.886C54.6682 156.886 53.3997 156.921 52.1975 156.992C52.5991 160.317 52.6374 163.683 52.6374 167.114L52.6365 169.142C52.6365 170.454 52.6416 171.92 52.6808 173.418C55.0196 173.378 57.3695 173.365 59.7244 173.351C69.5706 173.292 79.7511 173.232 89.3327 171.273C91.1874 170.893 95.5026 169.672 95.5026 166.545C95.5026 165.562 95.5119 164.581 95.5213 163.595C95.5323 162.614 95.5417 161.631 95.5417 160.641C95.5417 149.156 93.0446 134.015 81.1489 127.107C79.951 126.411 78.8425 125.838 77.7696 125.284C73.5114 123.082 69.8326 121.18 69.8326 115.037C69.8326 101.39 81.5837 95.4527 90.1639 91.1171C91.0691 90.6597 92.1743 91.0235 92.6312 91.9297C93.088 92.836 92.7247 93.9425 91.8195 94.3999C81.8006 99.4629 73.5063 104.51 73.5063 115.036C73.5063 118.939 75.2479 119.839 79.4559 122.014C80.5151 122.562 81.7173 123.184 82.9935 123.925C93.6062 130.088 99.2154 142.783 99.2154 160.64C99.2154 161.643 99.206 162.638 99.195 163.631C99.1856 164.604 99.1763 165.574 99.1763 166.543C99.1763 170.654 95.8565 173.691 90.0686 174.875C80.1331 176.906 69.7697 176.968 59.7474 177.027C56.8045 177.046 53.8702 177.063 50.9128 177.13Z" fill="#525D7D"/>
<path d="M11.8607 177.977C5.45341 177.977 4.76172 174.522 4.76172 173.037C4.76172 169.556 8.85655 167.611 13.5971 165.359C15.8994 164.265 18.279 163.135 20.2009 161.826C22.0506 160.563 23.1702 159.54 24.1571 158.636C27.1408 155.905 28.7216 154.797 38.0198 154.797C38.8842 154.797 39.7478 154.806 40.6105 154.815C41.457 154.823 42.3027 154.832 43.1484 154.832C45.1588 154.832 47.535 154.788 49.9172 154.462C50.9263 154.322 51.8485 155.03 51.9863 156.036C52.1242 157.042 51.4197 157.97 50.4149 158.107C47.8141 158.462 45.2821 158.51 43.1484 158.51C42.2908 158.51 41.4323 158.5 40.5722 158.492C39.7231 158.483 38.8732 158.475 38.0198 158.475C29.7774 158.475 28.9862 159.199 26.6363 161.35C25.6111 162.289 24.3366 163.456 22.2675 164.867C20.1116 166.337 17.6009 167.529 15.1719 168.683C12.4894 169.957 8.43542 171.882 8.43542 173.037C8.43542 174.208 11.0567 174.299 11.8607 174.299C16.9467 174.299 33.5438 166.384 35.0446 165.417C35.5423 165.096 36.1762 165.029 36.7258 165.246C37.2762 165.465 37.6982 165.929 37.842 166.504C38.6613 169.78 40.408 171.117 43.8766 171.117C46.0529 171.117 48.1978 170.735 50.4668 170.331L51.1398 173.947C48.7823 174.366 46.3762 174.795 43.8758 174.795C39.5572 174.795 36.5879 173.039 35.0216 169.57C29.9544 172.107 17.1611 177.977 11.8607 177.977Z" fill="#525D7D"/>
<path d="M61.9577 139.196C52.001 139.196 44.8697 134.652 40.7638 125.691C40.6421 125.422 40.5519 125.215 40.4788 125.089C39.9743 124.219 40.2516 123.087 41.1135 122.571C41.9779 122.054 43.0847 122.312 43.6105 123.168C43.7288 123.36 43.893 123.699 44.1031 124.158C45.5265 127.265 49.3065 135.518 61.9569 135.518C66.7009 135.518 73.5854 130.716 75.8792 123.827C76.1982 122.863 77.2353 122.34 78.2027 122.664C79.164 122.985 79.6847 124.026 79.364 124.989C76.5368 133.487 68.0808 139.196 61.9577 139.196Z" fill="#525D7D"/>
<path d="M60.0602 100.871C55.2158 100.871 51.8858 96.8215 51.8101 93.0183C51.7369 89.4255 54.3607 85.9809 57.9128 85.0056L58.3986 86.779L57.9358 84.9988C58.5083 84.8404 59.1005 84.6777 59.8407 84.6462C60.0942 84.6368 60.3367 84.6368 60.5808 84.6453C64.6672 84.8038 67.8661 87.7228 68.1869 91.5848C68.3809 93.9212 67.502 96.405 65.8344 98.2295C64.2911 99.9185 62.2603 100.856 60.0602 100.871ZM60.2235 88.3165C60.1461 88.3165 60.0678 88.3173 59.9896 88.3216C59.6731 88.3344 59.3702 88.4187 58.9116 88.5448C56.9369 89.0873 55.4438 91.0158 55.4829 92.945C55.5238 95.0029 57.3717 97.1929 60.0593 97.1929C61.2011 97.186 62.2773 96.6724 63.1221 95.7474C64.0954 94.6818 64.6323 93.2031 64.5234 91.8888C64.3286 89.5388 62.268 88.3914 60.4362 88.3207C60.3647 88.3182 60.2941 88.3165 60.2235 88.3165Z" fill="#525D7D"/>
<path d="M69.5654 94.3888C68.8346 94.3888 68.0995 94.3564 67.3797 94.2934C66.369 94.2039 65.622 93.3113 65.7113 92.3002C65.7998 91.2892 66.694 90.5413 67.7022 90.6299C68.3148 90.6835 68.9409 90.7117 69.5654 90.7117C78.1507 90.7117 86.6875 85.5158 91.8424 77.1514C92.3758 76.2868 93.5074 76.0185 94.3709 76.5526C95.2345 77.0858 95.5025 78.2186 94.969 79.0832C89.1488 88.5234 79.4158 94.3888 69.5654 94.3888Z" fill="#525D7D"/>
<path d="M53.0256 94.3002C48.792 94.3002 43.3666 92.7381 40.8295 88.3523C40.3216 87.4732 40.6202 86.3489 41.4983 85.8395C42.378 85.3319 43.4993 85.6291 44.0081 86.509C45.7632 89.5439 49.9627 90.6214 53.0256 90.6214C54.0397 90.6214 54.8624 91.4442 54.8624 92.4604C54.8624 93.4774 54.0397 94.3002 53.0256 94.3002Z" fill="#525D7D"/>
<path d="M52.0139 80.895C51.1239 80.895 50.2323 80.8226 49.5781 80.0057C48.8149 79.0534 49.0523 78.0305 49.4445 76.3363C49.955 74.1353 51.0159 69.5544 51.5647 60.4932C51.6259 59.4804 52.4912 58.7122 53.5095 58.7692C54.5228 58.8305 55.2928 59.7019 55.2315 60.7164C54.6649 70.0859 53.5563 74.8687 53.0238 77.1676C54.0353 77.1489 55.1167 76.8099 56.2567 76.4538C57.0769 76.1966 57.926 75.9308 58.8074 75.7554C59.7943 75.5543 60.7702 76.2008 60.9684 77.1983C61.1683 78.194 60.5226 79.1633 59.5272 79.3618C58.8355 79.4998 58.1157 79.7255 57.3534 79.9648C55.8977 80.4205 54.3927 80.8924 52.7268 80.8924L52.3048 80.895C52.2078 80.8933 52.1109 80.895 52.0139 80.895Z" fill="#525D7D"/>
<path d="M37.1538 65.9582C34.6703 65.9582 32.7969 63.9497 32.7969 61.2862C32.7969 59.8842 33.2912 58.5145 34.1522 57.5299C34.8149 56.7735 35.9592 56.6892 36.725 57.3391C37.4056 57.1526 38.1704 57.3723 38.6435 57.9652C38.6945 57.9941 39.0093 58.1014 39.2161 58.173C40.0218 58.4498 41.9079 59.0972 41.9079 61.3424C41.9071 63.6286 39.5087 65.9582 37.1538 65.9582ZM36.4969 60.9404C36.4799 61.0554 36.4706 61.1721 36.4706 61.2871C36.4706 61.6585 36.5591 62.2811 37.1538 62.2811C37.3869 62.2641 37.7987 61.9549 38.0411 61.6593C37.5783 61.4992 37.021 61.3084 36.4969 60.9404Z" fill="#525D7D"/>
<path d="M69.4907 65.8577C68.0222 65.8577 65.1449 64.89 65.1449 62.6541C65.1449 62.54 65.127 62.4276 65.1125 62.3126C65.0811 62.0528 65.0547 61.7921 65.0547 61.5332C65.0547 59.3458 67.436 56.5707 70.1109 56.5707C70.6035 56.5707 71.0868 56.661 71.5496 56.8391C73.041 57.414 74.0339 58.6772 74.2032 60.2163L74.2211 60.3765C74.2602 60.7112 74.3002 61.0783 74.3002 61.4472C74.301 64.1711 71.804 65.8577 69.4907 65.8577ZM68.7743 61.9872C69.0108 62.086 69.3256 62.1754 69.4932 62.1797C69.8812 62.1797 70.6273 61.8943 70.6273 61.4472C70.6273 61.2266 70.5976 61.0068 70.5737 60.8075L70.5525 60.6218C70.5414 60.5213 70.5269 60.3858 70.2309 60.2717C69.6949 60.0613 68.793 61.1184 68.7284 61.5656C68.7292 61.6473 68.748 61.7606 68.7616 61.8748C68.765 61.9114 68.7701 61.9497 68.7743 61.9872Z" fill="#525D7D"/>
<path d="M31.4423 55.5512C30.7293 55.5512 30.0512 55.133 29.7526 54.4362C29.3527 53.5027 29.7849 52.4218 30.7174 52.0214C33.4204 50.8621 36.2152 49.6628 39.3206 49.455C40.2845 49.3818 41.2076 50.1526 41.2757 51.1671C41.3429 52.1807 40.5772 53.0572 39.5639 53.1245C37.0847 53.2906 34.694 54.3161 32.1637 55.4021C31.9289 55.5035 31.6839 55.5512 31.4423 55.5512Z" fill="#525D7D"/>
<path d="M72.1946 51.265C72.1504 51.265 72.1061 51.2642 72.0619 51.2599C71.143 51.1943 70.248 51.0853 69.3589 50.9754C67.7458 50.777 66.2578 50.587 64.6949 50.7011C63.7003 50.7752 62.8045 50.0146 62.7305 49.0001C62.6573 47.9874 63.4179 47.1058 64.4295 47.0334C66.3038 46.8971 68.0981 47.1152 69.8073 47.3256C70.6334 47.4269 71.468 47.5308 72.3222 47.5922C73.3338 47.6637 74.0953 48.5436 74.0238 49.5572C73.9549 50.5257 73.1483 51.265 72.1946 51.265Z" fill="#525D7D"/>
</g>
<defs>
<clipPath id="clip0_2929_8878">
<rect width="128" height="184" fill="white"/>
</clipPath>
</defs>
</svg>
