<svg width="219" height="200" viewBox="0 0 219 200" fill="none" xmlns="http://www.w3.org/2000/svg">
<path d="M132.111 67.4484C131.009 67.4484 130.078 66.597 129.998 65.4814C129.729 61.7831 129.05 58.1467 127.981 54.6703C119.692 27.7257 107.306 22.1714 87.3507 21.3446C83.6799 21.1943 80.4217 21.7423 77.3768 23.0229C76.2959 23.4824 75.053 22.9718 74.5981 21.8926C74.1432 20.8143 74.6502 19.5711 75.729 19.1164C79.3615 17.5854 83.219 16.9412 87.5256 17.1062C108.912 17.992 123.051 24.219 132.036 53.4232C133.2 57.204 133.939 61.1576 134.229 65.174C134.315 66.3416 133.437 67.358 132.267 67.4415C132.214 67.4464 132.162 67.4484 132.111 67.4484Z" fill="#525D7D"/>
<path d="M88.534 120.212C87.7607 120.212 86.9874 120.19 86.2102 120.141C72.2176 119.288 60.4024 111.482 52.9389 98.1616C50.793 94.3307 49.5275 87.4792 49.6935 83.4844C49.7191 83.0415 49.779 82.031 49.8144 81.1874C49.9401 78.153 49.9215 75.0596 49.9018 71.7826C49.8822 68.5066 49.8615 65.1196 50.0001 61.7985C50.2565 55.5803 51.074 47.573 55.1418 40.7921C56.6048 38.3548 57.9205 36.2797 59.1654 34.4483C59.8237 33.482 61.1423 33.2306 62.112 33.8856C63.0809 34.5435 63.3334 35.8624 62.6751 36.8316C61.4763 38.5953 60.202 40.6055 58.7822 42.9742C55.9927 47.623 54.5916 53.4837 54.2398 61.9762C54.1062 65.1962 54.1268 68.5331 54.1455 71.7591C54.1641 74.9408 54.1838 78.2306 54.0541 81.3652C54.0177 82.2372 53.9558 83.283 53.9372 83.6032C53.7947 87 54.9237 93.0256 56.6412 96.0925C63.3746 108.109 73.9676 115.147 86.4687 115.911C106.124 117.092 125.358 100.198 129.323 78.2099C129.53 77.0571 130.632 76.3019 131.787 76.4983C132.94 76.7065 133.706 77.8083 133.499 78.9612C129.246 102.543 109.758 120.211 88.534 120.212Z" fill="#525D7D"/>
<path d="M124.48 81.2438C123.473 81.2438 122.578 80.523 122.395 79.4968C122.189 78.3439 122.956 77.2421 124.11 77.0368C124.768 76.92 125.604 76.8895 126.662 76.8532C131.722 76.6755 134.878 76.0843 134.977 73.6881C135.066 71.5307 134.557 69.8485 133.464 68.6867C132.292 67.4415 130.423 66.7581 127.907 66.6549C127.096 66.6216 126.217 66.649 125.295 66.7423C124.131 66.8739 123.089 66.0098 122.972 64.8441C122.855 63.6794 123.705 62.6395 124.871 62.5236C125.991 62.4116 127.071 62.3763 128.084 62.4175C131.745 62.5697 134.595 63.701 136.554 65.7819C138.432 67.7764 139.352 70.5722 139.216 73.8649C138.935 80.6644 130.745 80.9531 126.811 81.0906C126.029 81.1181 125.219 81.1456 124.858 81.2104C124.73 81.232 124.604 81.2438 124.48 81.2438Z" fill="#525D7D"/>
<path d="M79.9696 93.9952C79.7829 93.9952 79.5952 93.9913 79.4066 93.9844C77.3697 93.9 75.8104 93.4571 74.6372 92.6312C73.5564 91.8701 72.2909 90.4059 72.4009 87.7506C72.5051 85.2454 74.253 83.3678 74.8278 82.7511C75.7367 81.7769 76.7487 81.1013 77.7274 80.4502C80.3685 78.6914 82.8642 77.0309 83.213 68.6012C83.44 63.098 80.9619 60.3149 75.6385 60.096C72.8008 59.9673 69.6173 60.5732 66.8603 61.1438C65.7176 61.3883 64.5916 60.6439 64.3538 59.4969C64.117 58.3499 64.8549 57.2275 66.0025 56.9918C69.0082 56.3721 72.4962 55.727 75.8143 55.8586C83.4223 56.1738 87.773 61.0033 87.4517 68.777C87.0135 79.3631 83.1688 81.9233 80.0796 83.9806C79.2336 84.5443 78.5036 85.0314 77.9337 85.6412C77.0897 86.5466 76.6662 87.2949 76.6407 87.9283C76.6033 88.8298 76.9148 89.0488 77.0818 89.1666C77.351 89.3571 78.0339 89.6842 79.5824 89.748C80.6348 89.7932 81.745 89.6459 82.9231 89.4897C84.2692 89.312 85.6595 89.1254 87.1658 89.1902C88.336 89.2383 89.2459 90.2272 89.1977 91.3958C89.1496 92.5654 88.171 93.4472 86.9909 93.4276C85.8551 93.3726 84.7006 93.5337 83.4783 93.6937C82.3483 93.842 81.183 93.9952 79.9696 93.9952Z" fill="#525D7D"/>
<path d="M87.8439 108.83C87.6238 108.83 87.4047 108.826 87.1866 108.817C85.7864 108.76 84.404 108.517 83.0775 108.098C81.9604 107.744 81.3423 106.553 81.6961 105.437C82.0498 104.32 83.2426 103.701 84.3598 104.056C85.3256 104.361 86.3357 104.538 87.3605 104.579C89.9309 104.691 92.6555 103.947 95.0392 102.499C96.0375 101.888 97.3443 102.207 97.9544 103.208C98.5626 104.209 98.2453 105.513 97.244 106.121C94.3514 107.88 91.0392 108.83 87.8439 108.83Z" fill="#525D7D"/>
<path d="M67.9839 71.1092C67.7059 71.1092 67.4396 71.1014 67.1881 71.0916C66.6909 71.0709 66.1927 71.0336 65.6946 70.9963C65.2524 70.9629 64.8103 70.9295 64.3681 70.9119C63.1979 70.8618 62.289 69.8729 62.3391 68.7033C62.3892 67.5327 63.3679 66.6263 64.5489 66.6744C65.0363 66.6951 65.5236 66.7314 66.01 66.7687C66.461 66.8021 66.9129 66.8365 67.3639 66.8542C68.8171 66.9209 69.7702 66.7746 70.6742 66.3681C71.7442 65.8859 72.9989 66.3641 73.4794 67.4326C73.9598 68.5 73.4833 69.756 72.4143 70.2362C70.8206 70.9511 69.2711 71.1092 67.9839 71.1092Z" fill="#525D7D"/>
<path d="M99.2945 70.3678C99.1373 70.3678 98.9801 70.3638 98.8238 70.358C97.7529 70.3138 96.6779 70.1164 95.6305 69.7697C94.5183 69.4015 93.915 68.2015 94.2844 67.0908C94.6529 65.9801 95.8506 65.3791 96.9648 65.7444C97.6349 65.9664 98.3198 66.0921 98.9978 66.1196C100.298 66.1716 101.641 65.8819 103.096 65.2289C104.164 64.7487 105.421 65.2259 105.9 66.2934C106.381 67.3618 105.903 68.6168 104.835 69.097C102.957 69.9406 101.096 70.3678 99.2945 70.3678Z" fill="#525D7D"/>
<path d="M62.3795 54.742C61.4578 54.742 60.6089 54.1371 60.3417 53.2081C60.0174 52.0827 60.6679 50.9082 61.7929 50.5842C62.6153 50.3485 63.4387 50.0676 64.268 49.7858C66.858 48.9079 69.5394 48.0162 72.5234 48.1213C72.9341 48.1379 73.3497 48.1753 73.7673 48.2362C74.9267 48.4031 75.7314 49.4774 75.5644 50.6362C75.3964 51.794 74.3254 52.6002 73.1621 52.4323C72.8889 52.394 72.6187 52.3704 72.3495 52.3587C70.1417 52.2565 67.9545 53.0117 65.6308 53.8012C64.7386 54.1037 63.8514 54.4042 62.9671 54.6585C62.7715 54.7155 62.574 54.742 62.3795 54.742Z" fill="#525D7D"/>
<path d="M106.79 53.4416C106.483 53.4416 106.171 53.3758 105.876 53.2334C105.428 53.0194 104.938 52.9113 104.291 52.8838C103.743 52.8544 103.148 52.9015 102.518 52.9447C101.803 52.9948 101.062 53.0459 100.277 53.0125C99.4114 52.9762 98.6372 52.8416 97.9111 52.601C96.7988 52.2328 96.1955 51.0327 96.5649 49.9221C96.9334 48.8114 98.137 48.2114 99.2454 48.5767C99.5971 48.6926 99.9803 48.7564 100.453 48.7751C101.007 48.8045 101.6 48.7584 102.228 48.7142C102.945 48.6641 103.687 48.6131 104.469 48.6464C105.686 48.6985 106.744 48.9489 107.708 49.4095C108.765 49.9142 109.211 51.182 108.704 52.2377C108.34 52.9987 107.581 53.4416 106.79 53.4416Z" fill="#525D7D"/>
<path d="M129.237 60.3931C128.985 60.3931 128.736 60.3873 128.491 60.3784C121.005 60.0681 118.663 54.0994 116.597 48.8319C114.386 43.1961 112.476 38.3272 105.284 38.0306C104.342 37.9864 100.514 38.391 90.1169 45.1257C89.6118 45.4527 89.2188 45.7375 88.5291 45.6796C88.1989 45.6639 87.8825 45.602 87.5789 45.4969C84.083 44.2606 83.3972 41.3597 82.897 39.2424C82.2387 36.4545 81.8035 34.6113 76.0476 34.3736C70.3184 34.1585 63.0032 37.8922 59.0189 43.1067C58.3076 44.0367 56.9752 44.2134 56.0457 43.5054C55.1143 42.7944 54.9364 41.4638 55.6468 40.5338C60.4741 34.2155 69.1206 29.8799 76.2235 30.1352C85.1943 30.5074 86.2977 35.1779 87.0277 38.2673C87.4237 39.9475 87.6703 40.7371 88.3748 41.2016C96.2736 36.1422 102.02 33.6842 105.46 33.7923C115.417 34.2047 118.261 41.4559 120.548 47.2842C122.718 52.8149 124.165 55.9544 128.669 56.141C129.282 56.1705 129.952 56.1508 130.668 56.089C131.828 56.0094 132.861 56.8569 132.96 58.0245C133.059 59.1912 132.192 60.2164 131.025 60.3156C130.396 60.3666 129.805 60.3931 129.237 60.3931Z" fill="#525D7D"/>
<path d="M58.4717 37.9759C58.1307 37.9759 57.8016 37.9681 57.4862 37.9553C56.3926 37.9102 55.3039 37.7933 54.2516 37.6823C53.216 37.5723 52.2364 37.4682 51.2744 37.4299C48.6431 37.3209 48.1922 35.572 48.1175 35.0387C47.2342 28.8019 75.0995 19.3039 78.28 18.2413C79.3942 17.8711 80.5939 18.4701 80.9653 19.5808C81.3358 20.6915 80.7364 21.8925 79.6251 22.2646C65.7436 26.9027 57.8212 31.0635 54.3292 33.4272C54.454 33.44 54.5768 33.4538 54.6996 33.4655C55.7303 33.5765 56.705 33.6777 57.663 33.7179C59.9524 33.8142 61.5166 33.4989 62.8853 32.6662C63.8865 32.0544 65.1904 32.3745 65.8006 33.3742C66.4097 34.3749 66.0924 35.679 65.0921 36.2879C62.79 37.6892 60.4309 37.9759 58.4717 37.9759Z" fill="#525D7D"/>
<path d="M65.6233 133.707C64.7832 133.707 63.9893 133.206 63.6562 132.38C63.217 131.295 63.7417 130.059 64.8284 129.621C70.3926 127.375 75.9834 124.31 79.1944 117.162C79.6748 116.094 80.9276 115.617 81.9986 116.097C83.0676 116.576 83.5451 117.831 83.0656 118.898C79.2307 127.437 72.4972 131.098 66.4172 133.552C66.1578 133.657 65.8886 133.707 65.6233 133.707Z" fill="#525D7D"/>
<path d="M156.676 181.697C155.566 181.697 154.632 180.835 154.561 179.712C154.33 176.089 154.46 172.475 154.587 168.982C154.79 163.377 154.981 158.084 153.82 152.696C149.813 134.115 133.605 130.365 120.58 127.35C111.242 125.19 103.177 123.324 103.482 115.946C103.496 115.603 103.53 115.253 103.585 114.894C103.763 113.736 104.843 112.938 106.004 113.121C107.162 113.298 107.957 114.381 107.778 115.538C107.748 115.736 107.729 115.932 107.721 116.123C107.569 119.798 112.872 121.215 121.537 123.221C134.981 126.331 153.392 130.592 157.966 151.802C159.239 157.707 159.029 163.518 158.826 169.135C158.704 172.525 158.576 176.032 158.794 179.442C158.869 180.612 157.981 181.619 156.812 181.694C156.767 181.696 156.721 181.697 156.676 181.697Z" fill="#525D7D"/>
<path d="M22.522 192.535C21.4667 192.535 20.5716 191.759 20.4223 190.714C19.4987 184.241 18.5426 177.768 17.5856 171.282C15.7305 158.712 13.8126 145.713 12.1422 132.789C12.0627 132.173 12.2572 131.553 12.6738 131.094C13.0904 130.634 13.6868 130.345 14.3088 130.398C27.5468 130.789 40.9577 130.317 53.9284 129.857C63.1723 129.53 72.7307 129.192 82.119 129.173C83.1448 129.173 84.0222 129.902 84.2089 130.906C86.2064 141.66 88.3317 153.879 90.2064 164.66C92.2442 176.373 94.004 186.486 94.5808 188.766C94.7389 189.389 94.6043 190.054 94.2152 190.567C93.8261 191.08 93.2238 191.39 92.5783 191.406C68.1568 192.023 43.6234 192.313 22.522 192.535ZM16.6699 134.701C18.2577 146.777 20.0479 158.908 21.7821 170.663C22.6497 176.54 23.5163 182.409 24.3584 188.276C44.2571 188.063 67.0868 187.787 89.9185 187.229C89.0942 183.023 87.697 174.994 86.0256 165.386C84.2531 155.194 82.2556 143.717 80.3592 133.419C71.6076 133.473 62.7046 133.789 54.0778 134.094C41.8479 134.528 29.2289 134.971 16.6699 134.701Z" fill="#525D7D"/>
<path d="M23.6951 199.657C22.5288 199.657 21.5797 198.716 21.5738 197.548C21.5679 196.378 22.5121 195.424 23.6833 195.417C43.8984 195.307 64.3022 194.763 84.0359 194.236C94.4087 193.96 104.799 193.682 115.244 193.461C116.43 193.483 117.385 194.366 117.409 195.537C117.434 196.707 116.504 197.677 115.333 197.701C104.897 197.921 94.5139 198.198 84.1489 198.474C64.3936 199.001 43.9662 199.547 23.6951 199.657Z" fill="#525D7D"/>
<path d="M3.97627 188.887C2.9662 188.887 2.15559 188.667 1.4904 188.121C0.762322 187.523 0.383055 186.638 0.425304 185.628C0.767234 177.37 5.4108 168.505 15.0163 167.31C16.1649 167.163 17.2388 167.99 17.3833 169.152C17.5277 170.314 16.7023 171.374 15.539 171.517C8.41841 172.403 5.33219 178.855 4.75052 184.587C5.77434 184.437 7.32384 184.063 8.64538 183.744C11.9163 182.955 15.988 181.973 20.269 181.822C21.4108 181.743 22.4238 182.694 22.4641 183.866C22.5053 185.037 21.5896 186.018 20.4184 186.06C16.5668 186.196 12.7269 187.122 9.64169 187.867C7.24818 188.444 5.4108 188.887 3.97627 188.887Z" fill="#525D7D"/>
<path d="M49.6012 173.234C49.1493 173.234 48.6924 173.091 48.3072 172.792L47.8238 172.42C43.6332 169.191 39.2991 165.851 35.1488 162.411C34.629 161.98 34.3451 161.328 34.3854 160.652C34.4257 159.978 34.7853 159.363 35.3532 158.998C39.0024 156.647 42.516 154.24 46.234 151.691L49.5472 149.425C50.4217 148.83 51.5998 148.968 52.3121 149.751C55.0662 152.777 58.0984 155.649 61.5825 158.533C62.0552 158.925 62.3362 159.502 62.3509 160.115C62.3656 160.73 62.1131 161.32 61.6592 161.733C58.0974 164.978 54.3716 168.52 51.2637 172.434C50.8452 172.96 50.2261 173.234 49.6012 173.234ZM40.0871 160.972C43.1164 163.423 46.2232 165.831 49.2711 168.18C51.7059 165.325 54.3804 162.692 57.0264 160.231C54.6457 158.17 52.4674 156.097 50.4345 153.957L48.6354 155.188C45.839 157.103 42.9719 159.069 40.0871 160.972Z" fill="#525D7D"/>
<path d="M119.966 191.914C119.808 191.914 119.651 191.91 119.493 191.904C114.038 191.678 109.922 187.295 106.29 183.429C105.632 182.728 104.985 182.038 104.343 181.391C101.552 184.332 98.5508 186.826 94.6972 186.679C93.1379 186.614 91.6857 186.108 90.6068 185.256C89.2509 184.182 88.5435 182.631 88.6162 180.884C89.0976 169.252 106.677 157.656 115.894 158.032C120.294 158.216 124.434 160.853 127.555 165.457C130.257 169.446 131.767 174.322 131.594 178.5C131.45 181.988 130.326 185.25 128.429 187.685C126.298 190.422 123.306 191.914 119.966 191.914ZM107.205 178.252C107.921 178.97 108.647 179.742 109.384 180.527C112.609 183.962 115.945 187.514 119.669 187.667C121.863 187.751 123.674 186.888 125.08 185.081C126.419 183.362 127.248 180.897 127.355 178.323C127.608 172.21 122.726 162.559 115.719 162.269C112.367 162.092 106.625 164.57 101.787 168.203C96.3587 172.279 93.02 177.085 92.8549 181.06C92.8392 181.448 92.9512 181.7 93.2411 181.929C93.6115 182.221 94.2207 182.413 94.8731 182.439C94.9242 182.442 94.9753 182.443 95.0264 182.443C97.7225 182.443 100.349 179.524 103.126 176.437C105.19 174.143 107.326 171.771 109.854 170.152C110.843 169.522 112.154 169.81 112.784 170.796C113.416 171.782 113.128 173.093 112.142 173.725C110.431 174.821 108.794 176.507 107.205 178.252Z" fill="#525D7D"/>
<path d="M150.335 182.254C149.526 182.254 148.753 181.789 148.399 181.002C145.386 174.302 137.469 171.64 131.603 171.399C130.718 171.362 129.84 171.375 128.996 171.44C127.821 171.546 126.809 170.657 126.719 169.49C126.629 168.322 127.503 167.303 128.671 167.214C129.681 167.133 130.727 167.118 131.778 167.161C138.852 167.454 148.463 170.8 152.268 179.266C152.748 180.333 152.271 181.587 151.203 182.069C150.921 182.194 150.626 182.254 150.335 182.254Z" fill="#525D7D"/>
<path d="M145.451 191.912C144.68 191.913 143.865 191.894 143.005 191.86C140.557 191.758 138.039 191.469 135.603 191.19C133.175 190.912 130.665 190.626 128.24 190.526C127.541 190.496 126.845 190.479 126.148 190.489C124.965 190.489 124.018 189.553 124.007 188.389C123.996 187.218 124.936 186.259 126.109 186.249C126.872 186.239 127.644 186.257 128.416 186.289C130.994 186.395 133.582 186.692 136.085 186.977C138.555 187.26 140.886 187.526 143.181 187.622C149.639 187.894 151.981 187.029 152.808 186.259C153.477 185.638 153.541 184.619 153.595 182.87C153.636 181.519 153.683 179.99 154.206 178.412C154.574 177.301 155.777 176.7 156.886 177.067C157.998 177.434 158.603 178.633 158.233 179.746C157.905 180.737 157.872 181.836 157.835 183C157.77 185.112 157.696 187.507 155.698 189.365C153.828 191.105 150.619 191.912 145.451 191.912Z" fill="#525D7D"/>
<path d="M172.112 40.579C171.577 40.579 171.034 40.5663 170.477 40.5447C161.479 40.1715 154.971 36.8484 151.135 30.6656C147.869 25.402 146.48 18.0349 146.89 8.14202C146.939 6.97244 147.914 6.05327 149.097 6.11121C150.268 6.15933 151.178 7.14822 151.129 8.31879C150.756 17.3337 151.937 23.9122 154.741 28.4305C157.834 33.4162 163.039 35.992 170.653 36.3073C188.826 37.0723 191.363 23.8514 194.3 8.55545L194.491 7.55576C194.714 6.40876 195.824 5.65752 196.976 5.87553C198.127 6.09648 198.88 7.20911 198.658 8.35905L198.467 9.35383C195.651 24.0124 192.465 40.5761 172.112 40.579Z" fill="#525D7D"/>
<path d="M171.041 29.1496C170.924 29.1496 170.807 29.1466 170.688 29.1427C166.138 28.9532 163.591 27.3554 163.698 24.756C163.746 23.5854 164.732 22.6466 165.905 22.7242C166.88 22.7645 167.673 23.4558 167.884 24.3612C168.364 24.5822 169.482 24.8483 170.864 24.9053C171.886 24.9465 172.313 24.648 172.675 24.153C173.364 23.2064 174.693 22.9992 175.638 23.6866C176.586 24.3769 176.795 25.7017 176.104 26.6484C174.894 28.3089 173.191 29.1496 171.041 29.1496Z" fill="#525D7D"/>
<path d="M171.984 18.9238C171.953 18.9238 171.921 18.9238 171.89 18.9229L171.05 18.8954C169.073 18.8139 167.639 18.2521 166.664 17.1798C165.228 15.6007 165.341 13.5119 165.432 11.8337L165.464 11.2238C165.581 8.39268 166.045 5.53697 166.925 2.23445C167.226 1.1012 168.395 0.424589 169.521 0.730979C170.654 1.03148 171.327 2.1932 171.025 3.32449C170.226 6.31964 169.807 8.88565 169.702 11.3986L169.668 12.0625C169.628 12.8088 169.56 14.0609 169.803 14.328C169.898 14.4331 170.304 14.6206 171.222 14.658L172.075 14.6854C173.246 14.7375 174.154 15.7274 174.101 16.8979C174.051 18.0351 173.113 18.9238 171.984 18.9238Z" fill="#525D7D"/>
<path d="M132.133 49.5571C131.295 49.5571 130.501 49.0573 130.166 48.2333C129.725 47.1482 130.248 45.9119 131.335 45.4729L133.07 44.7678C142.784 40.8171 152.827 36.7339 163.761 35.8796C164.937 35.7647 165.95 36.6612 166.042 37.8269C166.133 38.9945 165.26 40.0148 164.091 40.1062C153.816 40.9095 144.083 44.867 134.669 48.6949L132.929 49.4019C132.668 49.508 132.398 49.5571 132.133 49.5571Z" fill="#525D7D"/>
<path d="M178.835 164.488C178.019 164.488 177.246 164.016 176.895 163.229C175.546 160.198 174.568 157.661 173.845 155.29C173.54 155.406 173.235 155.521 172.93 155.635C171.976 155.993 171.023 156.352 170.068 156.72C169.539 156.926 168.949 156.906 168.432 156.674C167.914 156.442 167.513 156.009 167.315 155.477C163.772 145.904 160.988 135.747 158.804 124.428C158.584 123.287 159.324 122.181 160.463 121.948C162.523 121.529 164.569 121.047 166.608 120.568C168.117 120.213 169.655 119.851 171.203 119.515C167.714 114.855 164.979 110.233 165.176 105.472C165.273 103.117 166.29 100.569 167.896 98.6559C169.814 96.3687 172.345 95.1844 175.042 95.2826C180.995 95.5281 181.789 100.143 182.368 103.512C183.133 107.966 183.856 112.173 192.835 113.297C196.191 113.716 205.681 121.014 204.91 139.632L204.811 141.913C204.799 142.209 204.727 142.49 204.606 142.741C209.784 135.921 213.645 126.506 214.192 113.284C215.853 73.1872 205.179 49.607 181.559 41.196C180.456 40.8023 179.88 39.5904 180.273 38.4867C180.667 37.3848 181.878 36.8054 182.984 37.2012C208.23 46.1916 220.156 71.8478 218.432 113.461C216.904 150.356 191.694 159.809 179.58 164.352C179.334 164.446 179.082 164.488 178.835 164.488ZM175.267 150.359C175.604 150.359 175.94 150.44 176.245 150.598C176.786 150.88 177.18 151.377 177.326 151.97C177.904 154.301 178.737 156.731 179.976 159.671C186.771 157.071 196.649 152.787 204.058 143.448C203.667 143.778 203.156 143.961 202.605 143.945C201.434 143.894 200.524 142.908 200.574 141.737L200.672 139.456C201.414 121.55 192.296 117.513 192.203 117.486C180.209 115.991 178.992 108.914 178.188 104.231C177.536 100.439 177.178 99.6163 174.869 99.521C173.148 99.4356 171.896 100.494 171.149 101.383C170.141 102.584 169.478 104.22 169.418 105.65C169.243 109.877 172.886 114.861 176.634 119.602C177.094 120.187 177.216 120.967 176.954 121.664C176.692 122.359 176.084 122.868 175.352 123.003C172.777 123.476 170.136 124.096 167.58 124.697C166.203 125.021 164.793 125.353 163.374 125.666C165.292 135.157 167.656 143.811 170.565 151.995C170.855 151.886 171.145 151.777 171.436 151.668C172.458 151.283 173.48 150.899 174.501 150.504C174.748 150.406 175.008 150.359 175.267 150.359Z" fill="#525D7D"/>
<path d="M196.526 119.48C196.17 119.48 195.809 119.39 195.477 119.201C194.46 118.619 194.105 117.325 194.686 116.308C198.149 110.247 199.948 102.92 200.35 93.2519C200.543 88.5785 200.409 83.8127 200.279 79.2041C200.244 77.9599 200.21 76.7245 200.182 75.499C200.155 74.3284 201.082 73.3582 202.254 73.3307C203.447 73.3032 204.398 74.2322 204.423 75.4027C204.452 76.6204 204.486 77.8489 204.521 79.0853C204.652 83.7666 204.788 88.606 204.588 93.4277C204.159 103.8 202.183 111.738 198.372 118.412C197.98 119.096 197.263 119.48 196.526 119.48Z" fill="#525D7D"/>
<path d="M164.006 135.62C163.02 135.62 162.137 134.932 161.93 133.929C161.693 132.782 162.431 131.66 163.578 131.424C166.369 130.846 169.044 130.496 171.633 130.155C174.146 129.825 176.744 129.482 179.384 128.939C180.528 128.699 181.654 129.439 181.89 130.586C182.127 131.733 181.389 132.856 180.242 133.091C177.451 133.669 174.776 134.019 172.187 134.36C169.674 134.69 167.075 135.033 164.436 135.576C164.292 135.606 164.147 135.62 164.006 135.62Z" fill="#525D7D"/>
<path d="M166.831 146.486C166.609 146.486 166.386 146.48 166.162 146.472C164.991 146.422 164.081 145.435 164.131 144.265C164.179 143.094 165.137 142.173 166.338 142.234C168.315 142.316 170.264 141.886 172.337 141.432C174.583 140.939 176.91 140.441 179.418 140.533C180.588 140.581 181.498 141.57 181.45 142.739C181.402 143.909 180.39 144.818 179.243 144.771C177.291 144.688 175.322 145.118 173.247 145.573C171.2 146.023 169.09 146.486 166.831 146.486Z" fill="#525D7D"/>
<path d="M175.104 154.906C174.998 154.906 174.893 154.905 174.785 154.9C173.615 154.852 172.705 153.863 172.754 152.694C172.801 151.524 173.775 150.592 174.96 150.663C175.945 150.725 176.927 150.32 177.976 149.917C178.727 149.628 179.504 149.328 180.34 149.155C181.491 148.92 182.61 149.656 182.846 150.802C183.084 151.949 182.346 153.07 181.199 153.307C180.704 153.409 180.12 153.634 179.503 153.873C178.301 154.336 176.823 154.906 175.104 154.906Z" fill="#525D7D"/>
<path d="M167.649 90.7111C167.051 90.7111 166.479 90.4587 166.076 90.0139C159.425 82.6674 149.051 63.4051 145.145 56.1519C144.568 55.0796 144.161 54.3244 143.968 53.9846C143.389 52.9672 143.744 51.6729 144.762 51.0926C145.779 50.5151 147.075 50.8677 147.656 51.886C147.857 52.2396 148.281 53.0262 148.881 54.1417C152.071 60.0633 161.245 77.0974 167.604 85.2285C169.806 82.473 172.063 79.7537 174.26 77.1062C181.571 68.2956 188.475 59.9749 193.639 50.3826C194.193 49.3524 195.478 48.9665 196.512 49.5194C197.544 50.0742 197.93 51.3607 197.374 52.3918C192.011 62.3553 184.646 71.2298 177.525 79.8127C174.802 83.0936 171.986 86.4865 169.319 89.895C168.934 90.388 168.35 90.6856 167.725 90.7081C167.7 90.7111 167.675 90.7111 167.649 90.7111Z" fill="#525D7D"/>
<path d="M170.47 52.619C170.343 52.619 170.215 52.6161 170.083 52.6111C161.893 52.2714 161.431 46.8408 161.64 41.7785L161.715 40.1425C161.764 38.9729 162.736 38.0714 163.923 38.1116C165.094 38.1617 166.002 39.1496 165.953 40.3192L165.879 41.9533C165.647 47.5695 166.56 48.2205 170.258 48.3737C171.235 48.4042 171.978 48.1705 172.475 47.6549C172.963 47.1482 173.254 46.3311 173.295 45.357C173.345 44.1285 173.045 42.7026 172.778 41.5968C172.502 40.4577 173.203 39.3127 174.341 39.0377C175.483 38.7676 176.627 39.4629 176.902 40.6001C177.235 41.9749 177.607 43.7779 177.534 45.5318C177.449 47.5695 176.759 49.3194 175.537 50.5921C174.635 51.5299 173.036 52.619 170.47 52.619Z" fill="#525D7D"/>
<path d="M154.585 70.6643C154.277 70.6643 153.966 70.5976 153.67 70.4571C152.614 69.9524 152.167 68.6846 152.672 67.6289C153.331 66.2502 153.97 64.8488 154.612 63.4396C156.858 58.503 159.181 53.4005 162.629 48.837C163.335 47.9012 164.664 47.7175 165.6 48.4226C166.535 49.1297 166.721 50.4583 166.014 51.3932C162.848 55.5815 160.625 60.469 158.473 65.1955C157.821 66.6292 157.171 68.0551 156.499 69.4594C156.135 70.2195 155.376 70.6643 154.585 70.6643Z" fill="#525D7D"/>
<path d="M184.256 69.2013C183.683 69.2013 183.114 68.9705 182.695 68.5168C179.508 65.0572 177.151 61.0947 174.873 57.2629C173.612 55.1427 172.42 53.1394 171.101 51.2205C170.438 50.2552 170.682 48.9364 171.648 48.2725C172.615 47.6067 173.935 47.8561 174.599 48.8195C175.997 50.8533 177.28 53.0107 178.521 55.0975C180.688 58.7418 182.93 62.5118 185.817 65.6464C186.609 66.5076 186.554 67.849 185.693 68.6415C185.284 69.0166 184.769 69.2013 184.256 69.2013Z" fill="#525D7D"/>
<path d="M71.4665 133.552C70.8514 133.552 70.2412 133.285 69.8227 132.773C69.2822 132.112 68.7713 131.423 68.3046 130.724C67.6532 129.751 67.9155 128.434 68.8892 127.783C69.8639 127.133 71.1805 127.392 71.832 128.368C72.224 128.954 72.6534 129.534 73.1083 130.09C73.8492 130.996 73.7146 132.333 72.8077 133.074C72.4127 133.395 71.9381 133.552 71.4665 133.552Z" fill="#525D7D"/>
<path d="M94.5872 143.805C94.1097 143.805 93.6312 143.795 93.1477 143.776C89.6459 143.629 86.2217 142.969 82.9684 141.812C81.865 141.421 81.2883 140.207 81.6813 139.104C82.0733 138 83.2838 137.42 84.3912 137.818C87.2426 138.831 90.2482 139.41 93.3236 139.537C104.135 139.983 113.348 134.888 120.702 124.388C121.374 123.428 122.694 123.193 123.656 123.867C124.616 124.538 124.85 125.861 124.178 126.82C116.378 137.957 106.172 143.805 94.5872 143.805Z" fill="#525D7D"/>
</svg>
