<svg width="139" height="122" viewBox="0 0 139 122" fill="none" xmlns="http://www.w3.org/2000/svg">
<path d="M59.052 90.7415C57.893 87.7439 56.9325 83.8053 53.7037 82.6121C53.4135 82.5049 52.986 82.6199 52.7851 82.8559C50.5325 85.5049 51.6495 89.4657 52.1118 92.6632C52.8079 97.4807 53.2966 102.484 55.316 106.941C55.8814 108.188 57.6436 109.169 58.9891 109.056C59.7949 108.988 60.4035 108.813 61.1356 108.473C62.3761 107.897 63.3565 106.142 63.2425 104.785C62.833 99.925 60.7992 95.261 59.052 90.7415Z" fill="#E0DFE6"/>
<path d="M63.6855 114.108C63.4169 112.477 61.8244 111.697 60.4327 111.224C59.3906 110.869 57.8809 110.747 56.9599 111.44C56.4059 111.856 56.0569 112.469 56.2536 113.183C56.4131 113.762 56.6997 114.18 57.1122 114.608C57.1542 114.651 57.18 114.676 57.1997 114.696C57.2279 114.735 57.2687 114.79 57.3418 114.885C57.5055 115.098 57.671 115.259 57.8551 115.451C57.9618 115.562 58.0619 115.678 58.1651 115.792C58.1927 115.823 58.213 115.846 58.2328 115.867C58.27 115.917 58.3156 115.977 58.3791 116.059C58.8666 116.692 59.5933 117.281 60.4051 117.402C62.5157 117.715 64.0398 116.258 63.6855 114.108Z" fill="#E0DFE6"/>
<path d="M82.1082 99.5829C81.6579 96.9466 81.1375 94.2428 80.1811 91.7443C79.7968 90.7413 78.3985 90.6438 78.0484 91.7443C77.1718 94.5011 76.827 97.4715 76.5098 100.344C76.0913 104.14 82.8697 104.039 82.1082 99.5829Z" fill="#E0DFE6"/>
<path d="M78.6762 47.2554C77.9729 46.2278 76.7126 45.5396 75.4475 45.9364C72.5239 46.8533 72.2289 48.4397 71.1053 51.0838C69.8701 53.9893 68.1613 56.9314 66.1467 59.3715C61.7241 64.7279 56.2487 67.0072 49.7306 68.6785C48.8702 68.8988 48.9511 70.0915 49.7306 70.3497C56.3962 72.5586 64.1219 69.7904 69.4138 65.5966C73.497 62.3607 82.4734 52.8033 78.6762 47.2554Z" fill="#E0DFE6"/>
<path d="M34.0266 95.22C32.4893 93.1809 29.9542 92.1429 27.4401 92.7709C24.6065 93.4789 22.9894 95.8395 23.4853 98.7196C23.8618 100.907 26.6109 101.618 28.3131 100.692C28.3779 100.656 28.4481 100.623 28.5158 100.588C28.529 100.641 28.5458 100.7 28.5494 100.738C28.7616 102.986 27.0714 105.912 29.7024 107.377C29.7084 107.355 29.7144 107.332 29.7204 107.31C30.0448 107.508 30.4141 107.638 30.7942 107.673C33.4288 107.916 34.8145 104.325 35.3085 102.269C35.8979 99.8159 35.5646 97.2603 34.0266 95.22Z" fill="#E0DFE6"/>
<path d="M12.1716 108.587C9.98554 107.632 8.41642 107.85 6.35864 108.912C7.20765 108.474 5.91554 109.001 5.71468 109.075C5.33394 109.155 5.29617 109.183 5.60256 109.159C5.22902 109.149 4.87526 109.217 4.54129 109.365C3.14425 109.889 2.23527 111.195 2.6346 112.736C3.7936 117.208 11.4917 118.907 13.7102 114.481C14.6569 112.595 14.4015 109.561 12.1716 108.587Z" fill="#E0DFE6"/>
<path d="M121.719 4.22991C121.402 3.85364 120.874 4.11552 120.728 4.493C118.735 9.63744 118.319 16.16 114.519 20.467C112.152 23.1509 108.908 23.7378 105.75 24.5976C105.735 24.4988 105.726 24.3983 105.711 24.2996C105.013 19.8824 98.294 22.2285 98.9883 25.7198C98.7509 27.3266 98.5356 28.9184 98.3156 30.4994C97.9264 30.8287 97.6135 31.2658 97.4456 31.8202C96.4383 35.1544 96.0785 38.5535 96.1781 42.0309C96.268 45.1675 99.2803 46.1512 101.404 44.9628C101.203 45.2608 101.04 45.5378 100.944 45.7774C100.285 47.4366 100.185 48.5955 100.45 50.3041C100.604 51.2975 102.076 51.3691 102.52 50.5756C104.208 47.5612 109.184 44.1988 109.381 40.5486C109.52 37.9749 107.312 36.6149 105.411 35.0761C105.539 34.3849 105.644 33.689 105.735 32.9924C111.505 32.5301 117.93 29.1111 120.77 24.5115C123.797 19.6072 125.715 8.97038 121.719 4.22991Z" fill="#E0DFE6"/>
<path d="M133.762 38.0303C132.575 35.7552 124.699 22.3724 121.122 25.7878C120.932 25.9702 121.01 26.2441 121.199 26.382C121.241 26.4127 121.283 26.4434 121.324 26.4747C121.507 26.609 121.778 26.4283 121.771 26.2176C121.856 28.7378 123.146 30.5571 124.315 32.9436C125.849 36.0743 127.157 39.3373 128.192 42.6702C130.277 49.389 131.513 56.1481 131.099 63.2125C130.703 69.9782 128.756 76.9143 125.718 82.9618C124.192 86.0003 122.421 89.0575 120.107 91.5626C119.132 92.6173 118.039 93.4367 116.88 94.1429C118.035 92.9328 118.834 91.5144 118.955 89.9461C119.036 88.9015 117.893 88.1936 116.974 88.4314C114.884 88.9732 113.598 90.5084 112.045 91.8961C111.004 92.8257 109.854 93.6185 108.742 94.4572C108.215 93.9256 107.501 93.5565 106.799 93.4981C105.12 93.3597 103.818 94.2429 102.425 95.049C101.947 95.3259 101.487 95.5433 101.026 95.7347C100.528 94.1851 99.7843 92.7251 98.7093 91.4277C97.7625 87.6764 96.4926 84.0407 94.9468 80.6578C92.919 76.2208 89.6849 72.8222 85.2563 70.7699C83.3412 69.8825 81.3344 69.2642 79.2598 68.8969C79.068 68.8626 78.6854 68.8343 78.195 68.8048C81.9682 64.3521 85.7048 58.5635 88.033 53.3576C90.7527 47.2758 89.0619 41.1663 86.9154 35.185C83.7345 26.3206 77.8874 12.1118 66.3273 12.629C65.8626 12.6494 65.7169 13.2316 66.0959 13.4869C74.2916 18.9998 77.6865 26.6481 80.7366 35.6811C80.4836 35.6402 80.2258 35.6245 79.9631 35.654C78.731 35.7913 78.5691 35.9701 78.0271 35.5878C77.1385 34.9611 76.458 33.5975 75.8164 32.7221C74.2946 30.6456 73.0895 28.3513 71.5329 26.3079C69.6766 23.8703 65.5611 20.4386 62.4234 22.68C61.9815 22.9955 61.8826 23.4458 62.0942 23.9395C62.6057 25.1316 63.5794 25.7631 64.3577 26.7872C65.3002 28.0268 65.7649 29.4151 66.2883 30.863C67.4276 34.0129 68.6064 37.3223 70.4789 40.1176C73.2933 44.3186 79.556 47.0495 82.7254 42.7798C83.2345 45.9345 82.9299 48.9694 80.7912 52.1445C78.1092 56.1252 75.242 60.8163 71.9736 64.3136C71.232 65.1071 70.919 65.9921 70.916 66.8506C70.4969 66.2335 69.733 65.9788 68.9199 66.375C65.7361 67.927 67.0966 72.0908 69.5915 73.6338C71.714 74.9462 74.2407 74.517 76.6055 74.7987C79.2412 75.113 81.9784 75.8571 84.2454 77.2779C89.4864 80.5627 91.3307 87.4013 92.6546 93.1032C93.801 98.0399 94.0151 102.856 93.9353 107.763C93.6685 109.029 93.2062 110.116 92.3962 110.709C90.3384 112.217 85.8973 112.462 83.4539 113.013C80.0537 113.779 76.4082 114.216 73.1902 115.565C71.9029 116.105 71.8825 117.693 73.1902 118.229C77.5528 120.016 82.7818 119.666 87.3626 119.114C90.3696 118.752 94.4372 118.471 97.2235 116.71C98.4586 116.715 99.6164 116.052 99.8922 114.47C99.9498 114.139 99.9918 113.803 100.042 113.469C101.461 110.551 101.675 106.682 101.84 103.732C101.909 102.5 101.911 101.254 101.82 100.024C104.272 100.09 106.732 99.8346 108.444 98.238C109.225 98.1585 110.061 97.9869 110.919 97.716C110.767 98.4355 111.108 99.2886 111.722 99.7082C118.884 104.604 126.583 94.9569 130.141 89.6523C135.289 81.9769 138.167 73.1239 138.855 63.9168C139.52 55.0554 137.879 45.9206 133.762 38.0303Z" fill="#E0DFE6"/>
<path d="M118.894 53.3716C118.669 52.0953 116.463 52.3734 116.617 53.6811C117.008 57.0134 116.585 60.6358 115.157 63.7014C114.065 66.044 111.9 67.3919 112.562 70.2071C112.751 71.0108 113.476 71.7387 114.276 71.9283C114.425 71.9632 114.574 71.9988 114.722 72.0337C115.792 72.2871 117.121 72.0824 117.878 71.1962C122.599 65.6671 120.004 59.6521 118.894 53.3716Z" fill="#E0DFE6"/>
<path d="M80.3612 40.9473C79.6885 40.9473 79.1207 40.4253 79.0715 39.7414C78.9078 37.4741 78.4935 35.2448 77.8411 33.1135C72.7824 16.5947 65.2246 13.1896 53.047 12.6827C50.8069 12.5906 48.8187 12.9265 46.9606 13.7116C46.301 13.9933 45.5426 13.6803 45.265 13.0186C44.9873 12.3576 45.2967 11.5954 45.9551 11.3166C48.1718 10.3781 50.5257 9.98312 53.1537 10.0843C66.2044 10.6273 74.8324 14.4448 80.3156 32.3489C81.0256 34.6668 81.4764 37.0906 81.6539 39.553C81.7061 40.2688 81.1701 40.8919 80.4565 40.9431C80.4242 40.9461 80.3924 40.9473 80.3612 40.9473Z" fill="#525D7D"/>
<path d="M53.7692 73.2948C53.2973 73.2948 52.8254 73.2816 52.3511 73.2515C43.8124 72.7283 36.6024 67.9427 32.0479 59.7766C30.7384 57.4281 29.9661 53.2276 30.0675 50.7785C30.0831 50.507 30.1196 49.8875 30.1412 49.3703C30.218 47.51 30.2066 45.6136 30.1946 43.6046C30.1826 41.5962 30.17 39.5197 30.2545 37.4836C30.411 33.6715 30.9099 28.7625 33.3922 24.6054C34.285 23.1111 35.0878 21.839 35.8475 20.7162C36.2492 20.1238 37.0539 19.9697 37.6457 20.3712C38.2369 20.7746 38.391 21.5831 37.9892 22.1773C37.2577 23.2586 36.4801 24.491 35.6137 25.9431C33.9114 28.7932 33.0564 32.3862 32.8418 37.5926C32.7602 39.5667 32.7728 41.6124 32.7842 43.5901C32.7956 45.5408 32.8076 47.5576 32.7284 49.4793C32.7063 50.0139 32.6685 50.6551 32.6571 50.8514C32.5702 52.9338 33.2591 56.6279 34.3072 58.5081C38.4161 65.8753 44.8803 70.1895 52.5088 70.6579C64.503 71.3822 76.2405 61.0252 78.6599 47.5449C78.7864 46.8382 79.4585 46.3752 80.1636 46.4956C80.8669 46.6232 81.3346 47.2987 81.2081 48.0055C78.6131 62.4629 66.7209 73.2942 53.7692 73.2948Z" fill="#525D7D"/>
<path d="M75.7049 49.4047C75.0903 49.4047 74.5441 48.9628 74.4326 48.3337C74.3067 47.6269 74.7749 46.9514 75.4789 46.8256C75.8806 46.7539 76.3908 46.7353 77.036 46.713C80.1239 46.604 82.0497 46.2416 82.1103 44.7726C82.1648 43.4499 81.8543 42.4186 81.1869 41.7064C80.4716 40.943 79.3312 40.524 77.7963 40.4608C77.301 40.4403 76.765 40.4572 76.2019 40.5144C75.4914 40.5951 74.8559 40.0653 74.7845 39.3506C74.7132 38.6366 75.2318 37.9991 75.9435 37.928C76.6265 37.8594 77.286 37.8377 77.9042 37.863C80.1382 37.9563 81.8771 38.6499 83.0726 39.9256C84.2184 41.1483 84.7803 42.8623 84.6969 44.881C84.5254 49.0495 79.5279 49.2265 77.1271 49.3108C76.6498 49.3277 76.1558 49.3445 75.9351 49.3843C75.8572 49.3975 75.7804 49.4047 75.7049 49.4047Z" fill="#525D7D"/>
<path d="M48.5426 57.2224C48.4286 57.2224 48.3141 57.22 48.199 57.2158C46.956 57.164 46.0045 56.8925 45.2886 56.3861C44.629 55.9196 43.8568 55.0219 43.9239 53.394C43.9875 51.8582 45.0542 50.7071 45.4049 50.329C45.9595 49.7318 46.5771 49.3176 47.1743 48.9184C48.786 47.8402 50.3089 46.8221 50.5218 41.6542C50.6603 38.2804 49.1481 36.5742 45.8996 36.4399C44.168 36.3611 42.2253 36.7325 40.5429 37.0823C39.8455 37.2322 39.1584 36.7759 39.0133 36.0727C38.8688 35.3695 39.3191 34.6814 40.0194 34.5369C41.8536 34.157 43.9821 33.7614 46.0069 33.8421C50.6495 34.0354 53.3045 36.9962 53.1084 41.762C52.841 48.252 50.4948 49.8215 48.6097 51.0828C48.0935 51.4283 47.648 51.7269 47.3002 52.1008C46.7852 52.6559 46.5267 53.1147 46.5112 53.503C46.4884 54.0556 46.6784 54.1899 46.7804 54.2621C46.9447 54.3789 47.3614 54.5794 48.3063 54.6186C48.9485 54.6462 49.626 54.5559 50.3449 54.4602C51.1663 54.3512 52.0148 54.2369 52.9339 54.2766C53.648 54.3061 54.2033 54.9123 54.1739 55.6288C54.1445 56.3458 53.5473 56.8864 52.8272 56.8744C52.1341 56.8407 51.4296 56.9394 50.6837 57.0375C49.9942 57.1285 49.283 57.2224 48.5426 57.2224Z" fill="#525D7D"/>
<path d="M53.3476 66.3168C53.2133 66.3168 53.0796 66.3144 52.9464 66.3089C52.092 66.274 51.2484 66.1253 50.439 65.8683C49.7572 65.6515 49.3801 64.9212 49.596 64.2367C49.8118 63.5522 50.5397 63.1729 51.2214 63.3903C51.8108 63.5775 52.4272 63.6859 53.0526 63.7111C54.6211 63.7798 56.2837 63.3234 57.7383 62.436C58.3475 62.0609 59.145 62.2566 59.5173 62.8707C59.8885 63.4842 59.6948 64.2837 59.0838 64.6563C57.3186 65.7346 55.2974 66.3168 53.3476 66.3168Z" fill="#525D7D"/>
<path d="M41.2281 43.1915C41.0584 43.1915 40.8959 43.1867 40.7424 43.1807C40.439 43.168 40.135 43.1452 39.831 43.1223C39.5612 43.1018 39.2914 43.0813 39.0216 43.0705C38.3075 43.0398 37.7529 42.4335 37.7834 41.7165C37.814 40.9989 38.4112 40.4432 39.1319 40.4727C39.4293 40.4853 39.7267 40.5076 40.0235 40.5305C40.2987 40.551 40.5745 40.572 40.8497 40.5829C41.7365 40.6238 42.3181 40.5341 42.8697 40.2849C43.5227 39.9893 44.2884 40.2825 44.5816 40.9375C44.8748 41.5919 44.584 42.3619 43.9316 42.6563C42.9591 43.0946 42.0135 43.1915 41.2281 43.1915Z" fill="#525D7D"/>
<path d="M60.3355 42.7372C60.2396 42.7372 60.1436 42.7348 60.0483 42.7312C59.3948 42.7041 58.7388 42.5831 58.0997 42.3706C57.4209 42.1448 57.0528 41.4091 57.2782 40.7282C57.5031 40.0473 58.234 39.6789 58.9139 39.9028C59.3228 40.0389 59.7407 40.1159 60.1544 40.1328C60.9477 40.1647 61.7673 39.9871 62.6553 39.5867C63.3071 39.2923 64.0739 39.5849 64.3665 40.2394C64.6597 40.8944 64.3683 41.6638 63.7166 41.9582C62.5708 42.4753 61.4352 42.7372 60.3355 42.7372Z" fill="#525D7D"/>
<path d="M37.8081 33.1574C37.2457 33.1574 36.7276 32.7866 36.5645 32.217C36.3667 31.5271 36.7636 30.807 37.4501 30.6084C37.952 30.4639 38.4544 30.2917 38.9605 30.1189C40.541 29.5807 42.1773 29.034 43.9982 29.0984C44.2489 29.1087 44.5025 29.1316 44.7573 29.1689C45.4648 29.2712 45.9559 29.9299 45.8539 30.6403C45.7514 31.3501 45.0979 31.8444 44.388 31.7414C44.2213 31.7179 44.0564 31.7035 43.8921 31.6963C42.5448 31.6336 41.2101 32.0966 39.7921 32.5807C39.2477 32.7661 38.7063 32.9503 38.1666 33.1062C38.0473 33.1412 37.9268 33.1574 37.8081 33.1574Z" fill="#525D7D"/>
<path d="M64.9097 32.3604C64.7221 32.3604 64.532 32.32 64.3515 32.2327C64.0781 32.1015 63.7795 32.0353 63.3844 32.0184C63.0498 32.0003 62.6871 32.0292 62.3027 32.0557C61.8662 32.0864 61.4141 32.1177 60.9351 32.0973C60.4068 32.075 59.9343 31.9925 59.4913 31.845C58.8125 31.6192 58.4444 30.8836 58.6698 30.2026C58.8947 29.5217 59.6292 29.1539 60.3055 29.3778C60.5201 29.4489 60.754 29.488 61.0424 29.4995C61.3806 29.5175 61.7421 29.4892 62.1258 29.4621C62.5629 29.4314 63.0156 29.4001 63.4929 29.4206C64.2358 29.4525 64.8815 29.606 65.4697 29.8884C66.1149 30.1978 66.3871 30.9751 66.0777 31.6223C65.8553 32.0888 65.3924 32.3604 64.9097 32.3604Z" fill="#525D7D"/>
<path d="M78.6074 36.6221C78.4533 36.6221 78.3016 36.6185 78.1517 36.6131C73.5835 36.4228 72.1547 32.7636 70.8937 29.5343C69.5447 26.0791 68.3791 23.0942 63.9901 22.9124C63.4157 22.8853 61.0797 23.1334 54.7348 27.2621C54.4267 27.4626 54.1868 27.6372 53.7659 27.6017C53.5644 27.5921 53.3714 27.5541 53.1861 27.4897C51.0528 26.7318 50.6343 24.9533 50.3291 23.6553C49.9273 21.9461 49.6617 20.8161 46.1493 20.6704C42.6531 20.5386 38.1892 22.8275 35.7579 26.0244C35.3238 26.5945 34.5107 26.7029 33.9435 26.2688C33.3751 25.8329 33.2666 25.0171 33.7001 24.447C36.6459 20.5735 41.9223 17.9155 46.2567 18.072C51.7309 18.3002 52.4042 21.1635 52.8497 23.0575C53.0914 24.0876 53.2419 24.5716 53.6718 24.8564C58.4919 21.7547 61.9982 20.2478 64.0974 20.314C70.1736 20.5669 71.9094 25.0123 73.3047 28.5854C74.6292 31.9761 75.5123 33.9009 78.2609 34.0152C78.6344 34.0333 79.0433 34.0213 79.4804 33.9833C80.1885 33.9346 80.8187 34.4541 80.8793 35.17C80.9392 35.8852 80.4104 36.5137 79.6981 36.5745C79.3143 36.6058 78.954 36.6221 78.6074 36.6221Z" fill="#525D7D"/>
<path d="M35.4238 22.8789C35.2157 22.8789 35.0149 22.8741 34.8224 22.8662C34.155 22.8385 33.4907 22.7669 32.8485 22.6989C32.2166 22.6314 31.6188 22.5676 31.0318 22.5441C29.4261 22.4773 29.1509 21.4051 29.1053 21.0782C28.5663 17.2546 45.5706 11.4317 47.5115 10.7803C48.1914 10.5533 48.9235 10.9205 49.1501 11.6014C49.3762 12.2823 49.0104 13.0186 48.3323 13.2468C39.8613 16.0903 35.0268 18.6411 32.8959 20.0902C32.9721 20.098 33.047 20.1065 33.122 20.1137C33.7509 20.1817 34.3457 20.2437 34.9303 20.2684C36.3273 20.3274 37.2819 20.1342 38.1171 19.6236C38.7281 19.2486 39.5238 19.4448 39.8961 20.0577C40.2678 20.6712 40.0742 21.4707 39.4638 21.844C38.059 22.7031 36.6193 22.8789 35.4238 22.8789Z" fill="#525D7D"/>
<path d="M39.7883 81.5682C39.2756 81.5682 38.7911 81.2611 38.5879 80.7548C38.3199 80.0896 38.64 79.3316 39.3032 79.0631C42.6987 77.6862 46.1103 75.8072 48.0698 71.425C48.363 70.77 49.1274 70.478 49.781 70.7718C50.4333 71.0656 50.7247 71.835 50.4321 72.4894C48.0919 77.7241 43.983 79.9686 40.2727 81.4731C40.1144 81.5375 39.9501 81.5682 39.7883 81.5682Z" fill="#525D7D"/>
<path d="M95.3513 110.989C94.6738 110.989 94.1042 110.461 94.0604 109.773C93.9195 107.551 93.9993 105.336 94.0766 103.194C94.2007 99.7582 94.3171 96.5132 93.6083 93.2099C91.1632 81.8186 81.2724 79.5194 73.3243 77.6712C67.6258 76.3467 62.7044 75.2028 62.8909 70.6797C62.8993 70.4696 62.9203 70.2546 62.9538 70.0349C63.0624 69.3251 63.7213 68.8356 64.4294 68.9476C65.1363 69.056 65.6214 69.72 65.5123 70.4292C65.4937 70.5508 65.4823 70.6712 65.4775 70.788C65.3846 73.0415 68.6205 73.9096 73.9083 75.1396C82.1125 77.0463 93.3475 79.6585 96.1386 92.662C96.9157 96.2821 96.7874 99.8443 96.6632 103.288C96.5889 105.366 96.5109 107.516 96.6441 109.607C96.6896 110.324 96.1476 110.942 95.4341 110.988C95.4071 110.989 95.3789 110.989 95.3513 110.989Z" fill="#525D7D"/>
<path d="M13.4863 117.633C12.8424 117.633 12.2961 117.158 12.205 116.517C11.6414 112.549 11.058 108.581 10.474 104.604C9.34197 96.898 8.17157 88.9287 7.15228 81.0053C7.10371 80.6278 7.22243 80.2479 7.47665 79.9662C7.73088 79.6844 8.09483 79.5074 8.47437 79.5399C16.5526 79.7795 24.7364 79.4899 32.6515 79.2082C38.2925 79.0077 44.1253 78.8 49.8543 78.7886C50.4803 78.7886 51.0157 79.2353 51.1296 79.8512C52.3486 86.4441 53.6455 93.9353 54.7895 100.545C56.0331 107.725 57.1069 113.925 57.4589 115.323C57.5554 115.705 57.4733 116.113 57.2358 116.427C56.9984 116.742 56.6308 116.931 56.2369 116.942C41.3342 117.32 26.3631 117.497 13.4863 117.633ZM9.91517 82.1775C10.8841 89.5814 11.9766 97.0184 13.0348 104.225C13.5643 107.828 14.0931 111.426 14.6069 115.022C26.7498 114.892 40.6812 114.723 54.6138 114.381C54.1108 111.802 53.2582 106.88 52.2383 100.989C51.1566 94.7415 49.9377 87.7048 48.7804 81.3918C43.4399 81.4249 38.0071 81.6188 32.7427 81.8054C25.2796 82.0715 17.5791 82.343 9.91517 82.1775Z" fill="#525D7D"/>
<path d="M14.2018 122C13.49 122 12.9108 121.423 12.9072 120.707C12.9036 119.989 13.4798 119.405 14.1946 119.4C26.5305 119.333 38.9815 118.999 51.0236 118.676C57.3535 118.507 63.6941 118.337 70.0677 118.201C70.7914 118.214 71.3742 118.756 71.3892 119.474C71.4042 120.192 70.837 120.786 70.1223 120.801C63.7535 120.936 57.4176 121.105 51.0926 121.275C39.0373 121.598 26.5718 121.933 14.2018 122Z" fill="#525D7D"/>
<path d="M2.16885 115.397C1.55248 115.397 1.05782 115.263 0.651897 114.928C0.207602 114.561 -0.0238385 114.018 0.0019438 113.399C0.2106 108.337 3.04425 102.901 8.90582 102.169C9.60674 102.079 10.2621 102.586 10.3502 103.298C10.4384 104.011 9.93471 104.661 9.2248 104.748C4.87959 105.292 2.99628 109.247 2.64133 112.761C3.2661 112.669 4.21165 112.44 5.01809 112.244C7.01412 111.76 9.49881 111.158 12.1112 111.066C12.8079 111.018 13.4261 111.6 13.4507 112.319C13.4759 113.037 12.9171 113.638 12.2024 113.664C9.85197 113.747 7.50878 114.315 5.62608 114.772C4.16548 115.126 3.04425 115.397 2.16885 115.397Z" fill="#525D7D"/>
<path d="M30.0111 105.801C29.7353 105.801 29.4565 105.713 29.2215 105.53L28.9265 105.302C26.3693 103.322 23.7245 101.275 21.1918 99.1657C20.8746 98.9014 20.7014 98.5016 20.7259 98.0874C20.7505 97.6738 20.97 97.2969 21.3165 97.073C23.5434 95.6317 25.6875 94.1561 27.9564 92.5938L29.9782 91.2043C30.5118 90.8395 31.2307 90.9243 31.6654 91.4042C33.3461 93.2591 35.1964 95.02 37.3225 96.7882C37.6109 97.0284 37.7824 97.3824 37.7914 97.7581C37.8004 98.135 37.6463 98.4968 37.3693 98.7497C35.1958 100.739 32.9221 102.911 31.0257 105.31C30.7702 105.633 30.3925 105.801 30.0111 105.801ZM24.2053 98.2837C26.0539 99.7858 27.9498 101.262 29.8097 102.703C31.2955 100.952 32.9275 99.3379 34.5422 97.8292C33.0894 96.5655 31.7601 95.2946 30.5196 93.9827L29.4218 94.7377C27.7153 95.9116 25.9657 97.1169 24.2053 98.2837Z" fill="#525D7D"/>
<path d="M72.949 117.253C72.853 117.253 72.7571 117.25 72.6606 117.247C69.3317 117.108 66.82 114.422 64.6039 112.051C64.2022 111.621 63.8071 111.198 63.4155 110.801C61.7121 112.605 59.881 114.134 57.5294 114.043C56.5778 114.004 55.6917 113.694 55.0333 113.171C54.2059 112.513 53.7742 111.562 53.8185 110.491C54.1123 103.36 64.8396 96.2507 70.4643 96.4813C73.1492 96.5939 75.6759 98.2103 77.5802 101.033C79.2291 103.479 80.1506 106.468 80.0451 109.029C79.957 111.167 79.271 113.167 78.1138 114.661C76.8133 116.338 74.9876 117.253 72.949 117.253ZM65.1621 108.877C65.5992 109.317 66.0417 109.791 66.492 110.272C68.4599 112.378 70.4955 114.555 72.7679 114.649C74.1068 114.701 75.2118 114.172 76.0698 113.064C76.8871 112.01 77.3931 110.499 77.4585 108.921C77.6126 105.173 74.6332 99.2567 70.3576 99.0785C68.3118 98.9701 64.8084 100.489 61.856 102.717C58.5433 105.216 56.5059 108.162 56.4052 110.599C56.3956 110.836 56.4639 110.991 56.6408 111.131C56.8668 111.311 57.2386 111.428 57.6367 111.444C57.6679 111.446 57.6991 111.447 57.7302 111.447C59.3755 111.447 60.9782 109.657 62.6726 107.765C63.9324 106.358 65.2359 104.904 66.7786 103.912C67.3818 103.525 68.1823 103.702 68.5666 104.306C68.9521 104.91 68.7765 105.714 68.1745 106.102C67.1306 106.774 66.1317 107.807 65.1621 108.877Z" fill="#525D7D"/>
<path d="M91.4819 111.331C90.9879 111.331 90.516 111.045 90.3001 110.563C88.4618 106.455 83.6303 104.824 80.0508 104.676C79.5106 104.653 78.9751 104.661 78.4601 104.701C77.743 104.766 77.1254 104.221 77.0702 103.505C77.0157 102.79 77.5487 102.165 78.2616 102.11C78.878 102.061 79.516 102.052 80.1575 102.078C84.4746 102.257 90.3391 104.309 92.6613 109.499C92.9539 110.153 92.6631 110.922 92.0114 111.217C91.8393 111.294 91.6594 111.331 91.4819 111.331Z" fill="#525D7D"/>
<path d="M88.5011 117.252C88.0304 117.252 87.5334 117.241 87.0081 117.22C85.5146 117.157 83.9778 116.98 82.4914 116.809C81.0098 116.639 79.4779 116.463 77.9981 116.402C77.5718 116.383 77.1467 116.373 76.7216 116.379C75.9997 116.379 75.4217 115.806 75.4151 115.092C75.4085 114.374 75.9823 113.786 76.6976 113.78C77.1635 113.774 77.6348 113.784 78.1054 113.804C79.6788 113.869 81.2581 114.051 82.7858 114.226C84.2926 114.4 85.7154 114.563 87.1155 114.621C91.0565 114.788 92.486 114.258 92.9902 113.786C93.3985 113.405 93.4375 112.78 93.4705 111.708C93.4957 110.88 93.5244 109.943 93.8434 108.975C94.0683 108.294 94.8022 107.925 95.4791 108.151C96.1578 108.376 96.5266 109.111 96.3011 109.793C96.1009 110.4 96.0805 111.074 96.0583 111.788C96.0181 113.083 95.9732 114.551 94.7542 115.69C93.6126 116.757 91.6549 117.252 88.5011 117.252Z" fill="#525D7D"/>
<path d="M104.771 24.4749C104.444 24.4749 104.113 24.467 103.773 24.4538C98.2818 24.225 94.3107 22.1877 91.97 18.3973C89.9769 15.1703 89.1291 10.6538 89.3797 4.58885C89.4091 3.87182 90.0045 3.30831 90.7264 3.34383C91.4405 3.37333 91.9963 3.97959 91.9664 4.69722C91.7385 10.224 92.4592 14.257 94.1704 17.027C96.0579 20.0836 99.234 21.6627 103.88 21.856C114.97 22.325 116.518 14.2197 118.31 4.84231L118.427 4.22943C118.563 3.52625 119.24 3.06569 119.944 3.19934C120.646 3.3348 121.105 4.01691 120.97 4.7219L120.853 5.33177C119.135 14.3184 117.191 24.4731 104.771 24.4749Z" fill="#525D7D"/>
<path d="M104.117 17.4678C104.046 17.4678 103.975 17.466 103.902 17.4636C101.126 17.3474 99.5714 16.3679 99.6367 14.7743C99.6661 14.0566 100.268 13.4811 100.983 13.5286C101.578 13.5533 102.062 13.9771 102.191 14.5322C102.484 14.6677 103.166 14.8308 104.01 14.8658C104.633 14.891 104.894 14.708 105.115 14.4046C105.535 13.8242 106.346 13.6972 106.923 14.1186C107.501 14.5419 107.629 15.354 107.207 15.9344C106.468 16.9524 105.429 17.4678 104.117 17.4678Z" fill="#525D7D"/>
<path d="M104.692 11.1986C104.673 11.1986 104.654 11.1986 104.635 11.198L104.122 11.1812C102.916 11.1312 102.041 10.7868 101.446 10.1294C100.57 9.16132 100.639 7.88078 100.694 6.85189L100.714 6.47802C100.785 4.74234 101.069 2.9916 101.605 0.96694C101.789 0.272184 102.502 -0.142622 103.189 0.0452148C103.881 0.229439 104.291 0.941654 104.107 1.63521C103.62 3.47143 103.364 5.04456 103.3 6.58519L103.279 6.99217C103.255 7.44972 103.213 8.21732 103.361 8.38107C103.42 8.44549 103.667 8.56048 104.227 8.58336L104.748 8.60022C105.462 8.63212 106.016 9.23898 105.985 9.95662C105.954 10.6538 105.381 11.1986 104.692 11.1986Z" fill="#525D7D"/>
<path d="M80.3737 29.9787C79.8623 29.9787 79.3778 29.6723 79.1734 29.1672C78.9047 28.5019 79.2237 27.7439 79.8869 27.4748L80.9457 27.0426C86.8733 24.6206 93.0022 22.1173 99.6745 21.5935C100.392 21.5231 101.01 22.0727 101.066 22.7873C101.122 23.5032 100.589 24.1287 99.8759 24.1847C93.6054 24.6771 87.6659 27.1034 81.9213 29.4501L80.8594 29.8836C80.7005 29.9486 80.5356 29.9787 80.3737 29.9787Z" fill="#525D7D"/>
<path d="M108.873 100.439C108.375 100.439 107.903 100.15 107.689 99.6673C106.866 97.8088 106.269 96.2537 105.828 94.7998C105.642 94.8708 105.456 94.9413 105.27 95.0111C104.688 95.2308 104.106 95.4512 103.523 95.6764C103.2 95.8028 102.84 95.7907 102.525 95.6487C102.209 95.506 101.964 95.2405 101.843 94.9148C99.6811 89.0455 97.9825 82.8186 96.6496 75.8794C96.5153 75.1799 96.9668 74.502 97.6617 74.3593C98.9191 74.1022 100.167 73.8066 101.412 73.5128C102.333 73.2955 103.271 73.0733 104.216 72.8674C102.087 70.0107 100.417 67.1769 100.538 64.2582C100.597 62.8145 101.218 61.2522 102.198 60.0795C103.368 58.6773 104.913 57.9513 106.558 58.0115C110.191 58.162 110.676 60.991 111.029 63.0566C111.496 65.7874 111.937 68.3666 117.416 69.0553C119.465 69.3124 125.255 73.7867 124.785 85.2002L124.725 86.5988C124.717 86.7806 124.673 86.9528 124.599 87.1063C127.759 82.9257 130.115 77.1534 130.449 69.0475C131.463 44.4655 124.949 30.0093 110.535 24.8528C109.862 24.6114 109.511 23.8685 109.751 23.1918C109.991 22.5163 110.73 22.1611 111.405 22.4037C126.811 27.9154 134.088 43.6444 133.036 69.1558C132.104 91.7751 116.72 97.5704 109.328 100.355C109.177 100.413 109.024 100.439 108.873 100.439ZM106.696 91.7769C106.901 91.7769 107.106 91.8263 107.293 91.9232C107.623 92.096 107.863 92.4012 107.952 92.7643C108.305 94.1935 108.813 95.6836 109.57 97.4855C113.716 95.8919 119.744 93.2652 124.265 87.5398C124.026 87.7421 123.714 87.8546 123.378 87.8444C122.664 87.8137 122.109 87.2086 122.139 86.491L122.199 85.0925C122.651 74.1149 117.087 71.6399 117.031 71.6236C109.712 70.7073 108.969 66.3684 108.478 63.4973C108.08 61.1728 107.862 60.6683 106.453 60.6099C105.403 60.5575 104.639 61.2065 104.183 61.7513C103.568 62.4876 103.163 63.4906 103.126 64.3672C103.02 66.959 105.243 70.0144 107.53 72.921C107.811 73.2792 107.885 73.7578 107.725 74.1847C107.565 74.6109 107.195 74.9228 106.748 75.0059C105.176 75.2961 103.565 75.6759 102.005 76.0444C101.165 76.2431 100.304 76.4466 99.4383 76.6386C100.609 82.4573 102.051 87.7625 103.827 92.7799C104.004 92.7131 104.18 92.6463 104.358 92.5795C104.981 92.3435 105.605 92.1081 106.229 91.866C106.379 91.8058 106.538 91.7769 106.696 91.7769Z" fill="#525D7D"/>
<path d="M119.669 72.8459C119.452 72.8459 119.232 72.7911 119.029 72.6749C118.408 72.3185 118.192 71.525 118.546 70.9013C120.659 67.1855 121.757 62.6937 122.002 56.7666C122.12 53.9015 122.038 50.9798 121.959 48.1544C121.938 47.3916 121.917 46.6342 121.9 45.8829C121.884 45.1653 122.449 44.5704 123.164 44.5536C123.892 44.5367 124.473 45.1063 124.488 45.8239C124.506 46.5704 124.527 47.3236 124.548 48.0815C124.628 50.9515 124.711 53.9183 124.589 56.8744C124.327 63.2331 123.121 68.1 120.795 72.1915C120.556 72.6105 120.119 72.8459 119.669 72.8459Z" fill="#525D7D"/>
<path d="M99.8242 82.7409C99.2228 82.7409 98.6838 82.3189 98.5573 81.7042C98.4128 81.001 98.8631 80.3129 99.5634 80.1684C101.266 79.8144 102.899 79.5995 104.479 79.3906C106.012 79.1883 107.597 78.9782 109.208 78.6452C109.906 78.4977 110.593 78.9517 110.738 79.6549C110.882 80.3581 110.432 81.0462 109.732 81.1907C108.029 81.5447 106.396 81.7596 104.816 81.9685C103.283 82.1708 101.697 82.3809 100.087 82.7138C99.9987 82.7325 99.9105 82.7409 99.8242 82.7409Z" fill="#525D7D"/>
<path d="M101.548 89.4025C101.413 89.4025 101.277 89.3989 101.14 89.3941C100.426 89.3634 99.8706 88.7583 99.9006 88.0407C99.93 87.323 100.515 86.7583 101.248 86.7957C102.454 86.8462 103.643 86.5825 104.908 86.3038C106.279 86.0016 107.699 85.6963 109.23 85.7529C109.944 85.7824 110.499 86.3887 110.47 87.1051C110.44 87.8227 109.823 88.3796 109.123 88.3507C107.931 88.3002 106.73 88.5638 105.464 88.8426C104.215 89.1183 102.927 89.4025 101.548 89.4025Z" fill="#525D7D"/>
<path d="M106.596 94.5644C106.532 94.5644 106.468 94.5638 106.402 94.5608C105.688 94.5313 105.133 93.9251 105.162 93.2086C105.191 92.491 105.786 91.9197 106.509 91.963C107.11 92.0009 107.709 91.7529 108.349 91.5061C108.808 91.3285 109.281 91.1448 109.792 91.0389C110.494 90.8944 111.177 91.3459 111.321 92.0485C111.466 92.7517 111.016 93.4386 110.316 93.5843C110.014 93.6469 109.657 93.7848 109.281 93.9311C108.548 94.2153 107.646 94.5644 106.596 94.5644Z" fill="#525D7D"/>
<path d="M102.047 55.2089C101.682 55.2089 101.333 55.0542 101.087 54.7815C97.0286 50.2776 90.6982 38.4686 88.3148 34.0219C87.9623 33.3645 87.714 32.9015 87.5965 32.6932C87.2428 32.0695 87.4598 31.276 88.081 30.9202C88.7016 30.5662 89.4924 30.7823 89.8468 31.4066C89.9697 31.6234 90.2281 32.1056 90.5945 32.7895C92.5407 36.4198 98.1391 46.8628 102.02 51.8477C103.363 50.1584 104.741 48.4913 106.081 46.8682C110.543 41.4667 114.756 36.3656 117.907 30.4849C118.245 29.8534 119.029 29.6167 119.66 29.9557C120.29 30.2959 120.526 31.0845 120.187 31.7167C116.914 37.825 112.419 43.2656 108.074 48.5275C106.412 50.5389 104.694 52.6189 103.066 54.7086C102.831 55.0108 102.475 55.1933 102.093 55.2071C102.078 55.2089 102.063 55.2089 102.047 55.2089Z" fill="#525D7D"/>
<path d="M103.769 31.8559C103.691 31.8559 103.613 31.8541 103.532 31.8511C98.5348 31.6428 98.2524 28.3135 98.3801 25.21L98.4257 24.207C98.4557 23.49 99.0493 22.9373 99.7736 22.962C100.488 22.9927 101.042 23.5983 101.012 24.3154L100.967 25.3172C100.825 28.7602 101.382 29.1594 103.639 29.2533C104.235 29.272 104.689 29.1287 104.992 28.8126C105.29 28.502 105.467 28.0011 105.492 27.4038C105.523 26.6507 105.34 25.7765 105.177 25.0986C105.009 24.4003 105.436 23.6983 106.131 23.5297C106.828 23.3641 107.526 23.7904 107.694 24.4875C107.897 25.3304 108.124 26.4358 108.079 27.511C108.027 28.7602 107.607 29.8331 106.861 30.6133C106.31 31.1883 105.334 31.8559 103.769 31.8559Z" fill="#525D7D"/>
<path d="M94.0755 42.9191C93.8878 42.9191 93.6977 42.8781 93.5173 42.792C92.8727 42.4826 92.5999 41.7054 92.9081 41.0582C93.3104 40.2129 93.7001 39.3538 94.0917 38.4899C95.4623 35.4634 96.8803 32.3352 98.9843 29.5375C99.4148 28.9638 100.226 28.8512 100.797 29.2834C101.368 29.7169 101.481 30.5315 101.05 31.1046C99.118 33.6723 97.7611 36.6687 96.448 39.5663C96.0499 40.4453 95.6536 41.3194 95.2435 42.1804C95.0216 42.6463 94.5581 42.9191 94.0755 42.9191Z" fill="#525D7D"/>
<path d="M112.181 42.0219C111.832 42.0219 111.484 41.8804 111.229 41.6023C109.283 39.4813 107.846 37.052 106.455 34.7029C105.686 33.4031 104.959 32.1749 104.153 30.9985C103.749 30.4067 103.898 29.5982 104.487 29.1912C105.077 28.783 105.883 28.9359 106.288 29.5265C107.141 30.7734 107.924 32.096 108.681 33.3754C110.004 35.6096 111.372 37.9208 113.133 39.8425C113.617 40.3705 113.584 41.1929 113.058 41.6787C112.808 41.9087 112.494 42.0219 112.181 42.0219Z" fill="#525D7D"/>
<path d="M43.354 81.4731C42.9787 81.4731 42.6063 81.31 42.3509 80.9957C42.0211 80.5905 41.7094 80.1679 41.4246 79.7398C41.027 79.1432 41.1871 78.3359 41.7813 77.9367C42.3761 77.5382 43.1796 77.6971 43.5771 78.2949C43.8163 78.6544 44.0783 79.0102 44.3559 79.3509C44.808 79.9066 44.7259 80.726 44.1725 81.1805C43.9314 81.3774 43.6418 81.4731 43.354 81.4731Z" fill="#525D7D"/>
<path d="M57.4626 87.7591C57.1712 87.7591 56.8792 87.7531 56.5842 87.741C54.4473 87.6513 52.3577 87.2468 50.3725 86.5376C49.6992 86.2973 49.3472 85.5532 49.587 84.8771C49.8263 84.2004 50.565 83.8446 51.2407 84.0884C52.9807 84.7098 54.8148 85.065 56.6916 85.1426C63.2888 85.416 68.9112 82.2926 73.3985 75.8549C73.8086 75.2667 74.6144 75.1229 75.2014 75.5359C75.7872 75.947 75.9299 76.758 75.5198 77.3462C70.7603 84.1739 64.5318 87.7591 57.4626 87.7591Z" fill="#525D7D"/>
</svg>
