<svg width="190" height="232" viewBox="0 0 190 232" fill="none" xmlns="http://www.w3.org/2000/svg">
<g clip-path="url(#clip0_2111_3606)">
<path d="M55.8202 82.7281C55.3372 79.1569 52.7956 77.8546 50.1123 78.1019C49.6077 74.5657 48.0404 71.2284 45.3201 68.8225C42.2452 66.1024 37.9637 69.4716 39.7375 73.1407C40.8043 75.3488 41.5443 78.0143 41.0623 80.4614C40.6573 82.518 41.3891 84.5343 42.9964 85.5977C42.8238 86.7991 42.5843 87.9747 42.2822 89.1153C40.7005 85.542 34.8775 83.7204 32.5436 88.2045C28.4471 96.0712 21.4772 98.0793 13.2072 98.4884C12.2936 98.5337 11.5433 98.9984 11.0428 99.6424C10.8733 99.6012 10.7047 99.5569 10.5341 99.5177C8.51879 99.0479 6.33388 100.868 7.03066 103.03C10.9401 115.159 27.1029 117.886 37.642 113.696C49.9663 108.798 57.5868 95.7827 55.8202 82.7281Z" fill="#E0DFE6"/>
<path d="M175.833 93.3119C171.218 101.119 164.404 104.217 155.568 104.486C152.165 104.59 150.291 109.645 153.72 111.326C165.453 117.075 180.842 111.05 186.914 99.8062C190.845 92.5278 180.056 86.1675 175.833 93.3119Z" fill="#E0DFE6"/>
<path d="M175.846 46.2277C173.872 44.6987 170.216 44.9552 169.066 47.526C168.902 47.8917 168.724 48.2472 168.516 48.5893C168.493 48.6274 168.413 48.7232 168.335 48.8242C168.467 48.6727 168.573 48.6037 168.248 48.9922C168.227 49.0169 168.201 49.0385 168.18 49.0643C168.168 49.09 168.151 49.1209 168.154 49.1354C167.936 49.3487 167.699 49.6135 167.436 49.8546C167.371 49.9143 167.276 49.9813 167.19 50.0514C167.112 50.1039 167.035 50.1564 166.955 50.2059C165.424 51.1858 164.756 53.0456 165.472 54.7446C166.216 56.5117 167.938 57.1597 169.749 56.8486C172.265 56.4169 174.628 55.0465 176.314 53.1321C178.136 51.0632 178.125 47.9917 175.846 46.2277Z" fill="#E0DFE6"/>
<path d="M168.336 48.8242C168.265 48.9046 168.194 49.0035 168.168 49.0777C168.211 48.9973 168.267 48.9128 168.336 48.8242Z" fill="#E0DFE6"/>
<path d="M148.078 25.4725C145.421 24.0651 141.455 24.6153 139.968 27.5518C138.111 27.1139 135.844 28.0247 134.942 29.7382C133.899 31.7154 134.314 33.7009 135.669 35.3876C137.278 37.3885 139.967 38.3653 142.475 38.2169C145.747 38.0232 148.457 36.4251 150.215 33.6442C151.886 31.0004 150.853 26.9418 148.078 25.4725Z" fill="#E0DFE6"/>
<path d="M98.9408 12.8833C98.0334 11.9735 96.6861 11.4141 95.4035 11.4141C93.8794 11.4141 92.6338 12.0889 91.676 13.1523C91.6934 13.1296 91.7109 13.1069 91.7284 13.0843C91.6575 13.1749 91.5701 13.2471 91.4951 13.3305C91.4005 13.3491 91.307 13.3717 91.2125 13.382C91.2618 13.3759 91.3111 13.3686 91.3594 13.3625C89.5815 13.7571 88.1951 15.011 87.9351 16.9512C87.6432 19.1304 88.9587 20.9324 90.9874 21.6393C93.2401 22.4244 95.9245 22.0153 97.9296 20.7614C100.653 19.0572 101.257 15.2058 98.9408 12.8833Z" fill="#E0DFE6"/>
<path d="M50.7453 35.4543C49.4299 33.409 46.5245 32.3241 44.3345 33.7686C42.1424 35.2152 40.9646 35.7016 38.3964 36.2435C36.1036 36.7278 34.5599 39.554 35.2721 41.76C36.0902 44.2926 38.2885 45.2756 40.7745 44.8923C43.6973 44.442 46.5112 43.3694 49.064 41.8806C51.1842 40.6452 52.1143 37.584 50.7453 35.4543Z" fill="#E0DFE6"/>
<path d="M63.0943 176.472C62.9011 176.462 62.823 176.463 62.8055 176.471C62.3225 176.406 61.9258 176.396 61.4633 176.389C61.3277 176.311 61.192 176.233 61.0564 176.155C60.2609 175.314 59.3627 174.883 58.3596 174.51C57.2682 174.103 55.9784 174.504 55.1069 175.179C54.1018 175.957 53.7915 176.893 53.6363 178.117C53.3732 180.202 54.997 182.419 56.4419 183.773C57.9825 185.216 59.5343 186.558 61.6791 186.951C64.8147 187.527 67.867 185.896 68.3202 182.516C68.758 179.254 66.3069 176.626 63.0943 176.472Z" fill="#E0DFE6"/>
<path d="M162.224 161.01C159.816 156.82 152.787 159.585 154.307 164.356C156.982 172.756 161.523 182.086 159.075 191.081C157.702 196.125 154.492 199.173 150.493 201.121C150.156 200.601 149.741 200.14 149.274 199.757C149.244 199.574 149.239 199.4 149.191 199.211C148.316 195.763 146.803 192.431 145.442 189.15C144.19 186.133 143.003 183.004 141.193 180.273C144.611 180.617 148.346 178.409 147.288 173.455C146.383 169.21 144.691 164.543 140.071 163.225C135.292 161.862 129.251 163.314 124.387 163.668C121.348 163.889 121.471 167.944 124.387 168.316C127.682 168.735 130.991 169.094 134.277 169.577C137.043 169.983 137.05 170.876 136.413 173.456C135.899 175.537 136.331 177.148 137.26 178.289C135.642 178.457 134.223 179.565 134.375 181.631C134.627 185.049 135.531 188.348 136.245 191.692C136.989 195.176 137.444 198.765 138.382 202.198C138.506 202.647 138.667 203.052 138.857 203.421C138.443 203.89 138.069 204.387 137.769 204.919C137.637 204.212 137.501 203.499 137.366 202.778C135.561 193.147 134.638 183.336 132.423 173.789C131.741 170.851 127.915 171.895 127.592 174.445C126.719 181.349 126.991 188.229 127.704 195.134C128.319 201.084 131.596 209.805 128.217 215.038C127.075 216.806 127.524 218.695 128.668 220.033C119.878 223.332 109.851 224.256 100.849 226.109C98.6541 226.562 98.9778 229.631 100.849 230.249C111.769 233.858 125.264 231.244 136.085 228.201C146.14 225.374 147.973 218.964 147.946 209.953C148.012 209.89 148.077 209.826 148.142 209.763C156.22 209.772 163.587 206.647 167.512 198.168C173.285 185.697 168.671 172.226 162.224 161.01Z" fill="#E0DFE6"/>
<path d="M140.894 59.848C139.925 57.4257 136.689 57.8213 136.41 60.4559C134.937 74.3925 137.508 88.5299 129.65 101.089C129.074 102.008 128.471 102.895 127.856 103.769C128.721 101.278 129.465 98.8479 130.105 96.6192C133.081 86.2518 134.124 75.4331 132.953 64.7051C132.903 64.2435 132.734 63.8334 132.494 63.48C132.839 62.5785 132.958 61.6233 132.867 60.6826C133.821 60.2097 134.766 59.711 135.688 59.1556C141.604 55.5875 136.435 47.3478 130.388 50.0649C119.591 54.9147 109.727 59.6131 97.5688 59.3504C97.3304 59.3452 97.1074 59.3638 96.8998 59.3998C93.7684 58.2087 90.7551 56.4273 87.968 54.0008C85.8642 52.1688 81.8798 51.9895 80.4955 54.9662C76.8759 62.7444 73.1145 68.47 64.9668 71.9928C62.5321 73.0448 63.7037 77.4598 66.3511 77.1157C74.285 76.0843 81.9867 71.8918 86.3123 65.2048C98.1577 73.9845 113.651 75.2178 126.927 68.2341C124.902 76.5964 122.448 84.8186 119.102 92.7739C115.353 101.689 108.798 109.658 105.744 118.684C104.127 123.466 108.533 126.425 112.534 125.86C112.516 125.914 112.489 125.956 112.472 126.013C112.26 126.701 112.048 127.389 111.838 128.077C111.483 129.23 111.446 130.292 111.635 131.249C111.504 131.055 111.368 130.868 111.24 130.661C110.245 129.044 109.262 127.43 108.227 125.837C107.024 123.983 104.793 124.255 103.738 125.616C102.984 123.987 100.039 124.312 99.7579 126.134C98.7599 132.601 100.251 138.303 104.699 143.162C106.81 145.469 110.54 145.087 112.518 142.903C112.849 142.797 113.179 142.661 113.502 142.472C116.166 140.909 116.301 137.815 114.811 135.453C118.449 137.554 123.93 136.854 124.956 131.703C127.373 119.573 138.765 111.625 142.961 100.078C147.474 87.6624 145.724 71.9279 140.894 59.848Z" fill="#E0DFE6"/>
<path d="M23.1698 107.218C17.1371 107.218 11.3912 104.696 6.9782 100.108C2.27951 95.2242 -0.256881 88.5002 0.0206011 81.6627C0.214838 76.8675 1.78826 72.3195 4.57336 68.5134C6.2958 66.157 8.42419 64.1777 10.7304 62.7857C14.0622 60.7734 18.5389 59.4865 22.4103 59.4257C35.5414 59.2876 45.9819 69.4232 46.1946 82.656C46.2974 89.0586 43.8093 95.1913 39.1866 99.9237C34.7552 104.462 28.8037 107.189 23.2674 107.218C23.2345 107.218 23.2016 107.218 23.1698 107.218ZM22.7977 63.8717C22.6919 63.8717 22.586 63.8727 22.4792 63.8748C19.3436 63.9242 15.7189 64.9669 13.0191 66.598C11.2124 67.6881 9.53 69.2604 8.15185 71.1439C5.89088 74.2349 4.61241 77.9349 4.45414 81.842C4.22599 87.4729 6.31019 93.0059 10.1723 97.0201C13.7416 100.729 18.3539 102.768 23.1687 102.768C23.1944 102.768 23.2201 102.768 23.2458 102.768C27.6218 102.747 32.3955 100.519 36.0162 96.812C39.8022 92.9348 41.8412 87.9324 41.7569 82.7292C41.5853 72.0949 33.2845 63.8717 22.7977 63.8717Z" fill="#525D7D"/>
<path d="M13.237 89.0254C12.3069 89.0254 11.4405 88.9616 10.5875 88.8297C9.37586 88.6432 8.54547 87.5077 8.73149 86.294C8.91647 85.0792 10.0439 84.2487 11.2617 84.4332C11.8886 84.53 12.534 84.5764 13.237 84.5764C15.3335 84.5764 17.4773 84.1519 19.7465 83.7016C19.8554 83.68 19.9644 83.6583 20.0733 83.6367C19.8801 82.1303 19.7825 80.5508 19.7825 78.9156C19.7825 76.6169 19.9746 74.1997 20.3539 71.7289C20.5399 70.5142 21.6765 69.6837 22.8841 69.8692C24.0958 70.0557 24.9261 71.1911 24.7391 72.4069C24.3948 74.6531 24.2201 76.8426 24.2201 78.9156C24.2201 81.0794 24.4113 83.1184 24.7895 84.9772C24.9097 85.5666 24.7864 86.1796 24.4483 86.6762C24.1101 87.1729 23.586 87.5119 22.9951 87.6128C22.1986 87.7519 21.4042 87.9096 20.6087 88.0672C18.2275 88.5371 15.7672 89.0254 13.237 89.0254Z" fill="#525D7D"/>
<path d="M93.4621 126.173C93.2648 126.173 93.0654 126.147 92.867 126.091C66.867 118.85 59.9967 102.003 58.4716 96.8396C55.7944 95.8474 54.2467 92.5266 54.2467 87.5387C54.2467 82.7414 55.9907 81.0258 57.9321 79.5576C59.0029 78.7467 59.4038 78.4438 59.4038 76.6695C59.4038 73.5228 59.0831 70.2216 58.744 66.7266C58.4038 63.2286 58.0523 59.612 58.0523 56.1521C58.0523 34.4612 85.6032 27.1611 98.1721 27.1611C118.209 27.1611 133.919 38.225 140.196 56.7559C140.397 57.3494 140.339 58.0016 140.036 58.5508C139.733 59.0979 139.213 59.4935 138.603 59.6368C133.808 60.7681 129.828 62.1261 126.315 63.3244C120.352 65.3583 115.201 67.1151 108.456 67.1151C97.8319 67.1151 90.3779 62.4228 88.009 54.2408C87.6678 53.0621 88.3441 51.8267 89.5208 51.4846C90.6955 51.1343 91.9287 51.8205 92.271 53.0013C94.7066 61.41 103.458 62.666 108.456 62.666C114.467 62.666 119.064 61.0978 124.885 59.1123C127.892 58.0871 131.234 56.9486 135.16 55.9131C126.514 34.0346 106.556 31.6122 98.1721 31.6122C88.6452 31.6122 62.49 37.4286 62.49 56.1542C62.49 59.3988 62.8312 62.9061 63.16 66.297C63.4951 69.7435 63.8414 73.3085 63.8414 76.6716C63.8414 80.6611 61.971 82.0768 60.6051 83.1102C59.4479 83.985 58.6844 84.563 58.6844 87.5407C58.6844 90.3866 59.3966 92.7028 60.2722 92.7028C61.3389 92.7028 62.2546 93.4642 62.453 94.5141C62.6071 95.3044 66.5967 114.159 94.054 121.806C95.2349 122.135 95.9265 123.362 95.5987 124.545C95.3253 125.529 94.4343 126.173 93.4621 126.173Z" fill="#525D7D"/>
<path d="M68.5586 72.9086C67.7015 72.9086 66.8855 72.4089 66.5227 71.5702C66.0335 70.4429 66.5484 69.1344 67.6727 68.6429C74.8369 65.5199 77.9231 57.6893 80.9075 50.1152C81.5067 48.5964 82.0956 47.1014 82.706 45.6723C83.1901 44.544 84.4973 44.0237 85.6196 44.5039C86.746 44.9881 87.268 46.2956 86.785 47.4249C86.19 48.8149 85.6165 50.2707 85.0338 51.7514C81.8726 59.7747 78.29 68.8686 69.4414 72.7252C69.1536 72.8498 68.8535 72.9086 68.5586 72.9086Z" fill="#525D7D"/>
<path d="M105.079 127.006C103.953 127.006 102.989 126.15 102.874 125.003C102.751 123.781 103.641 122.69 104.861 122.568C117.059 121.344 124.774 110.499 127.792 90.3277C128.105 88.2351 129.117 87.4108 130.042 86.8039C130.513 86.4938 131.39 85.9178 131.39 79.9119C131.39 75.8925 130.978 71.8401 130.58 67.9227C130.288 65.0522 129.986 62.0848 129.846 59.139C129.788 57.9119 130.733 56.8691 131.957 56.8114C133.204 56.7692 134.221 57.6996 134.28 58.9278C134.413 61.753 134.696 64.5308 134.995 67.4725C135.405 71.5001 135.828 75.6669 135.828 79.9119C135.828 86.9811 134.651 89.0944 132.478 90.5235C132.395 90.5781 132.31 90.6245 132.235 90.6873C132.242 90.7007 132.21 90.8007 132.182 90.9882C128.873 113.114 119.578 125.565 105.304 126.994C105.228 127.003 105.154 127.006 105.079 127.006Z" fill="#525D7D"/>
<path d="M84.0503 86.9965C80.3402 86.9965 78.3383 83.4305 78.3383 80.0746C78.3383 78.8465 79.331 77.8501 80.5571 77.8501C81.7831 77.8501 82.7759 78.8465 82.7759 80.0746C82.7759 81.0854 83.2291 82.5464 84.0503 82.5464C84.8375 82.5464 86.7953 81.851 89.7243 79.8912C90.7427 79.2102 92.1209 79.4853 92.8012 80.5063C93.4816 81.5285 93.2061 82.9101 92.1877 83.5922C88.8127 85.8518 86.0749 86.9965 84.0503 86.9965Z" fill="#525D7D"/>
<path d="M109.156 86.3743C105.802 86.3743 103.334 84.4476 102.716 81.3462C102.475 80.1417 103.254 78.9692 104.457 78.7291C105.66 78.4901 106.827 79.269 107.067 80.4746C107.16 80.9454 107.357 81.9263 109.156 81.9263C110.232 81.9263 111.501 81.5399 112.468 80.9166C113.498 80.252 114.87 80.5518 115.534 81.5842C116.197 82.6187 115.898 83.9942 114.867 84.6588C113.176 85.7479 111.093 86.3743 109.156 86.3743Z" fill="#525D7D"/>
<path d="M97.4054 108.156C96.7548 108.156 96.1094 107.87 95.6706 107.321C94.905 106.361 95.0602 104.962 96.0169 104.194C96.5904 103.734 96.8473 103.269 96.8473 103.012C96.8473 102.029 96.4743 100.917 96.0786 99.7378C95.6028 98.3211 95.0632 96.7138 95.0632 94.957C95.0632 94.0287 95.2164 93.122 95.5185 92.2637C95.9265 91.1056 97.1926 90.4966 98.3488 90.9067C99.504 91.3147 100.111 92.5851 99.7033 93.7443C99.5667 94.1327 99.5009 94.5294 99.5009 94.958C99.5009 95.9863 99.8811 97.1207 100.285 98.319C100.755 99.7162 101.286 101.3 101.286 103.013C101.286 104.724 100.4 106.377 98.7897 107.668C98.3817 107.997 97.8915 108.156 97.4054 108.156Z" fill="#525D7D"/>
<path d="M86.5425 113.422C86.1036 113.422 85.6597 113.291 85.2722 113.019C82.7276 111.234 81.1121 108.336 80.8418 105.074C80.74 103.849 81.6475 102.774 82.8684 102.671C84.1058 102.588 85.1623 103.479 85.264 104.703C85.4254 106.647 86.3565 108.35 87.8179 109.376C88.8219 110.08 89.0665 111.468 88.3636 112.474C87.9309 113.092 87.2423 113.422 86.5425 113.422Z" fill="#525D7D"/>
<path d="M55.1284 205.403C55.0462 205.403 54.964 205.399 54.8807 205.389C53.1203 205.192 51.3876 205.076 49.7124 204.964C39.3068 204.265 29.4799 203.606 29.4799 183.144C29.4799 137.308 45.4279 132.288 66.276 130.49C75.3003 129.711 83.0945 129.039 87.4808 121.557C88.1025 120.498 89.4622 120.143 90.5176 120.767C91.5741 121.389 91.9266 122.752 91.3059 123.811C85.7583 133.276 76.0475 134.113 66.6563 134.924C50.5603 136.312 33.9175 137.748 33.9175 183.145C33.9175 199.445 39.6326 199.829 50.0084 200.526C51.7318 200.641 53.5129 200.762 55.3699 200.968C56.5878 201.104 57.4665 202.203 57.3298 203.425C57.2054 204.561 56.2435 205.403 55.1284 205.403Z" fill="#525D7D"/>
<path d="M144.16 204.183C143.011 204.183 142.04 203.297 141.949 202.129C141.856 200.904 142.77 199.835 143.992 199.741C153.666 198.994 158.318 197.684 158.318 176.258C158.318 143.766 146.234 142.549 133.441 141.26C123.849 140.296 112.979 139.2 109.619 123.527C109.361 122.324 110.123 121.143 111.322 120.884C112.518 120.626 113.7 121.391 113.958 122.591C116.64 135.098 124.25 135.863 133.885 136.834C150.243 138.48 162.757 142.429 162.757 176.258C162.757 199.073 157.325 203.173 144.334 204.175C144.275 204.182 144.218 204.183 144.16 204.183Z" fill="#525D7D"/>
<path d="M96.503 152.869C86.1386 152.869 75.1719 147.939 74.0363 136.927C73.9109 135.705 74.7957 134.61 76.0156 134.485C77.2252 134.367 78.3249 135.246 78.4513 136.469C79.3033 144.724 88.1313 148.42 96.5041 148.42C105.886 148.42 112.44 144.352 118.419 134.817C119.073 133.775 120.441 133.463 121.478 134.117C122.515 134.77 122.829 136.143 122.176 137.183C117.597 144.487 110.541 152.869 96.503 152.869Z" fill="#525D7D"/>
<path d="M126.085 218.168C118.012 218.168 109.848 217.862 101.953 217.567C94.0931 217.271 85.9659 216.967 77.9642 216.967L76.5686 216.97C72.9664 216.996 70.0169 214.301 69.685 210.726C69.1002 204.429 68.6017 198.063 68.1187 191.91C67.6388 185.795 67.1424 179.474 66.5648 173.232C66.386 171.301 67.0283 169.372 68.3253 167.938C69.613 166.516 71.4495 165.696 73.3652 165.689C79.0957 165.667 84.8252 165.677 90.5567 165.69C93.8814 165.696 97.206 165.703 100.531 165.703C109.636 165.703 120.402 165.658 131.21 165.322C134.943 165.186 138.111 168.122 138.3 171.827C138.496 175.655 138.644 179.477 138.793 183.294C139.139 192.192 139.496 201.393 140.49 210.444C140.698 212.34 140.1 214.254 138.847 215.696C137.584 217.149 135.755 218.013 133.831 218.066C131.343 218.135 128.81 218.168 126.085 218.168ZM77.9642 212.518C86.0492 212.518 94.2185 212.824 102.118 213.121C109.972 213.415 118.095 213.72 126.085 213.72C128.769 213.72 131.261 213.687 133.705 213.62C134.404 213.599 135.041 213.299 135.499 212.774C135.945 212.26 136.15 211.605 136.076 210.931C135.066 201.724 134.705 192.444 134.357 183.467C134.21 179.669 134.062 175.867 133.867 172.056C133.8 170.753 132.712 169.774 131.346 169.769C120.477 170.108 109.669 170.153 100.529 170.153C97.2009 170.153 93.8742 170.146 90.5465 170.139C84.8221 170.129 79.0998 170.118 73.3796 170.139C72.6972 170.142 72.0692 170.422 71.6088 170.929C71.1392 171.447 70.9172 172.12 70.9819 172.821C71.5636 179.094 72.06 185.432 72.541 191.562C73.023 197.702 73.5214 204.05 74.1021 210.316C74.2172 211.555 75.2839 212.522 76.5336 212.522C76.5449 212.52 77.9642 212.518 77.9642 212.518Z" fill="#525D7D"/>
<path d="M62.8404 189.881C56.5477 189.881 53.6167 187.309 53.6167 181.787C53.6167 180.613 53.7349 179.422 53.85 178.273C53.9517 177.251 54.0483 176.284 54.0483 175.452C54.0483 175.183 54.0381 174.923 54.0134 174.678C53.886 173.456 54.7708 172.362 55.9897 172.233C57.2034 172.121 58.3 172.993 58.4264 174.214C58.4675 174.607 58.486 175.022 58.486 175.45C58.486 176.505 58.374 177.629 58.2661 178.715C58.1633 179.756 58.0554 180.833 58.0554 181.786C58.0554 184.18 58.2681 185.43 62.8414 185.43C64.3069 185.43 65.83 185.212 67.4404 184.98L67.7004 184.942C68.9101 184.77 70.0375 185.614 70.2111 186.831C70.3848 188.046 69.5421 189.174 68.3284 189.348L68.0694 189.384C66.3747 189.629 64.6224 189.881 62.8404 189.881Z" fill="#525D7D"/>
<path d="M137.905 183.241C136.716 183.241 135.732 182.297 135.69 181.096C135.646 179.868 136.603 178.836 137.827 178.793C141.652 178.655 144.536 175.543 144.536 171.552C144.536 170.876 144.449 170.196 144.277 169.53C143.97 168.341 144.682 167.127 145.868 166.819C147.058 166.515 148.266 167.226 148.573 168.415C148.839 169.444 148.974 170.5 148.974 171.553C148.974 177.886 144.147 183.02 137.986 183.241C137.959 183.241 137.932 183.241 137.905 183.241Z" fill="#525D7D"/>
<path d="M106.975 200.74C106.594 200.74 106.214 200.641 105.874 200.446C103.004 198.801 100.023 197.424 96.8669 195.964C95.2996 195.24 93.7303 194.515 92.1744 193.755C91.5793 193.464 91.1446 192.923 90.9894 192.277C90.8342 191.631 90.974 190.95 91.3717 190.418L92.0808 189.474C94.5813 186.149 97.1649 182.711 99.0395 178.977C99.5698 177.921 100.829 177.46 101.911 177.94C104.716 179.17 107.75 180.275 111.461 181.419C112.042 181.597 112.525 182.007 112.795 182.553C113.067 183.098 113.103 183.731 112.896 184.304C111.744 187.489 110.965 190.985 110.212 194.365C109.862 195.936 109.513 197.505 109.126 199.054C108.958 199.73 108.483 200.289 107.844 200.562C107.567 200.68 107.271 200.74 106.975 200.74ZM96.5534 190.917C97.2769 191.256 98.0005 191.591 98.725 191.924C100.958 192.956 103.246 194.013 105.484 195.174C105.619 194.582 105.75 193.988 105.883 193.394C106.502 190.616 107.138 187.761 107.994 184.982C105.822 184.271 103.866 183.561 102.025 182.812C100.392 185.697 98.4732 188.35 96.5534 190.917Z" fill="#525D7D"/>
<path d="M102.001 228.087C97.5637 228.087 90.5352 228.056 84.4388 227.211C81.1686 226.756 71.2194 225.376 71.2194 218.983C71.2194 218.555 71.2296 218.126 71.2389 217.712C71.2471 217.362 71.2553 217.024 71.2553 216.709C71.2553 215.481 72.2481 214.485 73.4741 214.485C74.7002 214.485 75.693 215.481 75.693 216.709C75.693 217.057 75.6848 217.431 75.6755 217.817C75.6663 218.196 75.657 218.589 75.657 218.983C75.657 220.145 78.1163 221.843 85.0472 222.804C91.0881 223.643 98.2574 223.633 102.526 223.638H102.995C126.38 223.638 135.095 220.228 135.095 218.079C135.095 217.679 135.079 217.279 135.065 216.887C135.048 216.452 135.033 216.026 135.033 215.615C135.033 214.387 136.026 213.391 137.252 213.391C138.478 213.391 139.471 214.387 139.471 215.615C139.471 215.972 139.485 216.343 139.499 216.719C139.516 217.168 139.532 217.622 139.532 218.079C139.532 220.554 139.532 228.088 102.995 228.088H102.528C102.357 228.087 102.181 228.087 102.001 228.087Z" fill="#525D7D"/>
<path d="M131.573 25.9114C130.607 25.9114 129.719 25.2757 129.44 24.2979C129.104 23.1161 129.787 21.8848 130.965 21.5479C134.376 20.5721 136.758 17.5594 136.758 14.2221C136.758 14.083 136.757 13.9542 136.757 13.8336C136.658 13.1763 136.62 12.6219 136.62 12.2356C136.62 10.4417 137.961 9.79053 138.862 9.79053C139.497 9.79053 140.991 10.043 141.148 12.3746C141.165 12.6261 141.181 12.9681 141.189 13.4122C141.404 14.6188 141.927 16.4291 143.078 17.6078C143.874 18.4249 144.875 18.8216 146.136 18.8216C146.457 18.8216 146.79 18.7793 147.126 18.6989C148.318 18.4135 149.516 19.1451 149.805 20.3382C150.093 21.5314 149.361 22.7338 148.17 23.0233C147.492 23.1872 146.807 23.2706 146.136 23.2706C143.46 23.2706 141.168 22.2186 139.492 20.263C137.91 22.8832 135.327 24.9254 132.182 25.8259C131.98 25.8846 131.775 25.9114 131.573 25.9114Z" fill="#525D7D"/>
<path d="M139.614 34.0184C139.525 34.0184 139.469 34.0122 139.455 34.0112C139.116 33.9761 137.425 33.6928 137.457 31.4786L137.463 30.7048C137.463 28.947 135.328 27.2212 133.151 27.2212C132.892 27.2212 132.645 27.2469 132.412 27.2995C131.218 27.5571 130.031 26.809 129.766 25.6097C129.5 24.4093 130.255 23.2213 131.451 22.9555C131.997 22.835 132.57 22.7731 133.151 22.7731C135.69 22.7731 138.06 23.8725 139.69 25.5571C141.442 22.7577 144.023 20.8526 147.209 20.0849C148.397 19.8088 149.599 20.5342 149.884 21.7284C150.17 22.9236 149.436 24.1239 148.245 24.4124C143.778 25.4871 142.352 29.6497 141.899 32.0329C141.554 33.8607 140.103 34.0163 139.614 34.0184Z" fill="#525D7D"/>
<path d="M166.15 106.637C161.02 106.637 155.821 105.31 151.279 103.305C150.353 102.895 149.82 101.91 149.983 100.91C150.147 99.9092 150.964 99.1457 151.972 99.0529C158.725 98.4358 164.266 95.1768 168.44 89.3676C174.789 80.5314 175.255 69.6838 173.574 62.4786C173.35 61.5152 173.787 60.5178 174.647 60.0325C175.507 59.5513 176.583 59.6904 177.288 60.3828C183.311 66.3032 197.416 80.1646 185.129 97.2694C180.228 104.089 173.255 106.637 166.15 106.637ZM160.313 101.564C168.036 103.142 176.329 101.902 181.526 94.6688C188.772 84.5848 185.28 76.1029 178.806 68.4793C179.078 75.8062 177.4 84.5075 172.041 91.9693C168.816 96.4575 164.89 99.665 160.313 101.564Z" fill="#525D7D"/>
<path d="M169.914 53.4948C168.967 53.4948 168.092 52.8817 167.797 51.9338C166.846 48.8809 165.516 45.7033 162.872 45.285C161.774 45.1108 160.974 44.1495 161 43.0357C161.026 41.9219 161.869 40.9997 162.974 40.8761C164.674 40.6875 166.093 39.5037 166.672 37.952C166.611 37.6068 166.581 37.2493 166.581 36.8814C166.581 33.8419 167.922 33.2041 169.046 33.2041C170.114 33.2041 171.388 33.7605 171.388 36.4147C171.388 36.8794 171.352 37.3368 171.284 37.785C171.946 38.8752 173.728 39.616 175.358 39.616C177.382 39.616 177.799 41.0368 177.878 41.4716C178.005 42.164 177.944 43.4283 176.114 44.1248C174.157 44.8677 171.91 46.1391 171.91 49.395C171.91 49.8401 171.965 50.2976 172.074 50.753C172.351 51.9204 171.657 53.0961 170.504 53.4155C170.308 53.469 170.11 53.4948 169.914 53.4948ZM168.182 43.2871C168.455 43.5612 168.71 43.8487 168.948 44.1475C169.283 43.6333 169.687 43.1305 170.173 42.6504C169.889 42.4824 169.615 42.3011 169.354 42.1053C169.002 42.5339 168.609 42.9296 168.182 43.2871Z" fill="#525D7D"/>
<path d="M44.9706 41.7346C44.0231 41.7346 43.1495 41.1225 42.8535 40.1736C41.9019 37.1206 40.572 33.943 37.9288 33.5247C36.8312 33.3506 36.0306 32.3903 36.0552 31.2765C36.0809 30.1627 36.9237 29.2385 38.0274 29.1158C39.7283 28.9263 41.1475 27.7414 41.7261 26.1907C41.6655 25.8476 41.6347 25.49 41.6347 25.1222C41.6347 24.6431 41.6768 24.1434 41.7529 23.7189C42.1321 21.6077 43.6459 21.4438 44.1002 21.4438C45.169 21.4438 46.4423 22.0013 46.4423 24.6565C46.4423 25.1212 46.4074 25.5786 46.3385 26.0268C46.9993 27.117 48.7824 27.8578 50.4124 27.8578C52.4359 27.8578 52.8532 29.2786 52.9323 29.7134C53.0587 30.4058 52.9981 31.6701 51.1677 32.3666C49.211 33.1095 46.9644 34.3809 46.9644 37.6368C46.9644 38.0799 47.0199 38.5374 47.1288 38.9969C47.4063 40.1622 46.7116 41.3399 45.5595 41.6573C45.3622 41.7088 45.1649 41.7346 44.9706 41.7346ZM43.2379 31.5258C43.5113 31.7999 43.7662 32.0894 44.0046 32.3872C44.3396 31.8731 44.7445 31.3702 45.2296 30.8901C44.9439 30.7222 44.6705 30.5398 44.4095 30.344C44.057 30.7737 43.6634 31.1693 43.2379 31.5258Z" fill="#525D7D"/>
<path d="M93.4158 16.9638C92.7139 16.9638 91.7766 16.6433 91.2124 15.1534C90.4694 13.1917 89.2022 10.9393 85.9557 10.9393C85.5148 10.9393 85.0574 10.9949 84.5981 11.1042C83.4337 11.3762 82.261 10.6838 81.9455 9.52876C81.629 8.3727 82.2826 7.17338 83.4234 6.81687C86.4675 5.86277 89.6369 4.53053 90.0552 1.87943C90.2289 0.779018 91.2073 -0.0586574 92.2977 0.00213335C93.4086 0.0278921 94.3294 0.87278 94.4517 1.97938C94.6408 3.68461 95.8237 5.10752 97.3715 5.68658C98.1628 5.54851 99.0877 5.58045 99.8369 5.71337C101.944 6.09254 102.106 7.61128 102.106 8.06772C102.106 9.13826 101.551 10.4149 98.9028 10.4149C98.4382 10.4149 97.983 10.3788 97.5359 10.3108C96.4476 10.9733 95.7097 12.761 95.7097 14.3951C95.7097 16.4239 94.2925 16.8422 93.8588 16.9226C93.7282 16.9473 93.5782 16.9638 93.4158 16.9638ZM91.1898 7.9719C91.7026 8.30676 92.2031 8.71272 92.6831 9.19905C92.8506 8.91364 93.0314 8.63853 93.2267 8.37786C92.7982 8.02341 92.4035 7.63085 92.0479 7.20223C91.7746 7.47733 91.4878 7.73286 91.1898 7.9719Z" fill="#525D7D"/>
</g>
<defs>
<clipPath id="clip0_2111_3606">
<rect width="190" height="232" fill="white"/>
</clipPath>
</defs>
</svg>
