<svg width="130" height="160" viewBox="0 0 130 160" fill="none" xmlns="http://www.w3.org/2000/svg">
<g clip-path="url(#clip0_3223_9878)">
<path d="M38.1936 57.0537C37.8631 54.5908 36.1241 53.6926 34.2882 53.8631C33.9429 51.4244 32.8706 49.1228 31.0093 47.4636C28.9054 45.5876 25.976 47.9113 27.1896 50.4417C27.9195 51.9644 28.4258 53.8027 28.096 55.4904C27.819 56.9087 28.3196 58.2993 29.4194 59.0326C29.3013 59.8612 29.1374 60.672 28.9307 61.4586C27.8485 58.9943 23.8644 57.738 22.2675 60.8304C19.4646 66.2558 14.6957 67.6407 9.03731 67.9228C8.41219 67.9541 7.89888 68.2745 7.55643 68.7187C7.44041 68.6902 7.32509 68.6597 7.20836 68.6327C5.82945 68.3086 4.33451 69.5643 4.81126 71.0551C7.48612 79.4201 18.5449 81.3003 25.7559 78.4111C34.1883 75.0329 39.4023 66.0568 38.1936 57.0537Z" fill="#E0DFE6"/>
<path d="M120.306 64.3528C117.149 69.7369 112.487 71.8737 106.441 72.0591C104.112 72.1309 102.831 75.617 105.176 76.776C113.204 80.7411 123.734 76.5863 127.888 68.8316C130.578 63.8121 123.196 59.4256 120.306 64.3528Z" fill="#E0DFE6"/>
<path d="M120.316 31.8813C118.966 30.8268 116.464 31.0037 115.677 32.7766C115.565 33.0289 115.443 33.274 115.301 33.5099C115.285 33.5362 115.23 33.6023 115.177 33.672C115.268 33.5675 115.34 33.5199 115.117 33.7878C115.103 33.8048 115.086 33.8198 115.071 33.8375C115.063 33.8553 115.051 33.8766 115.053 33.8866C114.904 34.0336 114.742 34.2163 114.562 34.3825C114.517 34.4238 114.453 34.4699 114.394 34.5183C114.34 34.5545 114.287 34.5907 114.233 34.6249C113.186 35.3006 112.729 36.5832 113.218 37.755C113.727 38.9736 114.906 39.4206 116.145 39.206C117.866 38.9083 119.482 37.9632 120.636 36.6429C121.883 35.2161 121.875 33.0978 120.316 31.8813Z" fill="#E0DFE6"/>
<path d="M115.177 33.6719C115.129 33.7273 115.08 33.7955 115.062 33.8467C115.091 33.7913 115.13 33.733 115.177 33.6719Z" fill="#E0DFE6"/>
<path d="M101.316 17.5671C99.4985 16.5964 96.785 16.9758 95.7675 19.001C94.4969 18.699 92.9457 19.3272 92.3283 20.5089C91.6153 21.8725 91.8987 23.2418 92.8262 24.405C93.9266 25.785 95.7668 26.4586 97.4825 26.3563C99.7214 26.2227 101.576 25.1206 102.779 23.2027C103.922 21.3794 103.215 18.5803 101.316 17.5671Z" fill="#E0DFE6"/>
<path d="M67.6966 8.88512C67.0757 8.25767 66.1538 7.87183 65.2763 7.87183C64.2335 7.87183 63.3812 8.33726 62.7259 9.07059C62.7378 9.05495 62.7498 9.03932 62.7617 9.02369C62.7132 9.08622 62.6535 9.13596 62.6021 9.19352C62.5374 9.20631 62.4734 9.22194 62.4088 9.22905C62.4425 9.22478 62.4763 9.21981 62.5093 9.21555C61.2928 9.4877 60.3442 10.3525 60.1663 11.6905C59.9666 13.1934 60.8667 14.4362 62.2548 14.9237C63.7961 15.4652 65.6328 15.1831 67.0047 14.3183C68.8681 13.143 69.2815 10.4868 67.6966 8.88512Z" fill="#E0DFE6"/>
<path d="M34.7204 24.4513C33.8203 23.0408 31.8325 22.2925 30.334 23.2888C28.8342 24.2864 28.0283 24.6218 26.2711 24.9956C24.7023 25.3296 23.6462 27.2787 24.1335 28.8001C24.6932 30.5467 26.1973 31.2246 27.8982 30.9603C29.8981 30.6497 31.8233 29.91 33.57 28.8832C35.0207 28.0312 35.657 25.9201 34.7204 24.4513Z" fill="#E0DFE6"/>
<path d="M43.1703 121.704C43.0381 121.698 42.9847 121.699 42.9727 121.704C42.6422 121.659 42.3708 121.652 42.0544 121.647C41.9615 121.593 41.8687 121.539 41.7759 121.486C41.2317 120.906 40.6171 120.609 39.9308 120.351C39.184 120.071 38.3015 120.347 37.7053 120.813C37.0176 121.35 36.8052 121.995 36.699 122.839C36.519 124.277 37.63 125.806 38.6187 126.74C39.6727 127.735 40.7345 128.66 42.202 128.932C44.3474 129.329 46.4358 128.204 46.7459 125.873C47.0455 123.623 45.3684 121.811 43.1703 121.704Z" fill="#E0DFE6"/>
<path d="M110.995 111.041C109.348 108.152 104.538 110.059 105.578 113.349C107.409 119.142 110.516 125.576 108.841 131.78C107.901 135.259 105.705 137.361 102.969 138.704C102.738 138.346 102.454 138.028 102.135 137.764C102.114 137.637 102.111 137.517 102.078 137.387C101.479 135.009 100.444 132.711 99.5127 130.448C98.6562 128.368 97.844 126.21 96.6057 124.326C98.9445 124.564 101.5 123.041 100.776 119.625C100.157 116.697 98.9993 113.478 95.8379 112.569C92.5681 111.629 88.4349 112.63 85.1068 112.875C83.0275 113.027 83.1119 115.824 85.1068 116.08C87.3612 116.369 89.6254 116.617 91.8734 116.95C93.7663 117.23 93.7713 117.846 93.3353 119.625C92.9837 121.06 93.2791 122.171 93.9147 122.958C92.8079 123.074 91.8368 123.838 91.9409 125.263C92.1132 127.62 92.732 129.895 93.22 132.201C93.7291 134.604 94.0406 137.079 94.6826 139.447C94.767 139.757 94.8774 140.036 95.0074 140.291C94.7241 140.614 94.4681 140.956 94.2628 141.324C94.1728 140.836 94.0793 140.345 93.9871 139.847C92.7524 133.205 92.1209 126.439 90.6049 119.855C90.1387 117.828 87.5208 118.549 87.3 120.307C86.7023 125.068 86.8886 129.813 87.3766 134.575C87.7971 138.679 90.0395 144.693 87.7275 148.302C86.9463 149.522 87.2529 150.824 88.0362 151.747C82.022 154.022 75.1612 154.659 69.0021 155.938C67.5001 156.25 67.7216 158.366 69.0021 158.793C76.4733 161.281 85.7066 159.479 93.111 157.38C99.9908 155.43 101.245 151.01 101.226 144.795C101.271 144.752 101.316 144.708 101.361 144.664C106.887 144.671 111.928 142.515 114.613 136.668C118.564 128.067 115.406 118.777 110.995 111.041Z" fill="#E0DFE6"/>
<path d="M96.4014 41.2744C95.7383 39.6038 93.524 39.8767 93.3334 41.6937C92.3258 51.3051 94.0844 61.055 88.708 69.7164C88.3142 70.3502 87.9014 70.962 87.4809 71.5646C88.0723 69.8471 88.5814 68.1709 89.0195 66.6339C91.0559 59.4839 91.7696 52.0228 90.968 44.6241C90.9335 44.3058 90.8182 44.023 90.6536 43.7793C90.8899 43.1575 90.9715 42.4988 90.9089 41.85C91.5621 41.5238 92.2084 41.1799 92.8391 40.7969C96.8872 38.3362 93.3503 32.6536 89.2128 34.5274C81.8253 37.8721 75.0763 41.1124 66.7578 40.9312C66.5947 40.9277 66.4421 40.9405 66.3 40.9653C64.1575 40.1439 62.0958 38.9153 60.1888 37.2419C58.7494 35.9784 56.0232 35.8548 55.076 37.9077C52.5995 43.2719 50.0259 47.2206 44.4511 49.6501C42.7853 50.3756 43.5869 53.4205 45.3983 53.1832C50.8268 52.4719 56.0963 49.5805 59.056 44.9688C67.1607 51.0237 77.7617 51.8743 86.8453 47.0579C85.4593 52.825 83.7801 58.4955 81.4913 63.9819C78.9262 70.1299 74.4406 75.6263 72.3515 81.8511C71.2447 85.1489 74.2599 87.1897 76.9974 86.7996C76.9847 86.8373 76.9664 86.8664 76.9545 86.9055C76.8096 87.3802 76.6648 87.8541 76.5206 88.3288C76.278 89.1239 76.2527 89.8565 76.3821 90.5167C76.2921 90.3824 76.1993 90.2538 76.1121 90.1109C75.4307 88.996 74.7585 87.8825 74.0504 86.784C73.227 85.5056 71.7004 85.6932 70.9789 86.6319C70.4628 85.5085 68.4482 85.7323 68.2556 86.9886C67.5728 91.449 68.5931 95.3814 71.6364 98.7325C73.0807 100.323 75.6325 100.06 76.9861 98.5534C77.2125 98.4809 77.4383 98.3871 77.6598 98.2564C79.4824 97.1784 79.5745 95.0445 78.5549 93.4159C81.0441 94.8648 84.7941 94.3823 85.4966 90.8293C87.1504 82.4643 94.9444 76.9828 97.8154 69.0193C100.904 60.4567 99.7063 49.6054 96.4014 41.2744Z" fill="#E0DFE6"/>
<path d="M15.853 73.943C11.7254 73.943 7.79397 72.2042 4.77456 69.0399C1.55966 65.6718 -0.17576 61.0345 0.0140955 56.319C0.146995 53.012 1.22355 49.8754 3.12914 47.2505C4.30765 45.6254 5.76392 44.2604 7.34183 43.3004C9.62151 41.9126 12.6845 41.0251 15.3334 40.9831C24.3178 40.8879 31.4613 47.878 31.6068 57.004C31.6771 61.4196 29.9748 65.649 26.8119 68.9128C23.7798 72.0429 19.7078 73.9231 15.9198 73.943C15.8973 73.943 15.8748 73.943 15.853 73.943ZM15.5985 44.0493C15.526 44.0493 15.4536 44.05 15.3805 44.0515C13.2351 44.0856 10.755 44.8047 8.90779 45.9295C7.67162 46.6813 6.52053 47.7657 5.57758 49.0646C4.0306 51.1964 3.15586 53.7481 3.04757 56.4427C2.89147 60.326 4.3175 64.1419 6.96001 66.9103C9.40212 69.4684 12.558 70.8747 15.8523 70.8747C15.8699 70.8747 15.8875 70.8747 15.905 70.8747C18.8991 70.8598 22.1654 69.3235 24.6426 66.7668C27.2331 64.0928 28.6282 60.6429 28.5705 57.0545C28.4531 49.7205 22.7736 44.0493 15.5985 44.0493Z" fill="#525D7D"/>
<path d="M9.05755 61.3968C8.42118 61.3968 7.82841 61.3528 7.24477 61.2618C6.41574 61.1332 5.84758 60.3501 5.97485 59.5131C6.10142 58.6753 6.8728 58.1025 7.70605 58.2297C8.13499 58.2965 8.57658 58.3285 9.05755 58.3285C10.492 58.3285 11.9588 58.0357 13.5114 57.7252C13.586 57.7103 13.6605 57.6954 13.735 57.6804C13.6028 56.6416 13.536 55.5522 13.536 54.4245C13.536 52.8392 13.6675 51.1722 13.927 49.4682C14.0543 48.6304 14.832 48.0577 15.6582 48.1856C16.4872 48.3142 17.0554 49.0973 16.9274 49.9358C16.6919 51.4848 16.5723 52.9948 16.5723 54.4245C16.5723 55.9168 16.7031 57.323 16.9619 58.6049C17.0442 59.0114 16.9598 59.4342 16.7284 59.7767C16.4971 60.1192 16.1385 60.353 15.7341 60.4226C15.1892 60.5185 14.6456 60.6273 14.1014 60.736C12.4721 61.06 10.7888 61.3968 9.05755 61.3968Z" fill="#525D7D"/>
<path d="M63.9468 87.0155C63.8118 87.0155 63.6754 86.9978 63.5397 86.9594C45.7502 81.9654 41.0495 70.3466 40.006 66.7858C38.1742 66.1015 37.1152 63.8113 37.1152 60.3714C37.1152 57.0629 38.3085 55.8797 39.6368 54.8672C40.3695 54.3079 40.6437 54.099 40.6437 52.8754C40.6437 50.7053 40.4244 48.4285 40.1923 46.0182C39.9596 43.6058 39.7191 41.1116 39.7191 38.7255C39.7191 23.7662 58.5697 18.7317 67.1694 18.7317C80.8791 18.7317 91.6278 26.362 95.9228 39.1419C96.0599 39.5512 96.0205 40.001 95.8131 40.3797C95.6056 40.757 95.2498 41.0299 94.8329 41.1287C91.5519 41.9089 88.8285 42.8455 86.425 43.6719C82.3453 45.0746 78.821 46.2861 74.2061 46.2861C66.9367 46.2861 61.8366 43.0501 60.2158 37.4073C59.9823 36.5944 60.445 35.7424 61.2501 35.5065C62.0539 35.2649 62.8977 35.7382 63.1318 36.5525C64.7983 42.3516 70.7858 43.2178 74.2061 43.2178C78.3189 43.2178 81.4642 42.1363 85.4469 40.767C87.5044 40.06 89.7904 39.2748 92.4772 38.5606C86.5615 23.472 72.9059 21.8014 67.1694 21.8014C60.651 21.8014 42.7554 25.8127 42.7554 38.7269C42.7554 40.9645 42.9888 43.3834 43.2138 45.7219C43.4431 48.0988 43.68 50.5575 43.68 52.8768C43.68 55.6282 42.4003 56.6045 41.4657 57.3173C40.674 57.9206 40.1515 58.3192 40.1515 60.3728C40.1515 62.3354 40.6388 63.9328 41.2379 63.9328C41.9678 63.9328 42.5943 64.458 42.73 65.182C42.8355 65.7271 45.5652 78.7301 64.3518 84.0041C65.1598 84.2307 65.633 85.077 65.4087 85.8928C65.2217 86.5714 64.612 87.0155 63.9468 87.0155Z" fill="#525D7D"/>
<path d="M46.9082 50.2818C46.3217 50.2818 45.7634 49.9371 45.5152 49.3587C45.1805 48.5813 45.5328 47.6789 46.302 47.3399C51.2038 45.1862 53.3155 39.7857 55.3575 34.5622C55.7674 33.5148 56.1703 32.4837 56.588 31.4981C56.9192 30.72 57.8136 30.3612 58.5815 30.6923C59.3522 31.0263 59.7094 31.928 59.3789 32.7068C58.9718 33.6654 58.5794 34.6695 58.1807 35.6906C56.0177 41.2239 53.5665 47.4956 47.5122 50.1553C47.3153 50.2413 47.11 50.2818 46.9082 50.2818Z" fill="#525D7D"/>
<path d="M71.8956 87.5905C71.1249 87.5905 70.4653 87 70.3866 86.2092C70.3029 85.3664 70.9119 84.6139 71.7465 84.53C80.0925 83.6859 85.3712 76.2062 87.4357 62.2951C87.6501 60.8519 88.3428 60.2834 88.9756 59.8649C89.2977 59.651 89.8975 59.2538 89.8975 55.1118C89.8975 52.3398 89.6155 49.545 89.3434 46.8434C89.1437 44.8637 88.9369 42.8172 88.8413 40.7856C88.8019 39.9393 89.4481 39.2202 90.2856 39.1804C91.1386 39.1513 91.8347 39.7929 91.8748 40.6399C91.9662 42.5884 92.1596 44.5041 92.3642 46.5328C92.6447 49.3105 92.9345 52.1841 92.9345 55.1118C92.9345 59.9871 92.1286 61.4445 90.6421 62.4301C90.5852 62.4678 90.5275 62.4997 90.4762 62.5431C90.4804 62.5523 90.4586 62.6212 90.4396 62.7506C88.1754 78.0097 81.8159 86.5964 72.0496 87.582C71.9976 87.5884 71.9469 87.5905 71.8956 87.5905Z" fill="#525D7D"/>
<path d="M57.5078 59.9978C54.9694 59.9978 53.5996 57.5385 53.5996 55.2241C53.5996 54.3771 54.2789 53.6899 55.1178 53.6899C55.9566 53.6899 56.6359 54.3771 56.6359 55.2241C56.6359 55.9212 56.946 56.9288 57.5078 56.9288C58.0465 56.9288 59.386 56.4492 61.39 55.0976C62.0869 54.6279 63.0298 54.8176 63.4953 55.5218C63.9608 56.2267 63.7724 57.1796 63.0755 57.65C60.7663 59.2084 58.8931 59.9978 57.5078 59.9978Z" fill="#525D7D"/>
<path d="M74.6866 59.5684C72.3914 59.5684 70.7031 58.2396 70.2798 56.1007C70.1153 55.2701 70.6483 54.4614 71.471 54.2958C72.2944 54.131 73.0932 54.6682 73.257 55.4996C73.321 55.8243 73.4553 56.5008 74.6866 56.5008C75.4228 56.5008 76.2912 56.2343 76.9522 55.8044C77.6575 55.3461 78.5962 55.5529 79.0505 56.2649C79.504 56.9783 79.2994 57.9269 78.5941 58.3853C77.4367 59.1364 76.0121 59.5684 74.6866 59.5684Z" fill="#525D7D"/>
<path d="M66.6455 74.5903C66.2004 74.5903 65.7588 74.3935 65.4585 74.0148C64.9347 73.3525 65.0409 72.3875 65.6955 71.8581C66.0879 71.5405 66.2637 71.22 66.2637 71.0431C66.2637 70.3652 66.0084 69.5978 65.7377 68.7848C65.4121 67.8078 65.043 66.6993 65.043 65.4877C65.043 64.8475 65.1477 64.2222 65.3545 63.6302C65.6336 62.8315 66.4999 62.4116 67.291 62.6944C68.0814 62.9758 68.4969 63.852 68.2178 64.6514C68.1243 64.9193 68.0793 65.1928 68.0793 65.4884C68.0793 66.1976 68.3394 66.98 68.6158 67.8064C68.9371 68.7699 69.3007 69.8621 69.3007 71.0438C69.3007 72.2234 68.6945 73.3639 67.5927 74.2542C67.3135 74.4809 66.9781 74.5903 66.6455 74.5903Z" fill="#525D7D"/>
<path d="M59.2124 78.2222C58.9122 78.2222 58.6084 78.1319 58.3433 77.9444C56.6023 76.7129 55.4969 74.7147 55.312 72.465C55.2424 71.6201 55.8633 70.879 56.6986 70.8079C57.5452 70.7504 58.2681 71.365 58.3377 72.2092C58.4481 73.5494 59.0852 74.724 60.0851 75.4317C60.7721 75.917 60.9394 76.8742 60.4585 77.5685C60.1624 77.9948 59.6913 78.2222 59.2124 78.2222Z" fill="#525D7D"/>
<path d="M37.7189 141.657C37.6627 141.657 37.6064 141.654 37.5495 141.648C36.3449 141.512 35.1594 141.432 34.0132 141.354C26.8936 140.873 20.1699 140.418 20.1699 126.306C20.1699 94.6951 31.0817 91.2331 45.3462 89.9931C51.5208 89.4559 56.8536 88.9926 59.8547 83.8323C60.2802 83.1018 61.2105 82.8574 61.9326 83.2873C62.6555 83.7165 62.8967 84.6566 62.4719 85.3871C58.6762 91.9145 52.032 92.4915 45.6064 93.0508C34.5934 94.0086 23.2062 94.9985 23.2062 126.307C23.2062 137.548 27.1165 137.813 34.2157 138.294C35.395 138.373 36.6136 138.457 37.8842 138.599C38.7174 138.692 39.3187 139.451 39.2251 140.293C39.14 141.076 38.4819 141.657 37.7189 141.657Z" fill="#525D7D"/>
<path d="M98.6366 140.816C97.8505 140.816 97.186 140.204 97.1241 139.399C97.0601 138.554 97.6852 137.817 98.5213 137.752C105.141 137.237 108.323 136.334 108.323 121.557C108.323 99.1489 100.056 98.3097 91.3026 97.4207C84.7399 96.7556 77.3024 96.0003 75.0031 85.1908C74.8266 84.3616 75.3483 83.5465 76.1682 83.3682C76.9867 83.1905 77.7954 83.7178 77.9718 84.5456C79.8071 93.1707 85.0141 93.6987 91.6063 94.3681C102.799 95.5036 111.36 98.2265 111.36 121.557C111.36 137.292 107.644 140.119 98.7555 140.811C98.7154 140.815 98.676 140.816 98.6366 140.816Z" fill="#525D7D"/>
<path d="M66.0285 105.427C58.9371 105.427 51.4335 102.027 50.6565 94.4319C50.5707 93.5892 51.1762 92.8345 52.0108 92.7478C52.8385 92.6668 53.5909 93.273 53.6774 94.1164C54.2603 99.8097 60.3005 102.359 66.0292 102.359C72.4485 102.359 76.9326 99.5531 81.0236 92.9767C81.4709 92.2583 82.4075 92.0429 83.117 92.4942C83.8265 92.9447 84.0409 93.8912 83.5944 94.6089C80.4611 99.6462 75.6331 105.427 66.0285 105.427Z" fill="#525D7D"/>
<path d="M86.2677 150.46C80.7443 150.46 75.1583 150.249 69.7565 150.046C64.3787 149.842 58.818 149.633 53.3431 149.633L52.3882 149.635C49.9236 149.652 47.9055 147.794 47.6784 145.329C47.2783 140.985 46.9373 136.595 46.6068 132.352C46.2784 128.134 45.9388 123.775 45.5436 119.47C45.4212 118.139 45.8607 116.808 46.7481 115.819C47.6292 114.839 48.8857 114.273 50.1965 114.268C54.1173 114.253 58.0375 114.26 61.9591 114.269C64.2338 114.273 66.5086 114.278 68.7833 114.278C75.0134 114.278 82.3798 114.247 89.7744 114.015C92.3283 113.921 94.4962 115.946 94.6256 118.501C94.7599 121.142 94.8611 123.777 94.9631 126.41C95.1993 132.546 95.444 138.892 96.124 145.134C96.2661 146.441 95.8568 147.762 94.9996 148.756C94.1354 149.758 92.8845 150.354 91.5675 150.39C89.8658 150.438 88.1325 150.46 86.2677 150.46ZM53.3431 146.564C58.875 146.564 64.4645 146.775 69.8697 146.98C75.2434 147.182 80.8012 147.393 86.2677 147.393C88.1044 147.393 89.8096 147.37 91.4817 147.324C91.9598 147.31 92.3958 147.103 92.7087 146.74C93.0139 146.386 93.1545 145.935 93.1039 145.47C92.4127 139.12 92.1659 132.72 91.9275 126.529C91.8269 123.909 91.7257 121.287 91.5921 118.659C91.5464 117.761 90.8024 117.086 89.8672 117.082C82.4312 117.316 75.0359 117.347 68.7819 117.347C66.5051 117.347 64.2289 117.342 61.9521 117.337C58.0354 117.33 54.1201 117.323 50.2063 117.337C49.7394 117.339 49.3098 117.533 48.9947 117.882C48.6734 118.24 48.5215 118.704 48.5658 119.187C48.9638 123.513 49.3034 127.884 49.6325 132.112C49.9623 136.346 50.3033 140.724 50.7006 145.046C50.7794 145.9 51.5093 146.567 52.3643 146.567C52.3721 146.566 53.3431 146.564 53.3431 146.564Z" fill="#525D7D"/>
<path d="M42.9965 130.952C38.691 130.952 36.6855 129.178 36.6855 125.37C36.6855 124.56 36.7664 123.739 36.8452 122.946C36.9148 122.242 36.9809 121.575 36.9809 121.001C36.9809 120.815 36.9738 120.636 36.957 120.467C36.8698 119.624 37.4752 118.87 38.3092 118.781C39.1396 118.704 39.8899 119.305 39.9764 120.147C40.0045 120.418 40.0172 120.705 40.0172 121C40.0172 121.727 39.9405 122.502 39.8667 123.251C39.7964 123.97 39.7225 124.712 39.7225 125.37C39.7225 127.02 39.8681 127.883 42.9972 127.883C43.9999 127.883 45.042 127.732 46.1439 127.572L46.3218 127.546C47.1494 127.427 47.9208 128.009 48.0396 128.849C48.1585 129.686 47.5819 130.464 46.7514 130.585L46.5742 130.609C45.4147 130.779 44.2158 130.952 42.9965 130.952Z" fill="#525D7D"/>
<path d="M94.3569 126.373C93.5433 126.373 92.8697 125.722 92.8408 124.894C92.8106 124.047 93.466 123.335 94.3034 123.305C96.9206 123.21 98.8937 121.064 98.8937 118.311C98.8937 117.845 98.834 117.376 98.7165 116.917C98.5063 116.097 98.9936 115.26 99.805 115.048C100.619 114.838 101.446 115.328 101.656 116.148C101.838 116.858 101.93 117.586 101.93 118.312C101.93 122.68 98.6272 126.221 94.4117 126.373C94.3934 126.373 94.3752 126.373 94.3569 126.373Z" fill="#525D7D"/>
<path d="M73.1931 138.442C72.9322 138.442 72.672 138.373 72.4393 138.239C70.476 137.104 68.4361 136.155 66.2767 135.148C65.2044 134.648 64.1306 134.148 63.066 133.624C62.6589 133.423 62.3614 133.05 62.2553 132.605C62.1491 132.159 62.2447 131.69 62.5168 131.323L63.002 130.672C64.7128 128.379 66.4806 126.008 67.7632 123.433C68.126 122.704 68.9874 122.387 69.7279 122.718C71.6468 123.565 73.7233 124.328 76.2624 125.117C76.6597 125.24 76.9902 125.522 77.1751 125.899C77.3608 126.275 77.3854 126.711 77.244 127.106C76.4558 129.303 75.9228 131.714 75.4074 134.045C75.1683 135.128 74.9292 136.21 74.6648 137.279C74.5495 137.745 74.2246 138.13 73.7872 138.319C73.5981 138.4 73.3956 138.442 73.1931 138.442ZM66.0622 131.667C66.5573 131.901 67.0523 132.132 67.548 132.362C69.076 133.073 70.6413 133.802 72.1728 134.603C72.2649 134.194 72.3549 133.785 72.4456 133.375C72.8689 131.459 73.3042 129.49 73.8899 127.574C72.4041 127.084 71.0653 126.594 69.8059 126.077C68.6886 128.067 67.3757 129.897 66.0622 131.667Z" fill="#525D7D"/>
<path d="M69.7899 157.301C66.7536 157.301 61.9446 157.28 57.7734 156.697C55.5359 156.384 48.7285 155.432 48.7285 151.023C48.7285 150.727 48.7355 150.432 48.7419 150.146C48.7475 149.905 48.7531 149.672 48.7531 149.455C48.7531 148.608 49.4324 147.921 50.2713 147.921C51.1101 147.921 51.7894 148.608 51.7894 149.455C51.7894 149.694 51.7838 149.952 51.7775 150.219C51.7711 150.48 51.7648 150.751 51.7648 151.023C51.7648 151.824 53.4475 152.995 58.1897 153.658C62.3229 154.236 67.2282 154.23 70.1492 154.234H70.4698C86.4698 154.234 92.4327 151.881 92.4327 150.399C92.4327 150.123 92.4221 149.848 92.4123 149.577C92.401 149.277 92.3905 148.984 92.3905 148.7C92.3905 147.853 93.0697 147.166 93.9086 147.166C94.7475 147.166 95.4268 147.853 95.4268 148.7C95.4268 148.946 95.4366 149.202 95.4464 149.461C95.4577 149.771 95.4689 150.084 95.4689 150.399C95.4689 152.106 95.4689 157.302 70.4698 157.302H70.1499C70.0332 157.301 69.9129 157.301 69.7899 157.301Z" fill="#525D7D"/>
<path d="M90.0236 17.8698C89.3626 17.8698 88.755 17.4314 88.5645 16.757C88.3345 15.942 88.8014 15.0928 89.608 14.8605C91.9418 14.1875 93.5718 12.1098 93.5718 9.80819C93.5718 9.71226 93.5711 9.62343 93.5711 9.5403C93.5029 9.08694 93.4768 8.70465 93.4768 8.43818C93.4768 7.20104 94.3945 6.75195 95.0111 6.75195C95.4457 6.75195 96.4674 6.92605 96.575 8.53411C96.5869 8.70749 96.5975 8.9434 96.6031 9.24967C96.7501 10.0818 97.108 11.3303 97.8956 12.1432C98.4405 12.7067 99.1254 12.9802 99.9882 12.9802C100.208 12.9802 100.435 12.9511 100.665 12.8957C101.481 12.6989 102.301 13.2034 102.499 14.0262C102.695 14.8491 102.195 15.6783 101.38 15.878C100.916 15.991 100.447 16.0486 99.9882 16.0486C98.1571 16.0486 96.5891 15.3231 95.4422 13.9744C94.3593 15.7814 92.5922 17.1898 90.4405 17.8108C90.302 17.8513 90.1621 17.8698 90.0236 17.8698Z" fill="#525D7D"/>
<path d="M95.525 23.4607C95.4638 23.4607 95.4252 23.4564 95.416 23.4557C95.184 23.4316 94.0273 23.2362 94.0491 21.7091L94.0533 21.1755C94.0533 19.9632 92.5921 18.773 91.1028 18.773C90.9256 18.773 90.7561 18.7907 90.5972 18.827C89.7801 19.0046 88.9679 18.4887 88.7865 17.6616C88.6044 16.8338 89.1212 16.0145 89.9397 15.8311C90.3131 15.748 90.7048 15.7054 91.1028 15.7054C92.8396 15.7054 94.4611 16.4636 95.577 17.6254C96.7752 15.6947 98.5416 14.3808 100.721 13.8514C101.534 13.661 102.356 14.1613 102.552 14.9848C102.747 15.8091 102.245 16.6369 101.43 16.8359C98.3735 17.577 97.3982 20.4478 97.0882 22.0914C96.8519 23.352 95.859 23.4593 95.525 23.4607Z" fill="#525D7D"/>
<path d="M113.681 73.5429C110.171 73.5429 106.614 72.6277 103.506 71.2449C102.873 70.9621 102.508 70.2828 102.62 69.5928C102.731 68.9028 103.29 68.3763 103.98 68.3123C108.601 67.8867 112.392 65.6391 115.248 61.6328C119.592 55.5388 119.911 48.0577 118.761 43.0886C118.608 42.4242 118.906 41.7364 119.495 41.4017C120.084 41.0698 120.82 41.1657 121.302 41.6433C125.423 45.7263 135.074 55.2858 126.667 67.0823C123.313 71.7856 118.542 73.5429 113.681 73.5429ZM109.687 70.044C114.972 71.1326 120.646 70.2771 124.201 65.2887C129.159 58.3342 126.77 52.4847 122.341 47.2271C122.526 52.28 121.379 58.2809 117.712 63.427C115.505 66.5223 112.819 68.7344 109.687 70.044Z" fill="#525D7D"/>
<path d="M116.258 36.893C115.61 36.893 115.011 36.4702 114.809 35.8165C114.158 33.711 113.248 31.5195 111.439 31.231C110.688 31.111 110.141 30.448 110.159 29.6798C110.176 28.9117 110.753 28.2757 111.509 28.1904C112.672 28.0604 113.644 27.2439 114.039 26.1738C113.998 25.9358 113.977 25.6892 113.977 25.4355C113.977 23.3393 114.894 22.8994 115.664 22.8994C116.394 22.8994 117.266 23.2831 117.266 25.1136C117.266 25.4341 117.242 25.7496 117.195 26.0587C117.648 26.8105 118.867 27.3214 119.983 27.3214C121.367 27.3214 121.653 28.3013 121.707 28.6012C121.793 29.0787 121.752 29.9506 120.499 30.4309C119.161 30.9433 117.623 31.8201 117.623 34.0656C117.623 34.3725 117.661 34.688 117.735 35.0021C117.925 35.8072 117.45 36.618 116.662 36.8383C116.527 36.8752 116.392 36.893 116.258 36.893ZM115.072 29.8532C115.259 30.0422 115.434 30.2405 115.597 30.4466C115.826 30.092 116.103 29.7452 116.435 29.4141C116.24 29.2982 116.053 29.1732 115.875 29.0382C115.633 29.3338 115.365 29.6066 115.072 29.8532Z" fill="#525D7D"/>
<path d="M30.7703 28.7824C30.122 28.7824 29.5243 28.3603 29.3218 27.7059C28.6706 25.6004 27.7607 23.4089 25.9522 23.1204C25.2012 23.0004 24.6534 22.3381 24.6703 21.5699C24.6879 20.8018 25.2645 20.1644 26.0197 20.0798C27.1834 19.9491 28.1545 19.1319 28.5504 18.0625C28.5089 17.8259 28.4878 17.5793 28.4878 17.3256C28.4878 16.9952 28.5166 16.6506 28.5687 16.3578C28.8281 14.9018 29.8639 14.7888 30.1747 14.7888C30.906 14.7888 31.7772 15.1732 31.7772 17.0044C31.7772 17.3249 31.7533 17.6404 31.7062 17.9495C32.1584 18.7013 33.3784 19.2122 34.4936 19.2122C35.8781 19.2122 36.1636 20.1921 36.2178 20.492C36.3043 20.9695 36.2628 21.8414 35.0104 22.3218C33.6716 22.8341 32.1345 23.7109 32.1345 25.9564C32.1345 26.262 32.1724 26.5775 32.247 26.8944C32.4368 27.6981 31.9615 28.5103 31.1732 28.7291C31.0382 28.7646 30.9032 28.7824 30.7703 28.7824ZM29.5848 21.7419C29.7718 21.9309 29.9462 22.1306 30.1093 22.336C30.3386 21.9814 30.6156 21.6346 30.9475 21.3035C30.752 21.1877 30.565 21.0619 30.3864 20.9269C30.1452 21.2232 29.8759 21.496 29.5848 21.7419Z" fill="#525D7D"/>
<path d="M63.9163 11.6991C63.436 11.6991 62.7947 11.4781 62.4087 10.4506C61.9003 9.09763 61.0333 7.54429 58.812 7.54429C58.5103 7.54429 58.1974 7.58266 57.8831 7.65799C57.0864 7.84558 56.2841 7.36807 56.0682 6.5715C55.8516 5.77422 56.2988 4.9471 57.0794 4.70123C59.1621 4.04323 61.3307 3.12444 61.6169 1.2961C61.7357 0.537195 62.4052 -0.0405123 63.1512 0.00141235C63.9114 0.019177 64.5414 0.601858 64.6251 1.36503C64.7545 2.54105 65.5638 3.52237 66.6228 3.92172C67.1642 3.8265 67.7971 3.84853 68.3097 3.9402C69.7512 4.20169 69.8623 5.2491 69.8623 5.56389C69.8623 6.30219 69.4826 7.1826 67.6705 7.1826C67.3527 7.1826 67.0412 7.15773 66.7353 7.11083C65.9906 7.56774 65.4858 8.80061 65.4858 9.9276C65.4858 11.3267 64.5161 11.6152 64.2193 11.6707C64.13 11.6877 64.0274 11.6991 63.9163 11.6991ZM62.3932 5.4978C62.7441 5.72874 63.0865 6.00871 63.4149 6.34411C63.5295 6.14728 63.6533 5.95755 63.7869 5.77777C63.4937 5.53333 63.2237 5.2626 62.9804 4.96699C62.7933 5.15672 62.5971 5.33295 62.3932 5.4978Z" fill="#525D7D"/>
</g>
<defs>
<clipPath id="clip0_3223_9878">
<rect width="130" height="160" fill="white"/>
</clipPath>
</defs>
</svg>
