<svg width="121" height="124" viewBox="0 0 121 124" fill="none" xmlns="http://www.w3.org/2000/svg">
<g clip-path="url(#clip0_3213_5862)">
<g filter="url(#filter0_f_3213_5862)">
<path d="M13.3653 6.65289C10.2443 7.60149 8.20694 9.36932 7.0799 11.9564C6.51638 13.3793 6.42969 19.6746 6.42969 66.1991C6.42969 112.724 6.51638 119.019 7.0799 120.442C7.94685 122.468 9.24728 123.805 11.4147 124.969L13.1486 125.918H66.2493H119.35L121.084 124.969C123.251 123.805 124.552 122.468 125.419 120.442C125.982 119.019 126.069 112.724 126.069 66.1991C126.069 19.6746 125.982 13.3793 125.419 11.9564C124.552 9.92986 123.251 8.5932 121.084 7.42901L119.35 6.48041L66.8995 6.39417C38.03 6.35106 13.9722 6.48041 13.3653 6.65289ZM119.913 11.0078C122.298 12.4738 122.601 13.8105 122.601 23.5121V32.1357H66.2493H9.89749V23.5121C9.89749 13.8105 10.2009 12.4738 12.585 11.0078C14.0155 10.1455 14.6224 10.1455 66.2493 10.1455C117.876 10.1455 118.483 10.1455 119.913 11.0078ZM9.89749 33.6017C9.89749 33.9036 9.50736 34.5072 9.03054 34.9384C8.16359 35.7145 8.16359 35.6714 8.16359 33.9036C8.16359 32.222 8.20694 32.1357 9.03054 32.5669C9.50736 32.8256 9.89749 33.2999 9.89749 33.6017ZM124.335 33.9467C124.335 35.6714 124.335 35.7145 123.468 34.9384C122.384 33.9898 122.384 33.1706 123.381 32.61C123.771 32.3513 124.162 32.1357 124.248 32.1357C124.292 32.1357 124.335 32.955 124.335 33.9467ZM122.601 76.5474C122.601 121.692 122.731 119.666 119.913 121.39C118.483 122.253 117.876 122.253 66.2493 122.253C14.6224 122.253 14.0155 122.253 12.585 121.39C9.76745 119.666 9.89749 121.692 9.89749 76.5474V35.5852H66.2493H122.601V76.5474Z" fill="#E0DFE6"/>
<path d="M13.3653 6.65289C10.2443 7.60149 8.20694 9.36932 7.0799 11.9564C6.51638 13.3793 6.42969 19.6746 6.42969 66.1991C6.42969 112.724 6.51638 119.019 7.0799 120.442C7.94685 122.468 9.24728 123.805 11.4147 124.969L13.1486 125.918H66.2493H119.35L121.084 124.969C123.251 123.805 124.552 122.468 125.419 120.442C125.982 119.019 126.069 112.724 126.069 66.1991C126.069 19.6746 125.982 13.3793 125.419 11.9564C124.552 9.92986 123.251 8.5932 121.084 7.42901L119.35 6.48041L66.8995 6.39417C38.03 6.35106 13.9722 6.48041 13.3653 6.65289ZM119.913 11.0078C122.298 12.4738 122.601 13.8105 122.601 23.5121V32.1357H66.2493H9.89749V23.5121C9.89749 13.8105 10.2009 12.4738 12.585 11.0078C14.0155 10.1455 14.6224 10.1455 66.2493 10.1455C117.876 10.1455 118.483 10.1455 119.913 11.0078ZM9.89749 33.6017C9.89749 33.9036 9.50736 34.5072 9.03054 34.9384C8.16359 35.7145 8.16359 35.6714 8.16359 33.9036C8.16359 32.222 8.20694 32.1357 9.03054 32.5669C9.50736 32.8256 9.89749 33.2999 9.89749 33.6017ZM124.335 33.9467C124.335 35.6714 124.335 35.7145 123.468 34.9384C122.384 33.9898 122.384 33.1706 123.381 32.61C123.771 32.3513 124.162 32.1357 124.248 32.1357C124.292 32.1357 124.335 32.955 124.335 33.9467ZM122.601 76.5474C122.601 121.692 122.731 119.666 119.913 121.39C118.483 122.253 117.876 122.253 66.2493 122.253C14.6224 122.253 14.0155 122.253 12.585 121.39C9.76745 119.666 9.89749 121.692 9.89749 76.5474V35.5852H66.2493H122.601V76.5474Z" fill="#E0DFE6"/>
<path d="M13.3653 6.65289C10.2443 7.60149 8.20694 9.36932 7.0799 11.9564C6.51638 13.3793 6.42969 19.6746 6.42969 66.1991C6.42969 112.724 6.51638 119.019 7.0799 120.442C7.94685 122.468 9.24728 123.805 11.4147 124.969L13.1486 125.918H66.2493H119.35L121.084 124.969C123.251 123.805 124.552 122.468 125.419 120.442C125.982 119.019 126.069 112.724 126.069 66.1991C126.069 19.6746 125.982 13.3793 125.419 11.9564C124.552 9.92986 123.251 8.5932 121.084 7.42901L119.35 6.48041L66.8995 6.39417C38.03 6.35106 13.9722 6.48041 13.3653 6.65289ZM119.913 11.0078C122.298 12.4738 122.601 13.8105 122.601 23.5121V32.1357H66.2493H9.89749V23.5121C9.89749 13.8105 10.2009 12.4738 12.585 11.0078C14.0155 10.1455 14.6224 10.1455 66.2493 10.1455C117.876 10.1455 118.483 10.1455 119.913 11.0078ZM9.89749 33.6017C9.89749 33.9036 9.50736 34.5072 9.03054 34.9384C8.16359 35.7145 8.16359 35.6714 8.16359 33.9036C8.16359 32.222 8.20694 32.1357 9.03054 32.5669C9.50736 32.8256 9.89749 33.2999 9.89749 33.6017ZM124.335 33.9467C124.335 35.6714 124.335 35.7145 123.468 34.9384C122.384 33.9898 122.384 33.1706 123.381 32.61C123.771 32.3513 124.162 32.1357 124.248 32.1357C124.292 32.1357 124.335 32.955 124.335 33.9467ZM122.601 76.5474C122.601 121.692 122.731 119.666 119.913 121.39C118.483 122.253 117.876 122.253 66.2493 122.253C14.6224 122.253 14.0155 122.253 12.585 121.39C9.76745 119.666 9.89749 121.692 9.89749 76.5474V35.5852H66.2493H122.601V76.5474Z" fill="#E0DFE6"/>
<path d="M13.3653 6.65289C10.2443 7.60149 8.20694 9.36932 7.0799 11.9564C6.51638 13.3793 6.42969 19.6746 6.42969 66.1991C6.42969 112.724 6.51638 119.019 7.0799 120.442C7.94685 122.468 9.24728 123.805 11.4147 124.969L13.1486 125.918H66.2493H119.35L121.084 124.969C123.251 123.805 124.552 122.468 125.419 120.442C125.982 119.019 126.069 112.724 126.069 66.1991C126.069 19.6746 125.982 13.3793 125.419 11.9564C124.552 9.92986 123.251 8.5932 121.084 7.42901L119.35 6.48041L66.8995 6.39417C38.03 6.35106 13.9722 6.48041 13.3653 6.65289ZM119.913 11.0078C122.298 12.4738 122.601 13.8105 122.601 23.5121V32.1357H66.2493H9.89749V23.5121C9.89749 13.8105 10.2009 12.4738 12.585 11.0078C14.0155 10.1455 14.6224 10.1455 66.2493 10.1455C117.876 10.1455 118.483 10.1455 119.913 11.0078ZM9.89749 33.6017C9.89749 33.9036 9.50736 34.5072 9.03054 34.9384C8.16359 35.7145 8.16359 35.6714 8.16359 33.9036C8.16359 32.222 8.20694 32.1357 9.03054 32.5669C9.50736 32.8256 9.89749 33.2999 9.89749 33.6017ZM124.335 33.9467C124.335 35.6714 124.335 35.7145 123.468 34.9384C122.384 33.9898 122.384 33.1706 123.381 32.61C123.771 32.3513 124.162 32.1357 124.248 32.1357C124.292 32.1357 124.335 32.955 124.335 33.9467ZM122.601 76.5474C122.601 121.692 122.731 119.666 119.913 121.39C118.483 122.253 117.876 122.253 66.2493 122.253C14.6224 122.253 14.0155 122.253 12.585 121.39C9.76745 119.666 9.89749 121.692 9.89749 76.5474V35.5852H66.2493H122.601V76.5474Z" fill="#E0DFE6"/>
<path d="M11.9883 6.3543C8.86732 7.3029 6.82998 9.07074 5.70295 11.6578C5.13943 13.0807 5.05273 19.376 5.05273 65.9005C5.05273 112.425 5.13943 118.72 5.70295 120.143C6.5699 122.17 7.87032 123.506 10.0377 124.671L11.7716 125.619H64.8723H117.973L119.707 124.671C121.874 123.506 123.175 122.17 124.042 120.143C124.605 118.72 124.692 112.425 124.692 65.9005C124.692 19.376 124.605 13.0807 124.042 11.6578C123.175 9.63128 121.874 8.29462 119.707 7.13042L117.973 6.18182L65.5225 6.09559C36.6531 6.05247 12.5952 6.18182 11.9883 6.3543ZM118.537 10.7092C120.921 12.1753 121.224 13.5119 121.224 23.2135V31.8371H64.8723H8.52054V23.2135C8.52054 13.5119 8.82397 12.1753 11.2081 10.7092C12.6385 9.84687 13.2454 9.84687 64.8723 9.84687C116.499 9.84687 117.106 9.84687 118.537 10.7092ZM8.52054 33.3032C8.52054 33.605 8.13041 34.2086 7.65359 34.6398C6.78663 35.4159 6.78663 35.3728 6.78663 33.605C6.78663 31.9234 6.82998 31.8371 7.65359 32.2683C8.13041 32.527 8.52054 33.0013 8.52054 33.3032ZM122.958 33.6481C122.958 35.3728 122.958 35.4159 122.091 34.6398C121.007 33.6912 121.007 32.872 122.004 32.3114C122.394 32.0527 122.785 31.8371 122.871 31.8371C122.915 31.8371 122.958 32.6564 122.958 33.6481ZM121.224 76.2488C121.224 121.394 121.354 119.367 118.537 121.092C117.106 121.954 116.499 121.954 64.8723 121.954C13.2454 121.954 12.6385 121.954 11.2081 121.092C8.39049 119.367 8.52054 121.394 8.52054 76.2488V35.2866H64.8723H121.224V76.2488Z" fill="#E0DFE6"/>
<path d="M22.0493 15.9969C17.8013 18.8858 17.8013 20.3949 22.0493 22.982C24.9536 24.7499 26.2107 24.9655 26.9042 23.7582C27.5111 22.5509 27.0343 21.6885 25.127 20.5674L23.4364 19.5757L25.3871 18.1959C27.4678 16.7299 27.7712 15.9969 26.6442 14.9189C25.6472 13.8841 24.7802 14.0997 22.0493 15.9969ZM22.7862 19.4032C22.7862 21.3435 22.5695 21.4729 21.5292 20.3087C20.7922 19.5326 20.7922 19.4463 21.6592 18.584C22.1794 18.0666 22.6128 17.6785 22.6995 17.6785C22.7862 17.6785 22.8296 18.4546 22.7862 19.4032Z" fill="#E0DFE6"/>
<path d="M37.3078 15.0913C36.6143 16.3848 37.1344 17.4197 38.825 18.3683C39.6486 18.7995 40.2988 19.3169 40.2555 19.4894C40.1688 19.6618 39.4319 20.2224 38.6083 20.7829C36.9611 21.904 36.5276 22.9819 37.3078 23.9305C38.1314 24.9222 39.3452 24.7067 41.9894 23.025C44.937 21.1278 45.1537 20.8691 45.0237 19.1875C44.8937 18.1096 44.4168 17.5922 42.0761 16.083C38.9117 14.0133 38.0014 13.8409 37.3078 15.0913ZM42.943 19.4031C42.943 20.093 42.1628 21.1278 41.6426 21.1278C41.5125 21.1278 41.4258 20.3948 41.4258 19.4462C41.4258 17.9802 41.4692 17.8509 42.1628 18.282C42.5962 18.5408 42.943 19.0582 42.943 19.4031Z" fill="#E0DFE6"/>
<path d="M64.2714 18.1958C63.6645 18.7995 63.6212 19.7912 64.1414 20.6536C64.4015 21.0847 65.6585 21.2572 68.5628 21.3434C70.8169 21.3866 72.8976 21.3434 73.201 21.2141C74.1546 20.8692 74.6748 19.4894 74.1546 18.5408C73.7212 17.7646 73.2443 17.6784 69.2564 17.6784C66.3521 17.6784 64.6182 17.8509 64.2714 18.1958Z" fill="#E0DFE6"/>
<path d="M81.0036 18.7994C80.5267 19.7911 80.5701 20.0499 81.3937 20.6966C82.1306 21.2572 83.1276 21.4296 86.2486 21.3865C90.8868 21.3003 92.0138 20.6966 91.1469 18.7563C90.6701 17.7215 90.54 17.6784 86.0752 17.6784C81.5671 17.6784 81.4804 17.6784 81.0036 18.7994Z" fill="#E0DFE6"/>
<path d="M97.9949 18.5409C97.4314 19.5757 98.0382 20.9555 99.1653 21.2573C99.5987 21.3867 101.679 21.4298 103.76 21.3867C107.661 21.3004 108.355 20.9986 108.398 19.3601C108.398 17.9803 107.401 17.6785 102.893 17.6785C98.9052 17.6785 98.4283 17.7647 97.9949 18.5409Z" fill="#E0DFE6"/>
<path d="M69.2546 44.929C68.9078 45.4896 66.2636 54.1994 63.316 64.3322C58.9379 79.5098 58.1143 82.9161 58.5478 83.4335C59.198 84.2097 60.8885 84.2959 61.4521 83.5198C61.9289 82.9161 72.419 46.6537 72.419 45.662C72.419 43.9373 70.2083 43.4199 69.2546 44.929Z" fill="#E0DFE6"/>
<path d="M45.5445 56.0537C41.6432 59.3738 38.2621 62.3921 38.0454 62.737C37.005 64.5911 37.8286 65.6259 45.2411 71.878C50.1827 76.0605 52.8702 78.0439 53.5638 78.0439C54.6908 78.0439 55.6445 76.7504 55.2977 75.8018C55.1676 75.5 52.0466 72.6973 48.3621 69.6359L41.6432 64.0305L42.7703 63.2113C44.8076 61.7022 53.5638 54.2858 54.5608 53.2079C55.0809 52.6042 55.5144 51.9575 55.5144 51.7419C55.5144 51.0951 54.1707 50.0171 53.4337 50.0171C53.0436 50.0603 49.4891 52.7767 45.5445 56.0537Z" fill="#E0DFE6"/>
<path d="M76.1476 50.707C75.2373 51.6125 75.2807 51.9143 76.4511 53.2079C77.4047 54.2858 86.1609 61.7022 88.1983 63.2113L89.3253 64.0305L82.6064 69.6359C78.9219 72.6973 75.8009 75.5 75.6708 75.8018C75.324 76.7504 76.2777 78.0439 77.4047 78.0439C78.0983 78.0439 80.7858 76.0605 85.7274 71.878C92.0995 66.4883 93.0098 65.5828 93.1399 64.3324C93.3133 62.6939 93.4433 62.8232 84.427 55.2776C80.9592 52.3886 77.8382 50.0171 77.4914 50.0171C77.1013 50.0171 76.4944 50.319 76.1476 50.707Z" fill="#E0DFE6"/>
<path d="M27.5123 95.5068C26.9054 98.0076 24.9981 97.8783 65.4847 97.8783C105.971 97.8783 104.064 98.0076 103.457 95.5068L103.197 94.4288H65.4847H27.7723L27.5123 95.5068Z" fill="#E0DFE6"/>
<path d="M28.0314 106.761C27.2078 107.537 27.1211 108.701 27.858 109.434C28.5949 110.167 102.372 110.167 103.109 109.434C103.846 108.701 103.76 107.537 102.936 106.761C102.329 106.157 98.3411 106.071 65.4837 106.071C32.6263 106.071 28.6383 106.157 28.0314 106.761Z" fill="#E0DFE6"/>
</g>
<path d="M8.3731 5.11797C5.25208 6.06657 3.21475 7.83441 2.08771 10.4215C1.5242 11.8444 1.4375 18.1397 1.4375 64.6642C1.4375 111.189 1.5242 117.484 2.08771 118.907C2.95466 120.933 4.25509 122.27 6.42246 123.434L8.15636 124.383H61.2571H114.358L116.092 123.434C118.259 122.27 119.559 120.933 120.426 118.907C120.99 117.484 121.077 111.189 121.077 64.6642C121.077 18.1397 120.99 11.8444 120.426 10.4215C119.559 8.39495 118.259 7.05829 116.092 5.8941L114.358 4.9455L61.9073 4.85926C33.0378 4.81615 8.97997 4.9455 8.3731 5.11797ZM114.921 9.47291C117.305 10.9389 117.609 12.2756 117.609 21.9772V30.6008H61.2571H4.9053V21.9772C4.9053 12.2756 5.20873 10.9389 7.59285 9.47291C9.02331 8.61054 9.63018 8.61054 61.2571 8.61054C112.884 8.61054 113.491 8.61054 114.921 9.47291ZM4.9053 32.0668C4.9053 32.3687 4.51517 32.9723 4.03835 33.4035C3.1714 34.1796 3.1714 34.1365 3.1714 32.3687C3.1714 30.687 3.21475 30.6008 4.03835 31.032C4.51517 31.2907 4.9053 31.765 4.9053 32.0668ZM119.343 32.4118C119.343 34.1365 119.343 34.1796 118.476 33.4035C117.392 32.4549 117.392 31.6356 118.389 31.0751C118.779 30.8164 119.169 30.6008 119.256 30.6008C119.299 30.6008 119.343 31.4201 119.343 32.4118ZM117.609 75.0125C117.609 120.157 117.739 118.131 114.921 119.855C113.491 120.718 112.884 120.718 61.2571 120.718C9.63018 120.718 9.02331 120.718 7.59285 119.855C4.77526 118.131 4.9053 120.157 4.9053 75.0125V34.0503H61.2571H117.609V75.0125Z" fill="#525D7D"/>
<path d="M17.8228 15.9837C13.5747 18.8726 13.5747 20.3818 17.8228 22.9688C20.727 24.7367 21.9841 24.9523 22.6777 23.745C23.2845 22.5377 22.8077 21.6753 20.9004 20.5542L19.2099 19.5625L21.1605 18.1827C23.2412 16.7167 23.5446 15.9837 22.4176 14.9058C21.4206 13.8709 20.5537 14.0865 17.8228 15.9837ZM18.5597 19.39C18.5597 21.3304 18.3429 21.4597 17.3026 20.2955C16.5657 19.5194 16.5657 19.4332 17.4326 18.5708C17.9528 18.0534 18.3863 17.6653 18.473 17.6653C18.5597 17.6653 18.603 18.4414 18.5597 19.39Z" fill="#525D7D"/>
<path d="M33.0813 15.0784C32.3877 16.3719 32.9079 17.4067 34.5984 18.3553C35.422 18.7865 36.0723 19.3039 36.0289 19.4764C35.9422 19.6489 35.2053 20.2094 34.3817 20.77C32.7345 21.891 32.301 22.969 33.0813 23.9176C33.9049 24.9093 35.1186 24.6937 37.7628 23.0121C40.7104 21.1149 40.9272 20.8562 40.7971 19.1746C40.6671 18.0966 40.1903 17.5792 37.8495 16.0701C34.6851 14.0004 33.7748 13.8279 33.0813 15.0784ZM38.7164 19.3902C38.7164 20.0801 37.9362 21.1149 37.416 21.1149C37.286 21.1149 37.1993 20.3819 37.1993 19.4333C37.1993 17.9673 37.2426 17.8379 37.9362 18.2691C38.3697 18.5278 38.7164 19.0452 38.7164 19.3902Z" fill="#525D7D"/>
<path d="M60.0429 18.1829C59.436 18.7865 59.3927 19.7783 59.9129 20.6406C60.1729 21.0718 61.43 21.2443 64.3343 21.3305C66.5884 21.3736 68.6691 21.3305 68.9725 21.2012C69.9261 20.8562 70.4463 19.4764 69.9261 18.5278C69.4927 17.7517 69.0158 17.6655 65.0279 17.6655C62.1236 17.6655 60.3897 17.8379 60.0429 18.1829Z" fill="#525D7D"/>
<path d="M76.775 18.7865C76.2982 19.7782 76.3416 20.0369 77.1652 20.6837C77.9021 21.2442 78.8991 21.4167 82.0201 21.3736C86.6583 21.2873 87.7853 20.6837 86.9184 18.7434C86.4415 17.7085 86.3115 17.6654 81.8467 17.6654C77.3386 17.6654 77.2519 17.6654 76.775 18.7865Z" fill="#525D7D"/>
<path d="M93.7683 18.5277C93.2048 19.5625 93.8117 20.9423 94.9387 21.2441C95.3722 21.3735 97.4528 21.4166 99.5335 21.3735C103.435 21.2872 104.128 20.9854 104.172 19.3469C104.172 17.9671 103.175 17.6653 98.6666 17.6653C94.6786 17.6653 94.2018 17.7516 93.7683 18.5277Z" fill="#525D7D"/>
<path d="M65.0281 44.9161C64.6813 45.4766 62.0371 54.1865 59.0894 64.3193C54.7113 79.4968 53.8877 82.9032 54.3212 83.4206C54.9714 84.1967 56.662 84.283 57.2255 83.5068C57.7023 82.9032 68.1924 46.6408 68.1924 45.6491C68.1924 43.9244 65.9817 43.4069 65.0281 44.9161Z" fill="#525D7D"/>
<path d="M41.3179 56.0405C37.4167 59.3606 34.0356 62.3789 33.8188 62.7238C32.7785 64.5779 33.6021 65.6127 41.0145 71.8649C45.9561 76.0473 48.6437 78.0308 49.3372 78.0308C50.4643 78.0308 51.4179 76.7372 51.0711 75.7886C50.9411 75.4868 47.8201 72.6841 44.1355 69.6227L37.4167 64.0174L38.5437 63.1981C40.581 61.689 49.3372 54.2727 50.3342 53.1947C50.8544 52.591 51.2879 51.9443 51.2879 51.7287C51.2879 51.0819 49.9441 50.004 49.2072 50.004C48.8171 50.0471 45.2626 52.7635 41.3179 56.0405Z" fill="#525D7D"/>
<path d="M71.9211 50.6938C71.0108 51.5993 71.0541 51.9012 72.2245 53.1947C73.1782 54.2727 81.9344 61.689 83.9717 63.1981L85.0987 64.0174L78.3799 69.6227C74.6953 72.6841 71.5743 75.4868 71.4443 75.7886C71.0975 76.7372 72.0511 78.0308 73.1782 78.0308C73.8717 78.0308 76.5593 76.0473 81.5009 71.8649C87.873 66.4751 88.7833 65.5696 88.9133 64.3192C89.0867 62.6807 89.2167 62.81 80.2005 55.2644C76.7327 52.3755 73.6116 50.004 73.2649 50.004C72.8747 50.004 72.2679 50.3058 71.9211 50.6938Z" fill="#525D7D"/>
<path d="M23.2837 95.4936C22.6769 97.9944 20.7696 97.8651 61.2562 97.8651C101.743 97.8651 99.8354 97.9944 99.2286 95.4936L98.9685 94.4156H61.2562H23.5438L23.2837 95.4936Z" fill="#525D7D"/>
<path d="M23.8049 106.747C22.9812 107.524 22.8946 108.688 23.6315 109.421C24.3684 110.154 98.1458 110.154 98.8828 109.421C99.6197 108.688 99.533 107.524 98.7094 106.747C98.1025 106.144 94.1145 106.057 61.2571 106.057C28.3997 106.057 24.4117 106.144 23.8049 106.747Z" fill="#525D7D"/>
</g>
<defs>
<filter id="filter0_f_3213_5862" x="2.05273" y="3.08716" width="127.016" height="125.831" filterUnits="userSpaceOnUse" color-interpolation-filters="sRGB">
<feFlood flood-opacity="0" result="BackgroundImageFix"/>
<feBlend mode="normal" in="SourceGraphic" in2="BackgroundImageFix" result="shape"/>
<feGaussianBlur stdDeviation="1.5" result="effect1_foregroundBlur_3213_5862"/>
</filter>
<clipPath id="clip0_3213_5862">
<rect width="121" height="124" fill="white"/>
</clipPath>
</defs>
</svg>
