<svg width="185" height="186" viewBox="0 0 185 186" fill="none" xmlns="http://www.w3.org/2000/svg">
<g filter="url(#filter0_f_2111_3571)">
<path d="M18.6479 9.6674C14.137 11.0458 11.1925 13.6147 9.56354 17.3741C8.74908 19.4417 8.62378 28.5895 8.62378 96.1954C8.62378 163.801 8.74908 172.949 9.56354 175.017C10.8166 177.962 12.6961 179.904 15.8286 181.596L18.3346 182.974H95.0817H171.829L174.335 181.596C177.467 179.904 179.347 177.962 180.6 175.017C181.414 172.949 181.54 163.801 181.54 96.1954C181.54 28.5895 181.414 19.4417 180.6 17.3741C179.347 14.4293 177.467 12.4869 174.335 10.7952L171.829 9.41678L96.0215 9.29146C54.2961 9.22881 19.525 9.41678 18.6479 9.6674ZM172.643 15.9957C176.089 18.126 176.528 20.0683 176.528 34.1659V46.6971H95.0817H13.6358V34.1659C13.6358 20.0683 14.0744 18.126 17.5202 15.9957C19.5877 14.7425 20.4648 14.7425 95.0817 14.7425C169.699 14.7425 170.576 14.7425 172.643 15.9957ZM13.6358 48.8275C13.6358 49.266 13.072 50.1432 12.3828 50.7698C11.1298 51.8976 11.1298 51.8349 11.1298 49.266C11.1298 46.8224 11.1925 46.6971 12.3828 47.3237C13.072 47.6996 13.6358 48.3889 13.6358 48.8275ZM179.034 49.3287C179.034 51.8349 179.034 51.8976 177.781 50.7698C176.214 49.3914 176.214 48.2009 177.655 47.3864C178.219 47.0104 178.783 46.6971 178.908 46.6971C178.971 46.6971 179.034 47.8876 179.034 49.3287ZM176.528 111.233C176.528 176.834 176.716 173.889 172.643 176.395C170.576 177.648 169.699 177.648 95.0817 177.648C20.4648 177.648 19.5877 177.648 17.5202 176.395C13.4479 173.889 13.6358 176.834 13.6358 111.233V51.7096H95.0817H176.528V111.233Z" fill="#E0DFE6"/>
<path d="M18.6479 9.6674C14.137 11.0458 11.1925 13.6147 9.56354 17.3741C8.74908 19.4417 8.62378 28.5895 8.62378 96.1954C8.62378 163.801 8.74908 172.949 9.56354 175.017C10.8166 177.962 12.6961 179.904 15.8286 181.596L18.3346 182.974H95.0817H171.829L174.335 181.596C177.467 179.904 179.347 177.962 180.6 175.017C181.414 172.949 181.54 163.801 181.54 96.1954C181.54 28.5895 181.414 19.4417 180.6 17.3741C179.347 14.4293 177.467 12.4869 174.335 10.7952L171.829 9.41678L96.0215 9.29146C54.2961 9.22881 19.525 9.41678 18.6479 9.6674ZM172.643 15.9957C176.089 18.126 176.528 20.0683 176.528 34.1659V46.6971H95.0817H13.6358V34.1659C13.6358 20.0683 14.0744 18.126 17.5202 15.9957C19.5877 14.7425 20.4648 14.7425 95.0817 14.7425C169.699 14.7425 170.576 14.7425 172.643 15.9957ZM13.6358 48.8275C13.6358 49.266 13.072 50.1432 12.3828 50.7698C11.1298 51.8976 11.1298 51.8349 11.1298 49.266C11.1298 46.8224 11.1925 46.6971 12.3828 47.3237C13.072 47.6996 13.6358 48.3889 13.6358 48.8275ZM179.034 49.3287C179.034 51.8349 179.034 51.8976 177.781 50.7698C176.214 49.3914 176.214 48.2009 177.655 47.3864C178.219 47.0104 178.783 46.6971 178.908 46.6971C178.971 46.6971 179.034 47.8876 179.034 49.3287ZM176.528 111.233C176.528 176.834 176.716 173.889 172.643 176.395C170.576 177.648 169.699 177.648 95.0817 177.648C20.4648 177.648 19.5877 177.648 17.5202 176.395C13.4479 173.889 13.6358 176.834 13.6358 111.233V51.7096H95.0817H176.528V111.233Z" fill="#E0DFE6"/>
<path d="M18.6479 9.6674C14.137 11.0458 11.1925 13.6147 9.56354 17.3741C8.74908 19.4417 8.62378 28.5895 8.62378 96.1954C8.62378 163.801 8.74908 172.949 9.56354 175.017C10.8166 177.962 12.6961 179.904 15.8286 181.596L18.3346 182.974H95.0817H171.829L174.335 181.596C177.467 179.904 179.347 177.962 180.6 175.017C181.414 172.949 181.54 163.801 181.54 96.1954C181.54 28.5895 181.414 19.4417 180.6 17.3741C179.347 14.4293 177.467 12.4869 174.335 10.7952L171.829 9.41678L96.0215 9.29146C54.2961 9.22881 19.525 9.41678 18.6479 9.6674ZM172.643 15.9957C176.089 18.126 176.528 20.0683 176.528 34.1659V46.6971H95.0817H13.6358V34.1659C13.6358 20.0683 14.0744 18.126 17.5202 15.9957C19.5877 14.7425 20.4648 14.7425 95.0817 14.7425C169.699 14.7425 170.576 14.7425 172.643 15.9957ZM13.6358 48.8275C13.6358 49.266 13.072 50.1432 12.3828 50.7698C11.1298 51.8976 11.1298 51.8349 11.1298 49.266C11.1298 46.8224 11.1925 46.6971 12.3828 47.3237C13.072 47.6996 13.6358 48.3889 13.6358 48.8275ZM179.034 49.3287C179.034 51.8349 179.034 51.8976 177.781 50.7698C176.214 49.3914 176.214 48.2009 177.655 47.3864C178.219 47.0104 178.783 46.6971 178.908 46.6971C178.971 46.6971 179.034 47.8876 179.034 49.3287ZM176.528 111.233C176.528 176.834 176.716 173.889 172.643 176.395C170.576 177.648 169.699 177.648 95.0817 177.648C20.4648 177.648 19.5877 177.648 17.5202 176.395C13.4479 173.889 13.6358 176.834 13.6358 111.233V51.7096H95.0817H176.528V111.233Z" fill="#E0DFE6"/>
<path d="M18.6479 9.6674C14.137 11.0458 11.1925 13.6147 9.56354 17.3741C8.74908 19.4417 8.62378 28.5895 8.62378 96.1954C8.62378 163.801 8.74908 172.949 9.56354 175.017C10.8166 177.962 12.6961 179.904 15.8286 181.596L18.3346 182.974H95.0817H171.829L174.335 181.596C177.467 179.904 179.347 177.962 180.6 175.017C181.414 172.949 181.54 163.801 181.54 96.1954C181.54 28.5895 181.414 19.4417 180.6 17.3741C179.347 14.4293 177.467 12.4869 174.335 10.7952L171.829 9.41678L96.0215 9.29146C54.2961 9.22881 19.525 9.41678 18.6479 9.6674ZM172.643 15.9957C176.089 18.126 176.528 20.0683 176.528 34.1659V46.6971H95.0817H13.6358V34.1659C13.6358 20.0683 14.0744 18.126 17.5202 15.9957C19.5877 14.7425 20.4648 14.7425 95.0817 14.7425C169.699 14.7425 170.576 14.7425 172.643 15.9957ZM13.6358 48.8275C13.6358 49.266 13.072 50.1432 12.3828 50.7698C11.1298 51.8976 11.1298 51.8349 11.1298 49.266C11.1298 46.8224 11.1925 46.6971 12.3828 47.3237C13.072 47.6996 13.6358 48.3889 13.6358 48.8275ZM179.034 49.3287C179.034 51.8349 179.034 51.8976 177.781 50.7698C176.214 49.3914 176.214 48.2009 177.655 47.3864C178.219 47.0104 178.783 46.6971 178.908 46.6971C178.971 46.6971 179.034 47.8876 179.034 49.3287ZM176.528 111.233C176.528 176.834 176.716 173.889 172.643 176.395C170.576 177.648 169.699 177.648 95.0817 177.648C20.4648 177.648 19.5877 177.648 17.5202 176.395C13.4479 173.889 13.6358 176.834 13.6358 111.233V51.7096H95.0817H176.528V111.233Z" fill="#E0DFE6"/>
<path d="M16.6577 9.23332C12.1468 10.6118 9.20222 13.1806 7.57331 16.94C6.75885 19.0077 6.63354 28.1555 6.63354 95.7614C6.63354 163.367 6.75885 172.515 7.57331 174.583C8.82632 177.528 10.7058 179.47 13.8384 181.162L16.3444 182.54H93.0915H169.839L172.345 181.162C175.477 179.47 177.357 177.528 178.61 174.583C179.424 172.515 179.549 163.367 179.549 95.7614C179.549 28.1555 179.424 19.0077 178.61 16.94C177.357 13.9952 175.477 12.0528 172.345 10.3611L169.839 8.9827L94.0313 8.85738C52.3059 8.79472 17.5348 8.9827 16.6577 9.23332ZM170.653 15.5616C174.099 17.6919 174.537 19.6342 174.537 33.7318V46.2631H93.0915H11.6456V33.7318C11.6456 19.6342 12.0842 17.6919 15.5299 15.5616C17.5974 14.3085 18.4745 14.3085 93.0915 14.3085C167.708 14.3085 168.586 14.3085 170.653 15.5616ZM11.6456 48.3934C11.6456 48.832 11.0817 49.7092 10.3926 50.3357C9.13957 51.4635 9.13957 51.4009 9.13957 48.832C9.13957 46.3884 9.20222 46.2631 10.3926 46.8896C11.0817 47.2656 11.6456 47.9548 11.6456 48.3934ZM177.043 48.8946C177.043 51.4009 177.043 51.4635 175.79 50.3357C174.224 48.9573 174.224 47.7668 175.665 46.9523C176.229 46.5763 176.793 46.2631 176.918 46.2631C176.981 46.2631 177.043 47.4535 177.043 48.8946ZM174.537 110.799C174.537 176.4 174.725 173.455 170.653 175.961C168.586 177.214 167.708 177.214 93.0915 177.214C18.4745 177.214 17.5974 177.214 15.5299 175.961C11.4576 173.455 11.6456 176.4 11.6456 110.799V51.2755H93.0915H174.537V110.799Z" fill="#E0DFE6"/>
<path d="M31.2 23.2454C25.0603 27.4434 25.0603 29.6363 31.2 33.3957C35.3976 35.9646 37.2145 36.2779 38.2169 34.5235C39.094 32.7691 38.4049 31.516 35.6482 29.887L33.2049 28.4459L36.0241 26.4409C39.0314 24.3106 39.4699 23.2454 37.841 21.679C36.4001 20.1753 35.147 20.4885 31.2 23.2454ZM32.2651 28.1952C32.2651 31.0148 31.9518 31.2027 30.4482 29.511C29.3832 28.3832 29.3832 28.2579 30.6362 27.0048C31.388 26.2529 32.0145 25.689 32.1398 25.689C32.2651 25.689 32.3278 26.8168 32.2651 28.1952Z" fill="#E0DFE6"/>
<path d="M53.2532 21.9294C52.2508 23.809 53.0026 25.3128 55.446 26.6912C56.6363 27.3178 57.5761 28.0697 57.5134 28.3203C57.3881 28.5709 56.3231 29.3854 55.1327 30.2C52.752 31.829 52.1255 33.3954 53.2532 34.7739C54.4436 36.2149 56.1978 35.9017 60.0195 33.4581C64.2797 30.7012 64.593 30.3253 64.405 27.8817C64.2171 26.3153 63.5279 25.5634 60.1448 23.3704C55.5713 20.363 54.2556 20.1123 53.2532 21.9294ZM61.3978 28.195C61.3978 29.1975 60.2701 30.7012 59.5183 30.7012C59.3303 30.7012 59.205 29.6361 59.205 28.2576C59.205 26.1273 59.2677 25.9393 60.2701 26.5659C60.8966 26.9418 61.3978 27.6937 61.3978 28.195Z" fill="#E0DFE6"/>
<path d="M92.2219 26.4407C91.3448 27.3179 91.2821 28.759 92.0339 30.0121C92.4098 30.6387 94.2267 30.8893 98.4243 31.0146C101.682 31.0772 104.689 31.0146 105.128 30.8266C106.506 30.3254 107.258 28.3204 106.506 26.9419C105.88 25.8141 105.191 25.6888 99.4267 25.6888C95.2291 25.6888 92.7231 25.9394 92.2219 26.4407Z" fill="#E0DFE6"/>
<path d="M116.405 27.3179C115.716 28.759 115.779 29.1349 116.969 30.0748C118.034 30.8893 119.475 31.1399 123.986 31.0773C130.689 30.952 132.318 30.0748 131.065 27.2552C130.376 25.7515 130.188 25.6888 123.735 25.6888C117.22 25.6888 117.094 25.6888 116.405 27.3179Z" fill="#E0DFE6"/>
<path d="M140.964 26.9423C140.15 28.446 141.027 30.451 142.656 30.8896C143.282 31.0776 146.289 31.1402 149.297 31.0776C154.935 30.9523 155.938 30.5137 156 28.1327C156 26.1277 154.559 25.6892 148.044 25.6892C142.28 25.6892 141.591 25.8145 140.964 26.9423Z" fill="#E0DFE6"/>
<path d="M99.4268 65.2874C98.9256 66.1019 95.1039 78.7584 90.8436 93.4826C84.5159 115.538 83.3255 120.487 83.9521 121.239C84.8918 122.367 87.3352 122.492 88.1497 121.365C88.8388 120.487 104 67.7936 104 66.3525C104 63.8463 100.805 63.0944 99.4268 65.2874Z" fill="#E0DFE6"/>
<path d="M65.1567 81.4526C59.5181 86.2771 54.6313 90.6631 54.3181 91.1643C52.8145 93.8585 54.0048 95.3623 64.7181 104.447C71.8603 110.525 75.7446 113.407 76.747 113.407C78.376 113.407 79.7543 111.528 79.2531 110.149C79.0651 109.711 74.5543 105.638 69.229 101.189L59.5181 93.044L61.147 91.8535C64.0916 89.6606 76.747 78.8837 78.188 77.3173C78.9398 76.4401 79.5663 75.5003 79.5663 75.187C79.5663 74.2472 77.6241 72.6808 76.5591 72.6808C75.9952 72.7434 70.8579 76.6908 65.1567 81.4526Z" fill="#E0DFE6"/>
<path d="M109.388 73.6833C108.073 74.999 108.135 75.4376 109.827 77.3173C111.205 78.8837 123.861 89.6606 126.805 91.8535L128.434 93.044L118.723 101.189C113.398 105.638 108.887 109.711 108.699 110.149C108.198 111.528 109.576 113.407 111.205 113.407C112.207 113.407 116.092 110.525 123.234 104.447C132.444 96.6154 133.759 95.2996 133.947 93.4826C134.198 91.1017 134.386 91.2896 121.354 80.3248C116.342 76.1269 111.832 72.6808 111.33 72.6808C110.767 72.6808 109.889 73.1194 109.388 73.6833Z" fill="#E0DFE6"/>
<path d="M39.0941 138.783C38.217 142.417 35.4604 142.229 93.9761 142.229C152.492 142.229 149.735 142.417 148.858 138.783L148.482 137.217H93.9761H39.47L39.0941 138.783Z" fill="#E0DFE6"/>
<path d="M39.8458 155.136C38.6555 156.264 38.5302 157.956 39.5952 159.021C40.6603 160.086 147.292 160.086 148.357 159.021C149.422 157.956 149.297 156.264 148.106 155.136C147.229 154.259 141.465 154.134 93.9761 154.134C46.4868 154.134 40.723 154.259 39.8458 155.136Z" fill="#E0DFE6"/>
</g>
<path d="M11.4338 7.43694C6.92293 8.81537 3.97835 11.3843 2.34943 15.1436C1.53497 17.2113 1.40967 26.3591 1.40967 93.965C1.40967 161.571 1.53497 170.719 2.34943 172.786C3.60244 175.731 5.48196 177.674 8.6145 179.365L11.1205 180.744H87.8676H164.615L167.121 179.365C170.253 177.674 172.133 175.731 173.386 172.786C174.2 170.719 174.326 161.571 174.326 93.965C174.326 26.3591 174.2 17.2113 173.386 15.1436C172.133 12.1988 170.253 10.2565 167.121 8.56474L164.615 7.18631L88.8074 7.06099C47.082 6.99834 12.3109 7.18631 11.4338 7.43694ZM165.429 13.7652C168.875 15.8955 169.314 17.8378 169.314 31.9355V44.4667H87.8676H6.42172V31.9355C6.42172 17.8378 6.86028 15.8955 10.3061 13.7652C12.3735 12.5121 13.2507 12.5121 87.8676 12.5121C162.485 12.5121 163.362 12.5121 165.429 13.7652ZM6.42172 46.597C6.42172 47.0356 5.85787 47.9128 5.16871 48.5393C3.9157 49.6671 3.9157 49.6045 3.9157 47.0356C3.9157 44.592 3.97835 44.4667 5.16871 45.0932C5.85787 45.4692 6.42172 46.1584 6.42172 46.597ZM171.82 47.0982C171.82 49.6045 171.82 49.6671 170.567 48.5393C169 47.1609 169 45.9704 170.441 45.1559C171.005 44.78 171.569 44.4667 171.694 44.4667C171.757 44.4667 171.82 45.6571 171.82 47.0982ZM169.314 109.002C169.314 174.603 169.502 171.659 165.429 174.165C163.362 175.418 162.485 175.418 87.8676 175.418C13.2507 175.418 12.3735 175.418 10.3061 174.165C6.23377 171.659 6.42172 174.603 6.42172 109.002V49.4792H87.8676H169.314V109.002Z" fill="#525D7D"/>
<path d="M25.0916 23.2264C18.9519 27.4243 18.9519 29.6173 25.0916 33.3767C29.2892 35.9456 31.1061 36.2588 32.1085 34.5045C32.9856 32.7501 32.2965 31.497 29.5398 29.8679L27.0965 28.4268L29.9157 26.4218C32.923 24.2915 33.3615 23.2264 31.7326 21.66C30.2917 20.1562 29.0386 20.4695 25.0916 23.2264ZM26.1567 28.1762C26.1567 30.9957 25.8435 31.1837 24.3398 29.492C23.2748 28.3642 23.2748 28.2389 24.5278 26.9857C25.2796 26.2339 25.9061 25.67 26.0314 25.67C26.1567 25.67 26.2194 26.7978 26.1567 28.1762Z" fill="#525D7D"/>
<path d="M47.1448 21.9103C46.1424 23.79 46.8942 25.2937 49.3376 26.6722C50.5279 27.2987 51.4677 28.0506 51.405 28.3012C51.2797 28.5519 50.2147 29.3664 49.0243 30.1809C46.6436 31.81 46.0171 33.3764 47.1448 34.7548C48.3352 36.1959 50.0894 35.8826 53.9111 33.439C58.1713 30.6822 58.4846 30.3062 58.2966 27.8626C58.1087 26.2962 57.4195 25.5444 54.0364 23.3514C49.4629 20.3439 48.1472 20.0933 47.1448 21.9103ZM55.2894 28.1759C55.2894 29.1784 54.1617 30.6822 53.4099 30.6822C53.2219 30.6822 53.0966 29.617 53.0966 28.2386C53.0966 26.1083 53.1593 25.9203 54.1617 26.5469C54.7882 26.9228 55.2894 27.6747 55.2894 28.1759Z" fill="#525D7D"/>
<path d="M86.1135 26.4217C85.2364 27.2988 85.1737 28.7399 85.9255 29.993C86.3014 30.6196 88.1183 30.8702 92.3159 30.9955C95.5737 31.0582 98.581 30.9955 99.0195 30.8076C100.398 30.3063 101.15 28.3013 100.398 26.9229C99.7713 25.7951 99.0822 25.6698 93.3183 25.6698C89.1207 25.6698 86.6147 25.9204 86.1135 26.4217Z" fill="#525D7D"/>
<path d="M110.297 27.2989C109.608 28.7399 109.67 29.1159 110.861 30.0557C111.926 30.8703 113.367 31.1209 117.877 31.0582C124.581 30.9329 126.21 30.0557 124.957 27.2362C124.268 25.7325 124.08 25.6698 117.627 25.6698C111.111 25.6698 110.986 25.6698 110.297 27.2989Z" fill="#525D7D"/>
<path d="M134.856 26.9227C134.041 28.4265 134.918 30.4315 136.547 30.8701C137.174 31.058 140.181 31.1207 143.188 31.058C148.827 30.9327 149.829 30.4941 149.892 28.1132C149.892 26.1082 148.451 25.6696 141.935 25.6696C136.171 25.6696 135.482 25.7949 134.856 26.9227Z" fill="#525D7D"/>
<path d="M93.3181 65.2683C92.8169 66.0829 88.9952 78.7394 84.735 93.4636C78.4073 115.519 77.2169 120.468 77.8434 121.22C78.7832 122.348 81.2265 122.473 82.041 121.346C82.7302 120.468 97.8916 67.7746 97.8916 66.3335C97.8916 63.8273 94.6965 63.0754 93.3181 65.2683Z" fill="#525D7D"/>
<path d="M59.0483 81.4336C53.4097 86.2581 48.5229 90.644 48.2097 91.1453C46.7061 93.8395 47.8964 95.3432 58.6097 104.428C65.7519 110.506 69.6362 113.388 70.6386 113.388C72.2676 113.388 73.6459 111.509 73.1447 110.13C72.9567 109.691 68.4459 105.619 63.1206 101.17L53.4097 93.025L55.0386 91.8345C57.9832 89.6415 70.6386 78.8647 72.0796 77.2983C72.8314 76.4211 73.4579 75.4813 73.4579 75.168C73.4579 74.2281 71.5157 72.6617 70.4507 72.6617C69.8868 72.7244 64.7495 76.6717 59.0483 81.4336Z" fill="#525D7D"/>
<path d="M103.28 73.6642C101.964 74.98 102.027 75.4186 103.718 77.2983C105.097 78.8647 117.752 89.6415 120.697 91.8345L122.326 93.025L112.615 101.17C107.289 105.619 102.779 109.691 102.591 110.13C102.089 111.509 103.468 113.388 105.097 113.388C106.099 113.388 109.983 110.506 117.126 104.428C126.335 96.5964 127.651 95.2806 127.839 93.4635C128.089 91.0826 128.277 91.2706 115.246 80.3058C110.234 76.1078 105.723 72.6617 105.222 72.6617C104.658 72.6617 103.781 73.1003 103.28 73.6642Z" fill="#525D7D"/>
<path d="M32.9857 138.764C32.1086 142.398 29.352 142.21 87.8677 142.21C146.383 142.21 143.627 142.398 142.75 138.764L142.374 137.198H87.8677H33.3616L32.9857 138.764Z" fill="#525D7D"/>
<path d="M33.7374 155.117C32.5471 156.245 32.4218 157.937 33.4868 159.002C34.5519 160.067 141.183 160.067 142.248 159.002C143.314 157.937 143.188 156.245 141.998 155.117C141.121 154.24 135.357 154.115 87.8677 154.115C40.3784 154.115 34.6146 154.24 33.7374 155.117Z" fill="#525D7D"/>
<defs>
<filter id="filter0_f_2111_3571" x="3.63354" y="5.84521" width="180.906" height="180.129" filterUnits="userSpaceOnUse" color-interpolation-filters="sRGB">
<feFlood flood-opacity="0" result="BackgroundImageFix"/>
<feBlend mode="normal" in="SourceGraphic" in2="BackgroundImageFix" result="shape"/>
<feGaussianBlur stdDeviation="1.5" result="effect1_foregroundBlur_2111_3571"/>
</filter>
</defs>
</svg>
