<svg width="60" height="61" viewBox="0 0 60 61" fill="none" xmlns="http://www.w3.org/2000/svg">
<rect y="0.5" width="60" height="60" rx="8" fill="#0B409C" fill-opacity="0.21"/>
<path d="M40.4085 16.6125L40.8168 17.4437C41.0209 17.8521 41.5313 18.2313 41.9834 18.3188L42.5376 18.4063C44.2001 18.6833 44.5938 19.9083 43.398 21.1188L42.8876 21.6292C42.5522 21.9792 42.3626 22.65 42.4647 23.1167L42.5376 23.4229C42.9897 25.4354 41.9251 26.2083 40.1751 25.1583L39.7959 24.9396C39.3438 24.6771 38.6147 24.6771 38.1626 24.9396L37.7834 25.1583C36.0188 26.2229 34.9543 25.4354 35.4209 23.4229L35.4938 23.1167C35.5959 22.65 35.4064 21.9792 35.0709 21.6292L34.5605 21.1188C33.3647 19.9083 33.7584 18.6833 35.4209 18.4063L35.9751 18.3188C36.4126 18.2458 36.9376 17.8521 37.1418 17.4437L37.5501 16.6125C38.3376 15.0229 39.6209 15.0229 40.4085 16.6125Z" fill="#0B409C"/>
<path opacity="0.4" d="M44.0832 26.6021V35.1042C44.0832 40.2083 41.1665 42.3958 36.7915 42.3958H22.2082C17.8332 42.3958 14.9165 40.2083 14.9165 35.1042V24.8958C14.9165 19.7917 17.8332 17.6042 22.2082 17.6042H32.4894C32.1977 17.925 31.979 18.3042 31.8477 18.7271C31.4248 20.0396 31.8478 21.4687 33.0144 22.65L33.2915 22.9271C32.6936 25.5666 33.9332 26.8062 34.5019 27.2146C34.8227 27.4479 35.479 27.8125 36.4123 27.8125C37.0977 27.8125 37.9436 27.6083 38.9207 27.025L38.979 26.9958L39.0373 27.025C41.3415 28.4104 42.9019 27.6229 43.4561 27.2146C43.6311 27.0979 43.8644 26.8937 44.0832 26.6021Z" fill="#0B409C"/>
<path d="M29.5002 31.2688C28.2752 31.2688 27.0356 30.8896 26.0877 30.1167L21.5231 26.4708C21.0565 26.0917 20.969 25.4063 21.3481 24.9396C21.7273 24.4729 22.4127 24.3854 22.8794 24.7646L27.4439 28.4104C28.5523 29.3 30.4335 29.3 31.5419 28.4104C32.0085 28.0313 32.694 28.1042 33.0731 28.5854C33.4523 29.0521 33.3794 29.7521 32.8981 30.1167C31.9648 30.8896 30.7252 31.2688 29.5002 31.2688Z" fill="#0B409C"/>
</svg>
