<svg width="1077" height="787" viewBox="0 0 1077 787" fill="none" xmlns="http://www.w3.org/2000/svg">
<g filter="url(#filter0_d_53_294)">
<path d="M452.062 47.7423C449.977 48.3054 448.843 45.2138 450.692 44.1011C450.735 44.0767 450.779 44.0497 450.822 44.0253C456.334 40.8579 473.971 38.2806 476.446 38.0614C479.285 37.8096 482.123 37.5551 484.573 37.26C477.661 34.404 466.876 27.3274 459.293 27.1568C457.419 27.2353 456.651 24.7258 458.278 23.7945C458.462 23.6889 458.651 23.5942 458.843 23.5129C460.4 22.8524 462.149 22.8226 463.844 22.8416C472.766 22.939 481.362 28.302 490 30.5056C491.646 30.9252 496.999 32.5468 498.834 32.7011C498.967 25.121 499.687 19.2383 502.345 12.9712C503.309 10.7025 506.568 10.8108 507.389 13.1336L507.416 13.2148C507.494 18.4234 506.26 20.4132 508.666 31.1256C509.373 34.2659 513.418 37.6499 514.763 40.579C516.666 44.7237 517.083 49.3666 518.293 53.7576C520.229 60.7882 524.282 67.2313 529.802 72.0636C529.379 73.9208 525.589 77.3318 521.176 78.2468C516.488 70.8752 508.499 65.7532 500.569 62.0552C497.066 60.4227 493.328 58.9338 489.456 59.1152C486.909 59.237 484.464 60.0762 481.987 60.6799C475.032 62.38 464.103 65.293 464.103 65.293C461.261 64.7515 463.021 62.3936 464.076 62.1147L473.676 57.5531C476.524 56.8005 480.39 55.2439 482.223 52.7939C476.819 50.2491 465.492 54.808 455.137 56.6814C451.748 57.2959 452.216 54.7268 453.134 53.3597C456.06 50.1381 478.76 46.5294 483.287 44.9674C483.287 44.9674 460.598 45.433 452.062 47.7423Z" fill="white"/>
<path d="M521.178 79.5796C520.729 79.5796 520.301 79.3522 520.055 78.9623C516.189 72.8847 509.632 67.7492 500.008 63.2634C496.137 61.4577 492.883 60.28 489.52 60.4479C487.742 60.5318 485.998 61.0002 484.152 61.4956C483.537 61.6607 482.923 61.8259 482.306 61.9775C475.443 63.6559 464.557 66.5526 464.449 66.5824C464.254 66.6338 464.054 66.6419 463.856 66.604C461.552 66.1655 461.255 64.7063 461.233 64.0999C461.182 62.6759 462.411 61.2655 463.596 60.8675L473.107 56.3492C473.18 56.314 473.258 56.2869 473.337 56.2653C475.895 55.5885 478.11 54.5922 479.639 53.4552C476.044 53.0031 470.632 54.3703 464.958 55.8051C461.812 56.5983 458.561 57.4186 455.377 57.9952C453.106 58.4067 452.056 57.6162 451.576 56.8798C450.699 55.5425 451.273 53.7476 452.031 52.6214C452.069 52.5673 452.107 52.5158 452.15 52.4671C453.88 50.564 460.104 48.8611 468.502 46.9851C462.467 47.3993 456.068 48.0463 452.413 49.0344C450.878 49.4486 449.359 48.6852 448.718 47.1746C448.044 45.5908 448.585 43.8176 450.006 42.9622L450.161 42.8728C456.192 39.4103 474.547 36.8954 476.331 36.7356C477.441 36.6382 478.556 36.538 479.647 36.4351C478.767 35.9939 477.858 35.5309 476.932 35.0599C471.001 32.0333 464.279 28.606 459.265 28.4923C457.863 28.5599 456.598 27.6341 456.187 26.1993C455.781 24.7915 456.357 23.3594 457.619 22.6393C457.849 22.5067 458.084 22.3903 458.325 22.2874C460.099 21.5321 462.032 21.4888 463.862 21.5104C469.72 21.5754 475.397 23.7953 480.884 25.9448C483.995 27.163 487.211 28.4219 490.332 29.2178C490.755 29.3261 491.418 29.5102 492.203 29.7321C493.708 30.1545 495.953 30.7825 497.539 31.1318C497.737 24.4613 498.497 18.6354 501.121 12.4549C501.776 10.9118 503.289 9.94802 504.959 10.0022C506.641 10.0536 508.089 11.1121 508.649 12.6958C508.698 12.8312 508.752 13.0559 508.755 13.1994C508.777 14.6342 508.701 15.8335 508.63 16.9921C508.433 20.1622 508.249 23.1537 509.973 30.8367C510.312 32.3392 511.722 34.1043 513.086 35.8098C514.245 37.2581 515.339 38.628 515.98 40.0249C517.285 42.8674 517.921 45.913 518.536 48.8557C518.85 50.3636 519.175 51.9203 519.584 53.4065C521.443 60.1555 525.385 66.4254 530.686 71.0628C531.054 71.3849 531.216 71.8831 531.108 72.3622C530.537 74.8826 526.195 78.5725 521.452 79.5552C521.36 79.5715 521.27 79.5796 521.178 79.5796ZM490.105 57.7678C493.974 57.7678 497.685 59.2378 501.134 60.8458C510.812 65.3587 517.578 70.5592 521.774 76.7235C524.871 75.8166 527.332 73.686 528.193 72.4055C522.876 67.5001 518.92 61.0408 517.012 54.1131C516.581 52.5483 516.246 50.9484 515.924 49.3999C515.312 46.4707 514.735 43.7066 513.555 41.1375C513.049 40.0384 512.055 38.7931 510.999 37.4747C509.445 35.5309 507.84 33.5222 507.366 31.4214C505.555 23.3675 505.764 20.0431 505.964 16.827C506.032 15.7387 506.096 14.7073 506.088 13.4836C505.739 12.7473 505.081 12.6715 504.876 12.666C504.64 12.6552 503.912 12.6985 503.573 13.4944C500.918 19.7535 500.29 25.7093 500.168 32.7263C500.162 33.0945 500.003 33.4437 499.729 33.6928C499.456 33.9391 499.093 34.0609 498.725 34.0312C497.339 33.9148 494.51 33.1459 491.483 32.2986C490.722 32.0847 490.081 31.906 489.672 31.8004C486.391 30.9639 483.096 29.6726 479.91 28.4273C474.644 26.3671 469.2 24.2366 463.829 24.177C462.224 24.1608 460.667 24.1878 459.368 24.7428C459.222 24.8051 459.081 24.8755 458.943 24.954C458.748 25.065 458.683 25.2355 458.748 25.4602C458.788 25.6037 458.899 25.8419 459.238 25.8284C464.947 25.9529 471.959 29.5291 478.145 32.6857C480.679 33.977 483.072 35.198 485.086 36.0318C485.646 36.2619 485.979 36.8439 485.898 37.4449C485.817 38.0459 485.338 38.5143 484.737 38.5874C482.281 38.8851 479.404 39.1423 476.621 39.3887C474.041 39.6188 456.712 42.1879 451.49 45.1848L451.379 45.2497C450.929 45.5205 451.146 46.0673 451.17 46.1296C451.352 46.5573 451.617 46.4842 451.717 46.4599C460.312 44.1344 482.33 43.6579 483.261 43.639C483.9 43.6011 484.485 44.0911 484.601 44.7381C484.718 45.3851 484.344 46.0186 483.724 46.2325C482.181 46.7658 478.897 47.4669 474.739 48.3576C467.744 49.852 456.092 52.3453 454.189 54.197C453.859 54.7303 453.769 55.269 453.815 55.4288C453.829 55.4179 453.934 55.4504 454.173 55.4477C454.343 55.4477 454.584 55.4315 454.906 55.3746C458.001 54.8142 461.209 54.0048 464.311 53.2224C471.978 51.2868 478.602 49.6164 482.798 51.5927C483.161 51.7632 483.426 52.0881 483.524 52.4752C483.621 52.8651 483.537 53.2766 483.299 53.596C480.993 56.6849 476.223 58.2551 474.146 58.8155L464.658 63.3229C464.584 63.3581 464.506 63.3852 464.425 63.4069C464.295 63.461 464.073 63.6938 463.965 63.8779C464 63.8914 464.04 63.9077 464.092 63.9212C465.957 63.4258 475.459 60.9108 481.678 59.3894C482.276 59.2432 482.869 59.0835 483.464 58.9237C485.365 58.4121 487.333 57.8869 489.399 57.7867C489.631 57.7732 489.87 57.7678 490.105 57.7678Z" fill="black"/>
<path d="M669.594 316.31C672.723 315.338 676.083 315.582 679.35 315.839C688.265 316.537 697.183 317.233 706.097 317.931C711.282 318.338 717.124 319.09 720.218 323.27C722.284 326.058 722.584 329.889 721.585 333.214C720.586 336.535 718.42 339.399 715.938 341.822C713.317 344.381 710.204 346.571 706.641 347.418C699.226 349.181 691.798 344.873 685.755 340.231C680.953 336.541 676.405 332.512 672.163 328.192C670.655 326.657 669.133 324.992 668.578 322.913C667.788 319.943 669.128 316.87 669.594 316.31Z" fill="#0B409C"/>
<path d="M703.157 349.15C696.105 349.15 689.531 344.808 684.946 341.283C680.108 337.566 675.487 333.473 671.212 329.12C669.577 327.455 667.923 325.628 667.289 323.251C666.391 319.872 667.82 316.353 668.57 315.457C668.735 315.259 668.951 315.113 669.198 315.037C672.614 313.976 676.25 314.26 679.455 314.509L706.202 316.602C711.717 317.032 717.887 317.877 721.29 322.474C723.48 325.43 724.067 329.588 722.862 333.592C721.907 336.768 719.947 339.77 716.869 342.772C713.65 345.912 710.312 347.91 706.95 348.709C705.677 349.015 704.41 349.15 703.157 349.15ZM670.457 317.449C670.037 318.299 669.317 320.506 669.867 322.566C670.332 324.317 671.669 325.782 673.115 327.252C677.303 331.516 681.83 335.525 686.57 339.169C691.538 342.986 698.993 347.862 706.335 346.116C709.221 345.428 712.142 343.663 715.009 340.864C717.754 338.186 719.487 335.555 720.31 332.823C721.26 329.667 720.813 326.31 719.148 324.057C716.411 320.362 710.924 319.642 705.994 319.258L679.247 317.165C676.302 316.937 673.259 316.699 670.457 317.449Z" fill="black"/>
<path d="M600.936 320.002C613.433 278.712 622.751 236.461 626.492 191.614C601.61 172.877 550.715 167.108 539.849 143.602C525.517 112.596 511.992 88.5972 507.414 67.0236C507.414 67.0236 528.392 60.169 527.669 60.0039C533.248 76.3959 552.172 104.034 568.214 126.963C575.925 137.984 614.215 137.264 637.724 144.173C682.111 158.28 705.12 149.912 727.446 187.464C741.694 211.428 740.427 251.673 782.729 309.404C776.413 315.811 769.629 321.756 762.271 326.394C755.043 316.529 747.815 306.667 740.589 296.802C735.161 289.392 729.709 281.945 725.518 273.772C721.008 264.976 718.038 255.487 715.087 246.053C712.407 237.479 709.727 228.908 706.116 219.582C694.616 259.846 689.085 305.091 665.156 338.276C642.936 333.749 619.508 328.619 600.936 320.002Z" fill="white"/>
<path d="M665.15 339.607C665.061 339.607 664.974 339.599 664.885 339.58C642.404 335 618.906 329.81 600.375 321.209C599.771 320.93 599.468 320.248 599.66 319.615C613.34 274.407 621.664 232.733 625.102 192.242C615.086 184.905 600.757 179.491 586.893 174.252C565.496 166.169 545.284 158.532 538.64 144.159C535.08 136.46 531.599 129.251 528.234 122.28C518.228 101.559 509.587 83.6644 506.111 67.2968C505.97 66.6308 506.354 65.9648 507.001 65.7536C513.891 63.5013 525.034 59.7816 526.791 58.9992C527.11 58.7177 527.549 58.6013 527.969 58.7014C528.488 58.8205 528.894 59.2456 528.997 59.7572C534.528 75.7973 552.696 102.452 569.307 126.194C573.777 132.583 590.886 134.952 607.433 137.248C618.104 138.726 629.139 140.255 638.102 142.89C650.61 146.864 661.43 149.054 670.978 150.984C695.847 156.011 712.277 159.336 728.596 186.778C733.625 195.238 736.779 205.775 740.429 217.973C747.513 241.648 756.328 271.11 783.809 308.613C784.196 309.141 784.142 309.872 783.681 310.337C776.432 317.69 769.661 323.313 762.985 327.52C762.395 327.893 761.612 327.744 761.198 327.179L739.516 297.586C734.14 290.25 728.585 282.667 724.334 274.378C719.759 265.452 716.738 255.79 713.817 246.448C711.546 239.184 709.212 231.72 706.307 223.848C703.857 232.771 701.635 242.01 699.472 250.982C692.011 281.969 684.295 314.011 666.238 339.052C665.978 339.404 665.572 339.607 665.15 339.607ZM602.549 319.274C620.424 327.36 642.929 332.376 664.568 336.795C681.962 312.278 689.539 280.804 696.87 250.359C699.352 240.045 701.922 229.379 704.826 219.213C704.983 218.664 705.476 218.274 706.047 218.247C706.619 218.228 707.144 218.564 707.352 219.097C710.977 228.458 713.709 237.192 716.348 245.635C719.239 254.889 722.228 264.44 726.698 273.159C730.851 281.259 736.343 288.758 741.658 296.008L762.601 324.591C768.521 320.73 774.553 315.7 780.977 309.265C753.748 271.808 744.576 241.16 737.865 218.734C734.264 206.703 731.157 196.316 726.294 188.137C710.582 161.71 694.612 158.48 670.442 153.594C660.829 151.65 649.933 149.446 637.315 145.437C628.57 142.868 617.636 141.352 607.059 139.887C589.159 137.407 572.253 135.063 567.114 127.721C550.798 104.401 532.982 78.269 526.891 61.8093C524.511 62.8001 519.498 64.4677 508.967 67.9113C512.532 83.6563 520.935 101.053 530.624 121.118C533.995 128.1 537.482 135.318 541.05 143.038C547.236 156.42 566.952 163.87 587.824 171.754C602.14 177.163 616.94 182.753 627.284 190.544C627.65 190.82 627.85 191.264 627.81 191.719C624.434 232.305 616.169 274.037 602.549 319.274Z" fill="black"/>
<path d="M680.407 127.009C676.086 136.384 671.035 145.426 664.543 154.7C666.262 160.811 668.969 166.747 672.54 172.238C673.525 173.751 674.714 175.337 676.476 175.936C678.534 176.631 680.656 175.768 682.516 174.915C687.248 172.749 692.259 170.332 694.579 165.916C695.589 163.997 696.009 161.826 696.417 159.687C697.971 151.574 699.523 143.46 701.076 135.347C696.355 133.016 691.637 130.685 686.915 128.354C684.804 127.306 682.559 126.232 680.407 127.009Z" fill="white"/>
<path d="M678.055 177.518C677.392 177.518 676.724 177.421 676.049 177.193C673.938 176.476 672.576 174.735 671.423 172.959C667.768 167.342 665.02 161.318 663.261 155.057C663.152 154.672 663.223 154.258 663.453 153.93C669.52 145.265 674.672 136.274 679.201 126.447C679.35 126.122 679.623 125.873 679.959 125.751C682.679 124.771 685.359 126.09 687.512 127.154L701.673 134.146C702.212 134.411 702.504 135.004 702.393 135.592L697.734 159.932C697.312 162.141 696.873 164.423 695.766 166.532C693.343 171.143 688.584 173.603 683.075 176.124C681.545 176.825 679.831 177.518 678.055 177.518ZM666 154.94C667.692 160.725 670.27 166.297 673.659 171.508C674.552 172.881 675.565 174.215 676.908 174.67C678.464 175.198 680.259 174.481 681.965 173.701C687.022 171.386 691.372 169.158 693.403 165.295C694.326 163.538 694.726 161.451 695.111 159.434L699.578 136.093L686.329 129.549C684.718 128.753 682.912 127.866 681.358 128.134C676.918 137.687 671.886 146.469 666 154.94Z" fill="black"/>
<path d="M578.887 444.943L478.334 414.455L364.83 531.511L532.034 502.772L578.887 444.943Z" fill="white"/>
<path d="M364.831 532.846C364.344 532.846 363.886 532.578 363.653 532.134C363.385 531.622 363.475 530.997 363.875 530.583L477.379 413.527C477.726 413.169 478.246 413.037 478.722 413.177L579.275 443.666C579.7 443.796 580.033 444.126 580.163 444.551C580.293 444.976 580.204 445.436 579.925 445.783L533.074 503.611C532.871 503.863 532.584 504.03 532.265 504.085L365.061 532.824C364.98 532.84 364.907 532.846 364.831 532.846ZM478.725 415.968L368.632 529.505L531.312 501.543L576.601 445.645L478.725 415.968Z" fill="black"/>
<path d="M684.077 571.279L673.571 675.828L521.879 735.614L612.683 592.303L684.077 571.279Z" fill="white"/>
<path d="M521.88 736.945C521.49 736.945 521.111 736.774 520.851 736.46C520.483 736.016 520.442 735.382 520.754 734.898L611.561 591.587C611.734 591.314 611.999 591.114 612.311 591.022L683.705 569.998C684.132 569.873 684.593 569.965 684.934 570.249C685.275 570.531 685.454 570.967 685.41 571.408L674.904 675.954C674.855 676.452 674.53 676.877 674.064 677.061L522.37 736.847C522.207 736.915 522.042 736.945 521.88 736.945ZM613.542 593.439L525.193 732.873L672.326 674.882L682.554 573.116L613.542 593.439Z" fill="black"/>
<path d="M556.054 610.422C528.876 634.462 522.447 649.403 512.289 663.783C480.61 634.903 457.404 601.369 443.768 564.27C470.734 559.641 488.128 552.204 508.754 542.437C523.492 566.888 541.738 588.694 556.054 610.422Z" fill="white"/>
<path d="M512.287 665.117C511.957 665.117 511.635 664.993 511.388 664.771C479.351 635.563 456.178 601.904 442.512 564.732C442.374 564.361 442.412 563.947 442.609 563.603C442.807 563.259 443.148 563.024 443.538 562.956C470.807 558.273 488.234 550.676 508.18 541.231C508.797 540.938 509.539 541.16 509.894 541.748C518.476 555.982 528.286 569.367 537.772 582.31C544.676 591.731 551.197 600.629 557.167 609.687C557.532 610.242 557.435 610.979 556.937 611.42C535.758 630.154 527.231 643.373 519.705 655.036C517.585 658.322 515.582 661.427 513.375 664.551C513.156 664.863 512.809 665.066 512.43 665.109C512.384 665.114 512.336 665.117 512.287 665.117ZM445.574 565.309C458.996 601.049 481.355 633.492 512.068 661.774C513.911 659.104 515.647 656.416 517.466 653.593C524.981 641.946 533.482 628.765 554.305 610.194C548.544 601.517 542.261 592.946 535.623 583.888C526.329 571.208 516.729 558.107 508.237 544.157C488.935 553.27 471.779 560.636 445.574 565.309Z" fill="black"/>
<path d="M503.084 558.252C510.502 574.252 520.546 588.887 532.834 601.499C544.25 613.213 557.567 623.395 572.315 631.406C576.233 633.534 575.986 631.777 580.107 633.607C628.885 621.026 826.945 493.342 883.604 452.918C1001.74 368.635 1035.03 212.723 1035.03 212.723C1035.03 212.723 876.771 193.459 758.629 277.744C699.521 319.914 517.175 471.592 489.781 515.081C492.318 530.173 496.801 544.7 503.084 558.252Z" fill="white"/>
<path d="M580.106 634.938C579.922 634.938 579.738 634.9 579.564 634.824C577.818 634.05 577.025 634.004 576.183 633.955C575.103 633.893 573.985 633.831 571.678 632.577C556.984 624.597 543.594 614.456 531.877 602.43C519.492 589.72 509.397 575.044 501.873 558.815C495.53 545.133 491.02 530.489 488.467 515.302C488.413 514.98 488.481 514.647 488.654 514.371C516.054 470.872 697.086 320.014 757.857 276.658C819.121 232.953 891.262 217.536 940.993 212.303C994.85 206.634 1034.79 211.353 1035.19 211.401C1035.56 211.447 1035.9 211.645 1036.11 211.951C1036.33 212.254 1036.41 212.639 1036.33 213.004C1036.25 213.397 1027.71 252.697 1004.83 301.781C983.69 347.102 945.641 410.299 884.377 454.006C830.125 492.711 630.489 621.992 580.439 634.9C580.33 634.925 580.217 634.938 580.106 634.938ZM504.291 557.691C511.69 573.65 521.614 588.074 533.786 600.568C545.316 612.401 558.492 622.38 572.951 630.233C574.735 631.202 575.441 631.243 576.335 631.292C577.214 631.343 578.295 631.403 580.209 632.199C628.589 619.261 825.255 492.903 882.826 451.829C943.597 408.474 981.381 345.721 1002.38 300.712C1022.69 257.166 1031.64 221.383 1033.39 213.884C1025.73 213.104 988.983 209.921 941.198 214.956C891.806 220.162 820.171 235.468 759.403 278.824C698.951 321.949 519.348 471.535 491.18 515.359C493.709 530.135 498.119 544.375 504.291 557.691Z" fill="black"/>
<path d="M575.376 607.552C556.288 593.726 540.54 575.103 528.12 555.184C521.157 544.017 515.474 532.243 510.902 519.904C508.547 513.545 506.492 507.047 504.925 500.447C504.654 499.308 504.397 498.162 504.145 497.015C497.721 504.159 492.807 510.277 489.783 515.077C492.317 530.172 496.8 544.699 503.084 558.251C510.501 574.251 520.545 588.888 532.833 601.498C544.249 613.212 557.566 623.394 572.315 631.405C576.232 633.533 575.985 631.776 580.106 633.606C586.338 631.998 595.014 628.508 605.518 623.562C594.749 619.731 584.638 614.26 575.376 607.552Z" fill="white"/>
<path d="M580.106 634.939C579.922 634.939 579.738 634.901 579.564 634.825C577.818 634.051 577.025 634.005 576.183 633.956C575.103 633.894 573.985 633.832 571.678 632.578C556.986 624.597 543.594 614.456 531.877 602.431C519.492 589.721 509.397 575.045 501.873 558.815C495.53 545.133 491.02 530.493 488.467 515.303C488.413 514.981 488.481 514.648 488.654 514.371C491.616 509.669 496.494 503.532 503.154 496.128C503.49 495.754 504.004 495.603 504.486 495.73C504.97 495.86 505.341 496.244 505.447 496.734C505.696 497.874 505.953 499.011 506.221 500.143C507.683 506.309 509.624 512.623 512.153 519.445C516.763 531.892 522.516 543.682 529.251 554.481C542.847 576.285 558.63 593.779 576.159 606.475C585.58 613.297 595.607 618.625 605.968 622.307C606.476 622.488 606.826 622.959 606.853 623.498C606.88 624.037 606.577 624.54 606.089 624.771C595.139 629.928 586.508 633.336 580.441 634.898C580.33 634.925 580.217 634.939 580.106 634.939ZM491.183 515.362C493.709 530.135 498.119 544.375 504.291 557.692C511.69 573.651 521.614 588.075 533.786 600.568C545.316 612.401 558.492 622.383 572.951 630.234C574.735 631.203 575.441 631.244 576.335 631.292C577.214 631.344 578.295 631.403 580.209 632.199C585.544 630.772 592.884 627.919 602.058 623.699C592.529 620 583.3 614.941 574.589 608.633C556.778 595.733 540.762 577.988 526.983 555.889C520.152 544.936 514.321 532.983 509.646 520.368C507.079 513.443 505.109 507.027 503.622 500.754C503.549 500.448 503.479 500.145 503.408 499.839C497.926 506.05 493.82 511.261 491.183 515.362Z" fill="black"/>
<path d="M838.349 279.36C845.932 293.321 853.913 307.055 862.521 320.374C871.106 333.653 880.321 346.523 890.392 358.727C900.325 370.763 911.094 382.144 922.878 392.542C927.513 396.63 932.315 400.528 937.256 404.272C1012.2 319.651 1035.03 212.723 1035.03 212.723C1035.03 212.723 924.987 199.333 819.924 243.747C825.882 255.726 831.976 267.624 838.349 279.36Z" fill="white"/>
<path d="M937.257 405.603C936.975 405.603 936.694 405.514 936.453 405.333C931.336 401.456 926.474 397.487 921.999 393.54C910.767 383.629 899.789 372.202 889.366 359.573C879.78 347.956 870.633 335.371 861.407 321.096C853.407 308.721 845.483 295.277 837.183 279.993C831.473 269.481 825.439 257.818 818.739 244.339C818.576 244.009 818.555 243.627 818.682 243.283C818.809 242.939 819.074 242.66 819.413 242.517C873.862 219.498 929.62 212.261 966.808 210.245C1007.1 208.06 1034.92 211.363 1035.19 211.395C1035.57 211.441 1035.9 211.639 1036.12 211.945C1036.33 212.248 1036.42 212.632 1036.34 212.998C1036.28 213.266 1030.43 240.27 1015.49 277.261C1001.7 311.399 977.101 361.297 938.261 405.154C937.993 405.452 937.628 405.603 937.257 405.603ZM839.522 278.723C847.792 293.945 855.681 307.332 863.643 319.65C872.815 333.836 881.9 346.34 891.421 357.878C901.755 370.399 912.635 381.726 923.761 391.542C927.898 395.194 932.373 398.862 937.078 402.46C975.179 359.132 999.37 310.01 1012.99 276.324C1025.9 244.371 1031.98 219.934 1033.4 213.888C1027.17 213.252 1001.74 211.022 966.887 212.917C930.226 214.909 875.411 222.002 821.757 244.428C828.189 257.339 834.007 268.571 839.522 278.723Z" fill="black"/>
<path d="M937.286 365.482C928.019 355.574 919.221 345.227 910.921 334.496C902.569 323.697 894.697 312.532 887.401 300.992C880.167 289.548 873.445 277.767 867.387 265.66C861.859 254.617 856.804 243.331 852.243 231.855C841.503 235.267 830.691 239.203 819.93 243.754C825.883 255.73 831.977 267.628 838.352 279.364C845.935 293.325 853.916 307.058 862.525 320.378C871.109 333.657 880.324 346.527 890.395 358.731C900.328 370.767 911.097 382.148 922.881 392.546C927.516 396.634 932.319 400.532 937.259 404.276C943.404 397.338 949.179 390.245 954.639 383.076C948.675 377.388 942.904 371.487 937.286 365.482Z" fill="white"/>
<path d="M937.259 405.605C936.977 405.605 936.695 405.516 936.455 405.335C931.333 401.453 926.468 397.484 922.001 393.542C910.769 383.631 899.791 372.204 889.368 359.575C879.78 347.956 870.635 335.37 861.409 321.098C853.409 308.723 845.485 295.279 837.185 279.995C831.475 269.483 825.441 257.823 818.741 244.341C818.578 244.011 818.556 243.629 818.684 243.285C818.811 242.941 819.076 242.662 819.415 242.519C829.759 238.147 840.669 234.129 851.841 230.58C852.51 230.369 853.225 230.707 853.485 231.357C858.019 242.765 863.098 254.103 868.58 265.059C874.419 276.722 881.133 288.568 888.532 300.274C895.609 311.468 903.497 322.706 911.979 333.675C920.241 344.358 929.083 354.753 938.263 364.567C944.341 371.067 950.001 376.804 955.565 382.107C956.055 382.575 956.117 383.339 955.705 383.88C949.999 391.371 944.129 398.529 938.26 405.156C937.995 405.454 937.629 405.605 937.259 405.605ZM821.756 244.427C828.27 257.5 833.931 268.429 839.524 278.725C847.791 293.947 855.683 307.334 863.645 319.652C872.814 333.838 881.902 346.342 891.423 357.88C901.757 370.401 912.637 381.728 923.763 391.544C927.897 395.191 932.372 398.859 937.08 402.462C942.383 396.428 947.684 389.963 952.855 383.214C947.532 378.108 942.11 372.594 936.311 366.392C927.074 356.516 918.178 346.058 909.865 335.308C901.331 324.271 893.394 312.965 886.274 301.701C878.827 289.922 872.069 277.994 866.192 266.253C860.859 255.603 855.908 244.587 851.462 233.499C841.251 236.782 831.269 240.453 821.756 244.427Z" fill="black"/>
<path d="M823.024 412.824C826.39 383.778 805.572 357.504 776.526 354.138C747.48 350.773 721.205 371.591 717.84 400.637C714.474 429.683 735.292 455.958 764.338 459.323C793.384 462.688 819.659 441.87 823.024 412.824Z" fill="white"/>
<path d="M770.485 461.043C767.475 461.043 764.446 460.794 761.416 460.285C747.117 457.895 734.607 450.076 726.188 438.273C708.807 413.911 714.487 379.949 738.849 362.569C750.652 354.15 765.022 350.828 779.324 353.221C793.624 355.614 806.134 363.43 814.553 375.231C822.972 387.031 826.291 401.406 823.901 415.706C821.51 430.005 813.692 442.515 801.891 450.934C792.587 457.575 781.685 461.043 770.485 461.043ZM740.395 364.74C717.229 381.268 711.829 413.559 728.356 436.724C736.361 447.946 748.259 455.38 761.855 457.654C775.45 459.93 789.119 456.771 800.34 448.766C811.561 440.761 818.995 428.863 821.269 415.267C823.543 401.672 820.387 388.003 812.382 376.782C795.854 353.617 763.563 348.216 740.395 364.74Z" fill="black"/>
<path d="M808.08 410.294C810.009 389.456 794.681 371 773.844 369.071C753.006 367.141 734.55 382.469 732.621 403.307C730.691 424.144 746.019 442.6 766.856 444.53C787.694 446.459 806.15 431.131 808.08 410.294Z" fill="white"/>
<path d="M770.453 445.994C768.277 445.994 766.087 445.813 763.899 445.447C753.566 443.72 744.521 438.067 738.438 429.54C732.353 421.009 729.954 410.622 731.681 400.286C733.411 389.953 739.058 380.908 747.589 374.825C765.196 362.263 789.742 366.367 802.304 383.978C814.865 401.585 810.761 426.131 793.151 438.693C786.429 443.487 778.548 445.994 770.453 445.994ZM749.137 376.993C741.186 382.665 735.921 391.092 734.31 400.724C732.699 410.357 734.935 420.037 740.607 427.989C746.278 435.937 754.706 441.205 764.338 442.816C773.967 444.429 783.651 442.193 791.602 436.519C808.013 424.81 811.838 401.935 800.132 385.524C788.427 369.115 765.545 365.287 749.137 376.993Z" fill="black"/>
<path d="M663.253 514.925C667.283 490.519 650.765 467.468 626.359 463.438C601.954 459.409 578.902 475.927 574.873 500.332C570.843 524.738 587.361 547.789 611.766 551.819C636.172 555.848 659.223 539.331 663.253 514.925Z" fill="white"/>
<path d="M619.195 553.737C616.637 553.737 614.063 553.523 611.488 553.093C599.338 551.06 588.704 544.416 581.549 534.389C574.394 524.359 571.573 512.144 573.606 499.994C575.64 487.841 582.28 477.21 592.31 470.055C613.015 455.282 641.876 460.112 656.647 480.816C663.802 490.846 666.623 503.061 664.59 515.211C662.556 527.364 655.916 537.995 645.886 545.15C637.981 550.789 628.717 553.737 619.195 553.737ZM619.041 464.159C610.308 464.159 601.499 466.777 593.862 472.224C584.411 478.965 578.154 488.984 576.238 500.433C574.324 511.881 576.98 523.389 583.723 532.84C590.464 542.291 600.483 548.55 611.932 550.464C623.381 552.381 634.892 549.72 644.34 542.979C653.791 536.238 660.047 526.219 661.964 514.77C663.878 503.321 661.219 491.813 654.478 482.362C646.007 470.491 632.618 464.159 619.041 464.159Z" fill="black"/>
<path d="M651.094 510.507C652.705 492.874 639.717 477.274 622.084 475.663C604.451 474.052 588.851 487.04 587.24 504.673C585.628 522.305 598.616 537.906 616.249 539.517C633.882 541.128 649.483 528.14 651.094 510.507Z" fill="white"/>
<path d="M619.171 541.002C617.32 541.002 615.454 540.848 613.592 540.536C604.796 539.063 597.097 534.256 591.915 526.995C586.737 519.734 584.693 510.89 586.165 502.091C587.638 493.296 592.446 485.597 599.707 480.418C614.696 469.724 635.59 473.219 646.284 488.209C656.977 503.199 653.482 524.093 638.493 534.786C632.77 538.869 626.061 541.002 619.171 541.002ZM601.255 482.586C594.574 487.354 590.148 494.435 588.794 502.53C587.44 510.624 589.319 518.762 594.087 525.444C598.854 532.125 605.936 536.551 614.03 537.905C622.128 539.258 630.263 537.38 636.944 532.612C650.737 522.772 653.953 503.545 644.113 489.755C634.275 475.964 615.046 472.748 601.255 482.586Z" fill="black"/>
<path d="M670.608 185.928C663.586 194.616 655.93 202.967 646.623 209.142C637.313 215.318 626.154 219.211 615.024 218.241C602.306 217.137 590.373 209.863 577.641 210.783C566.008 211.625 555.823 219.194 544.277 221.596C552.274 226.579 560.274 231.563 568.271 236.547C572.24 239.019 576.265 241.518 580.732 242.896C586.13 244.561 591.91 244.501 597.533 243.965C628.698 240.99 658.074 222.933 674.799 196.467C676.109 194.396 677.384 192.131 677.325 189.681C677.263 187.228 675.313 184.667 670.608 185.928Z" fill="white"/>
<path d="M591.155 245.637C587.703 245.637 583.972 245.288 580.337 244.167C575.675 242.73 571.549 240.161 567.562 237.675L543.565 222.724C543.102 222.437 542.861 221.895 542.956 221.359C543.051 220.823 543.465 220.398 543.998 220.287C548.939 219.258 553.752 217.206 558.409 215.222C564.497 212.626 570.791 209.94 577.538 209.453C585.023 208.909 592.254 211.113 599.249 213.243C604.428 214.819 609.783 216.448 615.132 216.914C625.03 217.772 635.948 214.618 645.878 208.032C655.705 201.51 663.699 192.346 669.566 185.091C669.742 184.872 669.985 184.715 670.256 184.642C673.483 183.775 675.454 184.56 676.537 185.373C677.836 186.344 678.605 187.904 678.648 189.647C678.719 192.501 677.273 195.032 675.917 197.181C659.056 223.858 629.066 242.294 597.652 245.293C595.697 245.48 593.491 245.637 591.155 245.637ZM547.656 222.131L568.975 235.412C572.819 237.808 576.793 240.282 581.125 241.617C586.769 243.358 592.79 243.074 597.406 242.632C628.018 239.709 657.243 221.746 673.67 195.749C674.872 193.846 676.041 191.813 675.99 189.707C675.968 188.786 675.586 187.982 674.948 187.503C674.141 186.899 672.909 186.767 671.363 187.111C665.405 194.458 657.332 203.633 647.359 210.249C636.931 217.168 625.409 220.477 614.908 219.564C609.279 219.077 603.789 217.404 598.478 215.788C591.404 213.636 584.725 211.603 577.735 212.109C571.433 212.564 565.615 215.046 559.459 217.672C555.644 219.304 551.727 220.975 547.656 222.131Z" fill="black"/>
<path d="M709.347 483.267C704.902 491.683 700.078 499.9 695.598 510.068C700.896 513.33 706.194 516.592 711.489 519.857C719.334 524.689 727.264 529.562 736.368 531.942C737.15 525.837 733.579 520.044 729.605 515.347C725.631 510.65 720.983 506.245 718.869 500.468C717.729 497.355 717.393 494.001 716.335 490.863C715.273 487.72 713.232 484.62 709.347 483.267Z" fill="white"/>
<path d="M736.367 533.272C736.254 533.272 736.14 533.259 736.029 533.229C726.7 530.79 718.611 525.809 710.787 520.99L694.896 511.201C694.33 510.851 694.105 510.137 694.376 509.528C697.725 501.926 701.26 495.418 704.677 489.126C705.857 486.952 707.024 484.806 708.166 482.643C708.472 482.058 709.16 481.787 709.783 482.006C713.467 483.29 716.166 486.203 717.593 490.434C718.118 491.988 718.47 493.585 718.811 495.128C719.19 496.839 719.545 498.453 720.116 500.009C721.721 504.398 724.997 508.093 728.162 511.669C728.99 512.606 729.819 513.54 730.617 514.485C736.067 520.925 738.379 526.691 737.686 532.108C737.637 532.487 737.426 532.828 737.109 533.045C736.89 533.194 736.63 533.272 736.367 533.272ZM697.289 509.544L712.187 518.721C719.393 523.161 726.833 527.742 735.141 530.213C735.133 525.998 732.978 521.396 728.584 516.206C727.796 515.275 726.981 514.357 726.167 513.437C722.837 509.677 719.39 505.786 717.612 500.924C716.981 499.202 716.588 497.424 716.207 495.702C715.866 494.162 715.544 492.705 715.064 491.284C714.041 488.244 712.322 486.121 709.953 484.96C708.989 486.771 708.007 488.577 707.019 490.399C703.789 496.349 700.454 502.492 697.289 509.544Z" fill="black"/>
<path d="M600.98 319.392C597.647 337.879 595.62 352.094 607.916 366.299C620.772 381.153 642.159 380.052 684.778 380.052C687.493 380.052 700.206 380.845 702.472 382.339C705.97 384.643 703.818 451.789 701.882 491.688C710.039 493.255 718.198 494.825 725.871 493.772C759.117 347.839 749.095 359.304 738.278 347.546C724.192 332.24 684.128 327.703 674.28 326.536C666.023 325.559 657.741 324.579 649.428 324.616C632.02 324.695 611.795 328.287 600.98 319.392Z" fill="#0B409C"/>
<path d="M720.611 495.446C714.366 495.446 707.917 494.206 701.637 492.999C700.984 492.874 700.516 492.287 700.548 491.624C702.939 442.323 704.114 387.887 701.618 383.382C699.552 382.286 688.485 381.384 684.776 381.384C681.934 381.384 679.186 381.39 676.528 381.392C639.629 381.457 619.303 381.495 606.907 367.172C593.755 351.976 596.628 336.034 599.668 319.154C599.752 318.689 600.077 318.301 600.521 318.139C600.965 317.977 601.463 318.061 601.828 318.361C609.877 324.98 623.995 324.317 637.644 323.673C641.545 323.488 645.576 323.299 649.418 323.28C657.821 323.226 666.267 324.241 674.432 325.21L674.868 325.262C708.156 329.195 729.819 336.391 739.256 346.643C740.325 347.807 741.4 348.741 742.439 349.645C752.234 358.178 757.153 362.461 727.168 494.066C727.044 494.607 726.6 495.016 726.05 495.092C724.261 495.341 722.444 495.446 720.611 495.446ZM703.269 490.598C710.511 491.984 717.929 493.31 724.778 492.563C754.178 363.395 749.094 358.98 740.688 351.657C739.594 350.704 738.465 349.721 737.296 348.449C731.115 341.732 715.211 332.715 674.559 327.909L674.124 327.858C666.04 326.9 657.645 325.901 649.434 325.947C645.649 325.963 641.645 326.152 637.774 326.334C624.533 326.959 610.87 327.601 601.923 321.729C598.68 340.197 597.854 352.629 608.929 365.423C620.527 378.823 639.244 378.796 676.53 378.723C679.189 378.718 681.939 378.715 684.782 378.715C686.019 378.715 700.316 379.316 703.21 381.222C704.317 381.953 706.169 383.171 705.551 422.932C705.254 441.698 704.406 466.907 703.269 490.598Z" fill="black"/>
<path d="M656.752 52.0209C657.253 62.5031 658.003 71.9187 660.114 85.7443C661.119 92.3201 663.276 99.7134 666.062 105.899C667.372 108.81 668.474 110.271 671.528 112.101C671.993 109.34 675.028 108.26 675.762 105.545C676.666 102.204 674.79 98.9825 677.148 96.1832C681.639 90.8528 684.942 84.8374 686.856 78.5134C688.426 73.321 689.041 67.7469 687.048 62.5952C685.056 57.4434 680.053 52.8114 673.642 51.7041C668.758 50.8649 660.932 49.3137 656.752 52.0209Z" fill="#0B409C"/>
<path d="M671.528 113.436C671.29 113.436 671.055 113.371 670.843 113.246C667.422 111.194 666.184 109.418 664.847 106.449C662.042 100.214 659.836 92.7421 658.799 85.9471C656.669 72.0051 655.927 62.6544 655.423 52.0856C655.402 51.6118 655.632 51.1597 656.03 50.9025C660.437 48.0465 668.06 49.3784 673.107 50.2582L673.873 50.3909C680.31 51.5008 685.971 56.1031 688.294 62.1157C690.148 66.9156 690.097 72.4057 688.134 78.9003C686.158 85.4381 682.807 91.5428 678.172 97.0438C677.097 98.3189 677.186 99.7429 677.297 101.546C677.379 102.862 677.471 104.351 677.054 105.894C676.612 107.526 675.554 108.636 674.62 109.616C673.762 110.515 673.02 111.292 672.847 112.323C672.774 112.756 672.489 113.127 672.089 113.314C671.907 113.395 671.718 113.436 671.528 113.436ZM658.122 52.7786C658.623 62.9279 659.373 72.0782 661.433 85.5437C662.438 92.1086 664.568 99.3314 667.278 105.355C668.263 107.542 669.062 108.777 670.857 110.074C671.358 109.172 672.051 108.447 672.687 107.778C673.505 106.92 674.211 106.178 674.477 105.198C674.78 104.077 674.709 102.929 674.634 101.711C674.509 99.6996 674.368 97.4201 676.131 95.3275C680.53 90.1053 683.711 84.3174 685.581 78.1287C687.365 72.2271 687.441 67.3027 685.806 63.0795C683.814 57.925 678.951 53.9752 673.418 53.0223L672.646 52.8869C668.277 52.1235 661.81 50.9946 658.122 52.7786Z" fill="black"/>
<path d="M732.969 76.2057C732.051 85.356 733.459 94.5983 733.071 103.784C732.684 112.969 730.205 122.555 722.83 129.229C716.338 135.103 706.316 138.059 696.784 136.909C687.25 135.758 678.457 130.536 673.925 123.33C669.664 116.554 669.507 102.211 669.149 95.0206C664.864 95.4727 660.199 93.9269 657.766 90.8759C655.332 87.8249 655.565 83.3526 658.632 80.8241C661.702 78.2956 665.47 78.0574 669.561 82.2427C669.547 76.3329 670.836 70.6235 671.413 67.9975C672.98 60.8722 673.627 50.214 678.776 47.3931C681.692 45.7958 687.74 44.5668 691.126 43.8548C696.979 42.6257 704.846 46.673 710.897 46.9437C716.95 47.2144 723.003 50.3953 727.738 53.6467C733.399 57.5315 733.656 69.3565 732.969 76.2057Z" fill="white"/>
<path d="M700.905 138.485C699.479 138.485 698.046 138.402 696.625 138.231C686.679 137.032 677.548 131.593 672.796 124.04C668.784 117.662 668.267 105.534 667.926 97.5095C667.91 97.1386 667.894 96.7785 667.88 96.432C663.443 96.4726 659.095 94.6831 656.724 91.7079C653.746 87.972 654.214 82.739 657.788 79.7963C659.805 78.1341 663.643 76.1416 668.316 79.4146C668.606 74.5606 669.572 70.1804 670.076 67.882L670.114 67.7087C670.433 66.255 670.712 64.6577 671.01 62.9685C672.177 56.3115 673.498 48.7665 678.138 46.2218C681.121 44.5866 686.977 43.3603 690.474 42.6266L690.853 42.5481C694.616 41.7549 698.956 42.919 703.149 44.0398C705.965 44.7924 708.621 45.5044 710.957 45.61C716.231 45.8455 722.132 48.1791 728.491 52.5458C735.785 57.5541 734.607 73.2449 734.298 76.3393C733.789 81.4098 734.014 86.6428 734.231 91.7025C734.401 95.674 734.577 99.7808 734.407 103.839C733.922 115.369 730.33 124.243 723.73 130.218C717.909 135.478 709.455 138.485 700.905 138.485ZM669.147 93.6869C669.464 93.6869 669.773 93.8006 670.014 94.0064C670.292 94.2446 670.46 94.5884 670.479 94.9539C670.517 95.6957 670.552 96.5159 670.587 97.3931C670.899 104.667 671.419 116.841 675.052 122.619C679.386 129.508 687.775 134.479 696.942 135.583C706.125 136.691 715.703 133.875 721.935 128.236C727.985 122.759 731.283 114.513 731.737 103.722C731.902 99.7781 731.729 95.7281 731.561 91.8108C731.339 86.6563 731.112 81.3259 731.64 76.0685C732.425 68.2448 731.675 57.9629 726.978 54.7386C721.036 50.6589 715.603 48.4823 710.833 48.2684C708.207 48.152 705.283 47.3669 702.454 46.6116C698.561 45.5694 694.538 44.4919 691.392 45.1525L691.013 45.231C687.659 45.9348 682.044 47.1098 679.41 48.5554C675.894 50.4829 674.689 57.3592 673.628 63.4233C673.327 65.145 673.043 66.7694 672.71 68.2773L672.672 68.4505C672.09 71.0954 670.877 76.5964 670.888 82.2328C670.888 82.7769 670.56 83.2642 670.06 83.47C669.556 83.6757 668.982 83.5566 668.6 83.1668C665.379 79.8721 662.393 79.439 659.474 81.8457C657.038 83.8544 656.74 87.4523 658.8 90.0376C660.847 92.6067 665.04 94.1092 669.001 93.6896C669.055 93.6896 669.101 93.6869 669.147 93.6869Z" fill="black"/>
<path d="M705.806 59.8067C706.282 63.9433 711.97 70.3025 715.871 71.112C719.775 71.9214 721.443 70.2538 723.421 66.6289C726.602 70.0995 728.898 73.5403 732.333 75.2702C737.58 77.9124 744.689 75.189 747.093 69.6176C749.497 64.0435 746.733 56.6935 741.354 54.3572C744.995 55.6377 749.113 52.2402 749.6 48.2471C750.087 44.254 747.659 40.3394 744.397 38.225C741.135 36.1107 737.185 35.4962 733.376 34.5379C735.233 30.8074 733.871 25.948 730.912 23.1271C727.953 20.3089 723.76 19.2747 719.748 19.3505C717.114 19.3993 714.412 19.9136 712.184 21.3972C709.956 22.8807 708.277 25.4607 708.085 28.398C705.075 23.6685 699.79 20.1519 694.392 20.8693C688.991 21.5867 684.351 27.6237 683.493 32.0202C681.254 28.601 678.171 25.6637 674.199 25.4661C666.319 25.0762 663.861 31.5654 666.5 40.5126C662.54 38.022 656.137 39.1753 653.527 45.0417C651.584 49.4084 652.496 56.772 655.273 60.6351C658.051 64.4983 668.826 68.6647 677.156 63.9136C681.785 61.274 684.262 57.2755 685.924 53.453C687.811 57.6383 689.211 60.5296 694.763 63.0148C698.819 64.8205 703.978 63.6645 705.806 59.8067Z" fill="#0B409C"/>
<path d="M736.741 77.6133C734.979 77.6133 733.26 77.2262 731.736 76.4573C728.918 75.0361 726.844 72.6131 724.651 70.0494C724.323 69.665 723.99 69.2752 723.649 68.8826C722.006 71.4436 719.87 73.3008 715.604 72.4155C711.976 71.6629 707.23 66.9605 705.311 62.7211C702.62 65.2739 698.188 65.9968 694.225 64.2236C689.428 62.0768 687.424 59.4887 685.914 56.5433C684.352 59.4373 681.91 62.7319 677.822 65.0655C668.729 70.2498 657.196 65.5771 654.196 61.4081C651.099 57.1037 650.222 49.1987 652.315 44.4936C653.663 41.4669 656.051 39.2985 659.037 38.3889C660.862 37.8339 662.803 37.8014 664.579 38.2562C663.674 33.6323 664.229 29.7936 666.208 27.2786C667.435 25.7192 669.833 23.9054 674.27 24.1301C677.481 24.2898 680.418 25.9656 683.025 29.1168C684.945 24.6607 689.357 20.1884 694.222 19.5414C698.889 18.9188 703.835 21.1278 707.433 25.2807C708.21 23.2746 709.61 21.5096 711.451 20.2832C713.619 18.8403 716.405 18.0796 719.729 18.0146C724.616 17.9036 728.934 19.3925 731.839 22.1593C735.017 25.1859 736.289 29.7665 735.174 33.5944C735.385 33.6459 735.596 33.6946 735.807 33.7433C738.986 34.4851 742.272 35.2512 745.125 37.1002C749.105 39.6802 751.439 44.2229 750.927 48.4028C750.613 50.9638 749.021 53.4246 746.766 54.8215C746.308 55.1058 745.837 55.3386 745.361 55.5172C749.01 59.1692 750.442 65.2225 748.32 70.1415C746.999 73.2033 744.349 75.6452 741.046 76.8472C739.63 77.3588 738.171 77.6133 736.741 77.6133ZM723.422 65.2929C723.793 65.2929 724.15 65.4472 724.405 65.726C725.211 66.6059 725.956 67.4749 726.676 68.3168C728.777 70.775 730.593 72.8974 732.932 74.0777C735.044 75.1389 737.664 75.2364 740.131 74.3403C742.746 73.3901 744.839 71.4761 745.867 69.0857C747.982 64.1857 745.529 57.6207 740.824 55.5741C740.166 55.2871 739.852 54.5318 740.114 53.8632C740.377 53.1945 741.121 52.8561 741.798 53.0916C742.908 53.4814 744.17 53.2919 745.358 52.5529C746.918 51.5864 748.063 49.8267 748.279 48.0752C748.729 44.3907 746.292 41.0311 743.674 39.3337C741.211 37.7364 738.29 37.0569 735.201 36.3341C734.484 36.1663 733.766 35.9984 733.057 35.8197C732.664 35.7223 732.339 35.4516 732.172 35.0834C732.004 34.7152 732.009 34.2929 732.191 33.9328C733.685 30.9306 732.745 26.6965 730 24.0814C727.607 21.8019 723.993 20.5972 719.781 20.673C716.973 20.7272 714.667 21.339 712.929 22.495C710.92 23.8323 709.577 26.1226 709.423 28.4724C709.385 29.0491 708.982 29.5337 708.424 29.6771C707.866 29.8206 707.279 29.5878 706.968 29.1005C703.914 24.3007 699.046 21.5827 694.574 22.1782C689.685 22.828 685.524 28.5834 684.807 32.2625C684.704 32.7958 684.287 33.21 683.754 33.3156C683.218 33.4185 682.679 33.1911 682.381 32.7363C679.893 28.9354 677.118 26.9321 674.138 26.7832C671.482 26.6532 669.522 27.3706 668.304 28.9191C666.536 31.1661 666.346 35.2485 667.784 40.1242C667.941 40.6548 667.751 41.2287 667.31 41.5644C666.866 41.9001 666.265 41.9245 665.794 41.6294C664.105 40.5682 661.869 40.3083 659.811 40.9336C657.575 41.6131 655.777 43.2618 654.749 45.571C653.016 49.4613 653.785 56.2644 656.359 59.8433C658.598 62.9566 668.531 67.2854 676.501 62.74C681.184 60.0707 683.429 55.8475 684.706 52.9075C684.918 52.4229 685.394 52.1089 685.922 52.1062C686.423 52.1197 686.929 52.4094 687.146 52.8913C688.924 56.8411 690.099 59.4508 695.313 61.7844C698.535 63.2273 703.037 62.5424 704.602 59.2288C704.856 58.6901 705.438 58.3869 706.026 58.4843C706.613 58.5818 707.065 59.0555 707.133 59.6484C707.544 63.2165 712.766 69.0992 716.145 69.8004C719.015 70.3959 720.273 69.6109 722.252 65.9832C722.458 65.6069 722.834 65.3497 723.262 65.2983C723.316 65.2956 723.37 65.2929 723.422 65.2929Z" fill="black"/>
<path d="M723.13 88.5676C723.374 87.4549 722.622 86.345 721.449 86.0878C720.277 85.8306 719.129 86.5236 718.886 87.6363C718.642 88.7489 719.395 89.8589 720.567 90.1161C721.739 90.3705 722.887 89.6775 723.13 88.5676Z" fill="black"/>
<path d="M692.842 87.0705C693.085 85.9578 692.333 84.8479 691.16 84.5907C689.988 84.3335 688.84 85.0266 688.597 86.1392C688.353 87.2519 689.106 88.3618 690.278 88.619C691.45 88.8735 692.598 88.1804 692.842 87.0705Z" fill="black"/>
<path d="M699.292 124.025C695.44 124.025 691.631 122.095 689.43 118.903C689.01 118.297 689.165 117.466 689.768 117.049C690.375 116.629 691.206 116.784 691.623 117.39C693.558 120.195 697.262 121.786 700.624 121.256C701.361 121.145 702.035 121.64 702.148 122.366C702.262 123.094 701.767 123.776 701.038 123.89C700.462 123.979 699.877 124.025 699.292 124.025Z" fill="black"/>
<path d="M705.617 113.219C704.623 113.219 703.676 113.103 702.782 112.867C700.397 112.245 698.434 110.764 697.395 108.804C697.048 108.154 697.297 107.347 697.947 107.001C698.597 106.654 699.404 106.903 699.75 107.553C700.43 108.834 701.816 109.857 703.456 110.285C704.945 110.674 706.667 110.631 708.581 110.163C709.193 110.011 709.878 109.805 710.3 109.407C710.804 108.936 711.045 108.073 710.942 107.098C710.847 106.202 710.511 105.298 710.157 104.342L709.978 103.86C707.826 97.9696 707.046 91.5563 707.723 85.3216C707.801 84.588 708.465 84.0601 709.193 84.1386C709.924 84.2171 710.454 84.8749 710.373 85.6086C709.74 91.4399 710.471 97.4363 712.482 102.945L712.655 103.411C713.053 104.48 713.465 105.585 713.595 106.817C713.787 108.641 713.251 110.295 712.125 111.351C711.253 112.166 710.167 112.515 709.22 112.751C707.961 113.065 706.759 113.219 705.617 113.219Z" fill="black"/>
<path d="M669.562 88.2742C668.842 88.2742 668.249 87.7003 668.23 86.9775C668.157 84.4057 668.173 83.0548 668.203 80.6048C668.211 79.8684 668.815 79.2539 669.551 79.2864C670.287 79.2945 670.878 79.8982 670.869 80.6346C670.842 83.0548 670.826 84.3867 670.897 86.9044C670.918 87.6408 670.336 88.2553 669.6 88.2742C669.586 88.2742 669.573 88.2742 669.562 88.2742Z" fill="black"/>
<path d="M664.187 58.6657C663.948 58.6657 663.708 58.6034 663.491 58.4681C659.525 56.0316 657.367 50.9611 658.355 46.413C658.512 45.6929 659.227 45.2381 659.942 45.3924C660.662 45.5494 661.12 46.2587 660.962 46.9788C660.207 50.4548 661.859 54.3315 664.891 56.1967C665.519 56.5839 665.714 57.4042 665.329 58.0322C665.072 58.4383 664.636 58.6657 664.187 58.6657Z" fill="black"/>
<g opacity="0.1294">
<path d="M686.691 53.3604C687.127 54.0209 687.587 54.6679 688.064 55.3014C688.104 55.4368 688.175 55.6452 688.345 56.1244C688.619 56.7822 688.952 57.413 689.304 58.033C690.711 60.1256 692.152 61.5144 693.603 62.5567C693.944 62.0883 694.599 61.8366 695.167 62.156C695.259 62.1966 695.351 62.2345 695.444 62.2697C695.487 62.2805 695.538 62.2968 695.606 62.313C696.71 62.5161 697.791 62.8815 698.917 62.9411C698.795 62.933 698.676 62.9221 698.554 62.914C698.906 63.0115 700.628 62.9059 701.995 62.6623C702.073 62.646 702.225 62.6135 702.371 62.5837C702.653 62.489 702.961 62.4971 703.243 62.5919C703.313 62.5729 703.384 62.5513 703.457 62.5431C703.47 62.5215 703.489 62.4917 703.524 62.4403C703.535 62.4159 703.546 62.3942 703.557 62.3699C703.549 62.2453 703.546 62.1181 703.557 61.9909C703.644 61.0542 704.721 60.3205 705.606 60.6373C706.524 60.8376 706.954 61.842 706.9 62.7299C707.036 63.044 707.187 63.3526 707.355 63.6504C708.083 64.7685 708.925 65.8134 709.762 66.8503C709.922 67.0506 710.379 67.5541 710.452 67.6489C710.49 67.6895 710.525 67.7274 710.563 67.768C711.524 68.7453 713.503 70.3994 715.423 71.0085C715.433 71.0112 715.441 71.0139 715.45 71.0166C715.907 71.1168 716.375 71.1655 716.844 71.1791C716.971 71.1709 717.131 71.1574 717.272 71.133C717.339 71.1114 717.407 71.0924 717.475 71.0654C717.637 70.9977 717.794 70.9192 717.951 70.838C717.986 70.8163 718.024 70.7892 718.076 70.7568C718.132 70.7161 718.184 70.6728 718.241 70.6322C718.766 70.6349 719.299 70.5212 719.751 70.2749C720.263 70.1503 720.704 69.904 721.099 69.5304C721.313 69.3301 721.484 69.0918 721.646 68.8509C721.668 68.8184 721.69 68.7805 721.714 68.748C721.725 68.7426 721.784 68.683 721.803 68.6614C721.882 68.572 721.963 68.4854 722.039 68.3961C722.561 67.7978 723.019 67.1535 723.382 66.4523C723.395 66.455 723.409 66.4523 723.422 66.455C723.996 66.5417 724.551 66.9369 724.773 67.4838C724.852 67.7328 724.955 67.9738 725.071 68.2093C725.103 68.277 725.141 68.3419 725.177 68.4042C725.19 68.4231 725.212 68.4611 725.258 68.5396L725.25 68.5341C725.26 68.5531 725.271 68.572 725.282 68.591C725.702 69.0756 726.024 69.6468 726.465 70.1151C726.636 70.2992 726.817 70.4752 726.996 70.6539C727.045 70.6999 727.101 70.7567 727.158 70.8136C727.183 70.8353 727.207 70.8596 727.234 70.884C728.146 71.7719 729.164 72.5489 730.22 73.2609C730.935 73.8348 731.955 74.1299 732.437 74.9339C733.493 76.5989 731.325 78.5237 729.765 77.3136C727.534 75.9112 725.439 74.2653 723.826 72.1618C723.558 71.8207 723.306 71.466 723.07 71.1006C721.939 72.4704 720.612 73.6886 719.031 74.4737C716.641 75.4862 713.89 74.7498 711.781 73.399C709.727 72.0995 709.023 71.2197 707.937 70.0772C706.889 68.8725 705.923 67.5948 705.135 66.2087C704.448 66.9667 703.635 67.6137 702.718 68.0577C701.445 68.6262 699.973 68.8563 698.603 68.5531C698.665 68.5693 698.727 68.5856 698.776 68.6018C698.638 68.5856 698.503 68.5639 698.367 68.5396C696.627 68.2093 695.024 67.4025 693.516 66.4983C691.32 65.1637 689.306 63.4717 687.769 61.4034C686.835 60.0823 686.006 58.6502 685.56 57.0882C685.473 56.6956 685.532 57.0421 685.606 57.2479C685.389 56.6685 685.224 56.0757 685.064 55.4801C684.972 55.1336 684.848 54.7627 684.991 54.4135C685.194 53.5634 685.985 53.2331 686.691 53.3604Z" fill="black"/>
</g>
<g opacity="0.1294">
<path d="M657.48 64.8904C658.198 63.9266 659.299 64.4707 660.187 64.8443C661.506 65.3804 662.892 65.7269 664.221 66.2304C665.198 66.6094 666.162 67.0345 667.18 67.3025C667.172 67.2998 667.161 67.297 667.153 67.2943C667.47 67.381 667.713 67.4514 667.156 67.2998C667.689 67.4703 668.271 67.5272 668.788 67.7329C668.953 67.5028 669.162 67.3079 669.446 67.1915C670.71 66.6013 672.145 68.0199 671.566 69.2922C671.135 70.2641 670.686 71.236 670.391 72.2566C670.136 73.7835 669.625 76.1902 667.551 75.4403C667.142 75.2697 666.866 74.9394 666.644 74.574C666.679 74.7066 665.832 73.6752 665.602 73.4803C664.687 72.503 662.903 70.9463 661.149 69.4005C660.231 68.6317 659.283 67.8953 658.301 67.2104C658.222 67.1617 658.144 67.1157 658.062 67.0696C657.995 67.0317 657.892 66.9722 657.792 66.9072C657.147 66.4578 657.001 65.5157 657.48 64.8904Z" fill="black"/>
</g>
<path d="M682.717 174.9C680.792 171.7 676.436 170.988 673.437 173.216L670.377 175.487C668.677 176.749 666.82 178.295 666.717 180.409C666.633 182.133 667.768 183.652 668.845 185.003C670.44 187.004 672.308 189.161 674.852 189.424C676.596 189.605 678.282 188.839 679.866 188.089C680.876 187.613 681.913 187.117 682.676 186.302C683.735 185.174 684.133 183.574 684.252 182.031C684.438 179.591 684 177.066 682.757 174.959C682.741 174.94 682.73 174.919 682.717 174.9Z" fill="white"/>
<path d="M675.377 190.783C675.158 190.783 674.936 190.772 674.714 190.75C671.703 190.439 669.648 188.149 667.802 185.834C666.795 184.57 665.274 182.661 665.385 180.344C665.525 177.428 668.165 175.468 669.581 174.415L672.64 172.144C674.424 170.82 676.695 170.308 678.875 170.739C680.994 171.159 682.765 172.39 683.858 174.212L683.864 174.22L682.716 174.9L683.894 174.275C685.22 176.519 685.8 179.234 685.578 182.136C685.41 184.318 684.76 186.029 683.645 187.218C682.697 188.23 681.492 188.796 680.431 189.297C679.013 189.965 677.28 190.783 675.377 190.783ZM677.348 173.257C676.235 173.257 675.139 173.611 674.232 174.285L671.173 176.557C669.7 177.65 668.124 178.944 668.048 180.471C667.989 181.684 668.885 182.913 669.887 184.169C671.381 186.043 673.005 187.892 674.99 188.097C676.308 188.233 677.662 187.656 679.297 186.885C680.185 186.465 681.103 186.032 681.704 185.393C682.391 184.659 682.803 183.492 682.922 181.93C683.1 179.61 682.632 177.374 681.609 175.639L682.719 174.897L681.576 175.585C680.875 174.418 679.733 173.625 678.36 173.354C678.022 173.289 677.683 173.257 677.348 173.257Z" fill="black"/>
<path d="M659.389 169.288C658.956 169.288 658.533 169.08 658.276 168.693C655.807 164.968 654.221 160.652 653.693 156.215C653.606 155.484 654.129 154.821 654.86 154.735C655.591 154.651 656.254 155.168 656.341 155.901C656.82 159.927 658.257 163.841 660.499 167.22C660.905 167.835 660.74 168.663 660.125 169.069C659.898 169.218 659.643 169.288 659.389 169.288Z" fill="black"/>
<path d="M653.721 173.377C653.35 173.377 652.982 173.223 652.719 172.925L649.306 169.046C648.818 168.493 648.872 167.651 649.425 167.164C649.977 166.677 650.819 166.731 651.306 167.283L654.72 171.163C655.207 171.715 655.153 172.557 654.601 173.044C654.346 173.269 654.032 173.377 653.721 173.377Z" fill="black"/>
<path d="M631.051 319.109C630.991 319.109 630.929 319.106 630.869 319.095C622.526 317.958 614.372 315.703 606.629 312.395C605.953 312.105 605.638 311.323 605.928 310.646C606.218 309.969 607.003 309.655 607.677 309.945C615.2 313.161 623.124 315.351 631.23 316.456C631.96 316.556 632.469 317.227 632.372 317.958C632.277 318.624 631.706 319.109 631.051 319.109Z" fill="black"/>
<g opacity="0.1294">
<path d="M758.291 270.708C756.764 270.746 755.562 271.878 754.282 272.582C752.268 273.927 750.232 275.243 748.242 276.626C743.637 280.013 738.862 283.218 734.747 287.209C731.994 290.103 736.13 294.242 739.038 291.499C744.336 286.876 746.807 285.032 752.187 281.234C754.073 280.056 755.925 278.827 757.82 277.666C758.754 276.967 760.037 276.661 760.728 275.689C762.379 273.805 760.755 270.635 758.291 270.708Z" fill="black"/>
</g>
<path d="M609.293 525.084C609.279 525.084 609.266 525.084 609.255 525.082C609.011 525.06 608.83 524.843 608.851 524.6L612.027 488.34C612.048 488.096 612.27 487.923 612.509 487.936C612.752 487.958 612.934 488.175 612.912 488.418L609.737 524.678C609.715 524.911 609.523 525.084 609.293 525.084Z" fill="black"/>
<path d="M623.681 530.094C623.676 530.094 623.67 530.094 623.665 530.094C623.419 530.086 623.227 529.88 623.235 529.634L624.748 484.388C624.756 484.142 624.981 483.955 625.205 483.958C625.452 483.966 625.644 484.172 625.636 484.418L624.123 529.663C624.117 529.904 623.92 530.094 623.681 530.094Z" fill="black"/>
<path d="M761.61 416.617C761.605 416.617 761.597 416.617 761.592 416.617C761.345 416.606 761.156 416.4 761.166 416.154L761.995 396.221C762.006 395.975 762.225 395.801 762.458 395.796C762.704 395.807 762.894 396.015 762.883 396.259L762.054 416.192C762.044 416.43 761.846 416.617 761.61 416.617Z" fill="black"/>
<path d="M774.426 432.993C774.424 432.993 774.424 432.993 774.426 432.993C774.177 432.993 773.98 432.792 773.982 432.546C774.074 414.54 774.605 396.297 775.558 378.324C775.572 378.08 775.783 377.89 776.026 377.904C776.273 377.918 776.46 378.126 776.446 378.372C775.493 396.332 774.962 414.559 774.87 432.551C774.868 432.795 774.67 432.993 774.426 432.993Z" fill="black"/>
<path d="M702.529 508.236C702.489 508.236 702.445 508.231 702.405 508.22C702.169 508.15 702.034 507.903 702.101 507.668C703.241 503.761 704.822 499.982 706.804 496.433C706.923 496.219 707.194 496.143 707.408 496.262C707.621 496.382 707.7 496.652 707.578 496.866C705.629 500.358 704.072 504.075 702.951 507.917C702.9 508.112 702.721 508.236 702.529 508.236Z" fill="black"/>
<path d="M705.918 511.948C705.888 511.948 705.858 511.945 705.828 511.94C705.587 511.891 705.433 511.655 705.482 511.414C706.137 508.234 707.198 505.142 708.633 502.229C708.741 502.01 709.009 501.918 709.228 502.026C709.448 502.134 709.54 502.402 709.431 502.622C708.029 505.469 706.992 508.488 706.353 511.596C706.31 511.804 706.123 511.948 705.918 511.948Z" fill="black"/>
<path d="M709.995 515.146H709.987C709.74 515.14 709.545 514.94 709.551 514.694C709.608 511.339 710.398 507.966 711.836 504.937C711.941 504.715 712.204 504.62 712.429 504.726C712.651 504.831 712.745 505.097 712.64 505.319C711.256 508.232 710.496 511.48 710.442 514.707C710.436 514.954 710.239 515.146 709.995 515.146Z" fill="black"/>
<path d="M714.505 517.604H714.497C714.25 517.599 714.055 517.399 714.061 517.152C714.115 514.128 714.556 511.115 715.368 508.2C715.433 507.964 715.682 507.823 715.915 507.891C716.151 507.956 716.289 508.202 716.224 508.438C715.431 511.28 715 514.218 714.949 517.169C714.946 517.412 714.748 517.604 714.505 517.604Z" fill="black"/>
<path d="M719.459 520.923C719.215 520.923 719.015 520.726 719.015 520.482C718.998 517.344 719.204 514.182 719.632 511.077C719.664 510.836 719.884 510.666 720.133 510.698C720.376 510.731 720.547 510.956 720.512 511.199C720.089 514.261 719.884 517.382 719.903 520.477C719.903 520.723 719.702 520.921 719.459 520.923Z" fill="black"/>
<path d="M724.193 523.016C723.958 523.016 723.76 522.829 723.749 522.594C723.627 520.041 723.692 517.453 723.944 514.908C723.968 514.665 724.182 514.494 724.429 514.508C724.672 514.532 724.851 514.751 724.827 514.995C724.58 517.496 724.515 520.041 724.634 522.553C724.645 522.797 724.456 523.005 724.212 523.016C724.207 523.016 724.201 523.016 724.193 523.016Z" fill="black"/>
<path d="M728.81 526.592C728.59 526.592 728.401 526.43 728.368 526.208C728.084 524.091 728.049 521.944 728.263 519.824C728.287 519.58 728.509 519.402 728.75 519.426C728.994 519.45 729.172 519.667 729.148 519.913C728.94 521.965 728.975 524.042 729.251 526.088C729.283 526.332 729.113 526.557 728.869 526.587C728.85 526.592 728.829 526.592 728.81 526.592Z" fill="black"/>
<path d="M561.933 227.779C561.803 227.779 561.676 227.725 561.589 227.617C559.889 225.551 558.292 223.366 556.835 221.125C556.703 220.919 556.759 220.643 556.965 220.51C557.171 220.375 557.447 220.434 557.58 220.64C559.014 222.852 560.595 225.01 562.274 227.051C562.431 227.24 562.404 227.519 562.212 227.676C562.133 227.747 562.033 227.779 561.933 227.779Z" fill="black"/>
<path d="M574.891 236.921C574.759 236.921 574.632 236.864 574.542 236.753C569.964 231 565.5 225.036 561.28 219.024C561.139 218.823 561.188 218.547 561.388 218.404C561.588 218.263 561.867 218.312 562.008 218.512C566.22 224.508 570.671 230.462 575.238 236.198C575.39 236.39 575.36 236.669 575.168 236.823C575.086 236.888 574.989 236.921 574.891 236.921Z" fill="black"/>
<path d="M584.72 239.768C584.59 239.768 584.462 239.711 584.376 239.605C578.396 232.277 572.627 224.624 567.234 216.857C567.093 216.656 567.145 216.378 567.345 216.237C567.548 216.096 567.824 216.147 567.965 216.348C573.344 224.093 579.099 231.727 585.066 239.039C585.22 239.229 585.193 239.511 585.004 239.665C584.917 239.735 584.817 239.768 584.72 239.768Z" fill="black"/>
<path d="M591.839 241.244C591.712 241.244 591.587 241.19 591.5 241.087C584.908 233.296 578.814 224.963 573.392 216.319C573.262 216.111 573.324 215.837 573.533 215.707C573.739 215.577 574.015 215.64 574.145 215.848C579.545 224.457 585.612 232.755 592.177 240.513C592.337 240.7 592.313 240.982 592.126 241.139C592.042 241.209 591.939 241.244 591.839 241.244Z" fill="black"/>
<path d="M598.581 240.582C598.454 240.582 598.329 240.528 598.242 240.425C591.55 232.558 585.21 224.241 579.398 215.703C579.26 215.5 579.311 215.224 579.514 215.085C579.717 214.947 579.993 215.002 580.131 215.202C585.925 223.713 592.243 232.005 598.916 239.848C599.076 240.035 599.052 240.316 598.865 240.473C598.784 240.547 598.681 240.582 598.581 240.582Z" fill="black"/>
<path d="M605.346 239.88C605.227 239.88 605.108 239.831 605.021 239.736C598.121 232.27 591.735 224.213 586.041 215.786C585.903 215.583 585.957 215.306 586.16 215.168C586.364 215.03 586.64 215.084 586.778 215.287C592.449 223.674 598.806 231.698 605.674 239.13C605.842 239.308 605.828 239.59 605.65 239.758C605.563 239.842 605.455 239.88 605.346 239.88Z" fill="black"/>
<path d="M611.011 238.539C610.892 238.539 610.773 238.49 610.686 238.398C604.533 231.765 598.663 224.735 593.241 217.496C593.095 217.298 593.133 217.019 593.33 216.873C593.528 216.727 593.804 216.767 593.953 216.962C599.357 224.177 605.207 231.186 611.339 237.794C611.506 237.976 611.496 238.254 611.314 238.422C611.228 238.498 611.119 238.539 611.011 238.539Z" fill="black"/>
<path d="M616.91 236.908C616.794 236.908 616.677 236.862 616.591 236.772C610.971 230.933 605.467 224.836 600.237 218.656C600.077 218.469 600.101 218.187 600.288 218.03C600.475 217.873 600.756 217.895 600.913 218.082C606.133 224.249 611.623 230.332 617.23 236.158C617.4 236.334 617.395 236.615 617.219 236.786C617.132 236.867 617.021 236.908 616.91 236.908Z" fill="black"/>
<path d="M622.637 234.712C622.529 234.712 622.418 234.671 622.331 234.59C618 230.491 613.766 226.178 609.748 221.774C609.583 221.593 609.597 221.311 609.778 221.146C609.96 220.981 610.241 220.992 610.406 221.176C614.41 225.564 618.628 229.858 622.943 233.943C623.122 234.111 623.13 234.392 622.959 234.571C622.873 234.665 622.756 234.712 622.637 234.712Z" fill="black"/>
<path d="M628.143 232.774C628.038 232.774 627.929 232.736 627.845 232.66C624.345 229.496 620.931 226.147 617.699 222.709C617.531 222.53 617.539 222.248 617.718 222.081C617.894 221.913 618.175 221.921 618.346 222.1C621.562 225.521 624.959 228.851 628.441 232C628.622 232.165 628.639 232.446 628.473 232.628C628.384 232.725 628.265 232.774 628.143 232.774Z" fill="black"/>
<path d="M632.542 229.919C632.431 229.919 632.32 229.878 632.236 229.797L624.05 221.981C623.871 221.811 623.866 221.529 624.036 221.353C624.207 221.174 624.488 221.169 624.664 221.337L632.851 229.152C633.03 229.323 633.035 229.605 632.865 229.781C632.775 229.873 632.659 229.919 632.542 229.919Z" fill="black"/>
<path d="M638.164 227.931C638.053 227.931 637.945 227.891 637.858 227.81L630.278 220.644C630.1 220.476 630.092 220.194 630.259 220.016C630.427 219.837 630.709 219.829 630.887 219.997L638.467 227.163C638.646 227.33 638.654 227.612 638.487 227.791C638.4 227.885 638.281 227.931 638.164 227.931Z" fill="black"/>
<path d="M642.071 225.226C641.973 225.226 641.876 225.196 641.795 225.129C639.613 223.396 637.536 221.49 635.63 219.46C635.463 219.281 635.471 218.999 635.649 218.832C635.828 218.664 636.11 218.672 636.277 218.851C638.154 220.848 640.197 222.727 642.344 224.433C642.536 224.584 642.569 224.866 642.417 225.058C642.331 225.166 642.201 225.226 642.071 225.226Z" fill="black"/>
<path d="M645.848 222.49C645.738 222.49 645.626 222.449 645.54 222.365L640.261 217.311C640.082 217.14 640.077 216.859 640.247 216.683C640.418 216.504 640.699 216.499 640.875 216.669L646.154 221.724C646.333 221.894 646.339 222.176 646.168 222.352C646.084 222.444 645.965 222.49 645.848 222.49Z" fill="black"/>
<path d="M650.063 219.772C649.954 219.772 649.849 219.734 649.765 219.655C648.046 218.096 646.221 216.623 644.337 215.275C644.136 215.132 644.09 214.855 644.234 214.655C644.377 214.455 644.654 214.409 644.854 214.552C646.765 215.919 648.62 217.414 650.363 218.997C650.544 219.163 650.558 219.444 650.393 219.626C650.303 219.723 650.184 219.772 650.063 219.772Z" fill="black"/>
<path d="M653.79 216.519C653.704 216.519 653.614 216.492 653.539 216.441C651.774 215.225 650.084 213.869 648.514 212.407C648.335 212.239 648.325 211.957 648.492 211.779C648.66 211.6 648.942 211.589 649.121 211.757C650.658 213.189 652.315 214.518 654.045 215.71C654.248 215.848 654.297 216.127 654.159 216.327C654.072 216.451 653.931 216.519 653.79 216.519Z" fill="black"/>
<path d="M657.592 212.593C657.5 212.593 657.408 212.564 657.327 212.507L652.914 209.231C652.716 209.085 652.676 208.806 652.822 208.608C652.968 208.411 653.247 208.37 653.445 208.516L657.857 211.792C658.055 211.938 658.096 212.217 657.95 212.415C657.863 212.531 657.728 212.593 657.592 212.593Z" fill="black"/>
<path d="M660.962 208.491C660.867 208.491 660.77 208.461 660.689 208.396L657.689 206.06C657.494 205.908 657.462 205.63 657.611 205.437C657.762 205.242 658.041 205.207 658.233 205.359L661.236 207.695C661.428 207.847 661.463 208.126 661.314 208.318C661.225 208.431 661.095 208.491 660.962 208.491Z" fill="black"/>
<path d="M664.62 205.689C664.517 205.689 664.414 205.654 664.33 205.581L661.201 202.885C661.014 202.725 660.995 202.443 661.155 202.257C661.315 202.07 661.596 202.051 661.783 202.211L664.913 204.907C665.099 205.067 665.118 205.348 664.959 205.535C664.867 205.638 664.745 205.689 664.62 205.689Z" fill="black"/>
<path d="M667.473 201.985C667.395 201.985 667.314 201.963 667.243 201.92C666.177 201.27 665.118 200.574 664.103 199.854C663.903 199.713 663.857 199.434 663.997 199.234C664.138 199.034 664.417 198.985 664.617 199.128C665.616 199.835 666.656 200.52 667.706 201.159C667.917 201.286 667.982 201.56 667.855 201.771C667.771 201.909 667.625 201.985 667.473 201.985Z" fill="black"/>
<path d="M670.441 198.319C670.359 198.319 670.278 198.298 670.202 198.252L666.929 196.181C666.721 196.051 666.661 195.775 666.791 195.566C666.921 195.358 667.197 195.296 667.406 195.428L670.679 197.499C670.887 197.629 670.947 197.905 670.817 198.114C670.733 198.249 670.589 198.319 670.441 198.319Z" fill="black"/>
<path d="M673.056 194.368C672.988 194.368 672.918 194.352 672.85 194.316L669.929 192.795C669.712 192.681 669.626 192.413 669.74 192.197C669.851 191.98 670.119 191.893 670.338 192.007L673.259 193.529C673.475 193.642 673.562 193.91 673.448 194.13C673.37 194.281 673.216 194.368 673.056 194.368Z" fill="black"/>
<path d="M677.733 185.957C677.657 185.957 677.582 185.938 677.511 185.897C675.316 184.636 673.207 183.193 671.244 181.604C671.052 181.45 671.022 181.171 671.179 180.978C671.333 180.789 671.612 180.756 671.804 180.913C673.732 182.473 675.803 183.891 677.955 185.126C678.169 185.248 678.242 185.521 678.12 185.732C678.036 185.878 677.887 185.957 677.733 185.957Z" fill="black"/>
<path d="M680.829 182.857C680.767 182.857 680.702 182.844 680.639 182.814C679.072 182.069 677.529 181.227 676.056 180.31C675.848 180.18 675.785 179.906 675.915 179.698C676.045 179.489 676.319 179.427 676.527 179.557C677.973 180.459 679.484 181.284 681.021 182.015C681.243 182.121 681.338 182.386 681.232 182.608C681.157 182.762 680.997 182.857 680.829 182.857Z" fill="black"/>
<path d="M830.238 253.77C830.208 253.77 830.176 253.767 830.146 253.759C829.905 253.707 829.753 253.472 829.802 253.231L831.924 243.214C831.976 242.973 832.214 242.822 832.452 242.87C832.693 242.922 832.845 243.157 832.796 243.398L830.674 253.415C830.628 253.626 830.441 253.77 830.238 253.77Z" fill="black"/>
<path d="M835.846 266.183C835.827 266.183 835.808 266.183 835.789 266.18C835.545 266.15 835.372 265.925 835.404 265.682C836.474 257.198 838.022 248.681 840.009 240.367C840.066 240.129 840.307 239.983 840.545 240.037C840.784 240.093 840.93 240.334 840.873 240.573C838.894 248.854 837.351 257.341 836.284 265.79C836.26 266.018 836.068 266.183 835.846 266.183Z" fill="black"/>
<path d="M841.593 277.087C841.577 277.087 841.558 277.087 841.542 277.084C841.298 277.057 841.122 276.835 841.152 276.591C842.63 263.613 844.463 250.505 846.596 237.635C846.636 237.391 846.864 237.223 847.107 237.269C847.351 237.31 847.514 237.537 847.473 237.781C845.342 250.637 843.512 263.732 842.034 276.694C842.01 276.919 841.818 277.087 841.593 277.087Z" fill="black"/>
<path d="M847.845 288.942C847.832 288.942 847.821 288.942 847.808 288.94C847.564 288.918 847.382 288.704 847.404 288.458C848.739 272.862 850.374 257.068 852.258 241.513C852.288 241.269 852.507 241.096 852.754 241.125C852.997 241.155 853.17 241.377 853.141 241.621C851.256 257.165 849.624 272.948 848.289 288.534C848.268 288.769 848.075 288.942 847.845 288.942Z" fill="black"/>
<path d="M853.906 297.261C853.893 297.261 853.877 297.261 853.863 297.258C853.619 297.234 853.441 297.017 853.465 296.774L857.393 256.656C857.418 256.412 857.629 256.234 857.878 256.258C858.121 256.282 858.3 256.499 858.276 256.743L854.345 296.86C854.326 297.091 854.131 297.261 853.906 297.261Z" fill="black"/>
<path d="M859.44 308.914C859.424 308.914 859.408 308.913 859.391 308.911C859.148 308.884 858.972 308.664 858.999 308.421L863.406 268.492C863.433 268.249 863.655 268.076 863.896 268.1C864.14 268.127 864.316 268.346 864.289 268.59L859.881 308.518C859.857 308.746 859.665 308.914 859.44 308.914Z" fill="black"/>
<path d="M865.872 318.984C865.853 318.984 865.837 318.984 865.818 318.981C865.575 318.952 865.401 318.73 865.431 318.486C867.031 305.559 868.336 292.418 869.308 279.432C869.327 279.188 869.543 279.004 869.784 279.021C870.031 279.039 870.212 279.253 870.196 279.497C869.221 292.5 867.916 305.654 866.314 318.597C866.284 318.819 866.094 318.984 865.872 318.984Z" fill="black"/>
<path d="M872.838 329.244C872.827 329.244 872.817 329.244 872.803 329.241C872.559 329.222 872.375 329.011 872.392 328.765L875.183 290.954C875.202 290.707 875.416 290.518 875.659 290.542C875.903 290.561 876.087 290.772 876.071 291.019L873.28 328.83C873.263 329.065 873.068 329.244 872.838 329.244Z" fill="black"/>
<path d="M879.957 339.071C879.957 339.071 879.951 339.071 879.946 339.071C879.699 339.066 879.504 338.863 879.51 338.617C879.775 326.126 880.376 313.469 881.291 300.997C881.31 300.754 881.543 300.57 881.768 300.586C882.011 300.605 882.195 300.816 882.179 301.062C881.264 313.518 880.666 326.161 880.4 338.635C880.395 338.879 880.197 339.071 879.957 339.071Z" fill="black"/>
<path d="M886.527 347.735C886.519 347.735 886.51 347.735 886.502 347.735C886.259 347.722 886.069 347.513 886.083 347.267L887.983 311.345C887.997 311.101 888.211 310.912 888.449 310.925C888.695 310.939 888.882 311.147 888.868 311.394L886.968 347.315C886.957 347.551 886.762 347.735 886.527 347.735Z" fill="black"/>
<path d="M892.154 354.421C892.143 354.421 892.13 354.421 892.119 354.418C891.875 354.399 891.691 354.185 891.713 353.939L894.385 320.462C894.404 320.218 894.623 320.037 894.864 320.053C895.107 320.072 895.292 320.286 895.27 320.532L892.598 354.009C892.576 354.242 892.381 354.421 892.154 354.421Z" fill="black"/>
<path d="M898.805 362.675C898.794 362.675 898.78 362.675 898.77 362.675C898.526 362.657 898.342 362.443 898.361 362.199C899.192 351.235 899.787 340.106 900.131 329.12C900.139 328.876 900.35 328.698 900.589 328.689C900.835 328.698 901.027 328.903 901.019 329.147C900.673 340.146 900.077 351.289 899.246 362.267C899.23 362.5 899.035 362.675 898.805 362.675Z" fill="black"/>
<path d="M905.377 369.998C905.367 369.998 905.356 369.998 905.345 369.998C905.101 369.982 904.914 369.768 904.931 369.524L907.199 336.58C907.216 336.334 907.427 336.161 907.673 336.166C907.917 336.182 908.104 336.396 908.087 336.64L905.819 369.584C905.802 369.819 905.607 369.998 905.377 369.998Z" fill="black"/>
<path d="M911.295 376.127C911.273 376.127 911.251 376.127 911.233 376.121C910.989 376.086 910.821 375.861 910.856 375.618C912.272 365.671 913.298 355.536 913.902 345.5C913.915 345.257 914.108 345.075 914.373 345.083C914.619 345.1 914.803 345.308 914.79 345.554C914.183 355.614 913.157 365.772 911.736 375.742C911.701 375.967 911.511 376.127 911.295 376.127Z" fill="black"/>
<path d="M919.366 385.681C919.358 385.681 919.353 385.681 919.345 385.681C919.101 385.67 918.911 385.462 918.922 385.215L920.474 353.509C920.484 353.265 920.666 353.076 920.939 353.086C921.186 353.1 921.372 353.306 921.361 353.552L919.81 385.259C919.799 385.494 919.602 385.681 919.366 385.681Z" fill="black"/>
<path d="M927.682 392.397C927.438 392.397 927.238 392.199 927.238 391.953L927.141 360.763C927.141 360.517 927.338 360.319 927.582 360.317C927.863 360.298 928.026 360.514 928.029 360.761L928.126 391.95C928.129 392.196 927.928 392.394 927.682 392.397V392.397Z" fill="black"/>
<path d="M935.09 397.1C934.849 397.1 934.651 396.908 934.646 396.667L934.004 368.285C933.999 368.039 934.194 367.835 934.437 367.83C934.694 367.841 934.887 368.02 934.892 368.263L935.534 396.643C935.539 396.889 935.344 397.092 935.1 397.097L935.09 397.1Z" fill="black"/>
<path d="M942.006 391.272C941.782 391.272 941.589 391.102 941.565 390.874C941.024 385.782 940.926 380.614 941.284 375.514C941.3 375.27 941.497 375.091 941.757 375.102C942.001 375.118 942.185 375.332 942.169 375.576C941.817 380.625 941.909 385.739 942.448 390.779C942.475 391.023 942.296 391.242 942.052 391.267C942.039 391.272 942.023 391.272 942.006 391.272Z" fill="black"/>
<path d="M493.213 521.148C493.173 521.148 493.129 521.142 493.089 521.129C492.853 521.061 492.718 520.815 492.788 520.577L495.382 511.721C495.452 511.486 495.698 511.351 495.934 511.421C496.169 511.489 496.305 511.735 496.234 511.973L493.641 520.828C493.584 521.023 493.405 521.148 493.213 521.148Z" fill="black"/>
<path d="M497.008 531.737C496.981 531.737 496.951 531.734 496.924 531.729C496.683 531.683 496.526 531.45 496.572 531.209C498.067 523.382 499.916 515.521 502.065 507.843C502.133 507.608 502.379 507.47 502.612 507.535C502.848 507.6 502.986 507.846 502.921 508.081C500.777 515.735 498.933 523.572 497.444 531.374C497.404 531.588 497.217 531.737 497.008 531.737Z" fill="black"/>
<path d="M501.674 544.754C501.655 544.754 501.636 544.754 501.614 544.752C501.371 544.719 501.2 544.497 501.232 544.254C502.372 535.585 503.896 526.863 505.759 518.327C505.81 518.086 506.043 517.934 506.287 517.989C506.528 518.04 506.679 518.278 506.625 518.516C504.765 527.028 503.247 535.726 502.11 544.373C502.085 544.592 501.893 544.754 501.674 544.754Z" fill="black"/>
<path d="M507.015 555.851C506.998 555.851 506.982 555.851 506.966 555.848C506.722 555.821 506.546 555.604 506.571 555.358C507.48 546.827 508.604 538.211 509.911 529.742C509.949 529.501 510.177 529.334 510.417 529.372C510.661 529.409 510.826 529.637 510.788 529.878C509.481 538.332 508.36 546.936 507.453 555.453C507.431 555.683 507.237 555.851 507.015 555.851Z" fill="black"/>
<path d="M512.149 567.18C512.135 567.18 512.119 567.18 512.105 567.177C511.862 567.153 511.683 566.937 511.707 566.69L514.374 539.488C514.398 539.245 514.615 539.074 514.858 539.088C515.102 539.112 515.281 539.331 515.256 539.575L512.593 566.777C512.568 567.01 512.376 567.18 512.149 567.18Z" fill="black"/>
<path d="M518.055 577.23C518.039 577.23 518.023 577.23 518.009 577.227C517.766 577.202 517.587 576.983 517.614 576.74L520.346 550.84C520.37 550.596 520.592 550.415 520.833 550.445C521.077 550.469 521.255 550.688 521.228 550.932L518.497 576.832C518.472 577.059 518.28 577.23 518.055 577.23Z" fill="black"/>
<path d="M525.219 586.88C525.208 586.88 525.197 586.88 525.184 586.88C524.94 586.861 524.756 586.648 524.775 586.404L526.645 561.804C526.664 561.56 526.873 561.376 527.122 561.395C527.368 561.414 527.55 561.628 527.531 561.871L525.66 586.472C525.644 586.704 525.449 586.88 525.219 586.88Z" fill="black"/>
<path d="M532.714 596.253H532.709C532.462 596.251 532.268 596.05 532.268 595.804C532.346 587.736 532.633 579.563 533.12 571.512C533.134 571.269 533.353 571.082 533.591 571.095C533.835 571.112 534.022 571.32 534.008 571.566C533.524 579.601 533.237 587.758 533.155 595.812C533.155 596.056 532.955 596.253 532.714 596.253Z" fill="black"/>
<path d="M540.992 603.892C540.757 603.892 540.559 603.705 540.548 603.467C540.197 595.724 540.042 587.879 540.094 580.141C540.096 579.898 540.294 579.7 540.538 579.7H540.54C540.787 579.703 540.984 579.903 540.982 580.147C540.933 587.868 541.084 595.7 541.436 603.426C541.447 603.67 541.258 603.878 541.014 603.889C541.006 603.892 540.998 603.892 540.992 603.892Z" fill="black"/>
<path d="M549.065 611.968C548.841 611.968 548.648 611.797 548.624 611.573C547.831 604.187 547.446 596.672 547.476 589.241C547.476 588.997 547.677 588.8 547.92 588.8H547.923C548.169 588.8 548.367 589 548.364 589.247C548.334 596.645 548.719 604.125 549.509 611.478C549.536 611.722 549.358 611.941 549.114 611.968C549.098 611.968 549.082 611.968 549.065 611.968Z" fill="black"/>
<path d="M557.441 618.088C557.225 618.088 557.035 617.928 557.003 617.706C556.044 611.092 555.305 604.36 554.81 597.692C554.791 597.448 554.975 597.234 555.219 597.215C555.465 597.188 555.676 597.381 555.695 597.627C556.191 604.276 556.924 610.987 557.883 617.579C557.918 617.823 557.75 618.047 557.506 618.082C557.485 618.085 557.463 618.088 557.441 618.088Z" fill="black"/>
<path d="M566.347 624.467C566.144 624.467 565.96 624.327 565.914 624.118C564.404 617.272 563.188 610.271 562.3 603.314C562.27 603.07 562.441 602.848 562.685 602.815C562.931 602.783 563.15 602.956 563.183 603.2C564.065 610.133 565.275 617.107 566.781 623.926C566.835 624.167 566.683 624.403 566.442 624.457C566.412 624.465 566.38 624.467 566.347 624.467Z" fill="black"/>
<path d="M574.589 628.892C574.389 628.892 574.205 628.754 574.159 628.551C572.667 622.286 571.33 615.897 570.179 609.56C570.136 609.319 570.295 609.089 570.536 609.043C570.78 609.005 571.01 609.159 571.053 609.403C572.201 615.722 573.536 622.097 575.022 628.345C575.079 628.586 574.933 628.824 574.692 628.881C574.659 628.889 574.624 628.892 574.589 628.892Z" fill="black"/>
<path d="M581.793 629.086C581.59 629.086 581.409 628.948 581.36 628.743L578.144 614.757C578.09 614.516 578.239 614.278 578.477 614.224C578.721 614.167 578.956 614.319 579.01 614.557L582.226 628.542C582.28 628.783 582.132 629.021 581.893 629.076C581.861 629.084 581.828 629.086 581.793 629.086Z" fill="black"/>
<path d="M588.896 626.878C588.888 626.878 588.883 626.878 588.875 626.878C588.75 626.87 588.458 626.802 588.325 626.383L586.262 619.734C586.189 619.498 586.322 619.249 586.555 619.176C586.793 619.103 587.039 619.236 587.11 619.469L589.099 625.885C589.164 625.909 589.224 625.944 589.27 625.99C589.416 626.142 589.454 626.378 589.362 626.578C589.292 626.74 589.078 626.878 588.896 626.878Z" fill="black"/>
<g opacity="0.1294">
<path d="M699.474 138.175C697.928 136.781 695.652 136.808 693.735 136.258C691.799 135.79 689.939 135.045 688.093 134.298C687.081 133.868 686.101 133.372 685.153 132.812C685.042 132.736 684.939 132.652 684.828 132.576C684.33 132.23 683.759 131.859 683.15 131.751C682.449 131.066 681.71 130.429 680.878 129.934C678.399 128.759 676.114 132.186 678.087 134.076C682.17 138.018 686.179 142.038 690.234 146.012C692.135 147.728 693.583 150.168 695.936 151.278C697.1 151.619 698.497 150.966 698.897 149.808C699.274 148.863 699.157 147.774 699.192 146.77C699.26 144.461 699.187 145.148 699.783 142.476C700.27 141.061 700.671 139.363 699.474 138.175Z" fill="black"/>
</g>
<g opacity="0.1294">
<path d="M673.792 198.771C670.592 202.578 667.5 206.468 664.027 210.044C662.4 211.72 660.702 213.347 658.983 214.952C658.737 215.223 658.488 215.496 658.225 215.775C656.463 217.724 654.69 219.674 652.871 221.574C652.567 221.393 652.221 221.279 651.847 221.255C650.689 222.224 649.524 223.182 648.355 224.122C647.814 224.555 647.167 224.436 646.739 224.086C646.733 224.092 646.725 224.095 646.72 224.1C638.969 230.118 630.038 234.696 621.159 238.686C621.026 238.746 620.893 238.776 620.766 238.786C620.484 238.976 620.198 239.163 619.924 239.363C618.636 240.687 618.511 242.674 618.232 244.412C617.875 246.515 617.791 249.39 620.152 250.308C622.063 251.221 623.703 249.64 625.276 248.752C628.189 247.13 630.959 245.289 633.663 243.345C641.379 238.483 646.086 235.852 652.586 229.609C657.576 224.88 662.162 219.736 666.631 214.514C667.787 213.098 668.84 211.612 669.845 210.088C670.752 208.128 671.629 206.143 672.319 204.097C672.906 202.353 673.353 200.569 673.827 198.793C673.813 198.785 673.803 198.78 673.792 198.771Z" fill="black"/>
</g>
<g opacity="0.1294">
<path d="M704.129 382.866C702.48 381.302 700.014 381.681 697.932 381.361C691.998 380.568 686.002 380.351 680.019 380.517C677.431 380.598 674.845 380.6 672.257 380.611C671.115 380.711 669.856 380.387 668.789 380.874C668.402 381.023 668.088 381.231 667.831 381.478C663.843 381.285 659.856 381.12 655.871 380.901C647.538 380.313 638.672 379.68 632.383 378.464C629.099 377.606 627.689 382.514 630.994 383.5C635.161 384.483 639.454 384.791 643.691 385.368C648.794 386.077 656.084 386.897 663.212 387.395C670.969 387.959 678.692 388.936 686.456 389.391C691.687 389.694 696.968 389.515 702.128 388.573C704.819 388.251 706.127 384.788 704.129 382.866Z" fill="black"/>
</g>
<g opacity="0.1294">
<path d="M739.941 523.139C739.987 523.22 740.009 523.306 740.047 523.39C740.168 523.679 740.23 523.819 739.941 523.139Z" fill="black"/>
</g>
<g opacity="0.1294">
<path d="M745.464 419.49C744.476 417.687 741.528 418.039 741.038 420.07C738.285 429.767 737.608 439.908 735.664 449.778C734.665 454.852 733.339 459.854 732.421 464.944C731.246 472.123 729.901 479.287 727.694 486.231C726.652 489.585 725.783 492.181 724.954 493.748C724.868 493.914 724.757 494.062 724.654 494.217C724.627 494.225 724.6 494.233 724.573 494.238C723.842 494.282 723.108 494.241 722.375 494.255C718.842 494.076 717.179 497.384 718.457 500.451C720.109 505.839 726.636 513.679 728.209 515.766C731.779 520.206 735.691 527.526 735.802 528.809C736.2 530.119 736.506 531.457 736.804 532.791C736.869 533.474 737.134 534.129 737.629 534.616C739.359 536.457 742.733 535.011 742.562 532.469C742.14 529.535 741.325 526.665 740.226 523.906C740.188 523.728 740.123 523.557 740.047 523.389C740.004 523.286 739.952 523.167 739.906 523.059C739.508 522.098 738.125 518.86 738.734 520.295C737.437 517.323 735.737 513.118 734.007 508.473C732.876 505.511 731.79 502.533 730.588 499.599C730.182 498.827 729.949 497.896 729.53 497.113C732.735 490.917 734.243 483.924 735.862 477.172C737.378 468.734 738.902 460.309 740.813 451.949C741.956 445.347 743.355 433.378 743.588 432.136C744.01 429.112 744.536 426.098 745.234 423.123C745.488 421.924 746.187 420.646 745.464 419.49Z" fill="black"/>
</g>
<g opacity="0.1294">
<path d="M973.559 357.184C972.62 356.386 971.797 356.324 971.049 356.654C970.31 356.5 969.506 356.667 968.875 357.325C965.223 361.202 961.731 365.182 958.35 369.21C956.284 368.76 955.126 370.607 953.983 372.342C952.73 374.153 951.474 375.962 950.115 377.694C949.519 378.468 948.907 379.232 948.29 379.99C938.536 388.685 928.178 396.718 918.278 405.24C900.17 419.918 881.994 434.602 864.386 448.268C863.674 448.761 862.96 449.25 862.248 449.746C850.382 457.8 838.248 465.45 826.421 473.561C801.904 490.503 777.805 508.053 752.631 524.026C741.372 531.295 729.936 538.287 718.615 545.459C711.121 550.126 703.333 554.292 695.726 558.767C684.22 565.752 672.918 573.058 661.252 579.778C651.041 586.204 640.448 591.982 629.789 597.623C620.276 603.076 610.866 608.712 601.594 614.562C598.852 616.241 596.123 617.949 593.356 619.589C592.203 620.318 590.757 620.827 590.172 622.094C588.24 623.003 586.393 623.813 584.674 624.47C583.09 624.868 582.056 626.671 582.533 628.244C582.961 629.825 584.723 630.854 586.304 630.386C587.105 630.085 587.904 629.771 588.694 629.446C585.727 631.1 587.316 636.141 591.109 635.218C613.931 629.985 636.631 624.116 659.677 619.895C665.638 618.891 668.056 618.577 672.815 618.06C676.294 617.884 678.508 617.638 680.01 615.12C680.308 611.173 680.714 607.237 681.172 603.33C681.946 596.727 682.902 590.149 684.014 583.595C684.071 583.124 684.128 582.655 684.185 582.184C683.717 581.686 683.102 581.359 682.442 581.239C685.043 579.588 687.623 577.899 690.162 576.142C691.936 574.712 694.25 573.778 695.071 572.279C699.632 569.934 704.202 567.603 708.793 565.324C715.429 562.073 721.615 558.025 727.928 554.211C739.988 547.18 751.396 539.159 762.88 531.24C772.789 524.405 782.919 517.902 792.998 511.321C802.256 505.127 812.243 500.124 821.521 493.962C830.573 487.874 839.504 481.604 848.606 475.586C856.21 470.402 864.064 465.578 871.555 460.225C874.129 458.382 876.587 456.397 879.002 454.354C882.957 451.665 886.818 448.831 890.687 446.024C895.898 442.225 901.125 438.441 906.004 434.217C918.067 423.808 929.998 413.164 940.515 401.16C941.343 400.08 942.505 399.189 943.108 397.974C943.414 397.367 943.393 396.677 943.152 396.062C945.68 392.852 948.157 389.679 950.697 386.449C951.674 385.309 952.627 384.153 953.566 382.984C957.102 379.676 960.527 376.254 963.754 372.637C966.98 369.102 969.996 365.379 972.861 361.546C973.061 361.278 973.554 360.62 973.67 360.457C974.046 360.022 974.26 359.469 974.263 358.893C974.279 358.248 973.998 357.637 973.559 357.184ZM598.115 627.132C595.232 627.822 592.344 628.493 589.447 629.135C592.249 627.963 594.991 626.666 597.715 625.318C597.883 625.778 598.17 626.192 598.535 626.514C598.367 626.704 598.226 626.912 598.115 627.132ZM673.743 586.846C671.959 588.067 663.02 594.391 658.586 596.938C652.476 600.339 646.303 603.406 640.071 606.384C645.001 603.622 649.882 600.777 654.679 597.78C661.51 593.711 668.426 589.783 675.238 585.687C674.761 586.074 674.271 586.462 673.743 586.846Z" fill="black"/>
</g>
<g opacity="0.1294">
<path d="M630.557 536.852C630.495 536.879 630.435 536.909 630.373 536.936C631.285 536.562 631.041 536.646 630.557 536.852Z" fill="black"/>
</g>
<g opacity="0.1294">
<path d="M648.417 499.877C647.361 500.159 646.568 501.195 646.581 502.289C646.619 502.998 646.673 503.713 646.606 504.422C646.595 504.579 646.576 504.734 646.557 504.891C646.062 508.505 644.188 514.815 643.614 515.671C635.801 531.608 621.865 535.311 605.838 531.037C604.368 530.633 602.814 529.637 601.347 530.596C599.39 531.692 599.368 534.743 601.347 535.834C606.97 538.246 613.24 538.98 619.315 539.12C622.969 539.028 626.643 538.441 630.046 537.071C630.219 536.993 630.398 536.917 630.555 536.852C637.583 533.814 643.159 528.024 647.058 521.532C649.51 517.612 650.526 513.018 651.23 508.502C651.533 505.706 653.108 499.208 648.417 499.877Z" fill="black"/>
</g>
<g opacity="0.1294">
<path d="M809.567 401.338C809.413 397.391 803.658 397.675 803.847 401.638C803.812 403.449 803.17 406.744 802.066 410.323C802.036 410.404 802.003 410.483 801.974 410.561C801.175 412.329 800.282 414.053 799.391 415.778C796.102 421.98 794.261 423.967 788.481 428.661C787.902 429.095 787.222 429.725 784.813 431.185C782.011 432.822 777.593 435.037 777.2 435.099C779.258 434.29 774.802 435.974 773.878 436.133C771.182 436.918 767.148 437.695 766.956 437.584C764.539 437.744 762.113 437.619 759.714 437.3C758.488 437.135 757.189 436.669 756.06 437.387C753.845 438.586 754.3 442.197 756.766 442.788C760.889 443.486 765.102 444.103 769.287 443.857C769.384 443.849 769.479 443.835 769.577 443.824C769.986 444.623 770.768 445.224 771.843 445.2C776.42 445.327 781.104 444.739 785.389 443.08C788.189 441.9 790.696 440.132 793.219 438.459C796.689 436.282 799.705 433.526 801.917 430.061C802.68 428.721 804.283 427.457 803.844 425.773C803.693 425.147 803.289 424.687 802.786 424.408C805.125 420.854 806.914 416.923 808.168 412.862C808.614 411.411 808.812 409.898 809.007 408.398C808.874 409.411 808.909 409.132 809.029 408.303C809.332 405.997 809.711 403.671 809.567 401.338Z" fill="black"/>
</g>
<g opacity="0.1294">
<path d="M546.525 613.66C545.813 613.435 545.141 613.581 544.494 613.841C543.409 613.911 542.434 614.602 541.451 615.089C539.359 616.21 537.274 617.36 535.284 618.654C527.758 623.622 521.02 629.643 514.639 635.991C509.599 641.154 506.875 643.506 503.386 648.755C502.614 650.085 502.53 651.882 503.432 653.084C503.694 653.634 504.054 654.143 504.555 654.495C504.875 654.719 505.557 655.199 505.814 655.369C505.828 655.38 505.841 655.391 505.852 655.402C506.142 655.637 506.558 656.106 506.762 656.336C508.042 658.09 508.356 660.545 510.289 661.755C512.084 662.73 514.526 661.967 515.625 660.291C515.847 659.947 515.98 659.552 516.128 659.17C516.22 658.962 516.383 658.61 516.526 658.323C517.912 655.185 519.632 652.215 521.332 649.24C527.704 638.644 532.548 631.719 541.86 623.671C544.24 621.489 547.394 619.212 548.084 618.373C549.443 616.816 548.509 614.16 546.525 613.66Z" fill="black"/>
</g>
</g>
<path opacity="0.2" d="M119.604 650.989L114.717 610.969C103.338 517.772 172.867 434.265 266.583 428.572L277.282 427.922C360.001 422.897 423.457 352.55 419.957 269.753V269.753C416.346 184.317 483.883 112.711 569.384 111.324L600.025 110.827" stroke="white" stroke-width="50" stroke-linecap="round"/>
<defs>
<filter id="filter0_d_53_294" x="343.5" y="0" width="732.866" height="786.944" filterUnits="userSpaceOnUse" color-interpolation-filters="sRGB">
<feFlood flood-opacity="0" result="BackgroundImageFix"/>
<feColorMatrix in="SourceAlpha" type="matrix" values="0 0 0 0 0 0 0 0 0 0 0 0 0 0 0 0 0 0 127 0" result="hardAlpha"/>
<feOffset dx="10" dy="20"/>
<feGaussianBlur stdDeviation="15"/>
<feComposite in2="hardAlpha" operator="out"/>
<feColorMatrix type="matrix" values="0 0 0 0 0 0 0 0 0 0 0 0 0 0 0 0 0 0 0.1 0"/>
<feBlend mode="normal" in2="BackgroundImageFix" result="effect1_dropShadow_53_294"/>
<feBlend mode="normal" in="SourceGraphic" in2="effect1_dropShadow_53_294" result="shape"/>
</filter>
</defs>
</svg>
