<svg width="668" height="507" viewBox="0 0 668 507" fill="none" xmlns="http://www.w3.org/2000/svg">
<g clip-path="url(#clip0_490_1551)">
<path d="M110.392 33.3807C105.586 22.1351 94.7777 16.5999 83.9906 22.7992C78.0881 26.193 78.824 36.5732 85.9763 38.0244C102.016 41.2796 84.515 58.7298 79.2441 64.286C71.416 72.5404 63.1964 80.3922 54.5986 87.8362C41.2594 99.3851 19.4085 110.212 11.2542 126.083C10.4636 127.623 11.4317 129.527 13.2373 129.545C29.6895 129.71 44.9674 116.257 57.4532 106.575C73.433 94.1845 89.739 80.4785 102.598 64.7671C109.808 55.9557 115.199 44.6211 110.392 33.3807Z" fill="#FEB402"/>
<path d="M207.203 21.262C197.845 31.0853 188.201 40.5738 178.051 49.5761C170.21 56.5311 153.671 75.1265 143.497 77.5843C140.974 81.1219 138.704 80.9964 136.684 77.2078C132.864 75.3801 132.259 72.5851 134.868 68.8278C135.014 62.5369 139.416 55.4225 142.302 49.8245C149.029 36.7826 158.992 26.86 168.547 15.9595C172.362 11.6061 167.603 5.00146 162.306 7.85666C144.98 17.191 132.345 34.5811 124.368 52.2744C118.914 64.3672 109.382 86.1734 122.633 96.6294C137.06 108.014 154.261 92.8173 165.461 84.4085C185.32 69.5024 203.586 52.7764 220.711 34.8007C229.208 25.8873 215.714 12.3277 207.203 21.262Z" fill="#FEB402"/>
<path d="M68.5404 209.232C86.1067 185.737 127.979 152.306 103.258 124.862C90.4044 110.594 70.975 121.479 58.1029 129.577C39.853 141.055 19.7086 156.824 12.5119 177.872C11.9092 179.639 14.1506 181.355 15.7006 180.33C26.5686 173.145 35.3466 163.324 45.4657 155.138C52.5163 149.435 59.9478 144.363 67.8176 139.881C79.265 133.357 94.5194 137.763 89.8721 153.127C86.6051 163.925 73.386 173.887 66.038 181.768C58.5257 189.826 51.7726 198.06 46.8774 207.995C45.1578 211.483 45.0039 216.744 48.3595 219.497C52.8033 223.147 56.1042 223.346 60.6732 226.191C67.4758 225.919 70.4479 230.094 69.5946 238.715C67.0244 243.225 65.4614 246.112 64.8847 247.414C58.5439 252.149 61.9492 264.979 70.6592 263.959C83.787 262.425 90.0704 244.731 89.7416 232.952C89.5668 226.703 87.6176 220.112 83.2129 215.463C79.0353 211.057 73.5765 210.605 68.5404 209.232Z" fill="#FEB402"/>
<path d="M149.194 168.891C132.175 177.932 109.176 197.804 112.918 220.162C114.317 228.523 117.751 229.038 124.157 233.167C133.827 239.398 128.105 240.911 121.051 248.486C114.886 255.106 109.818 259.912 105.714 267.936C102.582 274.055 108.999 281.175 115.306 277.548C128.932 269.709 159.096 244.684 146.934 225.273C142.542 218.261 131.085 220.797 128.347 216.747C121.952 207.287 146.292 178.693 151.148 170.846C151.928 169.581 150.407 168.245 149.194 168.891Z" fill="#FEB402"/>
<path d="M266.214 100.306C261.472 103.116 260.118 105.535 256.611 109.899C254.017 113.125 253.514 114.085 250.369 113.575C248.397 113.256 243.924 109.917 241.623 109.363C238.1 108.513 234.337 108.568 230.773 108.978C214.525 110.848 203.834 123.73 197.832 137.988C196.149 141.983 201.697 143.782 204.262 141.737C212.019 135.554 220.912 123.78 231.799 124.316C240.417 124.742 243.387 133.54 252.222 133.303C264.356 132.976 276.75 118.054 277.23 106.638C277.465 101.035 270.845 97.5602 266.214 100.306Z" fill="#FEB402"/>
<path d="M53.7218 118.82L54.1393 120.763C54.3689 121.83 56.0624 121.83 56.292 120.763L56.7095 118.82C57.2523 116.315 53.1791 116.3 53.7218 118.82Z" fill="#FEB402"/>
<path d="M264.272 88.2782C261.308 88.9345 258.526 89.7921 255.815 90.8092C244.097 82.9495 230.757 78.3504 217.799 88.2076C216.651 89.0809 203.829 102 203.403 93.7978C203.205 89.9908 213.645 81.2265 216.189 78.4079C224.482 69.2226 233.223 60.3563 238.755 49.1577C239.635 47.3798 238.899 45.6593 237.544 44.8854C238.57 39.8025 233.249 33.9927 227.731 34.968C226.376 33.6267 224.26 33.143 222.021 34.1313C206.101 41.1569 194.458 56.7873 180.243 66.6916C164.633 77.566 146.498 88.7175 127.006 88.7907C124.616 81.7965 127.082 70.3521 129.125 64.0953C134.057 48.9982 145.585 37.1303 156.703 26.3527C165.648 17.6825 156.262 4.24842 145.188 6.53102C132.629 9.11953 120.485 12.4454 108.365 16.6105C102.397 18.663 98.5248 24.5408 100.244 30.9414C102.227 38.32 103.879 45.3377 104.101 52.0156C100.568 51.8848 97.1601 53.5321 95.3361 57.7966C78.8683 90.451 50.8671 113.63 15.3875 122.616C10.5132 123.851 6.97224 128.732 6.96441 133.7C6.95398 141.819 6.9331 149.94 6.96441 158.058C7.01921 171.163 26.4043 174.018 29.8695 161.164C34.4516 144.172 53.5861 135.028 67.0035 125.514C67.9064 124.873 68.8301 124.248 69.7381 123.61C72.8094 127.14 77.3079 129.47 82.2057 129.582C87.8498 129.71 93.0764 127.569 97.207 124.068C99.1275 126.789 100.357 130.264 100.764 133.365C102.371 145.657 97.7863 153.702 90.347 162.589C81.2638 173.44 71.7421 183.956 62.4502 194.627C57.2158 200.638 58.1656 212.966 67.6846 214.493C90.0339 218.075 66.8235 252.51 83.0668 265.989C85.8745 268.318 88.9875 269.848 92.2205 270.682C94.6864 275.004 98.5639 278.798 103.198 279.611C107.715 280.4 112.276 279.085 114.711 274.918C116.342 272.122 116.43 268.663 115.207 265.738C116.657 264.681 118.027 263.505 119.282 262.2C127.077 254.094 133.373 240.477 126.307 230.097C119.783 220.514 112.441 215.962 118.732 203.266C123.22 194.206 129.122 185.559 135.364 177.435C136.609 177.294 137.827 176.965 138.913 176.337C139.883 175.778 140.851 175.216 141.822 174.656C146.107 172.18 149.034 166.077 147.297 161.177C143.547 150.604 135.33 144.112 124.097 146.656C124.308 144.436 124.345 142.198 124.261 139.946C129.141 141.476 134.652 140.02 139.596 138.404C150.433 134.861 164.605 130.28 174.066 123.602C176.903 121.602 178.875 118.742 180.626 115.74C180.777 115.813 180.929 115.892 181.078 115.965C184.355 121.076 188.697 125.613 194.398 129.765C198.464 132.727 204.04 130.973 207.458 128.076C212.348 123.934 215.905 119.67 219.493 114.406C220.012 113.646 220.356 112.843 220.615 112.027C221.865 113.298 223.381 114.302 224.899 114.872C241.97 121.275 260.817 117.371 273.473 104.128C280.179 97.1079 273.418 86.2571 264.272 88.2782Z" fill="#FEB402"/>
<path d="M328.878 403.496C305.018 384.179 282.144 364.234 261.632 341.299C243.791 321.349 228.039 292.789 205.272 278.479C204.134 277.765 202.519 278.688 202.566 280.035C203.526 307.789 226.11 334.864 242.886 355.457C263.56 380.835 287.266 403.896 313.694 423.216C325.079 431.546 339.952 412.464 328.878 403.496Z" fill="#FEB402"/>
<path d="M368.167 183.203C354.183 194.031 336.641 230.116 359.073 241.356C362.21 242.927 367.092 241.827 367.823 237.79C367.906 237.322 367.974 236.859 368.05 236.393C387.638 247.989 411.506 231.447 412.26 209.316C413.082 185.149 388.982 167.087 368.167 183.203ZM382.446 214.734C377.77 215.756 385.324 207.413 386.138 204.699C386.268 204.265 386.339 203.828 386.401 203.394C388.734 206.916 386.42 213.866 382.446 214.734Z" fill="#FEB402"/>
<path d="M565.055 115.805L564.784 114.08C563.69 107.117 557.42 104.487 551.512 105.344C546.317 101.352 541.526 96.2478 536.861 92.1611C530.486 86.5788 522.504 88.3594 518.308 93.4109C511.604 89.1098 501.819 92.5402 499.291 99.4899C493.211 95.513 486.531 98.3473 483.149 103.399C480.913 101.686 478.583 100.416 476.148 99.8952C472.803 99.1788 469.909 100.431 468.01 103.213C467.85 103.446 467.694 103.676 467.535 103.909C466.212 105.849 466.353 108.801 467.535 110.754C467.665 110.968 467.796 111.185 467.926 111.402C468.31 112.035 468.748 112.563 469.226 112.995C477.735 130.701 489.527 146.93 500.23 163.319C508.087 175.352 515.555 190.404 530.856 193.432C541.263 195.492 549.688 185.306 544.55 175.582C543.235 173.09 541.865 170.627 540.527 168.148C547.008 166.694 551.75 159.169 549.926 152.507C549.592 151.281 549.122 150.136 548.715 148.951C555.622 147.098 560.053 139.536 556.668 131.499C557.884 130.923 559.082 130.16 560.275 129.224C560.794 128.816 561.313 128.408 561.832 128C565.504 125.121 565.699 119.923 565.055 115.805Z" fill="#FEB402"/>
<path d="M270.138 381.962C267.492 368.606 250.477 358.89 240.83 350.107C231.84 341.923 221.027 330.471 208.844 327.527C204.105 326.382 200.517 329.697 200.048 334.242C198.589 348.382 209.131 363.115 217.345 373.639C226.468 385.327 238.883 401.961 254.748 402.204C265.736 402.374 272.106 391.897 270.138 381.962Z" fill="#FEB402"/>
<path d="M390.9 395.385C386.824 385.69 375.635 382.26 366.489 387.139C358.445 391.432 353.868 398.706 347.53 404.879C340.68 411.547 331.234 416.141 336.346 427.724C336.839 428.84 337.468 429.786 338.162 430.644C336.612 433.308 335.714 436.297 335.874 439.191C336.445 449.54 338.874 462.985 348.686 468.732C358.437 474.447 370.5 468.881 377.423 461.28C387.972 449.695 389.021 431.311 385.389 415.592C391.398 410.974 394.11 403.02 390.9 395.385Z" fill="#FEB402"/>
<path d="M543.961 130.688C542.719 128.113 539.533 127.95 537.276 128.931C526.781 133.499 521.22 144.297 514.921 153.454C506.636 165.499 498.532 177.663 490.359 189.784C474.262 213.661 456.27 235.941 436.434 256.816C393.309 302.199 342.316 336.414 294.627 376.306C276.038 391.855 300.336 423.312 320.546 409.967C375.5 373.678 428.801 327.88 472.618 278.727C493.041 255.818 512.69 230.704 527.162 203.527C537.276 184.532 554.229 151.99 543.961 130.688Z" fill="#FEB402"/>
<path d="M440.426 224.397C439.241 216.888 428.418 212.801 422.403 217.05C406.598 228.215 402.321 249.242 379.826 251.723C360.404 253.864 349.706 239.259 334.214 231.428C332.875 230.751 331.132 231.041 330.352 232.442C315.734 258.717 355.535 281.051 376.702 281.329C405.032 281.697 445.459 256.327 440.426 224.397Z" fill="#FEB402"/>
<path d="M662.233 26.1538C644.897 25.7956 629.339 40.6834 616.6 50.9956C601.965 62.8427 580.633 75.9813 572.152 93.0968C568.792 99.8792 570.174 106.392 574.015 110.756C556.747 134.856 545.124 163.115 532.221 189.69C516.244 222.598 498.986 255.964 474.165 283.18C451.023 308.558 420.824 326.107 402.749 356.113C385.003 385.572 379.226 419.769 374.479 453.315C371.476 456.092 368.671 459.154 365.19 462.135C363.298 463.756 355.039 470.815 349.343 474.423C343.629 458.783 342.514 440.7 333.259 426.879C330.663 423.001 326.263 419.589 321.282 419.994C300.733 421.662 295.78 409.488 280.521 400.583C270.637 394.815 260.737 395.252 251.471 402.008C241.417 409.339 246.969 429.483 260.757 424.083C268.768 420.946 285.86 440.747 293.338 444.261C299.989 447.385 306.009 448.13 312.486 448.112C319.374 469.403 317.751 509.604 345.794 506.869C359.634 505.52 379.106 493.997 391.503 480.406C401.027 482.801 411.224 479.036 413.088 466.43C417.983 433.329 422.497 396.381 442.733 368.582C463.104 340.595 494.45 322.426 515.639 294.58C536.644 266.971 551.434 235.334 564.374 203.276C575.832 174.891 588.21 145.115 592.907 114.568C593.069 114.498 593.231 114.461 593.393 114.385C609.962 106.704 623.252 87.4021 636.226 74.7132C647.725 63.4649 664.994 50.308 667.885 33.5925C668.54 29.8222 666.327 26.2401 662.233 26.1538Z" fill="#FEB402"/>
<path d="M222.128 400.711C205.955 404.576 190.8 413.915 175.253 419.916C161.192 425.344 144.593 428.85 132.387 437.837C127.231 441.633 127.823 449.187 134.151 451.357C149.316 456.56 167.989 452.855 183.41 449.566C200.332 445.958 220.764 440.961 234.593 430.338C248.499 419.662 241.195 396.157 222.128 400.711Z" fill="#FEB402"/>
<path d="M213.984 366.909C209.757 361.515 203.252 359.703 198.26 355.174C193.811 351.14 193.994 345.558 190.795 340.611C187.638 335.726 183.066 333.235 177.518 332.73C177.808 331.519 178.038 330.301 178.186 329.067C178.993 326.329 178.382 324.008 177.631 321.396C176.605 317.819 172.266 317.738 170.288 320.433C165.434 327.054 158.535 330.895 158.144 339.913C157.969 343.957 159.146 347.895 161.846 350.97C162.82 352.078 164.599 353.519 165.878 354.196C166.269 354.403 167.858 354.976 169.252 355.352C169.403 355.961 169.588 356.688 169.675 357.462C169.907 359.572 170.199 361.648 170.773 363.688C172.122 368.47 174.672 372.907 177.85 376.698C184.431 384.553 193.801 390.273 204.004 391.053C217.606 392.093 220.73 375.516 213.984 366.909Z" fill="#FEB402"/>
<path d="M309.902 438.961C308.426 438.961 306.956 438.381 305.861 437.251C245.399 374.926 193.762 298.852 147.996 204.68C146.681 201.974 147.714 198.711 150.35 197.263C297.448 116.289 398.65 94.708 583.952 74.3477C585.899 74.1281 587.837 74.9621 589.038 76.5231C590.238 78.0919 590.53 80.1732 589.815 82.0113C582.123 101.773 575.046 119.053 568.176 134.846C503.007 284.65 368.206 396.638 313.279 437.835C312.272 438.59 311.085 438.961 309.902 438.961ZM160.49 204.576C204.254 293.631 253.391 366.099 310.495 425.799C366.98 382.901 495.267 274.188 557.848 130.335C563.633 117.037 569.572 102.662 575.913 86.6C400.012 106.28 300.911 127.993 160.49 204.576Z" fill="#0B409C"/>
<path d="M583.425 85.7318C581.682 85.7318 579.965 84.9265 578.864 83.4048C577.034 80.8843 577.588 77.3545 580.106 75.5216L658.945 18.0698C661.45 16.2369 664.978 16.7834 666.812 19.317C668.642 21.8375 668.086 25.3673 665.568 27.2002L586.733 84.652C585.734 85.3841 584.573 85.7318 583.425 85.7318Z" fill="#0B409C"/>
<path d="M566.955 129.07C565.201 129.07 563.476 128.254 562.372 126.716C553.086 113.769 544.715 100.585 537.489 87.5305C535.981 84.8034 536.962 81.3678 539.684 79.8565C542.406 78.34 545.834 79.3283 547.342 82.0554C554.356 94.7234 562.492 107.535 571.524 120.13C573.34 122.661 572.76 126.186 570.237 128.005C569.243 128.724 568.092 129.07 566.955 129.07Z" fill="#0B409C"/>
<path d="M530.397 201.289C528.766 201.289 527.149 200.583 526.037 199.221C497.417 164.218 475.123 131.24 457.877 98.4022C456.429 95.6464 457.486 92.2316 460.239 90.7805C463 89.332 466.4 90.3883 467.851 93.1467C484.736 125.302 506.618 157.658 534.752 192.07C536.725 194.48 536.373 198.039 533.964 200.013C532.915 200.871 531.652 201.289 530.397 201.289Z" fill="#0B409C"/>
<path d="M383.362 263.505C369.117 263.494 356.696 258.404 347.407 248.774C337.541 238.553 332.39 224.371 332.899 208.843C333.517 190.07 343.37 173.636 359.251 164.888C362.575 163.058 366.335 161.878 370.737 161.285C387.114 159.065 404.299 164.402 416.699 175.537C428.17 185.847 434.284 199.595 433.916 214.253C433.255 240.496 409.633 263.505 383.362 263.505ZM364.681 174.779C352.32 181.593 344.649 194.462 344.161 209.217C343.754 221.66 347.783 232.921 355.507 240.927C362.625 248.303 372.248 252.207 383.335 252.215C403.425 252.215 422.147 233.993 422.654 213.968C422.938 202.672 418.152 192.007 409.179 183.943C399.203 174.983 385.397 170.698 372.243 172.473C369.24 172.876 366.769 173.634 364.681 174.779Z" fill="#0B409C"/>
<path d="M245.294 412.09C243.692 412.09 242.103 411.408 240.991 410.095C211.114 374.761 182.998 332.71 152.513 277.755C151.299 275.569 151.667 272.842 153.418 271.059C161.163 263.157 168.159 256.043 175.34 248.952C177.558 246.766 181.119 246.787 183.309 249.009C185.49 251.229 185.464 254.806 183.249 256.992C177.049 263.115 170.969 269.275 164.412 275.953C192.59 326.393 218.741 365.659 246.226 398.787C253.409 393.723 260.984 389.157 268.207 384.935C270.892 383.366 274.344 384.273 275.913 386.966C277.481 389.659 276.576 393.116 273.885 394.687C265.488 399.595 256.627 404.963 248.673 410.958C247.666 411.719 246.474 412.09 245.294 412.09Z" fill="#0B409C"/>
<path d="M345.035 488.851C344.391 488.851 343.741 488.742 343.115 488.514C341.296 487.855 339.944 486.305 339.532 484.412C335.915 467.85 332.904 449.501 330.248 433.316C329.282 427.438 328.348 421.744 327.422 416.344C326.895 413.272 328.954 410.354 332.022 409.823C335.078 409.298 337.998 411.361 338.53 414.433C339.459 419.853 340.398 425.579 341.366 431.483C343.639 445.328 345.972 459.559 348.706 473.224C359.22 465.097 369.978 456.895 380.804 448.75C379.471 425.409 379.022 401.791 378.589 378.921L378.446 371.422C378.386 368.305 380.857 365.73 383.967 365.667C387.025 365.497 389.648 368.086 389.71 371.202L389.854 378.706C390.305 402.455 390.772 427.01 392.228 451.101C392.343 452.997 391.5 454.819 389.984 455.959C375.93 466.514 361.967 477.182 348.487 487.664C347.488 488.449 346.267 488.851 345.035 488.851Z" fill="#0B409C"/>
<path d="M177.722 194.632C176.292 194.632 174.859 194.088 173.764 193.003C158.598 177.985 142.268 162.224 124.084 149.077C122.408 147.864 121.526 145.827 121.795 143.769C122.061 141.714 123.429 139.973 125.36 139.228L137.822 134.446C150.394 129.627 163.391 124.648 175.982 119.542C177.774 118.818 179.809 119.061 181.383 120.188C198.936 132.817 217.745 143.192 240.587 154.882C243.358 156.301 244.459 159.701 243.042 162.48C241.626 165.254 238.226 166.35 235.462 164.938C213.249 153.567 194.73 143.39 177.346 131.162C165.562 135.902 153.52 140.514 141.846 144.988L138.905 146.117C154.428 158.291 168.495 171.911 181.683 184.969C183.896 187.162 183.919 190.734 181.73 192.954C180.626 194.075 179.175 194.632 177.722 194.632Z" fill="#0B409C"/>
<path d="M69.4459 452.997C66.346 452.997 63.3035 452.955 60.274 452.913L56.1929 452.861C54.5099 452.843 52.9234 452.071 51.8692 450.759C50.8124 449.443 50.3975 447.726 50.7367 446.073C61.1716 395.427 105.737 333.306 133.897 307.936C136.212 305.852 139.774 306.043 141.853 308.359C143.936 310.678 143.745 314.247 141.431 316.331C116.321 338.956 75.578 395.182 63.3452 441.665C92.8938 442.026 122.463 441.118 202.164 400.557C204.938 399.145 208.33 400.257 209.739 403.033C211.148 405.815 210.042 409.212 207.268 410.626C130.868 449.501 97.6376 452.997 69.4459 452.997Z" fill="#0B409C"/>
<path d="M126.174 397.736C124.178 397.736 122.555 397.449 121.443 396.798C119.329 395.558 118.119 393.38 118.21 390.964C118.797 375.18 129.43 364.088 138.811 354.299C140.468 352.571 142.104 350.866 143.651 349.164C145.747 346.863 149.311 346.691 151.61 348.795C153.909 350.897 154.073 354.467 151.978 356.77C150.365 358.545 148.661 360.321 146.937 362.117C139.881 369.482 132.619 377.052 130.252 386.127C139.382 384.25 158.491 377.583 166.22 372.824C168.876 371.195 172.344 372.027 173.97 374.68C175.598 377.337 174.768 380.814 172.117 382.446C165.513 386.514 138.631 397.736 126.174 397.736Z" fill="#0B409C"/>
<path d="M122.346 290.689C122.064 290.689 121.782 290.671 121.498 290.627C62.3327 281.666 0.709706 226.152 0.00778373 148.758C-0.597591 82.4346 43.2086 23.7147 106.536 5.96379C121.612 1.73851 136.94 -0.251244 152.02 0.0259092C216.542 1.27571 271.203 43.4423 288.038 104.957C288.86 107.964 287.096 111.07 284.096 111.891C281.098 112.736 277.995 110.947 277.17 107.941C261.668 51.2941 211.286 12.4664 151.803 11.316C137.767 11.0048 123.59 12.9031 109.573 16.8355C51.1385 33.2163 10.7167 87.4234 11.2725 148.656C11.9222 220.026 68.6813 271.21 123.181 279.462C126.257 279.927 128.373 282.806 127.912 285.886C127.489 288.684 125.086 290.689 122.346 290.689Z" fill="#0B409C"/>
<path d="M8.4335 134.592C6.99313 134.592 5.55014 134.04 4.4516 132.937C2.25189 130.733 2.25189 127.158 4.4516 124.954C13.7018 115.685 25.9502 105.64 37.7968 95.9315C58.0273 79.3441 83.2025 58.7014 83.2025 48.2271C83.2025 46.0282 82.3545 45.2098 79.8965 43.1599C77.2088 40.9192 73.1512 37.5332 73.1512 31.0122C73.1512 27.8956 75.6719 25.3672 78.7849 25.3672C81.8979 25.3672 84.4185 27.8956 84.4185 31.0122C84.4185 32.0816 84.7708 32.534 87.1062 34.4819C90.0365 36.9292 94.4672 40.6263 94.4672 48.2271C94.4672 64.0536 71.5099 82.8739 44.9282 104.667C33.2956 114.205 21.269 124.065 12.4154 132.937C11.3169 134.04 9.87388 134.592 8.4335 134.592Z" fill="#0B409C"/>
<path d="M142.141 80.4684C137.759 80.4684 134.61 79.4174 132.517 77.2603C129.91 74.5776 130.004 71.2832 130.043 69.8765C130.051 50.6169 142.441 37.3763 153.374 25.6914C158.102 20.6425 162.567 15.8682 166.074 10.7931C167.845 8.22813 171.35 7.58492 173.915 9.36289C176.472 11.1382 177.111 14.655 175.34 17.2173C171.358 22.98 166.395 28.2878 161.593 33.4151C151.26 44.4594 141.499 54.8971 141.321 69.1574C141.559 69.1731 141.83 69.1784 142.143 69.1784C146.256 68.8515 159.715 56.1783 168.62 47.7957C179.366 37.6848 190.477 27.2262 198.962 22.9722C201.746 21.5864 205.131 22.7107 206.522 25.4979C207.912 28.2878 206.785 31.6764 204.001 33.0726C196.99 36.5867 186.489 46.4675 176.334 56.0293C160.234 71.1812 149.966 80.4684 142.141 80.4684Z" fill="#0B409C"/>
<path d="M65.785 264.95C65.1144 264.95 64.4307 264.83 63.7627 264.577C60.8585 263.455 59.4103 260.189 60.5271 257.282C63.6949 249.03 68.9606 242.368 74.0567 235.92C80.5045 227.765 86.1172 220.661 86.6835 211.729C82.5633 211.685 78.4874 212.995 74.1689 214.383C69.7147 215.813 65.1065 217.293 60.1905 217.293C59.2981 217.521 58.236 217.735 57.0253 217.735C53.821 217.735 48.4483 216.221 48.4483 206.084C48.4483 193.136 58.9432 183.127 69.0963 173.448C77.1097 165.803 85.3996 157.901 85.3996 150.714C85.3996 150.371 85.3475 150.243 85.3475 150.243C85.2483 150.117 84.0976 148.894 76.9348 148.894C56.2007 148.894 38.0865 165.936 22.1014 180.97L17.8612 184.947C15.5806 187.065 12.0162 186.934 9.89999 184.649C7.78117 182.367 7.91425 178.795 10.1948 176.669L14.3881 172.737C31.0281 157.083 51.7387 137.601 76.9348 137.601C90.0287 137.601 96.6669 142.012 96.6669 150.711C96.6669 162.741 86.5973 172.339 76.8618 181.627C68.4544 189.643 59.7573 197.934 59.7156 206.019C59.8852 206.008 60.0443 206 60.1905 206C63.3426 206 66.9331 204.847 70.7297 203.626C75.4501 202.112 80.8045 200.392 86.7696 200.392C92.3327 200.392 97.9977 205.365 97.9977 210.241C97.9977 223.811 90.3183 233.528 82.8894 242.925C78.1091 248.975 73.5948 254.685 71.0429 261.327C70.1844 263.578 68.0499 264.95 65.785 264.95Z" fill="#0B409C"/>
<path d="M111.945 283.175C110.979 283.175 110.003 282.929 109.111 282.406C106.423 280.832 105.518 277.378 107.083 274.685C109.797 270.026 113.296 265.455 116.681 261.034C123.559 252.055 130.667 242.771 130.667 233.287C130.667 226.05 128.178 223.645 125.031 220.596C122.119 217.777 118.494 214.271 118.494 207.745C118.494 196.395 126.226 189.037 133.049 182.545C136.95 178.832 140.635 175.326 142.845 171.338C144.356 168.614 147.782 167.631 150.506 169.145C153.225 170.659 154.204 174.094 152.695 176.821C149.645 182.32 145.152 186.597 140.807 190.731C134.881 196.374 129.762 201.242 129.762 207.745C129.762 209.321 130.349 210.048 132.856 212.475C136.47 215.973 141.934 221.257 141.934 233.287C141.934 246.606 133.266 257.923 125.618 267.913C122.301 272.243 119.168 276.332 116.814 280.375C115.767 282.171 113.884 283.175 111.945 283.175Z" fill="#0B409C"/>
<path d="M240.48 143.137C230.711 143.137 228.352 135.907 227.081 132.022C225.849 128.244 225.721 127.851 222.726 127.851C220.145 127.851 207.518 130.877 198.464 139.947C196.264 142.151 192.697 142.151 190.497 139.947C188.298 137.743 188.298 134.168 190.497 131.964C201.36 121.077 216.847 116.561 222.726 116.561C233.889 116.561 236.428 124.335 237.79 128.513C238.878 131.847 238.878 131.847 240.477 131.847C248.963 131.847 256.716 122.497 262.521 114.352C264.332 111.821 267.845 111.227 270.381 113.039C272.912 114.851 273.499 118.379 271.691 120.915C264.317 131.261 254.104 143.137 240.48 143.137Z" fill="#0B409C"/>
<path d="M210.216 104.897C208.75 104.897 207.333 104.563 205.953 103.794C201.008 101.041 201.008 94.8597 201.008 92.8281C201.008 85.3058 208.15 77.5952 217.191 67.8294C222.614 61.9752 228.759 55.3366 233.163 48.7215C234.885 46.1278 238.382 45.4218 240.976 47.1553C243.564 48.8862 244.264 52.3899 242.539 54.9836C237.636 62.3517 231.162 69.3433 225.453 75.5087C219.908 81.4962 212.32 89.6879 212.278 92.802C214.196 91.8424 216.813 90.2135 218.749 89.0055C225.398 84.8587 232.931 80.1601 240.493 80.1601C249.109 80.1601 252.77 85.0051 254.959 87.8969C256.47 89.8919 256.595 89.8919 257.115 89.8919C258.743 89.8919 262.717 85.3555 264.413 83.4154C265.486 82.1917 266.503 81.0413 267.44 80.1C269.64 77.8958 273.207 77.8958 275.406 80.1C277.606 82.3042 277.606 85.8784 275.406 88.0825C274.621 88.8696 273.778 89.8396 272.881 90.8645C268.854 95.4611 263.842 101.182 257.115 101.182C250.87 101.182 247.81 97.1319 245.981 94.7133C244.235 92.4046 243.509 91.4502 240.493 91.4502C236.151 91.4502 229.802 95.4088 224.704 98.5908C219.375 101.914 214.592 104.897 210.216 104.897Z" fill="#0B409C"/>
</g>
<defs>
<clipPath id="clip0_490_1551">
<rect width="668" height="507" fill="white"/>
</clipPath>
</defs>
</svg>
