<svg width="219" height="198" viewBox="0 0 219 198" fill="none" xmlns="http://www.w3.org/2000/svg">
<path d="M82.1311 131.545C80.2991 132.948 78.0591 135.242 75.9621 136.164C72.6601 137.617 68.6691 136.12 65.2351 135.86C60.2961 135.485 55.3161 136.429 52.1181 140.495C45.3801 149.06 53.1081 163.677 59.6521 170.063C61.5281 171.894 64.3901 170.465 64.5661 168.027C64.9681 162.483 62.7711 157.459 61.7161 152.104C61.2741 149.858 60.6591 148.747 62.3031 147.675C63.5061 146.891 67.3451 147.755 68.9081 147.435C75.2701 146.131 83.2601 140.194 85.1041 133.83C85.5541 132.277 83.5851 130.431 82.1311 131.545Z" fill="#EFEFEF" fill-opacity="0.2"/>
<path d="M89.9999 92.6501C88.8229 91.0251 86.5389 90.4171 84.9839 92.0041C80.1169 96.9711 80.2989 103.64 79.0809 110.133C78.3579 113.987 78.1829 118.771 75.4169 121.655C72.3369 124.866 67.7899 124.037 63.4939 124.56C54.9189 125.604 40.9039 130.855 42.1279 141.771C42.2199 142.592 43.3039 143.331 43.9709 142.534C49.9039 135.444 55.6109 133.697 64.6679 133.802C70.8739 133.874 77.8599 134.845 83.0429 130.634C87.9389 126.656 89.5519 119.211 90.8079 113.365C92.2639 106.587 94.3759 98.6931 89.9999 92.6501Z" fill="#EFEFEF" fill-opacity="0.2"/>
<path d="M99.9519 48.0691C97.9679 41.7081 89.2979 43.2721 88.7439 49.5861C88.3209 54.4151 89.4029 59.5581 85.4499 63.2561C81.5309 66.9221 76.8849 64.1431 72.3449 65.2041C71.2489 65.4601 70.8789 66.7341 71.3499 67.6491C74.9939 74.7221 85.9259 76.0041 92.0649 71.8301C99.3289 66.8901 102.533 56.3431 99.9519 48.0691Z" fill="#EFEFEF" fill-opacity="0.2"/>
<path d="M148.913 24.031C141.681 22.613 135.379 28.606 130.702 33.559C125.409 39.164 120.259 46.12 120.732 54.191C120.961 58.089 122.569 61.459 123.914 65.054C124.692 67.132 125.889 69.644 125.549 71.908C125.083 75.012 122.499 76.336 120.454 77.974C115.913 81.611 113.737 85.035 114.78 91.023C114.88 91.598 115.782 91.562 115.908 91.023C117.917 82.42 125.745 84.281 130.286 78.789C133.746 74.605 133.482 68.881 132.402 63.879C131.582 60.082 129.827 56.184 130.911 52.252C131.954 48.468 135.01 44.932 137.625 42.173C142.126 37.424 148.92 34.657 151.425 28.458C152.119 26.744 150.661 24.373 148.913 24.031Z" fill="#EFEFEF" fill-opacity="0.2"/>
<path d="M217.366 28.3641C216.71 26.4431 215.231 24.4941 213.093 24.0911C211.868 23.8601 210.77 23.9241 209.789 24.2021C208.036 16.7641 203.499 10.4431 194.938 10.6271C193.183 10.6651 192.775 13.2451 194.519 13.7191C202.312 15.8381 197.112 33.8211 195.004 37.9541C191.582 44.6631 183.772 47.6241 180.696 54.2681C179.69 56.4411 179.886 59.6901 182.423 60.8531C183.494 61.3441 184.551 61.6751 185.595 61.8921C181.17 63.4781 176.488 64.0791 172.226 66.0661C171.879 66.2281 171.862 66.7381 172.108 66.9841C180.304 75.1971 196.549 69.9501 204.388 63.8911C214.237 56.2781 221.604 40.7771 217.366 28.3641Z" fill="#EFEFEF" fill-opacity="0.2"/>
<path d="M206.108 117.035C205.595 115.239 204.095 114.379 202.554 114.378C204.894 108.666 205.848 100.726 200.848 96.6172C199.71 95.6812 198.053 95.2042 196.705 96.0822C192.545 98.7932 191.165 103.671 189.895 108.235C189.356 110.173 189.031 112.211 188.217 114.061C187.612 115.434 186.382 116.799 187.076 118.473C188.893 122.858 192.586 123.293 195.9 121.818C192.015 129.451 189.482 137.75 184.332 144.91C178.017 153.69 170.116 161.423 161.546 167.997C152.234 175.14 141.802 181.397 130.418 184.55C117.845 188.033 106.64 186.886 94.1241 183.919C93.8841 183.862 93.5911 184.147 93.7681 184.382C101.125 194.112 114.301 197.381 126.262 197.024C140.857 196.588 154.784 189.58 166.361 181.125C177.037 173.328 186.841 164.236 194.526 153.431C201.566 143.537 209.675 129.519 206.108 117.035Z" fill="#EFEFEF" fill-opacity="0.2"/>
<path d="M203.882 84.5921C203.191 83.0511 202.205 82.4441 200.806 81.5891C199.703 80.9151 198.771 80.0481 197.903 79.0941C196.18 77.1991 192.775 79.7291 194.3 81.8741C195.287 83.2621 196.386 84.5301 197.682 85.6381C199.265 86.9921 200.731 87.7841 202.833 87.1691C204.011 86.8251 204.344 85.6221 203.882 84.5921Z" fill="#EFEFEF" fill-opacity="0.2"/>
<path d="M157.456 104.753C152.353 109.096 148.702 115.369 144.375 120.508C140.239 125.421 135.893 130.144 131.547 134.87C128.746 137.915 122.675 146.825 118.531 147.116C116.535 147.256 112.584 142.676 110.924 141.36C108.5 139.439 106.113 137.525 103.426 135.998C102.807 135.646 101.929 136.235 102.171 136.963C104.264 143.271 109.505 149.468 114.954 153.237C120.313 156.944 124.207 153.803 128.556 150.026C135.345 144.13 141.679 137.739 147.646 131.017C153.243 124.712 160.654 117.608 164.027 109.82C165.893 105.51 161.233 101.538 157.456 104.753Z" fill="#EFEFEF" fill-opacity="0.2"/>
<path d="M137.642 102.088C135.519 98.8051 130.873 98.8111 128.126 101.289C126.778 102.505 125.489 104.218 124.53 105.753C123.818 106.894 124.137 107.188 122.888 106.353C120.141 104.517 113.2 100.353 112.531 106.481C112.456 107.169 113.087 107.877 113.72 108.042C114.3 108.194 115.08 110.37 115.36 110.872C116.082 112.167 116.882 113.511 117.901 114.601C120.23 117.092 123.709 118.81 127.168 118.089C132.757 116.925 141.44 107.963 137.642 102.088Z" fill="#EFEFEF" fill-opacity="0.2"/>
<path d="M160.165 138.392C159.852 136.751 157.639 136.371 156.556 137.439C153.173 140.777 151.741 145.748 149.985 150.067C148.146 154.59 145.32 159.664 146.685 164.572C147.524 167.59 151.026 168.153 153.226 166.299C156.986 163.13 157.551 157.031 158.556 152.43C159.558 147.844 161.06 143.082 160.165 138.392Z" fill="#EFEFEF" fill-opacity="0.2"/>
<path d="M36.3821 115.865C35.3091 115.865 34.2621 115.585 33.2681 115.034C30.7271 113.623 29.7311 110.585 28.5771 107.067C26.1411 99.645 22.8061 89.48 2.92312 88.486C1.73212 88.427 0.814119 87.414 0.874119 86.222C0.933119 85.031 1.96912 84.136 3.13812 84.174C25.9841 85.315 30.1751 98.09 32.6801 105.722C33.5151 108.266 34.3031 110.67 35.3641 111.259C35.7081 111.45 36.0511 111.547 36.3821 111.547C37.9081 111.547 39.3961 107.454 40.7091 103.843C43.5031 96.158 47.3301 85.636 59.0581 85.166C59.0871 85.165 59.2001 85.163 59.2291 85.163C60.7101 85.163 61.9131 85.9 62.9751 86.55C63.4511 86.841 63.9431 87.143 64.2981 87.261C65.4291 87.639 66.0401 88.8619 65.6621 89.992C65.2841 91.123 64.0621 91.734 62.9301 91.357C62.1081 91.083 61.3701 90.63 60.7201 90.233C60.2631 89.953 59.4991 89.485 59.2291 89.481C50.3991 89.834 47.4081 98.06 44.7691 105.318C42.7961 110.742 40.9331 115.865 36.3821 115.865Z" fill="white"/>
<path d="M54.6135 170.397C53.6455 170.397 52.7655 169.742 52.5205 168.762C50.8385 162.033 49.6965 157.971 48.9415 155.283C47.7155 150.921 47.3865 149.75 47.3865 146.499C47.3865 133.602 60.2915 133.602 66.4945 133.602L68.5845 133.606C79.3555 133.606 89.8705 131.49 89.8705 106.214C89.8705 92.9629 82.1125 87.0309 74.4245 87.0309C70.3655 87.0309 65.8865 88.4829 61.8105 91.1209C60.8085 91.7649 59.4715 91.4819 58.8245 90.4799C58.1765 89.4789 58.4635 88.1419 59.4645 87.4939C64.2315 84.4099 69.5435 82.7119 74.4245 82.7119C83.9435 82.7119 94.1895 90.0659 94.1895 106.213C94.1895 134.156 81.2465 137.923 68.5855 137.923L66.4955 137.919C55.4385 137.919 51.7065 140.084 51.7065 146.498C51.7065 149.153 51.9195 149.911 53.1005 154.112C53.8625 156.825 55.0145 160.924 56.7115 167.712C57.0015 168.869 56.2975 170.041 55.1405 170.331C54.9625 170.376 54.7865 170.397 54.6135 170.397Z" fill="white"/>
<path d="M39.4753 147.953C30.0723 147.953 23.5193 137.945 23.5193 128.961C23.5193 122.844 26.2423 117.186 30.9923 113.437C31.9283 112.7 33.2863 112.858 34.0243 113.794C34.7633 114.73 34.6033 116.088 33.6673 116.827C29.9623 119.751 27.8373 124.174 27.8373 128.96C27.8373 135.887 32.8143 143.634 39.4753 143.634C41.7903 143.634 44.7493 143.018 45.9253 141.843C46.7683 141 48.1353 141 48.9783 141.843C49.8213 142.686 49.8213 144.053 48.9783 144.896C46.0693 147.805 40.5513 147.953 39.4753 147.953Z" fill="white"/>
<path d="M50.9453 138.503C50.7193 138.503 50.4883 138.468 50.2623 138.392C44.2553 136.389 40.3743 131.094 40.3743 124.905C40.3743 122.372 41.0653 119.825 42.3723 117.538C42.9643 116.502 44.2853 116.144 45.3183 116.734C46.3533 117.326 46.7133 118.646 46.1213 119.68C45.1863 121.316 44.6923 123.122 44.6923 124.905C44.6923 129.205 47.4153 132.89 51.6283 134.296C52.7593 134.673 53.3703 135.896 52.9933 137.027C52.6923 137.931 51.8493 138.503 50.9453 138.503Z" fill="white"/>
<path d="M58.1495 100.904C57.7385 100.904 57.3225 100.787 56.9545 100.541C55.9625 99.8788 55.6945 98.5388 56.3555 97.5468C58.1665 94.8328 58.9725 92.2928 58.9725 89.3098C58.9725 88.1178 59.9385 87.1508 61.1315 87.1508C62.3245 87.1508 63.2905 88.1178 63.2905 89.3098C63.2905 93.1438 62.2285 96.5218 59.9475 99.9418C59.5325 100.566 58.8475 100.904 58.1495 100.904Z" fill="white"/>
<path d="M71.5585 194.263C70.5905 194.263 69.7105 193.608 69.4655 192.628C69.1765 191.471 69.8795 190.299 71.0365 190.009C75.0155 188.577 103.16 161.078 103.16 150.104C103.16 147.46 102.052 144.05 100.876 144.05C99.5995 144.05 96.4845 145.898 94.8125 146.892C92.5715 148.222 91.6215 148.762 90.6025 148.762C89.3575 148.762 88.2575 148.238 87.2875 147.775C86.9275 147.605 86.4155 147.36 86.1135 147.275C83.4515 149.469 83.3725 150.938 83.2425 153.332C82.9555 158.631 82.5985 165.226 59.2225 178.584C58.1865 179.173 56.8685 178.815 56.2765 177.78C55.6845 176.746 56.0445 175.426 57.0795 174.834C78.4125 162.644 78.6985 157.352 78.9295 153.099C79.0785 150.35 79.2475 147.232 83.6185 143.737C84.2825 143.206 85.0915 142.925 85.9595 142.925C87.1405 142.925 88.2045 143.431 89.1415 143.878C89.5315 144.064 90.0865 144.328 90.4195 144.415C90.8945 144.196 91.8685 143.617 92.6055 143.18C95.8955 141.228 98.5935 139.733 100.874 139.733C105.718 139.733 107.476 145.936 107.476 150.105C107.476 162.996 77.6355 192.81 72.0815 194.198C71.9085 194.242 71.7315 194.263 71.5585 194.263Z" fill="white"/>
<path d="M92.9132 173.406C92.6682 173.406 92.4192 173.365 92.1752 173.277C87.6832 171.642 83.5772 169.09 79.6052 166.621C78.5362 165.956 77.4722 165.294 76.4072 164.656C75.3852 164.043 75.0532 162.716 75.6672 161.694C76.2812 160.671 77.6072 160.336 78.6292 160.953C79.7122 161.602 80.7962 162.277 81.8852 162.953C85.6682 165.305 89.5812 167.738 93.6512 169.217C94.7712 169.625 95.3502 170.864 94.9422 171.985C94.6232 172.862 93.7952 173.406 92.9132 173.406Z" fill="white"/>
<path d="M26.9475 85.894C26.8085 85.894 26.6675 85.881 26.5255 85.853C25.3565 85.621 24.5965 84.484 24.8285 83.314C32.3755 45.266 63.8395 17.1 101.343 14.82C103.994 14.658 106.687 14.602 109.337 14.642C110.53 14.662 111.481 15.644 111.462 16.836C111.443 18.015 110.48 18.96 109.304 18.96C106.72 18.918 104.146 18.975 101.605 19.13C66.0595 21.292 36.2305 48.031 29.0645 84.155C28.8595 85.183 27.9575 85.894 26.9475 85.894Z" fill="white"/>
<path d="M110.032 187.571C109.425 187.571 108.821 187.565 108.215 187.553C107.546 187.537 106.882 187.518 106.22 187.49C105.029 187.438 104.105 186.43 104.157 185.238C104.21 184.047 105.222 183.128 106.408 183.175C107.038 183.203 107.671 183.223 108.306 183.235C147.451 184.067 184.1 156.934 193.64 120.187C193.939 119.033 195.114 118.343 196.272 118.639C197.426 118.939 198.119 120.118 197.819 121.272C193 139.838 181.446 156.769 165.287 168.944C149.298 180.991 129.742 187.571 110.032 187.571Z" fill="white"/>
<path d="M112.194 93.9529C105.737 93.9529 104.97 72.2039 104.97 71.9839C104.97 24.8909 122.844 -6.10352e-05 156.658 -6.10352e-05C158.078 -6.10352e-05 159.522 0.043939 160.949 0.127939C162.139 0.197939 163.047 1.21994 162.977 2.41094C162.906 3.59994 161.891 4.50294 160.694 4.43794C159.352 4.35894 157.994 4.31894 156.658 4.31894C125.226 4.31894 109.289 27.0849 109.289 71.9849C109.289 75.4909 110.825 86.5109 112.424 89.3189C112.811 88.5109 112.993 86.5809 113.109 85.3519C113.386 82.4159 113.7 79.0869 115.421 76.3629C116.865 74.0769 119.204 73.5639 121.084 73.1509C123.547 72.6109 124.069 72.4239 124.069 70.3479C124.069 68.6629 123.227 66.7959 122.336 64.8199C121.288 62.4979 120.205 60.0969 120.205 57.4479C120.205 51.2099 126.875 27.6629 148.058 22.8959C149.226 22.6399 150.377 23.3669 150.638 24.5289C150.899 25.6919 150.169 26.8469 149.005 27.1099C130.645 31.2399 124.523 52.1909 124.523 57.4479C124.523 59.1679 125.373 61.0519 126.272 63.0449C127.312 65.3499 128.387 67.7339 128.387 70.3489C128.387 75.9719 124.394 76.8469 122.009 77.3699C120.485 77.7049 119.528 77.9459 119.071 78.6689C117.902 80.5219 117.639 83.3029 117.408 85.7589C117.081 89.2159 116.634 93.9529 112.194 93.9529Z" fill="white"/>
<path d="M109.052 61.0519C107.859 61.0519 106.893 60.0849 106.893 58.8929C106.893 57.7009 107.859 56.7339 109.052 56.7339C110.448 56.7339 111.907 56.6229 113.451 56.5049C115.924 56.3139 118.64 56.1539 120.812 56.3729C121.998 56.4909 122.864 57.5489 122.745 58.7359C122.626 59.9219 121.564 60.7979 120.382 60.6689C118.538 60.4859 116.072 60.6369 113.78 60.8109C112.223 60.9299 110.613 61.0519 109.052 61.0519Z" fill="white"/>
<path d="M79.4183 65.778C79.3013 65.778 79.1843 65.777 79.0663 65.772C72.1843 65.602 64.6133 59.978 64.3853 51.19C64.2753 46.972 65.9283 42.802 68.9193 39.751C71.8843 36.726 75.8243 35.077 79.8813 35.098C81.1143 35.105 82.3423 35.268 83.5323 35.583C87.0243 36.507 89.9813 38.431 92.3213 41.304C93.9123 43.258 94.8153 45.687 95.0043 48.526C95.3053 53.056 93.6453 57.563 90.4503 60.89C87.4573 64.01 83.4533 65.778 79.4183 65.778ZM79.7943 39.417C76.8913 39.417 74.1273 40.608 72.0033 42.774C69.8253 44.996 68.6223 48.023 68.7013 51.078C68.8583 57.135 74.2433 61.334 79.1743 61.456C82.1583 61.561 85.0933 60.236 87.3353 57.901C89.6903 55.447 90.9153 52.135 90.6953 48.814C90.5663 46.887 89.9873 45.277 88.9723 44.032C87.1963 41.852 85.0563 40.453 82.4283 39.759C81.5903 39.536 80.7253 39.421 79.7943 39.417Z" fill="white"/>
<path d="M78.9871 56.577C78.9481 56.577 78.9081 56.576 78.8681 56.576C77.0241 56.542 75.3661 55.849 74.1971 54.625C72.9641 53.333 72.3431 51.575 72.4001 49.537C72.4171 49 72.4841 48.463 72.6001 47.932C72.7951 47.031 73.3091 46.387 73.6501 45.963C73.7271 45.866 73.8111 45.775 73.8711 45.673C74.3761 44.539 75.5781 43.645 76.9431 43.392C79.3891 42.941 81.7571 43.486 83.4531 44.886C84.9091 46.088 85.7221 47.825 85.7401 49.782C85.7571 51.605 85.0521 53.317 83.7551 54.602C82.4861 55.86 80.7531 56.577 78.9871 56.577ZM76.8011 48.943C76.7521 49.188 76.7241 49.429 76.7171 49.664C76.7011 50.257 76.7921 51.088 77.3221 51.643C77.7911 52.135 78.4651 52.249 78.9481 52.257C79.6031 52.244 80.2421 52.005 80.7181 51.533C81.0441 51.21 81.4321 50.65 81.4241 49.819C81.4181 49.132 81.1831 48.607 80.7071 48.215C80.0181 47.646 78.8771 47.421 77.7311 47.636C77.5011 48.06 77.2401 48.388 77.0231 48.658C76.9471 48.753 76.8631 48.843 76.8011 48.943ZM76.8201 48.847C76.8201 48.848 76.8191 48.848 76.8191 48.85C76.8201 48.849 76.8201 48.849 76.8201 48.847Z" fill="white"/>
<path d="M63.6161 65.5219C62.8821 65.5219 62.1671 65.1479 61.7631 64.4729C61.1491 63.4509 61.4811 62.1239 62.5031 61.5109C63.3701 60.9909 64.2451 60.3779 65.1721 59.7299C66.1171 59.0679 67.0951 58.3829 68.0901 57.7859C69.1131 57.1699 70.4391 57.5049 71.0521 58.5269C71.6661 59.5489 71.3351 60.8739 70.3121 61.4889C69.4471 62.0079 68.5731 62.6209 67.6481 63.2669C66.7011 63.9299 65.7221 64.6159 64.7261 65.2139C64.3771 65.4239 63.9941 65.5219 63.6161 65.5219Z" fill="white"/>
<path d="M177.961 63.6511C172.405 63.6511 166.369 61.0801 164.097 60.1121C163.917 60.0351 163.762 59.9691 163.637 59.9171C163.335 59.9341 163.033 59.9721 162.733 60.0071C162.197 60.0691 161.642 60.1321 161.053 60.1321C155.324 60.1321 149.095 38.7511 149.095 37.6431C149.095 30.8761 155.947 9.45305 176.927 3.97905C179.411 3.33105 181.97 3.01605 184.75 3.01605C199.227 3.01605 213.833 10.8831 213.833 28.4611C213.833 45.2351 195.059 63.6511 177.961 63.6511ZM163.978 55.5871C164.494 55.5871 164.795 55.7151 165.791 56.1391C167.841 57.0121 173.287 59.3331 177.962 59.3331C192.706 59.3331 209.516 42.8871 209.516 28.4611C209.516 18.7161 203.03 7.33405 184.751 7.33405C182.344 7.33405 180.141 7.60205 178.017 8.15605C158.188 13.3291 153.501 34.2191 153.415 37.5521C153.843 40.2071 159.065 53.8661 161.383 55.8011C161.664 55.7841 161.952 55.7481 162.24 55.7151C162.764 55.6561 163.359 55.5871 163.978 55.5871Z" fill="white"/>
<path d="M190.446 58.0909C189.833 58.0909 189.224 57.8309 188.796 57.3259C186.457 54.5619 182.935 54.1589 178.855 53.6919C177.018 53.4819 175.12 53.2649 173.235 52.8089C163.175 50.3809 161.211 43.7339 159.48 37.8679C158.416 34.2669 157.411 30.8649 154.598 28.5199C153.682 27.7569 153.558 26.3949 154.322 25.4799C155.086 24.5619 156.445 24.4409 157.363 25.2029C161.182 28.3869 162.478 32.7739 163.622 36.6449C165.293 42.3009 166.612 46.7679 174.25 48.6109C175.877 49.0029 177.642 49.2049 179.348 49.4009C183.92 49.9239 188.649 50.4649 192.094 54.5359C192.864 55.4449 192.751 56.8089 191.84 57.5789C191.433 57.9229 190.938 58.0909 190.446 58.0909Z" fill="white"/>
<path d="M207.378 83.3989C207.349 83.3989 207.32 83.3989 207.29 83.3979C196.436 82.9639 188.875 72.5609 188.093 63.1699C187.994 61.9819 188.877 60.9389 190.065 60.8399C191.264 60.7629 192.297 61.6259 192.395 62.8139C193.025 70.3729 198.964 78.7439 207.462 79.0839C208.653 79.1319 209.58 80.1369 209.533 81.3269C209.487 82.4879 208.531 83.3989 207.378 83.3989Z" fill="white"/>
<path d="M190.202 115.623C181.254 115.623 177.229 105.171 177.229 97.7479C177.229 93.6139 179.297 91.1049 181.835 90.0299C181.046 89.0189 180.458 87.7179 180.458 86.0549C180.458 83.1799 182.861 79.0209 187.206 79.0209C191.378 79.0209 195.895 82.4519 197.488 86.8339C197.896 87.9539 197.318 89.1929 196.197 89.5999C195.074 90.0129 193.838 89.4299 193.43 88.3099C192.45 85.6149 189.6 83.3399 187.206 83.3399C185.41 83.3399 184.776 85.5759 184.776 86.0559C184.776 87.3999 186.056 88.2459 187.367 88.9979C188.016 89.3709 189.537 90.2419 189.082 91.9529C188.608 93.7339 186.965 93.7339 184.885 93.7339C184.102 93.7339 181.547 94.0239 181.547 97.7499C181.547 103.218 184.298 111.307 190.202 111.307C192.147 111.307 195.539 108.31 195.539 106.591C195.539 106.542 195.533 106.493 195.519 106.439C195.23 105.282 195.933 104.11 197.09 103.82C198.248 103.531 199.418 104.235 199.708 105.39C199.807 105.785 199.857 106.19 199.857 106.59C199.857 111.07 194.239 115.623 190.202 115.623Z" fill="white"/>
<path d="M182.049 108.353C181.081 108.353 180.201 107.698 179.956 106.718C179.667 105.561 180.37 104.389 181.527 104.099C182.635 103.822 183.607 103.149 184.733 102.37C186.019 101.479 187.477 100.47 189.349 100.002C190.509 99.7119 191.678 100.417 191.967 101.572C192.256 102.729 191.553 103.901 190.396 104.191C189.288 104.468 188.316 105.141 187.19 105.92C185.904 106.811 184.446 107.82 182.574 108.288C182.398 108.332 182.222 108.353 182.049 108.353Z" fill="white"/>
<path d="M118.17 149.284C117.66 149.284 117.148 149.104 116.739 148.741C110.045 142.816 103.202 136.161 95.2016 127.798C94.3776 126.936 94.4076 125.569 95.2696 124.745C96.1306 123.92 97.4966 123.952 98.3216 124.813C105.639 132.462 111.97 138.66 118.101 144.17C133.368 129.161 141.044 119.907 147.841 111.714C149.876 109.261 151.82 106.917 153.879 104.523C142.605 96.9279 133.363 88.8148 126.384 80.3808C125.624 79.4628 125.752 78.1009 126.671 77.3419C127.589 76.5819 128.949 76.7098 129.711 77.6288C136.833 86.2358 146.452 94.5278 158.301 102.274C158.825 102.617 159.174 103.169 159.259 103.789C159.343 104.407 159.156 105.034 158.744 105.504C156.104 108.518 153.704 111.409 151.165 114.472C144.09 123 136.073 132.665 119.679 148.67C119.26 149.079 118.716 149.284 118.17 149.284Z" fill="white"/>
<path d="M96.0162 101.276C95.4642 101.276 94.9112 101.065 94.4902 100.644C93.6472 99.8011 93.6472 98.4341 94.4902 97.5911C96.2202 95.8611 97.8522 94.0191 99.4302 92.2401C101.531 89.8691 103.703 87.4191 106.11 85.2301C106.993 84.4301 108.358 84.4931 109.16 85.3761C109.962 86.2591 109.897 87.6241 109.014 88.4261C106.78 90.4571 104.779 92.7131 102.661 95.1031C101.04 96.9321 99.3642 98.8221 97.5422 100.644C97.1212 101.065 96.5692 101.276 96.0162 101.276Z" fill="white"/>
<path d="M124.85 121.096C124.804 121.096 124.759 121.096 124.714 121.096C116.913 121.017 110.36 114.273 110.403 106.369C110.445 98.7789 116.061 92.4669 123.187 91.9979C123.715 91.9659 124.244 91.9639 124.78 91.9909C126.971 92.1199 129.295 92.3369 131.545 93.4319C136.113 95.6489 138.982 99.4959 139.417 103.987C139.851 108.478 138.295 113.139 135.254 116.456C132.508 119.451 128.818 121.096 124.85 121.096ZM124.042 96.2889C123.849 96.2889 123.658 96.2949 123.467 96.3069C118.675 96.6219 114.751 101.147 114.721 106.392C114.691 111.87 119.38 116.724 124.756 116.777C128.305 116.745 130.699 115.034 132.07 113.537C134.296 111.108 135.436 107.692 135.117 104.402C134.831 101.443 132.84 98.8609 129.656 97.3149C128.271 96.6399 126.669 96.4279 124.534 96.3029C124.369 96.2929 124.205 96.2889 124.042 96.2889Z" fill="white"/>
<path d="M126.616 108.419C126.236 108.419 125.851 108.319 125.506 108.111C121.65 105.793 118.106 103.03 114.974 99.8979C114.131 99.0549 114.131 97.6879 114.974 96.8449C115.817 96.0019 117.184 96.0019 118.027 96.8449C120.481 99.2989 123.212 101.509 126.163 103.429C128.016 101.183 129.808 98.9139 131.464 96.4289C132.125 95.4369 133.463 95.1669 134.458 95.8299C135.45 96.4909 135.718 97.8319 135.057 98.8239C132.925 102.022 130.632 104.82 128.275 107.644C127.852 108.151 127.239 108.419 126.616 108.419Z" fill="white"/>
<path d="M146.671 163.102C146.51 163.102 146.347 163.084 146.183 163.047C145.021 162.779 144.297 161.619 144.565 160.458C145.957 154.429 148.196 148.67 150.362 143.102C151.73 139.585 153.144 135.949 154.296 132.352C154.661 131.216 155.879 130.591 157.01 130.953C158.146 131.317 158.772 132.532 158.409 133.667C157.218 137.391 155.778 141.09 154.387 144.667C152.276 150.093 150.094 155.703 148.773 161.426C148.541 162.427 147.653 163.102 146.671 163.102Z" fill="white"/>
</svg>
