<svg width="219" height="38" viewBox="0 0 219 38" fill="none" xmlns="http://www.w3.org/2000/svg">
<path d="M9.23249 36.7537C25.4347 23.893 53.6554 13.0635 92.1161 8.74134C112.387 6.46412 134.123 6.08025 154.962 7.5487C175.181 8.97242 191.62 12.8125 210.401 15.4637C217.735 16.4985 221.344 12.928 217.345 11.2049C188.372 -1.27941 124.447 -2.21987 85.0331 2.96816C44.4075 8.31645 11.4357 20.3622 0.162038 35.3884C-1.24065 37.2593 6.85872 38.6383 9.23249 36.7537Z" fill="#FEB402"/>
<path d="M51.3681 23.2632C77.1106 16.1085 101.276 10.1465 135.752 11.6982C138.254 11.8112 138.86 10.2633 136.35 10.1154C103.379 8.17985 68.6354 12.7331 49.2728 22.6867C48.333 23.17 50.2821 23.565 51.3681 23.2632Z" fill="#FEB402"/>
<path d="M149.643 12.3571C149.827 12.331 150.012 12.3049 150.196 12.2789C151.689 12.0677 152.438 11.4179 151.167 10.9644C149.897 10.511 148.077 10.7793 147.485 11.311C147.412 11.3769 147.339 11.4427 147.266 11.5086C146.75 11.9769 148.334 12.5422 149.643 12.3571Z" fill="#FEB402"/>
</svg>
