<svg width="185" height="17" viewBox="0 0 185 17" fill="none" xmlns="http://www.w3.org/2000/svg">
<path d="M7.79913 16.5939C21.4859 10.7874 45.3254 5.898 77.815 3.94661C94.9389 2.91848 113.301 2.74516 130.904 3.40815C147.984 4.05095 161.87 5.7847 177.736 6.98167C183.931 7.44891 186.98 5.83686 183.602 5.05889C159.127 -0.577639 105.127 -1.00225 71.8316 1.34009C37.5132 3.75478 9.66031 9.19331 0.136882 15.9775C-1.04803 16.8222 5.79389 17.4448 7.79913 16.5939Z" fill="#FEB402"/>
<path d="M43.3931 10.5031C65.1391 7.27285 85.5531 4.58107 114.676 5.28164C116.79 5.33269 117.302 4.63379 115.182 4.56704C87.329 3.69315 57.9796 5.74888 41.6231 10.2428C40.8292 10.461 42.4757 10.6394 43.3931 10.5031Z" fill="#FEB402"/>
<path d="M126.411 5.57906C126.566 5.56728 126.722 5.55551 126.878 5.54373C128.139 5.44837 128.772 5.15501 127.698 4.95028C126.625 4.74555 125.087 4.8667 124.588 5.10677C124.526 5.1365 124.464 5.16622 124.402 5.19595C123.967 5.40741 125.305 5.66263 126.411 5.57906Z" fill="#FEB402"/>
</svg>
