<svg width="214" height="23" viewBox="0 0 214 23" fill="none" xmlns="http://www.w3.org/2000/svg">
<path d="M9.0037 21.7753C24.8044 14.1557 52.3258 7.73963 89.8334 5.17893C109.602 3.82976 130.8 3.60233 151.122 4.47234C170.84 5.31584 186.871 7.59096 205.187 9.16168C212.339 9.77481 215.859 7.65941 211.959 6.63851C183.704 -0.758005 121.364 -1.31519 82.9259 1.75853C43.307 4.9272 11.1523 12.0639 0.158023 20.9664C-1.2099 22.0749 6.68875 22.8919 9.0037 21.7753Z" fill="#1E1E1E"/>
<path d="M50.095 13.7827C75.1997 9.5438 98.7666 6.01152 132.388 6.93084C134.828 6.99782 135.419 6.0807 132.972 5.99311C100.817 4.84635 66.9344 7.54397 48.0516 13.4412C47.1352 13.7275 49.036 13.9615 50.095 13.7827Z" fill="#1E1E1E"/>
<path d="M145.934 7.32108C146.114 7.30562 146.294 7.29017 146.474 7.27471C147.93 7.14959 148.66 6.76462 147.421 6.49597C146.182 6.22731 144.407 6.38629 143.83 6.70132C143.759 6.74033 143.687 6.77934 143.616 6.81835C143.114 7.09584 144.658 7.43075 145.934 7.32108Z" fill="#1E1E1E"/>
</svg>
