<svg width="161" height="158" viewBox="0 0 161 158" fill="none" xmlns="http://www.w3.org/2000/svg">
<path d="M86.5615 102.891C75.1436 102.787 63.749 103.396 52.3347 103.662C46.9065 103.787 41.4471 103.744 36.0394 104.225C32.7385 104.519 29.4501 104.596 26.2649 103.868C26.9372 104.002 27.6436 103.921 28.2868 103.507C29.6043 102.658 30.3835 100.696 29.3962 99.2753C29.1802 98.9639 28.9539 98.6926 28.7225 98.4336C29.7687 97.6224 30.5763 96.5252 30.9393 95.164C31.8102 91.9003 31.8619 88.729 33.2311 85.5453C34.382 82.8694 36.7014 80.956 37.6465 78.2467C38.1463 76.8141 37.1845 75.3976 35.9273 74.8069C37.3446 74.7021 38.633 73.8851 38.8615 72.2292C39.6428 66.5544 38.7967 60.6141 38.481 54.9015C38.1419 48.7655 37.8029 42.6302 37.4639 36.4942C37.143 30.6906 36.6941 24.9031 36.23 19.1097C35.7985 13.7245 35.6247 7.91734 32.8091 3.176C32.393 2.47538 31.154 2.3437 30.7749 3.176C28.6396 7.86132 28.8193 13.0174 28.9495 18.0875C29.1067 24.2279 29.2704 30.3603 29.5796 36.4949C29.872 42.2897 30.1638 48.0845 30.4563 53.8793C30.6287 57.3017 30.5952 60.8782 30.796 64.4053C30.537 66.6658 30.2831 68.9218 30.3755 71.1765C30.3908 71.1677 30.4061 71.159 30.4221 71.1496C30.4017 72.6599 31.4828 73.8473 32.8171 74.3849C30.2475 74.625 27.4879 76.0371 25.3104 77.6443C23.0376 77.8713 21.2442 78.0568 19.0885 79.621C16.468 81.5227 14.3734 84.1179 13.2617 87.1691C12.0758 90.4256 12.0111 94.1964 13.851 97.2193C15.696 100.25 19.5825 102.573 23.0958 101.243C23.202 101.203 23.3053 101.151 23.4094 101.103C23.568 101.549 23.7673 101.982 24.0561 102.398C24.4861 103.017 25.1176 103.497 25.8153 103.748C24.9379 103.526 24.0663 103.255 23.2071 102.893C22.7939 102.718 22.4563 103.277 22.6527 103.614C27.2035 111.413 39.3576 110.636 47.1495 111.128C60.2866 111.958 73.4077 113.187 86.563 113.593C93.4389 113.805 93.4629 102.954 86.5615 102.891Z" fill="#E0DFE6"/>
<path d="M135.775 89.0689C135.08 84.2432 134.28 78.5437 131.394 74.5204C130.646 73.4779 128.847 73.1541 128.173 74.5204C125.922 79.0828 125.979 85.0435 126.071 90.0409C126.15 94.2912 125.543 99.4021 127.516 103.234C121.113 103.31 112.327 102.802 106.865 106.438C104.059 99.5636 105.287 91.9849 109.49 85.9114C112.916 80.9613 118.764 78.4942 122.12 73.6721C122.316 73.3898 122.118 72.9548 121.797 72.8791C114.484 71.1432 106.611 78.3065 102.647 83.7099C97.0685 91.3155 95.3588 101.534 98.4574 110.476C100.299 115.791 107.012 114.081 107.508 109.667C113.215 112.995 122.04 112.359 128.23 112.496C129.766 112.53 131.534 111.61 132.233 110.199C132.948 108.758 133.095 107.828 132.682 106.596C133.767 106.374 134.787 105.703 135.508 104.707C138.585 100.459 136.476 93.9361 135.775 89.0689Z" fill="#E0DFE6"/>
<path d="M132.854 48.7517C132.088 43.2989 131.652 36.8347 128.365 32.2469C127.74 31.3738 126.108 31.0254 125.568 32.2469C123.292 37.3964 123.984 43.408 124.311 48.9089C124.592 53.6459 123.427 60.7917 128.346 63.293C129.608 63.9347 130.795 63.6989 131.855 62.8404C135.938 59.5338 133.481 53.2253 132.854 48.7517Z" fill="#E0DFE6"/>
<path d="M60.4533 49.499C59.8021 48.9991 58.8905 49.1978 58.2234 49.499C56.4555 50.2971 55.6173 52.3895 55.5722 54.2236C55.5431 55.4175 56.2757 57.6444 55.1161 58.4658C54.5755 58.8485 53.6232 58.7146 53.0098 58.7474C52.0742 58.7983 51.1554 58.9351 50.2379 59.1322C48.713 59.4596 46.9022 59.7608 46.0983 61.2254C45.8342 61.7063 45.8334 62.5153 46.3129 62.8907C47.7869 64.0438 50.6424 64.7459 52.4933 65.0442C55.1095 65.4662 57.8771 65.2923 60.0029 63.552C63.7257 60.5058 64.4438 52.5611 60.4533 49.499Z" fill="#E0DFE6"/>
<path d="M67.2547 83.0798C65.9597 79.5556 60.2289 78.7714 59.289 83.0798C58.8117 85.269 58.6967 86.9932 56.9718 88.4985C55.449 89.8277 53.3683 90.1435 51.8077 91.3992C51.0969 91.971 51.1733 93.0187 51.5051 93.7462C53.249 97.5759 59.5698 97.0223 62.4814 95.13C66.3053 92.6447 68.8888 87.5236 67.2547 83.0798Z" fill="#E0DFE6"/>
<path d="M88.0752 82.7583C87.63 80.1567 85.7566 77.4706 82.8137 77.8213C79.7421 78.1865 79.0014 81.4801 78.901 84.0424C78.8698 84.8354 78.8916 85.6146 78.7453 86.3909C78.6966 86.6499 78.6508 86.786 78.6348 86.8005C77.1048 88.2614 78.2092 87.2472 77.6933 87.5033C77.5944 87.5528 77.5442 87.5819 77.5231 87.6001C77.0022 87.6066 76.076 87.4771 75.4489 87.6983C74.1415 88.1596 73.5682 89.0792 73.3951 90.396C72.8014 94.9103 79.574 95.7259 82.4834 94.4869C86.8945 92.6099 88.8443 87.2538 88.0752 82.7583Z" fill="#E0DFE6"/>
<path d="M86.5041 46.8188C84.4649 41.3958 77.0869 43.5507 77.933 49.1818C78.5995 53.6169 76.98 56.6522 73.6159 59.4568C72.1171 60.706 73.5067 62.7133 75.0389 62.8922C82.8425 63.8046 89.0898 53.6947 86.5041 46.8188Z" fill="#E0DFE6"/>
<path d="M112.356 45.3936C109.756 41.748 104.11 42.9862 103.874 47.6912C103.738 50.4035 104.496 52.8072 102.973 55.3114C101.704 57.3972 99.4188 58.6544 97.3708 59.8236C96.393 60.3816 96.5101 61.6984 97.3708 62.2819C106.642 68.5649 118.399 53.8694 112.356 45.3936Z" fill="#E0DFE6"/>
<path d="M156.736 90.9066C156.497 90.7014 156.137 90.7189 155.965 91.0055C152.801 96.2882 153.798 104.257 151.672 110.149C149.87 115.14 146.684 118.938 143.701 122.96C139.488 125.769 134.965 128 129.839 129.208C124.166 130.546 118.965 130.26 113.609 129.838C113.616 129.028 113.412 128.209 112.924 127.422C112.87 127.335 112.816 127.248 112.763 127.162C111.164 124.584 108.219 123.896 105.539 124.981C105.014 122.991 103.55 121.178 101.452 120.797C101.398 120.787 101.337 120.778 101.278 120.768C101.257 120.756 101.249 120.751 101.217 120.733C101.136 120.642 100.934 120.551 100.813 120.484C100.783 120.456 100.757 120.432 100.719 120.399C100.398 120.116 100.073 119.833 99.7424 119.561C97.674 117.853 94.5398 116.212 91.9512 118.011C90.3477 119.125 89.5365 121.227 90.6351 123.029C90.6991 123.134 90.7748 123.238 90.8483 123.341C90.8941 123.437 90.9487 123.556 91.0243 123.735C91.1713 124.083 91.3204 124.407 91.487 124.741C91.5569 124.881 91.6049 124.975 91.6369 125.032C91.773 125.379 91.9097 125.723 92.0523 126.067C92.5936 127.372 93.0884 128.452 93.9468 129.563C94.9719 130.89 96.2575 131.654 97.7286 132.076C97.399 132.454 97.0731 132.82 96.75 133.165C93.7904 136.327 90.8919 139.555 87.8836 142.671C82.63 148.113 78.2707 151.401 71.0652 147.403C70.7821 147.245 70.3449 147.315 70.1921 147.632C66.0815 156.155 80.4947 159.133 85.9418 157.162C91.4252 155.178 95.3655 150.61 99.3626 146.575C102.458 143.45 106.049 140.359 109.163 137.068C115.361 140.671 125.704 139.503 131.523 138.159C141.212 135.922 151.856 130.196 154.577 120.043C155.755 117.836 156.728 115.544 157.522 113.358C159.704 107.349 162.492 95.8444 156.736 90.9066Z" fill="#E0DFE6"/>
<path d="M124.618 65.0354C123.784 65.0354 123.09 64.3806 123.05 63.5396C122.686 55.8837 122.509 48.8026 122.509 41.894C122.509 38.3669 122.557 34.874 122.652 31.4859C109.682 31.7056 96.5038 31.8162 83.454 31.8162C67.4832 31.8162 51.3472 31.6495 35.4956 31.3214C34.6284 31.3032 33.9402 30.5859 33.9584 29.7187C33.9758 28.8624 34.6757 28.1807 35.5284 28.1807C35.5393 28.1807 35.5502 28.1807 35.5618 28.1814C51.3923 28.5095 67.5057 28.6754 83.4547 28.6754C97.0392 28.6754 110.763 28.5546 124.245 28.3167C124.683 28.3189 125.09 28.479 125.392 28.7852C125.694 29.0923 125.857 29.5091 125.842 29.9391C125.715 33.8038 125.65 37.8256 125.65 41.8947C125.65 48.7539 125.826 55.7855 126.189 63.3912C126.229 64.2576 125.561 64.9939 124.694 65.0354C124.668 65.0347 124.643 65.0354 124.618 65.0354Z" fill="#525D7D"/>
<path d="M127.889 107.173C127.876 107.173 127.862 107.173 127.849 107.173C121.986 107.024 115.588 106.943 108.289 106.924C107.422 106.922 106.72 106.217 106.723 105.349C106.725 104.482 107.428 103.782 108.293 103.782C108.295 103.782 108.296 103.782 108.298 103.782C114.891 103.798 120.754 103.867 126.154 103.99C125.203 94.2008 124.507 86.1448 123.973 78.7574C123.911 77.8924 124.561 77.1401 125.427 77.0775C126.299 77.0266 127.044 77.6668 127.107 78.5312C127.671 86.3296 128.416 94.8825 129.452 105.448C129.496 105.897 129.346 106.342 129.039 106.671C128.742 106.992 128.325 107.173 127.889 107.173Z" fill="#525D7D"/>
<path d="M69.8411 107.024C46.341 107.024 32.0217 106.98 23.284 105.152C18.5142 104.156 15.2571 102.586 13.228 100.121C9.60777 98.3928 7.21345 95.4419 6.63579 91.973C5.1378 82.9872 4.57323 73.9513 4.02685 65.2136C3.48411 56.5239 2.92245 47.5388 1.44556 38.5421L1.35025 37.9645C0.771862 34.4527 0.173828 30.8215 0.173828 27.301C0.173828 12.0366 12.3287 2.66668 34.4 0.916963C34.8358 0.879859 35.2614 1.029 35.5822 1.3222C35.903 1.61467 36.0893 2.02718 36.0951 2.46225C36.3767 23.4902 38.018 44.8179 39.6055 65.4442C39.879 68.9946 40.1526 72.5478 40.4196 76.1048C40.4567 76.5951 40.2617 77.0738 39.8936 77.3998C39.5247 77.7257 39.0271 77.8603 38.5433 77.7621C36.7295 77.3969 34.8161 77.2113 32.8576 77.2113C23.6157 77.2113 13.6689 81.4441 13.6689 90.7377C13.6689 93.8115 14.1549 96.0654 15.3662 97.7635C15.4564 97.8566 15.5343 97.9606 15.599 98.0712C17.1654 100.033 19.8027 101.216 23.9278 102.078C32.5651 103.884 47.2751 103.899 71.6214 103.882H73.4635C78.7374 103.882 84.0106 103.856 89.2859 103.83L90.1262 103.825C90.1284 103.825 90.1313 103.825 90.1342 103.825C90.9985 103.825 91.7006 104.523 91.705 105.389C91.7093 106.256 91.0094 106.963 90.1415 106.967L89.3012 106.972C84.0207 106.999 78.7425 107.024 73.4635 107.024H71.6221C71.0226 107.024 70.4275 107.024 69.8411 107.024ZM32.9791 4.19887C21.1748 5.39858 3.31532 10.0657 3.31532 27.301C3.31532 30.5655 3.89226 34.0671 4.45028 37.4545L4.54558 38.0329C6.04867 47.1853 6.61542 56.2503 7.16325 65.0171C7.70454 73.6762 8.26401 82.6293 9.73509 91.4565C9.88787 92.3724 10.2313 93.2418 10.7427 94.0378C10.5965 93.0192 10.5266 91.9214 10.5266 90.7362C10.5266 77.7381 25.4222 72.8032 37.1362 74.3448C36.9172 71.4558 36.6953 68.5689 36.4734 65.6843C34.9245 45.5621 33.3247 24.7743 32.9791 4.19887Z" fill="#525D7D"/>
<path d="M20.0486 92.4381C19.2949 92.4381 18.6292 91.8939 18.5011 91.1256C18.3585 90.2693 18.9362 89.461 19.7925 89.3184C23.6892 88.6687 27.5 88.0859 31.2868 88.0859C32.1911 88.0859 33.07 88.1209 33.8994 88.19C34.7637 88.2613 35.4061 89.0208 35.3341 89.8851C35.2621 90.7494 34.5061 91.3948 33.6389 91.3198C32.8961 91.258 32.1046 91.2267 31.2868 91.2267C27.7401 91.2267 24.0697 91.7891 20.3083 92.4162C20.2217 92.4315 20.1344 92.4381 20.0486 92.4381Z" fill="#525D7D"/>
<path d="M52.2513 51.3475C50.2542 51.3475 48.3743 50.5683 46.9534 49.1518C45.5493 47.752 44.7432 45.8517 44.7432 43.939C44.7417 40.2147 47.6831 36.9758 51.4379 36.5647C51.702 36.5356 51.945 36.5043 52.2295 36.521C56.2855 36.521 59.6474 39.7258 59.7267 43.6691C59.7697 45.8051 59.0407 47.7513 57.6736 49.1503C56.295 50.561 54.3764 51.3416 52.2717 51.3482C52.2644 51.3475 52.2579 51.3475 52.2513 51.3475ZM52.2302 39.6625C52.0964 39.6465 51.9297 39.6713 51.7784 39.688C49.63 39.923 47.8832 41.8291 47.8839 43.9383C47.8847 45.023 48.3532 46.1121 49.1709 46.9277C49.9981 47.7527 51.0916 48.2067 52.2499 48.2067C52.2542 48.2067 52.2579 48.2067 52.2622 48.2067C53.5172 48.2031 54.6413 47.7585 55.4263 46.9553C56.2106 46.1529 56.6114 45.0383 56.5852 43.7338C56.5365 41.2966 54.295 39.6625 52.2302 39.6625Z" fill="#525D7D"/>
<path d="M46.3175 62.0075C45.9813 62.0075 45.6496 61.8998 45.3753 61.6932C44.9963 61.4087 44.7656 60.9678 44.7482 60.4949C44.7213 59.7587 44.6943 59.0115 44.6943 58.2687C44.6943 54.978 45.2225 50.9155 49.3396 48.6987C50.1028 48.2869 51.0559 48.5736 51.467 49.3375C51.878 50.1006 51.5921 51.0537 50.8282 51.4648C48.3444 52.8027 47.8351 55.1519 47.8351 58.2687C47.8351 58.3436 47.8358 58.4193 47.8358 58.4942C50.5335 57.9791 53.216 57.7863 55.8365 57.627C55.432 54.9744 54.5983 52.9133 53.3498 51.4873C52.7787 50.8347 52.8449 49.8416 53.4975 49.2705C54.1501 48.6987 55.1417 48.7656 55.7143 49.4182C57.6546 51.6357 58.8121 54.8485 59.1526 58.9657C59.1876 59.3869 59.0515 59.8045 58.775 60.1239C58.4986 60.4433 58.105 60.6375 57.683 60.663L56.8529 60.7132C53.3491 60.9213 50.0381 61.1184 46.7001 61.9595C46.5743 61.9915 46.4455 62.0075 46.3175 62.0075Z" fill="#525D7D"/>
<path d="M74.7444 51.1626C74.5748 51.1626 74.4061 51.1568 74.2358 51.1459C71.0026 50.9371 67.5098 47.9607 67.4625 43.8618C67.4224 40.3369 69.5767 37.3918 72.8244 36.5333C73.4741 36.3616 74.1398 36.27 74.8033 36.262C74.8317 36.262 74.8608 36.2612 74.8899 36.2612C78.182 36.2612 81.8349 38.4096 82.3085 42.0502C82.6447 44.6366 81.9229 47.0287 80.2758 48.7857C78.8455 50.3121 76.852 51.1626 74.7444 51.1626ZM74.8899 39.4042C74.8731 39.4042 74.8564 39.4042 74.8389 39.4049C74.4352 39.4093 74.0277 39.4653 73.6283 39.5715C71.5119 40.1303 70.5836 42.1113 70.604 43.8269C70.6316 46.2677 72.8557 47.9091 74.4381 48.0109C75.7956 48.1033 77.0841 47.5984 77.9833 46.6388C78.9764 45.5795 79.4057 44.0946 79.1932 42.4569C78.9539 40.6199 76.7865 39.4042 74.8899 39.4042Z" fill="#525D7D"/>
<path d="M69.298 61.0225C68.5559 61.0225 67.8968 60.495 67.7557 59.7398C67.6152 58.989 67.5439 58.2171 67.5439 57.4466C67.5439 53.4663 69.3475 50.1873 72.369 48.6769C73.1438 48.2899 74.0888 48.6042 74.4766 49.3797C74.8644 50.156 74.5494 51.0996 73.7738 51.4874C71.8393 52.4543 70.6847 54.682 70.6847 57.4466C70.6847 57.5114 70.6854 57.5761 70.6869 57.6402C73.477 57.2517 76.2831 57.1171 78.8477 57.0683C78.4664 54.5882 77.3016 52.5656 75.5366 51.3885C74.8149 50.9076 74.6199 49.9319 75.1008 49.2102C75.581 48.4885 76.5552 48.2921 77.2791 48.7744C80.2744 50.7715 82.0393 54.3481 82.1216 58.586C82.1296 59.0057 81.9695 59.411 81.677 59.7122C81.3838 60.0126 80.983 60.1843 80.5632 60.1873C77.2165 60.2127 73.2944 60.3291 69.5752 60.9963C69.4836 61.0137 69.3897 61.0225 69.298 61.0225Z" fill="#525D7D"/>
<path d="M98.1861 52.2905C98.0952 52.2905 98.0042 52.289 97.9126 52.2861C94.6038 52.1719 91.009 49.6866 90.7216 45.7274C90.563 43.5462 91.3786 41.3542 92.9588 39.7128C94.5019 38.1094 96.6037 37.2138 98.7187 37.3032C101.873 37.4087 104.702 39.4502 105.598 42.2687C105.778 42.8391 105.889 43.4393 105.928 44.054C106.063 46.1952 105.25 48.3392 103.698 49.9362C102.215 51.4611 100.268 52.2905 98.1861 52.2905ZM98.475 40.4404C97.2927 40.4404 96.1141 40.9642 95.2222 41.8911C94.2596 42.8914 93.7605 44.2068 93.8551 45.5004C94.0312 47.9216 96.3971 49.09 98.0217 49.1468C99.2993 49.1897 100.524 48.6943 101.444 47.747C102.38 46.7837 102.871 45.5106 102.791 44.2512C102.769 43.8903 102.706 43.5433 102.603 43.2181C102.119 41.6961 100.403 40.5022 98.6125 40.4426H98.611C98.5659 40.4404 98.5208 40.4404 98.475 40.4404Z" fill="#525D7D"/>
<path d="M91.2606 60.8846C90.9485 60.8846 90.64 60.7915 90.3774 60.6126C90.0085 60.3623 89.7641 59.9665 89.7044 59.5242C89.6389 59.0418 89.6055 58.55 89.6055 58.0625C89.6055 54.0713 91.7386 50.5224 95.0394 49.0215C95.8303 48.6635 96.7608 49.0127 97.1194 49.8014C97.4781 50.5915 97.1289 51.5227 96.3395 51.8814C94.3388 52.7908 92.987 54.905 92.7761 57.3794C95.9874 56.7784 99.2169 56.6184 102.377 56.5114C101.878 54.3463 100.936 52.7348 99.5669 51.7083C98.8728 51.1881 98.7317 50.203 99.2526 49.5089C99.7742 48.8148 100.759 48.6752 101.452 49.1946C103.84 50.9858 105.338 53.976 105.785 57.8428C105.835 58.2786 105.701 58.7159 105.414 59.0484C105.127 59.3816 104.714 59.578 104.275 59.5925L103.689 59.6115C99.6913 59.7395 95.5567 59.8719 91.6367 60.8381C91.5123 60.8701 91.3865 60.8846 91.2606 60.8846Z" fill="#525D7D"/>
<path d="M53.1887 82.1854C53.0606 82.1854 52.9318 82.1825 52.8023 82.1759C49.2905 82.005 46.4815 79.2265 46.2683 75.714C46.085 72.6918 47.7882 69.7766 50.507 68.4604C51.3786 68.0385 52.304 67.818 53.2578 67.8071C56.5739 67.7773 60.4204 70.5667 60.5418 74.6634C60.6015 76.686 59.7961 78.6699 58.3323 80.1061C56.9573 81.4549 55.1428 82.1854 53.1887 82.1854ZM53.3407 70.9479C53.3262 70.9479 53.3123 70.9479 53.2978 70.9486C52.8067 70.9544 52.3302 71.0687 51.8776 71.2869L51.8769 71.2877C50.3156 72.0436 49.2985 73.7853 49.4033 75.5241C49.5197 77.4346 51.0461 78.9457 52.9551 79.0388C54.1585 79.0897 55.2985 78.6801 56.1323 77.8631C56.9726 77.0388 57.4353 75.9068 57.4011 74.7565C57.3378 72.563 55.2141 70.9479 53.3407 70.9479Z" fill="#525D7D"/>
<path d="M47.8766 92.483C47.4801 92.483 47.0967 92.3332 46.8057 92.0611C46.49 91.7671 46.3095 91.3561 46.3059 90.9247L46.3037 90.3201C46.3037 87.156 46.3037 79.7461 52.8566 78.9276C53.3884 78.8629 53.8948 79.0695 54.2273 79.4442C54.3713 79.1379 54.6151 78.8767 54.941 78.7123C55.304 78.5289 55.6955 78.4365 56.1051 78.4365C59.9413 78.4365 61.7085 86.3412 61.7631 90.3732C61.774 91.2055 61.1352 91.9017 60.3051 91.9614C58.076 92.1229 55.8264 92.1884 53.6511 92.2524C51.7864 92.3077 49.8577 92.3644 47.9741 92.4801C47.9407 92.4816 47.9087 92.483 47.8766 92.483ZM54.471 81.1575C54.2484 81.6268 53.7988 81.9753 53.2458 82.0444C50.7257 82.3594 49.5994 84.4692 49.4598 89.255C50.8384 89.1917 52.2142 89.1509 53.5572 89.1116C55.1927 89.0636 56.8704 89.0149 58.5343 88.9239C58.1829 85.4252 56.8624 82.2146 56.0854 81.6231C55.5012 81.7941 54.8697 81.6086 54.471 81.1575Z" fill="#525D7D"/>
<path d="M76.2039 81.3699C76.1254 81.3699 76.0461 81.3684 75.9668 81.3662C73.0268 81.276 68.8595 78.7849 68.6798 74.3411C68.5226 70.4117 71.5019 66.8985 75.4648 66.3419C75.9704 66.2699 76.4804 66.2495 76.9758 66.2735C79.8234 66.419 82.6928 68.3637 83.368 70.6082C83.4138 70.7595 83.4676 70.9115 83.5222 71.0665C83.6823 71.5234 83.8641 72.0407 83.9303 72.6314C84.1741 74.7711 83.333 77.18 81.7361 78.9159C80.2745 80.5041 78.3174 81.3699 76.2039 81.3699ZM76.5735 69.4048C76.3523 69.4048 76.129 69.4208 75.9042 69.4521C75.9042 69.4521 75.9027 69.4528 75.9013 69.4528C73.5579 69.7817 71.7267 71.9177 71.8191 74.2146C71.9231 76.8017 74.5953 78.1811 76.0628 78.2255C77.6757 78.2727 78.7947 77.4717 79.424 76.7878C80.3916 75.7366 80.9482 74.2087 80.8092 72.9865C80.7823 72.7464 80.6724 72.4357 80.5575 72.1062C80.4877 71.9061 80.4185 71.7075 80.3596 71.5118C80.0955 70.6336 78.4069 69.4914 76.8129 69.4099C76.7336 69.407 76.6535 69.4048 76.5735 69.4048Z" fill="#525D7D"/>
<path d="M70.2741 91.877C69.9328 91.877 69.5982 91.7657 69.3224 91.5562C68.9754 91.2921 68.7535 90.8949 68.7106 90.4612C68.6284 89.6311 68.5869 88.8243 68.5869 88.0655C68.5869 81.554 71.5974 79.3271 74.1227 78.6053C74.9557 78.3696 75.8259 78.8505 76.0645 79.6843C76.3024 80.5188 75.8193 81.3882 74.9856 81.6261C74.1795 81.856 71.7277 82.5566 71.7277 88.0655C71.7277 88.2044 71.7291 88.3463 71.7328 88.4896C74.8459 88.0517 77.9597 87.8625 81.0081 87.7126C80.7251 84.9436 80.1955 82.366 78.1598 81.071C77.4279 80.6053 77.2118 79.6341 77.6775 78.9022C78.1431 78.1703 79.1136 77.9549 79.8462 78.4198C83.5894 80.8018 83.9714 85.343 84.2776 88.9909C84.3133 89.4158 84.178 89.8778 83.8964 90.1986C83.6156 90.5194 83.2191 90.7523 82.7927 90.7726C78.7047 90.9647 74.5643 91.1597 70.5396 91.8552C70.4523 91.869 70.3635 91.877 70.2741 91.877Z" fill="#525D7D"/>
<path d="M123.957 132.228C114.414 132.228 105.202 128.633 98.5432 122.278C92.0471 116.078 88.3708 107.709 88.1918 98.7106C87.8252 80.67 101.364 64.9298 119.012 62.8788L119.013 62.8781C119.738 62.7945 120.494 62.7392 121.327 62.7101C130.942 62.3878 140.894 66.259 147.976 73.1C152.681 77.6449 158.29 85.5619 158.288 97.4709C158.285 114.108 145.825 131.653 124.98 132.214C124.638 132.224 124.298 132.228 123.957 132.228ZM119.375 65.9985C103.317 67.8654 90.9987 82.2065 91.3326 98.6474C91.4949 106.803 94.8262 114.388 100.712 120.006C107.007 126.013 115.817 129.323 124.895 129.074C143.826 128.564 155.142 112.605 155.145 97.4702C155.147 86.6641 150.059 79.4819 145.792 75.3597C139.31 69.0985 130.216 65.5343 121.435 65.8494C120.689 65.8763 120.016 65.9243 119.375 65.9985Z" fill="#525D7D"/>
<path d="M123.797 124.875C116.279 124.875 109.021 122.042 103.773 117.034C98.6474 112.143 95.7475 105.539 95.6063 98.4408C95.3175 84.2182 105.992 71.8094 119.907 70.1921L119.908 70.1913C120.484 70.1251 121.082 70.0822 121.736 70.0589C129.289 69.7825 137.157 72.8549 142.737 78.2452C148.059 83.3859 150.872 90.0334 150.871 97.4681C150.868 110.588 141.042 124.422 124.602 124.864C124.334 124.871 124.065 124.875 123.797 124.875ZM120.27 73.3117C107.945 74.745 98.4903 85.7548 98.7463 98.3775C98.8708 104.634 101.426 110.452 105.941 114.76C110.775 119.374 117.555 121.919 124.518 121.723C139.044 121.333 147.728 109.083 147.73 97.4673C147.731 89.1764 143.828 83.6667 140.554 80.5049C135.574 75.6944 128.573 72.9676 121.846 73.1983C121.317 73.2172 120.791 73.2521 120.27 73.3117Z" fill="#525D7D"/>
<path d="M76.7814 152.299C72.7589 152.299 68.6992 149.735 68.6992 144.008C68.6992 138.816 76.2845 131.903 84.315 124.584C87.861 121.352 91.2106 118.3 93.3917 115.791C93.9607 115.137 94.953 115.067 95.6078 115.637C96.2626 116.206 96.331 117.198 95.762 117.853C93.4609 120.499 90.0465 123.611 86.4307 126.906C79.9302 132.831 71.84 140.203 71.84 144.008C71.84 148.656 75.295 149.157 76.7807 149.157C83.8763 149.157 95.0396 135.293 100.404 128.63C101.507 127.259 102.379 126.177 103.035 125.427C103.606 124.773 104.598 124.708 105.252 125.28C105.905 125.851 105.971 126.843 105.4 127.496C104.786 128.198 103.889 129.311 102.851 130.601C96.7457 138.184 85.3809 152.299 76.7814 152.299Z" fill="#525D7D"/>
<path d="M98.2844 133.595C97.9475 133.595 97.6078 133.487 97.3211 133.264C95.9206 132.175 94.7246 130.869 93.5685 129.606C91.8355 127.714 90.1978 125.926 87.9949 124.925C87.2048 124.567 86.8556 123.635 87.2142 122.845C87.5744 122.056 88.5049 121.708 89.2943 122.065C92.0807 123.332 94.0145 125.443 95.8843 127.484C97.0017 128.704 98.0574 129.857 99.2491 130.783C99.9337 131.316 100.057 132.303 99.5248 132.988C99.2156 133.386 98.7522 133.595 98.2844 133.595Z" fill="#525D7D"/>
<path d="M106.072 100.595C105.204 100.595 104.501 99.8923 104.501 99.0243C104.501 93.6348 106.529 86.4722 112.222 82.5311C112.936 82.0379 113.914 82.2154 114.409 82.9284C114.903 83.6414 114.724 84.6206 114.011 85.1146C109.311 88.3689 107.642 94.6417 107.642 99.0243C107.642 99.8916 106.94 100.595 106.072 100.595Z" fill="#525D7D"/>
</svg>
