<svg width="76" height="77" viewBox="0 0 76 77" fill="none" xmlns="http://www.w3.org/2000/svg">
<path opacity="0.4" d="M6.6499 69.6787V19.1071C6.6499 12.7421 9.81673 9.5437 16.1184 9.5437H35.8467C42.1483 9.5437 45.2833 12.7421 45.2833 19.1071V69.6787" fill="white"/>
<path d="M34.0417 28.512H18.3667C17.0684 28.512 15.9917 27.4353 15.9917 26.137C15.9917 24.8386 17.0684 23.762 18.3667 23.762H34.0417C35.3401 23.762 36.4167 24.8386 36.4167 26.137C36.4167 27.4353 35.3401 28.512 34.0417 28.512Z" fill="white"/>
<path d="M34.0417 40.387H18.3667C17.0684 40.387 15.9917 39.3103 15.9917 38.012C15.9917 36.7136 17.0684 35.637 18.3667 35.637H34.0417C35.3401 35.637 36.4167 36.7136 36.4167 38.012C36.4167 39.3103 35.3401 40.387 34.0417 40.387Z" fill="white"/>
<path d="M26.125 72.0537C24.8267 72.0537 23.75 70.977 23.75 69.6787V57.8037C23.75 56.5054 24.8267 55.4287 26.125 55.4287C27.4233 55.4287 28.5 56.5054 28.5 57.8037V69.6787C28.5 70.977 27.4233 72.0537 26.125 72.0537Z" fill="white"/>
<path d="M72.8334 67.3036H65.645V57.8036C68.6534 56.8219 70.8384 54.0036 70.8384 50.6786V44.3453C70.8384 40.1969 67.4501 36.8086 63.3017 36.8086C59.1534 36.8086 55.765 40.1969 55.765 44.3453V50.6786C55.765 53.9719 57.9183 56.7586 60.8633 57.7719V67.3036H3.16675C1.86841 67.3036 0.791748 68.3803 0.791748 69.6786C0.791748 70.9769 1.86841 72.0536 3.16675 72.0536H63.1117C63.1751 72.0536 63.2067 72.0853 63.27 72.0853C63.3334 72.0853 63.3652 72.0536 63.4285 72.0536H72.8334C74.1317 72.0536 75.2084 70.9769 75.2084 69.6786C75.2084 68.3803 74.1317 67.3036 72.8334 67.3036Z" fill="white"/>
</svg>
