<svg width="86" height="90" viewBox="0 0 86 90" fill="none" xmlns="http://www.w3.org/2000/svg">
<g clip-path="url(#clip0_2456_12361)">
<path d="M21.3683 79.0037C20.0128 79.0633 18.7403 79.5698 17.3802 79.5758C16.0311 79.5818 14.7928 79.1348 13.5453 78.6736C12.4808 78.2799 11.7168 79.7807 12.4687 80.5096C13.5717 81.5795 14.9475 82.2236 16.4638 82.4954C18.1903 82.8048 19.6636 82.4418 21.3688 82.2364C23.3889 81.993 23.5136 78.9097 21.3683 79.0037Z" fill="#E0DFE6"/>
<path d="M84.7322 39.315C78.7243 44.4193 73.5459 50.611 68.6221 56.8357C68.387 50.9787 67.9076 45.1111 67.4923 39.2746C67.1981 35.1384 67.0508 30.8881 66.6005 26.701C66.6467 26.568 66.6786 26.4232 66.6795 26.2572C66.7016 21.1519 66.6744 15.1986 64.954 10.3322C64.6972 9.60604 63.676 9.74265 63.6187 10.5114C63.3495 14.1273 63.6446 17.872 63.8612 21.5769C63.4137 27.6499 64.0326 33.8989 64.3129 39.9402C64.6284 46.7338 64.8634 53.582 65.5165 60.3535C65.1036 60.5695 64.8099 60.9811 64.8427 61.5968C64.844 61.621 64.8464 61.6476 64.8477 61.6719C64.282 62.5287 64.5147 63.4033 65.0727 63.9333C65.3447 66.2821 65.6287 68.9514 64.6875 70.72C64.4219 71.2187 64.1078 71.7078 63.7735 72.1919C63.7905 71.0014 62.1486 70.2198 61.242 71.1614C60.5982 71.8298 59.6777 72.4945 59.2066 73.276C59.1618 73.3503 59.0888 73.524 59.0126 73.7225C58.9392 73.0661 57.9365 72.7117 57.4252 73.2146C56.1177 74.5005 55.9916 75.9884 57.5869 77.0533C57.9767 77.3137 58.5036 77.2619 58.8981 77.0533C59.0708 76.9621 59.2366 76.8594 59.402 76.7554C59.3119 77.1991 59.2269 77.6442 59.1641 78.0994C59.1549 78.165 59.1539 78.2319 59.1544 78.2988C58.5032 79.0671 57.8367 79.7245 57.1943 80.0275C56.6433 80.2874 55.9246 80.2993 55.1501 80.2017C55.6383 80.1705 56.1251 80.1324 56.6063 80.0811C58.5032 79.8794 58.5799 76.9557 56.6063 77.0772C52.312 77.3417 48.2781 76.9878 44.1075 76.4799C48.8443 70.1946 52.9609 62.3825 52.7466 54.9058C52.736 54.5267 52.3004 54.3195 52.0076 54.4878C51.8806 53.8675 50.8211 53.5476 50.4959 54.2421C50.2766 54.7106 50.0572 55.1795 49.8378 55.648C49.6226 56.1073 49.7422 56.6423 50.247 56.8532C50.4063 56.9201 50.5597 56.932 50.7028 56.9095C50.4571 57.434 50.2174 57.9616 49.9856 58.4929C50.2886 56.8224 47.9141 55.532 47.1022 57.2763C46.7018 58.1362 46.2732 58.9733 45.8413 59.808C43.678 63.7338 40.7452 67.1357 37.8248 70.5737C34.3586 74.6545 31.06 78.8737 27.4533 82.8233C26.9231 83.4041 27.4427 84.2897 28.2135 84.1197C29.3871 83.8611 30.3487 83.2514 31.2147 82.4965C31.6572 82.5822 32.1426 82.4932 32.5744 82.1215C39.3402 76.2974 44.7929 69.0106 48.8018 61.0746C48.9626 60.7739 49.1177 60.4691 49.2706 60.1624C48.3007 62.4732 47.3562 64.801 46.1498 67.0023C44.0821 70.7745 41.6513 74.2722 38.8543 77.5282C38.4557 77.5947 38.0886 77.8409 37.8581 78.3424C37.7426 78.5936 37.6272 78.8443 37.5122 79.0955C37.3057 79.5448 37.3145 80.0188 37.4577 80.4419C37.2341 80.5175 37.005 80.5798 36.7852 80.6633C35.8481 81.019 35.9312 82.4451 37.0309 82.4644C37.7883 82.4777 38.5453 82.468 39.3023 82.4497C39.1989 82.5886 39.1554 82.7742 39.2344 83.0057C39.6917 84.3507 40.8398 85.4591 42.2702 85.7103C42.0656 85.9075 41.8642 86.0743 41.6707 86.1683C40.7992 86.5928 40.0648 85.698 39.1813 85.0947C37.7108 84.0908 36.2508 83.1552 34.614 82.4451C33.912 82.1407 33.3466 82.8751 33.815 83.4733C35.1303 85.1538 36.7201 86.5171 38.3352 87.907C39.2233 88.6712 40.4995 90.1496 41.8532 89.9877C42.9173 89.8608 43.4216 88.9852 44.0341 88.2311C45.4654 86.4686 47.0842 85.0392 48.9792 83.774C49.3704 83.5127 49.6475 83.0873 49.745 82.6354C51.7199 82.893 53.6689 83.2519 55.6738 83.5389C59.7322 84.1197 62.0396 79.8991 64.3175 77.063C64.5632 76.7572 64.6838 76.4281 64.7106 76.1063C65.9627 74.6348 67.1473 73.1028 67.8184 71.5208C68.774 69.2687 68.2396 65.9548 67.951 63.231C73.8628 55.5407 80.4484 48.2232 85.8757 40.1891C86.3602 39.4708 85.3256 38.8107 84.7322 39.315ZM44.7075 79.1657C43.7182 79.2111 42.7302 79.294 41.7548 79.4315C42.0282 79.1079 42.3007 78.7733 42.5732 78.4382C43.2706 78.7128 43.9823 78.9562 44.7075 79.1657ZM44.4617 83.1653C44.1463 83.4454 43.7925 83.8928 43.4249 84.3608C43.2711 84.028 42.9459 83.7759 42.5473 83.7942C41.7146 83.8327 40.8888 83.438 40.5581 82.6431C40.5198 82.5515 40.4667 82.4781 40.4066 82.4149C42.1063 82.358 43.8054 82.2828 45.5079 82.3117C45.1536 82.5891 44.7989 82.8655 44.4617 83.1653Z" fill="#E0DFE6"/>
<path d="M34.4284 37.7009C34.2483 36.2239 33.7472 34.8299 32.9486 33.6201C32.4096 32.4264 31.8055 31.2616 31.1839 30.1477C30.7492 29.3684 29.6981 29.1401 28.9378 29.5632C27.4691 30.381 25.9533 30.9701 24.3216 31.3771C22.687 31.7847 22.8441 34.0313 24.3216 34.5117C26.4415 35.2016 27.5915 36.6745 28.5199 38.5993C29.1295 39.8641 30.8656 39.479 31.4042 38.4522C31.4139 38.4751 31.4231 38.4976 31.4328 38.5205C32.0383 39.9663 34.6372 40.0163 34.4843 38.1107C34.4732 37.9722 34.445 37.8379 34.4284 37.7009ZM28.688 33.3093C28.8104 33.2557 28.9346 33.2053 29.0561 33.1493C29.2076 33.4528 29.354 33.7586 29.4976 34.0643C29.2422 33.7975 28.9729 33.5459 28.688 33.3093Z" fill="#E0DFE6"/>
<path d="M38.144 34.415C38.0863 31.0686 37.7704 27.7222 37.205 24.4235C36.8633 22.429 33.9138 23.3105 34.1817 25.2505C34.5198 27.6989 34.8177 30.1422 34.9456 32.6111C35.0403 34.4393 35.8818 38.3609 33.8602 39.4194C32.223 40.2766 28.7013 39.8897 26.8525 39.98C24.1963 40.1098 21.5415 40.234 18.8863 40.377C17.9044 40.4297 17.928 41.7839 18.8863 41.8746C22.6468 42.2304 26.3869 42.51 30.1686 42.4458C32.223 42.411 35.3544 42.7328 36.9815 41.1004C38.6146 39.4611 38.18 36.5026 38.144 34.415Z" fill="#E0DFE6"/>
<path d="M57.398 80.7458C54.4726 80.7385 51.4954 80.5726 48.6162 80.4121C45.7222 80.2508 42.7294 80.0839 39.8455 80.0839C39.295 80.0839 38.8484 79.6411 38.8484 79.0942C38.8484 78.5473 39.295 78.1045 39.8455 78.1045C42.7852 78.1045 45.8067 78.2732 48.7284 78.4359C51.4234 78.5863 54.2047 78.7412 56.9228 78.7641C59.341 75.8125 62.0425 73.2238 64.2192 71.2325C64.0589 65.7174 63.846 60.1189 63.64 54.7001C63.216 43.5287 62.7773 31.9768 62.7773 20.6047C62.7773 17.2377 62.8161 13.9495 62.8941 10.8149C59.1711 10.7883 55.2291 10.7755 50.5893 10.7755C46.1573 10.7755 41.7276 10.7869 37.2979 10.7989C32.8664 10.8108 28.4348 10.8222 24.001 10.8222C19.7357 10.8222 15.9268 10.8112 12.3945 10.7879C12.225 15.1964 12.1427 19.78 12.1427 24.7656C12.1427 35.5464 12.5418 46.5202 12.9274 57.1328C13.1639 63.6248 13.4073 70.3281 13.5579 76.9397C15.4709 76.942 17.3756 77.0717 19.3782 77.3367C19.9241 77.4086 20.308 77.9065 20.235 78.4483C20.162 78.9901 19.6558 79.3683 19.1145 79.2986C16.8676 79.0011 14.7518 78.8801 12.6055 78.9292C12.3723 78.9411 12.085 78.8366 11.8933 78.655C11.7017 78.4735 11.5913 78.2237 11.5857 77.9605C11.4375 71.0469 11.1821 64.0099 10.9345 57.2039C10.5484 46.5734 10.1484 35.5817 10.1484 24.7652C10.1484 19.3908 10.244 14.479 10.4399 9.75003C10.462 9.21919 10.9022 8.80067 11.4366 8.80067C15.2423 8.82817 19.3496 8.84192 24.0014 8.84192C28.4334 8.84192 32.8631 8.83046 37.2924 8.81854C41.7239 8.80663 46.1554 8.79517 50.5893 8.79517C55.6582 8.79517 59.8957 8.80983 63.9255 8.84238C64.1933 8.84467 64.4492 8.95377 64.6349 9.14493C64.821 9.33609 64.9217 9.59371 64.9138 9.85913C64.8196 13.2766 64.7716 16.8916 64.7716 20.6037C64.7716 31.9388 65.2099 43.4714 65.633 54.6249C65.8445 60.1964 66.0634 65.9576 66.2251 71.6272C66.2334 71.9142 66.1151 72.191 65.9022 72.3849C63.6359 74.4459 60.71 77.2161 58.1781 80.3722C57.9887 80.6083 57.7019 80.7458 57.398 80.7458Z" fill="#525D7D"/>
<path d="M56.8873 79.9449C56.3594 79.9449 55.9188 79.5333 55.892 79.0043C55.8038 77.2431 55.7031 75.2476 55.7031 73.2765C55.7031 72.483 55.7202 71.7151 55.7539 70.9945C55.7766 70.4944 56.1728 70.0896 56.6758 70.053C57.8074 69.97 59.0114 69.9292 60.3573 69.9292C62.1959 69.9292 64.0531 70.0062 65.6927 70.0741C66.2432 70.0965 66.6704 70.5581 66.6478 71.1041C66.6252 71.651 66.1642 72.075 65.6095 72.0516C63.1363 71.9489 60.1009 71.849 57.7141 71.9714C57.7034 72.395 57.6979 72.8314 57.6979 73.2765C57.6979 75.1981 57.7972 77.1679 57.884 78.9057C57.9113 79.4517 57.4882 79.9165 56.9381 79.9436C56.9206 79.9445 56.9044 79.9449 56.8873 79.9449Z" fill="#525D7D"/>
<path d="M16.9087 41.0325C16.6611 41.0325 16.4219 40.9408 16.2376 40.7744C16.0339 40.5902 15.9157 40.3298 15.9115 40.0561C15.8155 32.9526 15.8076 25.8441 15.8076 17.9549C15.8076 17.6858 15.918 17.4287 16.1134 17.2416C16.3087 17.0551 16.5757 16.962 16.8431 16.9657C18.9159 17.045 21.0151 17.1926 23.0449 17.3356C26.0142 17.5447 29.0851 17.761 32.0877 17.761C33.3998 17.761 34.6057 17.7216 35.7752 17.6395C36.0537 17.6185 36.3368 17.7202 36.5405 17.9169C36.7437 18.1135 36.8536 18.3867 36.8416 18.6682C36.7474 20.891 36.7021 23.1821 36.7021 25.6731C36.7021 30.3727 36.8702 35.1553 37.043 39.6509C37.0638 40.1936 36.6407 40.6511 36.0943 40.6773C33.9541 40.779 31.8452 40.7923 30.2481 40.7923C29.3738 40.7923 28.5 40.7877 27.6252 40.7831C26.7541 40.779 25.8821 40.7744 25.0102 40.7744C22.627 40.7744 19.8101 40.8047 16.9881 41.0298C16.9618 41.0316 16.935 41.0325 16.9087 41.0325ZM17.8019 18.9886C17.8024 26.0756 17.813 32.5474 17.892 38.9798C20.4179 38.8184 22.8851 38.7946 25.0106 38.7946C25.8858 38.7946 26.7611 38.7992 27.6354 38.8037C28.5064 38.8079 29.377 38.8125 30.2486 38.8125C31.5764 38.8125 33.2603 38.8033 35.0126 38.7405C34.8538 34.5158 34.7083 30.0638 34.7083 25.6727C34.7083 23.5599 34.7406 21.5878 34.8071 19.6785C33.937 19.7198 33.0387 19.74 32.0881 19.74C29.0149 19.74 25.9085 19.5213 22.9045 19.31C21.2298 19.1922 19.5076 19.0707 17.8019 18.9886Z" fill="#525D7D"/>
<path d="M26.3146 32.3305C26.2495 32.3305 26.1839 32.3291 26.1183 32.3264C23.6903 32.2297 21.8743 30.6418 21.6004 28.3754C21.4162 26.8535 21.8937 25.2701 22.8779 24.1415C23.7578 23.1326 24.9646 22.5596 26.2763 22.5279C26.3654 22.5257 26.4527 22.5257 26.5409 22.5293C28.4604 22.5898 30.131 23.563 30.8995 25.0689C31.1545 25.569 31.3152 26.1452 31.3743 26.7824C31.5036 28.1668 30.948 29.6548 29.8876 30.7632C28.9177 31.7781 27.6549 32.3305 26.3146 32.3305ZM26.3876 24.506C26.3664 24.506 26.3447 24.5064 26.3239 24.5064C25.3729 24.5293 24.7448 25.0249 24.3859 25.4361C23.7633 26.1507 23.4622 27.1611 23.58 28.1388C23.7379 29.4435 24.7406 30.2902 26.1982 30.3479C27.0268 30.3901 27.8254 30.0444 28.441 29.3999C29.0918 28.7206 29.4631 27.7648 29.3888 26.9644C29.3523 26.5826 29.2604 26.2365 29.1209 25.9632C28.6812 25.1024 27.6688 24.5445 26.4772 24.5064C26.4476 24.5064 26.4176 24.506 26.3876 24.506Z" fill="#525D7D"/>
<path d="M20.0506 40.4838C19.5227 40.4838 19.0821 40.0726 19.0553 39.5441C19.0456 39.3483 19.0405 39.1521 19.0405 38.9559C19.0405 35.2827 20.6718 32.0422 23.4046 30.2879C23.8665 29.9909 24.4845 30.122 24.7837 30.5813C25.0826 31.0406 24.9505 31.6531 24.4877 31.9501C22.3585 33.3175 21.0353 36.0024 21.0353 38.9564C21.0353 39.1196 21.039 39.2823 21.0478 39.4446C21.0755 39.9906 20.652 40.4558 20.1019 40.4829C20.0843 40.4834 20.0672 40.4838 20.0506 40.4838Z" fill="#525D7D"/>
<path d="M30.7608 39.8392C30.2103 39.8392 29.7637 39.3964 29.7637 38.8495C29.7637 36.4392 28.9222 34.0986 27.1906 31.6938C26.8706 31.2487 26.9745 30.6308 27.4225 30.3131C27.871 29.9959 28.4931 30.0985 28.8136 30.5432C30.7673 33.2574 31.758 36.0523 31.758 38.85C31.758 39.3964 31.3113 39.8392 30.7608 39.8392Z" fill="#525D7D"/>
<path d="M45.3689 39.1993C44.2996 39.1993 42.8956 39.1489 41.752 38.0162C40.4427 36.7202 39.833 34.359 39.833 30.5863C39.833 25.4925 42.4065 22.5339 46.7096 22.7205C47.2592 22.7448 47.686 23.2078 47.6606 23.7537C47.6352 24.2997 47.1978 24.7155 46.62 24.6981C42.6794 24.5211 41.8278 27.8216 41.8278 30.5863C41.8278 33.7108 42.2762 35.7392 43.1607 36.6153C43.7339 37.1828 44.428 37.2194 45.5217 37.2194L45.6783 37.219C45.9836 37.219 46.2893 37.2126 46.5877 37.2062C46.8851 37.2002 47.1752 37.1938 47.4509 37.1938C48.0014 37.1938 48.4481 37.6366 48.4481 38.1835C48.4481 38.7304 48.0014 39.1732 47.4509 39.1732C47.1886 39.1732 46.9128 39.1791 46.6297 39.1851C46.3175 39.1915 45.9974 39.1984 45.6778 39.1984L45.5259 39.1988C45.4746 39.1993 45.422 39.1993 45.3689 39.1993Z" fill="#525D7D"/>
<path d="M54.0531 37.6527C53.5922 37.6472 53.2019 37.3451 53.0883 36.9138C52.3586 34.1496 51.3984 31.3675 50.4696 28.6771C49.9056 27.0415 49.3219 25.35 48.7967 23.6823C48.6323 23.1606 48.9251 22.6055 49.4512 22.4428C49.9782 22.2796 50.5365 22.5711 50.7 23.0923C51.2169 24.7339 51.7965 26.4126 52.3567 28.0358C52.9202 29.67 53.4961 31.3373 54.0277 33.0219C54.7141 30.4402 55.3482 27.8355 55.968 25.2918L56.4668 23.25C56.5961 22.7192 57.1356 22.3951 57.6709 22.5221C58.2057 22.6514 58.5341 23.1868 58.4038 23.7176L57.9064 25.7566C57.0104 29.4335 56.0849 33.2346 55.011 36.9362C54.8882 37.3607 54.4974 37.6527 54.0531 37.6527Z" fill="#525D7D"/>
<path d="M27.088 47.9096C26.2202 47.9096 25.6683 47.5525 25.2249 47.266C24.8476 47.0222 24.5986 46.8613 24.1123 46.8613C23.552 46.8613 22.9216 47.0341 22.2547 47.2165C21.5042 47.4219 20.7282 47.6346 19.9278 47.6346C18.8559 47.6346 17.9405 47.2353 17.2075 46.4473C16.8343 46.0457 16.8597 45.4196 17.2638 45.0487C17.6675 44.6788 18.2993 44.7026 18.6734 45.1046C19.0318 45.4906 19.4069 45.6552 19.9278 45.6552C20.458 45.6552 21.0732 45.4869 21.724 45.3086C22.4893 45.0991 23.2814 44.8823 24.1118 44.8823C25.1903 44.8823 25.8387 45.3018 26.3126 45.608C26.6594 45.8317 26.8234 45.9307 27.0876 45.9307C27.4728 45.9307 27.9295 45.6786 28.4131 45.4118C29.0186 45.0776 29.7058 44.6985 30.503 44.6985C31.5117 44.6985 32.2059 45.1147 32.7629 45.4494C33.2668 45.7519 33.5739 45.9229 34.0252 45.9229C34.6011 45.9229 35.2671 45.585 35.9118 45.2591C36.667 44.8768 37.448 44.4812 38.301 44.4812C39.0354 44.4812 39.5208 44.7856 39.9111 45.0304C40.3032 45.2761 40.6136 45.4704 41.3239 45.4704C41.9433 45.4704 42.5839 45.2793 43.2623 45.0776C43.9847 44.8621 44.7315 44.6403 45.5121 44.6403C45.8501 44.6403 46.1813 44.7223 46.5651 44.8172C47.0228 44.9309 47.5419 45.0597 48.147 45.0597C48.5908 45.0597 49.0337 45.012 49.5025 44.9616C49.9986 44.908 50.5112 44.8525 51.0539 44.8525C52.0058 44.8525 52.633 45.0331 53.1364 45.178C53.5018 45.2834 53.7664 45.3595 54.1045 45.3595C54.2416 45.3595 54.3627 45.3416 54.4758 45.304C54.9991 45.1303 55.563 45.4113 55.7371 45.9302C55.9113 46.4487 55.6295 47.0093 55.1067 47.1817C54.7913 47.2862 54.4541 47.3389 54.1045 47.3389C53.4823 47.3389 53.0034 47.2009 52.5808 47.0795C52.1393 46.9525 51.7227 46.8324 51.0539 46.8324C50.6198 46.8324 50.1814 46.8796 49.7177 46.9296C49.2166 46.9836 48.6993 47.0396 48.1465 47.0396C47.2962 47.0396 46.5937 46.8654 46.0806 46.7379C45.8681 46.6852 45.604 46.6197 45.5111 46.6197C45.0234 46.6197 44.4465 46.7916 43.835 46.9736C43.0854 47.1968 42.2352 47.4503 41.3235 47.4503C40.0363 47.4503 39.3199 47.0015 38.846 46.7045C38.5366 46.5106 38.4424 46.4611 38.3006 46.4611C37.9265 46.4611 37.363 46.7467 36.818 47.0226C36.0033 47.4352 35.08 47.9028 34.0252 47.9028C32.9957 47.9028 32.2941 47.4815 31.7306 47.1432C31.236 46.8461 30.9349 46.6779 30.503 46.6779C30.2231 46.6779 29.7955 46.914 29.3825 47.1418C28.7299 47.5016 27.9905 47.9096 27.088 47.9096Z" fill="#525D7D"/>
<path d="M24.7467 53.5421C24.0345 53.5421 23.4083 53.2776 22.855 53.0443C22.4305 52.865 22.0296 52.6959 21.704 52.6959C21.3257 52.6959 20.8814 52.8462 20.3835 53.1433C19.9115 53.4229 19.2986 53.2735 19.0151 52.8041C18.7315 52.3356 18.8844 51.7277 19.3564 51.4463C20.1692 50.9622 20.959 50.7165 21.704 50.7165C22.4365 50.7165 23.0734 50.9851 23.6355 51.2226C24.0498 51.3972 24.441 51.5622 24.7467 51.5622C24.8973 51.5499 25.3642 51.3152 25.6732 51.1598C26.4778 50.755 27.4786 50.2507 28.6194 50.2507C29.5057 50.2507 30.2793 50.5922 30.8571 51.2386C31.2234 51.6475 31.1855 52.2728 30.774 52.6358C30.3611 52.9984 29.7307 52.9604 29.3667 52.5529C29.164 52.3269 28.9409 52.2301 28.6194 52.2301C27.9553 52.2301 27.2223 52.5992 26.5757 52.9251C25.918 53.2565 25.3504 53.5421 24.7467 53.5421Z" fill="#525D7D"/>
<path d="M34.9801 52.8857C34.4295 52.8857 33.9829 52.4429 33.9829 51.896C33.9829 51.2153 34.3288 50.4039 35.9772 50.4039C36.6511 50.4039 37.2783 50.4869 37.8847 50.5671C38.4163 50.6372 38.9188 50.7037 39.3927 50.7037C39.8056 50.7037 40.2614 50.607 40.8378 50.4846C41.7431 50.2921 42.8686 50.0532 44.4639 50.0532C44.8805 50.0532 45.3068 50.0725 45.7298 50.111C46.2785 50.1605 46.6822 50.6418 46.6328 51.1859C46.5829 51.7305 46.0841 52.1312 45.5492 52.0821C45.1858 52.0496 44.8209 52.0326 44.4639 52.0326C43.0797 52.0326 42.1107 52.2384 41.2553 52.42C40.6184 52.5547 40.0166 52.6826 39.3927 52.6826C38.7872 52.6826 38.1941 52.6043 37.621 52.5286C37.0543 52.4539 36.5194 52.3828 35.9772 52.3828C35.9453 52.3828 35.8982 52.3828 35.8474 52.3833C35.6761 52.684 35.3519 52.8857 34.9801 52.8857Z" fill="#525D7D"/>
<path d="M19.0765 59.3289C18.9181 59.3289 18.7569 59.2913 18.6077 59.2124C18.1223 58.9553 17.9385 58.3557 18.1976 57.8734C18.8317 56.6921 19.8921 56.093 21.3474 56.093C22.0481 56.093 22.7603 56.2227 23.4484 56.3483C24.0641 56.4606 24.6456 56.5665 25.1421 56.5665C25.5564 56.5665 25.8316 56.4858 26.2131 56.374C26.7715 56.2103 27.4666 56.0063 28.7095 56.0063C29.4009 56.0063 30.0586 56.0655 30.6941 56.1228C31.8764 56.2287 33.0029 56.286 33.9604 56.082C34.4952 55.9701 35.0291 56.308 35.1446 56.8425C35.26 57.377 34.9173 57.9032 34.3783 58.0178C33.7751 58.1462 33.147 58.2085 32.4579 58.2085C31.7873 58.2085 31.1398 58.1503 30.514 58.0944C29.8955 58.0385 29.3108 57.9862 28.709 57.9862C27.7548 57.9862 27.28 58.1256 26.7775 58.2727C26.3184 58.4075 25.8441 58.5464 25.1416 58.5464C24.4631 58.5464 23.7639 58.4189 23.0873 58.2956C22.4587 58.181 21.8657 58.0728 21.347 58.0728C20.62 58.0728 20.2431 58.2713 19.9563 58.8049C19.7776 59.1382 19.433 59.3289 19.0765 59.3289Z" fill="#525D7D"/>
<path d="M20.3746 68.1872C19.8241 68.1872 19.3774 67.7443 19.3774 67.1975C19.3774 66.9027 19.4897 65.4321 21.7066 65.4321C22.2059 65.4321 22.6636 65.5224 23.0682 65.6017C23.3878 65.6645 23.6903 65.7241 23.9452 65.7241C24.4958 65.7241 24.9424 66.167 24.9424 66.7138C24.9424 67.2607 24.4958 67.7035 23.9452 67.7035C23.494 67.7035 23.0797 67.6219 22.6797 67.5431C22.3352 67.4752 22.0096 67.4115 21.7066 67.4115C21.5371 67.4115 21.4198 67.4244 21.3417 67.4381C21.2337 67.8686 20.8415 68.1872 20.3746 68.1872Z" fill="#525D7D"/>
<path d="M20.2122 63.5161C19.9979 63.5161 19.7822 63.4482 19.6007 63.3075C19.1657 62.972 19.0881 62.3499 19.4261 61.9185C20.1383 61.0095 21.2315 60.5488 22.6749 60.5488C23.6143 60.5488 24.5759 60.74 25.349 60.8935L25.4391 60.9114C25.979 61.0182 26.3291 61.5394 26.2215 62.0758C26.1139 62.6126 25.5906 62.9619 25.0484 62.8523L24.9569 62.8344C24.235 62.691 23.4161 62.5282 22.6749 62.5282C21.5992 62.5282 21.2038 62.8739 20.9997 63.1338C20.8034 63.385 20.5092 63.5161 20.2122 63.5161Z" fill="#525D7D"/>
<path d="M29.5291 86.4977C28.0281 86.4977 23.6885 84.5559 23.6885 80.8492C23.6885 77.1476 38.576 54.8035 51.9898 51.5323C52.3288 51.4502 52.6817 51.5474 52.9288 51.789C53.1754 52.031 53.2779 52.3826 53.1994 52.7173C49.6805 67.7269 33.8609 86.4977 29.5291 86.4977ZM50.8148 53.9554C38.6356 58.3492 25.6828 77.9773 25.6828 80.8492C25.6828 83.2412 28.9033 84.5183 29.5291 84.5183C31.7835 84.5183 46.5339 68.7753 50.8148 53.9554Z" fill="#525D7D"/>
<path d="M49.9093 58.6844C49.6839 58.6844 49.4581 58.6092 49.271 58.4547C48.9288 58.1714 48.5866 57.9092 48.2517 57.652C47.6407 57.1831 47.0093 56.6986 46.4463 56.1393C46.057 55.7529 46.057 55.1262 46.4463 54.7398C46.8357 54.3533 47.467 54.3533 47.8564 54.7398C48.3298 55.2096 48.8849 55.635 49.4715 56.0861C49.8253 56.3575 50.1869 56.6353 50.5485 56.9346C50.9711 57.2844 51.0284 57.9087 50.6755 58.3282C50.4788 58.5629 50.1948 58.6844 49.9093 58.6844Z" fill="#525D7D"/>
<path d="M51.857 53.6911C51.6668 53.6911 51.4746 53.6375 51.3047 53.5247C50.8465 53.2217 50.7223 52.607 51.028 52.1522C51.7568 51.0672 52.8029 50.2022 53.8139 49.3656C54.237 49.0149 54.867 49.0708 55.2194 49.4912C55.5718 49.9111 55.5159 50.5345 55.0928 50.8843C54.1474 51.6668 53.256 52.4035 52.6875 53.2501C52.4953 53.5366 52.179 53.6911 51.857 53.6911Z" fill="#525D7D"/>
<path d="M23.7609 81.2609C21.9943 81.2609 20.9395 79.7991 20.9395 77.3503C20.9395 73.606 23.936 71.9695 26.5797 70.5251C28.1611 69.6614 29.3582 68.9564 30.0413 68.1051C29.627 68.2651 29.1993 68.3495 28.7869 68.3495C27.2411 68.3495 26.2841 67.1228 26.2841 65.9868C26.2841 64.2737 28.2756 63.2222 29.7037 63.2222C32.3746 63.2222 32.6836 64.9737 32.6836 66.2907C32.6836 69.4505 29.9517 70.9422 27.5413 72.2587C25.0689 73.6092 22.9338 74.7754 22.9338 77.3498C22.9338 77.9306 23.0141 79.2811 23.7609 79.2811C23.8228 79.2811 23.887 79.2756 23.9559 79.2655C24.4953 79.1807 25.0094 79.5525 25.0934 80.0929C25.177 80.6329 24.8048 81.1385 24.2598 81.222C24.0843 81.249 23.9189 81.2609 23.7609 81.2609ZM29.7037 65.2016C29.0109 65.2016 28.2789 65.7122 28.2789 65.9868C28.2789 66.1069 28.4068 66.37 28.7874 66.37C29.0709 66.37 29.4196 66.2513 29.7203 66.0519C30.0168 65.8553 30.3826 65.8374 30.6851 65.9735C30.6607 65.2653 30.5087 65.2016 29.7037 65.2016Z" fill="#525D7D"/>
<path d="M24.0214 89.3172C22.8308 89.3172 21.1016 88.2738 21.1016 86.6392C21.1016 85.6123 21.7098 84.6093 22.2465 83.7246C22.4964 83.3125 22.7328 82.9233 22.8576 82.6139C23.0622 82.1069 23.6446 81.8607 24.154 82.0629C24.6648 82.2659 24.9133 82.8417 24.7091 83.3492C24.5249 83.8071 24.2482 84.2628 23.9554 84.7455C23.5725 85.3762 23.0959 86.1619 23.0959 86.6387C23.0959 86.9976 23.7697 87.3373 24.0214 87.3373C24.4487 87.3373 24.7849 86.8803 25.2879 86.1271C25.6606 85.5692 26.0462 84.993 26.6111 84.5924C27.0595 84.2756 27.6821 84.3774 28.0022 84.8225C28.3223 85.2671 28.2183 85.8855 27.7703 86.2032C27.5043 86.3916 27.2226 86.8133 26.9496 87.2218C26.3584 88.1061 25.5497 89.3172 24.0214 89.3172Z" fill="#525D7D"/>
<path d="M12.1273 63.5758C11.8502 63.5758 11.574 63.4621 11.3777 63.2388L9.39125 60.989C6.44182 57.644 3.39263 54.1857 0.268611 50.8637C-0.0685465 50.5052 -0.0902539 49.9556 0.217806 49.5719C2.47306 46.7614 4.98696 44.126 7.41773 41.5773C8.35114 40.5986 9.28271 39.6217 10.1981 38.6375C10.5727 38.2355 11.2045 38.2112 11.6077 38.5816C12.0123 38.9524 12.0377 39.5786 11.6641 39.9802C10.7427 40.9703 9.80554 41.9531 8.86612 42.9383C6.65797 45.2532 4.38054 47.6406 2.31603 50.1431C5.25484 53.2928 8.11791 56.5392 10.8918 59.6853L12.876 61.9333C13.2395 62.344 13.1988 62.9693 12.7845 63.33C12.5956 63.4951 12.3605 63.5758 12.1273 63.5758Z" fill="#525D7D"/>
<path d="M41.8318 87.7287C41.5778 87.7287 41.333 87.6324 41.1483 87.4591C40.5876 86.9347 40.0329 86.4006 39.4791 85.8666C38.1009 84.5377 36.6752 83.1634 35.1737 81.9866C34.7414 81.6479 34.6679 81.0258 35.0088 80.5963C35.351 80.1681 35.9773 80.0943 36.4096 80.4331C37.9919 81.6726 39.4542 83.0832 40.8689 84.4469C41.1649 84.7325 41.461 85.0176 41.7575 85.3018C42.2429 84.7096 42.7038 84.0884 43.1832 83.443C44.3393 81.8858 45.535 80.275 47.1825 78.9841C47.6152 78.6453 48.2415 78.7191 48.5833 79.1473C48.9241 79.5763 48.8507 80.1989 48.4184 80.5376C46.9816 81.6635 45.9165 83.0983 44.7886 84.6174C44.0977 85.5485 43.3832 86.5111 42.5717 87.4027C42.3921 87.6003 42.1399 87.7177 41.872 87.7287C41.8586 87.7287 41.8457 87.7287 41.8318 87.7287Z" fill="#525D7D"/>
<path d="M38.9892 10.7943C38.7407 10.7943 38.4918 10.7026 38.2982 10.5183C37.901 10.1402 37.8881 9.51351 38.2696 9.11928C40.9419 6.35509 43.9708 3.22279 47.1031 0.272481C47.4948 -0.0965364 48.1141 -0.0892019 48.4952 0.291276C51.8774 3.65553 54.8379 6.61959 57.294 9.10003C57.6797 9.48967 57.6746 10.1163 57.2811 10.4995C56.8885 10.8828 56.2572 10.8773 55.8711 10.4872C53.5872 8.18001 50.8659 5.45386 47.7728 2.3752C44.9236 5.09676 42.1645 7.94988 39.7083 10.4899C39.5129 10.6921 39.2506 10.7943 38.9892 10.7943Z" fill="#525D7D"/>
<path d="M64.811 60.2764C64.5806 60.2764 64.3487 60.1975 64.1603 60.0362C63.7428 59.6791 63.6966 59.0547 64.0564 58.6403C69.5839 52.2786 75.5368 46.1611 81.2939 40.2449L83.1829 38.3017C70.4804 26.0444 68.9641 24.3501 66.6889 21.8092C65.823 20.8419 64.842 19.7454 63.062 17.8691C62.6842 17.4712 62.7031 16.8451 63.104 16.4701C63.5044 16.0956 64.1363 16.1134 64.5136 16.5118C66.3139 18.4091 67.3051 19.5167 68.1803 20.494C70.4674 23.0491 71.9782 24.7375 85.2848 37.5692C85.6787 37.9488 85.6894 38.5731 85.3083 38.9655L82.7284 41.6192C76.9903 47.5157 71.0567 53.613 65.5662 59.9321C65.3694 60.16 65.0914 60.2764 64.811 60.2764Z" fill="#525D7D"/>
</g>
<defs>
<clipPath id="clip0_2456_12361">
<rect width="86" height="90" fill="white"/>
</clipPath>
</defs>
</svg>
