<svg width="67" height="55" viewBox="0 0 67 55" fill="none" xmlns="http://www.w3.org/2000/svg">
<path d="M57.3711 5.54409C51.024 8.72806 44.6684 12.0181 38.5193 15.6047C38.1598 15.3735 37.7097 15.2813 37.205 15.4411C30.6765 17.5086 24.1837 19.692 17.6133 21.6279C16.2447 22.0312 16.0745 23.4901 16.6477 24.4179C16.5288 25.1398 16.5213 25.9263 16.4673 26.6795C16.3095 28.8842 15.9812 31.0795 15.7841 33.2803C15.7724 33.2904 15.7602 33.3004 15.7481 33.3104C15.3665 33.6364 15.4316 34.1079 15.6958 34.4275C15.6873 34.5597 15.6765 34.6917 15.6692 34.824C15.5943 36.2234 17.7279 36.4552 18.1017 35.1493C18.2457 34.6461 18.3708 34.138 18.4877 33.6283C22.8462 30.9806 27.1569 28.2837 31.43 25.4939C36.0901 22.4516 41.0116 19.56 45.4042 16.1529C46.0252 15.671 46.1378 15.0303 45.9505 14.4482C49.9795 11.8496 53.9871 9.2177 58.0114 6.62654C58.6969 6.18477 58.1001 5.17831 57.3711 5.54409ZM19.1738 30.4382C19.2091 30.2791 19.2461 30.1203 19.2818 29.9609C19.3813 30.0181 19.4854 30.0666 19.596 30.096C19.4559 30.2112 19.3135 30.3228 19.1738 30.4382ZM20.2278 25.7333C20.2798 25.5858 20.3345 25.4419 20.3951 25.3083C20.6897 25.0654 20.8943 24.7226 20.9944 24.3445C21.8599 24.0674 22.7251 23.7883 23.5909 23.5124C22.4619 24.2404 21.3398 24.9787 20.2278 25.7333ZM23.7356 26.7927C23.7804 26.6741 23.7981 26.5537 23.802 26.4338C24.2083 26.2174 24.6164 26.0049 25.0224 25.7879C24.5903 26.1191 24.1647 26.458 23.7356 26.7927Z" fill="#E0DFE6"/>
<path d="M64.3006 6.68148C62.4285 9.36481 60.6916 12.1296 59.0274 14.9378C59.795 13.2936 60.5532 11.6445 61.2949 9.98802C61.7057 9.07018 60.4003 8.25551 59.8985 9.18176C52.7052 22.4551 45.7187 35.8372 38.219 48.9459C37.527 48.1911 36.7928 47.4712 36.1182 46.7894C35.0726 45.7322 33.9571 44.7613 32.8268 43.8027C32.9531 43.3733 32.9207 42.8949 32.6412 42.4415C31.9953 41.3946 31.0771 40.3439 30.0561 39.437C30.1494 37.9717 29.335 36.4947 27.5441 35.9219C26.3611 35.5438 25.1631 36.2476 24.6861 37.2857C23.2275 37.4607 21.7289 38.0221 20.5161 38.4442C19.9891 38.6275 19.6238 38.9312 19.3865 39.2873C18.011 39.3846 16.6391 39.407 15.2594 39.5279C13.8521 39.6511 13.5654 41.4732 14.9271 41.9538C17.7282 42.9421 22.0324 43.7998 25.4403 43.2888C26.2881 43.7526 27.2616 44.0447 28.1022 44.218C28.4116 44.2817 28.7023 44.2895 28.9726 44.2558C29.3317 44.4897 29.7095 44.7131 30.1049 44.9476C30.1468 44.9725 30.1897 44.9874 30.2319 45.0084C31.1688 46.3852 32.0598 47.792 32.9947 49.1707C34.1414 50.8621 35.1892 52.8404 36.6383 54.2877C37.6937 55.342 39.0852 55.0273 39.8659 54.1525C40.0479 54.2016 40.2345 54.2275 40.4165 54.2256C41.9527 54.2084 42.8345 53.4031 43.5678 52.1551C44.8349 49.9983 45.8598 47.6584 46.9954 45.4305C49.128 41.2462 51.2642 37.0639 53.3932 32.878C57.6801 24.4499 62.0727 15.9908 65.3533 7.12067C65.5903 6.47999 64.6495 6.18149 64.3006 6.68148Z" fill="#E0DFE6"/>
<path d="M40.373 51.7241C40.1487 51.7241 39.9333 51.6265 39.7867 51.4538C35.275 46.133 31.4765 41.6014 27.7006 36.8971C22.4468 38.3683 18.0123 39.4637 13.7841 40.3359C13.5382 40.387 13.2819 40.3149 13.0996 40.1428C12.9176 39.9711 12.8328 39.7221 12.8724 39.4766C13.386 36.3146 13.8011 33.0718 14.2024 29.9357C14.5127 27.5105 14.8335 25.006 15.1988 22.5423C13.7857 20.8427 12.3945 19.0947 11.0465 17.4017C9.08345 14.9353 7.05361 12.3849 4.95241 9.98135C4.77008 9.77275 4.71705 9.48298 4.81427 9.22457C4.91117 8.96649 5.14259 8.78085 5.41854 8.74043C11.3797 7.86269 17.4329 6.9371 23.2868 6.0419C37.1529 3.92195 51.4908 1.72988 65.6387 0.0151626C65.9229 -0.0204124 66.2054 0.107334 66.3661 0.3431C66.5268 0.578865 66.5402 0.883841 66.4001 1.13222C59.5194 13.3649 45.5548 41.0099 41.0748 51.2678C40.9694 51.5087 40.7458 51.6782 40.4829 51.716C40.4466 51.7215 40.4096 51.7241 40.373 51.7241ZM27.9828 35.2771C28.2129 35.2771 28.4352 35.38 28.5825 35.564C32.2297 40.1186 35.8828 44.4901 40.1667 49.5489C44.9446 38.8819 57.4811 14.0634 64.3386 1.69722C50.6973 3.38056 36.8891 5.49178 23.5211 7.53573C18.1108 8.36269 12.5303 9.21616 7.00778 10.0341C8.81143 12.1485 10.5552 14.3396 12.2492 16.4683C13.66 18.2409 15.119 20.0737 16.5949 21.8408C16.7327 22.0057 16.7933 22.2208 16.7616 22.4326C16.3776 24.9869 16.043 27.5997 15.72 30.1259C15.3628 32.9172 14.9949 35.7927 14.5553 38.6299C18.5567 37.7752 22.7912 36.7102 27.7733 35.3066C27.8424 35.2865 27.9131 35.2771 27.9828 35.2771Z" fill="#0B409C"/>
<path d="M28.6035 36.2127C28.4293 36.2127 28.2542 36.1541 28.1105 36.0345C27.7877 35.7651 27.7471 35.2884 28.0195 34.9698C30.8359 31.6743 33.6429 28.2956 36.3572 25.0282C39.7759 20.9128 43.2945 16.6771 46.8864 12.5439C44.471 13.3208 42.0559 14.1028 39.6404 14.8845C32.0441 17.3437 24.1896 19.8863 16.4601 22.2161C16.0568 22.3374 15.629 22.1133 15.5056 21.7139C15.3825 21.3151 15.61 20.8928 16.0139 20.7708C23.7281 18.4455 31.5751 15.9051 39.1638 13.4482C42.451 12.3842 45.7378 11.3202 49.0246 10.2691C49.3513 10.164 49.7091 10.2882 49.8983 10.5721C50.0878 10.8554 50.0619 11.229 49.8361 11.4848C45.6343 16.2415 41.519 21.1955 37.5392 25.9865C34.822 29.2587 32.0117 32.6416 29.1881 35.9449C29.0372 36.1218 28.8211 36.2127 28.6035 36.2127Z" fill="#0B409C"/>
<path d="M53.9262 9.25619C53.6404 9.25619 53.3665 9.09707 53.2352 8.82541C53.0538 8.44864 53.2159 7.9978 53.5969 7.81831C57.8242 5.82999 61.601 3.2301 65.0535 0.716564C65.393 0.469479 65.8722 0.540629 66.1226 0.876652C66.3733 1.21235 66.3007 1.6855 65.9606 1.93291C62.4475 4.49075 58.5974 7.13948 54.2545 9.18245C54.1481 9.23258 54.0362 9.25619 53.9262 9.25619Z" fill="#0B409C"/>
<path d="M58.243 24.5773C58.1241 24.5773 58.0037 24.5498 57.8911 24.4919C57.5163 24.2995 57.3706 23.8431 57.565 23.4728C58.9893 20.7669 60.1903 17.9441 61.3517 15.2142C62.2568 13.0872 63.1927 10.8877 64.2287 8.75543C64.4117 8.37931 64.869 8.22116 65.2487 8.4013C65.6297 8.58176 65.7901 9.03324 65.6072 9.40904C64.5878 11.5076 63.6595 13.6894 62.7616 15.7996C61.5884 18.5576 60.3749 21.4092 58.9222 24.1698C58.786 24.4288 58.5192 24.5773 58.243 24.5773Z" fill="#0B409C"/>
<path d="M2.94059 46.0552C2.7252 46.0552 2.51079 45.9657 2.35988 45.7913C2.08492 45.4747 2.12223 44.9977 2.4427 44.726C2.61259 44.5818 2.79197 44.4346 2.97496 44.2839C4.14782 43.3195 5.47715 42.2267 5.47715 41.0715C5.47715 40.2397 4.99399 39.9095 4.20543 39.4393C3.54617 39.046 2.72552 38.557 2.72552 37.5347C2.72552 36.2136 3.9046 35.4154 4.94522 34.7113C5.84082 34.1049 6.68667 33.5328 6.68667 32.8165C6.68667 32.1205 5.97209 31.8631 4.45584 31.4779C3.04697 31.1202 1.1173 30.6306 1.1173 28.7257C1.1173 26.9844 2.29965 26.1455 3.24992 25.4712C4.08497 24.8787 4.55765 24.5107 4.55765 23.8432C4.55765 23.316 4.14618 23.0223 3.20737 22.4787C2.21847 21.9059 0.987671 21.1928 0.987671 19.6068C0.987671 18.209 1.89964 16.7941 3.6424 16.7941C4.06467 16.7941 4.40707 17.1324 4.40707 17.5496C4.40707 17.9668 4.06467 18.3051 3.6424 18.3051C2.54876 18.3051 2.51701 19.4736 2.51701 19.6068C2.51701 20.2924 3.07316 20.6492 3.98087 21.175C4.91903 21.7187 6.08666 22.3953 6.08666 23.8432C6.08666 25.3186 5.0084 26.0841 4.14193 26.6985C3.2149 27.3567 2.64663 27.8065 2.64663 28.726C2.64663 29.3867 3.3478 29.6367 4.83654 30.0148C6.26309 30.3767 8.21633 30.8728 8.21633 32.8168C8.21633 34.3297 6.88209 35.2327 5.80973 35.9584C5.04539 36.4755 4.25519 37.0105 4.25519 37.535C4.25519 37.6925 4.54848 37.8791 4.99563 38.1456C5.7963 38.623 7.00681 39.3445 7.00681 41.0715C7.00681 42.9353 5.3138 44.3273 3.95338 45.4456C3.77596 45.5912 3.6028 45.7335 3.43814 45.8732C3.29379 45.9954 3.11669 46.0552 2.94059 46.0552Z" fill="#0B409C"/>
<path d="M32.8318 54.2847C32.6593 54.2847 32.4858 54.2275 32.3427 54.1094C31.0023 53.0056 30.3486 51.5978 29.8232 50.4669C29.2579 49.2495 28.9803 48.7538 28.504 48.7538C27.9269 48.7538 27.0794 49.3036 26.2598 49.8356C25.1907 50.5293 24.0852 51.2466 22.9389 51.2466C21.6861 51.2466 20.8681 50.4339 20.146 49.7169C19.4845 49.0594 18.9129 48.4918 18.0838 48.4918C17.7584 48.4918 17.1924 49.1516 16.7796 49.6331C16.0811 50.4475 15.2893 51.3701 14.1946 51.3701C13.6277 51.3701 13.0198 51.0138 12.2499 50.5626C11.373 50.0484 10.2813 49.4083 9.34541 49.4083C8.91495 49.4083 8.26158 49.5293 7.55584 50.5752C7.32146 50.9222 6.84714 51.0163 6.49525 50.7848C6.14369 50.5532 6.04876 50.0843 6.28313 49.7369C7.10672 48.5164 8.13686 47.8974 9.34508 47.8974C10.7009 47.8974 11.9926 48.6545 13.0303 49.2631C13.4453 49.5067 14.0143 49.8401 14.2041 49.8595C14.5806 49.8592 15.1528 49.1923 15.6127 48.6561C16.3191 47.8327 17.0497 46.9808 18.0834 46.9808C19.5483 46.9808 20.4806 47.9071 21.2298 48.6512C21.9068 49.3236 22.3513 49.7356 22.9382 49.7356C23.6273 49.7356 24.5383 49.1444 25.4195 48.5727C26.427 47.9187 27.4693 47.2425 28.5033 47.2425C30.0078 47.2425 30.6203 48.5613 31.2124 49.8365C31.6972 50.8805 32.2468 52.0642 33.3211 52.9484C33.6455 53.2155 33.6894 53.6919 33.419 54.0127C33.2681 54.1922 33.0508 54.2847 32.8318 54.2847Z" fill="#0B409C"/>
<path d="M14.1148 39.4359C13.8735 39.4359 13.6362 39.3237 13.4876 39.1138C13.2453 38.7719 13.3295 38.3007 13.6755 38.0614C15.1629 37.033 16.2605 35.6459 17.4229 34.1776C18.8222 32.4098 20.2688 30.5819 22.461 29.4005C22.8318 29.2006 23.296 29.3358 23.4986 29.7019C23.7009 30.068 23.5641 30.5273 23.1936 30.7271C21.2793 31.7585 19.9912 33.3859 18.6278 35.1084C17.4477 36.5996 16.2271 38.1413 14.5527 39.2994C14.4192 39.3916 14.2663 39.4359 14.1148 39.4359Z" fill="#0B409C"/>
<path d="M20.1462 24.2797C19.7579 24.2797 19.4257 23.989 19.3861 23.5996C19.3439 23.1844 19.6506 22.8141 20.0709 22.7727C24.4445 22.3406 28.7241 20.9632 32.8624 19.6307C35.1669 18.8892 37.5502 18.1217 39.9519 17.513C40.3611 17.4105 40.7775 17.6531 40.8825 18.0573C40.9873 18.4613 40.7408 18.873 40.3316 18.9768C37.9774 19.5732 35.6179 20.3325 33.336 21.0673C29.1205 22.4243 24.7613 23.8276 20.2234 24.2762C20.1976 24.2784 20.1717 24.2797 20.1462 24.2797Z" fill="#0B409C"/>
</svg>
