<svg width="144" height="144" viewBox="0 0 144 144" fill="none" xmlns="http://www.w3.org/2000/svg">
<circle cx="72" cy="72" r="72" fill="white"/>
<path d="M106.544 40.8585C97.5337 45.3786 88.5111 50.0492 79.7817 55.1408C79.2714 54.8126 78.6325 54.6817 77.9159 54.9085C68.6479 57.8437 59.4306 60.9432 50.1031 63.6915C48.1602 64.264 47.9186 66.3351 48.7322 67.6523C48.5636 68.677 48.5529 69.7936 48.4762 70.8629C48.2522 73.9927 47.7861 77.1092 47.5064 80.2336C47.4896 80.2478 47.4724 80.262 47.4552 80.2762C46.9134 80.739 47.0059 81.4084 47.3809 81.862C47.3688 82.0498 47.3535 82.2371 47.3433 82.4249C47.2368 84.4115 50.2658 84.7407 50.7964 82.8868C51.0009 82.1724 51.1784 81.4511 51.3443 80.7276C57.5318 76.9688 63.6514 73.1401 69.7176 69.1798C76.3331 64.8608 83.3199 60.7559 89.5557 55.919C90.4372 55.2349 90.5971 54.3254 90.3313 53.499C96.0508 49.81 101.74 46.0737 107.453 42.3952C108.426 41.768 107.579 40.3393 106.544 40.8585ZM52.3183 76.1988C52.3685 75.9729 52.421 75.7475 52.4717 75.5211C52.613 75.6024 52.7607 75.6713 52.9178 75.7131C52.7189 75.8765 52.5168 76.0349 52.3183 76.1988ZM53.8147 69.5195C53.8886 69.3102 53.9662 69.1059 54.0521 68.9162C54.4704 68.5715 54.7608 68.0848 54.903 67.5481C56.1317 67.1546 57.3599 66.7584 58.589 66.3668C56.9863 67.4002 55.3933 68.4484 53.8147 69.5195ZM58.7944 71.0236C58.8581 70.8551 58.8832 70.6843 58.8887 70.514C59.4654 70.2068 60.0449 69.9052 60.6211 69.5971C60.0077 70.0673 59.4036 70.5484 58.7944 71.0236Z" fill="#E0DFE6"/>
<path d="M116.381 42.4727C113.724 46.282 111.258 50.207 108.896 54.1936C109.985 51.8594 111.062 49.5184 112.115 47.1667C112.698 45.8638 110.845 44.7072 110.132 46.0222C99.9203 64.8653 90.0022 83.8628 79.3555 102.472C78.3731 101.401 77.3308 100.379 76.373 99.4109C74.8888 97.91 73.3051 96.5317 71.7005 95.1709C71.8799 94.5612 71.8339 93.8822 71.437 93.2385C70.5201 91.7523 69.2167 90.2606 67.7673 88.9733C67.8997 86.893 66.7435 84.7962 64.2012 83.9831C62.5217 83.4464 60.8209 84.4454 60.1439 85.9192C58.0732 86.1676 55.9458 86.9646 54.224 87.5638C53.4759 87.8241 52.9573 88.2552 52.6204 88.7607C50.6677 88.8989 48.7201 88.9306 46.7614 89.1023C44.7637 89.2772 44.3566 91.8639 46.2897 92.5461C50.2662 93.9492 56.3765 95.1668 61.2145 94.4414C62.4181 95.0998 63.8001 95.5143 64.9935 95.7604C65.4326 95.8509 65.8453 95.8619 66.2291 95.8141C66.7389 96.1461 67.2751 96.4633 67.8365 96.7962C67.896 96.8316 67.9569 96.8527 68.0168 96.8825C69.3468 98.837 70.6117 100.834 71.9389 102.791C73.5667 105.193 75.0542 108.001 77.1115 110.056C78.6097 111.552 80.5851 111.106 81.6934 109.864C81.9518 109.933 82.2167 109.97 82.475 109.967C84.6559 109.943 85.9078 108.8 86.9487 107.028C88.7476 103.966 90.2025 100.645 91.8146 97.4817C94.8421 91.5416 97.8747 85.6042 100.897 79.6619C106.983 67.6972 113.219 55.6885 117.876 43.0962C118.212 42.1867 116.877 41.7629 116.381 42.4727Z" fill="#E0DFE6"/>
<path d="M82.4132 106.417C82.0949 106.417 81.7891 106.278 81.5809 106.033C75.1759 98.4793 69.7836 92.0462 64.4232 85.3678C56.9648 87.4563 50.6695 89.0114 44.667 90.2496C44.318 90.3222 43.9541 90.2198 43.6953 89.9755C43.4369 89.7317 43.3166 89.3782 43.3728 89.0297C44.1019 84.5409 44.6911 79.9373 45.2609 75.4852C45.7014 72.0423 46.1568 68.4869 46.6754 64.9893C44.6693 62.5766 42.6943 60.0951 40.7807 57.6916C37.9939 54.1904 35.1123 50.5697 32.1294 47.1576C31.8705 46.8614 31.7952 46.4501 31.9333 46.0832C32.0708 45.7168 32.3993 45.4533 32.7911 45.3959C41.2538 44.1499 49.847 42.8359 58.1572 41.565C77.8419 38.5555 98.1963 35.4436 118.281 33.0093C118.684 32.9588 119.085 33.1402 119.314 33.4749C119.542 33.8096 119.561 34.2425 119.362 34.5951C109.594 51.9609 89.7694 91.2064 83.4095 105.769C83.2599 106.111 82.9425 106.351 82.5693 106.405C82.5177 106.413 82.4652 106.417 82.4132 106.417ZM64.8238 83.0681C65.1505 83.0681 65.466 83.2141 65.6752 83.4753C70.8528 89.9411 76.0389 96.147 82.1204 103.329C88.9032 88.1854 106.7 52.9526 116.435 35.3972C97.0698 37.7869 77.4674 40.7841 58.49 43.6857C50.8094 44.8597 42.8872 46.0713 35.0472 47.2324C37.6077 50.2341 40.0832 53.3447 42.488 56.3666C44.4909 58.883 46.562 61.4848 48.6574 63.9935C48.853 64.2276 48.939 64.5329 48.8939 64.8337C48.3488 68.4598 47.8739 72.169 47.4152 75.7552C46.9082 79.7179 46.3859 83.7999 45.7618 87.8278C51.4423 86.6143 57.4537 85.1024 64.5264 83.1098C64.6245 83.0814 64.7248 83.0681 64.8238 83.0681Z" fill="#0B409C"/>
<path d="M65.705 84.3963C65.4577 84.3963 65.2091 84.3132 65.0051 84.1434C64.5469 83.7609 64.4893 83.0842 64.8759 82.6319C68.8742 77.9535 72.859 73.1571 76.7123 68.5186C81.5657 62.6763 86.5607 56.6632 91.6599 50.7957C88.2309 51.8985 84.8023 53.0086 81.3733 54.1183C70.5894 57.6095 59.439 61.2191 48.466 64.5266C47.8935 64.6987 47.2861 64.3806 47.1109 63.8136C46.9362 63.2475 47.2592 62.6478 47.8326 62.4748C58.7837 59.1737 69.9235 55.5673 80.6967 52.0794C85.3632 50.5689 90.0292 49.0584 94.6953 47.5662C95.1591 47.417 95.667 47.5933 95.9356 47.9964C96.2046 48.3986 96.1679 48.9289 95.8473 49.2921C89.8824 56.0448 84.0402 63.0776 78.3904 69.879C74.5329 74.5244 70.5434 79.3267 66.5349 84.0162C66.3207 84.2673 66.014 84.3963 65.705 84.3963Z" fill="#0B409C"/>
<path d="M101.654 46.1284C101.248 46.1284 100.859 45.9025 100.673 45.5168C100.415 44.9819 100.645 44.3419 101.186 44.0871C107.187 41.2644 112.549 37.5736 117.45 34.0053C117.932 33.6545 118.612 33.7555 118.968 34.2326C119.324 34.7091 119.221 35.3808 118.738 35.7321C113.751 39.3632 108.285 43.1234 102.12 46.0237C101.969 46.0948 101.81 46.1284 101.654 46.1284Z" fill="#0B409C"/>
<path d="M107.782 67.878C107.613 67.878 107.442 67.839 107.282 67.7568C106.75 67.4836 106.544 66.8358 106.82 66.3101C108.841 62.4686 110.546 58.4614 112.195 54.586C113.48 51.5664 114.809 48.4439 116.279 45.4169C116.539 44.883 117.188 44.6585 117.727 44.9142C118.268 45.1704 118.496 45.8113 118.236 46.3448C116.789 49.324 115.471 52.4213 114.197 55.417C112.531 59.3324 110.809 63.3805 108.746 67.2995C108.553 67.6673 108.174 67.878 107.782 67.878Z" fill="#0B409C"/>
<path d="M29.2734 98.3689C28.9676 98.3689 28.6632 98.2417 28.449 97.9942C28.0587 97.5447 28.1116 96.8675 28.5666 96.4819C28.8077 96.2771 29.0624 96.0682 29.3222 95.8543C30.9872 94.4852 32.8743 92.9338 32.8743 91.2938C32.8743 90.113 32.1884 89.6442 31.069 88.9767C30.1331 88.4184 28.9681 87.7242 28.9681 86.2729C28.9681 84.3974 30.6419 83.2643 32.1192 82.2648C33.3906 81.4039 34.5914 80.5918 34.5914 79.5748C34.5914 78.5868 33.577 78.2213 31.4245 77.6745C29.4244 77.1667 26.685 76.4716 26.685 73.7674C26.685 71.2955 28.3635 70.1045 29.7125 69.1473C30.898 68.3062 31.569 67.7837 31.569 66.8361C31.569 66.0877 30.9849 65.6708 29.6521 64.899C28.2483 64.0859 26.501 63.0736 26.501 60.8221C26.501 58.8378 27.7956 56.8291 30.2697 56.8291C30.8692 56.8291 31.3552 57.3093 31.3552 57.9016C31.3552 58.4939 30.8692 58.9741 30.2697 58.9741C28.7171 58.9741 28.6721 60.6329 28.6721 60.8221C28.6721 61.7954 29.4616 62.3018 30.7502 63.0483C32.082 63.8201 33.7396 64.7806 33.7396 66.8361C33.7396 68.9306 32.2089 70.0173 30.9788 70.8896C29.6628 71.8239 28.8561 72.4626 28.8561 73.7679C28.8561 74.7058 29.8515 75.0607 31.9649 75.5975C33.9901 76.1112 36.763 76.8155 36.763 79.5753C36.763 81.723 34.8688 83.0049 33.3465 84.0352C32.2614 84.7693 31.1396 85.5287 31.1396 86.2734C31.1396 86.497 31.556 86.7619 32.1908 87.1402C33.3274 87.8178 35.0459 88.8421 35.0459 91.2938C35.0459 93.9397 32.6425 95.9158 30.7112 97.5034C30.4593 97.71 30.2135 97.912 29.9797 98.1104C29.7748 98.2839 29.5234 98.3689 29.2734 98.3689Z" fill="#0B409C"/>
<path d="M71.7076 110.052C71.4627 110.052 71.2164 109.971 71.0133 109.803C69.1103 108.236 68.1823 106.237 67.4365 104.632C66.6339 102.904 66.2399 102.2 65.5637 102.2C64.7445 102.2 63.5414 102.981 62.3778 103.736C60.8601 104.721 59.2908 105.739 57.6634 105.739C55.885 105.739 54.7237 104.585 53.6986 103.567C52.7594 102.634 51.948 101.828 50.7709 101.828C50.309 101.828 49.5056 102.765 48.9196 103.448C47.9279 104.604 46.8038 105.914 45.2498 105.914C44.445 105.914 43.582 105.408 42.489 104.768C41.2441 104.038 39.6943 103.129 38.3658 103.129C37.7547 103.129 36.8271 103.301 35.8252 104.786C35.4925 105.278 34.8192 105.412 34.3196 105.083C33.8205 104.755 33.6858 104.089 34.0185 103.596C35.1877 101.863 36.6501 100.984 38.3653 100.984C40.2901 100.984 42.1238 102.059 43.5969 102.923C44.1861 103.269 44.9938 103.742 45.2633 103.77C45.7977 103.769 46.61 102.823 47.2629 102.061C48.2657 100.892 49.303 99.6831 50.7705 99.6831C52.85 99.6831 54.1735 100.998 55.2372 102.054C56.1982 103.009 56.8292 103.594 57.6624 103.594C58.6406 103.594 59.9339 102.755 61.1849 101.943C62.6152 101.015 64.0948 100.055 65.5628 100.055C67.6986 100.055 68.568 101.927 69.4087 103.737C70.0969 105.219 70.8771 106.9 72.4023 108.155C72.8628 108.534 72.9251 109.21 72.5412 109.666C72.327 109.921 72.0184 110.052 71.7076 110.052Z" fill="#0B409C"/>
<path d="M45.1366 88.9719C44.7941 88.9719 44.4572 88.8126 44.2462 88.5146C43.9023 88.0293 44.0217 87.3604 44.5129 87.0206C46.6245 85.5606 48.1827 83.5915 49.8328 81.5071C51.8194 78.9975 53.8729 76.4026 56.985 74.7254C57.5115 74.4417 58.1705 74.6336 58.4581 75.1533C58.7453 75.673 58.5511 76.325 58.025 76.6087C55.3074 78.0728 53.4789 80.3831 51.5434 82.8284C49.8681 84.9454 48.1353 87.134 45.7583 88.7781C45.5687 88.909 45.3517 88.9719 45.1366 88.9719Z" fill="#0B409C"/>
<path d="M53.6988 67.4559C53.1477 67.4559 52.676 67.0432 52.6198 66.4904C52.5598 65.9009 52.9953 65.3752 53.5919 65.3164C59.8008 64.703 65.8763 62.7476 71.751 60.8561C75.0225 59.8033 78.406 58.7138 81.8155 57.8497C82.3964 57.7042 82.9875 58.0485 83.1366 58.6224C83.2853 59.1959 82.9354 59.7803 82.3546 59.9277C79.0124 60.7743 75.6629 61.8523 72.4234 62.8955C66.439 64.8219 60.2506 66.8141 53.8085 67.4509C53.7718 67.4541 53.7351 67.4559 53.6988 67.4559Z" fill="#0B409C"/>
</svg>
