<svg width="92" height="92" viewBox="0 0 92 92" fill="none" xmlns="http://www.w3.org/2000/svg">
<path opacity="0.4" d="M69.0001 11.5H23.0001C14.5284 11.5 7.66675 18.3233 7.66675 26.7183V65.2817C7.66675 73.6767 14.5284 80.5 23.0001 80.5H69.0001C77.4717 80.5 84.3334 73.6767 84.3334 65.2817V26.7183C84.3334 18.3233 77.4717 11.5 69.0001 11.5Z" fill="white"/>
<path d="M72.8334 33.5417H53.6667C52.0951 33.5417 50.7917 32.2384 50.7917 30.6667C50.7917 29.0951 52.0951 27.7917 53.6667 27.7917H72.8334C74.4051 27.7917 75.7084 29.0951 75.7084 30.6667C75.7084 32.2384 74.4051 33.5417 72.8334 33.5417Z" fill="white"/>
<path d="M72.8333 48.875H57.5C55.9283 48.875 54.625 47.5717 54.625 46C54.625 44.4283 55.9283 43.125 57.5 43.125H72.8333C74.405 43.125 75.7083 44.4283 75.7083 46C75.7083 47.5717 74.405 48.875 72.8333 48.875Z" fill="white"/>
<path d="M72.8334 64.2083H65.1667C63.5951 64.2083 62.2917 62.9049 62.2917 61.3333C62.2917 59.7616 63.5951 58.4583 65.1667 58.4583H72.8334C74.4051 58.4583 75.7084 59.7616 75.7084 61.3333C75.7084 62.9049 74.4051 64.2083 72.8334 64.2083Z" fill="white"/>
<path d="M32.5835 45.1951C37.474 45.1951 41.4385 41.2306 41.4385 36.3401C41.4385 31.4496 37.474 27.4851 32.5835 27.4851C27.693 27.4851 23.7285 31.4496 23.7285 36.3401C23.7285 41.2306 27.693 45.1951 32.5835 45.1951Z" fill="white"/>
<path d="M35.6501 50.2551C33.6184 50.0634 31.5101 50.0634 29.4784 50.2551C23.0384 50.8684 17.8634 55.9667 17.2501 62.4067C17.2118 62.9434 17.3651 63.4801 17.7484 63.8634C18.1318 64.2467 18.6301 64.5151 19.1668 64.5151H46.0001C46.5368 64.5151 47.0734 64.2851 47.4184 63.9017C47.7634 63.5184 47.9551 62.9817 47.9168 62.4451C47.2651 55.9667 42.1284 50.8684 35.6501 50.2551Z" fill="white"/>
</svg>
