<svg width="134" height="134" viewBox="0 0 134 134" fill="none" xmlns="http://www.w3.org/2000/svg">
<g clip-path="url(#clip0_657_647)">
<path d="M61.8462 77.3076V108.231C61.8462 112.526 60.3429 116.176 57.3365 119.183C54.3301 122.189 50.6795 123.692 46.3846 123.692H15.4615C11.1667 123.692 7.51603 122.189 4.50962 119.183C1.50321 116.176 0 112.526 0 108.231V51.5384C0 45.9551 1.08714 40.6267 3.26142 35.5534C5.4357 30.4801 8.375 26.0913 12.0793 22.3869C15.7837 18.6826 20.1725 15.7433 25.2458 13.569C30.3191 11.3948 35.6474 10.3076 41.2308 10.3076H46.3846C47.7804 10.3076 48.9884 10.8176 50.0084 11.8377C51.0284 12.8577 51.5385 14.0656 51.5385 15.4615V25.7692C51.5385 27.165 51.0284 28.3729 50.0084 29.393C48.9884 30.413 47.7804 30.923 46.3846 30.923H41.2308C35.5401 30.923 30.6815 32.9362 26.655 36.9627C22.6286 40.9891 20.6154 45.8477 20.6154 51.5384V54.1153C20.6154 56.2627 21.367 58.0881 22.8702 59.5913C24.3734 61.0945 26.1987 61.8461 28.3462 61.8461H46.3846C50.6795 61.8461 54.3301 63.3493 57.3365 66.3557C60.3429 69.3621 61.8462 73.0127 61.8462 77.3076ZM134 77.3076V108.231C134 112.526 132.497 116.176 129.49 119.183C126.484 122.189 122.833 123.692 118.538 123.692H87.6154C83.3205 123.692 79.6699 122.189 76.6635 119.183C73.6571 116.176 72.1538 112.526 72.1538 108.231V51.5384C72.1538 45.9551 73.241 40.6267 75.4153 35.5534C77.5895 30.4801 80.5288 26.0913 84.2332 22.3869C87.9375 18.6826 92.3263 15.7433 97.3996 13.569C102.473 11.3948 107.801 10.3076 113.385 10.3076H118.538C119.934 10.3076 121.142 10.8176 122.162 11.8377C123.182 12.8577 123.692 14.0656 123.692 15.4615V25.7692C123.692 27.165 123.182 28.3729 122.162 29.393C121.142 30.413 119.934 30.923 118.538 30.923H113.385C107.694 30.923 102.835 32.9362 98.8089 36.9627C94.7825 40.9891 92.7692 45.8477 92.7692 51.5384V54.1153C92.7692 56.2627 93.5208 58.0881 95.024 59.5913C96.5272 61.0945 98.3526 61.8461 100.5 61.8461H118.538C122.833 61.8461 126.484 63.3493 129.49 66.3557C132.497 69.3621 134 73.0127 134 77.3076Z" fill="white" fill-opacity="0.17"/>
</g>
<defs>
<clipPath id="clip0_657_647">
<rect width="134" height="134" fill="white"/>
</clipPath>
</defs>
</svg>
