<svg width="88" height="88" viewBox="0 0 88 88" fill="none" xmlns="http://www.w3.org/2000/svg">
<path opacity="0.4" d="M75.6068 30.9834C71.7568 14.0434 56.9801 6.41675 44.0001 6.41675C44.0001 6.41675 44.0001 6.41675 43.9634 6.41675C31.0201 6.41675 16.2068 14.0067 12.3568 30.9467C8.06677 49.8667 19.6534 65.8901 30.1401 75.9734C34.0268 79.7134 39.0134 81.5834 44.0001 81.5834C48.9868 81.5834 53.9734 79.7134 57.8234 75.9734C68.3101 65.8901 79.8968 49.9034 75.6068 30.9834Z" fill="white"/>
<path d="M43.9999 49.3534C50.3788 49.3534 55.5499 44.1823 55.5499 37.8034C55.5499 31.4245 50.3788 26.2534 43.9999 26.2534C37.6211 26.2534 32.45 31.4245 32.45 37.8034C32.45 44.1823 37.6211 49.3534 43.9999 49.3534Z" fill="white"/>
</svg>
