<svg width="142" height="135" viewBox="0 0 142 135" fill="none" xmlns="http://www.w3.org/2000/svg">
<path d="M85.7851 1.05908C85.4665 1.64314 85.2541 2.86436 85.3603 3.71389C85.4665 4.61652 85.201 5.46606 84.7763 5.73154C83.7143 6.4218 85.0948 9.71375 87.4311 12.1562C89.3425 14.1207 89.3425 14.1738 89.4487 19.0056C89.4487 21.7135 89.7142 24.3152 89.9797 24.7931C90.1921 25.2709 90.5637 26.5983 90.723 27.6603C91.254 31.2177 94.0681 36.368 96.1919 37.5892C97.2008 38.2264 98.3689 38.7043 98.7936 38.7043C99.6963 38.7043 99.9087 39.0228 100.333 41.1467C100.652 42.6334 100.493 43.005 99.0591 44.0139C96.9353 45.5537 96.5105 45.0758 97.7317 42.421C98.5813 40.5626 98.5813 40.1378 97.9441 39.5007C97.307 38.8635 96.5105 39.129 92.1566 41.5183C86.0506 44.8634 82.0684 48.6332 81.0595 51.9783C80.6879 53.3057 80.1569 54.9517 79.8914 55.695C79.5197 56.8631 79.0419 60.9515 77.98 72.9513L77.7145 76.137L74.9535 77.5175C71.7146 79.1635 69.6439 81.8714 70.1217 83.836C70.5996 85.7474 71.2367 86.2253 72.2456 85.4289C73.4137 84.4731 77.3959 85.0572 79.4136 86.4908C80.3693 87.181 81.4843 88.5084 81.9091 89.5173C82.8648 91.9066 83.9267 91.4818 83.8736 88.6677C83.8205 85.0572 81.325 82.9333 76.5995 82.4555C75.1128 82.2962 73.7323 82.0838 73.6261 81.9776C73.2013 81.5528 74.3163 80.544 76.334 79.5352C78.2985 78.5264 78.7233 78.4733 80.6879 79.1104C84.5639 80.3316 86.0506 82.3493 86.6346 87.2341C86.9001 89.5704 87.1656 90.2075 87.9089 90.2075C89.3425 90.2075 89.5549 88.243 88.6523 84.2076C87.6435 79.8538 86.3692 78.2609 82.8648 77.0397C80.5817 76.1901 80.21 75.9246 80.3693 74.7565C80.4224 74.0663 80.741 71.677 81.0595 69.5C81.3781 67.3231 81.6967 64.5621 81.8029 63.394C82.8648 51.8721 84.086 49.4828 91.5195 44.7572C94.4929 42.8988 95.8734 42.421 94.9707 43.5891C93.9088 44.9165 93.3247 47.5182 93.8557 48.4208C94.5991 49.7482 95.7141 49.5359 98.5813 47.412L101.13 45.5537L102.563 47.6775C104.263 50.2261 105.696 50.5978 105.271 48.3677C105.112 47.5713 104.369 45.182 103.625 43.0581C102.882 40.8812 102.245 38.9697 102.245 38.7043C102.245 38.4919 103.307 37.9078 104.634 37.4299C107.501 36.3149 112.439 31.0584 112.227 29.4124C111.961 27.5541 110.475 27.9788 108.67 30.4743C105.378 35.0937 99.4839 37.1114 96.8291 34.6158C94.8114 32.7044 92.9531 26.2798 92.369 19.1118C91.9973 14.8641 92.0504 14.6517 93.0062 15.0765C94.5991 15.7667 100.068 15.4481 101.82 14.5455C103.997 13.4836 104.369 13.5367 104.369 14.9703C104.369 16.1915 106.599 19.9082 108.032 21.0232C108.51 21.3949 109.307 21.7135 109.838 21.7135C111.377 21.7135 110.9 19.6958 108.882 17.9437C107.236 16.457 107.024 16.0322 107.024 13.5367C107.024 10.1385 106.386 8.97041 105.059 9.87305C101.82 12.1031 100.864 12.4217 96.4043 12.4217C92.8469 12.4217 91.5195 12.2093 90.0859 11.3597C87.6435 9.92614 87.3249 8.86422 89.4487 9.28899C90.8292 9.60757 91.0947 9.44827 91.0947 8.59874C91.0947 8.01468 90.5107 7.27133 89.8204 6.95276C88.5992 6.4218 87.4842 4.40414 88.0682 3.87318C88.2275 3.71389 89.0771 3.97937 89.9797 4.40414C91.9442 5.46606 93.3778 5.46606 97.307 4.45724C103.36 2.97054 104.422 2.81126 107.395 3.28912C110.262 3.71389 114.351 6.79346 115.891 9.71375C116.634 11.1474 117.696 14.9172 118.333 18.3684C118.705 20.333 118.014 20.7047 117.112 19.0587C116.422 17.7844 115.094 17.6782 114.616 18.8463C114.457 19.3242 114.722 19.9613 115.36 20.3861C115.944 20.8109 116.74 21.8728 117.112 22.7754C117.961 24.8462 119.607 24.8993 120.351 22.8816C121.094 20.9701 119.66 10.8288 118.227 8.01468C116.899 5.41297 113.82 2.65197 110.528 1.05908C108.298 -0.0559311 107.501 -0.162125 104.209 0.156448C102.086 0.368835 99.0591 0.846703 97.4662 1.27147C93.4309 2.33339 90.6168 2.2803 88.5461 1.00599C86.4222 -0.321419 86.4753 -0.321419 85.7851 1.05908Z" fill="#10316B"/>
<path d="M112.864 22.1915C112.864 22.5101 113.13 22.8818 113.395 23.041C114.351 23.6251 113.979 24.8994 112.864 24.8994C111.59 24.8994 111.484 25.6959 112.705 26.1737C113.236 26.3861 113.979 26.1206 114.669 25.4835C115.572 24.5808 115.625 24.2092 115.094 23.041C114.51 21.7667 112.864 21.1296 112.864 22.1915Z" fill="#10316B"/>
<path d="M114.404 27.3419C113.82 28.0853 113.873 28.2976 114.723 28.9348C116.899 30.4215 117.059 30.7401 116.74 32.4922C116.315 34.8816 114.298 38.7576 112.864 40.0319C109.625 42.846 106.386 48.1556 104.528 53.5183C103.625 56.1731 103.785 65.8366 104.847 71.7303C106.015 78.208 104.369 83.4114 99.3777 88.8803C96.4575 92.0661 96.0858 92.9688 97.5194 93.2873C99.0592 93.5528 104.475 87.4998 106.227 83.5707C108.032 79.5354 108.245 76.6151 107.289 69.925C105.696 59.3589 106.864 51.129 110.475 47.0406L111.802 45.5008L114.935 48.2087C116.634 49.6954 118.333 50.9166 118.652 50.9166C119.395 50.9166 121.731 46.3503 122.156 43.8548C122.952 39.7664 123.218 39.8195 129.536 44.0141C134.899 47.6246 136.757 48.2618 136.757 46.5096C136.757 45.7663 127.359 39.2355 126.297 39.2355C125.979 39.2355 125.023 38.4921 124.121 37.5364C122.74 36.1559 122.315 35.9966 121.625 36.5806C121.2 36.9523 120.829 37.6426 120.829 38.1735C120.829 39.3416 118.705 46.2441 118.174 46.8813C117.908 47.0937 117.165 46.8282 116.528 46.191C115.838 45.5539 114.723 44.9167 114.085 44.7575C113.395 44.5451 112.864 44.3327 112.864 44.1734C112.864 44.0672 113.82 42.846 114.935 41.4655C117.855 37.9611 119.236 35.2001 119.607 32.333C119.873 29.9436 119.82 29.7843 117.749 28.1915C115.307 26.2269 115.36 26.2269 114.404 27.3419Z" fill="#10316B"/>
<path d="M0.778223 35.5185C0.0348765 35.9433 -0.0713159 38.1733 0.0348764 56.4915C0.141069 73.2699 0.300357 77.1459 0.884415 77.7299C1.30918 78.1016 3.43303 78.5264 5.60997 78.7388C7.78691 78.8981 11.0789 79.2166 12.831 79.3759C15.1142 79.5883 16.2292 79.4821 16.4947 79.0574C17.2911 77.7299 15.3266 76.9866 9.59218 76.4025C6.40641 76.0309 3.59232 75.6061 3.37993 75.3937C3.16755 75.2344 2.95516 66.6859 2.95516 56.4915L2.90207 37.9078H29.8749H56.8478L57.007 59.518C57.0601 71.4646 56.954 81.1812 56.7416 81.1812C56.4761 81.1812 51.8036 80.7033 46.2285 80.1193C36.4588 79.1635 34.8129 79.2166 34.8129 80.6502C34.8129 81.3405 37.8924 82.1369 42.2463 82.5617C48.0338 83.0927 48.9364 83.1989 54.0337 83.7829C56.5823 84.1015 59.9273 84.1546 61.4671 83.9953C66.4582 83.4643 66.1396 85.2696 66.1396 59.0932C66.1396 36.899 66.0865 36.0495 65.1308 35.5185C63.8034 34.8283 1.99943 34.8283 0.778223 35.5185ZM63.4848 59.4118V81.1812L62.1574 81.2343C61.414 81.2874 60.5645 81.3405 60.299 81.3936C59.8742 81.4467 59.5026 49.4828 59.768 37.9078C59.768 37.7485 60.6176 37.6424 61.6264 37.6424H63.4848V59.4118Z" fill="#10316B"/>
<path d="M43.4676 39.6072C42.618 39.9258 42.5649 41.678 43.3614 42.2089C44.2109 42.6868 45.6445 41.0939 45.2728 40.0851C44.9012 39.2356 44.5826 39.1294 43.4676 39.6072Z" fill="#10316B"/>
<path d="M47.7683 40.0319C47.5559 40.5097 47.6621 41.1469 47.9807 41.4655C48.7772 42.2619 50.3169 41.5186 50.1046 40.4566C49.8922 39.2354 48.1931 38.9168 47.7683 40.0319Z" fill="#10316B"/>
<path d="M26.3175 46.6159C23.7688 47.4654 21.5388 48.8459 21.5388 49.5893C21.5388 50.545 21.5388 50.545 25.4679 49.5893C33.4323 47.6778 39.0605 52.0848 39.0605 60.2616C39.0605 62.6509 38.742 64.35 37.9986 65.7836C36.9367 67.8543 34.1757 70.2968 33.5385 69.6596C33.3792 69.5003 33.22 65.8367 33.22 61.5359C33.22 51.66 33.5916 52.0848 24.99 51.8724L18.6185 51.7131L18.0876 53.3591C17.769 54.3679 17.6097 61.4828 17.7159 71.5711C17.8221 85.907 17.9814 88.1902 18.6716 88.4557C19.0964 88.6149 19.7335 88.5087 19.999 88.2433C20.3176 87.9247 20.53 81.3939 20.4769 71.1994V54.7396L25.3617 54.7927L30.2997 54.8989V81.9779C30.3528 96.8979 30.5121 109.376 30.7775 109.747C31.3616 110.703 33.22 109.535 33.22 108.207C33.22 107.252 33.4323 107.145 34.7066 107.464C35.5031 107.676 36.7243 107.942 37.4676 108.048C38.211 108.101 39.7508 108.314 40.9189 108.526C42.087 108.685 44.6887 109.11 46.7064 109.429C50.37 109.96 50.7417 110.862 47.2904 110.915C46.4409 110.968 43.5737 111.393 40.9189 111.924C36.2464 112.88 36.034 112.88 30.8306 111.871C27.9103 111.287 24.937 110.756 24.1936 110.65C23.4503 110.544 21.4326 110.225 19.6804 109.853C17.9283 109.535 15.2204 109.057 13.7337 108.845C9.1143 108.154 9.53907 107.623 15.2735 106.986C17.1318 106.774 17.769 106.88 18.0345 107.464C18.1937 107.889 18.8309 108.261 19.415 108.261C20.4238 108.261 20.4769 107.942 20.4769 101.146C20.4769 95.6236 20.3176 93.9777 19.7335 93.7653C18.2999 93.2343 17.8221 94.6679 17.8221 99.2342V103.854L12.4063 104.809C5.92853 105.924 4.65422 106.349 4.17636 107.517C3.69849 108.845 5.66305 110.172 8.90192 110.65C10.4417 110.915 12.0877 111.181 12.5125 111.287C12.9372 111.34 14.6363 111.659 16.2823 111.924C17.9814 112.19 19.8397 112.561 20.4769 112.774C21.5388 113.092 24.5653 113.676 29.5032 114.367C30.5121 114.526 32.2111 114.898 33.273 115.216C35.3438 115.853 36.4588 115.747 42.7773 114.42C44.9542 113.942 48.724 113.198 51.1665 112.721C54.4584 112.03 55.6796 111.552 56.1044 110.756C57.007 109.11 55.6796 108.314 50.6886 107.411C42.8304 105.977 39.9101 105.5 38.6889 105.34C37.9986 105.234 36.5119 105.022 35.3438 104.809L33.22 104.438V88.6149V72.8454L35.7155 71.518C38.742 69.9782 40.8127 67.1641 41.7153 63.2881C42.9365 58.2439 40.2286 51.4476 35.6624 48.315C33.1669 46.5628 28.813 45.7663 26.3175 46.6159Z" fill="#10316B"/>
<path d="M137.288 48.5271C136.864 49.058 136.864 49.5359 137.235 50.2793C139.519 54.527 139.678 56.757 138.881 68.4381C138.563 72.6858 138.138 79.3759 137.873 83.3051C137.607 88.243 137.182 91.004 136.545 92.2252C135.377 94.4553 134.634 94.4022 134.634 92.0659C134.634 89.5704 132.51 86.3315 129.59 84.2608C128.315 83.3582 127.359 82.4024 127.519 82.1369C127.784 81.7653 131.554 83.5174 133.678 85.0041C134.421 85.5351 134.74 85.5351 135.271 85.0041C136.545 83.7298 132.51 80.5441 128.74 79.8538C127.094 79.5352 126.829 79.6414 126.244 80.8626C125.395 82.721 124.386 82.6679 124.758 80.7564C125.129 79.2167 125.289 77.8362 126.138 68.4381C126.988 58.8808 127.413 57.5003 130.758 54.2084C133.572 51.3943 134.156 49.7483 132.51 49.4297C131.395 49.2173 127.572 53.1465 126.244 55.8544C124.28 59.8897 123.537 63.5002 122.899 72.5265L122.209 81.4467L119.554 82.7741C117.431 83.836 116.687 84.5263 116.262 85.9599C115.731 87.4997 114.988 88.1899 111.484 90.0483C109.148 91.2695 105.59 92.9155 103.466 93.6588C99.9619 94.9331 99.3778 95.0393 96.8823 94.5084C95.3425 94.1367 93.7496 93.6057 93.378 93.2871C92.9532 92.9686 90.7762 92.5969 88.4931 92.4376C84.8295 92.2252 83.9799 92.3845 81.1127 93.6588C78.511 94.8269 77.5022 95.6765 75.9624 97.9065C74.2102 100.402 74.104 100.827 74.7412 101.836C75.1129 102.42 75.5907 103.004 75.8031 103.004C76.0686 103.057 76.4403 103.11 76.7589 103.163C77.0243 103.163 77.7146 103.641 78.2986 104.119C78.9358 104.65 80.7942 105.128 83.0773 105.393C88.7586 105.924 87.909 106.72 80.9535 107.464C79.573 107.57 76.5996 107.358 74.3164 106.88C71.9802 106.455 69.2723 105.977 68.2635 105.871C67.2546 105.712 64.2813 105.287 61.6265 104.862C59.0247 104.437 52.9718 103.535 48.2462 102.844C42.2464 101.995 39.5915 101.464 39.5915 100.986C39.5915 100.614 40.1225 100.296 40.8128 100.296C43.4676 100.349 63.9627 103.11 65.6087 103.641C66.0334 103.8 68.2635 104.066 70.5466 104.225C74.2102 104.49 74.6881 104.437 74.5288 103.641C74.2633 102.26 70.3873 100.827 66.6175 100.827C63.6441 100.774 55.9983 99.6056 55.1487 99.0746C54.6709 98.756 55.1487 97.9065 56.8478 96.1543C59.2902 93.6588 59.715 92.2252 58.069 91.9066C57.1664 91.7474 53.3965 95.2517 53.3965 96.3136C53.3965 97.2694 51.6975 97.8003 51.2196 97.057C50.7417 96.2605 52.9187 93.4464 55.6797 91.2164L57.6973 89.6235L60.299 90.473C61.7857 90.9509 62.9539 91.4288 62.9539 91.535C62.9539 91.6412 62.2105 92.4376 61.361 93.2871C59.8743 94.8269 59.184 97.4286 60.1398 98.3313C60.6707 98.8622 61.8919 97.641 61.8919 96.5791C61.8919 95.8889 64.9715 92.4376 65.768 92.3314C69.0599 91.7474 70.1218 91.8004 72.2457 92.8093C75.2191 94.1898 76.2279 94.1898 76.2279 92.9155C76.2279 92.1721 75.6438 91.6943 74.2633 91.2164C73.1483 90.8978 71.6085 90.2076 70.8121 89.7828C69.644 89.0925 69.0599 89.0394 67.3077 89.5704C65.3963 90.1545 64.9184 90.1014 62.6353 88.9333C57.0071 86.1723 52.0691 86.7032 48.2462 90.5261C45.7507 93.0217 44.9543 95.1455 45.91 96.6322C46.2286 97.1632 46.494 97.6941 46.494 97.8003C46.494 97.9065 45.1135 97.9596 43.4676 98.0127C39.8039 98.1189 35.8748 99.1277 35.5031 100.137C35.3439 100.508 35.6093 101.411 36.0341 102.048C36.7244 103.11 37.8394 103.429 43.8923 104.49C47.8215 105.128 52.0691 105.871 53.3965 106.136C57.3788 106.933 64.0689 107.995 68.7944 108.473C72.9359 108.897 77.0243 110.066 77.0243 110.809C77.0243 111.658 76.7589 111.605 73.4138 110.65C69.7502 109.588 65.5556 109.375 65.237 110.225C64.9184 111.021 66.1396 111.552 71.9802 113.039C78.8296 114.791 79.4137 114.791 85.0419 113.57C87.909 112.933 91.6789 112.189 93.378 111.924C95.1301 111.658 96.723 111.34 96.9885 111.127C97.838 110.65 97.5195 107.411 96.5106 106.508C95.4487 105.552 90.1391 103.906 87.4843 103.747C85.148 103.588 85.095 102.791 87.4312 102.207C89.1303 101.783 89.9267 101.995 93.5903 103.694C97.0947 105.34 98.2628 105.659 100.599 105.499C102.617 105.393 103.626 105.074 104.05 104.437C104.847 103.11 104.316 102.844 100.28 102.738C97.3071 102.632 96.139 102.313 93.5903 100.88C89.9798 98.8091 88.4931 98.8622 83.7145 101.305C80.9004 102.738 79.9446 102.898 79.9446 101.942C79.9446 101.517 83.6614 99.5525 86.4755 98.4906C88.7586 97.5879 89.1834 96.0481 87.1126 96.0481C85.5728 96.0481 82.1216 97.641 79.573 99.5525C78.6703 100.243 77.7677 100.827 77.6084 100.827C76.865 100.827 77.396 99.3932 78.4579 98.4375C80.157 97.057 85.3073 94.4553 86.5285 94.4553C87.8029 94.4553 90.7762 95.3579 93.0594 96.4198C95.7142 97.6941 99.1123 98.172 101.714 97.5879C102.988 97.2694 104.21 96.8977 104.369 96.6322C104.528 96.4198 107.926 94.6676 111.962 92.7031C120.138 88.6678 119.979 88.6678 123.218 92.4376C124.758 94.2429 125.076 95.0924 124.97 96.5791C124.811 98.3844 124.705 98.4375 122.156 98.8622C119.661 99.2339 116.103 99.9242 109.041 101.411C106.705 101.889 105.962 102.26 105.962 103.004C105.962 103.535 106.121 104.066 106.387 104.172C106.758 104.437 112.333 103.588 119.236 102.154C121.572 101.676 124.227 101.517 125.66 101.676C129.059 102.154 131.979 100.721 136.28 96.526C140.58 92.3845 140.156 94.6676 141.483 69.7124C142.173 57.2349 141.908 53.4119 140.103 50.0138C139.041 47.9961 138.138 47.5183 137.288 48.5271ZM124.811 84.7387C128.05 85.5351 131.82 89.1987 132.032 91.8004C132.351 95.9419 132.085 96.9508 130.174 98.1189C129.218 98.756 128.156 99.2339 127.89 99.2339C127.625 99.2339 127.413 97.9596 127.413 96.4198C127.466 92.7031 125.023 88.9864 121.466 87.4466L119.023 86.3315L120.616 85.1103C121.466 84.367 122.528 83.9953 122.953 84.1546C123.377 84.367 124.227 84.5794 124.811 84.7387ZM53.3965 89.9952C53.3965 90.4199 49.0958 95.1986 48.5117 95.411C47.2905 95.9419 48.4055 93.7119 50.317 91.8535C52.3346 89.8359 53.3965 89.1987 53.3965 89.9952ZM93.962 108.791C93.4841 109.269 84.9357 111.127 81.3251 111.552C80.4756 111.605 79.6791 111.446 79.573 111.127C79.4668 110.756 80.7411 110.278 82.9711 109.853C89.8205 108.685 92.4222 108.101 92.9532 107.623C93.6434 107.039 94.6523 108.101 93.962 108.791Z" fill="#10316B"/>
<path d="M86.9002 52.7219C86.2631 53.4652 86.5285 56.1731 88.1745 66.8986C88.6524 69.925 89.2365 74.5444 89.555 77.1992C90.5639 86.491 90.7231 87.2875 91.8913 87.2875C92.9001 87.2875 92.9532 86.9689 92.7939 83.0398C92.6877 80.7036 92.1567 75.3408 91.5727 71.0931C90.9886 66.8455 90.2453 61.058 89.9267 58.1908C89.4488 54.2086 89.1303 52.8812 88.3869 52.5095C87.8029 52.1378 87.325 52.244 86.9002 52.7219Z" fill="#10316B"/>
<path d="M37.2022 94.1367C36.4057 94.6676 36.4057 94.9862 36.9367 95.8888C37.7331 97.1101 41.8215 97.4817 42.7773 96.3136C43.733 95.1455 42.8304 94.0305 40.9189 94.0305C39.9101 94.0305 38.9013 93.8712 38.6358 93.7119C38.3703 93.5526 37.7331 93.7119 37.2022 94.1367Z" fill="#10316B"/>
<path d="M5.98166 94.243C5.76927 94.4554 5.60999 95.1457 5.60999 95.8359C5.60999 96.8447 6.03475 97.1102 8.42408 97.6412C14.1585 98.8624 15.4859 98.9155 15.9106 97.8536C16.4416 96.4731 15.2735 95.6766 11.716 95.0926C9.96387 94.774 8.05241 94.4023 7.46835 94.1899C6.88429 94.0306 6.19404 94.0306 5.98166 94.243Z" fill="#10316B"/>
<path d="M67.2015 96.8447C66.8298 97.2694 66.6705 97.9597 66.8298 98.3845C67.2015 99.2871 71.927 100.03 72.6704 99.2871C73.4137 98.5438 72.7235 97.1102 71.5023 97.1102C70.9182 97.1102 70.2811 96.8447 70.1218 96.5792C69.6439 95.7828 67.9448 95.942 67.2015 96.8447Z" fill="#10316B"/>
<path d="M112.333 106.296C112.333 107.145 115.785 108.313 116.9 107.889C117.324 107.729 117.643 107.198 117.537 106.72C117.324 105.605 112.333 105.128 112.333 106.296Z" fill="#10316B"/>
<path d="M123.483 107.358C117.696 110.172 115.307 113.889 117.112 117.287C117.749 118.508 120.776 119.517 123.059 119.304C125.395 119.092 125.607 120.419 123.483 122.49C120.351 125.676 111.962 125.464 103.254 122.012C101.926 121.481 99.9618 120.95 98.8468 120.844C95.4486 120.472 95.9265 119.782 100.121 119.145C101.13 119.039 102.935 118.667 104.103 118.402C105.271 118.136 107.979 117.552 110.156 117.127C114.298 116.278 116.209 115.11 115.147 114.048C114.457 113.358 113.183 113.57 106.227 115.322C104.475 115.747 101.979 116.278 100.652 116.49C99.3247 116.703 97.8911 117.074 97.4663 117.287C96.5637 117.765 93.9089 118.083 83.9268 118.933C70.228 120.048 60.83 124.189 60.83 129.127C60.83 130.879 62.529 133.109 64.5998 134.065C66.1396 134.755 67.3608 134.862 69.6439 134.596C73.3076 134.171 74.635 133.481 74.635 132.047C74.635 131.145 74.4226 131.039 73.2014 131.357C68.5289 132.578 65.1307 132.047 63.8033 129.924C63.3786 129.18 63.591 128.649 65.0246 127.163C67.9448 124.136 74.7411 122.278 86.3161 121.322C93.0593 120.738 94.6522 120.738 95.1301 121.322C95.661 121.959 98.7937 123.233 105.165 125.304C106.917 125.888 108.776 126.579 109.254 126.844C110.156 127.322 112.917 127.534 117.908 127.428C119.395 127.375 121.572 126.897 122.74 126.313C125.129 125.251 128.315 121.8 128.209 120.472C128.05 118.88 128.262 118.349 129.005 118.349C130.174 118.349 132.881 115.853 133.253 114.42C133.678 112.614 132.828 110.65 130.811 108.738C129.218 107.252 127.147 106.083 126.244 106.19C126.032 106.19 124.811 106.721 123.483 107.358ZM128.634 110.437C130.97 111.924 130.917 113.835 128.421 115.322C126.775 116.278 120.191 116.862 119.448 116.066C118.439 115.057 121.519 111.34 124.386 110.066C126.457 109.163 126.563 109.163 128.634 110.437Z" fill="#10316B"/>
<path d="M131.182 106.667C130.598 107.623 131.819 108.632 134.687 109.535C137.713 110.543 139.412 110.278 139.412 108.791C139.412 107.782 139.147 107.676 135.43 106.986C134.58 106.827 133.306 106.561 132.722 106.349C132.085 106.19 131.395 106.296 131.182 106.667Z" fill="#10316B"/>
</svg>
