<svg width="144" height="144" viewBox="0 0 144 144" fill="none" xmlns="http://www.w3.org/2000/svg">
<circle cx="72" cy="72" r="72" fill="white"/>
<g clip-path="url(#clip0_39_834)">
<path d="M75.4934 27.4807C75.5162 26.9265 75.008 26.7037 74.5857 26.8245C74.2785 26.3511 73.6865 26.07 72.9829 26.1739C71.9062 26.3327 71.1523 27.2323 70.36 27.9038C69.6501 28.5051 68.8966 29.0783 68.3362 29.8263C67.9789 30.3028 68.4771 30.8635 68.9557 30.9041C69.9555 30.9887 71.0141 30.6379 71.929 30.2685C72.1643 30.1736 72.4053 30.0772 72.6435 29.9745C71.6668 31.4152 70.5644 32.7985 70.1034 34.4564C70.0021 34.8208 70.0843 35.1715 70.2749 35.4483C70.1221 35.566 69.9836 35.7061 69.868 35.8637C69.0325 37.0035 69.387 38.4111 68.6759 39.6487C67.8608 41.0679 66.6812 42.3229 65.6482 43.5857C64.9024 44.4975 63.7954 46.2278 62.5758 46.5292C61.1809 46.8737 60.0832 45.8343 58.6904 46.864C58.4735 47.0244 58.3132 47.2032 58.1881 47.3935C57.6302 45.9301 56.2913 45.3088 55.1176 44.3774C54.1578 43.6154 53.1485 42.4243 51.9433 42.0839C51.3135 41.906 50.83 42.3931 50.7687 42.9772C50.6265 44.3349 51.7158 45.7984 52.4928 46.8225C53.4858 48.1312 54.6897 49.6184 56.4432 49.6958C56.8117 49.712 57.1736 49.58 57.4786 49.3597C57.3933 49.5513 57.2849 49.7345 57.1361 49.9033C56.0303 51.1574 53.8502 50.3907 52.6419 49.8081C50.549 48.7987 48.2364 46.4715 45.7494 46.8584C45.4522 46.9046 45.1765 47.2803 45.2018 47.5764C45.2146 47.7252 45.2271 47.8738 45.2399 48.0226C45.2449 48.0825 45.2765 48.124 45.3328 48.1443C47.2319 48.8283 48.7581 50.9608 50.3146 52.2027C51.7248 53.3282 53.3239 54.303 55.1492 54.5193C56.6923 54.7021 58.2266 54.3043 59.5006 53.4081C60.0988 52.9872 60.6517 52.4373 61.0302 51.8064C61.2381 51.4597 61.3365 51.0631 61.434 50.6715C61.8197 50.7576 62.2235 50.8597 62.5548 50.8372C63.3272 50.7848 64.1001 50.5336 64.7837 50.1744C66.3761 49.3372 67.5413 47.9602 68.6615 46.5947C70.9807 43.7676 74.1372 40.7068 73.3511 36.7408C73.2705 36.3348 73.0198 35.9903 72.6991 35.7301C73.879 35.2187 74.732 34.0544 75.142 32.815C75.7547 30.9656 75.4168 29.3529 75.4934 27.4807Z" fill="#E0DFE6"/>
<path d="M88.8458 63.6603C87.8972 63.2631 86.9489 62.1687 86.1572 61.5265C85.1495 60.7093 84.1612 59.879 83.1767 59.0343C82.0233 58.0445 80.8597 56.9149 79.6048 55.9626C81.4785 53.7443 83.2554 50.7605 82.5406 47.9135C82.264 46.8117 80.8303 46.763 80.2536 47.6152C79.3575 48.9389 78.7643 50.3767 77.7248 51.6137C78.8331 50.045 79.6985 48.107 79.8336 46.1823C80.0917 46.0256 80.2771 45.7545 80.2636 45.4297C80.2164 44.291 79.7332 43.6707 79.1825 42.8432C79.0391 42.5676 78.88 42.2961 78.6843 42.034C77.6854 40.2161 75.0015 41.8187 75.9166 43.6492C77.5554 46.9271 72.2935 51.1812 70.0731 53.0054C67.1495 55.4074 63.7642 57.2479 60.3223 58.7943C56.8539 60.3527 53.1958 61.4189 49.7005 62.8961C48.1424 63.5545 46.7156 64.5562 46.0273 65.9279C45.9286 65.8405 45.8336 65.75 45.7285 65.6673C45.341 65.3634 44.8571 65.6452 44.9297 66.1316C45.0684 67.0621 45.4094 67.9106 45.7167 68.798C45.7898 69.0093 45.928 69.1837 46.0986 69.3188C45.1097 68.974 44.0348 69.6695 44.0067 70.7698C43.9854 71.6029 44.413 72.1247 44.7074 72.8558C44.779 73.0337 44.8143 73.2343 44.8406 73.4184C44.8443 73.444 44.8559 73.4421 44.8681 73.4303C44.8534 73.4565 44.8346 73.4911 44.8093 73.5395C44.4127 74.2983 43.8788 74.9452 43.6554 75.7915C43.5425 76.2193 43.6513 76.7204 43.9829 77.0284C44.0573 77.0983 44.1376 77.1607 44.2239 77.2166C44.629 77.4787 45.1344 77.4359 45.526 77.2275C45.7542 77.1061 45.9805 76.9548 46.2002 76.7841C45.5182 77.6022 44.9947 78.4622 45.0109 79.5912C45.0175 80.0511 45.5698 80.263 45.8989 79.9584C47.7245 78.2684 50.4278 76.9301 51.6415 74.69C52.2572 73.5532 52.4675 72.2623 52.18 71.0903C54.9723 69.7017 57.745 68.3337 60.6543 67.1604C63.9295 65.8399 67.2061 64.5243 70.35 62.9086C72.8989 61.5986 75.3903 60.049 77.5235 58.1116C78.4186 59.8393 79.7307 61.4351 81.001 62.8605C79.5301 63.6263 78.4393 65.1116 77.1415 66.1357C75.5113 67.4229 73.7991 68.608 72.2022 69.9379C69.9437 71.8186 66.6628 75.0756 69.2205 77.9745C69.5486 78.3468 70.2335 77.9548 70.0662 77.483C68.8476 74.0397 75.3694 71.2107 77.5897 69.7875C79.3613 68.652 82.0196 67.01 82.7738 64.8351C84.5494 66.8063 86.8135 69.0286 89.3874 67.7992C91.3656 66.854 90.4401 64.3277 88.8458 63.6603ZM48.3456 69.0136C47.4882 69.7354 47.7008 71.4101 48.7169 71.8906C50.0318 72.5122 48.615 74.2341 47.5404 75.3571C47.6729 75.1661 47.7948 74.973 47.8958 74.7814C48.755 73.1479 48.1162 70.596 46.5599 69.561C47.1466 69.7404 47.8255 69.5422 47.9552 68.798C48.2012 67.3835 50.3453 66.9227 51.7715 66.5635C50.5722 67.304 49.4201 68.109 48.3456 69.0136Z" fill="#E0DFE6"/>
<path d="M44.7124 45.07C44.2636 44.6587 43.4447 44.4356 42.909 44.8375C42.5839 45.0815 42.3555 45.3212 42.1286 45.6504C42.0982 45.6944 41.9885 45.837 42.0098 45.812C41.9226 45.9203 41.8338 46.0267 41.7485 46.1369C41.5688 46.3693 41.5844 46.359 41.4269 46.5466C41.3503 46.574 41.2837 46.6031 41.214 46.6461C41.1646 46.6701 41.1246 46.687 41.0846 46.7038C40.879 46.824 40.7502 47.0383 40.6883 47.2636C40.4842 48.0069 41.2375 48.616 41.9141 48.6507C42.3452 48.6728 42.7752 48.5308 43.1737 48.3514C43.5272 48.7627 44.2483 48.4806 44.4258 48.0075C44.5746 47.6109 44.7493 47.2462 44.9447 46.8705C45.2407 46.3029 45.2122 45.5278 44.7124 45.07Z" fill="#E0DFE6"/>
<path d="M78.7669 61.6467C76.7978 62.5329 75.1244 64.1799 73.4785 65.5532C71.6647 67.0665 69.76 68.584 68.2857 70.4369C67.9653 70.8397 68.3542 71.4139 68.848 71.1643C70.9134 70.1199 72.7302 68.6012 74.5405 67.1726C76.3227 65.7663 78.3331 64.4023 79.6708 62.5495C80.1006 61.9541 79.297 61.408 78.7669 61.6467Z" fill="#E0DFE6"/>
<path d="M66.8435 35.5565C65.4073 34.137 63.5007 33.15 61.9479 31.8363C60.5142 30.6234 59.2828 29.1584 57.7316 28.0912C57.4078 27.8684 57.0802 28.2354 57.1327 28.5509C57.479 30.6353 58.8161 32.4448 60.1332 34.0422C61.4997 35.6997 63.2485 37.4593 65.2707 38.2535C66.8294 38.866 67.9196 36.6196 66.8435 35.5565Z" fill="#E0DFE6"/>
<path d="M62.4115 40.1622C60.9959 39.5004 59.4256 39.4239 58.0273 38.6585C57.4171 38.3246 54.7976 37 55.248 36.0096C55.3096 35.8745 55.1805 35.7178 55.0364 35.7983C53.3683 36.7292 54.3804 38.4485 55.3724 39.6015C56.7611 41.2154 59.4753 43.0492 61.6938 42.8071C62.3252 42.7381 62.8869 42.4139 63.0647 41.7649C63.0975 41.6454 63.1191 41.5115 63.1153 41.3876C63.1022 40.9199 62.8628 40.3732 62.4115 40.1622Z" fill="#E0DFE6"/>
<path d="M43.664 68.6117C43.2828 68.6117 42.918 68.3951 42.7469 68.0272C40.5156 63.2168 39.4307 59.2808 39.4307 55.9948C39.4307 50.1105 42.6786 47.5263 45.7558 45.9995C45.7217 45.6124 45.7044 45.2361 45.7044 44.8626C45.7044 38.6403 50.3759 36.6238 52.7171 35.8688C53.0888 30.6877 58.2355 28.2729 60.413 28.0044C63.5711 23.3135 69.5708 22.1425 74.4219 21.1971C74.616 21.1588 74.8143 21.1392 75.0102 21.1392C77.6114 21.1392 79.1032 24.4154 79.4984 25.4197C81.7353 31.1051 84.9509 36.0658 89.0556 40.1638C90.1289 41.2348 90.7196 42.5795 90.7196 43.9494C90.7196 47.065 88.5286 47.4086 87.0783 47.636C86.8539 47.6715 86.6266 47.7069 86.4026 47.7513C85.8554 47.8587 85.3237 47.5071 85.2142 46.9604C85.1048 46.415 85.4593 45.8832 86.006 45.7745C86.2576 45.724 86.5125 45.6839 86.765 45.6447C88.2985 45.4037 88.6997 45.2856 88.6997 43.9494C88.6997 43.1178 88.3186 42.2797 87.6274 41.5892C83.3249 37.2938 79.9577 32.1019 77.6184 26.1574C77.0305 24.6628 75.9956 23.1557 75.0098 23.1557C74.9443 23.1557 74.8769 23.1622 74.8091 23.1753C69.1406 24.2809 64.252 25.5214 61.845 29.512C61.6527 29.8304 61.3025 30.0088 60.9283 29.999C60.8816 29.9962 60.8343 29.9952 60.7885 29.9952C59.7582 29.9952 54.7154 31.7578 54.7154 36.4683L54.7168 36.6014C54.7257 37.0556 54.4292 37.46 53.9928 37.5879C49.6581 38.863 47.7247 41.1069 47.7247 44.8626C47.7247 45.3743 47.7631 45.8977 47.8416 46.4599C47.9034 46.9015 47.6677 47.3316 47.2617 47.5165C44.2439 48.8938 41.451 50.8748 41.451 55.9944C41.451 58.9811 42.4747 62.6397 44.5806 67.1802C44.8149 67.685 44.5946 68.284 44.0886 68.5184C43.9502 68.5819 43.8061 68.6117 43.664 68.6117Z" fill="#0B409C"/>
<path d="M82.0044 55.8319C80.4265 55.8319 79.0109 55.5084 77.6767 54.843C77.1777 54.5942 76.9756 53.9886 77.2249 53.4909C77.4742 52.9923 78.0798 52.7901 78.5792 53.0394C79.6413 53.5689 80.7296 53.8159 82.0044 53.8159C84.8408 53.8159 85.3763 53.3597 85.3763 50.944C85.3763 50.0181 85.1874 47.7831 83.4355 47.0435C75.6012 43.7337 72.5426 38.7164 70.309 35.0527C68.5885 32.2299 67.6031 30.7573 65.725 30.7573C64.5011 30.7573 63.2389 32.0081 62.969 33.4895C62.8694 34.0377 62.3414 34.4 61.7947 34.3005C61.2461 34.2006 60.8823 33.6763 60.9824 33.1286C61.4304 30.6681 63.5134 28.7412 65.725 28.7412C68.8256 28.7412 70.3123 31.1798 72.0343 34.0045C74.2412 37.6244 76.9882 42.1309 84.223 45.1862C86.2396 46.0378 87.3966 48.137 87.3966 50.944C87.3962 55.0139 85.3333 55.8319 82.0044 55.8319Z" fill="#0B409C"/>
<path d="M74.673 60.6117C69.6573 60.6117 66.0941 57.4214 62.951 54.6075C60.5013 52.414 58.3856 50.5203 56.1244 50.5203C55.1802 50.5203 54.1121 50.7079 52.7638 51.1118C52.2302 51.2706 51.6666 50.9694 51.5067 50.4357C51.3468 49.9021 51.6498 49.3404 52.1844 49.1807C53.7267 48.7194 54.9787 48.5042 56.1249 48.5042C59.1591 48.5042 61.656 50.7402 64.2997 53.1069C67.3138 55.8055 70.4308 58.5961 74.6735 58.5961C75.9998 58.5961 78.1038 57.9663 78.1038 56.2747C78.1038 54.8554 76.7508 53.1307 75.1491 52.5088C70.1661 50.5735 66.7952 47.6596 64.0865 45.3176C61.9137 43.4393 60.1983 41.9555 58.691 41.9555C57.9909 41.9555 56.3358 42.1437 56.0866 43.8857C56.0075 44.4371 55.494 44.8157 54.9445 44.7415C54.3922 44.6626 54.0087 44.1523 54.0878 43.6009C54.4058 41.3766 56.2133 39.9395 58.6915 39.9395C60.9517 39.9395 62.9187 41.6399 65.409 43.7932C67.9999 46.0329 71.224 48.8212 75.8815 50.629C78.26 51.553 80.1237 54.0327 80.1237 56.2743C80.1227 59.092 77.3149 60.6117 74.673 60.6117Z" fill="#0B409C"/>
<path d="M66.2207 66.7225C63.5026 66.7225 61.3051 64.9217 58.9789 63.0153C56.4025 60.905 53.7392 58.7218 50.1171 58.7218L49.5358 58.7222C47.6417 58.7222 45.172 58.5102 44.159 57.4989C43.7648 57.1058 43.7648 56.4671 44.1586 56.0735C44.5528 55.6799 45.1921 55.6799 45.5868 56.0735C45.8941 56.3803 47.3826 56.7062 49.5358 56.7062L50.1171 56.7057C54.4617 56.7057 57.5422 59.2297 60.2598 61.4573C62.3872 63.2011 64.2252 64.7064 66.2202 64.7064C68.805 64.7064 69.5397 62.8374 70.1729 60.5795L70.2552 60.2882C70.4086 59.7522 70.968 59.444 71.5034 59.5958C72.0394 59.7485 72.3499 60.3064 72.197 60.8419L72.1175 61.123C71.5694 63.0802 70.5475 66.7225 66.2207 66.7225Z" fill="#0B409C"/>
<path d="M32.52 82.2205C32.3048 82.2205 32.0878 82.1524 31.904 82.0104C31.4621 81.6705 31.3803 81.0369 31.7212 80.5967C45.5931 62.644 50.533 58.9542 53.8048 57.6417C54.3239 57.433 54.9104 57.6851 55.1185 58.2011C55.3266 58.7174 55.076 59.3048 54.5582 59.5126C51.6952 60.6616 46.9334 64.2114 33.3201 81.8283C33.1209 82.0851 32.8221 82.2205 32.52 82.2205Z" fill="#0B409C"/>
<path d="M52.4056 107.226C52.1764 107.226 51.9458 107.149 51.7569 106.99C51.3299 106.632 51.2747 105.996 51.6334 105.57C53.1496 103.769 54.8833 102.12 56.5598 100.525C57.0934 100.018 57.6256 99.511 58.1499 99.0021C53.6463 94.4489 49.9372 90.2655 46.021 85.8496C43.1149 82.572 40.1102 79.1824 36.7434 75.6214C36.3604 75.2166 36.3791 74.5783 36.7846 74.1964C37.1905 73.8145 37.8293 73.8336 38.2119 74.2379C41.6011 77.8218 44.6166 81.2236 47.5334 84.5129C51.6339 89.138 55.5071 93.5063 60.2951 98.2975C60.6884 98.6911 60.6884 99.3294 60.2941 99.7225C59.5319 100.484 58.7438 101.233 57.953 101.986C56.3162 103.542 54.6237 105.152 53.18 106.867C52.9794 107.104 52.6936 107.226 52.4056 107.226Z" fill="#0B409C"/>
<path d="M55.8284 95.4263C55.5773 95.4263 55.3257 95.3339 55.1302 95.1466C54.7271 94.7614 54.713 94.1237 55.0984 93.7212C61.432 87.1132 63.8709 86.7257 67.5626 86.1383C72.2921 85.3871 79.439 84.2507 101.758 67.8318C103.681 66.4176 105.23 63.457 105.23 61.9494C105.23 60.6813 104.117 58.9608 102.255 58.2763C101.768 58.097 101.496 57.5788 101.627 57.0773C101.86 56.1814 101.979 55.3722 101.979 54.6728C101.979 51.9532 99.486 50.6538 97.395 50.0426C96.9335 49.9081 96.6313 49.4665 96.6725 48.9879C96.7141 48.5135 96.7338 48.0905 96.7338 47.6955C96.7338 41.8243 90.9777 40.1412 88.8106 39.5076C88.3111 39.3619 88.0361 39.2811 87.8229 39.1532C87.3444 38.867 87.1892 38.2484 87.4758 37.7703C87.7625 37.2931 88.3831 37.1371 88.8611 37.4243C88.9158 37.442 89.115 37.4957 89.3783 37.5728C91.697 38.2507 98.7531 40.3139 98.7531 47.6955C98.7531 47.9094 98.748 48.1293 98.7382 48.3585C102.139 49.5682 103.998 51.7888 103.998 54.6728C103.998 55.3204 103.925 56.0058 103.775 56.75C106.038 57.9411 107.249 60.2172 107.249 61.9499C107.249 64.2661 105.243 67.773 102.956 69.4557C80.2415 86.1645 72.8024 87.3471 67.8802 88.1297C64.3605 88.6895 62.4211 88.9981 56.5575 95.1154C56.3592 95.3222 56.0941 95.4263 55.8284 95.4263Z" fill="#0B409C"/>
<path d="M88.9944 38.6485C88.7058 38.6485 88.4196 38.6209 88.1446 38.5658C87.5979 38.4575 87.2425 37.9266 87.3514 37.3804C87.4604 36.8346 87.9884 36.4755 88.5389 36.589C88.6843 36.6179 88.8377 36.6324 88.9939 36.6324C90.7687 36.6324 95.1096 34.3539 95.1096 30.1304C95.1096 26.7744 93.7945 26.7744 92.8344 26.7744C91.4697 26.8005 83.3557 28.1718 82.6785 31.3817C82.564 31.927 82.0299 32.2781 81.4827 32.1605C80.9369 32.0456 80.5876 31.5115 80.7026 30.9666C81.811 25.7103 92.7263 24.7583 92.8344 24.7583C95.7241 24.7583 97.1289 26.5157 97.1289 30.1304C97.1294 35.6421 91.7555 38.6485 88.9944 38.6485Z" fill="#0B409C"/>
<path d="M86.7075 100.132C86.4367 100.132 86.1669 100.025 85.9681 99.8105C83.2889 96.9359 77.9757 91.4456 72.5003 86.9737C72.0686 86.6212 72.005 85.9858 72.3581 85.5548C72.7117 85.1243 73.3472 85.0613 73.7789 85.4129C79.3469 89.9609 84.7321 95.5249 87.4464 98.4374C87.8262 98.845 87.8033 99.4828 87.395 99.8614C87.2004 100.043 86.9535 100.132 86.7075 100.132Z" fill="#0B409C"/>
<path d="M115.148 93.0593C114.917 93.0593 114.686 92.9813 114.497 92.8212C112.001 90.7127 109.97 89.0827 108.18 87.6456C102.425 83.0266 99.7982 80.9186 96.0111 74.1131C95.7403 73.6261 95.9157 73.0126 96.403 72.7423C96.8917 72.4724 97.5053 72.6484 97.776 73.134C101.371 79.5949 103.735 81.4919 109.445 86.0745C111.245 87.5191 113.286 89.1569 115.801 91.2813C116.227 91.6408 116.28 92.2777 115.92 92.7021C115.719 92.9379 115.435 93.0593 115.148 93.0593Z" fill="#0B409C"/>
<path d="M91.668 110.915C91.3991 110.915 91.1312 110.809 90.9324 110.598C88.2157 107.717 85.4869 105.079 82.8212 102.759C82.6061 102.572 82.4807 102.303 82.4756 102.018C82.47 101.733 82.5855 101.46 82.7936 101.265C86.3212 97.9538 90.3127 94.8382 94.5386 91.5391C97.8122 88.9838 101.197 86.3411 104.755 83.3213C105.179 82.9604 105.817 83.0122 106.178 83.4361C106.539 83.8601 106.488 84.4964 106.063 84.8569C102.474 87.9048 99.0721 90.5595 95.7826 93.1275C91.9187 96.1436 88.2522 99.0057 84.9902 101.981C87.4366 104.159 89.926 106.589 92.4032 109.216C92.7853 109.622 92.7661 110.26 92.3597 110.642C92.1647 110.825 91.9159 110.915 91.668 110.915Z" fill="#0B409C"/>
<path d="M83.1172 95.5009C82.7814 95.5009 82.4536 95.3343 82.2618 95.0298C81.9649 94.5592 82.1066 93.9364 82.5785 93.6399C85.8671 91.5734 88.9022 89.0727 91.8378 86.6542C94.5601 84.4117 97.3754 82.0926 100.379 80.1312C100.845 79.8282 101.472 79.9584 101.777 80.4235C102.082 80.8894 101.951 81.5141 101.484 81.8195C98.5745 83.7188 95.8031 86.0019 93.1229 88.2099C90.1383 90.6686 87.0521 93.2104 83.6546 95.3464C83.4871 95.4515 83.301 95.5009 83.1172 95.5009Z" fill="#0B409C"/>
<path d="M90.0055 95.501C89.6987 95.501 89.3952 95.3618 89.1969 95.0976L87.0597 92.2528C86.7248 91.8073 86.8151 91.1752 87.2617 90.8409C87.7069 90.5075 88.3411 90.5976 88.675 91.0426L90.8131 93.8888C91.148 94.3337 91.0568 94.9659 90.6111 95.2997C90.4287 95.4356 90.2164 95.501 90.0055 95.501Z" fill="#0B409C"/>
<path d="M95.4687 90.9949C95.162 90.9949 94.8589 90.8557 94.6606 90.5919L92.5225 87.7457C92.1876 87.3008 92.2788 86.6686 92.7245 86.3348C93.1716 86.0014 93.8043 86.0906 94.1382 86.5369L96.2755 89.3817C96.6103 89.8271 96.5201 90.4593 96.0734 90.7936C95.8924 90.9295 95.6797 90.9949 95.4687 90.9949Z" fill="#0B409C"/>
<path d="M100.931 88.1493C100.71 88.1493 100.487 88.077 100.301 87.929C99.7556 87.4934 99.3197 86.9956 98.8979 86.5152C98.3498 85.8891 97.8316 85.2985 97.1539 84.9604C96.6554 84.7111 96.4534 84.106 96.7022 83.6079C96.9528 83.1097 97.5589 82.9103 98.057 83.1568C99.0896 83.6718 99.7949 84.4772 100.417 85.1869C100.797 85.6206 101.157 86.031 101.562 86.3537C101.997 86.7015 102.068 87.336 101.719 87.7707C101.521 88.02 101.227 88.1493 100.931 88.1493Z" fill="#0B409C"/>
</g>
<defs>
<clipPath id="clip0_39_834">
<rect width="81.4891" height="89.7762" fill="white" transform="translate(31.5107 21.1392)"/>
</clipPath>
</defs>
</svg>
