<svg width="55" height="61" viewBox="0 0 55 61" fill="none" xmlns="http://www.w3.org/2000/svg">
<g clip-path="url(#clip0_8_486)">
<path d="M44.1553 6.78654C44.1781 6.23236 43.6699 6.00956 43.2476 6.13032C42.9404 5.65696 42.3484 5.37581 41.6448 5.47972C40.5681 5.63855 39.8142 6.53816 39.0219 7.20967C38.312 7.81097 37.5585 8.38419 36.9981 9.13215C36.6408 9.60863 37.139 10.1694 37.6175 10.2099C38.6174 10.2945 39.676 9.94377 40.5909 9.57431C40.8262 9.47945 41.0672 9.38303 41.3054 9.28037C40.3286 10.7211 39.2263 12.1043 38.7652 13.7622C38.664 14.1267 38.7462 14.4774 38.9368 14.7542C38.784 14.8718 38.6455 15.0119 38.5299 15.1695C37.6944 16.3094 38.0489 17.717 37.3378 18.9545C36.5227 20.3737 35.3431 21.6287 34.3101 22.8916C33.5643 23.8033 32.4573 25.5336 31.2377 25.835C29.8428 26.1795 28.7451 25.1401 27.3523 26.1698C27.1354 26.3302 26.9751 26.509 26.85 26.6994C26.2921 25.2359 24.9531 24.6146 23.7795 23.6832C22.8196 22.9212 21.8104 21.7301 20.6052 21.3897C19.9754 21.2118 19.4919 21.6989 19.4306 22.2831C19.2884 23.6408 20.3777 25.1042 21.1547 26.1283C22.1477 27.437 23.3516 28.9242 25.105 29.0016C25.4736 29.0178 25.8355 28.8858 26.1405 28.6655C26.0552 28.8571 25.9468 29.0403 25.798 29.2091C24.6922 30.4632 22.5121 29.6965 21.3038 29.1139C19.2109 28.1045 16.8983 25.7773 14.4113 26.1642C14.1141 26.2104 13.8384 26.5861 13.8637 26.8822C13.8765 27.0311 13.889 27.1796 13.9018 27.3285C13.9068 27.3884 13.9384 27.4299 13.9947 27.4501C15.8938 28.1341 17.42 30.2666 18.9765 31.5085C20.3867 32.6341 21.9858 33.6089 23.8111 33.8251C25.3542 34.008 26.8885 33.6101 28.1625 32.714C28.7607 32.293 29.3136 31.7432 29.6921 31.1123C29.8999 30.7656 29.9984 30.369 30.0959 29.9774C30.4816 30.0635 30.8854 30.1655 31.2167 30.1431C31.9891 30.0906 32.762 29.8394 33.4456 29.4803C35.038 28.6431 36.2032 27.266 37.3234 25.9006C39.6426 23.0735 42.7991 20.0127 42.013 16.0466C41.9324 15.6407 41.6817 15.2962 41.361 15.0359C42.5409 14.5245 43.3939 13.3603 43.8039 12.1209C44.4166 10.2714 44.0787 8.65878 44.1553 6.78654Z" fill="#E0DFE6"/>
<path d="M57.5073 42.9657C56.5587 42.5685 55.6104 41.4741 54.8187 40.832C53.811 40.0147 52.8227 39.1844 51.8382 38.3397C50.6848 37.3499 49.5212 36.2203 48.2663 35.268C50.14 33.0497 51.9169 30.066 51.2021 27.2189C50.9255 26.1171 49.4918 26.0684 48.9151 26.9206C48.019 28.2443 47.4258 29.6822 46.3863 30.9191C47.4946 29.3505 48.36 27.4124 48.4951 25.4877C48.7532 25.3311 48.9386 25.0599 48.9251 24.7351C48.8779 23.5964 48.3947 22.9761 47.844 22.1486C47.7006 21.873 47.5415 21.6016 47.3458 21.3395C46.3469 19.5215 43.663 21.1241 44.5781 22.9546C46.2169 26.2326 40.955 30.4866 38.7346 32.3108C35.811 34.7129 32.4257 36.5533 28.9838 38.0997C25.5154 39.6581 21.8573 40.7243 18.362 42.2015C16.8039 42.8599 15.3771 43.8616 14.6888 45.2333C14.5901 45.1459 14.4951 45.0554 14.39 44.9727C14.0025 44.6688 13.5186 44.9506 13.5912 45.4371C13.7299 46.3676 14.0709 47.216 14.3782 48.1034C14.4513 48.3147 14.5895 48.4891 14.7601 48.6242C13.7712 48.2794 12.6963 48.975 12.6682 50.0752C12.6469 50.9084 13.0745 51.4301 13.3689 52.1612C13.4405 52.3391 13.4758 52.5397 13.5021 52.7238C13.5058 52.7494 13.5174 52.7475 13.5296 52.7357C13.5149 52.7619 13.4961 52.7965 13.4708 52.8449C13.0742 53.6038 12.5403 54.2506 12.3169 55.0969C12.204 55.5247 12.3128 56.0258 12.6444 56.3338C12.7188 56.4037 12.7991 56.4661 12.8854 56.522C13.2905 56.7841 13.7959 56.7413 14.1875 56.5329C14.4157 56.4115 14.642 56.2602 14.8617 56.0895C14.1797 56.9077 13.6562 57.7676 13.6724 58.8966C13.679 59.3565 14.2313 59.5684 14.5604 59.2639C16.386 57.5739 19.0893 56.2355 20.303 53.9954C20.9187 52.8586 21.129 51.5677 20.8415 50.3957C23.6338 49.0071 26.4065 47.6391 29.3158 46.4659C32.591 45.1453 35.8675 43.8297 39.0115 42.214C41.5604 40.9041 44.0518 39.3545 46.185 37.417C47.0801 39.1448 48.3922 40.7405 49.6625 42.1659C48.1916 42.9317 47.1008 44.417 45.803 45.4411C44.1728 46.7283 42.4606 47.9134 40.8637 49.2433C38.6052 51.124 35.3243 54.3811 37.882 57.2799C38.2101 57.6522 38.895 57.2603 38.7277 56.7885C37.5091 53.3451 44.0309 50.5161 46.2512 49.0929C48.0228 47.9574 50.6811 46.3155 51.4353 44.1405C53.2109 46.1117 55.475 48.334 58.0489 47.1046C60.0271 46.1594 59.1016 43.6332 57.5073 42.9657ZM17.0071 48.3191C16.1497 49.0408 16.3623 50.7155 17.3784 51.1961C18.6933 51.8177 17.2765 53.5395 16.2019 54.6625C16.3344 54.4716 16.4563 54.2784 16.5573 54.0868C17.4165 52.4533 16.7777 49.9014 15.2214 48.8664C15.8081 49.0458 16.487 48.8477 16.6167 48.1034C16.8627 46.689 19.0068 46.2281 20.433 45.8689C19.2337 46.6094 18.0816 47.4145 17.0071 48.3191Z" fill="#E0DFE6"/>
<path d="M13.3736 24.3756C12.9248 23.9643 12.1059 23.7412 11.5702 24.1431C11.2451 24.3871 11.0166 24.6268 10.7897 24.956C10.7594 25 10.6497 25.1426 10.6709 25.1176C10.5837 25.2259 10.495 25.3323 10.4097 25.4425C10.2299 25.6749 10.2456 25.6646 10.088 25.8522C10.0115 25.8796 9.94489 25.9087 9.87519 25.9517C9.8258 25.9757 9.78579 25.9926 9.74579 26.0094C9.54013 26.1296 9.41135 26.344 9.34947 26.5692C9.14537 27.3125 9.89863 27.9216 10.5753 27.9563C11.0063 27.9784 11.4364 27.8364 11.8349 27.657C12.1884 28.0683 12.9095 27.7862 13.087 27.3131C13.2358 26.9165 13.4105 26.5518 13.6058 26.1761C13.9018 25.6085 13.8734 24.8334 13.3736 24.3756Z" fill="#E0DFE6"/>
<path d="M47.428 40.9521C45.4589 41.8383 43.7855 43.4853 42.1396 44.8586C40.3258 46.372 38.4211 47.8894 36.9468 49.7423C36.6264 50.1452 37.0152 50.7193 37.5091 50.4697C39.5744 49.4253 41.3913 47.9066 43.2016 46.4781C44.9838 45.0717 46.9942 43.7078 48.3319 41.8549C48.7617 41.2595 47.9581 40.7134 47.428 40.9521Z" fill="#E0DFE6"/>
<path d="M35.505 14.8618C34.0688 13.4423 32.1622 12.4554 30.6094 11.1417C29.1757 9.92878 27.9443 8.46375 26.3931 7.39657C26.0693 7.17378 25.7417 7.54074 25.7942 7.85621C26.1405 9.94064 27.4776 11.7502 28.7947 13.3475C30.1612 15.005 31.91 16.7646 33.9322 17.5588C35.4909 18.1713 36.5811 15.9249 35.505 14.8618Z" fill="#E0DFE6"/>
<path d="M31.073 19.4679C29.6574 18.806 28.0871 18.7296 26.6888 17.9641C26.0786 17.6303 23.4591 16.3056 23.9095 15.3152C23.9711 15.1801 23.842 15.0235 23.6979 15.104C22.0298 16.0348 23.0419 17.7541 24.0339 18.9071C25.4226 20.521 28.1368 22.3549 30.3553 22.1127C30.9867 22.0438 31.5484 21.7195 31.7262 21.0705C31.759 20.951 31.7806 20.8171 31.7768 20.6932C31.7637 20.2255 31.5243 19.6788 31.073 19.4679Z" fill="#E0DFE6"/>
<path d="M8.30227 32.2007C8.0473 32.2007 7.80329 32.0558 7.68879 31.8097C6.19624 28.5918 5.47046 25.9589 5.47046 23.7608C5.47046 19.8246 7.64312 18.0959 9.70159 17.0746C9.67875 16.8157 9.66718 16.5639 9.66718 16.3141C9.66718 12.1517 12.7921 10.8028 14.3582 10.2978C14.6069 6.83195 18.0497 5.21662 19.5062 5.03703C21.6188 1.89913 25.6322 1.11582 28.8773 0.483369C29.0071 0.457759 29.1398 0.444641 29.2708 0.444641C31.0108 0.444641 32.0088 2.63621 32.2731 3.30802C33.7695 7.11117 35.9205 10.4296 38.6663 13.1709C39.3843 13.8873 39.7794 14.7868 39.7794 15.7032C39.7794 17.7873 38.3137 18.0172 37.3436 18.1693C37.1935 18.193 37.0414 18.2167 36.8916 18.2464C36.5256 18.3182 36.1699 18.0831 36.0967 17.7173C36.0234 17.3525 36.2606 16.9968 36.6263 16.924C36.7946 16.8903 36.9651 16.8634 37.134 16.8372C38.1598 16.6761 38.4282 16.597 38.4282 15.7032C38.4282 15.1469 38.1733 14.5863 37.7109 14.1244C34.8328 11.251 32.5804 7.77798 31.0155 3.80149C30.6223 2.80174 29.93 1.79356 29.2705 1.79356C29.2267 1.79356 29.1817 1.79794 29.1363 1.80668C25.3444 2.54626 22.0743 3.3761 20.4641 6.04552C20.3356 6.25853 20.1013 6.37784 19.851 6.37128C19.8197 6.3694 19.7881 6.36878 19.7574 6.36878C19.0683 6.36878 15.6949 7.5478 15.6949 10.6988L15.6959 10.7878C15.7018 11.0917 15.5035 11.3622 15.2116 11.4478C12.3119 12.3007 11.0186 13.8017 11.0186 16.3141C11.0186 16.6564 11.0443 17.0065 11.0968 17.3825C11.1381 17.678 10.9805 17.9656 10.7089 18.0893C8.69019 19.0107 6.82192 20.3359 6.82192 23.7605C6.82192 25.7584 7.50672 28.2058 8.91543 31.2431C9.07216 31.5807 8.92481 31.9814 8.58632 32.1382C8.49372 32.1807 8.39737 32.2007 8.30227 32.2007Z" fill="#0B409C"/>
<path d="M33.949 23.6518C32.8935 23.6518 31.9466 23.4353 31.054 22.9903C30.7202 22.8238 30.5851 22.4187 30.7518 22.0858C30.9186 21.7522 31.3237 21.617 31.6578 21.7838C32.3683 22.1379 33.0962 22.3032 33.949 22.3032C35.8464 22.3032 36.2046 21.998 36.2046 20.3821C36.2046 19.7627 36.0782 18.2676 34.9063 17.7729C29.6657 15.5589 27.6197 12.2027 26.1256 9.75185C24.9747 7.86355 24.3155 6.87849 23.0591 6.87849C22.2404 6.87849 21.3961 7.7152 21.2156 8.7062C21.149 9.07287 20.7958 9.31523 20.4301 9.2487C20.0631 9.18187 19.8197 8.83113 19.8867 8.46477C20.1864 6.81883 21.5797 5.52988 23.0591 5.52988C25.1333 5.52988 26.1278 7.16114 27.2796 9.05069C28.7559 11.4721 30.5935 14.4867 35.4331 16.5305C36.7821 17.1002 37.556 18.5044 37.556 20.3821C37.5557 23.1046 36.1758 23.6518 33.949 23.6518Z" fill="#0B409C"/>
<path d="M29.045 26.8493C25.6898 26.8493 23.3063 24.7152 21.2037 22.8329C19.565 21.3656 18.1498 20.0988 16.6372 20.0988C16.0056 20.0988 15.291 20.2243 14.3891 20.4945C14.0322 20.6007 13.6552 20.3992 13.5482 20.0423C13.4412 19.6853 13.644 19.3096 14.0015 19.2027C15.0333 18.8942 15.8707 18.7502 16.6375 18.7502C18.6672 18.7502 20.3374 20.2459 22.1059 21.8291C24.1221 23.6343 26.2072 25.501 29.0453 25.501C29.9325 25.501 31.3399 25.0797 31.3399 23.9482C31.3399 22.9987 30.4349 21.845 29.3634 21.429C26.0301 20.1344 23.7752 18.1852 21.9633 16.6186C20.5098 15.3621 19.3623 14.3695 18.354 14.3695C17.8857 14.3695 16.7786 14.4954 16.6118 15.6607C16.559 16.0295 16.2155 16.2828 15.8479 16.2332C15.4784 16.1804 15.2219 15.839 15.2748 15.4702C15.4875 13.9823 16.6966 13.0209 18.3544 13.0209C19.8663 13.0209 21.1821 14.1584 22.848 15.5988C24.5811 17.0971 26.7378 18.9622 29.8533 20.1716C31.4444 20.7896 32.6911 22.4484 32.6911 23.9479C32.6905 25.8327 30.8122 26.8493 29.045 26.8493Z" fill="#0B409C"/>
<path d="M23.3908 30.937C21.5725 30.937 20.1025 29.7324 18.5465 28.4572C16.823 27.0455 15.0414 25.5851 12.6185 25.5851L12.2296 25.5854C10.9627 25.5854 9.31056 25.4436 8.63295 24.7671C8.36923 24.5041 8.36923 24.0768 8.63264 23.8136C8.89636 23.5503 9.32401 23.5503 9.58804 23.8136C9.79358 24.0188 10.7893 24.2368 12.2296 24.2368L12.6185 24.2364C15.5248 24.2364 17.5854 25.9249 19.4033 27.4149C20.8264 28.5815 22.0559 29.5884 23.3904 29.5884C25.1195 29.5884 25.611 28.3382 26.0345 26.8278L26.0896 26.6329C26.1922 26.2743 26.5664 26.0682 26.9246 26.1697C27.2831 26.2718 27.4908 26.6451 27.3885 27.0033L27.3353 27.1913C26.9687 28.5006 26.2851 30.937 23.3908 30.937Z" fill="#0B409C"/>
<path d="M0.847349 41.304C0.703444 41.304 0.558287 41.2584 0.435342 41.1634C0.13971 40.9361 0.0849637 40.5122 0.313022 40.2177C9.59242 28.2086 12.8969 25.7403 15.0855 24.8624C15.4328 24.7228 15.8251 24.8914 15.9643 25.2365C16.1035 25.582 15.9358 25.9749 15.5895 26.1138C13.6743 26.8825 10.489 29.2571 1.38261 41.0416C1.24935 41.2134 1.04944 41.304 0.847349 41.304Z" fill="#0B409C"/>
<path d="M14.1495 58.0313C13.9962 58.0313 13.842 57.9795 13.7156 57.8733C13.43 57.6337 13.3931 57.208 13.633 56.9232C14.6473 55.7183 15.8069 54.6155 16.9285 53.5486C17.2854 53.2091 17.6414 52.8702 17.9921 52.5298C14.9795 49.484 12.4984 46.6856 9.87867 43.7316C7.93469 41.5391 5.92471 39.2717 3.67259 36.8896C3.41638 36.6188 3.42889 36.1919 3.70012 35.9364C3.97167 35.6809 4.399 35.6937 4.6549 35.9642C6.92204 38.3616 8.93922 40.6371 10.8904 42.8375C13.6333 45.9313 16.2243 48.8534 19.4271 52.0585C19.6902 52.3218 19.6902 52.7487 19.4265 53.0117C18.9165 53.5211 18.3894 54.0224 17.8604 54.5255C16.7655 55.5668 15.6333 56.6437 14.6676 57.7912C14.5334 57.9495 14.3422 58.0313 14.1495 58.0313Z" fill="#0B409C"/>
<path d="M16.4389 50.1377C16.2709 50.1377 16.1026 50.0759 15.9718 49.9506C15.7021 49.6929 15.6928 49.2663 15.9505 48.9971C20.1873 44.5768 21.8187 44.3176 24.2883 43.9247C27.452 43.4221 32.2328 42.6619 47.1627 31.6788C48.4491 30.7328 49.4852 28.7523 49.4852 27.7438C49.4852 26.8956 48.7409 25.7447 47.4955 25.2868C47.1696 25.1669 46.9878 24.8202 47.0754 24.4848C47.2312 23.8854 47.3103 23.3442 47.3103 22.8763C47.3103 21.057 45.6429 20.1878 44.2442 19.779C43.9354 19.689 43.7333 19.3936 43.7609 19.0735C43.7887 18.7561 43.8019 18.4732 43.8019 18.2089C43.8019 14.2815 39.9515 13.1556 38.5018 12.7317C38.1676 12.6343 37.9837 12.5803 37.841 12.4947C37.521 12.3032 37.4172 11.8894 37.6089 11.5696C37.8007 11.2504 38.2158 11.1461 38.5355 11.3382C38.5721 11.35 38.7054 11.3859 38.8815 11.4375C40.4326 11.891 45.1527 13.2711 45.1527 18.2089C45.1527 18.352 45.1492 18.4991 45.1427 18.6524C47.4173 19.4617 48.6612 20.9471 48.6612 22.8763C48.6612 23.3095 48.6121 23.768 48.5119 24.2658C50.0258 25.0626 50.836 26.5851 50.836 27.7442C50.836 29.2936 49.4939 31.6394 47.9639 32.7651C32.7696 43.9422 27.7933 44.7333 24.5007 45.2567C22.1463 45.6312 20.8489 45.8376 16.9266 49.9297C16.7939 50.068 16.6166 50.1377 16.4389 50.1377Z" fill="#0B409C"/>
<path d="M38.625 12.1574C38.432 12.1574 38.2405 12.1389 38.0566 12.1021C37.6909 12.0296 37.4531 11.6745 37.526 11.3091C37.5989 10.944 37.9521 10.7038 38.3203 10.7797C38.4176 10.7991 38.5202 10.8087 38.6247 10.8087C39.8119 10.8087 42.7157 9.28461 42.7157 6.45934C42.7157 4.21436 41.836 4.21436 41.1937 4.21436C40.2808 4.23185 34.8531 5.14914 34.4001 7.29636C34.3235 7.66116 33.9662 7.89602 33.6002 7.81732C33.2351 7.74049 33.0014 7.38319 33.0784 7.01871C33.8198 3.50258 41.1214 2.86575 41.1937 2.86575C43.1267 2.86575 44.0665 4.04134 44.0665 6.45934C44.0668 10.1463 40.472 12.1574 38.625 12.1574Z" fill="#0B409C"/>
<path d="M37.0955 53.2856C36.9144 53.2856 36.7339 53.2138 36.6009 53.0704C34.8087 51.1474 31.2545 47.4748 27.5918 44.4834C27.3031 44.2476 27.2605 43.8225 27.4967 43.5342C27.7332 43.2463 28.1584 43.2041 28.4471 43.4393C32.1718 46.4816 35.7741 50.2036 37.5898 52.1519C37.8438 52.4245 37.8285 52.8511 37.5554 53.1044C37.4253 53.2256 37.2601 53.2856 37.0955 53.2856Z" fill="#0B409C"/>
<path d="M56.1199 48.5545C55.9656 48.5545 55.8111 48.5024 55.6841 48.3953C54.0148 46.9848 52.6564 45.8945 51.4586 44.9332C47.6088 41.8433 45.8519 40.4332 43.3185 35.8808C43.1374 35.555 43.2547 35.1447 43.5807 34.9638C43.9076 34.7833 44.3181 34.901 44.4992 35.2259C46.9043 39.5478 48.4851 40.8167 52.3048 43.8822C53.5092 44.8485 54.8741 45.9441 56.5566 47.3652C56.8416 47.6057 56.8769 48.0317 56.636 48.3156C56.5022 48.4733 56.3119 48.5545 56.1199 48.5545Z" fill="#0B409C"/>
<path d="M40.4135 60.499C40.2336 60.499 40.0544 60.4278 39.9214 60.2869C38.1041 58.3592 36.2787 56.5949 34.4955 55.043C34.3516 54.9178 34.2678 54.7379 34.2644 54.5473C34.2606 54.3568 34.3379 54.1738 34.4771 54.0433C36.8368 51.8286 39.5069 49.7444 42.3337 47.5376C44.5236 45.8282 46.7879 44.0605 49.1679 42.0404C49.4517 41.799 49.8784 41.8336 50.1199 42.1172C50.3614 42.4008 50.3273 42.8265 50.043 43.0676C47.6419 45.1064 45.3663 46.8823 43.1658 48.6001C40.5812 50.6177 38.1285 52.5322 35.9465 54.5224C37.5829 55.9793 39.2482 57.605 40.9053 59.3624C41.1609 59.6338 41.148 60.0605 40.8762 60.3159C40.7457 60.4384 40.5793 60.499 40.4135 60.499Z" fill="#0B409C"/>
<path d="M34.6936 50.1877C34.4689 50.1877 34.2496 50.0762 34.1214 49.8725C33.9227 49.5577 34.0175 49.1411 34.3332 48.9427C36.5331 47.5604 38.5634 45.8876 40.5271 44.2698C42.3481 42.7697 44.2314 41.2184 46.2407 39.9063C46.5526 39.7036 46.9718 39.7908 47.1755 40.1018C47.3798 40.4135 47.2922 40.8314 46.98 41.0357C45.0335 42.3062 43.1796 43.8335 41.3867 45.3104C39.3902 46.9551 37.3258 48.6554 35.053 50.0843C34.941 50.1546 34.8165 50.1877 34.6936 50.1877Z" fill="#0B409C"/>
<path d="M39.3013 50.1877C39.0961 50.1877 38.8931 50.0946 38.7604 49.9178L37.3308 48.0149C37.1068 47.7169 37.1672 47.294 37.4659 47.0704C37.7637 46.8474 38.1879 46.9077 38.4113 47.2053L39.8416 49.1092C40.0656 49.4069 40.0046 49.8298 39.7065 50.0531C39.5845 50.144 39.4424 50.1877 39.3013 50.1877Z" fill="#0B409C"/>
<path d="M42.9559 47.1734C42.7507 47.1734 42.548 47.0804 42.4154 46.9039L40.9851 45C40.7611 44.7023 40.8221 44.2795 41.1202 44.0562C41.4193 43.8332 41.8426 43.8928 42.0659 44.1914L43.4956 46.0944C43.7196 46.3923 43.6592 46.8152 43.3604 47.0388C43.2394 47.1297 43.097 47.1734 42.9559 47.1734Z" fill="#0B409C"/>
<path d="M46.6099 45.2701C46.4619 45.2701 46.313 45.2217 46.1885 45.1227C45.8237 44.8313 45.5321 44.4984 45.25 44.177C44.8833 43.7582 44.5367 43.3631 44.0834 43.137C43.7499 42.9702 43.6148 42.5654 43.7812 42.2322C43.9489 41.8989 44.3543 41.7656 44.6875 41.9305C45.3782 42.275 45.85 42.8137 46.2664 43.2885C46.5204 43.5786 46.761 43.8531 47.0319 44.069C47.3231 44.3016 47.3704 44.7261 47.1373 45.0169C47.0044 45.1836 46.8079 45.2701 46.6099 45.2701Z" fill="#0B409C"/>
</g>
<defs>
<clipPath id="clip0_8_486">
<rect width="54.5109" height="60.0543" fill="white" transform="translate(0.172241 0.444641)"/>
</clipPath>
</defs>
</svg>
