<svg width="29" height="26" viewBox="0 0 29 26" fill="none" xmlns="http://www.w3.org/2000/svg">
<path d="M18.9009 1.08639C18.1438 1.08639 17.5301 1.66944 17.5301 2.38867C17.5301 3.1079 18.1438 3.69095 18.9009 3.69095C19.621 3.69095 20.334 3.82569 20.9993 4.08748C21.6646 4.34926 22.269 4.73296 22.7782 5.21667C23.2874 5.70039 23.6913 6.27464 23.9668 6.90664C24.2424 7.53864 24.3842 8.21601 24.3842 8.90009C24.3842 9.61932 24.998 10.2024 25.755 10.2024C26.5121 10.2024 27.1259 9.61932 27.1259 8.90009C27.1259 7.87398 26.9131 6.85792 26.4998 5.90991C26.0864 4.96191 25.4806 4.10054 24.7168 3.37497C23.9531 2.6494 23.0464 2.07385 22.0485 1.68117C21.0506 1.2885 19.981 1.08639 18.9009 1.08639Z" fill="#1E1E1E"/>
<path d="M19.0486 5.06246C18.303 4.93757 17.592 5.41052 17.4606 6.11882C17.3291 6.82713 17.8269 7.50257 18.5725 7.62746C19.0002 7.69909 19.3929 7.8975 19.6946 8.19424C19.9962 8.49099 20.1912 8.87084 20.2517 9.27934C20.357 9.99158 21.0502 10.4878 21.7999 10.3877C22.5497 10.2876 23.072 9.62909 22.9666 8.91686C22.8256 7.96367 22.3706 7.07736 21.6668 6.38496C20.9629 5.69256 20.0464 5.22961 19.0486 5.06246Z" fill="#1E1E1E"/>
<path fill-rule="evenodd" clip-rule="evenodd" d="M21.0289 26.0023C19.0536 25.9333 13.4597 25.1996 7.60168 19.6344C1.74361 14.0692 0.9713 8.75505 0.898608 6.87853C0.787854 4.01942 3.09331 1.2414 5.75764 0.156633C6.38283 -0.0979069 7.14006 -0.0513239 7.73867 0.363493C9.93033 1.88224 11.4446 4.17847 12.7446 5.98515C13.3318 6.80127 13.1915 7.91558 12.3938 8.57156L9.71909 10.4586C9.45399 10.6456 9.36584 10.9856 9.52484 11.2605C10.13 12.307 11.2081 13.8643 12.4418 15.0363C13.6768 16.2096 15.3935 17.2999 16.5707 17.9395C16.876 18.1053 17.26 18.0093 17.453 17.73L19.1931 15.2121C19.8603 14.3685 21.1063 14.1842 22.012 14.7797C23.9414 16.0483 26.192 17.4609 27.84 19.4659C28.3083 20.0355 28.3779 20.7805 28.0986 21.3996C26.9515 23.9423 24.0486 26.1079 21.0289 26.0023Z" fill="#1E1E1E"/>
</svg>
