<svg width="60" height="61" viewBox="0 0 60 61" fill="none" xmlns="http://www.w3.org/2000/svg">
<rect y="0.5" width="60" height="60" rx="8" fill="#0B409C" fill-opacity="0.21"/>
<path opacity="0.4" d="M36.4999 15.4167H21.0562C17.6728 15.4167 14.9312 18.1583 14.9312 21.5271V30.5396V30.8167C14.9312 34.2 17.6728 36.9271 21.0416 36.9271H26.2916C27.0937 36.9271 27.7499 37.5833 27.7499 38.3854V39.5812C27.7499 40.3833 27.0937 41.0396 26.2916 41.0396H23.0103C22.4416 41.0396 21.9749 41.5062 21.9749 42.075C21.9749 42.6437 22.4416 43.1104 23.0103 43.1104H34.5749C35.1437 43.1104 35.6103 42.6437 35.6103 42.075C35.6103 41.5062 35.1437 41.0396 34.5749 41.0396H31.2937C30.4916 41.0396 29.8353 40.3833 29.8353 39.5812V38.3854C29.8353 37.5833 30.4916 36.9271 31.2937 36.9271H36.4999C39.8832 36.9271 42.6103 34.1854 42.6103 30.8167V30.5396V21.5271C42.6103 18.1583 39.8687 15.4167 36.4999 15.4167Z" fill="#0B409C"/>
<path d="M40.6416 26.3542H32.927C30.4041 26.3542 29.4854 27.2729 29.4854 29.825V41.0979C29.4854 43.6646 30.3895 44.5687 32.927 44.5687H40.6416C43.1645 44.5687 44.0833 43.65 44.0833 41.0979V29.825C44.0833 27.2583 43.1791 26.3542 40.6416 26.3542ZM36.7916 42.1333C35.902 42.1333 35.1874 41.4187 35.1874 40.5292C35.1874 39.6396 35.902 38.925 36.7916 38.925C37.6812 38.925 38.3958 39.6396 38.3958 40.5292C38.3958 41.4187 37.6812 42.1333 36.7916 42.1333Z" fill="#0B409C"/>
<path opacity="0.4" d="M38.3958 40.5292C38.3958 41.4187 37.6813 42.1333 36.7917 42.1333C35.9021 42.1333 35.1875 41.4187 35.1875 40.5292C35.1875 39.6396 35.9021 38.925 36.7917 38.925C37.6813 38.925 38.3958 39.6542 38.3958 40.5292Z" fill="#0B409C"/>
</svg>
