<svg width="60" height="60" viewBox="0 0 60 60" fill="none" xmlns="http://www.w3.org/2000/svg">
<rect width="60" height="60" rx="8" fill="#0B409C" fill-opacity="0.21"/>
<path d="M42.7563 21.8883C41.5167 20.5567 39.4458 19.8908 36.4417 19.8908H36.0917V19.8342C36.0917 17.4542 36.0917 14.5075 30.6083 14.5075H28.3917C22.9083 14.5075 22.9083 17.4683 22.9083 19.8342V19.905H22.5583C19.5396 19.905 17.4833 20.5708 16.2438 21.9025C14.8 23.4608 14.8438 25.5575 14.9896 26.9883L15.0042 27.0875L15.15 28.575C15.1646 28.5892 15.1938 28.6175 15.2229 28.6317C15.7042 28.9433 16.2 29.255 16.725 29.5383C16.9292 29.6658 17.1479 29.7792 17.3667 29.8925C19.8604 31.2242 22.6021 32.1167 25.3875 32.5558C25.5188 33.8875 26.1167 35.4458 29.3104 35.4458C32.5042 35.4458 33.1313 33.9017 33.2333 32.5275C36.2083 32.06 39.0813 31.0542 41.6771 29.5808C41.7646 29.5383 41.8229 29.4958 41.8958 29.4533C42.5667 29.085 43.1938 28.6883 43.8063 28.2492C43.8354 28.235 43.8646 28.2067 43.8792 28.1783L43.9375 27.6683L44.0104 27.0025C44.025 26.9175 44.025 26.8467 44.0396 26.7475C44.1563 25.3167 44.1271 23.3617 42.7563 21.8883ZM31.0896 31.5925C31.0896 33.0942 31.0896 33.3208 29.2958 33.3208C27.5021 33.3208 27.5021 33.0517 27.5021 31.6067V29.8217H31.0896V31.5925ZM24.9938 19.8908V19.8342C24.9938 17.4258 24.9938 16.5333 28.3917 16.5333H30.6083C34.0063 16.5333 34.0063 17.44 34.0063 19.8342V19.905H24.9938V19.8908Z" fill="#0B409C"/>
<path opacity="0.4" d="M41.8957 29.425C41.8228 29.4675 41.7499 29.51 41.677 29.5525C39.0812 31.0258 36.2082 32.0175 33.2332 32.4992C33.1166 33.8592 32.5041 35.4175 29.3103 35.4175C26.1166 35.4175 25.5041 33.8733 25.3874 32.5275C22.602 32.1025 19.8603 31.21 17.3666 29.8642C17.1478 29.7508 16.9291 29.6375 16.7249 29.51C16.1999 29.2267 15.7041 28.915 15.2228 28.6033C15.1937 28.5892 15.1645 28.5608 15.1499 28.5467L16.0395 37.7692C16.3457 40.5883 17.5416 43.4925 23.9582 43.4925H35.0707C41.4874 43.4925 42.6832 40.5883 42.9895 37.755L43.9082 28.15C43.8937 28.1783 43.8645 28.2067 43.8353 28.2208C43.2082 28.66 42.5666 29.0708 41.8957 29.425Z" fill="#0B409C"/>
</svg>
