<svg width="80" height="80" viewBox="0 0 80 80" fill="none" xmlns="http://www.w3.org/2000/svg">
<path opacity="0.4" d="M53.792 6.98853H26.2078C14.2262 6.98853 7.08325 14.1314 7.08325 26.1131V53.6644C7.08325 65.6789 14.2262 72.8219 26.2078 72.8219H53.7591C65.7408 72.8219 72.8837 65.6789 72.8837 53.6973V26.1131C72.9166 14.1314 65.7737 6.98853 53.792 6.98853Z" fill="white"/>
<path d="M23.1465 62.6177C21.7969 62.6177 20.6777 61.4985 20.6777 60.149V53.3352C20.6777 51.9856 21.7969 50.8665 23.1465 50.8665C24.4961 50.8665 25.6152 51.9856 25.6152 53.3352V60.149C25.6152 61.5315 24.4961 62.6177 23.1465 62.6177Z" fill="white"/>
<path d="M40 62.6177C38.6504 62.6177 37.5312 61.4985 37.5312 60.1489V46.4885C37.5312 45.1389 38.6504 44.0198 40 44.0198C41.3496 44.0198 42.4688 45.1389 42.4688 46.4885V60.1489C42.4688 61.5314 41.3496 62.6177 40 62.6177Z" fill="white"/>
<path d="M56.8533 62.6177C55.5037 62.6177 54.3845 61.4986 54.3845 60.149V39.6748C54.3845 38.3252 55.5037 37.2061 56.8533 37.2061C58.2029 37.2061 59.322 38.3252 59.322 39.6748V60.149C59.322 61.5315 58.2358 62.6177 56.8533 62.6177Z" fill="white"/>
<path d="M59.3221 19.5626C59.3221 19.398 59.2562 19.2005 59.2233 19.036C59.1904 18.9043 59.1575 18.7397 59.1246 18.608C59.0587 18.4764 58.96 18.3776 58.8941 18.246C58.7954 18.1143 58.6966 17.9497 58.565 17.851C58.5321 17.818 58.5321 17.7851 58.4991 17.7851C58.4004 17.7193 58.3016 17.6864 58.2029 17.6205C58.0712 17.5218 57.9066 17.423 57.7421 17.3572C57.5775 17.2914 57.4129 17.2914 57.2483 17.2585C57.1166 17.2255 57.0179 17.1926 56.8862 17.1926H47.2416C45.8921 17.1926 44.7729 18.3118 44.7729 19.6614C44.7729 21.011 45.8921 22.1301 47.2416 22.1301H51.3562C43.5221 30.3593 33.6471 36.1526 22.5541 38.9505C21.2375 39.2797 20.4146 40.6293 20.7437 41.946C21.0071 43.0651 22.0275 43.8222 23.1466 43.8222C23.3441 43.8222 23.5416 43.7893 23.7391 43.7564C35.4904 40.8268 45.9908 34.7372 54.3846 26.113V29.306C54.3846 30.6555 55.5037 31.7747 56.8533 31.7747C58.2029 31.7747 59.3221 30.6555 59.3221 29.306V19.6614C59.3221 19.6285 59.3221 19.5955 59.3221 19.5626Z" fill="white"/>
</svg>
