<svg width="156" height="156" viewBox="0 0 156 156" fill="none" xmlns="http://www.w3.org/2000/svg">
<path d="M84 90V126C84 131 85.75 135.25 89.25 138.75C92.75 142.25 97 144 102 144H138C143 144 147.25 142.25 150.75 138.75C154.25 135.25 156 131 156 126V60C156 53.5 154.734 47.2969 152.203 41.3906C149.672 35.4844 146.25 30.375 141.938 26.0625C137.625 21.75 132.516 18.3281 126.609 15.7969C120.703 13.2656 114.5 12 108 12H102C100.375 12 98.9688 12.5937 97.7812 13.7812C96.5938 14.9687 96 16.375 96 18V30C96 31.625 96.5938 33.0312 97.7812 34.2187C98.9688 35.4062 100.375 36 102 36H108C114.625 36 120.281 38.3437 124.969 43.0312C129.656 47.7187 132 53.375 132 60V63C132 65.5 131.125 67.625 129.375 69.375C127.625 71.125 125.5 72 123 72H102C97 72 92.75 73.75 89.25 77.25C85.75 80.75 84 85 84 90ZM0 90V126C0 131 1.75 135.25 5.25 138.75C8.75 142.25 13 144 18 144H54C59 144 63.25 142.25 66.75 138.75C70.25 135.25 72 131 72 126V60C72 53.5 70.7344 47.2969 68.2031 41.3906C65.6719 35.4844 62.25 30.375 57.9375 26.0625C53.625 21.75 48.5156 18.3281 42.6094 15.7969C36.7031 13.2656 30.5 12 24 12H18C16.375 12 14.9688 12.5937 13.7812 13.7812C12.5938 14.9687 12 16.375 12 18V30C12 31.625 12.5938 33.0312 13.7812 34.2187C14.9688 35.4062 16.375 36 18 36H24C30.625 36 36.2812 38.3437 40.9688 43.0312C45.6562 47.7187 48 53.375 48 60V63C48 65.5 47.125 67.625 45.375 69.375C43.625 71.125 41.5 72 39 72H18C13 72 8.75 73.75 5.25 77.25C1.75 80.75 0 85 0 90Z" fill="white" fill-opacity="0.17"/>
</svg>
