<svg width="129" height="140" viewBox="0 0 129 140" fill="none" xmlns="http://www.w3.org/2000/svg">
<path d="M116.476 129.708C100.542 132.979 84.3266 133.76 68.148 132.054C53.2835 130.488 39.4225 131.172 25.3201 136.704C24.5315 137.014 24.5281 138.427 25.5404 138.326C33.3115 137.551 40.8984 135.471 48.7076 134.995C56.1579 134.54 63.4701 135.791 70.8605 136.512C86.515 138.04 102.258 137.077 117.669 134.017C120.496 133.457 119.304 129.128 116.476 129.708Z" fill="#E0DFE6"/>
<path d="M88.1245 109.346C86.775 111.591 87.1469 113.564 86.4582 115.94C85.2611 120.067 76.4124 119.735 72.6305 120.058C64.516 120.751 56.3676 120.918 48.262 121.694C47.3055 121.785 46.8833 123.367 48.0132 123.527C58.3024 124.983 68.8411 124.57 79.1739 123.755C82.452 123.497 86.9443 123.746 89.321 121.053C91.6372 118.429 90.5141 114.572 92.1022 111.662C93.5183 109.067 89.6514 106.807 88.1245 109.346Z" fill="#E0DFE6"/>
<path d="M95.9666 70.0255C93.5946 67.0547 90.4708 65.3175 86.7052 64.8009C83.8975 64.4157 72.6797 65.0731 70.9312 61.2228C74.1658 57.8614 75.5486 53.0951 75.1685 48.4582C75.0047 46.4542 74.6675 44.4895 74.367 42.5167C74.4771 39.7077 74.2195 36.8689 73.8109 34.3829C73.7946 34.2827 73.7626 34.196 73.7348 34.106C73.7035 31.819 73.7089 29.5293 73.6681 27.2444C73.645 25.9357 72.5634 24.7861 71.2153 24.8017C66.0058 24.8612 59.7357 24.0129 54.6805 25.4773C50.5634 26.6696 48.1147 30.4433 45.8794 33.8372C44.9657 35.2244 46.923 36.4783 48.061 35.5135C51.4839 32.6125 53.7756 29.6078 58.6371 29.5253C62.0002 29.4677 65.379 29.5814 68.7496 29.6478C68.7183 34.1175 68.6836 38.6211 69.2778 43.0454C69.3193 43.3521 69.3587 43.6507 69.3988 43.9492C69.012 47.8726 67.9746 49.5692 65.3892 52.4797C62.4734 55.7626 61.0002 59.7835 61.0321 64.1347C61.041 65.3472 62.8344 65.6079 63.1627 64.4218C64.2008 60.667 65.9371 57.4762 68.8488 54.8439C68.8876 54.8087 68.9256 54.7762 68.9637 54.7417C68.4287 56.1079 67.6285 57.4796 66.4463 58.9128C64.9826 60.6873 66.2723 62.8016 68.0113 62.9228C68.0772 63.1395 68.1303 63.3554 68.2186 63.5714C69.3383 66.2964 71.7905 67.7764 74.4975 68.5347C73.7171 68.6511 72.9448 68.7913 72.1936 68.9761C71.5199 69.1426 71.3431 70.1792 71.993 70.5028C78.9851 73.984 87.7297 71.4445 90.3784 80.9635C92.4818 88.5252 91.4749 98.0895 89.7998 105.599C89.1214 108.642 93.77 109.945 94.507 106.891C96.6967 97.822 98.0836 85.7202 94.097 76.948C92.3002 72.9936 88.9487 70.5332 85.0539 69.2747C86.1614 69.3661 87.2518 69.5583 88.3042 69.9788C91.4124 71.2197 93.2595 73.9001 94.4689 76.9325C97.0509 83.4041 97.1454 90.7546 96.318 97.5702C95.9278 100.781 100.99 100.754 101.377 97.5702C102.461 88.6531 101.841 77.3834 95.9666 70.0255Z" fill="#E0DFE6"/>
<path d="M125.794 54.8777C126.346 54.8696 126.856 54.59 127.106 53.9996C127.468 53.1432 126.983 52.2989 126.142 52.0003C126.348 52.0735 126.09 51.9543 125.95 51.8812C125.945 51.8568 125.777 51.6957 125.765 51.7058C125.708 51.607 125.617 51.4377 125.607 51.4404C125.575 51.3057 125.52 50.9841 125.534 51.1717C125.481 50.4472 124.951 49.8271 124.184 49.8271C123.439 49.8271 122.849 50.4425 122.834 51.1717C122.804 52.5758 123.603 53.9752 124.86 54.6306L124.715 54.5933C124.223 54.4667 123.76 54.5013 123.348 54.6482C119.144 54.3428 114.931 54.3313 110.727 54.6333C111.421 54.1905 112.011 53.5717 112.409 52.8608C112.818 52.1297 112.998 51.2725 112.963 50.4412C112.942 49.9618 112.808 49.5082 112.675 49.0526C112.566 48.7554 112.464 48.4554 112.371 48.1528C112.365 48.0695 112.358 48.0113 112.352 47.9572C114.613 46.769 112.54 43.2227 110.179 44.4312C108.504 45.289 108.024 47.2409 108.594 48.9429C108.839 49.6754 109.562 50.4845 109.574 51.2658C109.591 52.2901 108.679 52.7498 107.823 52.9204C106.723 53.1398 106.749 54.3435 107.391 54.9555C103.632 55.6129 93.3658 58.2858 92.225 56.0246C91.6934 54.9711 90.1869 55.5561 90.1312 56.5892C89.8789 61.2444 98.111 60.4638 100.984 60.2472C109.119 59.6345 116.894 59.1206 125.055 59.8592C127.938 60.1219 128.469 55.6366 125.794 54.8777Z" fill="#E0DFE6"/>
<path d="M19.3641 39.3096C18.6088 41.6372 18.7053 43.8403 18.9025 46.2606C19.0935 48.6052 20.1309 53.6713 18.6346 55.6367C17.7794 56.7599 17.3137 56.288 15.8439 56.2806C14.8045 56.2752 13.7969 56.3673 12.769 56.5128C10.011 56.9035 7.34604 57.4769 4.57777 57.768C4.24262 57.7084 3.9734 57.7362 3.5186 57.8973C2.17253 58.3746 2.08144 60.271 3.5186 60.7144C6.77906 61.7205 10.0123 60.7808 13.3292 60.6339C15.9296 60.5181 19.0194 61.818 21.4042 60.3021C23.6892 58.8499 23.7497 55.8189 23.9237 53.3917C24.2276 49.1515 22.9046 44.7082 23.976 40.5757C24.7504 37.5927 20.3084 36.4018 19.3641 39.3096Z" fill="#E0DFE6"/>
<path d="M72.3278 71.8338C71.5358 69.9313 68.6533 69.8162 68.1992 71.8236C67.6247 71.7884 67.072 71.9678 66.6274 72.349C66.59 72.2914 66.5587 72.2291 66.5207 72.1723C65.6573 70.8778 63.8802 71.7349 64.1073 73.1858C64.3799 74.9278 64.9006 76.6535 65.4221 78.367C65.5907 79.3988 65.9129 80.4157 66.3813 81.3974C67.5288 83.8056 71.1034 81.9126 70.3284 79.5471C71.4848 79.6778 72.6731 78.9337 72.8268 77.3556C73.0022 75.5513 73.0355 73.5338 72.3278 71.8338Z" fill="#E0DFE6"/>
<path d="M118.098 107.742C117.439 104.762 113.223 106.114 113.618 108.972C113.981 111.599 114.588 115.083 113.505 117.626C112.422 120.169 109.258 119.121 107.142 118.775C105.541 118.514 104.411 120.598 105.981 121.519C109.172 123.389 113.711 124.372 116.517 121.315C119.559 118.003 118.983 111.744 118.098 107.742Z" fill="#E0DFE6"/>
<path d="M84.5039 101.881C84.4753 96.4903 84.5045 91.0911 84.3244 85.7033C84.2231 82.673 79.5982 82.6506 79.5805 85.7033C79.5595 89.2983 79.6614 92.8947 79.7355 96.4883C79.8008 99.6642 80.7097 104.328 79.8844 107.379C78.9463 110.847 72.7618 110.212 69.6985 110.498C65.6671 110.874 61.6493 111.35 57.6261 111.805C56.4316 111.94 56.3637 113.688 57.6261 113.711C62.89 113.807 68.1478 113.885 73.4131 113.863C76.0794 113.853 81.3127 114.903 83.3896 112.457C85.442 110.038 84.5188 104.716 84.5039 101.881Z" fill="#E0DFE6"/>
<path d="M41.8617 109.162C40.8515 106.838 36.9221 108.493 37.742 110.891C37.9031 111.363 37.9826 111.772 38.0255 112.17C35.8221 111.289 33.5801 110.327 31.3271 109.88C30.3393 109.683 29.4732 110.876 30.291 111.652C32.6045 113.848 35.8595 115.368 38.6339 116.903C39.6489 117.464 40.9474 117.144 41.5504 116.141C42.8754 113.94 42.8652 111.469 41.8617 109.162Z" fill="#E0DFE6"/>
<path d="M42.1819 96.357C41.7828 95.6779 40.9949 95.3062 40.2301 95.3638C40.1696 95.0808 40.0996 94.8018 40.0133 94.5317C39.5605 93.1066 37.4292 92.6475 36.6624 94.0957C35.8595 95.6122 34.9839 97.623 35.3632 99.3657C35.5814 100.371 36.7426 100.551 37.472 100.054C38.0689 100.552 38.9051 100.719 39.7155 100.244C40.3097 99.8971 40.88 99.5376 41.4463 99.1477C42.3559 98.5221 42.77 97.359 42.1819 96.357Z" fill="#E0DFE6"/>
<path d="M89.5975 94.6366C89.5329 94.0896 89.2582 93.6536 88.8911 93.3543C88.6151 92.2812 88.556 91.1249 88.4309 90.0613C88.2643 88.6476 86.1711 88.102 85.7598 89.7011C85.2377 91.7335 85.5994 93.6116 85.8469 95.6454C86.1365 98.0292 89.4819 98.1321 89.6532 95.6454C89.6777 95.2913 89.6389 94.9886 89.5975 94.6366Z" fill="#E0DFE6"/>
<path d="M96.1317 41.4916C95.526 44.8808 94.821 48.2287 94.1527 51.5982C93.8414 51.6977 93.5885 52.001 93.581 52.3423C93.5579 53.4079 93.7394 53.808 94.6001 54.4464C95.2133 54.9014 96.3071 54.5744 96.6334 53.9157C98.4119 50.32 99.5084 45.9803 99.8844 41.9973C100.084 39.881 96.509 39.3793 96.1317 41.4916Z" fill="#E0DFE6"/>
<path d="M101.364 19.2616C101.041 16.0207 96.2226 16.6625 96.9364 19.8581C97.1845 20.9684 96.5917 22.0421 95.5999 22.5601C94.3163 23.2303 93.0906 22.5648 92.0579 21.7591C91.2578 21.1349 89.5867 21.6718 90.081 22.9053C91.1028 25.4557 94.2252 26.6892 96.8426 26.0366C99.7591 25.3101 101.652 22.1532 101.364 19.2616Z" fill="#E0DFE6"/>
<path d="M43.0487 116.674C42.273 116.674 41.6306 116.073 41.5837 115.301C41.3593 111.618 41.0779 107.892 40.8052 104.289C40.3443 98.1863 39.8671 91.8757 39.6563 85.616C39.6557 85.5997 39.6543 85.5131 39.6543 85.4968C39.6543 83.2525 41.791 81.5315 43.702 81.4902C47.6695 81.4056 51.6948 81.3704 55.5875 81.3358C64.5014 81.2566 73.7185 81.1754 82.6937 80.4957C83.1961 80.4584 83.6787 80.6778 83.9792 81.0772C84.0547 81.1754 84.3728 81.3704 84.5836 81.4997C85.277 81.9249 86.4382 82.6371 86.5 84.0805C86.6367 87.2598 86.7183 90.479 86.7971 93.592C86.9664 100.253 87.1404 107.141 87.8672 113.925C87.91 114.329 87.7835 114.731 87.517 115.037C87.2512 115.343 86.8692 115.526 86.4626 115.541C72.4914 116.063 57.6304 116.58 43.0487 116.674ZM82.2593 83.4603C73.3956 84.1015 64.3593 84.1821 55.614 84.2599C51.7308 84.2944 47.7144 84.3296 43.7659 84.4143C43.3233 84.4231 42.5912 84.9512 42.5912 85.4975C42.7999 91.7187 43.2744 97.9974 43.7333 104.07C43.9726 107.234 44.2187 110.493 44.4281 113.74C57.9716 113.628 71.7464 113.161 84.7923 112.678C84.1845 106.29 84.0221 99.8802 83.8643 93.6672C83.7868 90.6104 83.7073 87.4507 83.5747 84.3398C83.4551 84.2396 83.2144 84.0927 83.0458 83.9884C82.8018 83.8388 82.5257 83.6709 82.2593 83.4603Z" fill="#525D7D"/>
<path d="M43.2661 122.64C42.5183 122.64 41.882 122.075 41.8072 121.323C41.6229 119.478 41.3802 117.602 41.1668 116.01C41.06 115.209 41.6236 114.475 42.4279 114.367C43.2375 114.264 43.969 114.823 44.0765 115.623C44.2389 116.836 44.4184 118.213 44.5775 119.623C52.8034 119.09 61.0885 119.036 69.1146 118.983C74.35 118.949 79.7471 118.914 85.0913 118.745C84.8431 117.291 84.6072 115.794 84.6072 114.266C84.6072 113.957 84.6161 113.649 84.6372 113.341C84.6915 112.535 85.387 111.927 86.2008 111.981C87.0098 112.036 87.6209 112.732 87.5665 113.538C87.5502 113.78 87.5434 114.024 87.5434 114.267C87.5434 115.687 87.7916 117.127 88.054 118.652C88.1274 119.076 88.1995 119.498 88.2668 119.921C88.3327 120.334 88.2178 120.756 87.9506 121.078C87.6842 121.401 87.2912 121.596 86.8711 121.611C80.9402 121.831 74.938 121.869 69.1336 121.907C60.6942 121.963 51.9672 122.02 43.3735 122.636C43.3375 122.639 43.3014 122.64 43.2661 122.64Z" fill="#525D7D"/>
<path d="M63.504 105.973C63.226 105.973 62.9459 105.896 62.6991 105.734C61.213 104.762 59.7377 103.741 58.3108 102.753C57.6962 102.328 57.0803 101.901 56.4596 101.475C56.1115 101.238 55.8838 100.861 55.8342 100.445C55.7839 100.027 55.9171 99.608 56.1986 99.2959C57.9953 97.2994 59.8764 95.3902 61.4788 93.7856C62.0329 93.2312 62.9262 93.2088 63.5067 93.7342C65.2247 95.2893 67.1248 96.7246 69.1554 97.9974C69.5212 98.2276 69.7666 98.6054 69.8264 99.0319C69.8869 99.4584 69.7544 99.889 69.4661 100.21C68.5919 101.181 67.7013 102.138 66.8059 103.098C66.0683 103.89 65.328 104.684 64.5931 105.493C64.3048 105.809 63.9065 105.973 63.504 105.973ZM59.5073 100.021C59.667 100.131 59.8268 100.242 59.9859 100.352C61.0607 101.096 62.1627 101.86 63.2695 102.6C63.7304 102.1 64.1927 101.604 64.6543 101.109C65.1485 100.578 65.6421 100.049 66.1322 99.5166C64.8963 98.6717 63.7107 97.7706 62.589 96.8228C61.6059 97.8166 60.5535 98.8978 59.5073 100.021Z" fill="#525D7D"/>
<path d="M34.1932 111.713C32.3869 111.713 30.3929 111.631 28.83 110.078C27.0026 108.262 26.1875 104.803 26.1875 98.8586C26.1875 69.8312 33.7934 67.0832 43.7366 66.5063C46.9515 66.3202 49.7273 66.1577 51.6852 64.0196C52.2671 63.3839 52.5622 62.5728 52.5622 61.6108C52.5622 58.2494 50.9857 57.4518 48.989 56.4431C47.7823 55.8324 46.5341 55.2014 45.7863 53.9415C44.6027 51.9469 44.6408 50.7581 44.7917 49.618C44.9127 48.706 45.0378 47.7629 40.7012 43.4449C40.1322 42.8796 39.8052 42.0211 39.8052 41.0915C39.8052 39.7822 40.4952 38.705 41.1037 37.7552C41.4891 37.1526 41.8875 36.5311 41.9174 36.1107L41.8698 35.6388C41.5714 32.7628 41.1757 28.7352 41.1757 26.9837C41.1757 14.9138 52.2624 13.2869 63.1077 13.2869C74.3739 13.2869 77.9851 14.8427 80.9682 16.5765C81.3747 16.8135 81.6426 17.2305 81.6888 17.6963C81.7344 18.1635 81.5529 18.6238 81.2 18.9346C74.951 24.4314 65.9188 26.9715 55.4012 26.1625C55.223 26.8084 55.1836 27.4861 55.1401 28.2335C54.981 30.9856 54.7832 34.4114 47.4043 37.7511C46.6674 38.0883 45.7972 37.7606 45.4607 37.026C45.1255 36.2908 45.4518 35.4242 46.1895 35.0904C51.9537 32.4812 52.0666 30.5327 52.2087 28.0663C52.2814 26.8158 52.363 25.3988 53.1516 23.9249C53.4317 23.4023 53.9987 23.1017 54.5915 23.1572C56.149 23.3116 57.6956 23.3894 59.1878 23.3894C64.3885 23.3894 71.5852 22.4328 77.5466 18.1107C75.0408 17.0322 71.267 16.2109 63.1063 16.2109C49.4363 16.2109 44.1099 19.2311 44.1099 26.9844C44.1099 28.7887 44.6204 33.7201 44.7876 35.3402C44.8332 35.7783 44.8529 36.0423 44.8529 36.0633C44.8529 37.3368 44.1751 38.395 43.5762 39.3286C43.1642 39.9717 42.7386 40.6359 42.7386 41.0929C42.7386 41.2547 42.7835 41.3813 42.8039 41.4138C47.7626 46.3459 47.9631 48.0182 47.7 50.0025C47.6103 50.6782 47.5457 51.1657 48.3119 52.4567C48.6239 52.9821 49.4078 53.3788 50.316 53.8379C52.3786 54.8812 55.4957 56.4579 55.4957 61.6128C55.4957 63.3027 54.9273 64.8158 53.8518 65.9911C51.089 69.0086 47.4369 69.2212 43.9052 69.4257C36.6365 69.8481 29.121 70.2841 29.121 98.8599C29.121 103.758 29.7199 106.837 30.9001 108.009C31.6567 108.761 32.7044 108.788 34.5039 108.791L34.8499 108.79C36.2639 108.79 37.6691 108.671 39.1553 108.545C40.1179 108.465 41.0812 108.383 42.0439 108.335C42.8644 108.314 43.5429 108.915 43.583 109.721C43.6238 110.528 43.0004 111.214 42.1907 111.254C41.2614 111.301 40.332 111.38 39.4034 111.458C37.9214 111.584 36.3884 111.713 34.8492 111.713L34.5113 111.714C34.4087 111.713 34.3013 111.713 34.1932 111.713Z" fill="#525D7D"/>
<path d="M86.7407 111.425C86.1255 111.425 85.5503 111.039 85.345 110.427C85.0887 109.66 85.4987 108.834 86.2682 108.58C91.2902 106.912 92.9788 106.352 92.9788 91.1391C92.9788 70.0058 83.2675 69.6774 74.6996 69.3883C69.8191 69.2225 64.2866 69.0363 64.2866 62.8808C64.2866 58.6467 66.2221 57.3258 67.9292 56.16C69.9707 54.766 72.2848 53.1858 72.2848 44.4129C72.2848 40.8132 71.7763 37.0699 71.2841 33.4513C70.8681 30.3877 70.4377 27.2199 70.3072 24.1117C70.2732 23.3047 70.9027 22.6243 71.7124 22.5898C72.5234 22.5403 73.2067 23.1828 73.24 23.9899C73.3644 26.9627 73.7859 30.0621 74.1931 33.0593C74.6982 36.7748 75.2203 40.6162 75.2203 44.4136C75.2203 53.9509 72.6696 56.468 69.5893 58.5715C68.0631 59.6135 67.2221 60.1883 67.2221 62.8815C67.2221 65.9382 69.1862 66.2767 74.7988 66.4663C83.207 66.7507 95.9144 67.1812 95.9144 91.1398C95.9144 107.621 93.677 109.203 87.2071 111.35C87.0528 111.4 86.8957 111.425 86.7407 111.425Z" fill="#525D7D"/>
<path d="M86.0911 99.0352C85.6165 99.0352 85.1515 98.8071 84.8687 98.3846C84.4194 97.713 84.6009 96.8058 85.2759 96.3576C86.0645 95.8343 86.8137 95.0509 87.5391 94.2933C87.8029 94.0171 88.0639 93.745 88.325 93.4857C88.8981 92.9149 89.8274 92.9149 90.4005 93.4857C90.9736 94.0564 90.9736 94.9819 90.4005 95.5526C90.1564 95.7963 89.9124 96.0516 89.6649 96.3102C88.8294 97.1836 87.9647 98.0867 86.9055 98.7901C86.6533 98.956 86.3705 99.0352 86.0911 99.0352Z" fill="#525D7D"/>
<path d="M40.0747 101.886C39.9415 101.886 39.8055 101.868 39.6709 101.83C39.4289 101.762 39.1808 101.699 38.9306 101.636C37.6253 101.305 36.0012 100.895 34.8564 99.5267C34.3377 98.9073 34.4213 97.9851 35.044 97.4686C35.6674 96.952 36.5933 97.0353 37.1114 97.6561C37.6457 98.2946 38.5757 98.5295 39.6526 98.8016C39.9313 98.8721 40.208 98.9418 40.4772 99.0183C41.2563 99.2403 41.7077 100.049 41.4854 100.825C41.3012 101.468 40.7138 101.886 40.0747 101.886Z" fill="#525D7D"/>
<path d="M54.1772 73.9732C53.8223 73.9732 53.4688 73.8459 53.1921 73.5954C52.5259 72.9949 51.8944 72.366 51.2832 71.758C50.3437 70.8224 49.4565 69.9395 48.468 69.1657C47.8303 68.6667 47.7195 67.748 48.2206 67.1129C48.7209 66.4772 49.6441 66.3675 50.2818 66.8665C51.4083 67.7487 52.4001 68.7358 53.3587 69.6911C53.6891 70.0194 54.0188 70.3478 54.354 70.6714C54.6837 70.4703 55.0161 70.2719 55.3486 70.0729C56.6436 69.2991 57.8673 68.5685 58.9313 67.6722C59.3235 67.3418 59.8613 67.2409 60.346 67.4027C62.4902 68.1183 64.495 69.0844 66.5046 70.1196C67.2674 69.4676 68.0492 68.8603 68.8112 68.2686C69.487 67.7433 70.1641 67.2192 70.8215 66.6661C71.4415 66.1448 72.3661 66.2227 72.8902 66.8415C73.413 67.4582 73.3348 68.3803 72.7148 68.901C72.0282 69.4778 71.3225 70.0269 70.6162 70.5752C69.5944 71.3687 68.6297 72.1182 67.7174 72.9563C67.2612 73.3761 66.5916 73.4634 66.0403 73.1764C64.0062 72.1141 62.138 71.1656 60.1597 70.4378C59.0972 71.2441 57.9625 71.9212 56.8585 72.5806C56.2262 72.9584 55.594 73.3362 54.9808 73.7363C54.7354 73.894 54.4553 73.9732 54.1772 73.9732Z" fill="#525D7D"/>
<path d="M59.6585 67.9152C57.4865 67.9152 55.1594 67.815 52.1151 67.5916C51.3068 67.5313 50.6997 66.8313 50.7589 66.0263C50.8194 65.2213 51.5223 64.6099 52.3306 64.6756C55.3008 64.8943 57.5606 64.9918 59.6578 64.9918C61.7796 64.9918 63.73 64.8902 65.622 64.6804C66.4256 64.5978 67.1536 65.1698 67.2427 65.9728C67.3318 66.7751 66.7512 67.4974 65.9463 67.5868C63.9469 67.8075 61.8897 67.9152 59.6585 67.9152Z" fill="#525D7D"/>
<path d="M53.7486 41.9344C53.4053 41.9344 53.0613 41.8152 52.7826 41.5729C52.1721 41.0407 52.1109 40.1179 52.6446 39.51C54.2082 37.7314 56.4795 37.4918 58.4959 37.4918C59.3069 37.4918 59.9636 38.1464 59.9636 38.9535C59.9636 39.7605 59.3069 40.4151 58.4959 40.4151C57.0702 40.4151 55.6419 40.539 54.854 41.4361C54.563 41.7658 54.1572 41.9344 53.7486 41.9344Z" fill="#525D7D"/>
<path d="M65.6153 41.0902C65.24 41.0902 64.8648 40.9473 64.5786 40.663C64.0048 40.0929 64.0034 39.1667 64.5765 38.596C65.238 37.9352 66.1578 37.7423 67.202 37.8404C67.3665 37.8553 67.5324 37.8872 67.7044 37.8567C68.4991 37.6996 69.2714 38.2162 69.4285 39.0083C69.5855 39.7998 69.0675 40.5688 68.2721 40.7252C67.8492 40.8092 67.3788 40.795 66.9267 40.751C66.8104 40.7408 66.6955 40.7273 66.5841 40.7273C66.308 40.969 65.9613 41.0902 65.6153 41.0902Z" fill="#525D7D"/>
<path d="M59.3449 52.76C58.8357 52.76 58.353 52.626 57.9098 52.3619C57.2191 51.9496 57.0029 51.0675 57.4101 50.3755C57.8092 49.6978 58.6827 49.4649 59.3741 49.8292C59.523 49.7899 59.8609 49.6369 60.0832 49.4954C60.0873 49.2862 60.0934 49.077 60.1002 48.8671C60.1104 48.5442 60.1206 48.2219 60.1206 47.899C60.1206 47.2071 60.0682 46.6912 59.9527 46.2288C59.7555 45.4454 60.2334 44.652 61.02 44.4556C61.8038 44.2627 62.6033 44.7353 62.8005 45.5186C62.9779 46.2227 63.0568 46.9572 63.0568 47.899C63.0568 48.2517 63.0459 48.6051 63.035 48.9578C63.0248 49.2808 63.0146 49.603 63.0146 49.9246C63.0146 51.7858 60.2885 52.76 59.3449 52.76Z" fill="#525D7D"/>
<path d="M60.1023 76.8702C57.7685 76.8702 55.6148 75.7043 54.1946 73.6706C53.7316 73.0084 53.8962 72.0978 54.561 71.6361C55.2273 71.1757 56.1416 71.3389 56.6046 72.0017C57.4687 73.2379 58.7433 73.9468 60.1023 73.9468C60.9208 73.9468 62.8815 73.7234 63.4015 71.6496C63.5973 70.8677 64.3927 70.3897 65.1813 70.5867C65.9679 70.7831 66.4458 71.5765 66.2493 72.3598C65.5505 75.1417 63.1955 76.8702 60.1023 76.8702Z" fill="#525D7D"/>
<path d="M55.7581 84.0405C55.6405 84.0405 55.5209 84.0263 55.4012 83.9965C54.6146 83.8001 54.1367 83.0067 54.3332 82.2234C54.633 81.0277 55.0593 79.893 55.4719 78.7942C55.7595 78.0285 56.0307 77.3048 56.2653 76.558C56.5073 75.7869 57.3292 75.3563 58.1042 75.5987C58.8785 75.8397 59.3089 76.6596 59.0675 77.4294C58.8092 78.2533 58.5108 79.0481 58.2218 79.8179C57.8207 80.8869 57.4414 81.897 57.181 82.9329C57.0138 83.5984 56.4162 84.0405 55.7581 84.0405Z" fill="#525D7D"/>
<path d="M65.5416 83.2091C64.927 83.2091 64.3546 82.8225 64.1493 82.2098C63.4477 80.1165 62.3722 78.2668 61.3137 76.5811C60.884 75.8966 61.0928 74.9948 61.7807 74.5662C62.4681 74.139 63.3729 74.3476 63.8032 75.0314C64.9576 76.8708 66.1357 78.9019 66.9339 81.2843C67.1901 82.0501 66.7748 82.8781 66.0059 83.1333C65.8516 83.1854 65.6952 83.2091 65.5416 83.2091Z" fill="#525D7D"/>
<path d="M1.79728 57.4057C1.02635 57.4057 0.381194 56.8079 0.333606 56.0334C0.168407 53.3666 0.0888672 50.4568 0.0888672 47.1407C0.0888672 44 0.15957 40.822 0.227553 37.7477L0.264943 36.0402C0.280579 35.2962 0.855716 34.6821 1.60081 34.6158C6.40381 34.1859 11.2653 34.041 15.9663 33.9002L18.0976 33.8365C18.8862 33.7756 19.5612 34.4201 19.6088 35.2095C19.8733 39.6312 20.0854 44.1361 20.29 48.4927C20.3961 50.7547 20.5021 53.0159 20.6157 55.2724C20.6354 55.661 20.4994 56.0402 20.237 56.3279C19.9753 56.615 19.6088 56.7876 19.2193 56.8059C16.2539 56.946 13.2449 57.0313 10.3353 57.1153C7.5568 57.1938 4.68452 57.2757 1.86526 57.4044C1.84283 57.4051 1.81971 57.4057 1.79728 57.4057ZM3.17122 37.418L3.16238 37.8127C3.0944 40.8701 3.02437 44.0325 3.02437 47.1407C3.02437 49.8109 3.07672 52.2082 3.18413 54.4221C5.55334 54.3266 7.93411 54.2596 10.2503 54.1926C12.665 54.1235 15.1485 54.0524 17.6101 53.9509C17.5231 52.1791 17.4402 50.4053 17.3566 48.6295C17.1744 44.7474 16.986 40.7482 16.7603 36.8026L16.0533 36.8235C11.8261 36.9495 7.46706 37.0788 3.17122 37.418Z" fill="#525D7D"/>
<path d="M7.06248 43.4273C6.25144 43.4273 5.59473 42.7726 5.59473 41.9656C5.59473 41.1586 6.25144 40.5039 7.06248 40.5039C8.53567 40.5039 9.9266 40.5039 11.0959 40.1153C11.8689 39.8594 12.6962 40.2751 12.9525 41.0394C13.2088 41.8051 12.7934 42.6331 12.0246 42.8884C10.4032 43.4273 8.70495 43.4273 7.06248 43.4273Z" fill="#525D7D"/>
<path d="M11.561 47.9078H7.21824C6.4072 47.9078 5.75049 47.2531 5.75049 46.4461C5.75049 45.6391 6.4072 44.9844 7.21824 44.9844H11.561C12.372 44.9844 13.0287 45.6391 13.0287 46.4461C13.0287 47.2531 12.3714 47.9078 11.561 47.9078Z" fill="#525D7D"/>
<path d="M11.0954 51.6144H7.5283C6.71726 51.6144 6.06055 50.9597 6.06055 50.1527C6.06055 49.3457 6.71726 48.691 7.5283 48.691H11.0954C11.9064 48.691 12.5631 49.3457 12.5631 50.1527C12.5631 50.9597 11.9064 51.6144 11.0954 51.6144Z" fill="#525D7D"/>
<path d="M90.3301 56.9481C89.5653 56.9481 88.9202 56.3577 88.8671 55.5859C88.4341 49.2747 88.3375 42.9235 88.2451 36.7816C88.2056 34.1838 88.1669 31.582 88.103 28.9714C88.0928 28.5638 88.2546 28.1698 88.549 27.8868C88.8427 27.6031 89.2458 27.463 89.6516 27.4765C90.8046 27.5402 91.9481 27.6133 93.0916 27.6871C94.1018 27.7521 95.1134 27.8164 96.1311 27.8753C96.9143 27.9193 97.5241 28.5699 97.5146 29.3512C97.4942 31.1007 97.484 32.8494 97.484 34.5988C97.484 41.3887 97.6342 47.4691 97.985 54.9278C98.0231 55.7342 97.3976 56.4193 96.5873 56.4565C95.7803 56.5012 95.091 55.8716 95.0522 55.0653C94.6994 47.5577 94.5485 41.4374 94.5485 34.5988C94.5485 33.3023 94.5539 32.0065 94.5655 30.7107C94.0107 30.6762 93.4567 30.6403 92.9033 30.6051C92.2941 30.5658 91.685 30.5272 91.0739 30.4886C91.118 32.5759 91.1493 34.6577 91.1806 36.7369C91.2724 42.8409 91.3675 49.1528 91.7958 55.3862C91.8509 56.1925 91.2404 56.8898 90.4321 56.944C90.3974 56.9474 90.3634 56.9481 90.3301 56.9481Z" fill="#525D7D"/>
<path d="M102.778 56.5913C102.037 56.5913 101.4 56.0355 101.32 55.2853C100.769 50.1636 100.694 45.0893 100.694 40.8011C100.694 39.1925 100.705 37.5845 100.717 35.9766C100.729 34.3748 100.74 32.7722 100.74 31.1704L100.738 29.9606C100.734 29.1576 101.383 28.5009 102.189 28.4921C102.805 28.4853 103.423 28.4833 104.042 28.4806C105.406 28.4759 106.816 28.4711 108.188 28.4142C109.019 28.3892 109.681 29.006 109.715 29.8123L109.798 31.7262C110.139 39.6413 110.46 47.1184 111.082 54.8635C111.146 55.6678 110.544 56.3726 109.736 56.4369C108.913 56.4904 108.22 55.9 108.156 55.0957C107.53 47.2971 107.192 39.445 106.865 31.8508L106.845 31.3796C105.905 31.3986 104.969 31.4013 104.053 31.4047C103.927 31.4053 103.801 31.4053 103.676 31.4067C103.676 32.9368 103.664 34.4668 103.653 35.9976C103.642 37.5994 103.63 39.1999 103.63 40.8017C103.63 45.0128 103.702 49.9896 104.238 54.9739C104.325 55.7768 103.742 56.4972 102.935 56.5832C102.883 56.5886 102.831 56.5913 102.778 56.5913Z" fill="#525D7D"/>
<path d="M100.096 39.0286H96.5195C95.7085 39.0286 95.0518 38.3739 95.0518 37.5669C95.0518 36.7599 95.7085 36.1052 96.5195 36.1052H100.096C100.907 36.1052 101.564 36.7599 101.564 37.5669C101.564 38.3739 100.907 39.0286 100.096 39.0286Z" fill="#525D7D"/>
<path d="M117.321 55.6942C117.209 55.6942 117.096 55.682 116.985 55.6549C116.586 55.5615 116.244 55.3069 116.043 54.9508C114.669 52.525 113.386 50.014 112.147 47.5841C110.951 45.2403 109.715 42.8172 108.401 40.4842C108.21 40.1457 108.162 39.7435 108.269 39.3698C108.375 38.9961 108.628 38.6786 108.97 38.4903C109.922 37.965 110.81 37.359 111.75 36.7165C112.434 36.2494 113.118 35.7829 113.825 35.3483C114.161 35.1418 114.568 35.0782 114.951 35.1743C115.336 35.2697 115.665 35.5148 115.864 35.8547C117.136 38.0232 118.469 40.1992 119.759 42.302C121.275 44.7765 122.842 47.335 124.332 49.9151C124.728 50.6023 124.503 51.4784 123.825 51.8914L122.948 52.4235C121.351 53.3923 119.699 54.3943 118.143 55.443C117.899 55.6082 117.612 55.6942 117.321 55.6942ZM111.652 40.2994C112.737 42.2864 113.765 44.3012 114.764 46.2605C115.756 48.2023 116.773 50.1968 117.837 52.1425C118.911 51.4533 120.001 50.7892 121.07 50.1406C119.816 48.0073 118.516 45.8868 117.253 43.8246C116.218 42.1348 115.155 40.3989 114.113 38.6515C113.879 38.8092 113.645 38.9683 113.412 39.1274C112.84 39.5167 112.257 39.9155 111.652 40.2994Z" fill="#525D7D"/>
<path d="M86.3839 57.1356C85.6095 57.1356 84.9623 56.5324 84.9202 55.7531C84.876 54.9468 85.4967 54.2583 86.3057 54.2143C92.3263 53.8886 98.4046 53.7607 104.282 53.6368C111.805 53.4777 119.583 53.3145 127.258 52.7316C128.066 52.6747 128.771 53.2732 128.833 54.0782C128.895 54.8832 128.289 55.5852 127.481 55.6475C119.726 56.2345 111.907 56.399 104.345 56.5595C98.4903 56.6834 92.4371 56.8106 86.4654 57.1343C86.4376 57.1349 86.4104 57.1356 86.3839 57.1356Z" fill="#525D7D"/>
<path d="M94.1646 23.1944C94.0966 23.1944 94.0286 23.1938 93.9606 23.1904C91.2685 23.0888 89.1753 20.9542 89.0923 18.2244C89.0094 15.4588 90.9979 13.0133 93.5255 12.7717C93.8702 12.7392 94.2203 12.75 94.5663 12.7994C95.3264 12.9125 96.2102 13.0905 97.0253 13.557C98.4924 14.3924 99.489 16.1419 99.5053 17.9069C99.5162 19.2325 98.869 20.6888 97.8146 21.7077C96.8186 22.6711 95.529 23.1944 94.1646 23.1944ZM93.9287 15.6761C93.8858 15.6761 93.8444 15.6781 93.8029 15.6815C92.8212 15.7756 91.9898 16.9225 92.0272 18.1364C92.0632 19.3279 92.9232 20.2243 94.0728 20.2683C94.7309 20.2934 95.2931 20.072 95.771 19.6089C96.3285 19.07 96.5739 18.3788 96.5705 17.9319C96.565 17.3057 96.1884 16.4465 95.5671 16.0925C95.2496 15.9103 94.8356 15.7946 94.1374 15.691C94.0673 15.6822 93.9973 15.6761 93.9287 15.6761Z" fill="#525D7D"/>
<path d="M20.1159 47.8408C19.4204 47.8408 18.8024 47.3459 18.6733 46.6397C18.5285 45.8462 19.058 45.0846 19.8555 44.9411C20.6937 44.7894 21.4925 44.6757 22.2927 44.5613C23.0554 44.4529 23.8189 44.3453 24.6197 44.2004C25.4138 44.0555 26.1806 44.5829 26.3261 45.3777C26.4709 46.1712 25.9413 46.9329 25.1439 47.0764C24.307 47.2281 23.5075 47.3418 22.7081 47.4549C21.9446 47.5645 21.1805 47.6715 20.381 47.8164C20.2913 47.8333 20.2029 47.8408 20.1159 47.8408Z" fill="#525D7D"/>
<path d="M29.1981 42.6527C28.8915 42.6527 28.5822 42.5579 28.3184 42.3602C27.6699 41.8762 27.538 40.9595 28.0247 40.3136L28.453 39.7537C29.1838 38.8079 29.8739 37.9142 30.1744 36.917C30.4069 36.1431 31.2261 35.7065 32.0017 35.9366C32.7781 36.1682 33.2193 36.9827 32.9861 37.7565C32.5306 39.2703 31.6006 40.4747 30.7794 41.5363L30.3729 42.0685C30.0846 42.451 29.6441 42.6527 29.1981 42.6527Z" fill="#525D7D"/>
<path d="M33.0692 31.8312C32.9516 31.8312 32.8319 31.8169 32.713 31.7872C31.9264 31.5922 31.4478 30.7987 31.6449 30.0154C31.8638 29.1427 31.957 28.5063 31.957 27.8868C31.957 27.6444 31.942 27.398 31.9101 27.1428C31.8088 26.3419 32.3785 25.6107 33.1834 25.5098C33.9863 25.4116 34.7219 25.9769 34.8225 26.7772C34.8694 27.1495 34.8918 27.5118 34.8918 27.8868C34.8918 28.746 34.7688 29.622 34.4921 30.7236C34.3262 31.3877 33.7273 31.8312 33.0692 31.8312Z" fill="#525D7D"/>
<path d="M35.1548 20.7124C35.0943 20.7124 35.0331 20.7084 34.9712 20.7009C34.167 20.6007 33.5959 19.8709 33.6966 19.07C33.8074 18.1858 34.0494 17.4072 34.2826 16.6537C34.4009 16.2739 34.5205 15.8893 34.6218 15.4872C34.8176 14.7039 35.611 14.2279 36.4016 14.4229C37.1882 14.6179 37.6661 15.4114 37.4696 16.1947C37.3554 16.6517 37.2208 17.087 37.0875 17.5176C36.8822 18.1777 36.6878 18.8032 36.6089 19.4315C36.5165 20.1708 35.8849 20.7124 35.1548 20.7124Z" fill="#525D7D"/>
<path d="M40.6613 10.7798C40.2473 10.7798 39.836 10.6065 39.5464 10.2686C39.0189 9.65592 39.0909 8.73246 39.7062 8.20776C39.9142 8.02971 40.1222 7.84623 40.3323 7.66073C41.2317 6.86726 42.1611 6.0467 43.2794 5.49019C44.0034 5.12934 44.8858 5.42249 45.2488 6.1442C45.6112 6.86658 45.3168 7.74468 44.5921 8.10553C43.8192 8.49008 43.0707 9.15018 42.2793 9.84887C42.057 10.0452 41.8368 10.2402 41.6158 10.4284C41.3385 10.6647 40.9992 10.7798 40.6613 10.7798Z" fill="#525D7D"/>
<path d="M50.4852 5.59246C49.8707 5.59246 49.2976 5.20452 49.0923 4.5925C48.836 3.82678 49.252 2.99878 50.0209 2.74354C50.4533 2.60002 50.885 2.44024 51.3173 2.28114C52.2405 1.94127 53.1957 1.58854 54.1855 1.36919C54.9741 1.19451 55.7614 1.69145 55.9368 2.47951C56.1129 3.26756 55.6139 4.04817 54.8219 4.22352C54.0271 4.39887 53.2066 4.70217 52.3371 5.02308C51.8741 5.19369 51.4112 5.3643 50.9489 5.51799C50.7952 5.56809 50.6389 5.59246 50.4852 5.59246Z" fill="#525D7D"/>
<path d="M64.5528 3.10843C64.1918 3.10843 63.8301 3.09963 63.4637 3.09015C63.1143 3.08135 62.7587 3.07187 62.395 3.07187C61.584 3.07187 60.9272 2.41786 60.9272 1.61017C60.9272 0.802486 61.584 0.148481 62.395 0.148481C62.7852 0.148481 63.1652 0.157959 63.5405 0.168115C63.8811 0.176916 64.2176 0.185717 64.5535 0.185717C65.302 0.185717 65.8791 0.136972 66.4244 0.0286478C67.2191 -0.129776 67.9927 0.383408 68.1518 1.17485C68.3109 1.96629 67.7956 2.73674 67.0009 2.89517C66.2571 3.04276 65.5025 3.10843 64.5528 3.10843Z" fill="#525D7D"/>
<path d="M76.8341 4.40632C76.7165 4.40632 76.5968 4.39211 76.4772 4.36232C76.0441 4.25467 75.6104 4.11182 75.1774 3.96829C74.4771 3.73539 73.8163 3.51604 73.2602 3.51604C72.4492 3.51604 71.7925 2.86203 71.7925 2.05435C71.7925 1.24666 72.4492 0.592651 73.2602 0.592651C74.2922 0.592651 75.2555 0.912206 76.1053 1.19453C76.4663 1.31504 76.828 1.43622 77.189 1.52627C77.9755 1.72193 78.4535 2.5154 78.257 3.29871C78.0904 3.96287 77.4922 4.40632 76.8341 4.40632Z" fill="#525D7D"/>
<path d="M85.3178 9.15022C85.1247 9.15022 84.9282 9.11231 84.7399 9.03242C83.6433 8.56392 82.6297 7.9282 81.5501 7.03249C80.9274 6.51525 80.8431 5.59382 81.3625 4.97367C81.8819 4.35419 82.8078 4.27024 83.4299 4.78681C84.2967 5.50648 85.0574 5.98717 85.8963 6.34532C86.6414 6.66352 86.9867 7.52266 86.6672 8.26468C86.4286 8.81848 85.8868 9.15022 85.3178 9.15022Z" fill="#525D7D"/>
<path d="M90.6766 14.6341C90.3014 14.6341 89.9254 14.4912 89.6392 14.2055C88.9811 13.5508 88.2354 12.8075 87.8261 11.7872C87.5249 11.0384 87.8914 10.1874 88.6432 9.88746C89.3965 9.58551 90.2504 9.95246 90.5508 10.7019C90.7364 11.1643 91.2116 11.6376 91.714 12.1379C92.2871 12.7086 92.2871 13.6341 91.714 14.2048C91.4278 14.4912 91.0526 14.6341 90.6766 14.6341Z" fill="#525D7D"/>
<path d="M16.7152 133.083C12.9034 133.083 10.6022 133.083 9.20919 131.689C7.83322 130.312 7.84274 128.242 7.86245 124.118L7.86789 122.37C7.86789 121.259 7.86381 120.204 7.85973 119.204C7.79447 102.727 8.36552 99.6026 26.8351 98.8957C27.6441 98.8693 28.3267 99.4936 28.3586 100.301C28.3899 101.108 27.7584 101.786 26.948 101.818C10.7286 102.438 10.7327 103.385 10.7952 119.193C10.7993 120.197 10.8034 121.255 10.8034 122.37L10.798 124.132C10.7844 127.022 10.7742 129.111 11.2895 129.627C11.8225 130.159 14.0897 130.159 16.7152 130.159C18.0572 130.159 19.4366 130.099 20.7711 130.042C22.1375 129.983 23.5502 129.921 24.9568 129.921C32.7381 129.921 40.7281 129.233 48.4551 128.569C56.2493 127.898 64.3094 127.204 72.2281 127.204C72.3348 127.204 72.7774 127.21 73.4538 127.218C75.6653 127.246 80.2671 127.303 83.932 127.303C83.9483 127.303 83.9647 127.303 83.981 127.303C88.8696 127.303 112.048 127.237 122.916 126.015C122.932 125.069 122.94 124.122 122.94 123.174C122.94 117.498 122.659 111.692 122.387 106.078C122.313 104.573 122.24 103.068 122.173 101.567C121.307 101.299 119.189 101.198 113.135 100.936C109.762 100.79 105.205 100.592 98.9957 100.276C98.186 100.235 97.5633 99.5477 97.6048 98.7407C97.6462 97.9351 98.3451 97.3257 99.146 97.3562C105.345 97.673 109.895 97.8701 113.263 98.0156C122.514 98.4164 123.27 98.4489 124.585 99.6242C124.879 99.8869 125.054 100.255 125.071 100.648C125.148 102.409 125.234 104.172 125.319 105.938C125.593 111.587 125.876 117.429 125.876 123.174C125.876 124.568 125.86 125.961 125.823 127.35C125.804 128.068 125.266 128.666 124.551 128.761C114.142 130.155 89.0994 130.227 84.0456 130.227C80.2807 130.25 75.6449 130.168 73.4178 130.141C72.7611 130.134 72.3328 130.128 72.2288 130.128C64.4365 130.128 56.4404 130.815 48.708 131.481C40.9192 132.152 32.8652 132.844 24.9575 132.844C23.6155 132.844 22.2347 132.905 20.9002 132.962C19.5331 133.021 18.1204 133.083 16.7152 133.083Z" fill="#525D7D"/>
<path d="M108.72 120.198C104.435 120.198 101.875 117.331 101.875 112.53C101.875 108.608 103.887 104.388 108.307 104.388C108.724 104.388 109.155 104.428 109.589 104.507C109.952 104.573 110.368 104.596 110.809 104.619C112.121 104.69 113.755 104.78 114.908 106.17C116.185 107.709 116.859 109.583 116.859 111.588C116.859 116.255 113.132 120.198 108.72 120.198ZM108.307 107.311C105.547 107.311 104.811 110.591 104.811 112.53C104.811 115.723 106.09 117.274 108.72 117.274C111.833 117.274 113.924 114.335 113.924 111.588C113.924 110.271 113.481 109.04 112.644 108.032C112.327 107.648 111.678 107.595 110.647 107.537C110.136 107.51 109.607 107.481 109.063 107.382C108.802 107.335 108.548 107.311 108.307 107.311Z" fill="#525D7D"/>
<path d="M109.326 115.308C108.515 115.308 107.858 114.654 107.858 113.846C107.858 113.763 107.852 113.675 107.846 113.582C107.835 113.421 107.827 113.253 107.827 113.084C107.827 112.749 107.827 111.729 108.675 110.885C109.248 110.316 110.174 110.317 110.748 110.887C111.314 111.45 111.321 112.358 110.771 112.933C110.767 112.956 110.762 113.003 110.762 113.085C110.762 113.195 110.77 113.302 110.776 113.406C110.785 113.56 110.793 113.708 110.793 113.847C110.793 114.654 110.137 115.308 109.326 115.308Z" fill="#525D7D"/>
<path d="M25.1365 139.659C15.2307 139.659 10.2149 139.368 9.22035 132.93C9.0973 132.132 9.6466 131.386 10.4481 131.262C11.251 131.142 11.9988 131.687 12.1219 132.484C12.7575 136.597 15.4231 136.735 26.6118 136.735L28.4269 136.733C37.1729 136.733 45.8863 136.142 54.3244 134.98C55.1293 134.879 55.8682 135.429 55.9797 136.228C56.0912 137.028 55.5304 137.765 54.7268 137.876C46.1562 139.058 37.3075 139.657 28.4269 139.657L26.6158 139.659C26.1107 139.658 25.6172 139.659 25.1365 139.659Z" fill="#525D7D"/>
<path d="M79.8937 137.498H63.3745C62.5635 137.498 61.9067 136.843 61.9067 136.036C61.9067 135.229 62.5635 134.574 63.3745 134.574H79.8937C80.7047 134.574 81.3614 135.229 81.3614 136.036C81.3621 136.843 80.7047 137.498 79.8937 137.498Z" fill="#525D7D"/>
<path d="M92.6754 137.89C91.8786 137.89 91.2246 137.254 91.2083 136.458C91.192 135.651 91.8358 134.983 92.6461 134.966C94.3702 134.932 96.0698 134.916 97.7306 134.9C110.407 134.778 120.42 134.682 122.735 126.999C122.969 126.225 123.783 125.789 124.563 126.019C125.339 126.251 125.78 127.065 125.547 127.839C122.611 137.584 111.094 137.695 97.7585 137.823C96.1078 137.84 94.4198 137.856 92.6754 137.89Z" fill="#525D7D"/>
</svg>
