<svg width="199" height="216" viewBox="0 0 199 216" fill="none" xmlns="http://www.w3.org/2000/svg">
<path d="M179.456 199.995C154.887 205.038 129.885 206.242 104.939 203.613C82.0199 201.197 60.6478 202.253 38.9034 210.782C37.6875 211.259 37.6823 213.438 39.2431 213.282C51.2253 212.088 62.9234 208.881 74.9644 208.147C86.4518 207.446 97.7265 209.374 109.122 210.486C133.259 212.842 157.533 211.358 181.295 206.639C185.653 205.776 183.816 199.1 179.456 199.995Z" fill="#E0DFE6"/>
<path d="M135.741 168.6C133.66 172.06 134.233 175.103 133.172 178.766C131.326 185.13 117.682 184.618 111.851 185.116C99.3392 186.185 86.7752 186.442 74.2772 187.638C72.8024 187.779 72.1515 190.218 73.8936 190.464C89.7584 192.709 106.008 192.073 121.94 190.817C126.994 190.418 133.921 190.802 137.586 186.651C141.157 182.605 139.425 176.656 141.874 172.17C144.057 168.17 138.095 164.684 135.741 168.6Z" fill="#E0DFE6"/>
<path d="M147.833 107.971C144.175 103.391 139.359 100.712 133.553 99.9156C129.224 99.3217 111.927 100.335 109.231 94.3987C114.218 89.2157 116.35 81.8667 115.764 74.7171C115.512 71.6271 114.992 68.5978 114.529 65.5559C114.698 61.2247 114.301 56.8477 113.671 53.0145C113.646 52.86 113.597 52.7264 113.554 52.5876C113.506 49.0613 113.514 45.5308 113.451 42.0077C113.415 39.9899 111.748 38.2173 109.669 38.2413C101.636 38.3332 91.9688 37.0252 84.1742 39.2831C77.8261 41.1214 74.0505 46.9401 70.6039 52.1731C69.1951 54.3121 72.2129 56.2454 73.9676 54.7578C79.2454 50.2847 82.779 45.6519 90.2748 45.5246C95.4604 45.4359 100.67 45.6112 105.867 45.7135C105.819 52.6053 105.765 59.5493 106.682 66.3711C106.746 66.844 106.806 67.3044 106.868 67.7647C106.272 73.8141 104.672 76.4301 100.686 80.9178C96.1899 85.9796 93.9184 92.1793 93.9677 98.8884C93.9813 100.758 96.7465 101.16 97.2528 99.3311C98.8535 93.5416 101.531 88.6217 106.02 84.5631C106.08 84.5088 106.139 84.4587 106.197 84.4055C105.372 86.512 104.139 88.627 102.316 90.8369C100.059 93.5729 102.047 96.833 104.729 97.0199C104.83 97.3539 104.912 97.6869 105.048 98.0199C106.775 102.222 110.556 104.504 114.73 105.673C113.526 105.852 112.336 106.068 111.177 106.353C110.139 106.61 109.866 108.208 110.868 108.707C121.649 114.075 135.132 110.159 139.216 124.837C142.459 136.496 140.907 151.243 138.324 162.822C137.278 167.513 144.446 169.522 145.582 164.815C148.958 150.831 151.097 132.171 144.95 118.645C142.18 112.548 137.012 108.754 131.007 106.814C132.714 106.955 134.396 107.251 136.018 107.899C140.811 109.813 143.659 113.946 145.523 118.621C149.505 128.6 149.65 139.933 148.375 150.442C147.773 155.393 155.578 155.351 156.174 150.442C157.846 136.693 156.89 119.316 147.833 107.971Z" fill="#E0DFE6"/>
<path d="M193.823 84.6152C194.674 84.6027 195.461 84.1716 195.846 83.2613C196.405 81.9408 195.656 80.639 194.36 80.1787C194.677 80.2914 194.28 80.1077 194.064 79.9949C194.057 79.9574 193.798 79.7089 193.779 79.7246C193.691 79.5722 193.551 79.3112 193.535 79.3154C193.486 79.1076 193.402 78.6118 193.423 78.9009C193.341 77.784 192.524 76.8278 191.341 76.8278C190.193 76.8278 189.283 77.7767 189.259 78.9009C189.213 81.066 190.445 83.2237 192.384 84.2342L192.161 84.1768C191.402 83.9816 190.687 84.0348 190.053 84.2613C183.57 83.7905 177.074 83.7728 170.592 84.2384C171.662 83.5557 172.571 82.6015 173.185 81.5055C173.816 80.378 174.093 79.0565 174.039 77.7746C174.008 77.0355 173.8 76.3361 173.596 75.6336C173.427 75.1753 173.271 74.7128 173.127 74.2462C173.118 74.1178 173.107 74.028 173.098 73.9445C176.583 72.1125 173.387 66.6446 169.748 68.5079C167.165 69.8305 166.424 72.8401 167.303 75.4644C167.682 76.5939 168.796 77.8414 168.815 79.046C168.84 80.6255 167.434 81.3343 166.114 81.5973C164.418 81.9355 164.458 83.7916 165.449 84.7353C159.652 85.7489 143.823 89.8702 142.064 86.3836C141.244 84.7593 138.921 85.6612 138.836 87.2542C138.447 94.432 151.14 93.2284 155.569 92.8943C168.113 91.9496 180.101 91.1573 192.685 92.2962C197.129 92.7012 197.949 85.7854 193.823 84.6152Z" fill="#E0DFE6"/>
<path d="M29.7202 60.611C28.5557 64.1999 28.7045 67.5967 29.0085 71.3287C29.3031 74.9437 30.9026 82.7551 28.5955 85.7855C27.2768 87.5174 26.5588 86.7898 24.2926 86.7783C22.6898 86.7699 21.1364 86.9119 19.5514 87.1363C15.2988 87.7387 11.1898 88.6228 6.92143 89.0717C6.40466 88.9799 5.98956 89.0227 5.2883 89.2711C3.21282 90.007 3.07236 92.931 5.2883 93.6147C10.3156 95.166 15.3009 93.717 20.4152 93.4905C24.4246 93.312 29.1888 95.3163 32.866 92.979C36.389 90.7399 36.4823 86.0663 36.7507 82.324C37.2192 75.7861 35.1794 68.935 36.8314 62.5631C38.0253 57.9637 31.1762 56.1275 29.7202 60.611Z" fill="#E0DFE6"/>
<path d="M111.384 110.76C110.163 107.826 105.719 107.649 105.018 110.744C104.133 110.69 103.28 110.966 102.595 111.554C102.537 111.465 102.489 111.369 102.43 111.282C101.099 109.286 98.359 110.607 98.7091 112.844C99.1294 115.53 99.9324 118.191 100.736 120.833C100.996 122.424 101.493 123.992 102.215 125.506C103.985 129.219 109.496 126.3 108.301 122.653C110.084 122.854 111.917 121.707 112.154 119.274C112.424 116.492 112.475 113.381 111.384 110.76Z" fill="#E0DFE6"/>
<path d="M181.958 166.126C180.941 161.53 174.441 163.615 175.05 168.022C175.61 172.073 176.545 177.445 174.876 181.365C173.206 185.287 168.328 183.671 165.065 183.138C162.596 182.735 160.854 185.949 163.274 187.368C168.195 190.251 175.194 191.767 179.52 187.055C184.209 181.947 183.322 172.297 181.958 166.126Z" fill="#E0DFE6"/>
<path d="M130.159 157.089C130.114 148.777 130.16 140.452 129.882 132.145C129.726 127.472 122.595 127.438 122.567 132.145C122.535 137.688 122.692 143.233 122.806 148.774C122.907 153.671 124.308 160.861 123.036 165.566C121.589 170.913 112.054 169.934 107.33 170.375C101.114 170.956 94.9194 171.69 88.716 172.391C86.8743 172.599 86.7695 175.294 88.716 175.33C96.8324 175.477 104.939 175.598 113.058 175.565C117.169 175.548 125.238 177.167 128.44 173.395C131.605 169.666 130.182 161.461 130.159 157.089Z" fill="#E0DFE6"/>
<path d="M64.4093 168.315C62.8516 164.732 56.7929 167.284 58.057 170.982C58.3055 171.708 58.4281 172.34 58.4941 172.953C55.0969 171.596 51.6398 170.111 48.166 169.422C46.643 169.12 45.3075 170.958 46.5685 172.155C50.1356 175.541 55.1545 177.885 59.4323 180.251C60.9973 181.116 62.9994 180.622 63.9292 179.076C65.9722 175.683 65.9564 171.873 64.4093 168.315Z" fill="#E0DFE6"/>
<path d="M64.9023 148.572C64.287 147.525 63.0721 146.951 61.8928 147.04C61.7995 146.604 61.6916 146.174 61.5584 145.757C60.8603 143.56 57.5742 142.852 56.3918 145.085C55.1538 147.423 53.8037 150.524 54.3886 153.211C54.7251 154.761 56.5154 155.038 57.6402 154.271C58.5605 155.041 59.8498 155.297 61.0993 154.566C62.0155 154.03 62.8949 153.476 63.7681 152.875C65.1706 151.91 65.809 150.117 64.9023 148.572Z" fill="#E0DFE6"/>
<path d="M138.012 145.919C137.913 145.076 137.489 144.403 136.923 143.942C136.498 142.287 136.407 140.504 136.214 138.864C135.957 136.685 132.729 135.843 132.095 138.309C131.29 141.443 131.848 144.339 132.229 147.474C132.676 151.15 137.834 151.309 138.098 147.474C138.136 146.928 138.076 146.462 138.012 145.919Z" fill="#E0DFE6"/>
<path d="M148.087 63.9754C147.153 69.2011 146.066 74.3632 145.036 79.5587C144.556 79.7121 144.166 80.1798 144.155 80.7059C144.119 82.349 144.399 82.9659 145.726 83.9503C146.671 84.6518 148.358 84.1476 148.861 83.1319C151.603 77.5878 153.294 70.8964 153.874 64.7552C154.181 61.492 148.669 60.7185 148.087 63.9754Z" fill="#E0DFE6"/>
<path d="M156.155 29.6992C155.657 24.7021 148.227 25.6917 149.328 30.6189C149.71 32.3308 148.796 33.9865 147.267 34.785C145.288 35.8185 143.398 34.7923 141.806 33.5501C140.572 32.5876 137.995 33.4154 138.757 35.3174C140.333 39.2498 145.147 41.1517 149.183 40.1454C153.68 39.0253 156.599 34.1577 156.155 29.6992Z" fill="#E0DFE6"/>
<path d="M66.239 179.898C65.043 179.898 64.0524 178.971 63.9801 177.781C63.6342 172.103 63.2002 166.357 62.7799 160.802C62.0692 151.392 61.3333 141.662 61.0084 132.01C61.0073 131.985 61.0052 131.851 61.0052 131.826C61.0052 128.366 64.2998 125.712 67.2464 125.649C73.3638 125.518 79.5703 125.464 85.5724 125.411C99.3167 125.289 113.528 125.163 127.367 124.115C128.142 124.058 128.886 124.396 129.349 125.012C129.466 125.163 129.956 125.464 130.281 125.663C131.35 126.319 133.141 127.417 133.236 129.643C133.447 134.545 133.573 139.508 133.694 144.308C133.955 154.578 134.224 165.199 135.344 175.66C135.41 176.282 135.215 176.903 134.804 177.374C134.394 177.846 133.805 178.128 133.178 178.151C111.636 178.956 88.7223 179.753 66.239 179.898ZM126.697 128.686C113.031 129.675 99.0976 129.799 85.6133 129.919C79.6259 129.972 73.433 130.027 67.3449 130.157C66.6625 130.171 65.5336 130.985 65.5336 131.827C65.8554 141.42 66.587 151.101 67.2946 160.464C67.6635 165.343 68.043 170.367 68.3659 175.375C89.2485 175.201 110.488 174.482 130.603 173.737C129.666 163.887 129.415 154.004 129.172 144.424C129.053 139.711 128.93 134.839 128.726 130.042C128.541 129.888 128.17 129.661 127.91 129.501C127.534 129.27 127.108 129.011 126.697 128.686Z" fill="#525D7D"/>
<path d="M66.5746 189.096C65.4216 189.096 64.4404 188.226 64.3251 187.066C64.041 184.222 63.6668 181.329 63.3377 178.874C63.1731 177.64 64.0421 176.507 65.2821 176.341C66.5306 176.181 67.6585 177.044 67.8241 178.278C68.0746 180.148 68.3513 182.272 68.5966 184.445C81.2801 183.623 94.0548 183.54 106.43 183.458C114.502 183.405 122.824 183.352 131.064 183.092C130.682 180.85 130.318 178.541 130.318 176.186C130.318 175.709 130.332 175.234 130.364 174.76C130.448 173.516 131.52 172.579 132.775 172.661C134.022 172.747 134.965 173.82 134.881 175.062C134.856 175.436 134.845 175.812 134.845 176.187C134.845 178.376 135.228 180.597 135.632 182.948C135.746 183.601 135.857 184.253 135.961 184.904C136.062 185.541 135.885 186.191 135.473 186.688C135.062 187.187 134.456 187.487 133.809 187.51C124.664 187.849 115.409 187.909 106.459 187.967C93.4468 188.053 79.9908 188.14 66.7402 189.091C66.6847 189.095 66.6291 189.096 66.5746 189.096Z" fill="#525D7D"/>
<path d="M97.7791 163.399C97.3504 163.399 96.9185 163.279 96.538 163.03C94.2466 161.532 91.972 159.956 89.7718 158.434C88.8242 157.779 87.8745 157.12 86.9175 156.463C86.3808 156.097 86.0296 155.517 85.9531 154.875C85.8755 154.231 86.081 153.584 86.5149 153.103C89.2854 150.025 92.1858 147.081 94.6565 144.607C95.5108 143.752 96.8881 143.718 97.7833 144.528C100.432 146.925 103.362 149.138 106.493 151.101C107.057 151.456 107.435 152.038 107.528 152.696C107.621 153.354 107.416 154.018 106.972 154.512C105.624 156.01 104.251 157.485 102.87 158.966C101.733 160.186 100.592 161.412 99.4584 162.658C99.0139 163.145 98.3997 163.399 97.7791 163.399ZM91.6166 154.221C91.863 154.391 92.1093 154.561 92.3546 154.732C94.0118 155.879 95.711 157.056 97.4175 158.198C98.1282 157.427 98.841 156.662 99.5527 155.899C100.315 155.08 101.076 154.264 101.832 153.443C99.9259 152.141 98.0978 150.751 96.3682 149.29C94.8525 150.822 93.2299 152.489 91.6166 154.221Z" fill="#525D7D"/>
<path d="M52.5849 172.248C49.7998 172.248 46.7253 172.122 44.3155 169.727C41.4978 166.928 40.241 161.594 40.241 152.429C40.241 107.672 51.9685 103.435 67.2998 102.545C72.2569 102.258 76.5367 102.008 79.5556 98.711C80.4529 97.7308 80.9078 96.4802 80.9078 94.9968C80.9078 89.8139 78.477 88.5842 75.3984 87.0288C73.5378 86.0872 71.6132 85.1143 70.4602 83.1716C68.6352 80.0963 68.6939 78.2632 68.9266 76.5053C69.1132 75.0992 69.3061 73.645 62.6195 66.9871C61.7421 66.1154 61.2379 64.7918 61.2379 63.3585C61.2379 61.3396 62.3019 59.6788 63.2401 58.2142C63.8344 57.2851 64.4487 56.3268 64.4948 55.6786L64.4214 54.951C63.9612 50.5165 63.3512 44.3064 63.3512 41.6058C63.3512 22.9953 80.4456 20.4868 97.1678 20.4868C114.539 20.4868 120.107 22.8857 124.707 25.5591C125.334 25.9245 125.747 26.5675 125.818 27.2857C125.888 28.006 125.608 28.7158 125.064 29.195C115.429 37.6704 101.502 41.587 85.2852 40.3396C85.0106 41.3355 84.9498 42.3804 84.8827 43.5329C84.6374 47.7763 84.3324 53.0584 72.955 58.2079C71.8187 58.7278 70.477 58.2225 69.9581 57.0899C69.4413 55.9562 69.9445 54.6201 71.0818 54.1054C79.9697 50.0823 80.1437 47.0779 80.3627 43.275C80.4749 41.3469 80.6007 39.1621 81.8166 36.8895C82.2485 36.0836 83.1227 35.6201 84.0368 35.7057C86.4382 35.9438 88.8229 36.0638 91.1238 36.0638C99.1427 36.0638 110.239 34.5888 119.431 27.9246C115.567 26.2616 109.749 24.9954 97.1657 24.9954C76.0881 24.9954 67.8753 29.6522 67.8753 41.6069C67.8753 44.3889 68.6625 51.9926 68.9204 54.4906C68.9906 55.166 69.021 55.5731 69.021 55.6055C69.021 57.5691 67.9759 59.2007 67.0524 60.6402C66.4172 61.6319 65.761 62.6559 65.761 63.3606C65.761 63.6101 65.8302 63.8053 65.8617 63.8554C73.5074 71.4602 73.8166 74.0386 73.4109 77.0982C73.2726 78.14 73.173 78.8916 74.3543 80.8823C74.8355 81.6924 76.0441 82.3041 77.4445 83.0119C80.6248 84.6205 85.4309 87.0518 85.4309 95C85.4309 97.6055 84.5546 99.9386 82.8963 101.751C78.6363 106.403 73.0053 106.731 67.5598 107.046C56.3522 107.698 44.7641 108.37 44.7641 152.431C44.7641 159.983 45.6876 164.73 47.5073 166.538C48.674 167.697 50.2893 167.738 53.0639 167.743L53.5975 167.742C55.7778 167.742 57.9444 167.558 60.2358 167.365C61.7201 167.241 63.2055 167.114 64.6897 167.04C65.9549 167.008 67.0011 167.935 67.0629 169.178C67.1258 170.421 66.1646 171.48 64.9162 171.541C63.4832 171.613 62.0503 171.736 60.6185 171.856C58.3333 172.05 55.9696 172.249 53.5964 172.249L53.0754 172.25C52.9172 172.248 52.7515 172.248 52.5849 172.248Z" fill="#525D7D"/>
<path d="M133.607 171.805C132.658 171.805 131.771 171.209 131.455 170.266C131.06 169.084 131.692 167.81 132.878 167.418C140.622 164.847 143.225 163.982 143.225 140.526C143.225 107.941 128.252 107.435 115.041 106.989C107.516 106.733 98.9852 106.446 98.9852 96.9551C98.9852 90.4266 101.97 88.39 104.602 86.5924C107.749 84.443 111.318 82.0066 111.318 68.4798C111.318 62.9294 110.533 57.1577 109.775 51.5781C109.133 46.8545 108.47 41.9701 108.268 37.1776C108.216 35.9333 109.187 34.8841 110.435 34.8309C111.685 34.7547 112.739 35.7454 112.79 36.9897C112.982 41.5734 113.632 46.3524 114.26 50.9737C115.039 56.7026 115.844 62.6256 115.844 68.4808C115.844 83.1862 111.911 87.0674 107.161 90.3107C104.808 91.9173 103.511 92.8036 103.511 96.9562C103.511 101.669 106.54 102.191 115.194 102.484C128.158 102.922 147.752 103.586 147.752 140.527C147.752 165.94 144.302 168.378 134.326 171.69C134.088 171.767 133.846 171.805 133.607 171.805Z" fill="#525D7D"/>
<path d="M132.605 152.701C131.874 152.701 131.157 152.349 130.721 151.698C130.028 150.662 130.308 149.264 131.348 148.573C132.564 147.766 133.719 146.558 134.838 145.39C135.245 144.964 135.647 144.544 136.05 144.144C136.933 143.264 138.366 143.264 139.25 144.144C140.134 145.024 140.134 146.451 139.25 147.331C138.874 147.707 138.497 148.101 138.116 148.499C136.827 149.846 135.494 151.239 133.861 152.323C133.472 152.579 133.036 152.701 132.605 152.701Z" fill="#525D7D"/>
<path d="M61.6539 157.097C61.4485 157.097 61.2388 157.069 61.0313 157.01C60.6581 156.905 60.2755 156.808 59.8897 156.711C57.8772 156.201 55.373 155.569 53.6078 153.459C52.808 152.504 52.9369 151.082 53.8971 150.286C54.8583 149.489 56.286 149.617 57.0847 150.575C57.9086 151.559 59.3426 151.921 61.003 152.341C61.4327 152.45 61.8594 152.557 62.2745 152.675C63.4757 153.017 64.1717 154.264 63.829 155.461C63.5449 156.453 62.6392 157.097 61.6539 157.097Z" fill="#525D7D"/>
<path d="M83.3985 114.058C82.8513 114.058 82.3062 113.862 81.8796 113.476C80.8524 112.55 79.8786 111.58 78.9362 110.643C77.4876 109.2 76.1196 107.839 74.5955 106.646C73.6123 105.876 73.4414 104.46 74.214 103.481C74.9855 102.5 76.4089 102.331 77.3922 103.101C79.1291 104.461 80.6584 105.983 82.1364 107.456C82.6459 107.962 83.1542 108.468 83.671 108.967C84.1794 108.657 84.692 108.351 85.2046 108.044C87.2014 106.851 89.0882 105.725 90.7287 104.343C91.3335 103.833 92.1627 103.678 92.91 103.927C96.2161 105.031 99.3073 106.52 102.406 108.116C103.582 107.111 104.787 106.175 105.962 105.262C107.004 104.452 108.048 103.644 109.062 102.792C110.018 101.988 111.444 102.108 112.252 103.062C113.058 104.013 112.937 105.435 111.981 106.237C110.923 107.127 109.835 107.973 108.746 108.819C107.17 110.042 105.683 111.198 104.276 112.49C103.573 113.138 102.54 113.272 101.69 112.83C98.5537 111.192 95.6732 109.729 92.6228 108.607C90.9845 109.85 89.235 110.894 87.5327 111.911C86.5578 112.493 85.583 113.076 84.6375 113.693C84.2591 113.936 83.8272 114.058 83.3985 114.058Z" fill="#525D7D"/>
<path d="M91.8493 104.718C88.5002 104.718 84.9121 104.563 80.2182 104.219C78.9719 104.126 78.0358 103.046 78.127 101.805C78.2203 100.564 79.3041 99.6213 80.5505 99.7225C85.1302 100.06 88.6144 100.21 91.8482 100.21C95.1197 100.21 98.1271 100.053 101.044 99.7299C102.283 99.6025 103.406 100.485 103.543 101.723C103.681 102.96 102.785 104.073 101.544 104.211C98.4614 104.552 95.2895 104.718 91.8493 104.718Z" fill="#525D7D"/>
<path d="M82.7376 64.6581C82.2082 64.6581 81.6778 64.4744 81.2481 64.1007C80.3068 63.2802 80.2124 61.8574 81.0353 60.92C83.4462 58.1776 86.9483 57.8081 90.0573 57.8081C91.3078 57.8081 92.3204 58.8176 92.3204 60.0619C92.3204 61.3062 91.3078 62.3156 90.0573 62.3156C87.8592 62.3156 85.6569 62.5067 84.442 63.8898C83.9933 64.3982 83.3676 64.6581 82.7376 64.6581Z" fill="#525D7D"/>
<path d="M101.034 63.3564C100.456 63.3564 99.877 63.1361 99.4357 62.6977C98.551 61.8187 98.5489 60.3906 99.4326 59.5106C100.452 58.4918 101.871 58.1943 103.481 58.3457C103.734 58.3686 103.99 58.4177 104.255 58.3707C105.481 58.1285 106.672 58.925 106.914 60.1464C107.156 61.3667 106.357 62.5526 105.131 62.7937C104.479 62.9231 103.753 62.9012 103.056 62.8334C102.877 62.8177 102.7 62.7968 102.528 62.7968C102.102 63.1695 101.568 63.3564 101.034 63.3564Z" fill="#525D7D"/>
<path d="M91.3661 81.35C90.581 81.35 89.8368 81.1433 89.1533 80.7362C88.0883 80.1005 87.755 78.7403 88.3829 77.6734C88.9982 76.6285 90.3452 76.2694 91.4112 76.831C91.6408 76.7704 92.1617 76.5345 92.5045 76.3163C92.5108 75.9938 92.5202 75.6712 92.5307 75.3476C92.5464 74.8497 92.5621 74.3528 92.5621 73.8548C92.5621 72.788 92.4814 71.9925 92.3032 71.2795C91.9992 70.0718 92.7361 68.8483 93.9489 68.5456C95.1575 68.2481 96.3902 68.9767 96.6942 70.1845C96.9678 71.2702 97.0894 72.4028 97.0894 73.8548C97.0894 74.3987 97.0726 74.9436 97.0559 75.4875C97.0401 75.9854 97.0244 76.4823 97.0244 76.9782C97.0244 79.8478 92.8211 81.35 91.3661 81.35Z" fill="#525D7D"/>
<path d="M92.5339 118.525C88.9354 118.525 85.6146 116.728 83.4249 113.592C82.711 112.571 82.9647 111.167 83.9898 110.455C85.0171 109.745 86.427 109.997 87.1408 111.019C88.4731 112.925 90.4385 114.018 92.5339 114.018C93.796 114.018 96.819 113.673 97.6209 110.476C97.9228 109.27 99.1492 108.533 100.365 108.837C101.578 109.14 102.315 110.363 102.012 111.571C100.934 115.86 97.3033 118.525 92.5339 118.525Z" fill="#525D7D"/>
<path d="M85.8356 129.581C85.6542 129.581 85.4697 129.559 85.2852 129.513C84.0724 129.21 83.3355 127.987 83.6385 126.779C84.1007 124.936 84.758 123.186 85.3943 121.492C85.8377 120.311 86.2559 119.195 86.6175 118.044C86.9907 116.855 88.258 116.191 89.453 116.565C90.6469 116.936 91.3104 118.201 90.9383 119.387C90.54 120.658 90.0798 121.883 89.6343 123.07C89.0159 124.719 88.431 126.276 88.0295 127.873C87.7716 128.899 86.8502 129.581 85.8356 129.581Z" fill="#525D7D"/>
<path d="M100.921 128.299C99.973 128.299 99.0904 127.703 98.7738 126.758C97.692 123.531 96.0337 120.679 94.4017 118.079C93.7392 117.024 94.061 115.634 95.1218 114.973C96.1815 114.314 97.5767 114.636 98.2402 115.69C100.02 118.526 101.837 121.658 103.067 125.331C103.462 126.512 102.822 127.789 101.636 128.182C101.399 128.263 101.157 128.299 100.921 128.299Z" fill="#525D7D"/>
<path d="M2.63418 88.5131C1.4455 88.5131 0.450735 87.5914 0.37736 86.3972C0.122642 82.2853 0 77.7986 0 72.6856C0 67.843 0.109015 62.9429 0.213837 58.2026L0.271489 55.5699C0.295598 54.4227 1.18239 53.4759 2.33124 53.3736C9.73693 52.7107 17.2328 52.4873 24.4812 52.2702L27.7674 52.1721C28.9833 52.0781 30.0242 53.0719 30.0976 54.2891C30.5053 61.1067 30.8324 68.0528 31.1479 74.7703C31.3114 78.2579 31.4749 81.7445 31.65 85.2238C31.6804 85.823 31.4707 86.4076 31.0661 86.8512C30.6626 87.2939 30.0976 87.5601 29.4969 87.5882C24.9246 87.8043 20.2852 87.9359 15.7988 88.0653C11.5147 88.1864 7.08598 88.3127 2.739 88.511C2.70441 88.5121 2.66877 88.5131 2.63418 88.5131ZM4.75264 57.6943L4.73901 58.3028C4.63419 63.0171 4.52622 67.8931 4.52622 72.6856C4.52622 76.8027 4.60693 80.4992 4.77255 83.9127C8.4256 83.7655 12.0965 83.6622 15.6678 83.5588C19.391 83.4523 23.2202 83.3427 27.0158 83.1861C26.8816 80.4543 26.7537 77.7193 26.6248 74.9811C26.3439 68.9954 26.0535 62.8292 25.7055 56.7454L24.6154 56.7777C18.0975 56.9719 11.3763 57.1713 4.75264 57.6943Z" fill="#525D7D"/>
<path d="M10.7524 66.9599C9.50184 66.9599 8.48926 65.9505 8.48926 64.7061C8.48926 63.4618 9.50184 62.4524 10.7524 62.4524C13.0239 62.4524 15.1685 62.4524 16.9715 61.8532C18.1633 61.4586 19.439 62.0995 19.8342 63.2781C20.2293 64.4587 19.5889 65.7354 18.4033 66.129C15.9033 66.9599 13.2849 66.9599 10.7524 66.9599Z" fill="#525D7D"/>
<path d="M17.6889 73.8684H10.9928C9.74232 73.8684 8.72974 72.8589 8.72974 71.6146C8.72974 70.3703 9.74232 69.3608 10.9928 69.3608H17.6889C18.9394 69.3608 19.952 70.3703 19.952 71.6146C19.952 72.8589 18.9384 73.8684 17.6889 73.8684Z" fill="#525D7D"/>
<path d="M16.9705 79.5837H11.4705C10.22 79.5837 9.2074 78.5743 9.2074 77.3299C9.2074 76.0856 10.22 75.0762 11.4705 75.0762H16.9705C18.2211 75.0762 19.2336 76.0856 19.2336 77.3299C19.2336 78.5743 18.2211 79.5837 16.9705 79.5837Z" fill="#525D7D"/>
<path d="M139.142 87.8075C137.963 87.8075 136.968 86.8972 136.886 85.7072C136.218 75.976 136.07 66.1832 135.927 56.713C135.866 52.7076 135.807 48.6959 135.708 44.6707C135.692 44.0423 135.942 43.4347 136.396 42.9984C136.848 42.561 137.47 42.3449 138.096 42.3658C139.874 42.4639 141.637 42.5766 143.4 42.6904C144.957 42.7906 146.517 42.8898 148.086 42.9806C149.294 43.0485 150.234 44.0517 150.22 45.2563C150.188 47.9537 150.172 50.6501 150.172 53.3475C150.172 63.8167 150.404 73.192 150.945 84.6925C151.004 85.9358 150.039 86.9922 148.79 87.0496C147.546 87.1185 146.483 86.1477 146.423 84.9044C145.879 73.3287 145.646 63.8919 145.646 53.3475C145.646 51.3485 145.655 49.3505 145.672 47.3524C144.817 47.2992 143.963 47.2439 143.109 47.1896C142.17 47.1291 141.231 47.0695 140.289 47.01C140.357 50.2284 140.405 53.4383 140.453 56.6441C140.595 66.0559 140.742 75.7881 141.402 85.3992C141.487 86.6425 140.546 87.7177 139.299 87.8012C139.246 87.8065 139.193 87.8075 139.142 87.8075Z" fill="#525D7D"/>
<path d="M158.334 87.2574C157.193 87.2574 156.211 86.4003 156.087 85.2437C155.237 77.3467 155.121 69.5227 155.121 62.9106C155.121 60.4303 155.139 57.9511 155.157 55.4719C155.175 53.002 155.193 50.5311 155.193 48.0613L155.19 46.1958C155.183 44.9578 156.183 43.9452 157.428 43.9316C158.377 43.9212 159.33 43.918 160.284 43.9139C162.387 43.9066 164.562 43.8992 166.676 43.8116C167.958 43.7729 168.978 44.7239 169.031 45.9672L169.159 48.9183C169.684 61.1225 170.18 72.6512 171.138 84.5934C171.238 85.8335 170.309 86.9202 169.063 87.0194C167.794 87.1018 166.725 86.1916 166.627 84.9514C165.661 72.9268 165.14 60.8197 164.637 49.1104L164.606 48.3838C163.156 48.413 161.713 48.4172 160.301 48.4224C160.107 48.4235 159.913 48.4235 159.72 48.4256C159.719 50.7848 159.701 53.144 159.684 55.5042C159.667 57.9741 159.649 60.4418 159.649 62.9117C159.649 69.4047 159.76 77.0784 160.587 84.7635C160.72 86.0016 159.821 87.1123 158.577 87.2449C158.497 87.2532 158.416 87.2574 158.334 87.2574Z" fill="#525D7D"/>
<path d="M154.2 60.1777H148.685C147.435 60.1777 146.422 59.1683 146.422 57.9239C146.422 56.6796 147.435 55.6702 148.685 55.6702H154.2C155.451 55.6702 156.463 56.6796 156.463 57.9239C156.463 59.1683 155.451 60.1777 154.2 60.1777Z" fill="#525D7D"/>
<path d="M180.759 85.8741C180.586 85.8741 180.412 85.8553 180.242 85.8136C179.626 85.6695 179.099 85.277 178.789 84.7279C176.669 80.9876 174.692 77.1158 172.781 73.3693C170.938 69.7554 169.031 66.0193 167.005 62.422C166.71 61.9 166.637 61.28 166.801 60.7037C166.966 60.1275 167.356 59.6379 167.882 59.3477C169.351 58.5377 170.72 57.6034 172.169 56.6127C173.224 55.8924 174.278 55.1732 175.368 54.503C175.887 54.1846 176.514 54.0865 177.105 54.2347C177.698 54.3819 178.205 54.7598 178.512 55.2838C180.474 58.6274 182.529 61.9825 184.517 65.2249C186.855 69.0403 189.272 72.9852 191.569 76.9634C192.18 78.023 191.833 79.3738 190.787 80.0106L189.434 80.8311C186.972 82.3249 184.426 83.8698 182.027 85.4868C181.65 85.7415 181.208 85.8741 180.759 85.8741ZM172.017 62.137C173.69 65.2008 175.276 68.3075 176.817 71.3285C178.345 74.3224 179.915 77.3977 181.555 80.3978C183.211 79.3352 184.89 78.3111 186.539 77.311C184.605 74.0217 182.602 70.7523 180.655 67.5726C179.058 64.967 177.419 62.2905 175.812 59.5962C175.451 59.8394 175.092 60.0847 174.732 60.33C173.85 60.9303 172.951 61.5451 172.017 62.137Z" fill="#525D7D"/>
<path d="M133.057 88.0967C131.863 88.0967 130.865 87.1666 130.8 85.9651C130.732 84.7218 131.689 83.6602 132.937 83.5923C142.22 83.0902 151.592 82.8929 160.655 82.7019C172.253 82.4565 184.247 82.205 196.08 81.3062C197.326 81.2185 198.414 82.1413 198.509 83.3825C198.605 84.6237 197.671 85.7062 196.424 85.8022C184.467 86.7073 172.412 86.961 160.751 87.2084C151.724 87.3994 142.391 87.5956 133.183 88.0946C133.14 88.0957 133.098 88.0967 133.057 88.0967Z" fill="#525D7D"/>
<path d="M145.054 35.7631C144.949 35.7631 144.844 35.7621 144.739 35.7569C140.588 35.6003 137.361 32.3089 137.233 28.0999C137.105 23.8356 140.171 20.0651 144.069 19.6924C144.6 19.6423 145.14 19.659 145.673 19.7352C146.845 19.9095 148.208 20.1841 149.465 20.9033C151.727 22.1915 153.264 24.8889 153.289 27.6103C153.305 29.6543 152.308 31.8997 150.682 33.4708C149.146 34.9562 147.158 35.7631 145.054 35.7631ZM144.69 24.1707C144.624 24.1707 144.56 24.1738 144.496 24.1791C142.983 24.3242 141.701 26.0925 141.758 27.9642C141.814 29.8015 143.14 31.1836 144.912 31.2514C145.927 31.2901 146.794 30.9487 147.531 30.2347C148.39 29.4037 148.769 28.3379 148.764 27.649C148.755 26.6834 148.174 25.3587 147.216 24.8127C146.727 24.5319 146.088 24.3534 145.012 24.1937C144.904 24.1801 144.796 24.1707 144.69 24.1707Z" fill="#525D7D"/>
<path d="M30.8794 73.7651C29.8071 73.7651 28.8543 73.002 28.6551 71.9132C28.4318 70.6897 29.2484 69.5154 30.478 69.2941C31.7704 69.0602 33.0021 68.8849 34.2358 68.7084C35.412 68.5414 36.5891 68.3754 37.8239 68.152C39.0482 67.9286 40.2306 68.7418 40.4549 69.9674C40.6782 71.1908 39.8617 72.3652 38.6321 72.5865C37.3417 72.8203 36.109 72.9957 34.8763 73.17C33.6992 73.3391 32.521 73.5041 31.2883 73.7275C31.1499 73.7536 31.0136 73.7651 30.8794 73.7651Z" fill="#525D7D"/>
<path d="M44.8832 65.7658C44.4104 65.7658 43.9335 65.6196 43.5268 65.3148C42.5268 64.5684 42.3234 63.155 43.0739 62.1591L43.7343 61.2958C44.8612 59.8375 45.9251 58.4596 46.3884 56.9219C46.7469 55.7287 48.01 55.0554 49.206 55.4104C50.4031 55.7674 51.0834 57.0232 50.7239 58.2163C50.0215 60.5505 48.5876 62.4076 47.3213 64.0444L46.6945 64.8649C46.25 65.4547 45.5708 65.7658 44.8832 65.7658Z" fill="#525D7D"/>
<path d="M50.8522 49.0801C50.6709 49.0801 50.4864 49.0582 50.303 49.0122C49.0902 48.7116 48.3522 47.4881 48.6562 46.2803C48.9937 44.9348 49.1374 43.9535 49.1374 42.9983C49.1374 42.6246 49.1143 42.2447 49.065 41.8511C48.9088 40.6162 49.7873 39.4888 51.0283 39.3332C52.2663 39.1819 53.4005 40.0535 53.5556 41.2874C53.6279 41.8615 53.6625 42.42 53.6625 42.9983C53.6625 44.3231 53.4728 45.6738 53.0462 47.3723C52.7904 48.3963 51.8669 49.0801 50.8522 49.0801Z" fill="#525D7D"/>
<path d="M54.0672 31.9363C53.9739 31.9363 53.8796 31.93 53.7842 31.9185C52.5441 31.764 51.6636 30.6387 51.8187 29.4038C51.9896 28.0405 52.3628 26.84 52.7223 25.6781C52.9047 25.0925 53.0892 24.4996 53.2454 23.8795C53.5473 22.6717 54.7705 21.9379 55.9896 22.2385C57.2024 22.5391 57.9393 23.7626 57.6364 24.9704C57.4603 25.675 57.2527 26.3462 57.0473 27.0101C56.7307 28.0279 56.4309 28.9925 56.3093 29.9612C56.1668 31.1012 55.193 31.9363 54.0672 31.9363Z" fill="#525D7D"/>
<path d="M62.5581 16.6212C61.9197 16.6212 61.2856 16.354 60.839 15.8331C60.0256 14.8884 60.1367 13.4645 61.0853 12.6555C61.4061 12.3809 61.7269 12.098 62.0508 11.812C63.4375 10.5886 64.8705 9.32338 66.5948 8.4653C67.7111 7.9089 69.0717 8.36091 69.6315 9.4737C70.1902 10.5875 69.7363 11.9415 68.6189 12.4979C67.4271 13.0908 66.273 14.1086 65.0529 15.1859C64.7101 15.4886 64.3705 15.7893 64.0298 16.0795C63.6021 16.4438 63.0791 16.6212 62.5581 16.6212Z" fill="#525D7D"/>
<path d="M77.7055 8.62296C76.7579 8.62296 75.8742 8.02481 75.5577 7.08113C75.1625 5.90049 75.804 4.62381 76.9896 4.23026C77.6562 4.00895 78.3218 3.76259 78.9885 3.51728C80.412 2.99324 81.8847 2.44937 83.411 2.11115C84.6269 1.84183 85.8407 2.60805 86.1112 3.82314C86.3827 5.03823 85.6133 6.24184 84.3921 6.51221C83.1667 6.78258 81.9015 7.25024 80.5608 7.74505C79.847 8.00811 79.1332 8.27117 78.4204 8.50813C78.1835 8.58538 77.9424 8.62296 77.7055 8.62296Z" fill="#525D7D"/>
<path d="M99.3957 4.79282C98.8391 4.79282 98.2814 4.77925 97.7165 4.76463C97.1777 4.75106 96.6295 4.73645 96.0687 4.73645C94.8181 4.73645 93.8055 3.72805 93.8055 2.48268C93.8055 1.23731 94.8181 0.228913 96.0687 0.228913C96.6703 0.228913 97.2563 0.243527 97.8349 0.259186C98.3601 0.272757 98.8789 0.286327 99.3968 0.286327C100.551 0.286327 101.441 0.211167 102.281 0.0441437C103.507 -0.200127 104.7 0.591144 104.945 1.81146C105.19 3.03177 104.396 4.21972 103.17 4.46399C102.024 4.69156 100.86 4.79282 99.3957 4.79282Z" fill="#525D7D"/>
<path d="M118.333 6.79407C118.151 6.79407 117.967 6.77215 117.782 6.72622C117.115 6.56024 116.446 6.33998 115.778 6.11867C114.699 5.75957 113.68 5.42135 112.822 5.42135C111.572 5.42135 110.559 4.41295 110.559 3.16759C110.559 1.92222 111.572 0.913818 112.822 0.913818C114.414 0.913818 115.899 1.40654 117.209 1.84184C117.766 2.02765 118.323 2.21451 118.88 2.35335C120.093 2.65503 120.83 3.87848 120.527 5.08626C120.27 6.11032 119.347 6.79407 118.333 6.79407Z" fill="#525D7D"/>
<path d="M131.414 14.1085C131.116 14.1085 130.813 14.0501 130.523 13.9269C128.832 13.2045 127.269 12.2243 125.604 10.8432C124.644 10.0457 124.514 8.62497 125.315 7.66876C126.116 6.7136 127.544 6.58415 128.503 7.38064C129.839 8.4903 131.012 9.23147 132.306 9.78369C133.454 10.2743 133.987 11.599 133.494 12.7431C133.126 13.597 132.291 14.1085 131.414 14.1085Z" fill="#525D7D"/>
<path d="M139.676 22.5641C139.098 22.5641 138.518 22.3439 138.077 21.9033C137.062 20.8939 135.912 19.7477 135.281 18.1746C134.817 17.02 135.382 15.7078 136.541 15.2454C137.703 14.7798 139.019 15.3456 139.483 16.5012C139.769 17.2142 140.501 17.9439 141.276 18.7153C142.16 19.5953 142.16 21.0223 141.276 21.9023C140.835 22.3439 140.256 22.5641 139.676 22.5641Z" fill="#525D7D"/>
<path d="M25.6361 205.199C19.7587 205.199 16.2105 205.199 14.0627 203.049C11.9411 200.926 11.9557 197.735 11.9861 191.376L11.9945 188.681C11.9945 186.967 11.9882 185.342 11.982 183.799C11.8813 158.393 12.7618 153.576 41.2399 152.486C42.4873 152.445 43.5397 153.408 43.589 154.652C43.6372 155.896 42.6634 156.942 41.4139 156.992C16.4054 157.948 16.4117 159.408 16.5082 183.782C16.5145 185.33 16.5208 186.962 16.5208 188.681L16.5124 191.397C16.4914 195.854 16.4757 199.074 17.2702 199.869C18.092 200.691 21.5879 200.691 25.6361 200.691C27.7053 200.691 29.8321 200.598 31.8898 200.509C33.9967 200.419 36.1749 200.324 38.3437 200.324C50.3416 200.324 62.6614 199.263 74.5754 198.239C86.5933 197.204 99.021 196.134 111.231 196.134C111.395 196.134 112.078 196.143 113.121 196.156C116.53 196.199 123.626 196.287 129.277 196.287C129.302 196.287 129.327 196.287 129.352 196.287C136.89 196.287 172.629 196.186 189.385 194.301C189.41 192.843 189.423 191.382 189.423 189.92C189.423 181.169 188.989 172.217 188.57 163.561C188.456 161.239 188.344 158.92 188.24 156.604C186.905 156.191 183.64 156.036 174.304 155.631C169.104 155.407 162.077 155.102 152.503 154.614C151.255 154.551 150.295 153.491 150.359 152.247C150.423 151.005 151.5 150.065 152.735 150.112C162.293 150.601 169.308 150.905 174.501 151.129C188.767 151.747 189.932 151.797 191.959 153.609C192.412 154.014 192.682 154.582 192.709 155.188C192.827 157.903 192.959 160.621 193.092 163.345C193.513 172.055 193.95 181.062 193.95 189.921C193.95 192.07 193.925 194.218 193.868 196.36C193.839 197.466 193.009 198.388 191.907 198.534C175.858 200.684 137.244 200.795 129.452 200.795C123.647 200.831 116.499 200.705 113.065 200.663C112.052 200.651 111.392 200.642 111.232 200.642C99.217 200.642 86.8878 201.703 74.9654 202.729C62.9559 203.763 50.5376 204.831 38.3447 204.831C36.2755 204.831 34.1466 204.924 32.0889 205.013C29.981 205.104 27.8028 205.199 25.6361 205.199Z" fill="#525D7D"/>
<path d="M167.497 185.331C160.889 185.331 156.943 180.911 156.943 173.509C156.943 167.462 160.046 160.954 166.86 160.954C167.503 160.954 168.167 161.016 168.837 161.138C169.397 161.239 170.038 161.275 170.718 161.311C172.742 161.421 175.261 161.56 177.038 163.703C179.007 166.076 180.047 168.965 180.047 172.056C180.047 179.252 174.3 185.331 167.497 185.331ZM166.86 165.462C162.605 165.462 161.47 170.519 161.47 173.509C161.47 178.431 163.442 180.824 167.497 180.824C172.297 180.824 175.52 176.291 175.52 172.056C175.52 170.026 174.838 168.128 173.548 166.572C173.058 165.981 172.058 165.899 170.468 165.81C169.68 165.768 168.864 165.724 168.026 165.571C167.623 165.498 167.231 165.462 166.86 165.462Z" fill="#525D7D"/>
<path d="M168.431 177.792C167.181 177.792 166.168 176.783 166.168 175.538C166.168 175.409 166.159 175.273 166.149 175.13C166.133 174.882 166.12 174.624 166.12 174.363C166.12 173.846 166.12 172.273 167.428 170.972C168.312 170.095 169.739 170.097 170.624 170.976C171.496 171.843 171.508 173.244 170.66 174.129C170.653 174.166 170.646 174.238 170.646 174.364C170.646 174.533 170.657 174.699 170.667 174.859C170.681 175.097 170.693 175.325 170.693 175.539C170.694 176.783 169.682 177.792 168.431 177.792Z" fill="#525D7D"/>
<path d="M38.621 215.338C23.3474 215.338 15.6136 214.889 14.08 204.963C13.8903 203.732 14.7373 202.582 15.9731 202.392C17.2111 202.207 18.3641 203.046 18.5538 204.276C19.5339 210.616 23.644 210.829 40.8956 210.829L43.6944 210.826C57.1797 210.826 70.6148 209.916 83.6253 208.124C84.8664 207.968 86.0058 208.816 86.1777 210.047C86.3496 211.281 85.4849 212.418 84.2459 212.589C71.0309 214.412 57.3873 215.335 43.6944 215.335L40.9019 215.338C40.1231 215.337 39.3621 215.338 38.621 215.338Z" fill="#525D7D"/>
<path d="M123.05 212.006H97.5789C96.3284 212.006 95.3158 210.996 95.3158 209.752C95.3158 208.508 96.3284 207.498 97.5789 207.498H123.05C124.3 207.498 125.313 208.508 125.313 209.752C125.314 210.996 124.3 212.006 123.05 212.006Z" fill="#525D7D"/>
<path d="M142.758 212.61C141.529 212.61 140.521 211.63 140.496 210.402C140.471 209.158 141.463 208.128 142.713 208.103C145.371 208.049 147.992 208.025 150.553 208C170.099 207.813 185.537 207.664 189.107 195.818C189.467 194.625 190.723 193.952 191.925 194.307C193.122 194.665 193.801 195.92 193.442 197.113C188.915 212.139 171.157 212.31 150.596 212.508C148.05 212.533 145.448 212.558 142.758 212.61Z" fill="#525D7D"/>
</svg>
