<svg width="60" height="60" viewBox="0 0 60 60" fill="none" xmlns="http://www.w3.org/2000/svg">
<rect width="60" height="60" rx="8" fill="#0B409C" fill-opacity="0.21"/>
<path opacity="0.4" d="M38.9354 36.5438L39.5041 41.1521C39.6499 42.3625 38.352 43.2083 37.3166 42.5812L31.2062 38.95C30.5354 38.95 29.8791 38.9063 29.2375 38.8188C30.3166 37.55 30.9583 35.9458 30.9583 34.2104C30.9583 30.0687 27.3708 26.7146 22.9374 26.7146C21.2458 26.7146 19.6854 27.1958 18.3874 28.0417C18.3437 27.6771 18.3291 27.3125 18.3291 26.9333C18.3291 20.2979 24.0895 14.9167 31.2062 14.9167C38.3229 14.9167 44.0833 20.2979 44.0833 26.9333C44.0833 30.8708 42.0562 34.3563 38.9354 36.5438Z" fill="#0B409C"/>
<path d="M30.9582 34.2104C30.9582 35.9458 30.3165 37.55 29.2373 38.8188C27.7936 40.5688 25.504 41.6916 22.9373 41.6916L19.1311 43.952C18.4894 44.3458 17.6727 43.8062 17.7602 43.0625L18.1248 40.1896C16.1707 38.8334 14.9165 36.6604 14.9165 34.2104C14.9165 31.6437 16.2873 29.3833 18.3873 28.0417C19.6853 27.1958 21.2457 26.7146 22.9373 26.7146C27.3707 26.7146 30.9582 30.0687 30.9582 34.2104Z" fill="#0B409C"/>
</svg>
