<svg width="144" height="144" viewBox="0 0 144 144" fill="none" xmlns="http://www.w3.org/2000/svg">
<circle cx="72" cy="72" r="72" fill="white"/>
<g clip-path="url(#clip0_39_835)">
<path d="M45.2228 61.7024C44.9401 59.8142 42.4543 59.1405 41.0108 59.9793C40.9979 59.9867 40.9887 59.9951 40.9758 60.0025C40.8679 59.9167 40.7613 59.8286 40.6507 59.7465C40.4067 59.6172 40.153 59.5304 39.8837 59.4845C39.0882 59.3491 38.1529 59.5638 37.7499 60.3577C36.821 62.1883 37.8721 64.6793 39.6153 65.6438C40.7862 66.2916 42.3049 66.3551 43.4731 65.647C44.0339 65.3072 44.5333 64.8481 44.8718 64.2759C45.3653 63.4431 45.3634 62.6432 45.2228 61.7024Z" fill="#E0DFE6"/>
<path d="M55.3392 62.104C52.3863 65.3702 48.9357 67.96 45.5618 70.7792C43.1655 72.7815 41.6551 74.9353 41.8659 78.0184C41.5698 78.413 41.2668 78.8359 40.9232 79.276C39.4807 81.1233 37.7402 83.4817 35.7728 84.9924C33.4757 83.9037 31.5872 81.8588 29.2693 80.8206C28.6407 80.5391 28.0707 80.9986 28.1703 81.67C28.3377 82.8024 28.9368 84.2357 29.807 85.6013C28.8736 86.3274 28.3682 87.6438 29.0738 88.9079C29.4607 89.6011 29.9726 90.1733 30.4518 90.8011C30.6427 91.0121 30.8059 91.243 30.9549 91.4846C30.9401 91.5138 30.9272 91.5366 30.9083 91.5774C30.3932 92.9323 29.1342 93.7553 28.8256 95.2651C28.5775 96.4786 29.5709 97.6035 30.8276 97.278C31.197 97.1825 31.5752 97.0327 31.9501 96.8426C31.7809 97.2947 31.672 97.7561 31.6587 98.2249C31.6365 98.9835 32.3278 99.6735 33.0805 99.6545C35.2296 99.5998 37.2403 97.5957 38.7566 96.2278C39.9437 95.1571 41.9743 93.0686 41.1142 91.3182C43.5506 90.1645 45.7315 87.993 47.2239 86.0974C48.4354 84.5579 49.0395 82.9554 49.5842 81.0955C50.2395 78.8577 51.3007 76.5059 50.4779 74.2296C50.2376 73.5646 49.5505 72.9632 48.8241 72.9067C49.5754 72.2459 50.3589 71.6134 51.0894 70.9387C53.5115 68.7014 56.4811 66.1817 56.6176 62.6353C56.6411 61.9978 55.7722 61.6254 55.3392 62.104Z" fill="#E0DFE6"/>
<path d="M91.7699 89.5019C84.1038 89.7829 76.4616 89.4569 68.7959 89.5409C62.1208 89.6137 55.0957 90.6398 48.5862 89.1458C47.9461 88.9988 47.4973 89.5302 47.5965 90.1409C48.5783 96.1907 60.6603 94.9972 64.7389 95.0417C73.7826 95.1405 82.758 94.2701 91.7694 93.6024C94.358 93.4104 94.418 89.405 91.7699 89.5019Z" fill="#E0DFE6"/>
<path d="M87.0812 81.3338C86.1672 78.131 84.9017 74.6997 84.3949 71.4223C84.2325 70.3715 82.8117 70.7787 82.7047 71.6523C82.4699 73.5733 81.9345 75.3215 81.9184 77.2792C81.9036 79.0732 82.1485 80.8585 82.4086 82.6289C82.8527 85.6549 87.9653 84.4303 87.0812 81.3338Z" fill="#E0DFE6"/>
<path d="M75.4987 80.9525C74.9933 79.5558 74.5362 78.1448 74.1608 76.7069C73.797 75.3135 73.1624 73.9131 72.8562 72.5234C72.7063 71.8422 71.5727 71.8052 71.4491 72.5234C71.1899 74.03 70.7246 75.2328 70.6743 76.8117C70.6236 78.4091 70.6711 80 70.7823 81.5938C71.0396 85.2783 76.6434 84.1172 75.4987 80.9525Z" fill="#E0DFE6"/>
<path d="M64.5429 80.9127C64.0411 80.1119 63.5601 79.2846 63.1603 78.4268C62.748 77.5425 62.4182 76.6221 61.5079 76.131C60.8447 75.7735 60.134 75.8978 59.5811 76.381C57.895 77.8541 58.7145 81.3151 59.3182 83.1268C59.861 84.7558 61.5383 85.6832 63.176 84.9895C64.6951 84.3463 65.4666 82.3867 64.5429 80.9127Z" fill="#E0DFE6"/>
<path d="M127.676 101.346C127.054 100.112 126.254 98.6833 125.169 97.748C125.363 97.4985 125.524 97.1967 125.637 96.8368C127.045 92.3728 127.217 87.7099 126.171 83.1346C125.685 81.0077 124.881 79.005 123.889 77.0709C122.651 74.6541 120.728 73.1364 119.362 70.8824C119.015 70.3084 118.24 70.8096 118.49 71.3953C118.761 72.0287 118.929 72.784 119.058 73.5695C118.416 72.3449 117.633 71.214 116.661 70.2458C116.359 69.9448 115.836 70.1688 115.831 70.5917C115.775 74.713 117.171 78.7958 117.647 82.8764C117.902 85.0645 118.022 87.2569 117.986 89.4604C117.956 91.3383 117.602 93.1231 118.004 94.9181C116.102 95.8603 114.248 96.9096 112.481 98.0805C110.454 99.4233 107.747 101.037 106.985 103.459C106.794 104.066 107.31 104.701 107.923 104.697C110.58 104.68 113.186 102.514 115.455 101.267C117.393 100.201 119.767 99.4154 121.73 98.2418C121.819 98.2975 121.911 98.3476 122.005 98.393C121.805 99.6932 122.092 101.026 122.519 102.284C120.546 102.889 118.572 104.341 116.943 105.212C114.071 106.746 111.915 108.631 109.802 111.089C108.986 112.038 110.2 113.208 111.152 112.445C113.483 110.576 116.537 109.447 119.238 108.219C121.101 107.372 123.789 106.782 125.297 105.276C125.657 105.292 126.038 105.226 126.432 105.059C127.917 104.428 128.383 102.751 127.676 101.346Z" fill="#E0DFE6"/>
<path d="M116.241 49.9146C115.565 46.0163 115.017 41.492 112.545 38.2879C112.296 37.9656 111.847 38.2053 111.732 38.5035C110.298 42.2149 110.962 46.7137 111.12 50.6111C111.3 55.0709 111.605 59.5224 111.825 63.9803C112.019 67.9036 118.191 67.8717 117.885 63.9803C117.513 59.2664 117.05 54.5766 116.241 49.9146Z" fill="#E0DFE6"/>
<path d="M100.803 62.0405C99.1049 58.7474 97.8588 53.4891 93.6211 52.6581C92.4248 52.4235 91.1196 53.4297 91.5388 54.7517C92.0254 56.287 92.7042 57.7402 93.1534 59.2908C93.7506 61.3524 94.305 63.3866 95.1499 65.3629C96.7764 69.1675 102.78 65.873 100.803 62.0405Z" fill="#E0DFE6"/>
<path d="M99.8192 67.2911C99.3368 66.8557 98.3315 66.8001 98.0271 67.5235C97.422 68.9609 97.3837 70.2542 97.773 71.7709C98.0958 73.0284 98.3905 74.1622 99.4747 74.9486C99.6094 75.0465 99.8695 75.0511 100.003 74.9486C102.224 73.2506 101.74 69.0258 99.8192 67.2911Z" fill="#E0DFE6"/>
<path d="M106.753 66.1841C105.963 65.5989 104.972 66.2615 104.692 67.0271C103.773 69.5408 105.44 71.8013 106.061 74.1388C106.458 75.6356 108.663 75.2939 108.707 73.779C108.785 71.014 109.287 68.0616 106.753 66.1841Z" fill="#E0DFE6"/>
<path d="M113.857 69.7682C113.784 69.1881 113.644 68.781 113.271 68.3173C113.142 68.1564 113.007 67.9997 112.875 67.8411C112.352 67.2133 111.066 67.344 110.73 68.1189C110.649 68.3053 110.568 68.4907 110.488 68.6776C110.25 69.2341 110.209 69.6625 110.298 70.2523C110.375 70.7601 110.465 71.266 110.549 71.7728C110.693 72.6468 111.706 73.1597 112.499 73.0526C113.287 72.9459 114.145 72.1808 114.039 71.2975C113.979 70.7879 113.921 70.2774 113.857 69.7682Z" fill="#E0DFE6"/>
<path d="M86.364 54.1312C86.3506 54.1248 86.3193 54.1363 86.2911 54.1507C86.31 54.1484 86.3253 54.1465 86.364 54.1312Z" fill="#E0DFE6"/>
<path d="M87.3592 53.4646C87.0354 53.6918 86.7066 53.8786 86.3884 54.1207C86.4036 54.1207 86.417 54.1235 86.4271 54.1323C86.5844 54.1114 86.5484 54.1165 86.3414 54.1443C86.1564 54.2552 86.2058 54.1949 86.2906 54.1513C86.2726 54.1536 86.2625 54.155 86.2422 54.1578C86.1882 54.1652 86.1518 54.1703 86.1131 54.1759C86.0374 54.1518 85.9457 54.1411 85.9821 54.1666C86.037 54.2046 85.7478 54.0066 85.7354 53.9974C84.9564 53.4182 83.69 54.1921 83.7648 55.1343C83.8773 56.5444 84.7231 57.8748 86.1426 58.2615C86.9017 58.4683 87.7503 58.4205 88.4854 58.1599C89.5613 57.7783 90.1931 56.9794 90.5192 55.9078C91.0426 54.1884 88.918 52.3721 87.3592 53.4646Z" fill="#E0DFE6"/>
<path d="M86.3884 54.1214C86.4129 54.1028 86.4267 54.0931 86.4433 54.0811C86.4249 54.0926 86.4041 54.1066 86.3884 54.1214Z" fill="#E0DFE6"/>
<path d="M86.4432 54.0802C86.5152 54.0324 86.5189 54.025 86.4432 54.0802V54.0802Z" fill="#E0DFE6"/>
<path d="M104.572 36.9775C102.696 35.5896 100.152 35.7037 97.9225 35.6731C94.7478 35.6295 91.5735 35.5145 88.3983 35.4992C81.8233 35.4686 75.2455 35.5859 68.67 35.6054C65.2689 35.6156 61.8672 35.6114 58.4656 35.6355C56.4461 35.6499 54.0664 35.5071 52.2466 36.562C47.8806 39.0933 49.4477 44.436 49.9518 48.3899C50.0173 48.9037 50.7455 49.0934 50.9073 48.5198C51.493 46.4401 51.4335 44.5932 51.7716 42.4917C52.3485 38.9055 55.5339 39.0557 58.466 39.0813C63.2281 39.123 67.9903 39.161 72.7519 39.2134C77.514 39.2658 82.2757 39.3423 87.0378 39.385C89.3063 39.4054 91.5726 39.3701 93.8406 39.3377C95.4464 39.315 100.49 38.4284 101.398 40.1672C103.019 43.274 107.891 39.4332 104.572 36.9775Z" fill="#E0DFE6"/>
<path d="M44.1884 66.225C43.653 66.225 43.2102 65.7965 43.1941 65.2545L42.3178 36.4669C42.3146 36.3751 42.3248 36.2833 42.3469 36.1938C42.4013 35.9731 42.4059 35.7732 42.4059 35.5353V35.3999C42.4059 31.804 45.8708 29.4971 49.2207 29.3441C55.3493 29.0649 61.4913 29.0292 66.1579 29.0292C68.456 29.0292 70.7522 29.0385 73.0447 29.0482C80.8142 29.0811 88.5333 29.0566 96.2382 29.0292C99.3973 29.0181 102.553 29.007 105.709 29C109.467 29 112.02 32.7476 112.057 36.2471C112.157 45.955 112.428 54.5872 112.886 62.6365C112.917 63.1887 112.497 63.6612 111.948 63.6932C111.391 63.7248 110.929 63.3023 110.897 62.7505C110.438 54.6697 110.166 46.007 110.065 36.268C110.039 33.7251 108.287 31.0022 105.722 31.0022C102.558 31.0097 99.4024 31.0203 96.2451 31.0314C88.5347 31.0583 80.8091 31.0825 73.0359 31.0505C70.7457 31.0407 68.4523 31.0314 66.1575 31.0314C61.512 31.0314 55.3987 31.0672 49.3107 31.3444C46.896 31.4548 44.3978 33.0022 44.3978 35.3999V35.5353C44.3978 35.8349 44.3908 36.1571 44.312 36.5337L45.1841 65.1933C45.2007 65.746 44.769 66.2074 44.1884 66.225Z" fill="#0B409C"/>
<path d="M49.4518 90.57C46.296 90.57 43.729 87.8388 43.729 84.4821C43.729 84.2786 43.7392 84.0732 43.7599 83.8668L43.7152 82.4164C43.6981 81.8636 44.1303 81.4018 44.68 81.3846C45.2311 81.3698 45.6886 81.802 45.7057 82.3547L45.7522 83.8728C45.7541 83.9201 45.7522 83.9674 45.7472 84.0143C45.7296 84.171 45.7204 84.3273 45.7204 84.4821C45.7204 86.8368 47.6265 88.7917 49.8406 88.546C49.8761 88.5423 49.9121 88.5399 49.9476 88.5399L90.3158 88.399C90.8674 88.399 91.3129 88.845 91.3147 89.3964C91.3165 89.9496 90.8724 90.3994 90.3222 90.4012L50.0057 90.5417C49.8189 90.5607 49.634 90.57 49.4518 90.57Z" fill="#0B409C"/>
<path d="M18.9966 81.9735C18.659 81.9735 18.3288 81.8005 18.142 81.4875C17.8588 81.0132 18.0115 80.3983 18.4837 80.114C24.2397 76.6414 25.4706 70.6106 26.6613 64.7787C28.2086 57.1987 29.8084 49.3608 41.9152 49.3608C42.465 49.3608 42.9109 49.8088 42.9109 50.362C42.9109 50.9151 42.465 51.3631 41.9152 51.3631C31.4331 51.3631 30.188 57.4607 28.6117 65.1812C27.3941 71.1457 26.0143 77.9059 19.5076 81.8311C19.348 81.9276 19.1709 81.9735 18.9966 81.9735Z" fill="#0B409C"/>
<path d="M35.2646 90.5345C34.892 90.5345 34.5355 90.3235 34.3649 89.9627C34.1288 89.4633 34.34 88.8661 34.8367 88.6287C42.0937 85.1625 45.494 82.1657 46.4579 73.5702C46.4869 73.3091 46.6174 73.0698 46.8204 72.9043C49.4943 70.7249 55.757 65.621 55.757 61.7988C55.757 60.5751 55.6464 60.4763 54.2762 60.4763C52.3014 60.4763 50.6952 61.8303 48.9943 63.2636C47.1007 64.8596 45.1426 66.5104 42.4567 66.5104C39.5771 66.5104 37.547 63.6225 37.1462 62.1498C37.0019 61.6166 37.3141 61.0657 37.8445 60.9201C38.378 60.7759 38.9227 61.0884 39.0675 61.6217C39.3331 62.6014 40.7711 64.5077 42.4567 64.5077C44.4181 64.5077 46.0193 63.1579 47.7155 61.7288C49.6142 60.1286 51.5779 58.4736 54.2762 58.4736C56.0794 58.4736 57.7484 58.8766 57.7484 61.7983C57.7484 66.4214 51.629 71.5573 48.3884 74.2031C47.2599 83.3263 43.2038 86.8485 35.6912 90.4366C35.5529 90.5029 35.4076 90.5345 35.2646 90.5345Z" fill="#0B409C"/>
<path d="M31.7851 98.6258C31.5489 98.6258 31.3119 98.5419 31.1219 98.3708C30.7124 98.0021 30.6773 97.3692 31.0435 96.9574C32.7226 95.0711 34.4262 93.3591 36.1206 91.8568C35.8158 91.5447 35.5123 91.2298 35.2093 90.9141C34.2514 89.9181 33.2599 88.8887 32.1974 87.939C29.5175 85.5436 26.9967 83.1254 24.5584 80.787C23.7463 80.0075 22.9314 79.2262 22.1068 78.4416C21.7074 78.0614 21.6899 77.4275 22.0685 77.0264C22.4462 76.6244 23.0767 76.6077 23.476 76.9874C24.3025 77.7739 25.1187 78.5575 25.9336 79.3384C28.3585 81.6647 30.8669 84.0709 33.5209 86.4427C34.6398 87.4424 35.6566 88.4996 36.6408 89.5221C37.1841 90.0868 37.7255 90.6493 38.2803 91.1983C38.4795 91.3959 38.587 91.669 38.5764 91.95C38.5653 92.2314 38.4375 92.4953 38.2236 92.6766C36.3314 94.2814 34.4152 96.171 32.528 98.2919C32.3311 98.5131 32.059 98.6258 31.7851 98.6258Z" fill="#0B409C"/>
<path d="M95.4793 83.9947C95.0578 83.9947 94.6672 83.7244 94.5316 83.2996C94.0031 81.647 93.5982 79.9619 93.2066 78.333C92.7939 76.615 92.3664 74.839 91.7987 73.1257C91.7055 72.8452 91.5847 72.4904 91.444 72.075C90.2081 68.4368 87.6375 60.866 87.6375 56.9385C87.6375 54.3057 88.5326 52.9707 90.298 52.9707C94.1207 52.9707 96.8116 61.4183 99.6866 71.6247C100.163 73.3158 100.574 74.776 100.876 75.651C101.055 76.1736 100.78 76.7439 100.26 76.9247C99.7415 77.1065 99.1733 76.8292 98.9939 76.3062C98.6739 75.3769 98.2551 73.8912 97.7709 72.1705C96.4459 67.4672 92.9267 54.9734 90.2984 54.9734C90.0642 54.9734 89.6293 54.9734 89.6293 56.939C89.6293 60.534 92.2216 68.1688 93.3288 71.429C93.4713 71.8496 93.594 72.2094 93.6881 72.4937C94.2826 74.2872 94.7202 76.1054 95.1427 77.8633C95.5259 79.4574 95.922 81.1054 96.4275 82.6875C96.5958 83.2138 96.308 83.7777 95.7846 83.9469C95.6827 83.9789 95.5794 83.9947 95.4793 83.9947Z" fill="#0B409C"/>
<path d="M105.775 76.0023C105.347 76.0023 104.951 75.7222 104.823 75.2882C104.604 74.5569 104.429 73.7436 104.26 72.9562C103.529 69.5574 102.924 67.4934 100.708 67.4934C100.327 67.4934 99.3982 67.5774 98.98 68.3573C98.7194 68.8437 98.1139 69.0255 97.6315 68.764C97.1472 68.5015 96.9655 67.8945 97.227 67.4077C97.8699 66.2076 99.1713 65.4912 100.708 65.4912C104.691 65.4912 105.531 69.3955 106.206 72.5329C106.375 73.317 106.534 74.0575 106.73 74.7136C106.888 75.2432 106.589 75.801 106.062 75.9601C105.967 75.9883 105.87 76.0023 105.775 76.0023Z" fill="#0B409C"/>
<path d="M111.98 74.9377C111.589 74.9377 111.218 74.704 111.06 74.3177C110.711 73.4664 110.462 72.5209 110.223 71.6074C109.466 68.7205 108.889 66.9515 106.657 66.9515C106.153 66.9515 105.467 67.111 105.067 67.8714C104.81 68.3611 104.205 68.547 103.721 68.2878C103.235 68.0291 103.05 67.423 103.307 66.9348C103.972 65.673 105.192 64.9492 106.657 64.9492C110.537 64.9492 111.43 68.3583 112.149 71.0969C112.382 71.9867 112.603 72.8269 112.901 73.5554C113.11 74.0669 112.868 74.6516 112.36 74.8626C112.235 74.9131 112.106 74.9377 111.98 74.9377Z" fill="#0B409C"/>
<path d="M122.421 97.9393C121.887 97.9393 121.446 97.5136 121.427 96.9725C120.804 78.8151 115.559 67.2283 112.222 67.2283C111.675 67.2283 111.253 67.4374 110.971 67.8506C110.659 68.3059 110.039 68.4214 109.587 68.1079C109.133 67.7949 109.019 67.1713 109.33 66.7154C109.987 65.7551 111.014 65.2256 112.222 65.2256C117.796 65.2256 122.818 79.436 123.417 96.9029C123.436 97.4557 123.006 97.9189 122.456 97.9379C122.445 97.9388 122.433 97.9393 122.421 97.9393Z" fill="#0B409C"/>
<path d="M107.773 105.493C107.451 105.493 107.136 105.336 106.944 105.047C105.619 103.049 103.149 102.589 100.534 102.101L99.9518 101.992C96.9758 101.426 96.45 99.3613 95.7836 96.7465C95.3792 95.1579 94.8747 93.1812 93.7457 90.7477C93.2227 89.6209 92.4027 88.4213 91.6091 87.2612C90.1457 85.1221 88.6335 82.9099 88.6335 80.6999C88.6335 78.859 90.9334 73.6239 91.2747 73.0229C91.5477 72.5421 92.1565 72.3775 92.6333 72.6497C93.1106 72.9237 93.2771 73.5353 93.0041 74.0157C92.6112 74.7075 90.6249 79.5179 90.6249 80.7003C90.6249 82.2885 91.9596 84.2402 93.2495 86.1274C94.0888 87.3553 94.9567 88.6244 95.5503 89.9019C96.7581 92.5046 97.2875 94.5815 97.7127 96.2508C98.3939 98.9254 98.6642 99.7105 100.322 100.026L100.896 100.133C103.667 100.649 106.809 101.235 108.601 103.937C108.906 104.397 108.782 105.019 108.324 105.325C108.155 105.438 107.963 105.493 107.773 105.493Z" fill="#0B409C"/>
<path d="M108.375 114C108.036 114.001 107.705 113.826 107.519 113.512C106.949 112.554 106.416 111.57 105.9 110.618C105.323 109.553 104.727 108.453 104.093 107.416C103.953 107.186 103.911 106.91 103.976 106.648C104.041 106.386 104.209 106.163 104.44 106.027C109.183 103.244 114.115 100.689 118.883 98.2189L121.74 96.7364C122.226 96.4823 122.829 96.6734 123.083 97.1649C123.335 97.6559 123.145 98.2601 122.656 98.5142L119.797 99.9985C115.343 102.306 110.746 104.688 106.315 107.25C106.779 108.052 107.22 108.866 107.65 109.66C108.001 110.307 108.36 110.97 108.731 111.624C114.211 108.391 119.485 105.816 124.825 103.766C125.34 103.568 125.914 103.828 126.111 104.344C126.307 104.861 126.049 105.44 125.536 105.637C120.023 107.752 114.577 110.442 108.885 113.859C108.725 113.954 108.549 114 108.375 114Z" fill="#0B409C"/>
<path d="M105.856 63.367C105.319 63.367 104.877 62.9376 104.861 62.3946L104.211 39.6889C104.16 37.8985 102.724 36.4931 100.943 36.4894L52.4925 36.3943C51.881 36.3943 51.2907 36.6452 50.8682 37.0829C50.4435 37.522 50.2111 38.1239 50.2295 38.7355L50.9116 61.1969C50.9287 61.7496 50.4965 62.2115 49.9468 62.2282C49.4068 62.2551 48.9373 61.8108 48.9211 61.2581L48.2391 38.7967C48.2036 37.6463 48.6412 36.513 49.439 35.6872C50.235 34.8636 51.346 34.3916 52.4884 34.3916C52.4962 34.3916 100.946 34.4867 100.946 34.4867C103.81 34.4922 106.119 36.7518 106.201 39.6304L106.851 62.3367C106.868 62.8899 106.435 63.3508 105.856 63.367Z" fill="#0B409C"/>
<path d="M87.9647 85.4337H54.6682C51.8942 85.4337 49.6211 83.1643 49.6003 80.3757L49.533 71.0823C49.5293 70.5296 49.972 70.0779 50.5217 70.0742C51.0752 70.0742 51.5207 70.5175 51.5243 71.0684L51.5917 80.3618C51.6046 82.0547 52.9849 83.4324 54.6682 83.4324H87.9647C88.5145 83.4324 88.9604 83.8803 88.9604 84.4335C88.9609 84.9857 88.5145 85.4337 87.9647 85.4337Z" fill="#0B409C"/>
<path d="M60.6501 43.5784H54.5667C54.017 43.5784 53.571 43.1305 53.571 42.5773C53.571 42.0241 54.017 41.5762 54.5667 41.5762H60.6501C61.1998 41.5762 61.6458 42.0241 61.6458 42.5773C61.6458 43.1305 61.1998 43.5784 60.6501 43.5784Z" fill="#0B409C"/>
<path d="M55.1913 47.5524C54.9994 47.5524 54.8094 47.5469 54.619 47.5339C54.0706 47.4968 53.6556 47.0192 53.6925 46.4674C53.7294 45.9156 54.1984 45.4918 54.7536 45.5358C55.4486 45.5827 56.1588 45.508 56.9276 45.4292C58.0815 45.3114 59.3571 45.2289 60.368 45.4329C60.9071 45.5414 61.2572 46.0686 61.1492 46.6111C61.0418 47.1532 60.5142 47.5061 59.9779 47.3962C59.2058 47.2404 58.1862 47.3127 57.1287 47.4212C56.4983 47.4861 55.8457 47.5524 55.1913 47.5524Z" fill="#0B409C"/>
<path d="M54.9239 51.7339C54.4651 51.7339 54.0523 51.4121 53.9518 50.9424C53.8365 50.4017 54.1791 49.8694 54.7169 49.7534C55.7494 49.5313 56.7603 49.4794 57.7376 49.4293C58.4501 49.3927 59.1234 49.3584 59.7944 49.2619C60.3358 49.1803 60.8427 49.5638 60.9211 50.1114C60.999 50.6586 60.6204 51.1659 60.0757 51.2438C59.3153 51.3527 58.5645 51.3912 57.8386 51.4288C56.8987 51.477 56.01 51.5224 55.1342 51.7112C55.0632 51.7265 54.9936 51.7339 54.9239 51.7339Z" fill="#0B409C"/>
<path d="M60.1889 85.2792C59.6539 85.2792 59.2126 84.8526 59.1946 84.3115C59.1526 83.0497 59.0941 81.807 59.036 80.5704C58.9691 79.1491 58.9004 77.6885 58.8589 76.2204L56.2689 76.3382C56.2643 76.9735 56.2597 77.6087 56.2597 78.2435C56.2597 79.9458 56.2896 81.9568 56.511 83.9618C56.5714 84.5113 56.178 85.0065 55.6316 85.0673C55.0832 85.1285 54.5925 84.7325 54.5316 84.183C54.2997 82.0811 54.2683 80.0009 54.2683 78.244C54.2683 77.6041 54.2729 76.9637 54.2775 76.3238L54.284 75.3696C54.2868 74.8358 54.706 74.3981 55.2363 74.3749L59.7872 74.176C60.0667 74.1626 60.3176 74.2623 60.5127 74.4468C60.7082 74.6314 60.8212 74.8882 60.8263 75.1581C60.8585 76.9406 60.9434 78.7378 61.0255 80.4762C61.084 81.7222 61.1426 82.9737 61.185 84.2447C61.203 84.7974 60.7728 85.2606 60.223 85.2787C60.2115 85.2787 60.2 85.2792 60.1889 85.2792Z" fill="#0B409C"/>
<path d="M65.587 84.9865C65.0373 84.9865 64.5914 84.5386 64.5914 83.9854C64.5914 81.1652 64.4221 78.237 64.2588 75.4052C64.1648 73.7771 64.0707 72.151 64.0066 70.5368C63.9964 70.2693 64.0928 70.0082 64.275 69.8125C64.4572 69.6169 64.7099 69.5028 64.9764 69.4963C65.873 69.4736 66.7621 69.437 67.6517 69.4003C68.6566 69.3591 69.6611 69.3178 70.6757 69.296C70.9395 69.277 71.201 69.392 71.3919 69.5798C71.5833 69.7676 71.6912 70.0245 71.6926 70.2929L71.693 70.809C71.693 71.7726 71.6852 72.7385 71.6769 73.7048C71.669 74.6674 71.6607 75.6315 71.6607 76.595C71.6607 78.5374 71.6907 81.0892 71.9227 83.5968C71.9739 84.1472 71.5713 84.635 71.0234 84.6865C70.4815 84.7329 69.9908 84.3327 69.9401 83.7823C69.6998 81.1926 69.6689 78.5806 69.6689 76.5946C69.6689 75.6254 69.6772 74.6563 69.6851 73.6876C69.6915 72.8994 69.6989 72.1115 69.7007 71.3251C69.0426 71.3465 68.3873 71.3733 67.732 71.4002C67.1689 71.4234 66.6049 71.4466 66.0395 71.4661C66.0985 72.7357 66.1723 74.0113 66.2461 75.2883C66.4116 78.1489 66.5818 81.1063 66.5818 83.9849C66.5827 84.5386 66.1363 84.9865 65.587 84.9865Z" fill="#0B409C"/>
<path d="M82.5962 85.1938C82.0543 85.1938 81.6102 84.7565 81.601 84.2093C81.577 82.7645 81.5678 81.3247 81.5678 79.8877C81.5678 77.0248 81.6065 74.1277 81.6434 71.3256C81.6702 69.3558 81.6964 67.3841 81.7103 65.4056H77.633C77.8917 70.6996 78.1661 77.3902 78.1661 83.9752C78.1661 84.5284 77.7202 84.9763 77.1704 84.9763C76.6207 84.9763 76.1748 84.5284 76.1748 83.9752C76.1748 76.9905 75.8635 69.8742 75.5928 64.4545C75.5794 64.1809 75.6776 63.9134 75.8658 63.7145C76.0539 63.5155 76.3145 63.4033 76.5871 63.4033H82.7124C82.9776 63.4033 83.2312 63.5095 83.4185 63.6982C83.6053 63.887 83.7095 64.1429 83.7081 64.4091C83.697 66.7313 83.6666 69.0428 83.6357 71.352C83.5988 74.1476 83.5601 77.0383 83.5601 79.8877C83.5601 81.314 83.5693 82.7427 83.5933 84.1759C83.602 84.7287 83.1634 85.1845 82.5962 85.1938Z" fill="#0B409C"/>
<path d="M87.6096 59.3306C86.1057 59.3306 84.6452 58.7158 83.59 57.6368C82.4943 56.5165 81.9201 55.002 81.9727 53.3726C82.0621 50.5747 84.38 48.2094 87.1397 48.0999C87.4349 48.0874 87.7369 48.1027 88.033 48.1445C88.5777 48.2196 89.1698 48.3012 89.7684 48.5942C91.9406 49.6524 93.1594 51.5995 93.111 53.9346C93.1018 54.3246 93.0548 54.7118 92.9704 55.0864C92.8477 55.6253 92.3164 55.9661 91.7782 55.8399C91.2419 55.7171 90.9061 55.1806 91.0284 54.6413C91.0832 54.3983 91.1146 54.1461 91.1197 53.8915C91.1612 51.9162 89.9344 50.8997 88.8986 50.3952C88.585 50.2413 88.2143 50.1903 87.7854 50.1314C87.5792 50.1026 87.3975 50.0938 87.2181 50.1008C85.5094 50.168 84.0185 51.6959 83.9627 53.4371C83.9285 54.5142 84.3002 55.507 85.01 56.2332C85.705 56.944 86.6652 57.3391 87.6627 57.3279C87.9435 57.3238 88.2184 57.2899 88.4803 57.2278C89.0162 57.098 89.5517 57.4332 89.6789 57.9706C89.8053 58.5085 89.4746 59.0483 88.9392 59.1758C88.5371 59.2718 88.1179 59.3237 87.6931 59.3302C87.6654 59.3306 87.6369 59.3306 87.6096 59.3306Z" fill="#0B409C"/>
<path d="M87.0761 63.5468C87.0535 63.5468 87.0309 63.5464 87.0078 63.5445C86.5176 63.5116 86.0264 63.4411 85.5482 63.3354C85.0114 63.2167 84.6719 62.683 84.7895 62.1428C84.9067 61.603 85.437 61.2604 85.9757 61.38C86.3575 61.4644 86.7496 61.5205 87.1411 61.5469C87.6894 61.5836 88.1045 62.0612 88.0681 62.613C88.033 63.1416 87.5953 63.5468 87.0761 63.5468ZM81.6831 61.2376C81.4437 61.2376 81.2039 61.1514 81.013 60.977C80.6505 60.645 80.3097 60.2824 79.9993 59.8989C79.6525 59.47 79.7175 58.8394 80.1441 58.4907C80.5712 58.1401 81.1984 58.2069 81.5452 58.6358C81.7928 58.9419 82.0649 59.2312 82.3541 59.4955C82.7604 59.8679 82.7903 60.5008 82.42 60.9098C82.2226 61.1273 81.9533 61.2376 81.6831 61.2376ZM96.0902 56.9216C96.0169 56.9216 95.9422 56.9132 95.8679 56.8961C95.3321 56.7727 94.9968 56.2362 95.1195 55.6969C95.2057 55.3149 95.2652 54.9207 95.2956 54.5247C95.3371 53.9725 95.8181 53.5616 96.3646 53.6029C96.9125 53.6451 97.323 54.1264 97.2805 54.6777C97.2432 55.1716 97.1689 55.6645 97.0601 56.1425C96.9549 56.6067 96.5445 56.9216 96.0902 56.9216ZM78.8934 56.054C78.4142 56.054 77.9923 55.7057 77.912 55.2147C77.8341 54.7348 77.7875 54.2428 77.7746 53.7527C77.7589 53.1999 78.1929 52.7395 78.7426 52.7247C79.2859 52.6987 79.7498 53.1457 79.765 53.6979C79.7761 54.0986 79.8134 54.5001 79.878 54.8906C79.967 55.4363 79.5995 55.951 79.0562 56.0405C79.0008 56.0498 78.9474 56.054 78.8934 56.054ZM95.5036 51.0502C95.1287 51.0502 94.7699 50.836 94.6006 50.472C94.4365 50.1191 94.2428 49.7751 94.0242 49.4505C93.7156 48.9928 93.8355 48.3701 94.2907 48.0603C94.745 47.7511 95.3648 47.8698 95.6733 48.3284C95.951 48.7406 96.1972 49.1769 96.4052 49.6253C96.6381 50.1261 96.4223 50.7219 95.9242 50.9561C95.7882 51.0201 95.6447 51.0502 95.5036 51.0502ZM79.8766 50.2527C79.7088 50.2527 79.539 50.21 79.3832 50.1205C78.9054 49.846 78.7403 49.2344 79.0128 48.7545C79.2559 48.3265 79.5335 47.9129 79.8379 47.5257C80.1782 47.0917 80.8036 47.0175 81.2362 47.3606C81.6678 47.7033 81.7412 48.333 81.4004 48.767C81.1573 49.0763 80.9355 49.4064 80.7413 49.7487C80.5582 50.0714 80.2225 50.2527 79.8766 50.2527ZM91.3922 46.838C91.2336 46.838 91.0726 46.7996 90.9227 46.7193C90.7968 46.6516 90.67 46.5867 90.5409 46.5237C90.3398 46.4253 90.1258 46.3419 89.8869 46.2691C89.3607 46.1091 89.0628 45.5504 89.2224 45.0208C89.3824 44.4917 89.9414 44.1945 90.4639 44.3526C90.8056 44.4565 91.1164 44.578 91.4144 44.724C91.5661 44.7987 91.7164 44.8747 91.8631 44.954C92.3478 45.2151 92.5309 45.8221 92.2708 46.3094C92.0909 46.6461 91.7473 46.838 91.3922 46.838ZM84.3081 46.398C83.9082 46.398 83.5301 46.1532 83.3783 45.7548C83.1814 45.2388 83.4378 44.6596 83.9516 44.4616C84.4169 44.2821 84.8988 44.1407 85.3822 44.041C85.9162 43.9302 86.4466 44.2794 86.5568 44.8214C86.667 45.363 86.3197 45.8921 85.7802 46.0029C85.4034 46.0804 85.028 46.1907 84.6646 46.3308C84.5474 46.3767 84.4266 46.398 84.3081 46.398Z" fill="#0B409C"/>
</g>
<defs>
<clipPath id="clip0_39_835">
<rect width="110" height="85" fill="white" transform="translate(18 29)"/>
</clipPath>
</defs>
</svg>
