<svg width="69" height="53" viewBox="0 0 69 53" fill="none" xmlns="http://www.w3.org/2000/svg">
<g clip-path="url(#clip0_8_556)">
<path d="M17.6315 20.4816C17.4568 19.3265 15.9201 18.9143 15.0278 19.4275C15.0198 19.432 15.0141 19.4371 15.0061 19.4416C14.9394 19.3892 14.8736 19.3353 14.8051 19.2851C14.6543 19.2059 14.4975 19.1529 14.331 19.1248C13.8392 19.042 13.2611 19.1733 13.0119 19.6589C12.4377 20.7789 13.0875 22.3028 14.1651 22.8928C14.889 23.2891 15.8278 23.328 16.5499 22.8948C16.8966 22.6869 17.2053 22.406 17.4146 22.056C17.7196 21.5465 17.7185 21.0572 17.6315 20.4816Z" fill="#E0DFE6"/>
<path d="M23.8853 20.7273C22.0599 22.7254 19.9269 24.3098 17.8411 26.0345C16.3598 27.2594 15.4261 28.577 15.5564 30.4632C15.3734 30.7046 15.1861 30.9633 14.9737 31.2325C14.0819 32.3627 13.006 33.8054 11.7898 34.7296C10.3697 34.0636 9.20228 32.8126 7.76941 32.1774C7.38084 32.0052 7.02846 32.2863 7.09004 32.6971C7.19353 33.3898 7.56386 34.2667 8.10183 35.1021C7.52481 35.5463 7.21235 36.3517 7.64854 37.1249C7.88773 37.549 8.20418 37.8991 8.50039 38.2832C8.61842 38.4123 8.71934 38.5535 8.81142 38.7013C8.8023 38.7192 8.79432 38.7331 8.78263 38.758C8.46418 39.5869 7.68588 40.0905 7.49516 41.0141C7.34178 41.7565 7.95586 42.4447 8.73274 42.2455C8.9611 42.1871 9.19487 42.0955 9.42665 41.9791C9.32202 42.2557 9.25474 42.538 9.24647 42.8248C9.23279 43.2889 9.66014 43.711 10.1254 43.6993C11.4539 43.6659 12.6969 42.4398 13.6343 41.603C14.3681 40.948 15.6234 39.6703 15.0917 38.5995C16.5978 37.8937 17.946 36.5653 18.8686 35.4056C19.6175 34.4638 19.991 33.4834 20.3277 32.3456C20.7328 30.9766 21.3888 29.5378 20.8802 28.1453C20.7317 27.7385 20.3069 27.3706 19.8579 27.336C20.3223 26.9317 20.8066 26.5448 21.2582 26.1321C22.7555 24.7633 24.5912 23.2219 24.6756 21.0523C24.6902 20.6623 24.153 20.4345 23.8853 20.7273Z" fill="#E0DFE6"/>
<path d="M46.4061 37.4887C41.6671 37.6606 36.9428 37.4611 32.204 37.5125C28.0776 37.557 23.7348 38.1848 19.7107 37.2708C19.315 37.1809 19.0377 37.506 19.0989 37.8796C19.7059 41.5806 27.1747 40.8505 29.6961 40.8777C35.2867 40.9381 40.8352 40.4057 46.4059 39.9972C48.0061 39.8797 48.0431 37.4294 46.4061 37.4887Z" fill="#E0DFE6"/>
<path d="M43.5077 32.4915C42.9426 30.5322 42.1603 28.433 41.847 26.428C41.7467 25.7852 40.8683 26.0343 40.8021 26.5687C40.657 27.744 40.326 28.8134 40.3161 30.0111C40.3069 31.1086 40.4583 32.2007 40.6191 33.2838C40.8937 35.135 44.0542 34.3859 43.5077 32.4915Z" fill="#E0DFE6"/>
<path d="M36.3475 32.2582C36.0351 31.4038 35.7526 30.5406 35.5205 29.6609C35.2956 28.8085 34.9033 27.9518 34.714 27.1016C34.6213 26.6849 33.9206 26.6622 33.8442 27.1016C33.6839 28.0233 33.3963 28.7591 33.3652 29.725C33.3338 30.7023 33.3632 31.6756 33.4319 32.6505C33.591 34.9046 37.0551 34.1943 36.3475 32.2582Z" fill="#E0DFE6"/>
<path d="M29.5749 32.2339C29.2647 31.744 28.9674 31.2379 28.7202 30.7131C28.4653 30.1722 28.2615 29.6091 27.6987 29.3087C27.2888 29.09 26.8494 29.166 26.5076 29.4616C25.4653 30.3628 25.9719 32.4801 26.3451 33.5884C26.6807 34.585 27.7175 35.1523 28.7299 34.7279C29.669 34.3345 30.146 33.1357 29.5749 32.2339Z" fill="#E0DFE6"/>
<path d="M68.6024 44.7344C68.2181 43.9796 67.7237 43.1053 67.0529 42.5331C67.1727 42.3805 67.2722 42.1958 67.3423 41.9757C68.2127 39.2448 68.3187 36.3922 67.6724 33.5932C67.3719 32.292 66.8747 31.0668 66.2618 29.8836C65.4963 28.4051 64.3075 27.4766 63.4633 26.0977C63.2484 25.7465 62.7697 26.0532 62.9242 26.4115C63.0913 26.7989 63.1951 27.261 63.2749 27.7416C62.878 26.9924 62.394 26.3005 61.7933 25.7082C61.6068 25.5241 61.2835 25.6611 61.2801 25.9198C61.2459 28.4411 62.1083 30.9389 62.4028 33.4352C62.5607 34.7738 62.6349 36.115 62.6126 37.463C62.5938 38.6119 62.3751 39.7038 62.6237 40.8019C61.4477 41.3783 60.3017 42.0202 59.2092 42.7365C57.9565 43.558 56.2827 44.5455 55.8121 46.0268C55.694 46.3984 56.0128 46.7865 56.3919 46.7842C58.0341 46.774 59.6451 45.4487 61.0478 44.6856C62.2457 44.034 63.7136 43.5532 64.927 42.8352C64.9817 42.8693 65.039 42.8999 65.0972 42.9277C64.9735 43.7231 65.1505 44.5387 65.4145 45.3083C64.1949 45.6779 62.9744 46.5664 61.9675 47.0991C60.1922 48.0381 58.8594 49.1909 57.5534 50.6944C57.0485 51.2753 57.7994 51.991 58.3876 51.5244C59.8287 50.3809 61.7166 49.6899 63.3864 48.9387C64.5378 48.4207 66.1996 48.0599 67.1322 47.1385C67.3545 47.1485 67.5903 47.1082 67.8335 47.0058C68.7515 46.62 69.0397 45.5937 68.6024 44.7344Z" fill="#E0DFE6"/>
<path d="M61.5339 13.2703C61.116 10.8855 60.777 8.11769 59.2489 6.15751C59.0953 5.96036 58.8176 6.10702 58.7463 6.28942C57.86 8.55993 58.2705 11.3121 58.368 13.6964C58.4795 16.4248 58.6679 19.148 58.8039 21.8752C58.9236 24.2754 62.739 24.2558 62.5497 21.8752C62.3199 18.9914 62.0337 16.1224 61.5339 13.2703Z" fill="#E0DFE6"/>
<path d="M51.9905 20.6887C50.9405 18.6741 50.1702 15.4572 47.5504 14.9489C46.8109 14.8054 46.0041 15.4209 46.2633 16.2297C46.564 17.1689 46.9837 18.058 47.2614 19.0066C47.6306 20.2678 47.9732 21.5122 48.4955 22.7212C49.501 25.0488 53.2126 23.0333 51.9905 20.6887Z" fill="#E0DFE6"/>
<path d="M51.3821 23.9007C51.0839 23.6343 50.4624 23.6003 50.2743 24.0428C49.9002 24.9222 49.8766 25.7133 50.1172 26.6412C50.3167 27.4106 50.4989 28.1041 51.1692 28.5852C51.2524 28.6451 51.4132 28.6479 51.4959 28.5852C52.8689 27.5464 52.5692 24.9619 51.3821 23.9007Z" fill="#E0DFE6"/>
<path d="M55.6685 23.2236C55.1801 22.8656 54.5675 23.2709 54.3944 23.7393C53.8262 25.2771 54.8568 26.66 55.2406 28.09C55.4863 29.0057 56.8493 28.7966 56.8761 27.8698C56.9243 26.1783 57.2348 24.3721 55.6685 23.2236Z" fill="#E0DFE6"/>
<path d="M60.0602 25.4161C60.0152 25.0612 59.9285 24.8122 59.6979 24.5285C59.6178 24.4301 59.5345 24.3342 59.453 24.2372C59.13 23.8531 58.3349 23.9331 58.127 24.4071C58.0771 24.5211 58.0267 24.6346 57.9774 24.7489C57.8303 25.0893 57.8049 25.3514 57.8599 25.7123C57.9072 26.0229 57.9634 26.3324 58.015 26.6424C58.1042 27.1771 58.7303 27.4909 59.2204 27.4254C59.7079 27.3601 60.2381 26.892 60.1728 26.3517C60.1355 26.0399 60.0999 25.7276 60.0602 25.4161Z" fill="#E0DFE6"/>
<path d="M43.065 15.8501C43.0566 15.846 43.0369 15.8533 43.0193 15.8622C43.0311 15.8608 43.0407 15.8596 43.065 15.8501Z" fill="#E0DFE6"/>
<path d="M43.6795 15.4422C43.4794 15.5812 43.2761 15.6955 43.0794 15.8436C43.0888 15.8436 43.0971 15.8453 43.1034 15.8506C43.2006 15.8379 43.1783 15.841 43.0503 15.858C42.936 15.9258 42.9665 15.8889 43.019 15.8623C43.0078 15.8637 43.0016 15.8645 42.989 15.8662C42.9557 15.8708 42.9332 15.8739 42.9092 15.8773C42.8625 15.8626 42.8057 15.856 42.8282 15.8716C42.8622 15.8949 42.6834 15.7738 42.6757 15.7681C42.1942 15.4138 41.4113 15.8872 41.4575 16.4637C41.5271 17.3263 42.0499 18.1402 42.9275 18.3767C43.3967 18.5033 43.9213 18.474 44.3757 18.3146C45.0408 18.0812 45.4314 17.5924 45.633 16.9368C45.9565 15.885 44.6431 14.7738 43.6795 15.4422Z" fill="#E0DFE6"/>
<path d="M43.0795 15.8443C43.095 15.8327 43.1038 15.8267 43.1144 15.8192C43.1026 15.8264 43.0894 15.8351 43.0795 15.8443Z" fill="#E0DFE6"/>
<path d="M43.1133 15.8193C43.1607 15.7849 43.1584 15.7895 43.1133 15.8193Z" fill="#E0DFE6"/>
<path d="M54.3199 5.35587C53.1602 4.50684 51.5879 4.57662 50.2095 4.5579C48.2469 4.53123 46.2846 4.46088 44.3218 4.45152C40.2572 4.4328 36.191 4.50457 32.1262 4.51648C30.0236 4.52272 27.9208 4.52017 25.8179 4.53492C24.5695 4.54372 23.0985 4.45635 21.9735 5.1017C19.2745 6.65027 20.2433 9.91874 20.5549 12.3376C20.5953 12.6519 21.0455 12.7679 21.1456 12.417C21.5076 11.1448 21.4709 10.0149 21.6798 8.7293C22.0365 6.53538 24.0056 6.62729 25.8182 6.64289C28.7621 6.66842 31.7059 6.69168 34.6495 6.72374C37.5934 6.75579 40.5369 6.8026 43.4808 6.8287C44.8831 6.84118 46.2841 6.81962 47.6862 6.79976C48.6788 6.78586 51.7969 6.24348 52.3579 7.30725C53.3598 9.20786 56.372 6.8582 54.3199 5.35587Z" fill="#E0DFE6"/>
<path d="M16.9921 23.2485C16.6612 23.2485 16.3875 22.9864 16.3775 22.6547L15.8358 5.0435C15.8338 4.98734 15.8401 4.93117 15.8538 4.87642C15.8874 4.74139 15.8903 4.61913 15.8903 4.4736V4.39077C15.8903 2.19089 18.0322 0.779622 20.1031 0.68601C23.8916 0.515239 27.6885 0.493396 30.5733 0.493396C31.9939 0.493396 33.4134 0.49907 34.8306 0.505027C39.6335 0.525168 44.4054 0.510133 49.1684 0.493396C51.1213 0.486588 53.0719 0.47978 55.023 0.475525C57.3463 0.475525 58.9245 2.76817 58.947 4.90904C59.0092 10.848 59.1765 16.1289 59.4596 21.0531C59.4787 21.391 59.2193 21.68 58.88 21.6996C58.5354 21.7189 58.2497 21.4605 58.23 21.1229C57.9467 16.1794 57.7785 10.8798 57.7157 4.92181C57.6998 3.36615 56.617 1.70042 55.0313 1.70042C53.0753 1.70496 51.1244 1.71149 49.1727 1.71829C44.4062 1.73475 39.6304 1.7495 34.8252 1.72992C33.4094 1.72397 31.9917 1.71829 30.573 1.71829C27.7013 1.71829 23.9221 1.74014 20.1587 1.90977C18.6659 1.97729 17.1216 2.9239 17.1216 4.39077V4.4736C17.1216 4.65686 17.1173 4.85401 17.0685 5.08435L17.6077 22.6173C17.6179 22.9554 17.3511 23.2377 16.9921 23.2485Z" fill="#0B409C"/>
<path d="M20.2459 38.1418C18.295 38.1418 16.7082 36.471 16.7082 34.4175C16.7082 34.293 16.7145 34.1673 16.7273 34.0411L16.6996 33.1537C16.6891 32.8156 16.9562 32.5331 17.2961 32.5226C17.6367 32.5135 17.9195 32.7779 17.9301 33.116L17.9589 34.0448C17.96 34.0737 17.9589 34.1026 17.9558 34.1313C17.9449 34.2272 17.9392 34.3228 17.9392 34.4175C17.9392 35.858 19.1175 37.0539 20.4862 36.9036C20.5082 36.9013 20.5304 36.8999 20.5524 36.8999L45.5073 36.8137C45.8482 36.8137 46.1236 37.0866 46.1248 37.4239C46.1259 37.7623 45.8514 38.0374 45.5113 38.0386L20.5883 38.1245C20.4728 38.1362 20.3585 38.1418 20.2459 38.1418Z" fill="#0B409C"/>
<path d="M1.41907 32.8828C1.21038 32.8828 1.00626 32.777 0.890795 32.5855C0.715749 32.2953 0.810115 31.9192 1.10205 31.7453C4.66027 29.6209 5.42118 25.9314 6.15729 22.3637C7.11377 17.7265 8.10275 12.9316 15.587 12.9316C15.9268 12.9316 16.2025 13.2056 16.2025 13.544C16.2025 13.8824 15.9268 14.1565 15.587 14.1565C9.10713 14.1565 8.33738 17.8868 7.36294 22.6099C6.6103 26.2588 5.75731 30.3945 1.73495 32.7957C1.63631 32.8547 1.52683 32.8828 1.41907 32.8828Z" fill="#0B409C"/>
<path d="M11.4756 38.12C11.2452 38.12 11.0249 37.9909 10.9194 37.7702C10.7734 37.4647 10.904 37.0993 11.211 36.9541C15.6972 34.8336 17.7992 33.0002 18.3951 27.7418C18.413 27.5821 18.4937 27.4357 18.6191 27.3345C20.2721 26.0012 24.1436 22.8788 24.1436 20.5405C24.1436 19.7919 24.0752 19.7315 23.2282 19.7315C22.0074 19.7315 21.0145 20.5598 19.9631 21.4366C18.7925 22.413 17.582 23.4229 15.9216 23.4229C14.1415 23.4229 12.8865 21.6562 12.6388 20.7552C12.5495 20.429 12.7425 20.092 13.0704 20.0029C13.4003 19.9147 13.7369 20.1059 13.8265 20.4321C13.9907 21.0315 14.8796 22.1977 15.9216 22.1977C17.1341 22.1977 18.1239 21.3719 19.1725 20.4977C20.3462 19.5187 21.5601 18.5063 23.2282 18.5063C24.3429 18.5063 25.3747 18.7528 25.3747 20.5402C25.3747 23.3684 21.5918 26.5104 19.5884 28.129C18.8908 33.7103 16.3835 35.8651 11.7393 38.0601C11.6538 38.1007 11.564 38.12 11.4756 38.12Z" fill="#0B409C"/>
<path d="M9.32464 43.0701C9.17867 43.0701 9.03214 43.0188 8.91468 42.9141C8.66152 42.6886 8.63985 42.3013 8.86621 42.0494C9.90423 40.8955 10.9574 39.8481 12.0048 38.929C11.8163 38.7381 11.6287 38.5455 11.4414 38.3523C10.8493 37.743 10.2364 37.1133 9.57951 36.5323C7.92285 35.0668 6.36454 33.5875 4.85726 32.1569C4.35521 31.6801 3.85145 31.2021 3.34171 30.7221C3.09482 30.4895 3.08399 30.1017 3.31805 29.8563C3.55154 29.6104 3.94126 29.6002 4.18815 29.8325C4.69903 30.3136 5.20364 30.793 5.7074 31.2707C7.20641 32.6939 8.75702 34.1659 10.3977 35.6169C11.0894 36.2285 11.718 36.8753 12.3264 37.5008C12.6622 37.8463 12.9969 38.1904 13.3399 38.5262C13.463 38.6471 13.5295 38.8142 13.5229 38.9861C13.5161 39.1583 13.4371 39.3197 13.3048 39.4306C12.1351 40.4124 10.9505 41.5683 9.78392 42.8659C9.66219 43.0012 9.49398 43.0701 9.32464 43.0701Z" fill="#0B409C"/>
<path d="M48.6993 34.1193C48.4387 34.1193 48.1972 33.954 48.1134 33.6941C47.7867 32.6831 47.5364 31.6522 47.2943 30.6557C47.0392 29.6047 46.7749 28.5182 46.4239 27.4701C46.3664 27.2984 46.2917 27.0814 46.2047 26.8273C45.4407 24.6016 43.8516 19.97 43.8516 17.5673C43.8516 15.9566 44.4049 15.14 45.4963 15.14C47.8594 15.14 49.5229 20.3079 51.3001 26.5518C51.5944 27.5864 51.8487 28.4797 52.0351 29.0149C52.146 29.3346 51.9758 29.6836 51.6545 29.7942C51.3341 29.9054 50.9828 29.7358 50.8719 29.4158C50.6741 28.8473 50.4152 27.9384 50.1159 26.8857C49.2968 24.0084 47.1213 16.3651 45.4965 16.3651C45.3517 16.3651 45.0829 16.3651 45.0829 17.5676C45.0829 19.7669 46.6854 24.4376 47.3699 26.4321C47.458 26.6894 47.5338 26.9095 47.592 27.0834C47.9594 28.1807 48.23 29.2929 48.4911 30.3683C48.7281 31.3436 48.9729 32.3518 49.2854 33.3197C49.3895 33.6416 49.2116 33.9866 48.888 34.0901C48.825 34.1097 48.7611 34.1193 48.6993 34.1193Z" fill="#0B409C"/>
<path d="M55.0641 29.2297C54.7995 29.2297 54.5546 29.0584 54.4751 28.7929C54.3399 28.3455 54.2319 27.848 54.1273 27.3663C53.6751 25.287 53.3016 24.0243 51.9312 24.0243C51.696 24.0243 51.1218 24.0757 50.8633 24.5528C50.7022 24.8504 50.3279 24.9616 50.0296 24.8016C49.7303 24.641 49.618 24.2697 49.7796 23.9719C50.177 23.2377 50.9816 22.7994 51.9312 22.7994C54.3938 22.7994 54.913 25.188 55.3304 27.1073C55.435 27.587 55.5331 28.04 55.6542 28.4414C55.752 28.7654 55.5673 29.1066 55.2414 29.2039C55.1824 29.2212 55.1228 29.2297 55.0641 29.2297Z" fill="#0B409C"/>
<path d="M58.9001 28.5787C58.658 28.5787 58.4285 28.4357 58.3307 28.1994C58.1152 27.6786 57.9615 27.1002 57.8139 26.5413C57.3457 24.7752 56.9888 23.693 55.609 23.693C55.2974 23.693 54.8737 23.7906 54.626 24.2558C54.4672 24.5553 54.0937 24.6691 53.7941 24.5105C53.4939 24.3522 53.3793 23.9815 53.5384 23.6828C53.9492 22.9109 54.7038 22.4681 55.609 22.4681C58.0074 22.4681 58.56 24.5536 59.0041 26.229C59.1484 26.7734 59.2847 27.2874 59.4691 27.733C59.5985 28.0459 59.4486 28.4036 59.1344 28.5327C59.0574 28.5636 58.9779 28.5787 58.9001 28.5787Z" fill="#0B409C"/>
<path d="M65.3543 42.65C65.0242 42.65 64.7514 42.3896 64.7397 42.0585C64.3545 30.9505 61.1122 23.8621 59.0495 23.8621C58.7108 23.8621 58.4505 23.99 58.2761 24.2428C58.0833 24.5213 57.6999 24.592 57.4202 24.4002C57.14 24.2087 57.0693 23.8272 57.2614 23.5483C57.6677 22.9609 58.3026 22.6369 59.0495 22.6369C62.4951 22.6369 65.5992 31.3303 65.9698 42.016C65.9815 42.3541 65.7158 42.6375 65.376 42.6491C65.3689 42.6497 65.3617 42.65 65.3543 42.65Z" fill="#0B409C"/>
<path d="M56.2989 47.2713C56.1002 47.2713 55.9049 47.1757 55.7863 46.9987C54.9672 45.776 53.4403 45.4946 51.8238 45.1965L51.464 45.1298C49.6243 44.7835 49.2993 43.5203 48.8873 41.9206C48.6373 40.9488 48.3254 39.7395 47.6275 38.2508C47.3042 37.5614 46.7973 36.8276 46.3067 36.1178C45.4021 34.8092 44.4673 33.4558 44.4673 32.1039C44.4673 30.9777 45.889 27.775 46.1 27.4074C46.2688 27.1132 46.6451 27.0125 46.9399 27.179C47.2349 27.3467 47.3379 27.7208 47.1691 28.0147C46.9262 28.438 45.6983 31.3808 45.6983 32.1041C45.6983 33.0757 46.5234 34.2697 47.3208 35.4242C47.8396 36.1754 48.3762 36.9518 48.7431 37.7333C49.4897 39.3256 49.817 40.5962 50.0799 41.6174C50.501 43.2536 50.668 43.7339 51.6929 43.9268L52.0479 43.9926C53.761 44.3083 55.703 44.6666 56.8106 46.3195C56.9993 46.6009 56.9229 46.9814 56.6398 47.1689C56.5349 47.2381 56.4163 47.2713 56.2989 47.2713Z" fill="#0B409C"/>
<path d="M56.6709 52.4755C56.4617 52.4758 56.2572 52.3691 56.1421 52.1771C55.7897 51.5905 55.4604 50.9885 55.1414 50.4061C54.7847 49.7551 54.4161 49.0819 54.0241 48.4474C53.9375 48.3069 53.9115 48.1379 53.9517 47.9776C53.9922 47.8176 54.0957 47.6809 54.2388 47.5978C57.1707 45.8955 60.2194 44.3324 63.1673 42.821L64.9334 41.9141C65.2336 41.7587 65.6065 41.8755 65.763 42.1762C65.9193 42.4766 65.8015 42.8463 65.4993 43.0017L63.7318 43.9097C60.9784 45.3216 58.1371 46.7785 55.3977 48.3458C55.6845 48.8368 55.957 49.3347 56.2227 49.8203C56.44 50.2163 56.6621 50.622 56.8913 51.022C60.2787 49.0439 63.539 47.4687 66.8404 46.2146C67.1583 46.0935 67.5135 46.2523 67.635 46.5683C67.7564 46.8843 67.5968 47.2384 67.2794 47.3589C63.8715 48.6533 60.5051 50.2989 56.9865 52.3893C56.8873 52.4474 56.7784 52.4755 56.6709 52.4755Z" fill="#0B409C"/>
<path d="M55.1138 21.4999C54.782 21.4999 54.5089 21.2372 54.4992 20.905L54.0972 7.01442C54.0653 5.91916 53.1781 5.05935 52.0768 5.05708L22.1256 4.99892C21.7476 4.99892 21.3827 5.15239 21.1215 5.42018C20.859 5.68882 20.7153 6.05702 20.7267 6.43119L21.1483 20.1723C21.1589 20.5104 20.8918 20.793 20.5519 20.8032C20.2181 20.8196 19.9279 20.5479 19.9179 20.2097L19.4962 6.46863C19.4743 5.76484 19.7448 5.07154 20.238 4.56632C20.7301 4.06252 21.4169 3.77374 22.1231 3.77374C22.1279 3.77374 52.0788 3.8319 52.0788 3.8319C53.8492 3.8353 55.2763 5.21764 55.3271 6.97867L55.7291 20.8695C55.7393 21.208 55.4716 21.4899 55.1138 21.4999Z" fill="#0B409C"/>
<path d="M44.0538 34.9996H23.4705C21.7557 34.9996 20.3505 33.6113 20.3377 31.9053L20.296 26.2199C20.2938 25.8818 20.5674 25.6055 20.9073 25.6032C21.2494 25.6032 21.5248 25.8744 21.5271 26.2114L21.5687 31.8968C21.5767 32.9325 22.4299 33.7752 23.4705 33.7752H44.0538C44.3937 33.7752 44.6694 34.0493 44.6694 34.3877C44.6696 34.7255 44.3937 34.9996 44.0538 34.9996Z" fill="#0B409C"/>
<path d="M27.1685 9.39421H23.4079C23.068 9.39421 22.7924 9.12018 22.7924 8.78176C22.7924 8.44334 23.068 8.16931 23.4079 8.16931H27.1685C27.5083 8.16931 27.784 8.44334 27.784 8.78176C27.784 9.12018 27.5083 9.39421 27.1685 9.39421Z" fill="#0B409C"/>
<path d="M23.7939 11.8253C23.6753 11.8253 23.5579 11.8219 23.4401 11.8139C23.1012 11.7912 22.8446 11.4991 22.8674 11.1615C22.8902 10.8239 23.1801 10.5646 23.5234 10.5916C23.953 10.6202 24.392 10.5746 24.8673 10.5263C25.5806 10.4543 26.3692 10.4038 26.9941 10.5286C27.3273 10.595 27.5437 10.9175 27.477 11.2494C27.4106 11.581 27.0844 11.7969 26.7529 11.7297C26.2756 11.6344 25.6453 11.6786 24.9916 11.745C24.6019 11.7847 24.1985 11.8253 23.7939 11.8253Z" fill="#0B409C"/>
<path d="M23.6287 14.3835C23.345 14.3835 23.0899 14.1866 23.0277 13.8992C22.9564 13.5685 23.1683 13.2428 23.5007 13.1719C24.139 13.036 24.7639 13.0042 25.368 12.9736C25.8085 12.9512 26.2247 12.9302 26.6395 12.8712C26.9742 12.8213 27.2876 13.0559 27.336 13.3909C27.3842 13.7256 27.1501 14.036 26.8134 14.0836C26.3433 14.1503 25.8792 14.1738 25.4305 14.1968C24.8495 14.2263 24.3001 14.2541 23.7587 14.3696C23.7148 14.3789 23.6717 14.3835 23.6287 14.3835Z" fill="#0B409C"/>
<path d="M26.8834 34.9052C26.5527 34.9052 26.2799 34.6442 26.2687 34.3131C26.2428 33.5413 26.2066 32.781 26.1707 32.0245C26.1293 31.155 26.0868 30.2614 26.0612 29.3633L24.4601 29.4354C24.4573 29.824 24.4544 30.2126 24.4544 30.601C24.4544 31.6423 24.4729 32.8726 24.6098 34.0992C24.6471 34.4354 24.404 34.7384 24.0661 34.7755C23.7271 34.813 23.4238 34.5707 23.3862 34.2345C23.2428 32.9487 23.2234 31.6761 23.2234 30.6013C23.2234 30.2098 23.2262 29.8181 23.2291 29.4266L23.2331 28.8428C23.2348 28.5163 23.4939 28.2485 23.8218 28.2343L26.6351 28.1126C26.8078 28.1044 26.9629 28.1654 27.0835 28.2783C27.2044 28.3912 27.2743 28.5483 27.2774 28.7134C27.2973 29.8039 27.3498 30.9034 27.4005 31.9669C27.4368 32.7291 27.473 33.4947 27.4992 34.2723C27.5103 34.6104 27.2443 34.8938 26.9045 34.9049C26.8974 34.9049 26.8902 34.9052 26.8834 34.9052Z" fill="#0B409C"/>
<path d="M30.2204 34.7261C29.8805 34.7261 29.6049 34.4521 29.6049 34.1137C29.6049 32.3884 29.5002 30.597 29.3993 28.8646C29.3412 27.8686 29.283 26.8738 29.2434 25.8863C29.2371 25.7227 29.2967 25.5629 29.4093 25.4432C29.5219 25.3235 29.6781 25.2537 29.8429 25.2498C30.3971 25.2359 30.9468 25.2135 31.4967 25.1911C32.1179 25.1658 32.7389 25.1406 33.3661 25.1272C33.5291 25.1156 33.6908 25.1859 33.8088 25.3008C33.9271 25.4157 33.9938 25.5729 33.9947 25.7371L33.995 26.0529C33.995 26.6423 33.9901 27.2332 33.985 27.8244C33.9802 28.4133 33.975 29.003 33.975 29.5925C33.975 30.7808 33.9936 32.3419 34.137 33.876C34.1686 34.2127 33.9197 34.5111 33.581 34.5426C33.2461 34.571 32.9427 34.3262 32.9114 33.9894C32.7628 32.4051 32.7437 30.8072 32.7437 29.5922C32.7437 28.9994 32.7489 28.4065 32.7537 27.8139C32.7577 27.3316 32.7623 26.8497 32.7634 26.3686C32.3566 26.3816 31.9515 26.3981 31.5463 26.4145C31.1982 26.4287 30.8496 26.4429 30.5001 26.4548C30.5365 27.2315 30.5822 28.0119 30.6278 28.7931C30.7301 30.5431 30.8353 32.3524 30.8353 34.1134C30.8359 34.4521 30.5599 34.7261 30.2204 34.7261Z" fill="#0B409C"/>
<path d="M40.7352 34.8529C40.4002 34.8529 40.1256 34.5854 40.1199 34.2507C40.1051 33.3667 40.0994 32.4859 40.0994 31.6068C40.0994 29.8554 40.1234 28.0831 40.1462 26.3688C40.1627 25.1638 40.179 23.9576 40.1875 22.7472H37.667C37.827 25.9859 37.9966 30.079 37.9966 34.1074C37.9966 34.4458 37.7209 34.7199 37.3811 34.7199C37.0412 34.7199 36.7656 34.4458 36.7656 34.1074C36.7656 29.8344 36.5731 25.4809 36.4058 22.1654C36.3975 21.998 36.4582 21.8343 36.5745 21.7126C36.6909 21.5909 36.8519 21.5223 37.0204 21.5223H40.807C40.9709 21.5223 41.1277 21.5872 41.2435 21.7027C41.359 21.8181 41.4234 21.9747 41.4225 22.1376C41.4157 23.5582 41.3969 24.9723 41.3778 26.385C41.355 28.0953 41.331 29.8637 41.331 31.6068C41.331 32.4794 41.3367 33.3534 41.3515 34.2302C41.357 34.5684 41.0858 34.8472 40.7352 34.8529Z" fill="#0B409C"/>
<path d="M43.8344 19.0308C42.9047 19.0308 42.0018 18.6546 41.3495 17.9945C40.6721 17.3092 40.3172 16.3827 40.3497 15.3859C40.405 13.6742 41.8379 12.2272 43.5439 12.1602C43.7263 12.1526 43.9131 12.1619 44.0961 12.1875C44.4328 12.2334 44.7988 12.2834 45.1689 12.4626C46.5117 13.11 47.2652 14.3011 47.2352 15.7297C47.2295 15.9683 47.2005 16.2051 47.1483 16.4343C47.0724 16.764 46.744 16.9725 46.4113 16.8953C46.0798 16.8201 45.8722 16.4919 45.9478 16.162C45.9817 16.0134 46.0011 15.8591 46.0042 15.7033C46.0299 14.4949 45.2715 13.8731 44.6312 13.5644C44.4373 13.4702 44.2081 13.439 43.943 13.403C43.8156 13.3854 43.7032 13.38 43.5923 13.3843C42.5361 13.4254 41.6144 14.3601 41.5799 15.4253C41.5588 16.0843 41.7886 16.6916 42.2273 17.1359C42.6569 17.5707 43.2505 17.8124 43.8672 17.8056C44.0408 17.8031 44.2107 17.7824 44.3726 17.7443C44.7039 17.6649 45.0349 17.87 45.1136 18.1988C45.1917 18.5278 44.9873 18.858 44.6563 18.936C44.4077 18.9948 44.1485 19.0265 43.886 19.0305C43.8689 19.0308 43.8512 19.0308 43.8344 19.0308Z" fill="#0B409C"/>
<path d="M43.5045 21.6099C43.4906 21.6099 43.4766 21.6097 43.4623 21.6085C43.1593 21.5884 42.8557 21.5453 42.56 21.4806C42.2282 21.408 42.0184 21.0815 42.0911 20.751C42.1635 20.4208 42.4913 20.2112 42.8243 20.2843C43.0604 20.336 43.3027 20.3703 43.5447 20.3865C43.8837 20.4089 44.1403 20.7011 44.1178 21.0386C44.0961 21.362 43.8255 21.6099 43.5045 21.6099ZM40.1707 20.1973C40.0227 20.1973 39.8745 20.1445 39.7564 20.0378C39.5324 19.8347 39.3217 19.6129 39.1298 19.3783C38.9154 19.1159 38.9556 18.7301 39.2193 18.5168C39.4833 18.3023 39.871 18.3432 40.0854 18.6056C40.2385 18.7928 40.4067 18.9698 40.5855 19.1315C40.8366 19.3593 40.8552 19.7465 40.6263 19.9967C40.5042 20.1297 40.3377 20.1973 40.1707 20.1973ZM49.0769 17.5568C49.0316 17.5568 48.9854 17.5517 48.9395 17.5412C48.6082 17.4658 48.401 17.1376 48.4768 16.8077C48.5301 16.5739 48.5669 16.3328 48.5857 16.0905C48.6114 15.7527 48.9087 15.5013 49.2466 15.5266C49.5852 15.5524 49.839 15.8469 49.8127 16.1841C49.7897 16.4863 49.7438 16.7878 49.6765 17.0803C49.6115 17.3642 49.3577 17.5568 49.0769 17.5568ZM38.4462 17.0261C38.1499 17.0261 37.8891 16.813 37.8395 16.5126C37.7913 16.219 37.7625 15.9181 37.7545 15.6182C37.7448 15.2801 38.0131 14.9984 38.3529 14.9893C38.6888 14.9734 38.9756 15.2469 38.985 15.5847C38.9918 15.8298 39.0149 16.0755 39.0548 16.3143C39.1098 16.6482 38.8826 16.9631 38.5468 17.0179C38.5126 17.0235 38.4795 17.0261 38.4462 17.0261ZM48.7143 13.965C48.4825 13.965 48.2607 13.8339 48.1561 13.6112C48.0546 13.3954 47.9349 13.1849 47.7997 12.9863C47.609 12.7063 47.6831 12.3253 47.9645 12.1359C48.2453 11.9466 48.6285 12.0193 48.8192 12.2998C48.9908 12.552 49.1431 12.8189 49.2716 13.0932C49.4156 13.3996 49.2822 13.7641 48.9743 13.9074C48.8902 13.9465 48.8015 13.965 48.7143 13.965ZM39.054 13.4771C38.9502 13.4771 38.8453 13.451 38.7489 13.3962C38.4536 13.2283 38.3515 12.8541 38.52 12.5605C38.6702 12.2987 38.8419 12.0456 39.03 11.8088C39.2404 11.5433 39.627 11.4979 39.8944 11.7078C40.1613 11.9174 40.2066 12.3027 39.9959 12.5682C39.8457 12.7574 39.7085 12.9594 39.5885 13.1687C39.4753 13.3661 39.2678 13.4771 39.054 13.4771ZM46.1727 11.3881C46.0746 11.3881 45.9751 11.3645 45.8825 11.3155C45.8047 11.2741 45.7263 11.2343 45.6464 11.1958C45.5221 11.1356 45.3898 11.0846 45.2422 11.04C44.9169 10.9422 44.7327 10.6003 44.8314 10.2764C44.9303 9.95271 45.2758 9.77088 45.5988 9.86761C45.8101 9.93115 46.0022 10.0055 46.1864 10.0948C46.2802 10.1405 46.3731 10.187 46.4638 10.2355C46.7634 10.3952 46.8766 10.7666 46.7158 11.0647C46.6046 11.2707 46.3922 11.3881 46.1727 11.3881ZM41.7934 11.1189C41.5462 11.1189 41.3125 10.9691 41.2187 10.7254C41.0969 10.4097 41.2554 10.0554 41.573 9.93427C41.8607 9.82449 42.1586 9.73797 42.4574 9.67698C42.7875 9.60918 43.1154 9.82279 43.1835 10.1544C43.2517 10.4857 43.037 10.8094 42.7034 10.8772C42.4705 10.9246 42.2384 10.9921 42.0138 11.0778C41.9414 11.1058 41.8667 11.1189 41.7934 11.1189Z" fill="#0B409C"/>
</g>
<defs>
<clipPath id="clip0_8_556">
<rect width="68" height="52" fill="white" transform="translate(0.802979 0.475525)"/>
</clipPath>
</defs>
</svg>
