<svg width="22" height="21" viewBox="0 0 22 21" fill="none" xmlns="http://www.w3.org/2000/svg">
<path d="M9.68313 1.29747C10.0355 0.506984 11.1575 0.506984 11.5099 1.29747L13.8291 6.50045C13.9744 6.82648 14.2825 7.05032 14.6375 7.08779L20.3025 7.6857C21.1632 7.77654 21.5099 8.84364 20.867 9.42303L16.6354 13.2366C16.3702 13.4755 16.2525 13.8377 16.3266 14.1869L17.5085 19.7594C17.6881 20.606 16.7803 21.2655 16.0306 20.8331L11.0961 17.987C10.7869 17.8087 10.4061 17.8087 10.0969 17.987L5.16235 20.8331C4.41264 21.2655 3.50491 20.606 3.68449 19.7594L4.86642 14.1869C4.94049 13.8377 4.8228 13.4755 4.55764 13.2366L0.325995 9.42303C-0.316918 8.84364 0.0298043 7.77654 0.890488 7.6857L6.55549 7.08779C6.91048 7.05032 7.21857 6.82648 7.3639 6.50045L9.68313 1.29747Z" fill="white"/>
</svg>
