<svg width="50" height="68" viewBox="0 0 50 68" fill="none" xmlns="http://www.w3.org/2000/svg">
<g clip-path="url(#clip0_8_437)">
<path d="M20.5667 31.1828C20.0815 30.5586 19.3436 30.5036 18.6217 30.5576C18.5505 30.1585 18.333 29.7968 17.9463 29.5336C16.5036 28.5521 15.3683 29.0851 14.0205 30.005C12.779 30.8519 12.5364 31.9453 12.3011 33.4546C12.004 35.364 11.9301 37.1074 10.078 38.0122C8.62228 38.7236 6.94897 38.4043 5.56508 39.2962C5.38428 39.4128 5.27433 39.7076 5.41268 39.9062C6.97203 42.1465 10.3708 42.1027 12.5384 40.8517C15.4408 39.1763 15.3128 36.2608 16.1243 33.3918C16.6339 33.1588 17.0958 33.0589 17.5048 32.822C17.585 32.8469 17.6699 32.8662 17.7625 32.8757C18.6969 32.9724 19.8829 33.2187 20.567 32.3392C20.8544 31.9688 20.8565 31.5553 20.5667 31.1828Z" fill="#E0DFE6"/>
<path d="M26.6136 19.5689C25.7892 19.8717 25.2267 20.7022 24.3207 20.7884C23.4755 20.869 22.7921 20.2971 21.9757 20.2782C21.5766 20.2691 21.341 20.6143 21.2973 20.9896C21.1128 22.5753 23.0805 23.6416 24.3207 23.7982C25.9098 23.9994 28.0015 23.2768 28.4567 21.5019C28.7374 20.4079 27.7198 19.1632 26.6136 19.5689Z" fill="#E0DFE6"/>
<path d="M16.9748 18.1301C16.6028 16.7137 15.0699 17.1871 14.2504 17.8049C13.4975 18.3726 12.7262 18.5397 11.8964 18.928C11.0372 19.3299 11.2641 20.5536 11.8964 21.0148C13.6175 22.2707 17.6545 20.7173 16.9748 18.1301Z" fill="#E0DFE6"/>
<path d="M43.4115 55.5097C43.0907 53.4201 41.7904 51.2621 39.9062 51.2681C39.8895 49.7756 39.7046 48.2891 39.9262 46.7728C40.2581 44.5028 41.0732 42.3245 41.9969 40.257C43.6682 36.5152 45.7636 32.9622 46.816 28.946C48.6841 21.8148 47.2006 14.1875 42.2195 8.90829C41.9638 8.63706 41.6035 8.97942 41.7426 9.29411C45.1189 16.9604 45.2145 25.0398 41.6159 32.5848C41.4568 32.9184 41.2937 33.2499 41.1303 33.5818C42.7214 26.3549 42.5279 18.6529 38.1597 12.6887C35.4163 8.94298 31.7421 6.84323 27.3418 6.04811C24.9968 5.62445 22.6093 5.40929 20.2382 5.22041C17.556 5.007 13.9901 5.46465 11.5201 4.20067C10.9326 3.9 10.1973 4.53287 10.578 5.18852C12.6289 8.71871 17.2585 7.88224 20.7017 8.18886C25.2962 8.59816 29.8884 9.03935 33.5294 12.2871C33.4629 12.4129 33.4355 12.5639 33.4663 12.7023C34.1878 15.9354 34.8501 18.8397 34.924 22.2189C35.0156 26.4036 34.0875 29.6987 32.0028 33.2345C28.7174 38.8073 26.5571 45.806 27.7308 52.4399C27.9267 53.5459 28.8988 54.3277 29.8496 54.6616C29.9445 54.6949 30.0391 54.7282 30.134 54.7615C31.0821 55.0944 32.0265 54.7801 32.7277 54.1454C33.9004 55.6968 36.6448 54.8968 36.7825 52.9901C36.8553 53.1124 36.9268 53.2354 37.0097 53.351C37.53 54.0757 38.7976 54.369 39.4443 53.7589C39.9393 54.3361 40.0642 55.1603 39.9553 56.0269C39.581 55.475 38.9457 55.1259 38.1366 55.3365C34.2359 56.3517 29.7965 56.2105 25.7995 56.5438C21.9666 56.8633 18.1478 57.0704 14.3574 57.7783C13.7495 57.8918 13.7672 58.92 14.3574 59.0476C18.4633 59.9373 22.641 60.0372 26.8238 59.9387C30.784 59.8455 35.2128 59.904 39.0734 58.8993C39.6819 58.7409 40.0432 58.3509 40.2116 57.8855C40.4345 58.2114 40.7584 58.4736 41.1838 58.6407C43.0573 59.378 43.3674 61.3208 43.1756 63.1535C36.72 63.5751 30.265 63.867 23.8027 64.1522C20.5507 64.2959 17.299 64.435 14.0479 64.5962C10.9576 64.7493 7.62204 64.6165 4.71923 65.8437C4.49733 65.9376 4.35529 66.3347 4.6417 66.4647C7.26913 67.6565 10.191 67.6558 13.0206 67.7952C16.4401 67.9638 19.8669 67.9925 23.2894 67.9782C30.0769 67.9501 36.881 67.6081 43.6545 67.1582C44.6708 67.8229 46.2415 67.6274 46.6278 66.0599C47.626 62.0097 47.0308 57.4503 43.4115 55.5097Z" fill="#E0DFE6"/>
<path d="M31.2024 19.2921C30.8933 18.4672 30.0759 17.9983 29.2748 18.47C27.8993 19.2795 27.6526 21.3092 26.4275 22.3702C25.7243 22.9793 23.4899 23.6914 24.1021 25.038C24.2485 25.3597 24.4581 25.5759 24.7057 25.7165C24.6382 25.8069 24.571 25.8976 24.5035 25.988C24.4915 26.0031 24.4868 26.0196 24.4761 26.035C22.6561 28.3562 20.3268 28.8363 17.7384 27.2468C17.6719 27.2061 17.6088 27.1974 17.5526 27.2093C17.1576 26.8042 16.799 26.3668 16.3077 26.0679C16.1119 25.9488 15.8559 25.9432 15.6604 26.0679C15.5892 26.1131 15.5184 26.1587 15.4475 26.2039C15.4181 26.2228 15.3991 26.2481 15.3747 26.2705C13.8705 27.3207 11.9031 29.0024 11.1231 30.6873C10.9022 31.1649 10.9015 31.6541 10.829 32.1639C10.701 33.0621 10.5977 33.9343 10.34 34.8062C10.2996 34.9432 8.9782 38.4793 8.4348 37.249C8.33922 37.0328 8.15641 36.915 7.95356 36.8709C8.31315 35.9037 8.52637 34.7725 7.88371 33.9276C7.60967 33.5674 6.97571 33.5166 6.62013 33.7566C6.22544 34.0233 6.04932 34.4081 5.81572 34.8128C5.80803 34.8261 5.78197 34.8647 5.75089 34.9106C5.64428 34.9695 5.54502 35.0406 5.46214 35.1275C5.1851 35.4176 5.00764 35.7891 4.90304 36.1826C4.69584 36.9634 5.09887 37.7848 5.79767 38.0942C6.12886 38.2407 6.53758 38.255 6.90252 38.1387C6.94262 38.5168 7.16486 38.8662 7.54952 38.9612C9.9888 39.5635 11.0285 38.4818 11.8095 36.1006C12.3265 34.5244 12.2312 32.7152 12.9678 31.27C13.7004 29.8333 14.7858 28.6769 15.5939 27.2937C15.6393 27.306 15.6841 27.3197 15.7356 27.32C16.0651 27.3218 16.7776 28.318 17.1038 28.5476C17.593 28.892 18.1495 29.144 18.7216 29.2936C18.9475 29.3525 19.1724 29.3896 19.396 29.4128C20.0935 29.6503 20.8564 29.7155 21.5362 29.6304C23.4127 29.3949 24.8614 28.1355 25.9653 26.6139C26.0345 26.5273 26.106 26.4257 26.1898 26.3045C26.3041 26.1366 26.3409 25.9716 26.3259 25.8205C27.2573 25.5914 28.2147 25.024 28.722 24.6077C30.0358 23.5284 31.9039 21.163 31.2024 19.2921Z" fill="#E0DFE6"/>
<path d="M28.4908 43.7812C26.7867 44.5767 25.5348 45.875 24.4918 47.481C24.4651 47.5224 24.3889 47.6464 24.2839 47.8199C24.1904 47.2364 23.9123 46.75 23.3298 46.5738C20.4715 45.71 17.6108 51.1899 16.8829 53.5105C16.7014 54.0894 17.4189 54.4359 17.8036 54.0722C17.8734 54.0063 17.9914 53.8781 18.1448 53.7057C18.5311 54.1009 19.0876 54.3035 19.7098 54.1114C21.9566 53.418 24.7104 54.0981 27.0728 53.8318C28.0834 53.7179 28.9944 52.8208 28.6525 51.6574C28.0473 49.5994 29.2654 47.9597 30.4418 46.4319C31.6091 44.9156 30.1938 42.9861 28.4908 43.7812Z" fill="#E0DFE6"/>
<path d="M37.3519 55.0639C36.995 55.0639 36.6849 54.7867 36.6374 54.4055C36.5612 53.7971 36.4372 53.0879 36.2932 52.2672C35.9253 50.1692 35.4678 47.5592 35.4678 44.6401C35.4678 40.7942 36.4182 37.8969 37.3372 35.0946C38.2379 32.349 39.0884 29.7555 39.0884 26.3213C39.0884 12.8092 29.2504 8.01435 20.8257 8.01435C18.8109 8.01435 16.7422 8.15732 14.742 8.29504C13.8006 8.35952 12.8672 8.424 11.9499 8.47341C11.744 8.48217 11.5548 8.40753 11.4111 8.2614C9.86349 6.69114 8.32486 5.44503 6.88348 4.58719C7.25978 5.69103 7.61804 6.80118 7.96861 7.88679C8.25367 8.77092 8.53874 9.65469 8.83283 10.5339C8.88764 10.6969 8.8873 10.8752 8.83183 11.0382C4.69919 23.1997 2.44304 31.3047 2.12188 35.1401C2.91025 36.2212 4.97089 37.4245 7.84428 38.4734C8.0829 38.5606 8.32118 38.603 8.57149 38.603C9.56405 38.603 10.5459 37.9365 11.4726 37.2174C11.9699 35.8339 12.2025 34.6653 12.2025 33.5551C12.2025 32.8907 12.132 32.3003 11.9873 31.7504C11.9181 31.4883 11.9883 31.208 12.1711 31.0156C12.7058 30.4521 13.2515 29.8998 13.7969 29.3483C14.4152 28.7228 15.0545 28.0759 15.6624 27.4258C15.8155 27.2622 16.0264 27.1795 16.2476 27.2023C16.4645 27.2243 16.661 27.3487 16.7806 27.5401C17.7104 29.0238 19.3482 29.9822 20.9544 29.9822C22.6661 29.9822 23.3479 29.2379 25.1689 27.2485C25.5779 26.8017 26.0355 26.3024 26.5642 25.748C26.8459 25.4526 27.3027 25.4526 27.5844 25.748C27.8662 26.0434 27.8662 26.5224 27.5844 26.8178C27.0638 27.3642 26.6129 27.8562 26.2099 28.2966C24.3214 30.3589 23.2814 31.4953 20.9544 31.4953C19.1567 31.4953 17.3344 30.5783 16.1056 29.103C15.6698 29.5557 15.229 30.0015 14.7989 30.4367C14.3567 30.8838 13.9153 31.3306 13.4795 31.7837C13.5914 32.3374 13.6459 32.9212 13.6459 33.5551C13.6459 34.9127 13.3595 36.3151 12.7439 37.968C12.6951 38.0995 12.6119 38.2137 12.5043 38.2985C11.3857 39.1777 10.0673 40.1162 8.57149 40.1162C8.16344 40.1162 7.75873 40.0443 7.3704 39.9027C4.9652 39.0249 1.86856 37.592 0.770737 35.7498C0.690531 35.6149 0.652767 35.4572 0.662793 35.2985C0.91043 31.4091 3.11009 23.3882 7.38744 10.7817C7.12109 9.98059 6.86176 9.17636 6.60209 8.37213C6.06804 6.71742 5.51562 5.007 4.91441 3.36315C4.81214 3.08351 4.87698 2.76602 5.08017 2.55472C5.28302 2.34376 5.5848 2.27788 5.85249 2.38826C7.84863 3.21176 9.97878 4.74418 12.1871 6.9445C12.9976 6.89824 13.8197 6.84147 14.6478 6.78436C16.6713 6.64489 18.7644 6.50051 20.8264 6.50051C35.3715 6.50051 40.5321 17.1776 40.5321 26.3206C40.5321 30.0074 39.6021 32.8438 38.7024 35.5858C37.7814 38.3942 36.9111 41.0458 36.9111 44.6394C36.9111 47.4204 37.3556 49.9558 37.7129 51.9924C37.8602 52.8342 37.9876 53.5613 38.0684 54.2085C38.1202 54.6227 37.8415 55.0026 37.4465 55.0565C37.4148 55.0618 37.383 55.0639 37.3519 55.0639Z" fill="#0B409C"/>
<path d="M8.45953 55.3597C8.07186 55.3597 7.75171 55.0369 7.73901 54.6276C7.72898 54.3154 7.72397 54.0035 7.72397 53.6917C7.72397 45.9641 10.7304 42.8299 14.8914 38.4919C17.063 36.2275 19.5247 33.6613 22.1321 29.8858C22.3657 29.5473 22.8175 29.4727 23.1397 29.7169C23.4625 29.9619 23.5347 30.4349 23.3007 30.7735C20.6245 34.6485 18.1194 37.2605 15.9087 39.5649C11.8493 43.7977 9.16668 46.5934 9.16668 53.692C9.16668 53.9871 9.1717 54.2832 9.18072 54.5786C9.19442 54.9963 8.88195 55.346 8.45953 55.3597Z" fill="#0B409C"/>
<path d="M13.4744 20.0213C12.8007 20.0213 12.1901 19.768 11.7543 19.3075C11.3249 18.8544 11.0906 18.2387 11.0953 17.5736C11.1023 16.4456 11.8285 15.5029 12.8221 15.3319C12.91 15.3169 12.9912 15.2979 13.0684 15.2801C13.2987 15.2275 13.562 15.1669 13.8638 15.2044C14.8122 15.3158 15.8305 16.1737 15.8486 17.5435C15.8566 18.1823 15.6089 18.8173 15.1685 19.2858C14.723 19.7596 14.1214 20.0206 13.4744 20.0213ZM13.6753 16.7067C13.6048 16.7067 13.4968 16.7308 13.3739 16.7589C13.2753 16.7816 13.1703 16.8051 13.0577 16.8244C12.7031 16.8854 12.54 17.2607 12.538 17.5841C12.536 17.8431 12.6216 18.0761 12.7776 18.2412C12.9431 18.416 13.184 18.5082 13.4738 18.5082C13.8036 18.5078 14.0182 18.3537 14.1405 18.224C14.3093 18.0442 14.4078 17.7979 14.4048 17.5645C14.3978 17.0301 13.9894 16.7421 13.702 16.7081C13.694 16.7067 13.6853 16.7067 13.6753 16.7067Z" fill="#0B409C"/>
<path d="M24.4848 24.3246C24.4607 24.3246 24.437 24.3246 24.4126 24.3242C22.2885 24.2888 19.9134 22.3555 19.902 19.638C19.8906 17.2081 21.6689 15.1224 23.9504 14.8904C24.0346 14.882 24.1168 14.876 24.1984 14.8725C27.1954 14.76 29.0589 17 29.1568 19.2231C29.2136 20.5147 28.7194 21.8243 27.8007 22.8174C26.899 23.7909 25.724 24.3246 24.4848 24.3246ZM24.0894 16.3965C22.5685 16.5511 21.3377 18.0018 21.345 19.6303C21.3531 21.5695 23.1504 22.7897 24.4357 22.8107C25.3093 22.8349 26.1264 22.4529 26.7647 21.763C27.398 21.0789 27.7529 20.1552 27.7154 19.2928C27.6509 17.8245 26.4245 16.3107 24.2529 16.3846C24.2017 16.3871 24.1456 16.3909 24.0894 16.3965Z" fill="#0B409C"/>
<path d="M37.7934 44.3903C37.7236 44.3903 37.6524 44.3798 37.5822 44.3574C37.2012 44.2354 36.9867 43.8121 37.103 43.4126C37.9625 40.462 39.1068 37.6702 40.2133 34.9705C42.2352 30.0358 44.1451 25.3751 44.1451 20.3097C44.1451 13.6562 41.397 2.49445 22.993 2.49445C18.3747 2.49445 13.811 3.57551 9.7953 5.62165C9.43671 5.80422 9.0056 5.64723 8.83082 5.27157C8.65704 4.89591 8.80642 4.44316 9.16468 4.26024C13.3762 2.11493 18.1578 0.980957 22.993 0.980957C37.3523 0.980957 45.5881 8.02557 45.5881 20.3094C45.5881 25.6863 43.6214 30.4858 41.5394 35.5673C40.4482 38.2302 39.3197 40.9835 38.4832 43.8548C38.3883 44.1807 38.1022 44.3903 37.7934 44.3903Z" fill="#0B409C"/>
<path d="M5.73685 36.7671C5.66233 36.7671 5.58613 36.7549 5.51127 36.7293C5.13263 36.5986 4.92677 36.171 5.05142 35.774C5.04875 35.691 5.03672 35.6135 5.02702 35.5347C5.00864 35.3864 4.99193 35.2358 4.99193 35.0861C4.99193 34.5468 5.20114 34.1084 5.61287 33.7843C5.93135 33.533 6.38385 33.601 6.6228 33.935C6.86242 34.2689 6.79792 34.7434 6.4791 34.994C6.45036 35.0167 6.44 35.0308 6.43766 35.0339C6.43766 35.0339 6.43498 35.05 6.43498 35.0861C6.43498 35.1702 6.44768 35.2554 6.45804 35.3388C6.47642 35.4846 6.4918 35.6279 6.4918 35.7653C6.4918 35.9405 6.46907 36.0982 6.42228 36.2471C6.32236 36.5656 6.0403 36.7671 5.73685 36.7671Z" fill="#0B409C"/>
<path d="M5.15168 60.3757C4.74296 60.3697 4.42447 60.0259 4.43015 59.6082C4.48463 55.6214 6.35912 53.6832 10.1602 53.6832C10.5803 53.6832 11.0044 53.7004 11.4258 53.7172C11.8222 53.7333 12.2159 53.7498 12.5999 53.7498C12.655 53.7495 12.8161 53.741 13.05 53.7295C13.7532 53.6951 15.0615 53.6303 16.2322 53.6303C17.9206 53.6303 19.5671 53.7106 21.0195 53.781C22.1718 53.8371 23.2603 53.8903 24.1406 53.8903C25.8125 53.8903 27.5153 53.7806 29.1622 53.6745C30.8204 53.5672 32.5355 53.4568 34.2309 53.4568C38.7522 53.4568 40.8158 53.4568 40.8158 58.1189C40.8158 58.2682 40.8135 58.4164 40.8092 58.5633C40.7985 58.9736 40.4776 59.2988 40.0886 59.2988C39.6696 59.2869 39.3557 58.9386 39.3671 58.5209C39.3705 58.3877 39.3728 58.2538 39.3728 58.1189C39.3728 55.0576 38.9373 54.97 34.2309 54.97C32.5796 54.97 30.8873 55.0793 29.2504 55.1848C27.5818 55.292 25.857 55.4035 24.1402 55.4035C23.2262 55.4035 22.1217 55.3499 20.952 55.2927C19.515 55.2226 17.8868 55.1434 16.2319 55.1434C15.0949 55.1434 13.8083 55.2069 13.1175 55.2409C12.8455 55.2542 12.66 55.2626 12.5999 55.2626C12.1978 55.2626 11.7854 55.2458 11.37 55.229C10.9673 55.2128 10.5619 55.196 10.1602 55.196C7.11874 55.196 5.91665 56.4393 5.8732 59.6296C5.86752 60.0442 5.54536 60.3757 5.15168 60.3757Z" fill="#0B409C"/>
<path d="M2.39124 67.6992C2.01126 67.6992 1.69511 67.3891 1.67172 66.9889C1.63095 66.2933 1.60354 65.7088 1.60354 65.1148C1.60354 62.1022 2.07743 60.0414 4.43717 59.0763C6.42462 58.2637 9.71008 58.27 15.1551 58.2686L16.269 58.2689C18.3617 58.2689 20.4855 58.2983 22.5388 58.3271C24.5887 58.3551 26.7082 58.3849 28.7939 58.3849C36.5428 58.3849 39.2224 57.7587 39.2481 57.7524C39.3013 57.7394 39.3578 57.7328 39.4122 57.7328C42.2288 57.7328 43.2758 59.8711 43.2758 65.6219C43.2758 65.7417 43.2745 65.8616 43.2712 65.9811C43.2611 66.3844 42.9513 66.7086 42.567 66.718C42.567 66.7173 2.40862 67.6992 2.39124 67.6992ZM14.1485 59.781C9.4698 59.781 6.5827 59.823 4.96186 60.4861C3.69159 61.0054 3.04659 61.8639 3.04659 65.1148C3.04659 65.4565 3.05662 65.7999 3.07333 66.1693L41.8308 65.2217C41.7743 59.3969 40.4796 59.2497 39.4884 59.2459C38.9581 59.3601 36.074 59.898 28.7936 59.898C26.6985 59.898 24.5737 59.8686 22.5194 59.8399C20.4705 59.8118 18.3517 59.782 16.2683 59.782L15.1534 59.7817C14.8102 59.7817 14.4744 59.781 14.1485 59.781Z" fill="#0B409C"/>
<path d="M16.031 7.64535C15.6647 7.64535 15.3513 7.35415 15.3142 6.96377C15.2831 6.64208 15.26 6.32039 15.237 6.0008C15.1698 5.06201 15.106 4.17544 14.8557 3.38768C14.7293 2.991 14.9335 2.56243 15.3118 2.43067C15.6895 2.29856 16.0982 2.51232 16.2245 2.909C16.5316 3.87442 16.6052 4.89766 16.6764 5.88692C16.6984 6.19494 16.7205 6.50402 16.7495 6.81379C16.7893 7.2294 16.4996 7.5998 16.1032 7.6415C16.0795 7.6443 16.0551 7.64535 16.031 7.64535Z" fill="#0B409C"/>
<path d="M23.1667 7.64536C22.7684 7.64536 22.4452 7.30649 22.4452 6.88879C22.4452 6.17953 22.5171 5.50671 22.5862 4.85527C22.6534 4.2273 22.7162 3.63473 22.7162 3.03025C22.7162 2.83436 22.7096 2.63602 22.6935 2.43628C22.6608 2.01997 22.9562 1.65448 23.3535 1.62014C23.7439 1.58825 24.0991 1.89487 24.1319 2.31223C24.1506 2.55367 24.1593 2.79301 24.1593 3.0306C24.1593 3.71919 24.0888 4.38219 24.0203 5.02347C23.9528 5.66125 23.8883 6.26363 23.8883 6.88879C23.8883 7.30649 23.5651 7.64536 23.1667 7.64536Z" fill="#0B409C"/>
<path d="M29.6855 9.19318C29.5929 9.19318 29.499 9.17461 29.4085 9.13501C29.0405 8.97381 28.8667 8.53122 29.0201 8.14541C29.3283 7.37097 29.6361 6.56429 29.9435 5.75796C30.2506 4.95198 30.5581 4.14635 30.8652 3.37296C31.0183 2.98714 31.441 2.80562 31.809 2.96541C32.1769 3.12591 32.3507 3.5692 32.1973 3.95501C31.8925 4.7221 31.5881 5.52107 31.2833 6.31969C30.9728 7.13303 30.6627 7.94672 30.3522 8.72746C30.2366 9.01832 29.9682 9.19318 29.6855 9.19318Z" fill="#0B409C"/>
<path d="M35.1218 12.4479L34.1019 11.3777C35.5713 9.83761 37.2366 8.09179 39.1556 6.88492C39.4964 6.66976 39.9399 6.78645 40.1455 7.14459C40.3506 7.50273 40.24 7.96774 39.8978 8.18255C38.1313 9.2934 36.6017 10.8969 35.1218 12.4479Z" fill="#0B409C"/>
<path d="M38.174 17.9636C37.916 17.9636 37.6667 17.8182 37.5371 17.5631C37.3496 17.1941 37.4826 16.7361 37.8338 16.5395C39.0316 15.8695 40.2902 15.3533 41.507 14.8543C42.2158 14.5638 42.948 14.2631 43.6655 13.9341C44.0325 13.7652 44.4566 13.9411 44.6156 14.3238C44.7754 14.7064 44.6089 15.1529 44.244 15.3204C43.5004 15.6617 42.7538 15.9676 42.0323 16.2637C40.8001 16.769 39.6355 17.2463 38.5129 17.8743C38.405 17.9352 38.2887 17.9636 38.174 17.9636Z" fill="#0B409C"/>
<path d="M43.4667 25.4799C42.563 25.4799 41.6483 25.3829 40.7637 25.2893C40.4085 25.2518 40.0572 25.2143 39.7123 25.1845C39.3153 25.1495 39.0202 24.784 39.0533 24.3673C39.0867 23.9507 39.4363 23.6476 39.8326 23.6763C40.1856 23.7075 40.5451 23.7453 40.9087 23.7842C41.7576 23.8739 42.6355 23.9668 43.4667 23.9668C43.7461 23.9668 44.0144 23.9559 44.2637 23.9339C44.6631 23.9044 45.0103 24.2082 45.0431 24.6249C45.0758 25.0416 44.7811 25.407 44.384 25.4421C44.0946 25.4673 43.7862 25.4799 43.4667 25.4799Z" fill="#0B409C"/>
<path d="M40.7577 34.3443C40.7183 34.3443 40.6788 34.3408 40.6384 34.3338C39.7852 34.1855 39.0747 34.0226 38.3375 33.4044C38.0263 33.1434 37.9762 32.6675 38.2252 32.3409C38.4738 32.0154 38.927 31.961 39.2395 32.2232C39.707 32.6153 40.1692 32.7183 40.875 32.8413C41.2683 32.9096 41.5337 33.2993 41.4682 33.7118C41.4097 34.0818 41.1039 34.3443 40.7577 34.3443Z" fill="#0B409C"/>
</g>
<defs>
<clipPath id="clip0_8_437">
<rect width="49" height="67" fill="white" transform="translate(0.590576 0.980957)"/>
</clipPath>
</defs>
</svg>
