<svg width="144" height="144" viewBox="0 0 144 144" fill="none" xmlns="http://www.w3.org/2000/svg">
<circle cx="72" cy="72" r="72" fill="white"/>
<g clip-path="url(#clip0_39_833)">
<path d="M67.4986 71.1249C66.8549 70.297 65.8761 70.224 64.9185 70.2956C64.8241 69.7662 64.5355 69.2864 64.0226 68.9373C62.1088 67.6353 60.6028 68.3423 58.8149 69.5626C57.168 70.6861 56.8461 72.1364 56.534 74.1385C56.1399 76.6715 56.0419 78.9841 53.5851 80.1844C51.654 81.128 49.4343 80.7046 47.5985 81.8876C47.3587 82.0424 47.2128 82.4333 47.3963 82.6969C49.4649 85.6687 53.9734 85.6106 56.8488 83.9511C60.699 81.7286 60.5292 77.8611 61.6056 74.0553C62.2816 73.7462 62.8943 73.6137 63.4369 73.2995C63.5433 73.3325 63.6559 73.3581 63.7787 73.3706C65.0183 73.4989 66.5916 73.8257 67.4991 72.6589C67.8803 72.1676 67.883 71.6191 67.4986 71.1249Z" fill="#E0DFE6"/>
<path d="M75.5206 55.7185C74.427 56.1201 73.6809 57.2218 72.479 57.3362C71.3579 57.4431 70.4513 56.6844 69.3683 56.6593C68.8389 56.6472 68.5264 57.1051 68.4683 57.603C68.2236 59.7064 70.8339 61.121 72.479 61.3288C74.587 61.5956 77.3617 60.6371 77.9655 58.2826C78.3379 56.8313 76.988 55.1802 75.5206 55.7185Z" fill="#E0DFE6"/>
<path d="M62.7342 53.81C62.2408 51.9311 60.2073 52.5591 59.1202 53.3786C58.1214 54.1317 57.0983 54.3534 55.9975 54.8685C54.8577 55.4016 55.1587 57.0249 55.9975 57.6366C58.2806 59.3027 63.6359 57.242 62.7342 53.81Z" fill="#E0DFE6"/>
<path d="M97.8033 103.395C97.3777 100.623 95.6528 97.7606 93.1534 97.7685C93.1312 95.7887 92.886 93.8168 93.18 91.8054C93.6202 88.7941 94.7014 85.9046 95.9268 83.1619C98.1438 78.1983 100.923 73.4851 102.319 68.1575C104.798 58.6978 102.83 48.5799 96.222 41.5769C95.8829 41.2171 95.405 41.6712 95.5894 42.0887C100.068 52.2582 100.195 62.9758 95.4214 72.9845C95.2104 73.427 94.994 73.8668 94.7772 74.307C96.8879 64.7204 96.6312 54.5034 90.8366 46.5917C87.1974 41.6229 82.3235 38.8375 76.4864 37.7828C73.3756 37.2208 70.2085 36.9353 67.0632 36.6848C63.5051 36.4017 58.7749 37.0088 55.4983 35.3321C54.719 34.9332 53.7437 35.7728 54.2486 36.6425C56.9693 41.3254 63.1106 40.2158 67.6781 40.6225C73.7728 41.1655 79.8644 41.7507 84.6944 46.059C84.6062 46.2258 84.5698 46.4262 84.6106 46.6098C85.5677 50.8985 86.4464 54.7512 86.5444 59.2338C86.6658 64.785 85.4347 69.156 82.6693 73.8463C78.3111 81.2388 75.4454 90.5228 77.0024 99.3229C77.2622 100.79 78.5518 101.827 79.813 102.27C79.9389 102.314 80.0644 102.358 80.1903 102.403C81.448 102.844 82.7008 102.427 83.6309 101.585C85.1865 103.643 88.827 102.582 89.0097 100.053C89.1063 100.215 89.2012 100.378 89.3111 100.532C90.0014 101.493 91.6829 101.882 92.5407 101.073C93.1972 101.838 93.363 102.932 93.2185 104.081C92.722 103.349 91.8793 102.886 90.806 103.165C85.6316 104.512 79.7425 104.325 74.4404 104.767C69.356 105.191 64.2902 105.465 59.2621 106.404C58.4557 106.555 58.4792 107.919 59.2621 108.088C64.7087 109.268 70.2506 109.401 75.7992 109.27C81.0525 109.147 86.9274 109.224 92.0486 107.892C92.8559 107.681 93.3351 107.164 93.5586 106.547C93.8542 106.979 94.2838 107.327 94.8482 107.548C97.3334 108.527 97.7448 111.104 97.4903 113.535C88.9268 114.094 80.3641 114.481 71.7916 114.86C67.4777 115.05 63.1642 115.235 58.8516 115.449C54.7522 115.652 50.3275 115.476 46.4768 117.103C46.1824 117.228 45.994 117.755 46.374 117.927C49.8593 119.508 53.7353 119.507 57.4888 119.692C62.0249 119.916 66.5707 119.954 71.1107 119.935C80.1145 119.898 89.1404 119.444 98.1256 118.847C99.4737 119.729 101.557 119.47 102.07 117.39C103.394 112.018 102.604 105.969 97.8033 103.395Z" fill="#E0DFE6"/>
<path d="M81.6076 55.3515C81.1975 54.2573 80.1131 53.6353 79.0505 54.261C77.2258 55.3348 76.8986 58.0272 75.2734 59.4348C74.3407 60.2427 71.3767 61.1872 72.1888 62.9737C72.383 63.4004 72.6609 63.6872 72.9894 63.8736C72.8999 63.9936 72.8108 64.1139 72.7212 64.2339C72.7053 64.2539 72.6991 64.2757 72.6849 64.2962C70.2706 67.3753 67.1806 68.0122 63.7471 65.9036C63.6589 65.8497 63.5751 65.8381 63.5007 65.8539C62.9767 65.3165 62.501 64.7364 61.8493 64.3399C61.5895 64.1818 61.2499 64.1744 60.9906 64.3399C60.8962 64.3998 60.8022 64.4603 60.7082 64.5202C60.6692 64.5453 60.6439 64.5788 60.6116 64.6085C58.6162 66.0017 56.0064 68.2325 54.9717 70.4675C54.6786 71.1011 54.6777 71.75 54.5815 72.4264C54.4117 73.6178 54.2748 74.7748 53.933 75.9314C53.8793 76.1131 52.1264 80.8039 51.4056 79.1719C51.2788 78.885 51.0363 78.7288 50.7672 78.6703C51.2442 77.3873 51.5271 75.8867 50.6746 74.766C50.3111 74.2881 49.4701 74.2207 48.9984 74.5391C48.4748 74.8929 48.2412 75.4033 47.9313 75.9402C47.9211 75.9579 47.8865 76.009 47.8453 76.0699C47.7039 76.148 47.5722 76.2424 47.4623 76.3576C47.0948 76.7425 46.8594 77.2353 46.7206 77.7573C46.4458 78.793 46.9804 79.8826 47.9074 80.2931C48.3467 80.4874 48.8889 80.5064 49.373 80.3521C49.4262 80.8537 49.721 81.3171 50.2313 81.4431C53.467 82.2422 54.8462 80.8072 55.8822 77.6485C56.5681 75.5576 56.4417 73.1576 57.4188 71.2406C58.3905 69.3347 59.8304 67.8007 60.9024 65.9659C60.9627 65.9822 61.0221 66.0003 61.0903 66.0008C61.5275 66.0031 62.4726 67.3247 62.9053 67.6291C63.5543 68.0861 64.2924 68.4203 65.0514 68.6188C65.3511 68.6969 65.6494 68.7462 65.946 68.7769C66.8712 69.092 67.8833 69.1785 68.785 69.0655C71.2743 68.7532 73.196 67.0825 74.6603 65.0641C74.7521 64.9493 74.847 64.8145 74.9582 64.6536C75.1098 64.431 75.1586 64.212 75.1387 64.0117C76.3742 63.7077 77.6443 62.9551 78.3173 62.4028C80.0599 60.9711 82.5381 57.8334 81.6076 55.3515Z" fill="#E0DFE6"/>
<path d="M78.0109 87.8366C75.7504 88.8918 74.0897 90.6141 72.7061 92.7445C72.6707 92.7993 72.5696 92.9639 72.4304 93.194C72.3063 92.42 71.9374 91.7748 71.1647 91.541C67.373 90.3951 63.5782 97.6644 62.6127 100.743C62.3719 101.511 63.3237 101.97 63.834 101.488C63.9267 101.4 64.0832 101.23 64.2866 101.002C64.7991 101.526 65.5372 101.795 66.3627 101.54C69.3431 100.62 72.9961 101.522 76.1299 101.169C77.4705 101.018 78.679 99.8279 78.2255 98.2846C77.4226 95.5545 79.0385 93.3795 80.599 91.3527C82.1475 89.3413 80.27 86.7818 78.0109 87.8366Z" fill="#E0DFE6"/>
<path d="M89.7651 102.804C89.2916 102.804 88.8802 102.436 88.8173 101.93C88.7162 101.123 88.5517 100.183 88.3607 99.0939C87.8726 96.3108 87.2657 92.8486 87.2657 88.9764C87.2657 83.8747 88.5265 80.0313 89.7456 76.3139C90.9403 72.6718 92.0686 69.2314 92.0686 64.6759C92.0686 46.7517 79.0182 40.3912 67.8426 40.3912C65.1698 40.3912 62.4256 40.5808 59.7724 40.7635C58.5236 40.8491 57.2854 40.9346 56.0685 41.0001C55.7954 41.0118 55.5445 40.9127 55.3538 40.7189C53.3008 38.6359 51.2598 36.9829 49.3477 35.8449C49.8469 37.3092 50.3222 38.7819 50.7872 40.222C51.1654 41.3948 51.5435 42.5672 51.9336 43.7335C52.0063 43.9496 52.0059 44.1862 51.9323 44.4024C46.4502 60.535 43.4574 71.2865 43.0313 76.3743C44.0771 77.8084 46.8106 79.4047 50.6223 80.796C50.9388 80.9117 51.2549 80.968 51.587 80.968C52.9036 80.968 54.2061 80.0838 55.4354 79.13C56.0951 77.2947 56.4036 75.7445 56.4036 74.2718C56.4036 73.3905 56.3101 72.6072 56.1181 71.8778C56.0263 71.5301 56.1194 71.1582 56.3619 70.903C57.0712 70.1556 57.7952 69.423 58.5187 68.6913C59.3388 67.8615 60.1869 67.0034 60.9933 66.1411C61.1963 65.924 61.4761 65.8143 61.7695 65.8445C62.0572 65.8738 62.3179 66.0388 62.4766 66.2927C63.7099 68.2608 65.8826 69.5322 68.0132 69.5322C70.2839 69.5322 71.1883 68.5449 73.6039 65.9059C74.1465 65.3132 74.7534 64.6508 75.4548 63.9154C75.8285 63.5235 76.4345 63.5235 76.8082 63.9154C77.1819 64.3073 77.1819 64.9427 76.8082 65.3346C76.1175 66.0593 75.5195 66.7119 74.9849 67.2963C72.4797 70.0319 71.1001 71.5394 68.0132 71.5394C65.6286 71.5394 63.2112 70.3229 61.5811 68.3659C61.003 68.9665 60.4183 69.5578 59.8477 70.1351C59.2612 70.7283 58.6756 71.3209 58.0975 71.922C58.246 72.6565 58.3183 73.4309 58.3183 74.2718C58.3183 76.0726 57.9384 77.933 57.1218 80.1257C57.0571 80.3 56.9467 80.4515 56.8039 80.564C55.3201 81.7303 53.5712 82.9752 51.587 82.9752C51.0457 82.9752 50.5088 82.8799 49.9937 82.6921C46.8031 81.5277 42.6953 79.6269 41.239 77.1832C41.1326 77.0042 41.0825 76.795 41.0958 76.5844C41.4243 71.4251 44.3422 60.7851 50.0163 44.0621C49.6629 42.9995 49.3189 41.9326 48.9745 40.8658C48.2661 38.6708 47.5332 36.4018 46.7357 34.2212C46.6001 33.8503 46.6861 33.4291 46.9556 33.1488C47.2247 32.869 47.625 32.7816 47.9801 32.928C50.6281 34.0204 53.4538 36.0532 56.3832 38.972C57.4583 38.9106 58.5488 38.8353 59.6474 38.7596C62.3317 38.5746 65.1082 38.383 67.8434 38.383C87.138 38.383 93.9837 52.5466 93.9837 64.675C93.9837 69.5657 92.75 73.3282 91.5565 76.9656C90.3348 80.6909 89.1804 84.2085 89.1804 88.9755C89.1804 92.6646 89.77 96.0277 90.2439 98.7295C90.4394 99.846 90.6083 100.811 90.7156 101.669C90.7843 102.219 90.4145 102.723 89.8905 102.794C89.8484 102.801 89.8063 102.804 89.7651 102.804Z" fill="#0B409C"/>
<path d="M51.4388 103.196C50.9246 103.196 50.4999 102.768 50.483 102.225C50.4697 101.811 50.4631 101.397 50.4631 100.983C50.4631 90.7325 54.4512 86.5749 59.9709 80.8205C62.8516 77.8166 66.1171 74.4125 69.5759 69.4042C69.8857 68.9552 70.4851 68.8562 70.9125 69.1802C71.3407 69.5051 71.4365 70.1327 71.1261 70.5817C67.576 75.722 64.2529 79.187 61.3204 82.2439C55.9354 87.8588 52.3769 91.5674 52.3769 100.984C52.3769 101.375 52.3835 101.768 52.3955 102.16C52.4137 102.714 51.9992 103.178 51.4388 103.196Z" fill="#0B409C"/>
<path d="M58.0909 56.3188C57.1971 56.3188 56.3872 55.9828 55.8091 55.3719C55.2394 54.7709 54.9287 53.9541 54.9349 53.0719C54.9442 51.5755 55.9075 50.3251 57.2255 50.0982C57.3421 50.0782 57.4498 50.0531 57.5522 50.0294C57.8577 49.9597 58.207 49.8793 58.6073 49.929C59.8655 50.0768 61.2163 51.2148 61.2402 53.0319C61.2508 53.8793 60.9223 54.7216 60.338 55.3431C59.7471 55.9716 58.9491 56.3179 58.0909 56.3188ZM58.3573 51.9218C58.2638 51.9218 58.1206 51.9539 57.9574 51.9911C57.8266 52.0213 57.6874 52.0524 57.538 52.078C57.0677 52.1589 56.8513 52.6567 56.8487 53.0858C56.846 53.4293 56.9595 53.7385 57.1665 53.9574C57.386 54.1894 57.7056 54.3116 58.09 54.3116C58.5275 54.3112 58.8121 54.1066 58.9744 53.9346C59.1983 53.6962 59.329 53.3694 59.3251 53.0598C59.3157 52.3509 58.774 51.9688 58.3928 51.9237C58.3821 51.9218 58.3706 51.9218 58.3573 51.9218Z" fill="#0B409C"/>
<path d="M72.6964 62.0272C72.6645 62.0272 72.633 62.0272 72.6007 62.0267C69.7829 61.9798 66.6323 59.4152 66.6172 55.8103C66.6021 52.587 68.961 49.8202 71.9876 49.5125C72.0993 49.5013 72.2083 49.4934 72.3165 49.4888C76.2922 49.3396 78.7641 52.3109 78.894 55.2599C78.9694 56.9734 78.3137 58.7105 77.095 60.0279C75.899 61.3192 74.3402 62.0272 72.6964 62.0272ZM72.172 51.5104C70.1544 51.7154 68.5217 53.6399 68.5314 55.8001C68.5421 58.3726 70.9263 59.9912 72.6313 60.0191C73.7901 60.0511 74.874 59.5444 75.7207 58.6291C76.5608 57.7218 77.0316 56.4964 76.982 55.3524C76.8964 53.4047 75.2694 51.3965 72.3888 51.4946C72.3209 51.4979 72.2465 51.503 72.172 51.5104Z" fill="#0B409C"/>
<path d="M90.351 88.6449C90.2584 88.6449 90.164 88.6309 90.0709 88.6012C89.5655 88.4394 89.2809 87.8778 89.4351 87.3479C90.5754 83.4339 92.0933 79.7304 93.5611 76.1492C96.2432 69.6032 98.7768 63.4207 98.7768 56.7013C98.7768 47.8751 95.1313 33.0687 70.7178 33.0687C64.5916 33.0687 58.5376 34.5028 53.2107 37.217C52.735 37.4592 52.1632 37.251 51.9313 36.7527C51.7008 36.2543 51.8989 35.6538 52.3742 35.4111C57.9609 32.5653 64.3039 31.061 70.7178 31.061C89.7659 31.061 100.691 40.4059 100.691 56.7008C100.691 63.8335 98.0821 70.2 95.3202 76.9408C93.8728 80.4732 92.3757 84.1256 91.2661 87.9346C91.1402 88.3669 90.7607 88.6449 90.351 88.6449Z" fill="#0B409C"/>
<path d="M47.8262 78.5326C47.7274 78.5326 47.6263 78.5163 47.527 78.4824C47.0247 78.309 46.7516 77.7419 46.917 77.2152C46.9134 77.105 46.8975 77.0023 46.8846 76.8977C46.8602 76.7011 46.8381 76.5012 46.8381 76.3027C46.8381 75.5873 47.1156 75.0058 47.6618 74.5758C48.0842 74.2425 48.6845 74.3327 49.0015 74.7757C49.3193 75.2187 49.2338 75.8481 48.8108 76.1804C48.7727 76.2107 48.759 76.2293 48.7559 76.2334C48.7559 76.2334 48.7523 76.2548 48.7523 76.3027C48.7523 76.4143 48.7692 76.5272 48.7829 76.6379C48.8073 76.8312 48.8277 77.0214 48.8277 77.2036C48.8277 77.436 48.7975 77.6452 48.7355 77.8428C48.6029 78.2653 48.2288 78.5326 47.8262 78.5326Z" fill="#0B409C"/>
<path d="M47.0502 109.85C46.508 109.842 46.0855 109.386 46.0931 108.832C46.1653 103.543 48.6519 100.972 53.6942 100.972C54.2514 100.972 54.814 100.995 55.373 101.017C55.8988 101.039 56.421 101.06 56.9304 101.06C57.0036 101.06 57.2172 101.049 57.5276 101.034C58.4603 100.988 60.1959 100.902 61.7488 100.902C63.9885 100.902 66.1727 101.008 68.0994 101.102C69.6279 101.176 71.0718 101.247 72.2395 101.247C74.4575 101.247 76.7162 101.101 78.9008 100.961C81.1006 100.818 83.3757 100.672 85.6246 100.672C91.6223 100.672 94.3598 100.672 94.3598 106.856C94.3598 107.054 94.3567 107.251 94.3509 107.446C94.3367 107.99 93.9111 108.421 93.3951 108.421C92.8392 108.406 92.4229 107.944 92.438 107.389C92.4424 107.213 92.4455 107.035 92.4455 106.856C92.4455 102.795 91.8679 102.679 85.6246 102.679C83.4342 102.679 81.1892 102.824 79.0179 102.964C76.8044 103.106 74.5164 103.254 72.2391 103.254C71.0266 103.254 69.5614 103.183 68.0098 103.107C66.1036 103.014 63.9437 102.909 61.7484 102.909C60.2402 102.909 58.5335 102.993 57.6171 103.038C57.2563 103.056 57.0102 103.067 56.9304 103.067C56.3971 103.067 55.85 103.045 55.299 103.023C54.7648 103.001 54.2271 102.979 53.6942 102.979C49.6596 102.979 48.0649 104.628 48.0073 108.86C47.9998 109.41 47.5724 109.85 47.0502 109.85Z" fill="#0B409C"/>
<path d="M43.3887 119.565C42.8846 119.565 42.4652 119.154 42.4342 118.623C42.3801 117.7 42.3438 116.925 42.3438 116.137C42.3438 112.14 42.9724 109.407 46.1026 108.126C48.7391 107.048 53.0973 107.057 60.3203 107.055L61.7979 107.055C64.5739 107.055 67.3912 107.095 70.115 107.133C72.8343 107.17 75.6458 107.209 78.4126 107.209C88.6918 107.209 92.2463 106.379 92.2805 106.37C92.3509 106.353 92.4259 106.344 92.4981 106.344C96.2344 106.344 97.6233 109.181 97.6233 116.809C97.6233 116.968 97.6216 117.127 97.6171 117.286C97.6038 117.821 97.1929 118.251 96.6831 118.263C96.6831 118.263 43.4117 119.565 43.3887 119.565ZM58.985 109.061C52.7786 109.061 48.9488 109.117 46.7987 109.997C45.1136 110.685 44.258 111.824 44.258 116.137C44.258 116.59 44.2713 117.046 44.2935 117.536L95.7064 116.279C95.6315 108.552 93.9141 108.357 92.5992 108.351C91.8957 108.503 88.0698 109.217 78.4121 109.217C75.633 109.217 72.8144 109.178 70.0893 109.139C67.3713 109.102 64.5606 109.063 61.797 109.063L60.3181 109.062C59.8628 109.062 59.4173 109.061 58.985 109.061Z" fill="#0B409C"/>
<path d="M61.482 39.9019C60.9961 39.9019 60.5803 39.5156 60.5311 38.9977C60.4898 38.571 60.4592 38.1443 60.4286 37.7203C60.3395 36.475 60.2549 35.2989 59.9228 34.2539C59.7552 33.7277 60.0261 33.1592 60.528 32.9844C61.0289 32.8092 61.5711 33.0927 61.7387 33.619C62.1461 34.8996 62.2436 36.257 62.338 37.5693C62.3673 37.9779 62.3965 38.3879 62.4351 38.7988C62.4879 39.3501 62.1035 39.8414 61.5777 39.8968C61.5463 39.9005 61.5139 39.9019 61.482 39.9019Z" fill="#0B409C"/>
<path d="M70.9475 39.9019C70.4191 39.9019 69.9904 39.4524 69.9904 38.8983C69.9904 37.9574 70.0857 37.0649 70.1775 36.2008C70.2666 35.3678 70.35 34.5817 70.35 33.7798C70.35 33.52 70.3411 33.2569 70.3198 32.9919C70.2764 32.4397 70.6683 31.9548 71.1954 31.9093C71.7132 31.867 72.1844 32.2737 72.2278 32.8274C72.2527 33.1476 72.2642 33.4651 72.2642 33.7803C72.2642 34.6937 72.1707 35.5732 72.0798 36.4239C71.9902 37.2699 71.9047 38.069 71.9047 38.8983C71.9047 39.4524 71.476 39.9019 70.9475 39.9019Z" fill="#0B409C"/>
<path d="M79.5954 41.955C79.4726 41.955 79.348 41.9303 79.2278 41.8778C78.7397 41.664 78.5092 41.0769 78.7127 40.5651C79.1214 39.5377 79.5297 38.4677 79.9376 37.398C80.345 36.3289 80.7529 35.2602 81.1603 34.2343C81.3633 33.7225 81.9241 33.4817 82.4122 33.6936C82.9003 33.9065 83.1308 34.4946 82.9273 35.0064C82.523 36.0239 82.1192 37.0838 81.7149 38.1432C81.303 39.2221 80.8916 40.3015 80.4798 41.3372C80.3264 41.723 79.9704 41.955 79.5954 41.955Z" fill="#0B409C"/>
<path d="M86.8063 46.2727L85.4533 44.853C87.4026 42.81 89.6116 40.4941 92.1572 38.8932C92.6094 38.6078 93.1976 38.7626 93.4703 39.2376C93.7425 39.7127 93.5957 40.3296 93.1418 40.6145C90.7984 42.0881 88.7693 44.2152 86.8063 46.2727Z" fill="#0B409C"/>
<path d="M90.8554 53.5887C90.5131 53.5887 90.1824 53.3958 90.0104 53.0574C89.7617 52.5679 89.9382 51.9604 90.4041 51.6996C91.9929 50.8108 93.6625 50.1261 95.2766 49.4641C96.2169 49.0788 97.1882 48.6799 98.14 48.2434C98.6268 48.0194 99.1893 48.2527 99.4003 48.7603C99.6122 49.268 99.3915 49.8602 98.9074 50.0824C97.921 50.5351 96.9306 50.941 95.9735 51.3338C94.339 52.0041 92.794 52.6372 91.3049 53.4702C91.1617 53.5511 91.0074 53.5887 90.8554 53.5887Z" fill="#0B409C"/>
<path d="M97.8764 63.5596C96.6777 63.5596 95.4643 63.4309 94.2909 63.3068C93.8196 63.257 93.3537 63.2073 92.8962 63.1678C92.3695 63.1213 91.9781 62.6364 92.022 62.0837C92.0663 61.531 92.53 61.1289 93.0558 61.1671C93.5239 61.2084 94.0009 61.2586 94.4833 61.3102C95.6093 61.4292 96.7739 61.5524 97.8764 61.5524C98.2471 61.5524 98.603 61.538 98.9337 61.5087C99.4635 61.4697 99.9241 61.8727 99.9676 62.4254C100.011 62.9781 99.62 63.4629 99.0933 63.5094C98.7094 63.5429 98.3002 63.5596 97.8764 63.5596Z" fill="#0B409C"/>
<path d="M94.2825 75.3184C94.2302 75.3184 94.1779 75.3138 94.1243 75.3045C92.9925 75.1078 92.05 74.8917 91.072 74.0717C90.6593 73.7254 90.5928 73.0941 90.9231 72.6608C91.2529 72.229 91.854 72.157 92.2685 72.5047C92.8887 73.0248 93.5018 73.1615 94.4381 73.3247C94.9599 73.4153 95.3119 73.9322 95.225 74.4793C95.1474 74.9702 94.7418 75.3184 94.2825 75.3184Z" fill="#0B409C"/>
</g>
<defs>
<clipPath id="clip0_39_833">
<rect width="65" height="88.8775" fill="white" transform="translate(41 31.061)"/>
</clipPath>
</defs>
</svg>
