<svg width="60" height="60" viewBox="0 0 60 60" fill="none" xmlns="http://www.w3.org/2000/svg">
<rect width="60" height="60" rx="8" fill="#0B409C" fill-opacity="0.21"/>
<path opacity="0.4" d="M16.0104 39.1979C15.4125 39.1979 14.9166 38.7021 14.9166 38.1042V29.7917C14.8437 25.8396 16.3166 22.1063 19.0583 19.3063C21.8 16.5208 25.475 14.9896 29.4271 14.9896C37.5062 14.9896 44.0833 21.5667 44.0833 29.6458V37.9583C44.0833 38.5562 43.5875 39.0521 42.9896 39.0521C42.3916 39.0521 41.8958 38.5562 41.8958 37.9583V29.6458C41.8958 22.7771 36.3104 17.1771 29.4271 17.1771C26.0583 17.1771 22.9375 18.475 20.6187 20.8375C18.2854 23.2146 17.0458 26.3792 17.1041 29.7625V38.0896C17.1041 38.7021 16.6229 39.1979 16.0104 39.1979Z" fill="#0B409C"/>
<path d="M20.6623 30.1562H20.4728C17.4103 30.1562 14.9165 32.65 14.9165 35.7125V38.4542C14.9165 41.5167 17.4103 44.0104 20.4728 44.0104H20.6623C23.7248 44.0104 26.2186 41.5167 26.2186 38.4542V35.7125C26.2186 32.65 23.7248 30.1562 20.6623 30.1562Z" fill="#0B409C"/>
<path d="M38.5271 30.1562H38.3375C35.275 30.1562 32.7812 32.65 32.7812 35.7125V38.4542C32.7812 41.5167 35.275 44.0104 38.3375 44.0104H38.5271C41.5896 44.0104 44.0833 41.5167 44.0833 38.4542V35.7125C44.0833 32.65 41.5896 30.1562 38.5271 30.1562Z" fill="#0B409C"/>
</svg>
