<svg width="131" height="132" viewBox="0 0 131 132" fill="none" xmlns="http://www.w3.org/2000/svg">
<g clip-path="url(#clip0_3045_4436)">
<g filter="url(#filter0_f_3045_4436)">
<path d="M13.9531 19.5864C16.1409 19.5864 18.2615 18.6331 19.3467 16.7983L19.3545 16.7847C19.6847 16.2635 19.8737 15.797 19.9824 14.7593C20.0945 13.6891 20.1162 12.0578 20.1162 9.21729C20.1162 6.1768 20.1048 4.58655 19.999 3.69775C19.9464 3.25517 19.8765 3.05076 19.8135 2.94287C19.7642 2.85869 19.7038 2.8037 19.542 2.71729L19.5342 2.71338L19.5264 2.7085C19.2868 2.56963 19.0999 2.521 18.9375 2.521C18.7751 2.52102 18.5881 2.56965 18.3486 2.7085L18.3418 2.71338L18.334 2.71729L18.2285 2.77783C18.1391 2.8346 18.0938 2.88224 18.0566 2.94287C17.9958 3.04247 17.927 3.22911 17.875 3.6333C17.77 4.45001 17.7588 5.8988 17.7588 8.66357C17.7588 11.1276 17.7276 12.6568 17.6191 13.647C17.524 14.516 17.363 15.0496 17.0469 15.4507L16.9014 15.6147C15.9553 16.5959 14.7894 17.0739 13.6504 16.9927C12.5769 16.9161 11.5867 16.347 10.8857 15.3521L10.75 15.147C10.3949 14.6249 10.2156 14.0193 10.1289 13.0298C10.0639 12.2879 10.0486 11.2965 10.0625 9.91553L10.085 8.39893V8.39502C10.1483 5.95444 10.1568 4.63267 10.0674 3.85596C10.0233 3.47317 9.96009 3.26776 9.89453 3.14209C9.8363 3.0305 9.76179 2.95243 9.62305 2.85303L9.91309 2.44873L9.62207 2.85303L9.61719 2.84912C9.38241 2.67589 9.22288 2.56209 9.09473 2.48779C8.97069 2.41591 8.91373 2.40405 8.88672 2.40186C8.86498 2.40012 8.81965 2.40098 8.71191 2.44873C8.5953 2.50043 8.44286 2.58967 8.21191 2.73877L8.20117 2.74658L8.18848 2.75342L8.12891 2.7915C8.07374 2.83197 8.03269 2.88089 7.99219 2.96729C7.9254 3.10975 7.85929 3.35798 7.80859 3.8208C7.70734 4.74537 7.68555 6.33153 7.68555 9.17432C7.68555 12.0802 7.70733 13.6882 7.82422 14.7349C7.93649 15.7401 8.13218 16.1926 8.49512 16.7935L8.49414 16.7944C9.62158 18.6339 11.7668 19.5863 13.9531 19.5864Z" fill="#E0DFE6" stroke="#E0DFE6"/>
<path d="M26.7021 19.6609C27.1383 19.6609 27.3275 19.6134 27.4453 19.5271C27.5543 19.4472 27.7007 19.2578 27.8184 18.696C27.9346 18.1406 28.0047 17.3155 28.0439 16.0847C28.083 14.8603 28.0908 13.2628 28.0908 11.1755C28.0908 7.82871 28.0588 5.8263 27.9609 4.59351C27.8727 3.4824 27.7337 3.10702 27.6133 2.94214L27.5635 2.88257C27.2161 2.53014 26.9832 2.41506 26.7881 2.39526C26.5879 2.37498 26.3072 2.44276 25.8369 2.74097L25.8271 2.74683L25.8164 2.75269L25.7656 2.78589C25.7168 2.82218 25.6752 2.87296 25.6309 2.98218C25.5578 3.16218 25.4891 3.47707 25.4375 4.0603C25.335 5.22003 25.3135 7.24896 25.3135 10.9207C25.3135 15.2721 25.348 17.5159 25.5869 18.6824C25.7052 19.2594 25.8524 19.451 25.96 19.53C26.0762 19.6154 26.2628 19.6609 26.7021 19.6609Z" fill="#E0DFE6" stroke="#E0DFE6"/>
<path d="M35.0361 19.5796C35.3466 19.6202 35.518 19.6154 35.6445 19.5757C35.7535 19.5415 35.8831 19.4643 36.0586 19.2349C36.2416 18.9955 36.4501 18.622 36.7188 18.0396C36.8519 17.7508 36.9968 17.4175 37.1582 17.0327L37.6973 15.7153L37.6982 15.7134L40.8887 7.92041V7.91846C41.3617 6.77735 41.7135 5.92701 41.9639 5.27686C42.2163 4.62128 42.3539 4.19806 42.4131 3.90283C42.4703 3.61731 42.4414 3.50794 42.415 3.44775C42.3958 3.40375 42.3678 3.35943 42.3174 3.29932L42.0859 3.05322C41.8577 2.82165 41.6902 2.66565 41.5527 2.56201C41.4177 2.46021 41.3389 2.42979 41.291 2.42041C41.2016 2.40308 41.0594 2.42205 40.5898 2.68799C40.5726 2.70918 40.5473 2.74317 40.5137 2.79346C40.4376 2.90726 40.3381 3.07404 40.2178 3.29346C39.9782 3.73043 39.6714 4.34612 39.3164 5.09814C38.7846 6.2248 38.1521 7.64571 37.4893 9.2085L36.8184 10.813V10.814L36.2041 12.2983C35.63 13.6961 35.1735 14.8389 34.8262 15.7759C34.36 17.0333 34.1037 17.887 34.0176 18.4722C33.9302 19.0663 34.0387 19.2434 34.1104 19.314C34.1928 19.3951 34.3486 19.4666 34.6611 19.5249L35.0283 19.5786L35.0361 19.5796Z" fill="#E0DFE6" stroke="#E0DFE6"/>
<path d="M49.9775 18.1987C52.5308 20.294 56.1555 20.084 58.6709 17.6714L58.9111 17.4312L60.2021 16.0815L60.3252 9.59131V9.59033C60.3884 6.59768 60.4082 4.94612 60.332 3.98193C60.2939 3.49983 60.2343 3.23722 60.1689 3.08057C60.1146 2.95032 60.0535 2.88536 59.9512 2.81396L59.9375 2.8042C59.4926 2.47058 59.2009 2.38043 58.9854 2.39209C58.7762 2.40356 58.5188 2.51753 58.1592 2.88232L58.1523 2.89014L58.1455 2.89697L58.0957 2.94971C57.9786 3.09401 57.8472 3.40325 57.7607 4.24365C57.6641 5.18262 57.6318 6.65839 57.6318 9.04736C57.6318 11.5715 57.611 13.0923 57.5078 14.0562C57.4028 15.0367 57.2024 15.5509 56.7617 15.9683L56.7559 15.9741L56.749 15.979L56.6064 16.0991C55.1481 17.2563 52.8405 17.2178 51.4551 15.9585L51.3193 15.8276C51.1062 15.6113 50.9162 15.3803 50.7695 15.0562C50.6265 14.7401 50.5374 14.3639 50.4766 13.8726C50.3565 12.9032 50.3359 11.3549 50.3359 8.66357C50.3359 5.94563 50.3142 4.49317 50.209 3.66455C50.1567 3.2529 50.0891 3.04892 50.0264 2.93506C49.9757 2.84318 49.9158 2.78581 49.7852 2.70752C49.5189 2.56689 49.3633 2.48233 49.2383 2.4292C49.1798 2.40436 49.146 2.39493 49.127 2.39111C49.1121 2.38813 49.108 2.38906 49.1074 2.38916C49.0997 2.39018 49.0525 2.39798 48.9033 2.49365L48.2725 2.93896L48.2617 2.9458L48.126 3.04248C48.0081 3.13099 47.9403 3.20044 47.8877 3.28271C47.8155 3.39568 47.7434 3.58001 47.6904 3.9585C47.6087 4.54266 47.5865 5.45819 47.5898 7.01123L47.6006 8.7876V8.7915C47.6006 12.0576 47.708 14.0063 48.0615 15.3501C48.3589 16.4802 48.8306 17.1841 49.6191 17.8931L49.9766 18.1978L49.9775 18.1987Z" fill="#E0DFE6" stroke="#E0DFE6"/>
<path d="M122.439 5.18286C124.381 5.18286 125.865 5.17167 126.995 5.12427C128.134 5.0765 128.876 4.99319 129.357 4.8606C129.831 4.73005 129.95 4.58103 129.998 4.47388C130.05 4.35667 130.069 4.18191 130.044 3.88306L130.003 3.53931L130.002 3.53247C129.985 3.39942 129.975 3.33371 129.961 3.28442C129.955 3.26463 129.951 3.25614 129.95 3.25415C129.95 3.25318 129.949 3.25429 129.949 3.25415C129.937 3.24189 129.834 3.15964 129.343 3.09106C129.045 3.04953 128.654 3.01934 128.138 2.99341C128.182 3.04688 128.226 3.11633 128.251 3.20532L128.258 3.22876L128.262 3.2522C128.307 3.50604 128.166 3.68127 128.089 3.7522C128.012 3.82272 127.928 3.86326 127.875 3.88599C127.763 3.93458 127.624 3.97125 127.488 4.00024C127.206 4.06028 126.815 4.11431 126.359 4.16235C125.443 4.25907 124.209 4.33812 122.947 4.38892C121.684 4.43974 120.382 4.46238 119.327 4.44556C118.8 4.43715 118.329 4.41851 117.952 4.38794C117.627 4.36154 117.31 4.32012 117.096 4.24536V4.24731C116.79 4.1587 116.576 3.93672 116.471 3.69165C116.372 3.46114 116.353 3.16241 116.498 2.89771C115.999 2.91159 115.582 2.92586 115.265 2.94458C115.069 2.95608 114.917 2.96886 114.81 2.98071C114.793 3.02379 114.774 3.08245 114.759 3.1604C114.725 3.33293 114.714 3.54982 114.732 3.78052C114.751 4.01017 114.795 4.23696 114.861 4.42896C114.923 4.60935 114.995 4.73137 115.056 4.80103C115.066 4.8055 115.081 4.81172 115.104 4.81958C115.176 4.84501 115.288 4.87411 115.447 4.90356C115.766 4.96231 116.226 5.01382 116.849 5.05591C118.09 5.1399 119.924 5.18286 122.439 5.18286Z" fill="#E0DFE6" stroke="#E0DFE6"/>
<path d="M122.397 12.4219C124.276 12.4219 125.718 12.411 126.826 12.3682C127.941 12.3251 128.689 12.2504 129.192 12.1318C129.697 12.013 129.871 11.8696 129.948 11.7578C130.035 11.6324 130.082 11.4327 130.082 11.0059C130.082 10.5792 130.035 10.3768 129.949 10.25C129.874 10.1386 129.705 9.99688 129.216 9.87891C128.727 9.76087 128 9.68564 126.915 9.64258C125.836 9.59977 124.434 9.58984 122.607 9.58984C120.664 9.58984 118.859 9.64218 117.497 9.72656C116.815 9.76882 116.25 9.81923 115.837 9.87305C115.63 9.90001 115.469 9.92653 115.354 9.95215C115.214 9.98355 115.208 9.99933 115.249 9.97168L115.234 9.98145L115.22 9.99023L115.127 10.0547C114.917 10.2254 114.76 10.5368 114.727 10.9307C114.689 11.3658 114.816 11.7834 115.056 12.04C115.065 12.0445 115.081 12.0515 115.104 12.0596C115.175 12.0848 115.285 12.1132 115.442 12.1426C115.757 12.2012 116.211 12.2529 116.828 12.2949C118.059 12.3789 119.882 12.4219 122.397 12.4219Z" fill="#E0DFE6" stroke="#E0DFE6"/>
<path d="M122.397 19.6609C124.913 19.6609 126.736 19.6179 127.967 19.5339C128.584 19.4919 129.039 19.4402 129.354 19.3816C129.511 19.3522 129.62 19.3238 129.691 19.2986C129.714 19.2905 129.73 19.2835 129.739 19.2791C129.972 19.0282 130.094 18.6071 130.048 18.157C130.001 17.6999 129.797 17.3504 129.547 17.197C129.539 17.1942 129.527 17.1892 129.51 17.1843C129.472 17.1733 129.42 17.1605 129.353 17.1472C129.217 17.1206 129.038 17.0942 128.817 17.0691C128.377 17.019 127.797 16.9771 127.12 16.9431C125.766 16.8751 124.048 16.8418 122.33 16.8445C120.612 16.8471 118.902 16.8852 117.565 16.9597C116.896 16.997 116.327 17.0435 115.9 17.0974C115.686 17.1244 115.516 17.1525 115.391 17.1804C115.319 17.1963 115.275 17.2096 115.251 17.2175L115.231 17.2224L115.22 17.2292L115.127 17.2937C114.917 17.4644 114.76 17.7759 114.727 18.1697C114.689 18.6048 114.816 19.0224 115.056 19.2791C115.065 19.2835 115.081 19.2905 115.104 19.2986C115.175 19.3238 115.285 19.3522 115.442 19.3816C115.757 19.4402 116.211 19.4919 116.828 19.5339C118.059 19.6179 119.882 19.6609 122.397 19.6609Z" fill="#E0DFE6" stroke="#E0DFE6"/>
<path d="M69.0088 31.5002V31.4993L129.873 31.3733V29.3899L68.9668 29.2629C41.7899 29.2204 26.4422 29.2202 17.8623 29.3C13.5707 29.34 10.9812 29.3999 9.4541 29.4836C8.68728 29.5257 8.20573 29.5734 7.91699 29.6233C7.8563 29.6338 7.80869 29.6448 7.77148 29.6536C7.75486 29.7442 7.74004 29.8801 7.74316 30.0637C7.74775 30.3333 7.78512 30.6371 7.84082 30.9045L8.00098 31.5842L69.0088 31.5002Z" fill="#E0DFE6" stroke="#E0DFE6"/>
<path d="M45.8799 82.1597L45.7285 82.3071L44.6797 83.3286L43.6865 84.3794L43.5381 84.5356H28.1709C23.5519 84.5356 19.675 84.4931 16.8936 84.4185C15.5037 84.3811 14.383 84.3352 13.5781 84.2827C13.1767 84.2565 12.8471 84.2286 12.5996 84.1978C12.4765 84.1824 12.3663 84.1651 12.2744 84.146C12.2178 84.1342 12.1369 84.1156 12.0576 84.0835L11.9854 84.0503C11.0512 83.5485 10.5885 82.5886 10.3418 80.8149C10.1254 79.2589 10.0593 76.9488 10.0742 73.4907L10.085 71.937C10.1271 67.5927 10.1038 65.2432 9.88281 63.9741C9.77182 63.3369 9.62631 63.08 9.50879 62.9683C9.41182 62.8762 9.26511 62.8179 8.90625 62.8179C8.52478 62.8179 8.39428 62.8683 8.30859 62.9497C8.1999 63.0529 8.05417 63.311 7.94141 64.0103C7.71865 65.3919 7.68555 68.0231 7.68555 73.0493C7.68555 78.508 7.70908 81.2718 8.05762 82.9429C8.22671 83.7534 8.46722 84.2729 8.80273 84.7075C9.06271 85.0442 9.39056 85.3454 9.82715 85.6958L10.3018 86.0649L10.3076 86.0698L11.6836 87.1567L26.874 87.2827H26.875C31.0901 87.3253 35.0849 87.3249 38.1191 87.2983C39.6363 87.285 40.9122 87.2652 41.8545 87.2407C42.5785 87.2219 43.0795 87.2009 43.3457 87.1812L43.5332 87.1616C43.8202 87.1131 44.2928 86.9165 44.8301 86.605C45.2237 86.3767 45.6235 86.1036 45.9717 85.8228L46.3008 85.5405C46.907 84.9775 47.3232 84.5337 47.6387 83.8901C47.9587 83.2371 48.1932 82.3401 48.3506 80.853C48.5878 78.6124 48.6414 75.1387 48.6182 69.3491L48.5732 62.7485V62.7476L48.4482 45.6431L47.5156 44.144L47.5098 44.1343L47.5039 44.1255C47.2865 43.7394 46.9069 43.2894 46.457 42.8735C46.0646 42.5108 45.6424 42.1953 45.2686 41.9829L45.1113 41.8989L45.1016 41.8931C44.7527 41.7063 44.4506 41.5717 43.9668 41.4663C43.4671 41.3575 42.764 41.2787 41.6152 41.2231C39.3169 41.1121 35.3345 41.1011 27.8359 41.1011C19.893 41.1011 15.9361 41.1008 13.7822 41.2222C12.7045 41.2829 12.1193 41.3732 11.7266 41.4927C11.447 41.5778 11.2554 41.6796 11.0283 41.8276L10.7842 41.9927L10.7812 41.9946L10.5049 42.1978C9.92592 42.652 9.21337 43.3741 8.73926 43.9897L8.52344 44.2866C8.30963 44.6175 8.16568 44.8655 8.05859 45.1323C7.95239 45.397 7.87549 45.7003 7.82422 46.1411C7.71885 47.0472 7.72736 48.4536 7.76953 51.1499C7.833 53.8972 7.87543 55.2852 8.00391 56.0376C8.0671 56.4075 8.14 56.5464 8.18945 56.6079C8.22113 56.6472 8.26318 56.6825 8.36914 56.731L8.49902 56.7847H8.50098C8.88462 56.9343 9.32903 56.8741 9.65137 56.6401C9.75375 56.5553 9.82534 56.4705 9.88672 56.3403C9.95636 56.1926 10.0224 55.9668 10.0742 55.5864C10.1789 54.8175 10.2109 53.5546 10.2109 51.3315V51.3286C10.2162 50.3848 10.1946 49.5834 10.1885 48.8638C10.1825 48.1567 10.1914 47.5281 10.2676 46.9868C10.3443 46.4418 10.4932 45.948 10.791 45.5288C11.0932 45.1037 11.5184 44.7972 12.0732 44.5757C13.144 44.1482 14.8004 44 17.293 43.9458C19.8072 43.8911 23.2714 43.9331 28.0039 43.9331H43.9072L44.0576 44.1313L44.8965 45.2388C45.1283 45.5446 45.329 45.8416 45.4736 46.397C45.6096 46.9191 45.6951 47.6633 45.7529 48.8696C45.8691 51.2909 45.8799 55.7256 45.8799 64.3198V82.1597Z" fill="#E0DFE6" stroke="#E0DFE6"/>
<path d="M125.503 128.673C126.054 128.673 126.827 128.345 127.61 127.74C128.283 127.219 128.905 126.537 129.334 125.812L129.506 125.498L129.512 125.489C129.541 125.434 129.591 125.296 129.643 124.987C129.693 124.686 129.74 124.261 129.782 123.657C129.866 122.452 129.927 120.579 129.972 117.668C130.061 111.85 130.082 101.921 130.082 84.9719V45.5647L129.2 44.2424L129.198 44.2395C128.789 43.6167 127.938 42.7274 127.263 42.1975L126.986 41.9944L126.983 41.9924L125.685 41.1008H93.8994C81.118 41.1221 73.0738 41.1544 68.0996 41.2395C65.6117 41.2821 63.8994 41.3377 62.749 41.4114C62.1734 41.4483 61.7463 41.4889 61.4375 41.5334C61.2763 41.5567 61.1581 41.5796 61.0732 41.5999L60.9102 41.6506L60.9062 41.6526L60.6348 41.7825C60.0196 42.0929 59.531 42.4561 59.1104 42.929C58.6261 43.4732 58.2123 44.1837 57.8057 45.1731C57.7013 45.4339 57.5963 45.9327 57.5117 47.1233C57.4282 48.2995 57.3668 50.1006 57.3223 52.926C57.2332 58.5741 57.2119 68.2783 57.2119 85.1848C57.2119 103.797 57.222 113.477 57.332 118.719C57.4289 123.333 57.6065 124.443 57.8809 125.143L58.0039 125.427L58.0078 125.434L58.0107 125.441C58.83 127.341 60.7284 128.673 62.3359 128.673C62.372 128.673 62.407 128.673 62.4404 128.673L62.4238 128.654C62.381 128.605 62.3182 128.534 62.2666 128.462C62.2203 128.398 62.1353 128.269 62.1152 128.099C62.0897 127.882 62.1774 127.689 62.3242 127.556C62.444 127.448 62.5916 127.388 62.7139 127.351C62.9658 127.274 63.3411 127.221 63.8623 127.179C64.3949 127.136 65.1169 127.103 66.084 127.076C69.9491 126.97 77.8499 126.97 93.6045 126.97C109.317 126.97 117.219 126.97 121.131 127.076C123.062 127.129 124.085 127.208 124.594 127.347C124.727 127.383 124.863 127.433 124.979 127.511C125.105 127.595 125.228 127.726 125.276 127.917C125.321 128.095 125.282 128.249 125.249 128.34C125.233 128.384 125.213 128.427 125.194 128.465L125.146 128.56L125.145 128.562L125.091 128.665C125.199 128.67 125.334 128.673 125.503 128.673ZM127.515 124.388L127.327 124.538L126.32 125.347C126.181 125.462 126.02 125.576 125.784 125.674C125.554 125.769 125.272 125.842 124.894 125.902C124.144 126.019 122.933 126.096 120.836 126.15C116.631 126.256 108.752 126.267 93.6045 126.267C78.1641 126.267 70.2957 126.266 66.1846 126.159C64.1375 126.106 62.9878 126.026 62.292 125.899C61.939 125.834 61.6744 125.752 61.458 125.639C61.2899 125.551 61.1668 125.452 61.0664 125.358L60.9727 125.266C60.8524 125.144 60.7144 124.995 60.5986 124.747C60.4894 124.514 60.4119 124.219 60.3496 123.812C60.2258 123.003 60.1471 121.62 60.0947 119.102C59.9897 114.049 59.9893 104.301 59.9893 85.0999C59.9893 65.8991 59.9897 56.1508 60.0947 51.0979C60.1471 48.5792 60.2258 47.1972 60.3496 46.3879C60.4119 45.9811 60.4895 45.6866 60.5986 45.4534C60.6855 45.2677 60.7849 45.1367 60.8799 45.0315L60.9727 44.9338C61.0901 44.8147 61.2336 44.6782 61.458 44.5608C61.6748 44.4475 61.9406 44.3659 62.2949 44.301C62.9932 44.1733 64.1485 44.0934 66.2061 44.0403C70.3382 43.9336 78.2486 43.9329 93.7725 43.9329C109.591 43.9329 117.513 43.9331 121.577 44.0452C123.599 44.1009 124.707 44.1844 125.363 44.3206C125.699 44.3902 125.95 44.4804 126.155 44.6077C126.259 44.6718 126.343 44.7408 126.414 44.8079L126.59 44.9944L126.591 44.9954C126.714 45.1346 126.835 45.2981 126.935 45.5569C127.028 45.8 127.099 46.1116 127.156 46.5432C127.271 47.4039 127.346 48.8491 127.398 51.4172C127.503 56.5656 127.515 66.324 127.515 85.1848V124.388Z" fill="#E0DFE6" stroke="#E0DFE6"/>
<path d="M80.3271 87.0132C89.3381 96.5223 104.524 94.1496 110.422 82.4302L110.695 81.8657L110.696 81.8638C111.366 80.4411 111.735 79.5542 111.964 78.5864C112.136 77.8574 112.231 77.0698 112.304 75.9585L112.37 74.729C112.433 73.0066 112.441 71.901 112.341 70.9458C112.254 70.1193 112.084 69.3936 111.78 68.4692L111.642 68.0601L111.64 68.0532C109.892 62.7751 106.853 59.2307 101.964 56.7056L101.49 56.4673C100.106 55.8075 99.2665 55.4458 98.3369 55.2251C97.6369 55.0589 96.873 54.9698 95.7734 54.9087L94.5527 54.855C91.6236 54.7759 90.2124 54.8842 88.5967 55.3999L88.2695 55.5093L88.2646 55.5103L87.7207 55.6997C82.3333 57.6469 78.5022 61.3352 76.2432 66.7251L76.0225 67.27C75.5068 68.6321 75.403 69.5747 75.5557 70.1128C75.6258 70.3599 75.743 70.499 75.8867 70.5806C76.022 70.6573 76.2282 70.7094 76.5352 70.6909L76.6738 70.6782H76.6777C76.9824 70.6451 77.1359 70.6199 77.2559 70.5698C77.3514 70.5299 77.454 70.4614 77.5947 70.271C77.7448 70.0679 77.9209 69.7517 78.1631 69.2378C78.4029 68.729 78.6949 68.0544 79.083 67.1499V67.1489C80.3869 64.0484 82.7553 61.4245 85.749 59.6294L86.3555 59.2817L86.3594 59.2798C87.4833 58.6774 88.3221 58.2932 89.2666 58.0493C90.2064 57.8067 91.2266 57.7092 92.7021 57.645V57.646C94.8465 57.5173 96.5392 57.6115 98.1133 58.0288C99.6918 58.4473 101.119 59.1815 102.742 60.2866L102.741 60.2876C105.267 61.9834 107.584 64.8971 108.825 67.9282L109.06 68.5366C109.591 70.0207 109.814 72.0151 109.766 74.0083C109.721 75.8799 109.435 77.7973 108.913 79.3472L108.806 79.6519L108.805 79.6548L108.679 79.9741C108.013 81.5777 106.849 83.281 105.485 84.7817C104.121 86.2826 102.528 87.613 100.979 88.4517L100.67 88.6128L100.669 88.6138L99.9082 88.978C99.1903 89.3046 98.5762 89.5195 97.8389 89.6528C96.8749 89.8271 95.7176 89.8579 93.8564 89.8579C92.0359 89.8579 90.8715 89.8277 89.8945 89.6597C88.9002 89.4887 88.1178 89.1787 87.0518 88.6597C83.5504 86.993 80.9042 84.3547 79.3008 80.8823C78.6009 79.3787 77.9137 77.8644 77.7246 77.4741C77.6792 77.4091 77.5603 77.296 77.3506 77.1831C77.1403 77.0699 76.8919 76.9852 76.6621 76.9517C76.3051 76.9087 76.0694 76.9577 75.916 77.0376C75.769 77.1142 75.6525 77.2413 75.5723 77.4478C75.3985 77.8953 75.418 78.6621 75.7266 79.7046C76.2957 81.6276 77.7544 84.1776 79.8896 86.5415L80.3262 87.0122L80.3271 87.0132Z" fill="#E0DFE6" stroke="#E0DFE6"/>
<path d="M111.798 116.111L113.432 115.047V115.046C114.45 114.364 115.141 113.734 115.639 113.015C116.073 112.388 116.377 111.669 116.609 110.742L116.705 110.332V110.33C117.386 107.223 115.797 103.982 112.828 102.472L112.537 102.333L112.533 102.331C111.849 102.012 111.154 101.813 108.59 101.707C106.664 101.627 103.723 101.601 98.9971 101.602L93.6484 101.611H93.6475C86.3628 101.611 81.954 101.632 79.2148 101.722C77.8448 101.768 76.9052 101.83 76.2383 101.913C75.7364 101.975 75.4059 102.048 75.1719 102.126L74.9668 102.205L74.9658 102.206L74.6348 102.36C73.8891 102.721 73.3243 103.091 72.8486 103.544C72.3731 103.997 71.9679 104.551 71.5615 105.302L71.3877 105.636C69.7436 108.935 70.959 113.118 74.0889 115.029L75.9443 116.111H111.798ZM76.0889 113.348L74.8828 112.167C73.875 111.237 73.3312 110.104 73.2949 108.935C73.2587 107.767 73.7316 106.619 74.6514 105.662L74.6631 105.65L75.7959 104.543L75.9414 104.401H93.6475C102.098 104.401 106.499 104.412 108.917 104.524C110.122 104.58 110.87 104.662 111.393 104.793C111.809 104.897 112.081 105.032 112.317 105.19L112.546 105.356L112.552 105.361C114.037 106.538 114.552 108.681 113.904 110.492L113.838 110.667L113.834 110.675L113.638 111.123C113.431 111.564 113.181 111.978 112.748 112.31C112.18 112.745 111.362 112.996 110.085 113.158C107.531 113.482 102.775 113.492 93.4795 113.492H76.2354L76.0889 113.348Z" fill="#E0DFE6" stroke="#E0DFE6"/>
<path d="M18.5176 55.4307C19.4066 55.4307 19.945 55.1742 20.1895 54.8779C20.4053 54.6162 20.4849 54.2055 20.1729 53.6074C20.0545 53.3827 19.9201 53.258 19.7109 53.1738C19.4719 53.0777 19.1095 53.0244 18.5176 53.0244C17.926 53.0244 17.5641 53.0777 17.3252 53.1738C17.1682 53.2371 17.0528 53.3231 16.9551 53.457L16.8623 53.6084C16.5509 54.2059 16.631 54.6164 16.8467 54.8779C17.0911 55.1742 17.6288 55.4306 18.5176 55.4307Z" fill="#E0DFE6" stroke="#E0DFE6"/>
<path d="M27.4502 55.1755C28.3965 55.3834 30.1109 55.4107 33.1963 55.3464V55.3455C35.7887 55.2813 37.2674 55.2281 38.1523 55.1101C38.5938 55.0512 38.8441 54.9813 38.9961 54.9089C39.1263 54.847 39.1889 54.7819 39.2461 54.6892L39.25 54.6824L39.2539 54.6765C39.3865 54.4747 39.4238 54.3346 39.4238 54.2214C39.4237 54.1055 39.3831 53.9536 39.2461 53.7263C39.1941 53.6497 39.1345 53.5905 39.0059 53.533C38.8503 53.4634 38.596 53.3961 38.1504 53.3396C37.4813 53.2548 36.4754 53.2033 34.9121 53.156L33.1543 53.1091C30.975 53.0666 29.4408 53.0776 28.4092 53.1453C27.892 53.1792 27.5176 53.2262 27.2588 53.283C27.1167 53.3141 27.0313 53.3441 26.9834 53.364L26.9326 53.3855C26.8699 53.4491 26.7741 53.5967 26.6924 53.7947C26.6109 53.9921 26.5732 54.1695 26.5732 54.2703C26.5733 54.5948 26.63 54.7468 26.71 54.8425C26.7961 54.9455 26.9854 55.0734 27.4502 55.1755Z" fill="#E0DFE6" stroke="#E0DFE6"/>
<path d="M18.4717 65.634C19.0468 65.647 19.6332 65.4225 20.0293 64.9719V64.9709C20.3407 64.6129 20.4189 64.4517 20.4375 64.3293C20.4564 64.2041 20.4273 64.0226 20.2393 63.5774C20.0721 63.2029 19.9336 63.0534 19.7803 62.97C19.6036 62.874 19.3242 62.8177 18.7705 62.8176C18.4282 62.8176 18.0386 62.8833 17.7002 62.9915C17.3427 63.1057 17.1244 63.2412 17.0479 63.3284L17.0342 63.345L17.0186 63.3596L16.7646 63.6165C16.6982 63.6886 16.6482 63.7485 16.6113 63.802C16.5458 63.8972 16.542 63.94 16.542 63.9622C16.542 63.9978 16.5544 64.078 16.6426 64.2463C16.6866 64.3304 16.7433 64.4259 16.8154 64.5374L17.0801 64.926L17.0869 64.9358C17.3789 65.3723 17.895 65.621 18.4717 65.634Z" fill="#E0DFE6" stroke="#E0DFE6"/>
<path d="M32.998 65.6504C34.4649 65.6504 35.6196 65.6321 36.5283 65.5771C37.4424 65.5219 38.0784 65.431 38.5205 65.2988C38.9571 65.1683 39.152 65.013 39.2539 64.8633C39.3608 64.7062 39.4229 64.4719 39.4229 64.0635C39.4228 63.7126 39.3712 63.5462 39.2939 63.4424C39.2184 63.341 39.0518 63.2116 38.6113 63.1016C37.704 62.8751 36.0247 62.8184 32.9141 62.8184C30.1716 62.8184 28.7094 62.8405 27.8779 62.9473C27.4649 63.0003 27.2622 63.0681 27.1504 63.1309C27.0623 63.1804 27.0065 63.2392 26.9307 63.3682C26.6427 63.9339 26.5764 64.2056 26.5957 64.3887C26.6126 64.5481 26.7073 64.7398 27.0908 65.1084L27.1025 65.1201L27.1143 65.1328C27.2318 65.2617 27.4925 65.4207 28.4141 65.5205C29.3167 65.6182 30.7276 65.6504 32.998 65.6504Z" fill="#E0DFE6" stroke="#E0DFE6"/>
<path d="M18.5596 75.4446C19.2621 75.4446 19.5749 75.395 19.7627 75.2981C19.8762 75.2395 19.9777 75.1454 20.1055 74.9143L20.2441 74.6331L20.248 74.6243C20.4904 74.1101 20.5033 73.9574 20.4854 73.8801C20.4679 73.8056 20.3895 73.6699 19.9326 73.3167L19.9248 73.3108L19.917 73.304C19.4817 72.9392 19.0993 72.7566 18.7383 72.6956C18.3801 72.635 17.9935 72.6859 17.5332 72.8723H17.5342C17.2334 72.9972 16.9606 73.3044 16.8174 73.7102C16.6929 74.0632 16.6875 74.4317 16.8027 74.7317L16.8594 74.8557L16.8613 74.8606C16.9793 75.085 17.1136 75.2086 17.3271 75.2932C17.5719 75.3902 17.945 75.4446 18.5596 75.4446Z" fill="#E0DFE6" stroke="#E0DFE6"/>
<path d="M32.998 75.4763C34.5062 75.4763 36.0088 75.4317 37.1738 75.3425C37.7577 75.2978 38.2463 75.2421 38.6045 75.1785C38.7845 75.1465 38.9199 75.1146 39.0127 75.0847C39.0507 75.0725 39.074 75.0621 39.0869 75.0564C39.3268 74.8007 39.4205 74.5076 39.3936 74.2126C39.3685 73.9398 39.2366 73.6305 38.958 73.3318L38.8301 73.2039L38.8242 73.199C38.6274 73.0126 38.3183 72.8491 37.4316 72.7468C36.5416 72.6442 35.1645 72.6121 32.9141 72.6121C30.5316 72.6121 29.181 72.6342 28.3525 72.7361C27.9431 72.7865 27.6959 72.8528 27.5293 72.9275C27.4138 72.9793 27.3267 73.0394 27.2451 73.1189L27.165 73.2048L27.1582 73.2117L27.0273 73.3669C26.7429 73.7226 26.6179 74.0291 26.5967 74.2781C26.5749 74.5336 26.6565 74.7912 26.9072 75.0564C26.9197 75.062 26.9437 75.0719 26.9834 75.0847C27.0762 75.1146 27.2116 75.1465 27.3916 75.1785C27.7498 75.2421 28.2384 75.2978 28.8223 75.3425C29.9873 75.4317 31.4899 75.4763 32.998 75.4763Z" fill="#E0DFE6" stroke="#E0DFE6"/>
<path d="M43.4707 128.684L43.4785 128.683L43.4873 128.681C44.5137 128.497 45.2816 128.218 45.915 127.794C46.5469 127.371 47.0776 126.783 47.5967 125.933V125.932L47.6006 125.927C47.811 125.591 47.9539 125.329 48.0654 124.978C48.1794 124.618 48.2672 124.144 48.334 123.386C48.4347 122.242 48.4836 120.515 48.5283 117.67L48.5732 114.433V114.432C48.6574 108.777 48.6452 105.582 48.373 103.519C48.2382 102.496 48.0415 101.776 47.7734 101.185C47.5732 100.743 47.3268 100.359 47.0156 99.9658L46.6826 99.5664L46.6807 99.5645C46.2509 99.0676 45.8472 98.6971 45.3604 98.4082C44.8731 98.119 44.2773 97.8965 43.4463 97.7314C41.7619 97.3969 39.2007 97.3096 34.8027 97.3096C31.1799 97.3096 29.26 97.321 28.1523 97.4297C27.6012 97.4838 27.2967 97.5594 27.1006 97.6455C26.9675 97.704 26.87 97.7733 26.7656 97.877L26.6582 97.9922C26.3484 98.3487 26.2705 98.5087 26.252 98.6309C26.233 98.7556 26.26 98.9371 26.4463 99.3789L26.8086 100.143H34.8867C39.0638 100.143 41.2129 100.141 42.4346 100.278C43.0544 100.348 43.49 100.457 43.8486 100.651C44.1992 100.841 44.4392 101.094 44.6797 101.349L45.7285 102.371L45.8799 102.519V113.119C45.8799 118.047 45.8702 120.691 45.7529 122.232C45.6941 123.005 45.606 123.538 45.4639 123.957C45.3532 124.283 45.2141 124.527 45.0557 124.75L44.8906 124.969L44.0576 126.068L43.9072 126.267H28.1719C20.897 126.267 17.0086 126.256 14.8262 126.148C13.7383 126.095 13.039 126.016 12.5439 125.892C12.1503 125.792 11.8848 125.664 11.6582 125.508L11.4473 125.347C11.1947 125.144 10.9307 124.929 10.7344 124.557C10.5456 124.199 10.4389 123.737 10.3662 123.068C10.2213 121.734 10.1897 119.326 10.127 114.66C10.0746 111.185 10.0305 108.573 10.082 106.617C10.1332 104.676 10.2791 103.309 10.6436 102.358C10.8303 101.871 11.08 101.476 11.416 101.167C11.752 100.858 12.1488 100.656 12.5947 100.521C13.2392 100.324 14.0392 100.251 14.9824 100.196L15.9736 100.144H15.9746C17.6873 100.058 18.6186 99.9726 19.1885 99.8232C19.4612 99.7518 19.6244 99.6714 19.7412 99.5859C19.8287 99.5219 19.9067 99.4438 19.9902 99.334L20.0762 99.2129C20.3627 98.788 20.3632 98.688 20.3584 98.6553C20.3561 98.6394 20.3443 98.5909 20.2686 98.4863C20.2296 98.4326 20.1796 98.3724 20.1162 98.3018L19.8828 98.0557C19.561 97.7292 19.2965 97.5604 18.8379 97.457C18.3355 97.3438 17.6064 97.3107 16.3447 97.3105C15.5241 97.3315 14.5978 97.4044 13.7695 97.5088C12.9366 97.6138 12.2387 97.7461 11.8467 97.877C10.0563 98.5595 9.02075 99.4247 8.36328 100.839L8.23633 101.13L8.23242 101.139L8.17773 101.312C8.15709 101.392 8.13469 101.496 8.11133 101.626C8.06639 101.877 8.02343 102.195 7.9834 102.576C7.90336 103.338 7.83611 104.325 7.7832 105.465C7.67745 107.744 7.62758 110.614 7.63281 113.475C7.63805 116.336 7.69893 119.182 7.8125 121.413C7.86932 122.529 7.93938 123.485 8.02148 124.21C8.06258 124.573 8.10557 124.87 8.15039 125.098C8.17432 125.219 8.19642 125.309 8.21484 125.372L8.25684 125.489L8.26172 125.499C8.68502 126.338 9.38859 127.144 10.1572 127.739C10.9401 128.345 11.7134 128.673 12.2646 128.673C12.4328 128.673 12.5676 128.67 12.6758 128.665L12.623 128.562L12.6221 128.56C12.5776 128.478 12.4741 128.297 12.4492 128.104C12.4342 127.988 12.4429 127.846 12.5127 127.705C12.581 127.567 12.6867 127.471 12.7891 127.406C12.9749 127.289 13.223 127.227 13.4893 127.184C13.7719 127.138 14.1453 127.104 14.6289 127.077C16.5568 126.97 20.4812 126.97 28.2139 126.97H44.9521L44.1982 127.805L43.3877 128.702L43.4707 128.684Z" fill="#E0DFE6" stroke="#E0DFE6"/>
<path d="M28.0029 114.621C31.7864 114.621 34.0231 114.599 35.3818 114.504C36.0626 114.457 36.4932 114.393 36.7764 114.315C37.0494 114.24 37.1499 114.161 37.2041 114.102L37.2148 114.09L37.2256 114.08C37.4343 113.878 37.559 113.743 37.6328 113.636C37.6986 113.541 37.7021 113.498 37.7021 113.476C37.7021 113.44 37.6898 113.36 37.6016 113.192C37.5575 113.108 37.5009 113.012 37.4287 112.901L37.1641 112.513L37.1572 112.503C37.0033 112.274 36.9309 112.19 36.8066 112.121C36.6622 112.04 36.4005 111.96 35.8232 111.903C34.6692 111.789 32.5323 111.789 28.2549 111.789C25.7008 111.789 23.4644 111.842 21.8174 111.926C20.9931 111.969 20.3219 112.018 19.835 112.073C19.591 112.1 19.4006 112.127 19.2637 112.154C19.1354 112.179 19.0945 112.196 19.0996 112.192C18.8469 112.341 18.6496 112.682 18.6113 113.129C18.5741 113.565 18.7012 113.984 18.9414 114.241C18.9531 114.246 18.9754 114.255 19.0107 114.267C19.0981 114.296 19.2303 114.327 19.4189 114.358C19.7959 114.419 20.3439 114.47 21.0938 114.509C22.5902 114.588 24.8344 114.621 28.0029 114.621ZM19.1133 112.184L19.1045 112.189L19.1025 112.19L19.1133 112.184Z" fill="#E0DFE6" stroke="#E0DFE6"/>
<path d="M64.5967 19.668C64.7955 19.6857 65.0303 19.6373 65.3252 19.4639C65.8662 19.1456 66.5202 18.4631 67.3486 17.3008L67.7139 16.7725C68.2421 15.9583 68.7602 15.2184 69.1641 14.6738C69.3662 14.4012 69.5432 14.1734 69.6797 14.0088C69.7472 13.9273 69.8094 13.8549 69.8633 13.7988C69.8897 13.7713 69.9209 13.7413 69.9531 13.7139C69.9647 13.704 70.0095 13.6643 70.0762 13.6299L70.1504 13.5977C70.2743 13.5557 70.3825 13.5715 70.4424 13.5859C70.5044 13.6009 70.5532 13.6245 70.583 13.6406C70.642 13.6726 70.6905 13.711 70.7227 13.7383C70.7907 13.7959 70.8645 13.8711 70.9365 13.9502C71.0841 14.1123 71.274 14.3433 71.4912 14.6201C71.7096 14.8984 71.9616 15.2309 72.2354 15.6006L73.1104 16.8047L73.1162 16.8125C74.0263 18.1438 74.5718 18.8704 74.9893 19.2559C75.1892 19.4404 75.3343 19.5226 75.4502 19.5605C75.5613 19.5969 75.6841 19.6065 75.8633 19.582V19.5811C76.0846 19.549 76.3384 19.4568 76.5635 19.3252C76.7945 19.19 76.9484 19.0404 77.0156 18.9268L77.0205 18.9199L77.0254 18.9121C77.1506 18.7166 77.1821 18.6272 77.1865 18.5391C77.1914 18.4399 77.1635 18.2647 76.9912 17.9102C76.7279 17.3683 76.2065 16.5606 75.2842 15.2129L74.2227 13.6758L74.2197 13.6699L72.2051 10.6895L72.1816 10.6553C72.1854 11.3639 72.2845 12.0233 72.4502 12.4297C72.5259 12.5841 72.6022 12.7451 72.6387 12.8828C72.6565 12.9501 72.6855 13.085 72.6494 13.2344C72.6289 13.3188 72.5864 13.4118 72.5088 13.4932C72.4315 13.5742 72.342 13.621 72.2617 13.6455C72.1193 13.6889 71.9862 13.6702 71.915 13.6572C71.8316 13.642 71.7449 13.6158 71.6631 13.5879C71.4992 13.532 71.2889 13.445 71.04 13.3398L71.0234 13.333L71.0078 13.3252C70.5974 13.117 70.3793 13.0574 70.2529 13.0547C70.1965 13.0535 70.1468 13.0612 70.0752 13.1162L69.9951 13.1875C69.7554 13.4307 69.5252 13.6283 69.3145 13.7393C69.2121 13.7931 69.0626 13.8548 68.8906 13.8496C68.6812 13.8432 68.4879 13.7375 68.373 13.5498C68.2796 13.3967 68.2644 13.2315 68.2646 13.1182C68.2649 12.9947 68.2848 12.8638 68.3135 12.7344C68.3567 12.5395 68.4287 12.3119 68.5264 12.0566L68.6328 11.792C68.8566 11.2125 68.9384 10.8868 68.9346 10.5869C68.9316 10.3606 68.8795 10.1185 68.749 9.76465L68.5908 9.36914L68.5879 9.36035C68.4526 9.02242 68.3443 8.74868 68.2734 8.53809C68.2379 8.43253 68.2073 8.33045 68.1875 8.2373C68.1694 8.15201 68.1512 8.03385 68.168 7.91016C68.187 7.76982 68.2612 7.57826 68.4619 7.46387C68.6301 7.36816 68.7994 7.38 68.8838 7.3916C68.9682 7.40322 69.0597 7.42942 69.1504 7.46094L69.4121 7.56348L69.4248 7.56934C69.5792 7.63898 69.7808 7.70449 69.9717 7.75293C70.0396 7.77016 70.1011 7.7826 70.1533 7.79297L70.0713 7.67578L68.3496 5.24805L68.3486 5.24707C67.7712 4.42691 67.3239 3.80858 66.9531 3.35254C66.5778 2.89089 66.3097 2.63124 66.0967 2.49512C65.9088 2.37512 65.7783 2.35905 65.6367 2.38477C65.4575 2.41737 65.2265 2.5244 64.8623 2.74609L64.8545 2.75098L64.8467 2.75488L64.6904 2.85547C64.5567 2.95431 64.4871 3.05006 64.4502 3.1416C64.3995 3.26738 64.3789 3.46409 64.4668 3.79199C64.65 4.47463 65.2353 5.49102 66.3506 7.0498C66.9414 7.86336 67.4704 8.62599 67.8535 9.20898C68.0445 9.4997 68.2028 9.75071 68.3145 9.94336C68.3698 10.0388 68.4182 10.1276 68.4541 10.2031C68.4718 10.2404 68.4908 10.2823 68.5059 10.3252C68.5163 10.355 68.5449 10.4374 68.5449 10.5371C68.5449 10.6174 68.5252 10.6808 68.5186 10.7021C68.5092 10.7322 68.4985 10.7591 68.4902 10.7783C68.4735 10.817 68.4533 10.8569 68.4336 10.8936C68.3932 10.9686 68.3372 11.0629 68.2715 11.1699C68.139 11.3856 67.9501 11.6774 67.7207 12.0225C67.2609 12.7141 66.629 13.6341 65.9346 14.6162H65.9336C64.6005 16.5055 63.9238 17.5852 63.6787 18.2832C63.5618 18.6165 63.5661 18.8037 63.5996 18.9238C63.6329 19.043 63.7152 19.1733 63.915 19.3516C64.1741 19.5607 64.3969 19.6501 64.5967 19.668ZM72.2129 10.1191L74.3105 7.18164V7.18066C75.4705 5.55444 76.0622 4.51086 76.2305 3.81445C76.3102 3.48426 76.2813 3.28458 76.2188 3.15039C76.1548 3.0134 76.0201 2.86772 75.7402 2.7168L75.7266 2.70898C75.5111 2.58408 75.3186 2.54374 75.1299 2.5625C74.9339 2.58204 74.6978 2.66984 74.4102 2.875C73.8207 3.29548 73.1188 4.1311 72.2422 5.48633H72.2412L70.9043 7.64941L70.8594 7.72168C71.0269 7.6722 71.1983 7.6099 71.3438 7.53613L71.3721 7.52246L71.4014 7.51172C71.5753 7.44944 71.7437 7.39212 71.8828 7.36328C71.9519 7.34898 72.0473 7.3341 72.1494 7.34277C72.2556 7.35184 72.4189 7.39139 72.5488 7.53418C72.6761 7.67422 72.7012 7.8363 72.7031 7.93652C72.7051 8.03573 72.6858 8.1282 72.668 8.19727C72.6321 8.33617 72.567 8.50446 72.4951 8.68164L72.4873 8.69922L72.4199 8.86914C72.3038 9.20095 72.2261 9.6497 72.1953 10.1426L72.2129 10.1191Z" fill="#E0DFE6" stroke="#E0DFE6"/>
<path d="M72.5042 7.75879H68.5693V13.5075H72.5042V7.75879Z" fill="#E0DFE6" stroke="#E0DFE6"/>
</g>
<path d="M3.11486 1.97523C2.44332 2.35848 2.35938 3.16755 2.35938 8.83107C2.35938 14.6223 2.44332 15.3888 3.24078 16.7089C5.7171 20.7543 12.5585 20.7543 14.9509 16.7089C15.7063 15.5166 15.7903 14.5372 15.7903 8.87365C15.7903 2.82689 15.7483 2.35848 14.9509 1.93265C14.3633 1.59199 13.8596 1.59199 13.272 1.93265C12.4745 2.35848 12.4326 2.82689 12.4326 8.32008C12.4326 13.2597 12.3066 14.3243 11.719 14.9204C9.99821 16.7089 7.60582 16.5386 6.34668 14.5372C5.75907 13.6855 5.67513 12.4932 5.75907 8.06458C5.88499 3.21013 5.80105 2.61398 5.08753 2.10298C4.16415 1.42166 4.03824 1.37907 3.11486 1.97523Z" fill="#525D7D"/>
<path d="M20.7428 1.97518C20.0712 2.35843 19.9873 3.25266 19.9873 10.5769C19.9873 19.2212 20.1132 19.8174 21.876 19.8174C23.6388 19.8174 23.7647 19.1786 23.7647 10.8324C23.7647 4.1469 23.6388 2.74167 23.0932 2.1881C22.3377 1.4216 21.7501 1.33644 20.7428 1.97518Z" fill="#525D7D"/>
<path d="M35.4754 1.93257C35.0976 2.14549 33.3348 5.89278 31.5301 10.2788C28.0464 18.6676 27.9205 19.4767 30.145 19.7322C31.4461 19.9025 31.7399 19.5193 33.3348 15.5591C34.0484 13.8132 35.4754 10.3214 36.5247 7.76642C38.4134 3.21006 38.4134 3.16747 37.6159 2.3584C36.6926 1.42158 36.4407 1.379 35.4754 1.93257Z" fill="#525D7D"/>
<path d="M43.1557 2.18806C42.2743 2.78422 42.2324 3.12488 42.2743 8.44773C42.2743 14.9629 42.6941 16.4959 44.8346 18.2418C47.6887 20.5838 51.7599 20.2432 54.4461 17.4327L55.8731 15.9423L55.9991 9.25681C56.125 3.29521 56.083 2.52872 55.4115 2.06031C54.4461 1.3364 53.7746 1.37899 52.9771 2.18806C52.4315 2.69905 52.3056 3.93396 52.3056 8.70323C52.3056 13.7706 52.2216 14.6648 51.592 15.261C50.2909 16.4107 48.0664 16.3681 46.8492 15.1332C46.0938 14.3667 46.0098 13.728 46.0098 8.31999C46.0098 2.91197 45.9259 2.35839 45.2124 1.93256C44.1631 1.37899 44.289 1.37899 43.1557 2.18806Z" fill="#525D7D"/>
<path d="M109.681 2.18823C109.219 2.65664 109.345 4.27478 109.891 4.82836C110.226 5.16902 112.577 5.33936 117.613 5.33936C125.378 5.33936 125.966 5.16902 125.672 3.12505C125.546 2.14564 125.546 2.14564 117.739 2.01789C113.458 1.97531 109.849 2.06048 109.681 2.18823ZM122.944 2.9973C123.028 3.46571 113.458 3.84896 112.409 3.42313C112.115 3.33796 111.989 2.9973 112.115 2.78439C112.493 2.18823 122.776 2.40114 122.944 2.9973Z" fill="#525D7D"/>
<path d="M110.142 9.21433C109.261 9.72532 109.135 11.3009 109.891 12.0674C110.226 12.408 112.535 12.5784 117.571 12.5784C125.084 12.5784 125.756 12.408 125.756 10.6621C125.756 8.91625 125.084 8.74591 117.781 8.74591C113.878 8.74591 110.52 8.95883 110.142 9.21433Z" fill="#525D7D"/>
<path d="M110.142 16.4533C109.261 16.9643 109.135 18.5399 109.891 19.3064C110.226 19.6471 112.535 19.8174 117.571 19.8174C122.608 19.8174 124.916 19.6471 125.252 19.3064C126.008 18.5399 125.84 16.9218 124.958 16.4108C123.867 15.8572 111.108 15.8572 110.142 16.4533Z" fill="#525D7D"/>
<path d="M2.52772 28.9728C2.35984 29.3135 2.40181 30.08 2.52772 30.6762L2.77955 31.7407L64.184 31.6556L125.546 31.5278V30.0374V28.547L64.142 28.4193C9.78881 28.3341 2.73758 28.4193 2.52772 28.9728Z" fill="#525D7D"/>
<path d="M5.67513 41.2367C4.91964 41.7477 3.82838 42.8549 3.28275 43.664C2.40135 45.0266 2.35938 45.4524 2.44332 50.8179C2.56923 56.2685 2.6112 56.5666 3.49261 56.9072C4.03824 57.1201 4.66781 57.035 5.1295 56.6943C5.75907 56.1833 5.88499 55.4168 5.88499 50.9882C5.92696 43.4085 4.20613 44.0898 23.1773 44.0898H38.8327L39.6721 45.1969C40.5116 46.3041 40.5535 46.7725 40.5535 63.976V81.6053L39.5042 82.6272L38.4969 83.6918H23.3452C14.1114 83.6918 7.85765 83.5215 7.39597 83.266C5.96893 82.4995 5.67513 80.2852 5.75907 71.5983C5.84302 62.954 5.67513 61.9746 4.08021 61.9746C2.48529 61.9746 2.35938 62.6985 2.35938 72.7054C2.35938 83.5641 2.44332 84.0325 5.17147 86.119L6.68245 87.3114L22.0441 87.4391C30.4803 87.5243 38.0352 87.4391 38.7907 87.3114C39.5462 87.1836 40.9313 86.3745 41.8127 85.5655C44.289 83.266 44.4149 82.244 44.247 62.4004L44.1211 45.1544L43.1138 43.5362C42.6101 42.642 41.4349 41.5774 40.5116 41.109C39.0006 40.2999 37.9933 40.2573 23.0094 40.2573C7.14414 40.2573 7.10216 40.2573 5.67513 41.2367Z" fill="#525D7D"/>
<path d="M55.873 40.8535C54.2781 41.5774 53.3547 42.5994 52.5153 44.6433C51.9697 46.006 51.8857 51.0308 51.8857 84.8415C51.8857 122.059 51.9277 123.592 52.7252 125.295C53.6066 127.339 55.6632 128.83 57.5099 128.83C58.6851 128.83 58.7271 128.83 57.9716 127.978C57.2161 127.126 57.2581 127.126 88.7788 127.126C120.215 127.126 120.341 127.126 119.88 127.978C119.46 128.744 119.544 128.83 120.677 128.83C122.104 128.83 124.203 127.211 125.126 125.38C125.672 124.358 125.756 118.525 125.756 84.6286V45.0692L124.79 43.6214C124.287 42.8549 123.195 41.7477 122.44 41.2367L121.013 40.2573H89.0726C63.5119 40.2999 56.8804 40.3851 55.873 40.8535ZM121.391 44.984C122.146 45.8357 122.188 47.1131 122.188 84.8415V123.805L121.181 124.614C120.257 125.38 119.082 125.423 88.7788 125.423C57.8877 125.423 57.342 125.423 56.5026 124.571C55.6632 123.72 55.6632 123.166 55.6632 84.7564C55.6632 46.3466 55.6632 45.7931 56.5026 44.9414C57.342 44.0898 57.8877 44.0898 88.9467 44.0898C120.593 44.0898 120.593 44.0898 121.391 44.984Z" fill="#525D7D"/>
<path d="M83.2803 54.6929C77.2784 56.6942 73.0812 60.7396 70.7308 66.7438C69.6815 69.5117 70.1013 71.0447 71.906 70.8317C73.0812 70.704 73.1652 70.6188 74.7181 66.9993C76.0612 63.8056 78.5795 61.1229 81.7694 59.377C83.9939 58.1846 84.9592 57.9291 87.8972 57.8014C92.1363 57.5459 94.4448 58.1846 97.6346 60.3564C100.237 62.1023 102.629 65.2108 103.762 68.3619C104.77 71.1724 104.644 76.0694 103.511 79.1354C102.293 82.3717 98.7679 86.2467 95.62 87.8223C93.4794 88.8869 92.7659 89.0146 89.0304 89.0146C85.3789 89.0146 84.5395 88.8869 82.4409 87.8649C79.0412 86.2467 76.4809 83.6918 74.928 80.3277C74.2145 78.7947 73.501 77.2192 73.3331 76.8785C73.1232 76.5378 72.4936 76.1972 71.906 76.112C68.4644 75.6862 70.3111 81.9459 75.1379 87.0132C84.5395 96.935 100.489 94.2523 106.323 81.733C107.666 78.8799 107.876 78.0282 108.044 74.4087C108.169 70.9595 108.086 69.8523 107.288 67.5529C105.441 61.9745 102.168 58.2698 96.8791 55.6723C94.109 54.3522 93.3535 54.1393 89.744 54.0115C86.5961 53.9264 85.1271 54.0541 83.2803 54.6929Z" fill="#525D7D"/>
<path d="M69.9341 101.406C68.0453 102.258 67.08 103.152 66.1147 105.068C64.3518 108.603 65.653 113.074 69.0107 115.118L70.9834 116.268H89.0731H107.121L108.884 115.118C110.982 113.713 111.864 112.435 112.367 110.093C113.123 106.644 111.276 103.067 107.918 101.534C106.365 100.81 104.812 100.725 88.8213 100.767C74.2571 100.767 71.1512 100.853 69.9341 101.406ZM107.415 105.409C108.758 106.474 109.219 108.475 108.548 110.136C107.499 112.605 107.289 112.648 88.6534 112.648H71.6129L70.3958 111.456C68.549 109.752 68.507 107.41 70.1859 105.664L71.3191 104.557H88.8213C105.736 104.557 106.365 104.6 107.415 105.409Z" fill="#525D7D"/>
<path d="M11.5933 53.0322C10.8378 54.48 11.7612 55.5872 13.6919 55.5872C15.6225 55.5872 16.5459 54.48 15.7904 53.0322C15.4547 52.3934 14.909 52.1805 13.6919 52.1805C12.4747 52.1805 11.929 52.3934 11.5933 53.0322Z" fill="#525D7D"/>
<path d="M21.7507 52.6914C21.4989 52.9469 21.2471 53.543 21.2471 53.9263C21.2471 55.4167 22.2544 55.6296 28.3822 55.5018C33.5447 55.3741 34.4262 55.2889 34.8459 54.6076C35.1816 54.0966 35.1816 53.6708 34.8459 53.1172C34.4262 52.4785 33.5447 52.3933 28.3403 52.2655C23.9752 52.1804 22.1285 52.3081 21.7507 52.6914Z" fill="#525D7D"/>
<path d="M11.8454 62.6557C11.006 63.4648 11.006 63.6777 11.8454 64.87C12.6429 66.0623 14.5735 66.1049 15.5809 64.9552C16.2104 64.2313 16.2524 63.9332 15.8747 63.0389C15.4969 62.1873 15.0772 61.9744 13.944 61.9744C13.1465 61.9744 12.1812 62.2724 11.8454 62.6557Z" fill="#525D7D"/>
<path d="M21.6659 62.7835C21.0783 63.9332 21.1203 64.3591 21.9178 65.1256C22.4214 65.6791 23.6386 65.8069 28.1715 65.8069C34.0476 65.8069 35.0969 65.5088 35.0969 63.7203C35.0969 62.1873 34.2574 61.9744 28.0876 61.9744C22.6313 61.9744 22.0857 62.0596 21.6659 62.7835Z" fill="#525D7D"/>
<path d="M12.5162 72.0667C11.5928 72.4499 11.0891 73.8126 11.5928 74.7494C11.9286 75.3882 12.4742 75.6011 13.7333 75.6011C15.1184 75.6011 15.4542 75.4307 15.8739 74.4939C16.3356 73.5145 16.2936 73.259 15.4122 72.5777C14.4469 71.7686 13.5655 71.6409 12.5162 72.0667Z" fill="#525D7D"/>
<path d="M21.9601 72.5349C21.1206 73.4717 21.0367 74.366 21.7502 75.0899C22.4637 75.8138 33.88 75.8138 34.5935 75.0899C35.307 74.366 35.2231 73.3014 34.3417 72.4923C33.7121 71.8962 32.5789 71.7684 28.0879 71.7684C23.3451 71.7684 22.5477 71.8536 21.9601 72.5349Z" fill="#525D7D"/>
<path d="M6.85044 97.0627C4.8358 97.8292 3.6606 98.8512 2.94708 100.597C2.06568 102.641 2.10765 123.72 2.98905 125.38C3.91243 127.211 6.01101 128.83 7.43804 128.83C8.57128 128.83 8.65522 128.744 8.2355 127.978C7.77382 127.126 7.89973 127.126 23.3872 127.126H39.0007L38.0773 128.148L37.1539 129.17L38.7489 128.83C40.8894 128.446 42.1066 127.637 43.1978 125.849C44.0792 124.443 44.1212 123.805 44.2471 114.096C44.415 102.811 44.2052 101.151 42.2325 98.8938C40.4277 96.8072 38.7489 96.4666 29.9768 96.4666C22.7577 96.4666 22.1701 96.5091 21.4566 97.3182C20.827 98.0421 20.785 98.3402 21.1628 99.2344L21.6664 100.299H30.0607C38.4551 100.299 38.497 100.299 39.5043 101.364L40.5536 102.386V112.776C40.5536 122.655 40.5117 123.251 39.6722 124.316L38.8328 125.423H23.3453C8.78113 125.423 7.85776 125.38 6.93438 124.614C5.92707 123.805 5.92707 123.677 5.80115 114.309C5.59129 100.384 5.50735 100.597 11.1735 100.299C14.5732 100.129 15.1188 99.9583 15.6645 99.1493C16.2101 98.3402 16.1681 98.1273 15.4126 97.3608C14.6572 96.5943 14.0276 96.4666 11.5093 96.4666C9.83042 96.5091 7.73184 96.7646 6.85044 97.0627Z" fill="#525D7D"/>
<path d="M14.0272 111.413C13.1458 111.924 13.0199 113.5 13.7754 114.266C14.1531 114.649 16.8393 114.777 23.177 114.777C30.7319 114.777 32.2009 114.692 32.7465 114.096C33.586 113.287 33.586 113.074 32.7465 111.881C32.117 110.945 31.9491 110.945 23.4288 110.945C18.3083 110.945 14.4469 111.158 14.0272 111.413Z" fill="#525D7D"/>
<path d="M59.7766 1.97537C58.5594 2.65669 58.8952 3.8916 61.1197 7.00014C62.2949 8.61829 63.2183 10.0235 63.2183 10.1939C63.2183 10.3216 62.085 12.0249 60.7 13.9837C58.0558 17.731 57.8039 18.5401 58.7693 19.3917C60.0284 20.4137 61.2876 19.6898 63.3022 16.709C64.3515 15.0909 65.3588 13.7708 65.4847 13.7282C65.6106 13.6856 66.6599 15.0483 67.8771 16.7516C69.6819 19.3917 70.1856 19.8602 71.1089 19.7324C71.6965 19.6472 72.3681 19.264 72.6199 18.8382C73.1655 17.9865 72.9976 17.6458 69.8078 13.0469L67.7932 10.0661L69.8918 7.12789C72.2002 3.8916 72.494 2.65669 71.1509 1.93279C69.9757 1.25146 68.7585 2.1457 66.9957 4.871L65.6526 7.04273L63.9318 4.6155C61.6233 1.33663 61.2456 1.08113 59.7766 1.97537ZM65.5267 7.97955C65.7785 7.97955 66.3242 7.8518 66.7439 7.63888C67.4574 7.38339 67.4994 7.42597 67.2056 8.14988C66.7439 9.17187 66.7439 11.2584 67.1636 12.2804C67.4994 12.9617 67.4154 12.9617 66.4081 12.5359C65.5687 12.1101 65.1909 12.1101 64.8132 12.4933C63.8898 13.4301 63.68 13.0469 64.2676 11.6417C64.7292 10.4494 64.7292 10.0235 64.2256 8.8312C63.68 7.46855 63.68 7.38339 64.3935 7.68147C64.7712 7.8518 65.3168 7.97955 65.5267 7.97955Z" fill="#525D7D"/>
<path d="M67.678 7.41528H63.7432V13.164H67.678V7.41528Z" fill="#525D7D" stroke="#525D7D"/>
</g>
<defs>
<filter id="filter0_f_3045_4436" x="5.13281" y="-0.125488" width="127.449" height="131.639" filterUnits="userSpaceOnUse" color-interpolation-filters="sRGB">
<feFlood flood-opacity="0" result="BackgroundImageFix"/>
<feBlend mode="normal" in="SourceGraphic" in2="BackgroundImageFix" result="shape"/>
<feGaussianBlur stdDeviation="1" result="effect1_foregroundBlur_3045_4436"/>
</filter>
<clipPath id="clip0_3045_4436">
<rect width="129.85" height="131.741" fill="white" transform="translate(0.575195 0.253418)"/>
</clipPath>
</defs>
</svg>
