<svg width="214" height="170" viewBox="0 0 214 170" fill="none" xmlns="http://www.w3.org/2000/svg">
<path d="M181.587 8.12712C180.217 5.75112 176.065 6.04912 175.473 8.92612C175.242 10.0501 175.052 11.1891 174.887 12.3371C173.338 11.1261 170.634 11.7611 170.508 14.3601C170.095 22.8601 167.425 29.5341 163.421 36.3761C157.17 36.5671 150.838 38.0151 145.021 40.1891C143.346 40.8151 139.024 43.8511 137.352 43.9171C137.899 43.5811 133.411 40.1221 133.008 39.8341C131.811 38.9791 130.423 40.3861 130.695 41.6121C131.177 43.7831 132.6 46.5741 132.772 48.7531C133.001 51.6451 134.852 53.3101 137.672 53.6531C137.856 53.6751 138.044 53.6651 138.229 53.6751C134.161 55.6161 130.408 58.1821 127.091 61.2161C127.91 59.9961 128.517 58.6781 128.546 57.1151C128.634 52.2731 124.362 42.6791 120.235 39.9671C113.748 35.7031 110.032 40.3581 108.063 46.8541C100.135 52.8781 97.5281 69.3181 95.9901 76.9951C94.3011 85.4231 88.3791 111.629 101.985 113.795C105.997 114.434 108.863 112.772 110.406 109.014C110.484 108.823 110.563 108.632 110.641 108.442C112.371 104.23 109.674 101.351 106.217 100.572C107.626 100.003 106.607 95.1131 106.604 94.3931C106.592 91.8581 106.854 89.2851 107.071 86.7631C107.237 84.8361 107.423 82.9101 107.622 80.9851C109.372 82.5551 111.856 83.1161 114.106 82.5521C113.535 84.7921 113.149 87.0861 112.976 89.4221C111.338 95.5871 110.923 101.912 112.063 107.98C112.44 109.986 115.558 109.876 116.01 107.98C119.038 95.2731 122.574 83.4041 131.845 73.6971C140.812 64.3081 151.295 61.1801 163.147 57.1491C166.689 55.9441 167.08 51.6081 164.773 49.6031C165.085 49.5951 165.395 49.5881 165.708 49.5801C166.74 49.5531 167.642 49.3331 168.424 48.9801C168.98 54.6851 176.005 58.8911 181.058 53.8381C186.505 48.3901 186.582 39.0891 186.622 31.7951C186.665 23.7411 185.663 15.1971 181.587 8.12712ZM111.796 58.1171C112.517 55.9511 113.373 53.8211 114.455 51.7001C114.641 52.6341 114.784 53.5761 114.896 54.4811C113.773 55.6161 112.729 56.8221 111.796 58.1171Z" fill="#EFEFEF" fill-opacity="0.2"/>
<path d="M207.506 91.6522C206.443 90.4052 205.16 89.7482 203.83 89.5382C203.028 87.4672 202.155 85.4262 201.211 83.4332C200.575 82.0902 198.2 82.7102 198.351 84.2082C198.407 84.7632 198.444 85.3232 198.491 85.8802C197.421 83.1162 196.002 80.4812 194.174 78.0712C193.067 76.6102 190.906 77.4482 191.225 79.3142C192.32 85.7342 192.517 91.6372 191.716 97.3032C191.133 97.5192 190.58 97.8062 190.103 98.2162C189.795 96.2652 188.414 94.6022 186.618 93.9242C189.164 89.4852 183.098 84.4382 178.627 88.0802C173.118 92.5672 168.395 98.3122 163.887 103.781C159.921 108.592 155.26 113.669 152.44 119.29C147.746 114.296 142.95 109.233 137.339 105.697C136.056 104.888 134.149 106.244 134.679 107.742C137.996 117.111 145.712 125.231 151.939 132.829C153.696 134.972 157.014 134.414 158.849 132.829C168.86 124.177 179.355 113.935 187.908 103.728C185.756 116.106 180.587 127.284 168.565 133.133C162.494 136.087 155.529 136.905 148.859 136.391C141.58 135.829 135.987 132.482 129.137 130.757C127.487 130.341 126.471 132.015 127.093 133.417C127.574 134.502 128.217 135.525 128.962 136.498C128.352 136.267 127.745 136.032 127.142 135.791C126.89 135.69 126.633 135.704 126.392 135.778C125.407 135.315 124.256 135.106 122.99 135.314C120.354 135.747 117.782 136.852 115.36 138.394C111.503 138.086 107.47 139.064 103.563 138.924C102.747 138.895 101.932 138.835 101.117 138.765C99.2289 136.964 96.2659 136.879 93.8969 138.091C92.3319 128.551 90.7399 119.043 90.4659 109.196C90.0429 93.9772 91.2669 78.8972 92.8789 63.7812C93.1339 61.3932 89.7629 61.3792 89.0139 63.2582C83.1839 77.8612 80.2449 93.5232 79.4369 109.196C78.8479 120.613 78.7089 133.581 80.8109 145.475C63.0429 148.727 43.8399 147.673 27.3209 155.791C25.5239 156.674 26.5459 159.21 28.2739 159.311C29.6109 159.39 30.9509 159.427 32.2919 159.44C30.8089 160.001 29.4549 160.827 28.3599 162.177C26.8049 164.094 28.6939 166.65 30.9829 165.577C35.3459 163.531 44.1239 165.779 48.8059 166.112C54.9559 166.549 61.1069 166.885 67.2599 167.268C79.5119 168.03 91.8729 169.234 104.144 169.392C109.783 169.465 111.432 163.929 109.405 160.141C110.464 158.744 111.522 157.346 112.58 155.949C113.652 154.534 114.841 153.136 115.882 151.661C119.303 148.787 123.157 147.304 127.021 144.883C128.231 144.125 128.954 143.157 129.31 142.134C138.302 150.516 152.312 154.799 165.573 154.09C168.018 154.851 170.515 155.273 173.018 155.386C174.273 155.979 175.733 156.223 177.312 155.908C178.878 155.595 180.398 155.131 181.875 154.551C191.229 152.381 199.811 146.325 204.92 138.323C212.939 125.76 218.053 104.027 207.506 91.6522Z" fill="#EFEFEF" fill-opacity="0.2"/>
<path d="M5.684 163.037C4.603 163.037 3.682 162.233 3.543 161.152C1.126 142.242 0 127.011 0 113.219C0 35.5551 19.519 35.0801 71.682 33.8101L75.743 33.7101C97.577 33.1551 111.11 34.0611 117.533 34.6951C118.943 34.5631 120.358 34.6991 121.626 35.1751C121.82 35.2031 121.939 35.2221 121.983 35.2291C122.547 35.3201 123.025 35.6221 123.349 36.0421C129.015 39.6451 132.321 49.5621 134.182 58.1581C134.435 59.3231 133.694 60.4721 132.529 60.7251C131.361 60.9831 130.214 60.2371 129.962 59.0721C127.608 48.2001 124.143 41.1111 120.449 39.3761C119.826 39.2961 118.862 39.1801 117.543 39.0471C104.175 41.0651 92.689 78.3821 92.689 120.759C92.689 131.979 93.343 143.89 94.748 158.242C94.807 158.843 94.61 159.441 94.208 159.892C93.806 160.342 93.233 160.603 92.629 160.612C63.012 161.03 33.476 162.039 5.762 163.037C5.738 163.037 5.711 163.037 5.684 163.037ZM88.613 37.8601C84.724 37.8601 80.474 37.9101 75.853 38.0271L71.788 38.1271C19.96 39.3881 4.318 39.7691 4.318 113.219C4.318 126.347 5.357 140.827 7.58 158.65C34.012 157.701 62.054 156.754 90.226 156.327C88.962 142.864 88.371 131.506 88.371 120.758C88.371 99.9871 91.22 78.8731 96.189 62.8301C99.835 51.0591 104.322 42.8291 109.434 38.4161C104.262 38.1111 97.352 37.8601 88.613 37.8601Z" fill="white"/>
<path d="M158.187 148.481C131.48 148.481 108.918 124.397 108.918 95.8881C108.918 73.8271 125.902 53.9351 148.425 49.6181C151.595 49.0101 154.836 48.7021 158.061 48.7021C184.524 48.7021 203.73 67.8861 203.73 94.3171C203.73 127.22 185.853 148.481 158.187 148.481ZM149.238 53.8591C128.714 57.7931 113.237 75.8621 113.237 95.8881C113.237 121.604 134.241 144.162 158.188 144.162C183.231 144.162 199.412 124.596 199.412 94.3171C199.412 67.2051 178.61 53.0201 158.061 53.0201C155.109 53.0201 152.14 53.3021 149.238 53.8591Z" fill="white"/>
<path d="M154.239 126.974C153.621 126.968 153.051 126.715 152.646 126.273C150.316 123.727 147.958 121.206 145.602 118.683C139.367 112.01 132.92 105.109 127.007 97.8191C126.341 96.9981 126.367 95.8162 127.069 95.0252C131.124 90.4592 135.858 86.3982 140.036 82.8152C140.871 82.0992 142.115 82.1252 142.917 82.8792C145.844 85.6212 148.389 88.7702 150.852 91.8172C152.016 93.2552 153.206 94.7292 154.428 96.1442C161.8 89.6932 168.685 84.0342 175.427 78.8872C176.363 78.1692 177.697 78.3392 178.43 79.2622C180.607 82.0112 183.105 84.5312 185.52 86.9682C186.387 87.8422 187.25 88.7142 188.098 89.5932C188.496 90.0062 188.714 90.5602 188.702 91.1342C188.691 91.7072 188.452 92.2532 188.037 92.6502C180.321 100.051 172.734 108.196 165.395 116.073C162.206 119.498 159.015 122.923 155.803 126.301C155.396 126.732 154.831 126.974 154.239 126.974ZM131.538 96.5372C137.035 103.188 142.988 109.56 148.758 115.736C150.597 117.704 152.435 119.672 154.262 121.651C156.929 118.829 159.581 115.98 162.235 113.131C169.12 105.741 176.223 98.1162 183.481 91.0492C183.139 90.7022 182.795 90.3552 182.452 90.0092C180.429 87.9682 178.35 85.8722 176.398 83.5872C169.771 88.7132 162.97 94.3611 155.668 100.804C154.785 101.579 153.441 101.511 152.649 100.643C150.841 98.6722 149.141 96.5672 147.495 94.5322C145.447 91.9982 143.492 89.5792 141.347 87.3842C138.106 90.1742 134.637 93.2372 131.538 96.5372Z" fill="white"/>
<path d="M94.438 118.209C93.34 118.209 92.401 117.375 92.292 116.259C92.177 115.073 93.045 114.016 94.232 113.901C98.217 113.512 102.376 113.339 107.719 113.339C110.11 113.339 112.494 113.373 114.884 113.407L115.039 113.409C116.231 113.426 117.184 114.406 117.167 115.599C117.15 116.78 116.187 117.727 115.008 117.727C114.977 117.727 114.822 117.725 114.822 117.725C112.454 117.691 110.089 117.657 107.719 117.657C102.521 117.657 98.491 117.824 94.651 118.198C94.578 118.206 94.508 118.209 94.438 118.209Z" fill="white"/>
<path d="M170.438 46.5751C170.067 46.5761 169.69 46.4791 169.347 46.2781C168.318 45.6751 167.974 44.3521 168.577 43.3231C174.006 34.0671 174.738 23.3121 174.738 14.0121C174.738 10.8511 174.647 7.61513 174.558 4.48513C147.105 5.95913 127.16 6.51013 101.767 6.51013C96.257 6.51013 90.609 6.48313 84.947 6.43013C85.03 9.08013 85.071 11.5201 85.071 13.8371C85.071 22.2741 84.504 29.5581 83.341 36.1051C83.133 37.2791 82.013 38.0631 80.837 37.8531C79.663 37.6441 78.88 36.5231 79.09 35.3491C80.209 29.0551 80.753 22.0181 80.753 13.8371C80.753 10.9321 80.687 7.82313 80.552 4.33213C80.53 3.74113 80.75 3.16713 81.162 2.74313C81.574 2.32013 82.142 2.08713 82.732 2.08913C89.135 2.15713 95.539 2.19213 101.767 2.19213C127.752 2.19213 148.017 1.61313 176.536 0.0551314C177.108 0.0161314 177.689 0.227131 178.117 0.623131C178.546 1.01813 178.796 1.57013 178.811 2.15213L178.873 4.34313C178.963 7.51013 179.056 10.7841 179.056 14.0141C179.056 23.8941 178.253 35.3611 172.302 45.5091C171.899 46.1941 171.178 46.5751 170.438 46.5751Z" fill="white"/>
<path d="M43.9368 53.2042C42.7448 53.2042 41.7778 52.2382 41.7778 51.0452C41.7778 49.8522 42.7448 48.8862 43.9368 48.8862C58.8298 48.8862 74.2298 48.8862 89.0798 48.2962C90.3228 48.2892 91.2758 49.1782 91.3228 50.3682C91.3688 51.5592 90.4428 52.5642 89.2508 52.6112C74.3168 53.2042 58.8718 53.2042 43.9368 53.2042Z" fill="white"/>
<path d="M37.1859 68.7182C34.7429 68.7182 32.3489 68.6782 30.0719 68.5992C28.8799 68.5582 27.9479 67.5582 27.9889 66.3672C28.0309 65.1752 29.0639 64.2682 30.2209 64.2842C32.4489 64.3612 34.7919 64.4002 37.1859 64.4002C48.6799 64.4002 60.5119 63.5072 71.9559 62.6452C75.2679 62.3952 78.5669 62.1462 81.8459 61.9192C83.0309 61.8422 84.0669 62.7342 84.1479 63.9242C84.2309 65.1132 83.3328 66.1442 82.1438 66.2272C78.8748 66.4532 75.5839 66.7012 72.2808 66.9502C60.7569 67.8202 48.8419 68.7182 37.1859 68.7182Z" fill="white"/>
<path d="M35.8859 82.3761C33.0309 82.3761 30.1449 82.3231 27.3089 82.2181C26.1169 82.1741 25.1879 81.1721 25.2309 79.9801C25.2759 78.7891 26.2259 77.8761 27.4689 77.9031C42.4349 78.4591 57.6539 77.5341 74.5159 75.0371C75.6869 74.8651 76.7919 75.6771 76.9679 76.8571C77.1439 78.0361 76.3279 79.1341 75.1489 79.3091C61.2109 81.3731 48.3679 82.3761 35.8859 82.3761Z" fill="white"/>
<path d="M30.1279 136.915C26.1709 136.915 22.4179 136.327 19.9669 135.835C18.7989 135.6 18.0409 134.462 18.2759 133.292C18.5119 132.123 19.6579 131.37 20.8189 131.601C23.0779 132.056 26.5259 132.597 30.1289 132.597C34.7729 132.597 42.5629 131.614 42.5629 125.026C42.5629 122.154 38.6019 120.861 35.7889 120.861C34.5029 120.861 32.9789 121.247 31.3669 121.656C29.2659 122.189 26.8839 122.792 24.2089 122.792C18.7969 122.792 15.8159 119.721 15.8159 114.145C15.8159 104.926 25.2859 100.727 34.0839 100.727C35.7309 100.727 37.3039 100.875 38.7589 101.168C39.9279 101.403 40.6849 102.542 40.4499 103.711C40.2139 104.881 39.0669 105.632 37.9069 105.402C36.7329 105.165 35.4459 105.046 34.0839 105.046C29.2599 105.046 20.1339 106.948 20.1339 114.146C20.1339 117.342 21.2009 118.475 24.2089 118.475C26.3439 118.475 28.3589 117.965 30.3069 117.471C32.1879 116.995 33.9629 116.544 35.7889 116.544C41.1649 116.544 46.8809 119.517 46.8809 125.027C46.8809 132.47 40.6189 136.915 30.1279 136.915Z" fill="white"/>
<path d="M27.4409 105.947C26.3519 105.947 25.4149 105.125 25.2969 104.017C24.9949 101.185 24.9949 98.3701 24.9949 95.6481C24.9949 94.4551 25.9619 93.4891 27.1539 93.4891C28.3459 93.4891 29.3129 94.4551 29.3129 95.6481C29.3129 98.2581 29.3129 100.956 29.5899 103.559C29.7169 104.745 28.8579 105.809 27.6729 105.935C27.5939 105.943 27.5179 105.947 27.4409 105.947Z" fill="white"/>
<path d="M34.774 145.268C33.793 145.268 32.905 144.595 32.673 143.598C32.015 140.775 31.335 137.855 30.937 134.908C30.777 133.727 31.606 132.639 32.787 132.48C33.968 132.326 35.057 133.148 35.216 134.33C35.587 137.074 36.244 139.893 36.879 142.618C37.149 143.779 36.428 144.94 35.267 145.211C35.1 145.249 34.936 145.268 34.774 145.268Z" fill="white"/>
<path d="M62.978 118.128C61.106 118.128 59.235 118.093 57.379 118.058C55.583 118.024 53.802 117.991 52.053 117.991C50.861 117.991 49.894 117.025 49.894 115.832C49.894 114.639 50.861 113.673 52.053 113.673C53.828 113.673 55.636 113.707 57.459 113.74C59.288 113.775 61.133 113.809 62.978 113.809C67.345 113.809 70.613 113.607 73.575 113.152C74.749 112.965 75.856 113.778 76.036 114.958C76.217 116.137 75.409 117.239 74.23 117.419C71.044 117.91 67.575 118.128 62.978 118.128Z" fill="white"/>
<path d="M54.5928 127.265C53.4008 127.265 52.4338 126.299 52.4338 125.106C52.4338 123.913 53.4008 122.947 54.5928 122.947C61.2938 122.947 68.2008 122.391 74.5668 121.339C75.7308 121.14 76.8538 121.941 77.0478 123.117C77.2428 124.294 76.4458 125.405 75.2698 125.599C68.6768 126.689 61.5258 127.265 54.5928 127.265Z" fill="white"/>
</svg>
