<svg width="189" height="192" viewBox="0 0 189 192" fill="none" xmlns="http://www.w3.org/2000/svg">
<g clip-path="url(#clip0_2111_3292)">
<g filter="url(#filter0_f_2111_3292)">
<path d="M10.9927 3.67389L10.9812 3.68131L10.9693 3.68809C10.8046 3.7821 10.6905 3.88692 10.59 4.10136C10.4766 4.34326 10.3767 4.73444 10.3021 5.41561C10.1531 6.77665 10.1218 9.09981 10.1218 13.2327C10.1218 17.4576 10.1531 19.812 10.3249 21.3509C10.4921 22.8479 10.7878 23.5383 11.332 24.4393C13.0233 27.2011 16.2294 28.6152 19.4727 28.6152C22.7169 28.6152 25.8887 27.2009 27.5187 24.4446L27.5226 24.438L27.5267 24.4315C28.0291 23.6387 28.3138 22.9249 28.4751 21.3853C28.6398 19.8132 28.6709 17.4253 28.6709 13.2947C28.6709 8.87696 28.6547 6.54499 28.4988 5.23429C28.421 4.58019 28.3142 4.24496 28.1982 4.04684C28.096 3.87227 27.9665 3.76794 27.7136 3.63291L27.7059 3.6288L27.6983 3.62441C27.3249 3.40795 27.014 3.31997 26.7273 3.31997C26.4406 3.31997 26.1296 3.40795 25.7562 3.62441L25.7487 3.6288L25.741 3.63291C25.4863 3.7689 25.3536 3.87553 25.2513 4.04268C25.1375 4.22854 25.0323 4.53819 24.9552 5.13827C24.8 6.34536 24.7836 8.47301 24.7836 12.4889C24.7836 16.0781 24.7384 18.291 24.5821 19.7176C24.4258 21.1455 24.1496 21.8893 23.6034 22.4447C22.2649 23.8347 20.6297 24.4971 19.0477 24.3844C17.4635 24.2714 16.0002 23.3852 15.0078 21.8132C14.515 21.0951 14.2586 20.2549 14.1332 18.8236C14.0083 17.3979 14.0093 15.3255 14.0703 12.1076L14.0704 12.1041C14.1623 8.55755 14.1754 6.61498 14.0429 5.46488C13.9773 4.8953 13.8801 4.56547 13.7661 4.34706C13.6594 4.14264 13.5218 4.00399 13.3016 3.84628L13.3016 3.84632L13.2959 3.84211C12.9559 3.59128 12.7146 3.41841 12.5153 3.30289C12.32 3.18968 12.2034 3.15493 12.1166 3.14788C12.0352 3.14128 11.93 3.15496 11.7507 3.23445C11.563 3.31767 11.3288 3.4569 10.9927 3.67389Z" fill="#E0DFE6" stroke="#E0DFE6"/>
<path d="M36.6474 3.67603L36.6376 3.68226L36.6275 3.68803C36.478 3.77337 36.3644 3.87382 36.2588 4.13418C36.1392 4.4291 36.0368 4.91542 35.9614 5.76928C35.811 7.46972 35.78 10.4339 35.78 15.7738C35.78 22.0943 35.8286 25.3901 36.1822 27.1167C36.3578 27.9742 36.5875 28.3226 36.8133 28.4886C37.0479 28.6611 37.3885 28.7236 38.0291 28.7236C38.6661 28.7236 39.0095 28.6582 39.2456 28.4852C39.4729 28.3187 39.7014 27.9738 39.8765 27.1378C40.0501 26.3084 40.1526 25.091 40.2097 23.2982C40.2667 21.5119 40.2782 19.1836 40.2782 16.1457C40.2782 11.276 40.2321 8.35238 40.0889 6.5473C39.9427 4.70484 39.6989 4.17264 39.4447 3.91466C38.9252 3.38766 38.5396 3.17593 38.1772 3.13916C37.8097 3.10187 37.3473 3.23223 36.6474 3.67603Z" fill="#E0DFE6" stroke="#E0DFE6"/>
<path d="M52.5424 15.5302L52.5418 15.5317C51.2739 18.5848 50.3152 20.9395 49.6394 22.7625C48.9605 24.5937 48.5802 25.8546 48.451 26.7319C48.3205 27.6185 48.4669 27.9724 48.6509 28.1536C48.873 28.3724 49.3001 28.5086 50.1211 28.6029L50.1211 28.6028L50.1289 28.6038C50.5877 28.6639 50.8785 28.662 51.1123 28.5886C51.3286 28.5208 51.5531 28.3728 51.8279 28.0134C52.1101 27.6443 52.4218 27.0832 52.8144 26.2318C53.2048 25.3852 53.6627 24.2799 54.2431 22.8387L54.2431 22.8387L54.2441 22.8363C55.2826 20.2952 57.3599 15.2124 58.8873 11.4931L58.8879 11.4916C59.5761 9.8316 60.0887 8.59082 60.4544 7.64121C60.8223 6.6859 61.0297 6.05421 61.1199 5.60378C61.2082 5.16307 61.1721 4.95225 61.1082 4.80598C61.0319 4.63154 60.888 4.47286 60.5821 4.16251C60.2486 3.82415 59.9952 3.58687 59.7809 3.42534C59.5692 3.26565 59.4232 3.20152 59.3072 3.17881C59.0819 3.13469 58.7999 3.2097 58.0968 3.61085C58.0922 3.61577 58.0858 3.62283 58.0777 3.63247C58.0449 3.67106 57.9996 3.7316 57.9413 3.81879C57.8252 3.99245 57.6776 4.24137 57.5012 4.56323C57.1493 5.20509 56.6998 6.10511 56.1824 7.20145C55.1483 9.39227 53.8535 12.3438 52.5424 15.5302Z" fill="#E0DFE6" stroke="#E0DFE6"/>
<path d="M69.2928 3.97071L69.2929 3.97084L69.2824 3.97794C68.9748 4.18598 68.8014 4.33298 68.6733 4.53335C68.5431 4.7369 68.4313 5.04192 68.352 5.60868C68.1905 6.76333 68.1887 8.77624 68.2194 12.671H68.2194V12.6749C68.2194 17.4249 68.3746 20.2899 68.8978 22.2787C69.4073 24.2153 70.2666 25.3233 71.762 26.543L71.7631 26.5439C75.6989 29.7737 81.3303 29.3246 85.0743 25.4074L85.0746 25.407L87.0166 23.3788L87.1962 13.8431L87.1962 13.842C87.2881 9.49134 87.3174 7.07388 87.2053 5.65629C87.1493 4.9474 87.0605 4.53637 86.9512 4.27455C86.8529 4.03913 86.7336 3.91267 86.5548 3.78793L86.5477 3.78302L86.5409 3.77786C85.8757 3.27908 85.3974 3.1118 85.005 3.13332C84.6189 3.15449 84.195 3.36558 83.6537 3.91477L83.6467 3.92189L83.6394 3.92873C83.3874 4.16466 83.1527 4.62988 83.0084 6.0322C82.8664 7.41247 82.8201 9.57156 82.8201 13.0468C82.8201 16.7254 82.7902 18.9248 82.6416 20.313C82.4913 21.7182 82.2095 22.4017 81.6254 22.9549L81.6191 22.9608L81.6127 22.9665C79.5268 24.8097 75.9867 24.75 74.0222 22.7569C73.7229 22.4532 73.4667 22.138 73.268 21.6988C73.0729 21.2678 72.946 20.7459 72.8588 20.0424C72.6861 18.6487 72.6565 16.4121 72.6565 12.489C72.6565 8.53918 72.625 6.40789 72.4696 5.18403C72.3922 4.57448 72.2894 4.24376 72.1774 4.04051C72.0788 3.86162 71.9577 3.75267 71.7503 3.62774C71.6811 3.59117 71.6164 3.55689 71.5559 3.52478C71.2746 3.37563 71.0815 3.2732 70.9201 3.20465C70.7343 3.12571 70.6592 3.12329 70.6104 3.12975C70.5478 3.13804 70.4449 3.1729 70.221 3.31646C70.0563 3.42205 69.8629 3.56123 69.6038 3.74763C69.5094 3.81551 69.4064 3.88965 69.2928 3.97071Z" fill="#E0DFE6" stroke="#E0DFE6"/>
<path d="M188.612 4.99805L188.612 4.99806L188.611 4.99067C188.56 4.59219 188.531 4.51439 188.47 4.45336C188.394 4.37767 188.175 4.25172 187.457 4.15151C186.819 4.06243 185.893 4.00416 184.536 3.95832C184.755 4.00429 184.953 4.05733 185.112 4.12131C185.193 4.15413 185.284 4.19779 185.366 4.25792C185.441 4.31254 185.566 4.42262 185.617 4.60544L185.624 4.62884L185.628 4.65277C185.675 4.91328 185.53 5.09463 185.446 5.17214C185.362 5.24927 185.267 5.2968 185.199 5.326C185.057 5.3876 184.873 5.43637 184.679 5.47779C184.281 5.56267 183.72 5.64011 183.059 5.70984C181.731 5.8499 179.942 5.96474 178.108 6.03857C176.272 6.11243 174.382 6.14563 172.852 6.12122C172.087 6.10903 171.406 6.08239 170.864 6.03842C170.363 5.99782 169.914 5.93851 169.638 5.8336C169.279 5.72105 169.026 5.45678 168.9 5.1626C168.774 4.86929 168.755 4.49571 168.944 4.17655L168.948 4.16994L168.952 4.16345C169.034 4.03491 169.147 3.95914 169.223 3.91666C169.27 3.89068 169.319 3.86814 169.368 3.84837C168.352 3.8713 167.517 3.90137 166.92 3.93657C166.611 3.95477 166.373 3.97395 166.208 3.99334C166.175 3.99727 166.146 4.00105 166.121 4.0046C166.068 4.09455 166.014 4.23444 165.974 4.4348C165.92 4.71039 165.905 5.047 165.933 5.39895C165.96 5.75001 166.029 6.0993 166.132 6.39929C166.236 6.70004 166.362 6.91894 166.486 7.0481C166.489 7.04932 166.525 7.07352 166.625 7.10863C166.746 7.15105 166.92 7.19581 167.159 7.23983C167.635 7.32768 168.316 7.40361 169.225 7.4651C171.04 7.58789 173.715 7.6499 177.377 7.6499C180.204 7.6499 182.366 7.63435 184.017 7.56512C185.677 7.49552 186.78 7.37262 187.508 7.17205C188.228 6.97348 188.478 6.72762 188.587 6.48223C188.718 6.18769 188.72 5.75033 188.612 4.99805ZM184.814 4.40237C184.814 4.40234 184.813 4.40286 184.811 4.40399C184.813 4.40296 184.814 4.40241 184.814 4.40237Z" fill="#E0DFE6" stroke="#E0DFE6"/>
<path d="M166.784 14.2047L166.769 14.2144L166.754 14.2231C166.298 14.4873 165.985 15.0677 165.925 15.7699C165.866 16.4646 166.068 17.156 166.487 17.5857C166.489 17.5864 166.524 17.6107 166.624 17.6463C166.743 17.6885 166.915 17.7332 167.151 17.7771C167.621 17.8649 168.293 17.9407 169.195 18.0022C170.995 18.125 173.654 18.187 177.316 18.187C180.051 18.187 182.153 18.1715 183.772 18.1089C185.397 18.0462 186.503 17.9367 187.259 17.7587C188.015 17.5805 188.335 17.3528 188.494 17.1219C188.663 16.8774 188.729 16.5237 188.729 15.8979C188.729 15.2723 188.663 14.9162 188.496 14.6704C188.34 14.4398 188.029 14.2138 187.294 14.0364C186.559 13.8589 185.482 13.7496 183.9 13.6868C182.325 13.6243 180.28 13.6088 177.622 13.6088C174.789 13.6088 172.158 13.686 170.169 13.8092C169.174 13.8709 168.347 13.9437 167.738 14.0229C167.433 14.0627 167.192 14.103 167.015 14.1425C166.878 14.173 166.812 14.1967 166.789 14.2048C166.778 14.2087 166.777 14.209 166.784 14.2047Z" fill="#E0DFE6" stroke="#E0DFE6"/>
<path d="M166.766 24.7525C166.766 24.7525 166.766 24.7526 166.766 24.7526L166.766 24.7527L166.754 24.7597C166.298 25.0239 165.985 25.6043 165.925 26.3066C165.866 27.0012 166.068 27.6926 166.487 28.1224C166.489 28.123 166.524 28.1473 166.624 28.1829C166.743 28.2252 166.915 28.2698 167.151 28.3137C167.621 28.4015 168.293 28.4774 169.195 28.5389C170.995 28.6616 173.654 28.7236 177.316 28.7236C180.979 28.7236 183.638 28.6616 185.438 28.5389C186.34 28.4774 187.012 28.4015 187.482 28.3137C187.718 28.2698 187.89 28.2252 188.009 28.1829C188.109 28.1474 188.144 28.123 188.146 28.1224C188.559 27.6989 188.751 26.9989 188.678 26.2839C188.605 25.5691 188.282 24.976 187.833 24.7066C187.791 24.6881 187.684 24.6537 187.483 24.6141C187.278 24.5737 187.011 24.5346 186.687 24.4977C186.039 24.424 185.19 24.3619 184.201 24.3123C182.226 24.2131 179.721 24.1648 177.218 24.1686C174.715 24.1725 172.222 24.2286 170.27 24.3373C169.293 24.3918 168.46 24.459 167.831 24.5384C167.516 24.5781 167.261 24.6199 167.068 24.6627C166.972 24.6841 166.897 24.7044 166.842 24.7228C166.792 24.7396 166.77 24.7507 166.766 24.7525Z" fill="#E0DFE6" stroke="#E0DFE6"/>
<path d="M10.6477 42.771C10.4674 42.8022 10.3519 42.8316 10.282 42.8551C10.233 43.0125 10.1997 43.2796 10.2058 43.641C10.2128 44.0533 10.2692 44.5148 10.3542 44.9195L10.6282 46.0776L99.6078 45.9542L99.6081 45.9542L188.424 45.7693V44.0989V42.4285L99.5469 42.2436C99.5469 42.2436 99.5468 42.2436 99.5467 42.2436C59.9894 42.1817 37.6486 42.1817 25.1589 42.2979C18.9119 42.356 15.1385 42.4431 12.91 42.5654C11.7925 42.6267 11.0818 42.696 10.6477 42.771ZM10.2214 42.8788C10.2135 42.8826 10.2103 42.8847 10.2107 42.8848C10.211 42.8849 10.215 42.883 10.2214 42.8788Z" fill="#E0DFE6" stroke="#E0DFE6"/>
<path d="M14.7309 60.8121L14.7281 60.8141C13.6863 61.5187 12.1448 63.0805 11.383 64.2085C11.0675 64.6965 10.8456 65.0731 10.6805 65.4845C10.5166 65.893 10.401 66.3553 10.3247 67.0121C10.1691 68.35 10.1826 70.4163 10.2439 74.3358C10.3361 78.324 10.3975 80.3662 10.5881 81.4821C10.6825 82.0346 10.7978 82.2818 10.9064 82.4165C11.0078 82.5422 11.1446 82.6238 11.4515 82.7424L11.453 82.743C12.0845 82.9894 12.8153 82.8911 13.3478 82.5033C13.5232 82.3593 13.6525 82.2087 13.7599 81.9807C13.8753 81.7359 13.975 81.3817 14.0519 80.817C14.2068 79.6795 14.2535 77.8252 14.2535 74.5935L14.2535 74.5907C14.2586 73.6729 14.2459 72.8446 14.2342 72.0856C14.2284 71.7069 14.2229 71.3455 14.22 70.9987C14.2112 69.9695 14.2255 69.0702 14.3337 68.3005C14.4426 67.5272 14.6508 66.8482 15.0557 66.2785C15.4649 65.7029 16.0442 65.2815 16.8208 64.9715C18.3349 64.3669 20.7039 64.1492 24.3386 64.0701C26.7812 64.017 29.839 64.027 33.6549 64.0395C35.5512 64.0458 37.6347 64.0526 39.9229 64.0526H62.7098H62.9582L63.1083 64.2505L64.3301 65.862C64.6576 66.294 64.9312 66.6987 65.1314 67.4675C65.323 68.2031 65.4465 69.2664 65.5307 71.0211C65.6994 74.5383 65.7146 80.9849 65.7146 93.4975V119.157V119.368L65.5634 119.516L64.0435 120.996L62.5843 122.538L62.4363 122.695H62.2211H40.1673C33.4449 122.695 27.8044 122.633 23.7586 122.524C21.7364 122.47 20.1082 122.404 18.941 122.327C18.3581 122.289 17.8837 122.248 17.53 122.204C17.3536 122.182 17.2 122.159 17.0746 122.132C16.9669 122.11 16.8276 122.076 16.7142 122.014C15.4562 121.337 14.798 120.038 14.4415 117.475C14.0842 114.907 14.0092 110.902 14.0702 104.587C14.1315 98.274 14.0983 94.8286 13.7722 92.9558C13.6086 92.0166 13.3867 91.5813 13.1605 91.3662C12.9548 91.1707 12.6673 91.0844 12.1266 91.0844C11.5634 91.0844 11.2934 91.1557 11.1002 91.3392C10.8839 91.5446 10.6626 91.986 10.4973 93.0115C10.1694 95.0455 10.1218 98.8981 10.1218 106.204C10.1218 114.136 10.1552 118.19 10.6687 120.651C10.9203 121.857 11.2819 122.647 11.7959 123.313C12.3208 123.992 13.0232 124.569 14.0187 125.33L14.0187 125.33L14.0247 125.335L16.0895 126.964L38.2776 127.149L38.2785 127.149C44.4153 127.211 50.231 127.211 54.6491 127.172C56.8583 127.153 58.7165 127.124 60.09 127.088C61.4868 127.052 62.3347 127.009 62.5654 126.97C63.0245 126.892 63.7403 126.589 64.5285 126.132C65.3039 125.682 66.0976 125.114 66.7079 124.554C67.597 123.729 68.2284 123.059 68.7069 122.083C69.1898 121.098 69.5347 119.762 69.765 117.586C70.227 113.222 70.2129 105.666 70.0906 91.2085L70.0906 91.2079L69.9083 66.2467L68.5166 64.0111L68.5108 64.0018L68.5054 63.9922C68.1733 63.4025 67.6019 62.7298 66.937 62.1151C66.2734 61.5018 65.5473 60.9744 64.9273 60.6599L64.9272 60.66L64.9174 60.6547C64.3963 60.3757 63.9364 60.171 63.2058 60.012C62.4596 59.8496 61.4217 59.7329 59.7457 59.652C56.3934 59.49 50.5902 59.4743 39.6786 59.4743C28.1221 59.4743 22.3539 59.4746 19.2107 59.6517C17.6381 59.7404 16.7636 59.8718 16.1648 60.0541C15.5857 60.2303 15.2469 60.458 14.7309 60.8121Z" fill="#E0DFE6" stroke="#E0DFE6"/>
<path d="M87.7237 60.2955L87.7195 60.2974C86.6105 60.8008 85.7549 61.3978 85.0304 62.2121C84.3022 63.0307 83.687 64.0905 83.0889 65.5464C82.9227 65.9627 82.7691 66.7213 82.6461 68.4522C82.524 70.171 82.4344 72.7973 82.3695 76.9102C82.2398 85.1333 82.2092 99.2603 82.2092 123.868C82.2092 150.957 82.2245 165.05 82.3848 172.683C82.5456 180.346 82.8565 181.411 83.3839 182.538L83.3871 182.545L83.3902 182.552C84.611 185.383 87.4466 187.394 89.8954 187.394C90.1597 187.394 90.3732 187.394 90.5456 187.39C90.452 187.279 90.3355 187.146 90.1934 186.986L90.1881 186.98C90.1245 186.909 90.0443 186.818 89.9792 186.727C89.9177 186.641 89.8223 186.493 89.8001 186.304C89.7724 186.068 89.8659 185.857 90.0304 185.709C90.1679 185.585 90.3447 185.511 90.5114 185.46C90.8522 185.355 91.3768 185.28 92.1351 185.219C92.9044 185.157 93.9506 185.109 95.3569 185.07C100.977 184.915 112.465 184.915 135.383 184.915H135.408H135.433C158.29 184.915 169.779 184.915 175.467 185.07C178.287 185.147 179.745 185.262 180.453 185.455C180.636 185.506 180.807 185.57 180.948 185.664C181.097 185.764 181.233 185.913 181.286 186.122C181.336 186.319 181.292 186.493 181.252 186.605C181.214 186.713 181.157 186.817 181.118 186.888L181.116 186.893L181.115 186.895C181.002 187.1 180.929 187.247 180.885 187.354C180.901 187.356 180.918 187.359 180.936 187.361C181.135 187.386 181.423 187.394 181.837 187.394C182.714 187.394 183.888 186.882 185.044 185.988C186.185 185.104 187.233 183.905 187.866 182.648L187.866 182.648L187.872 182.638C187.932 182.525 188.01 182.295 188.087 181.838C188.163 181.391 188.231 180.763 188.292 179.881C188.414 178.12 188.504 175.389 188.569 171.152C188.699 162.68 188.729 148.228 188.729 123.558V66.1296L187.408 64.1483L187.406 64.1455C186.709 63.0847 185.168 61.5207 184.123 60.8141L184.12 60.8122L182.171 59.4744H135.837C117.233 59.5054 105.523 59.5519 98.2811 59.6758C94.6589 59.7377 92.162 59.819 90.482 59.9266C89.6415 59.9805 89.0137 60.0405 88.5556 60.1065C88.0841 60.1745 87.8357 60.2434 87.7237 60.2955ZM180.734 187.318C180.734 187.318 180.734 187.318 180.735 187.318L180.734 187.318ZM183.249 65.5215L183.25 65.5225C183.416 65.7102 183.574 65.925 183.708 66.2704C183.835 66.6001 183.934 67.0332 184.017 67.6536C184.181 68.8919 184.292 70.9833 184.368 74.7228C184.521 82.2135 184.536 96.4139 184.536 123.868V180.58V180.82L184.35 180.97L182.89 182.143C182.889 182.144 182.888 182.144 182.886 182.145C182.694 182.305 182.478 182.458 182.159 182.591C181.847 182.72 181.455 182.822 180.914 182.907C179.84 183.075 178.091 183.188 175.038 183.265C168.921 183.42 157.458 183.436 135.408 183.436H135.386C112.924 183.436 101.481 183.436 95.5028 183.28C92.521 183.203 90.8646 183.087 89.8719 182.904C89.3702 182.812 89.0097 182.699 88.7224 182.548C88.4275 182.394 88.2384 182.215 88.0731 182.047C87.905 181.876 87.7254 181.681 87.5731 181.355C87.4272 181.043 87.3178 180.639 87.2286 180.055C87.0511 178.895 86.9365 176.899 86.8602 173.231C86.7074 165.881 86.7074 151.699 86.7074 123.762V123.744V123.727C86.7074 95.7889 86.7074 81.6077 86.8602 74.2577C86.9365 70.5898 87.0511 68.5936 87.2286 67.4328C87.3178 66.8496 87.4272 66.445 87.5731 66.1333C87.7254 65.8077 87.905 65.6119 88.0731 65.4413C88.2384 65.2736 88.4276 65.0946 88.7233 64.94C89.0111 64.7895 89.3726 64.6759 89.876 64.5838C90.8724 64.4015 92.5364 64.2852 95.5334 64.2078C101.542 64.0527 113.047 64.0527 135.633 64.0527H135.653H135.675C158.686 64.0527 170.206 64.0527 176.116 64.2156C179.062 64.2967 180.653 64.4188 181.586 64.6122C182.061 64.7105 182.398 64.8333 182.666 64.9996C182.929 65.1626 183.097 65.3513 183.238 65.509L183.249 65.5215Z" fill="#E0DFE6" stroke="#E0DFE6"/>
<path d="M162.349 98.7038C163.51 102.051 163.632 103.662 163.449 108.683C163.204 113.951 162.899 115.191 160.944 119.343C152.452 137.566 129.238 141.47 115.553 127.029L162.349 98.7038ZM162.349 98.7038C159.661 90.5844 154.896 85.1921 147.199 81.4112L162.349 98.7038ZM127.569 80.4582L127.569 80.4583L127.563 80.46C118.973 83.3245 112.974 89.1022 109.606 97.7059C108.85 99.7001 108.674 101.133 108.917 101.992C109.033 102.399 109.236 102.656 109.506 102.809C109.787 102.968 110.2 103.049 110.791 102.98L110.795 102.979C111.234 102.932 111.49 102.894 111.7 102.806C111.885 102.728 112.065 102.598 112.288 102.296C112.52 101.981 112.784 101.504 113.138 100.753C113.489 100.007 113.917 99.0205 114.482 97.7026C116.485 92.9414 120.233 88.9552 124.966 86.3649L124.97 86.3629C126.6 85.4888 127.803 84.9398 129.151 84.5917C130.494 84.2451 131.957 84.1042 134.099 84.0109C137.211 83.8236 139.651 83.962 141.913 84.5616C144.176 85.1618 146.229 86.2156 148.578 87.8148C152.459 90.4189 156.005 95.0315 157.688 99.7123L157.688 99.7128C158.45 101.837 158.772 104.709 158.702 107.595C158.633 110.483 158.169 113.439 157.32 115.736L157.319 115.739C156.404 118.171 154.637 120.811 152.532 123.127C150.427 125.444 147.951 127.472 145.59 128.654L145.588 128.654C144.018 129.435 142.929 129.895 141.53 130.147C140.15 130.397 138.487 130.442 135.775 130.442C133.122 130.442 131.447 130.397 130.047 130.156C128.629 129.912 127.511 129.471 125.966 128.719C120.917 126.315 117.105 122.513 114.794 117.508C114.296 116.437 113.801 115.359 113.393 114.471C112.959 113.528 112.625 112.799 112.49 112.523C112.397 112.384 112.183 112.196 111.857 112.021C111.531 111.845 111.146 111.711 110.783 111.657C110.228 111.59 109.833 111.663 109.556 111.807C109.286 111.947 109.083 112.179 108.949 112.523C108.668 113.247 108.715 114.424 109.168 115.955C110.064 118.984 112.443 123.039 115.916 126.684L115.916 126.685C129.353 140.865 152.145 137.041 160.491 119.132L160.492 119.13C161.467 117.058 162.013 115.75 162.351 114.316C162.691 112.879 162.827 111.294 162.949 108.662C163.041 106.153 163.054 104.527 162.906 103.118C162.758 101.72 162.45 100.52 161.877 98.8677L161.877 98.8677L161.874 98.861C159.23 90.8722 154.559 85.5841 146.981 81.8614C144.967 80.9017 143.727 80.3656 142.348 80.0383C140.966 79.7101 139.423 79.5867 136.797 79.4938C132.238 79.3705 130.171 79.5581 127.569 80.4582Z" fill="#E0DFE6" stroke="#E0DFE6"/>
<path d="M108.185 148.433L108.184 148.434C106.84 149.04 105.855 149.647 105.039 150.424C104.224 151.201 103.552 152.171 102.866 153.533C100.418 158.442 102.228 164.665 106.89 167.506L109.641 169.109H135.836H161.956L164.392 167.52C164.393 167.52 164.394 167.519 164.395 167.519C165.89 166.517 166.92 165.583 167.665 164.506C168.411 163.43 168.895 162.18 169.252 160.517L169.253 160.515C170.299 155.737 167.743 150.758 163.058 148.619L163.054 148.617C162.017 148.134 160.968 147.842 157.227 147.687C153.484 147.533 147.113 147.517 135.471 147.548H135.469C124.867 147.548 118.447 147.579 114.455 147.711C112.459 147.777 111.083 147.867 110.102 147.989C109.118 148.111 108.561 148.262 108.185 148.433ZM162.838 153.408L162.838 153.408L162.843 153.412C164.988 155.113 165.698 158.269 164.645 160.872L164.646 160.872L164.642 160.88C164.266 161.766 163.918 162.567 163.132 163.169C162.355 163.764 161.214 164.122 159.365 164.357C155.667 164.827 148.765 164.841 135.225 164.841H110.422H110.218L110.072 164.698L108.306 162.968C106.881 161.651 106.124 160.059 106.073 158.43C106.023 156.798 106.682 155.184 107.984 153.83L107.99 153.824L107.995 153.819L109.645 152.207L109.791 152.065H109.994H135.469C147.772 152.065 154.171 152.08 157.684 152.243C159.436 152.325 160.506 152.444 161.243 152.629C162.013 152.821 162.419 153.085 162.838 153.408Z" fill="#E0DFE6" stroke="#E0DFE6"/>
<path d="M23.5047 77.8003C23.0209 78.728 23.1206 79.4296 23.5085 79.8997C23.9251 80.4045 24.7876 80.7871 26.1163 80.7871C27.4451 80.7871 28.3076 80.4045 28.7241 79.8997C29.1121 79.4296 29.2118 78.728 28.728 77.8003C28.533 77.4297 28.2978 77.2085 27.938 77.0636C27.5484 76.9068 26.9857 76.8287 26.1163 76.8287C25.247 76.8287 24.6843 76.9068 24.2947 77.0636C23.9349 77.2085 23.6996 77.4297 23.5047 77.8003Z" fill="#E0DFE6" stroke="#E0DFE6"/>
<path d="M56.4805 79.5995L56.4844 79.5933L56.4884 79.5872C56.6975 79.2689 56.7728 79.0226 56.7728 78.8003C56.7728 78.5761 56.6962 78.3123 56.4836 77.9598C56.3832 77.809 56.262 77.6929 56.03 77.589C55.7729 77.474 55.3764 77.3729 54.7204 77.2897C53.4078 77.1233 51.2237 77.0459 47.4261 76.9527C44.2521 76.8908 42.01 76.9067 40.4979 77.006C39.7405 77.0557 39.183 77.1253 38.7901 77.2114C38.3711 77.3033 38.229 77.3962 38.202 77.4236C38.0819 77.5454 37.9289 77.7899 37.8041 78.0923C37.6796 78.394 37.6128 78.682 37.6128 78.8701C37.6128 79.3647 37.6982 79.6496 37.8649 79.8491C38.0376 80.0557 38.3711 80.2585 39.0681 80.4116C40.4781 80.7213 43.0053 80.7569 47.4869 80.6635C51.255 80.5702 53.4218 80.4928 54.7249 80.3191C55.3756 80.2323 55.7671 80.1264 56.0204 80.0059C56.2521 79.8956 56.3755 79.77 56.4805 79.5995Z" fill="#E0DFE6" stroke="#E0DFE6"/>
<path d="M23.8044 91.9054L23.7905 91.9212L23.7753 91.9359C23.4708 92.2294 23.2744 92.4393 23.1529 92.6158C23.0391 92.7811 23.012 92.887 23.012 92.9782C23.012 93.0829 23.048 93.2371 23.1839 93.4967C23.32 93.7563 23.5319 94.0774 23.8372 94.511L23.8373 94.5109L23.8439 94.5209C24.3176 95.2291 25.1442 95.619 26.0436 95.6393C26.9421 95.6596 27.8632 95.3076 28.4888 94.594C28.9431 94.0715 29.097 93.7946 29.1347 93.5463C29.1727 93.2955 29.1069 92.9787 28.8342 92.3324C28.5801 91.7606 28.3492 91.4897 28.0616 91.3334C27.751 91.1646 27.2949 91.0842 26.4829 91.0842C25.9589 91.0842 25.3687 91.1831 24.8558 91.3471C24.3235 91.5173 23.9572 91.7309 23.8044 91.9054Z" fill="#E0DFE6" stroke="#E0DFE6"/>
<path d="M38.4366 94.8104L38.4487 94.822L38.46 94.8344C38.692 95.0895 39.1481 95.3258 40.496 95.4718C41.824 95.6156 43.8894 95.6626 47.1927 95.6626C49.329 95.6626 51.0156 95.6354 52.3457 95.555C53.6811 95.4743 54.6276 95.3413 55.2967 95.1412C55.9605 94.9427 56.2985 94.694 56.4871 94.417C56.6806 94.1326 56.7727 93.7376 56.7727 93.1255C56.7727 92.5999 56.6972 92.2966 56.5402 92.0855C56.385 91.8767 56.0828 91.6692 55.4182 91.5033C54.0639 91.1653 51.5866 91.0843 47.0705 91.0843C43.0853 91.0843 40.9398 91.1163 39.7116 91.274C39.0998 91.3525 38.7707 91.4566 38.5698 91.5694C38.3935 91.6684 38.2864 91.7903 38.1626 92.0017C37.7397 92.8311 37.6119 93.2824 37.6481 93.6228C37.6817 93.9399 37.8715 94.2672 38.4366 94.8104Z" fill="#E0DFE6" stroke="#E0DFE6"/>
<path d="M23.5021 108.942L23.5021 108.942L23.5043 108.946C23.6988 109.316 23.9332 109.537 24.2998 109.682C24.6975 109.84 25.276 109.918 26.1774 109.918C27.1954 109.918 27.7041 109.849 28.0329 109.679C28.3253 109.528 28.5414 109.261 28.8367 108.602L28.8366 108.602L28.8407 108.593C29.1883 107.856 29.2496 107.563 29.203 107.362C29.1571 107.164 28.9738 106.922 28.3152 106.413L28.3074 106.407L28.2998 106.401C27.6445 105.851 27.052 105.562 26.4758 105.464C25.9022 105.367 25.2955 105.452 24.5957 105.736C24.0853 105.949 23.6505 106.455 23.4263 107.09C23.2027 107.724 23.2162 108.41 23.5021 108.942Z" fill="#E0DFE6" stroke="#E0DFE6"/>
<path d="M38.5299 106.282L38.53 106.282L38.5236 106.289C37.9542 106.924 37.69 107.492 37.6491 107.973C37.6102 108.43 37.7666 108.877 38.1923 109.313C38.1923 109.313 38.1923 109.313 38.1924 109.313C38.1933 109.312 38.2369 109.341 38.3687 109.383C38.5175 109.431 38.7252 109.48 38.9921 109.528C39.5242 109.622 40.2438 109.703 41.097 109.768C42.8003 109.899 44.9937 109.964 47.1927 109.964C49.3917 109.964 51.5851 109.899 53.2884 109.768C54.1416 109.703 54.8612 109.622 55.3933 109.528C55.6602 109.48 55.8679 109.431 56.0167 109.383C56.1485 109.341 56.1922 109.312 56.1931 109.313C56.1931 109.313 56.1931 109.313 56.1931 109.313C56.6065 108.889 56.7757 108.385 56.729 107.876C56.6813 107.355 56.4028 106.783 55.835 106.262L55.8349 106.262L55.8293 106.256C55.4891 105.934 54.9795 105.688 53.6722 105.538C52.3615 105.387 50.3439 105.34 47.0705 105.34C43.6078 105.34 41.6267 105.371 40.4039 105.522C39.7969 105.596 39.4116 105.697 39.1395 105.819C38.8802 105.935 38.7043 106.08 38.5299 106.282Z" fill="#E0DFE6" stroke="#E0DFE6"/>
<path d="M62.2803 185.415H40.2284C17.6858 185.415 17.5026 185.415 18.1746 186.654C18.7855 187.77 18.6633 187.894 17.0138 187.894C14.9367 187.894 11.8822 185.539 10.5382 182.873L62.2803 185.415ZM62.2803 185.415L62.5832 185.079L62.9542 185.415M62.2803 185.415H62.9542M62.9542 185.415V185.915H62.5024M62.9542 185.415L62.5024 185.915M62.5024 185.915L61.6102 186.902L60.8386 187.756L61.6736 187.578M62.5024 185.915L18.1171 187.318C18.1171 187.318 18.1167 187.318 18.1161 187.318M61.6736 187.578L61.9812 187.237L63.3252 185.75L64.0798 184.915H62.9542H40.2284H40.1779C28.9509 184.915 23.2617 184.915 20.4682 185.07C19.7671 185.109 19.2333 185.159 18.8335 185.224C18.4499 185.286 18.1281 185.37 17.8992 185.515C17.7753 185.594 17.6565 185.704 17.5803 185.858C17.5025 186.015 17.4913 186.174 17.5087 186.309C17.537 186.528 17.653 186.742 17.725 186.874C17.7284 186.88 17.7318 186.887 17.735 186.892L17.736 186.894C17.8486 187.1 17.9219 187.247 17.9656 187.354M61.6736 187.578L62.4832 187.405L62.4913 187.403L62.4995 187.402C64.0137 187.131 65.1641 186.715 66.1202 186.076C67.0749 185.437 67.8686 184.553 68.6365 183.295L68.6364 183.295L68.6397 183.289C68.9505 182.794 69.1701 182.393 69.3408 181.855C69.5139 181.31 69.6434 180.601 69.7412 179.49C69.9377 177.259 69.9988 173.519 70.0906 166.442L70.0906 166.441C70.213 158.216 70.1959 153.547 69.797 150.523C69.5988 149.021 69.3089 147.948 68.9067 147.061C68.5055 146.177 67.9814 145.451 67.2817 144.651L67.28 144.649C66.6447 143.914 66.0396 143.355 65.303 142.918C64.566 142.481 63.6722 142.15 62.4444 141.907C59.9665 141.414 56.2156 141.289 49.8196 141.289C44.5521 141.289 41.7431 141.305 40.1169 141.464C39.3064 141.544 38.8357 141.656 38.5174 141.795C38.2182 141.927 38.0266 142.094 37.7944 142.358C37.3404 142.88 37.1866 143.156 37.1489 143.405C37.111 143.655 37.1763 143.971 37.4471 144.613L38.0402 145.867H49.9418H50.0253C56.0594 145.867 59.1487 145.867 60.9023 146.064C61.7922 146.163 62.3924 146.319 62.8771 146.581C63.3575 146.841 63.6863 147.188 64.0435 147.565L65.5634 149.046L65.7146 149.193V149.404V164.527C65.7146 171.706 65.6997 175.543 65.5298 177.775C65.4448 178.893 65.3188 179.645 65.1211 180.228C64.9186 180.826 64.6491 181.221 64.3273 181.63L63.1083 183.237L62.9582 183.435H62.7098H40.1673C29.5752 183.435 23.9234 183.42 20.754 183.264C19.1726 183.187 18.1742 183.073 17.4769 182.897C16.7516 182.715 16.3498 182.464 15.9645 182.145C15.5982 181.851 15.2492 181.563 14.988 181.068C14.7338 180.586 14.5828 179.95 14.4778 178.984C14.2698 177.069 14.2234 173.614 14.1332 166.906L14.1313 166.766C14.1313 166.766 14.1313 166.766 14.1313 166.766C14.1267 166.457 14.1221 166.152 14.1175 165.853C14.0476 161.245 13.9944 157.737 14.0646 155.07C14.1391 152.243 14.3519 150.29 14.867 148.946C15.129 148.262 15.475 147.72 15.9332 147.298C16.3913 146.876 16.9361 146.598 17.561 146.408C18.6985 146.061 20.1852 145.984 22.0306 145.888C22.1602 145.881 22.2915 145.875 22.4247 145.868L22.4259 145.867C24.9131 145.743 26.2937 145.62 27.1503 145.395C27.5666 145.286 27.8326 145.159 28.0319 145.013C28.231 144.868 28.3918 144.683 28.5731 144.414C28.9845 143.804 29.0414 143.588 29.0199 143.441C29.0092 143.368 28.971 143.264 28.849 143.095C28.7249 142.924 28.538 142.718 28.265 142.441C27.7711 141.94 27.3493 141.67 26.6326 141.509C25.8718 141.337 24.7835 141.289 22.946 141.289C21.7437 141.319 20.3885 141.426 19.1764 141.579C17.9576 141.733 16.9197 141.928 16.3274 142.127C13.5002 143.204 11.9141 144.606 10.9399 146.99L10.94 146.99L10.9362 146.999C10.88 147.129 10.8129 147.376 10.7444 147.758C10.6776 148.13 10.6146 148.6 10.556 149.158C10.4389 150.273 10.3416 151.714 10.2645 153.375C10.1103 156.697 10.0378 160.878 10.0455 165.045C10.0531 169.212 10.1408 173.358 10.3064 176.61C10.3892 178.237 10.4912 179.634 10.6114 180.695C10.6716 181.226 10.7356 181.666 10.8026 182.006C10.8726 182.361 10.9371 182.559 10.9798 182.639L10.9799 182.639L10.9846 182.648C11.6182 183.905 12.6656 185.104 13.8071 185.988C14.9628 186.882 16.1376 187.394 17.0138 187.394C17.4276 187.394 17.7159 187.386 17.9153 187.361C17.9334 187.359 17.9502 187.356 17.9656 187.354M61.6736 187.578L61.1012 188.211L62.5877 187.894C65.7033 187.336 67.4749 186.158 69.0633 183.555C70.3462 181.51 70.4073 180.58 70.5906 166.449C70.8349 150.024 70.5295 147.606 67.6582 144.321C65.0313 141.284 62.5877 140.789 49.8196 140.789C39.312 140.789 38.4567 140.851 37.4182 142.028L18.1161 187.318M17.9656 187.354C18.0342 187.343 18.0772 187.332 18.1022 187.324C18.1099 187.321 18.1143 187.319 18.1161 187.318M17.9656 187.354C17.9819 187.394 17.994 187.428 18.0025 187.457C18.0119 187.49 18.0133 187.503 18.0132 187.503C18.0131 187.503 18.0051 187.427 18.0777 187.35C18.0967 187.33 18.1122 187.32 18.1161 187.318" fill="#E0DFE6" stroke="#E0DFE6"/>
<path d="M26.8712 162.97C26.8662 162.971 26.864 162.972 26.8642 162.972L26.856 162.977C26.4002 163.241 26.0866 163.821 26.0267 164.523C25.9671 165.222 26.1716 165.916 26.5947 166.346C26.5919 166.343 26.5904 166.341 26.5905 166.341C26.591 166.34 26.6323 166.371 26.7625 166.414C26.9055 166.461 27.111 166.509 27.392 166.555C27.953 166.646 28.7601 166.721 29.8541 166.778C32.0389 166.894 35.3108 166.94 39.923 166.94C45.4272 166.94 48.6913 166.909 50.6786 166.771C51.6737 166.702 52.3189 166.608 52.7536 166.488C53.1782 166.371 53.3666 166.238 53.4829 166.111L53.4935 166.1L53.5048 166.089C53.8093 165.795 54.0057 165.585 54.1272 165.409C54.241 165.244 54.2681 165.138 54.2681 165.046C54.2681 164.942 54.2321 164.787 54.0961 164.528C53.9601 164.268 53.7482 163.947 53.4429 163.514L53.4428 163.514L53.4367 163.505C53.2108 163.168 53.0799 163.004 52.8474 162.875C52.5948 162.734 52.1758 162.614 51.3284 162.53C49.6343 162.363 46.5081 162.362 40.2896 162.362C36.5689 162.362 33.3095 162.44 30.9072 162.563C29.7052 162.625 28.7236 162.698 28.0084 162.777C27.6501 162.817 27.3663 162.858 27.1583 162.899C26.9766 162.934 26.8942 162.962 26.8712 162.97Z" fill="#E0DFE6" stroke="#E0DFE6"/>
<path d="M93.4465 3.68552L93.4543 3.68077C93.9858 3.35723 94.3524 3.18144 94.6583 3.1258C94.9266 3.07701 95.174 3.11617 95.491 3.31866C95.8331 3.53724 96.2425 3.9385 96.7925 4.61502C97.3378 5.28566 97.9931 6.1907 98.8335 7.38431L98.8344 7.38566L101.339 10.9186L101.737 11.4792C101.665 11.4886 101.607 11.4929 101.564 11.4929C101.477 11.4929 101.252 11.46 100.954 11.3843C100.667 11.3116 100.36 11.2118 100.12 11.1033L100.107 11.0975L100.107 11.0977C99.8631 10.9958 99.6052 10.8923 99.3945 10.8633C99.2892 10.8488 99.1036 10.838 98.9236 10.9405C98.7114 11.0615 98.6309 11.2641 98.6094 11.422C98.5902 11.5636 98.6108 11.7055 98.6354 11.8211C98.6616 11.9444 98.7027 12.0828 98.7531 12.2327C98.8539 12.5322 99.0082 12.9251 99.2058 13.4184L99.2093 13.4272L99.2093 13.4271C99.5717 14.285 99.7211 14.7983 99.7274 15.2844C99.7337 15.7697 99.5982 16.2809 99.2671 17.1366C99.0493 17.6583 98.8966 18.1052 98.8172 18.4634C98.7774 18.6427 98.7524 18.8154 98.7521 18.9728C98.7518 19.1202 98.7724 19.3115 98.8769 19.4824C99.0025 19.6877 99.2118 19.802 99.4428 19.809C99.6364 19.8148 99.8124 19.7452 99.9467 19.6746C100.221 19.53 100.536 19.2638 100.881 18.9139C101.086 18.7059 101.236 18.6481 101.423 18.6521C101.662 18.6573 102.019 18.7655 102.62 19.0708L102.636 19.0786L102.652 19.0854C103.016 19.2391 103.315 19.3625 103.544 19.4409C103.659 19.48 103.772 19.5136 103.878 19.5329C103.971 19.5499 104.121 19.5686 104.275 19.5216C104.362 19.4953 104.456 19.4463 104.537 19.3614C104.619 19.276 104.664 19.1778 104.686 19.0873C104.725 18.9262 104.693 18.7763 104.67 18.6886C104.622 18.5066 104.518 18.2821 104.403 18.048C104.137 17.3904 103.988 16.3422 103.996 15.2503C104.003 14.1486 104.169 13.0982 104.463 12.4467L104.467 12.4379L104.471 12.4289C104.576 12.1691 104.665 11.9379 104.713 11.7526C104.737 11.6603 104.759 11.5491 104.756 11.4346C104.754 11.3191 104.726 11.1459 104.591 10.9979C104.454 10.8472 104.281 10.8033 104.16 10.793C104.043 10.783 103.929 10.7996 103.837 10.8186C103.653 10.8568 103.422 10.9349 103.167 11.0264L103.137 11.037L103.109 11.0512C102.842 11.1867 102.525 11.2995 102.23 11.378C102.073 11.4196 101.932 11.449 101.817 11.4676L102.172 10.8924L104.125 7.73566C105.401 5.76211 106.442 4.5159 107.337 3.87766C107.778 3.56338 108.158 3.41475 108.494 3.38126C108.822 3.34849 109.15 3.42169 109.499 3.62426L109.506 3.62815L109.513 3.63184C109.946 3.86529 110.187 4.10771 110.308 4.36692C110.428 4.62326 110.465 4.97018 110.341 5.48381C110.084 6.54637 109.196 8.09942 107.51 10.463L104.456 14.7394L104.254 15.0221L104.448 15.31L107.381 19.6486L107.384 19.6536L107.384 19.6536C109.718 23.0186 110.91 24.7756 111.431 25.8472C111.688 26.3769 111.747 26.6734 111.737 26.8744C111.728 27.0643 111.655 27.2358 111.467 27.5283L111.462 27.5358L111.458 27.5435C111.333 27.7541 111.074 27.9952 110.719 28.2032C110.37 28.4074 109.974 28.5528 109.619 28.6045C109.333 28.6439 109.117 28.6325 108.912 28.5653C108.702 28.4968 108.463 28.3565 108.157 28.0737C107.527 27.4918 106.719 26.4114 105.398 24.4788L105.392 24.4702L105.392 24.4702C104.504 23.2279 103.674 22.1054 103.041 21.299C102.726 20.8972 102.454 20.5662 102.245 20.3365C102.142 20.2236 102.043 20.1226 101.955 20.0483C101.913 20.0128 101.856 19.9681 101.79 19.9325C101.757 19.9145 101.706 19.8901 101.641 19.8744C101.579 19.8594 101.469 19.8441 101.342 19.8867C101.234 19.9234 101.155 19.9909 101.131 20.0114L101.129 20.0129C101.09 20.046 101.052 20.0841 101.016 20.1215C100.943 20.1973 100.856 20.2972 100.759 20.414C100.564 20.6493 100.31 20.9768 100.017 21.3718C99.4305 22.1622 98.6772 23.2384 97.909 24.4229C96.446 26.5871 95.3088 27.8478 94.3612 28.4052C93.9012 28.6757 93.5121 28.7644 93.1645 28.7333C92.817 28.7021 92.4526 28.546 92.0512 28.222C91.7388 27.9449 91.5804 27.7188 91.5149 27.4836C91.4491 27.2477 91.4555 26.9247 91.6348 26.4141C92.0042 25.3619 93.0109 23.764 94.9467 21.0207L93.4465 3.68552ZM93.4465 3.68552L93.4385 3.68998C93.0596 3.90209 92.8578 4.12495 92.7607 4.36557C92.6622 4.60986 92.6404 4.94989 92.7761 5.45617C93.0549 6.49543 93.9319 8.00703 95.5548 10.275L93.4465 3.68552Z" fill="#E0DFE6" stroke="#E0DFE6"/>
<path d="M104.695 11.1719H98.9675V19.5393H104.695V11.1719Z" fill="#E0DFE6" stroke="#E0DFE6"/>
</g>
<path d="M3.69656 2.75383C2.71911 3.31166 2.59692 4.48929 2.59692 12.7327C2.59692 21.1621 2.71911 22.2777 3.87983 24.1991C7.4842 30.0873 17.442 30.0873 20.9242 24.1991C22.0238 22.4637 22.146 21.0381 22.146 12.7947C22.146 3.99344 22.0849 3.31166 20.9242 2.69185C20.0689 2.19601 19.3358 2.19601 18.4806 2.69185C17.3198 3.31166 17.2587 3.99344 17.2587 11.9889C17.2587 19.1787 17.0755 20.7282 16.2202 21.5959C13.7155 24.1991 10.2333 23.9512 8.40056 21.0381C7.54529 19.7985 7.42311 18.063 7.54529 11.6171C7.72856 4.55127 7.60638 3.68354 6.56783 2.93978C5.22383 1.94809 5.04056 1.8861 3.69656 2.75383Z" fill="#525D7D"/>
<path d="M29.3548 2.75377C28.3773 3.3116 28.2551 4.61319 28.2551 15.2738C28.2551 27.8559 28.4384 28.7236 31.0042 28.7236C33.57 28.7236 33.7533 27.7939 33.7533 15.6457C33.7533 5.91478 33.57 3.86942 32.7759 3.06367C31.6762 1.94802 30.8209 1.82406 29.3548 2.75377Z" fill="#525D7D"/>
<path d="M50.7977 2.69172C50.2478 3.00162 47.682 8.45591 45.0551 14.8399C39.9846 27.0501 39.8013 28.2277 43.0391 28.5996C44.9329 28.8475 45.3606 28.2897 47.682 22.5255C48.7206 19.9843 50.7977 14.9019 52.3249 11.1831C55.074 4.55114 55.074 4.48915 53.9133 3.31152C52.5693 1.94795 52.2027 1.88597 50.7977 2.69172Z" fill="#525D7D"/>
<path d="M61.9774 3.06378C60.6945 3.93151 60.6334 4.42735 60.6945 12.1749C60.6945 21.658 61.3054 23.8893 64.421 26.4305C68.5752 29.8394 74.501 29.3435 78.4109 25.2528L80.4879 23.0835L80.6712 13.3526C80.8545 4.67528 80.7934 3.55962 79.8159 2.87784C78.4109 1.82417 77.4334 1.88615 76.2727 3.06378C75.4785 3.80755 75.2952 5.60498 75.2952 12.5468C75.2952 19.9225 75.173 21.2241 74.2567 22.0918C72.3629 23.7653 69.125 23.7033 67.3534 21.9059C66.2538 20.7902 66.1316 19.8605 66.1316 11.989C66.1316 4.11745 66.0094 3.3117 64.9709 2.6919C63.4436 1.88615 63.6269 1.88615 61.9774 3.06378Z" fill="#525D7D"/>
<path d="M158.806 3.06334C158.134 3.74513 158.318 6.10039 159.112 6.90614C159.6 7.40198 163.022 7.6499 170.352 7.6499C181.654 7.6499 182.51 7.40198 182.082 4.42691C181.899 3.00136 181.899 3.00136 170.536 2.81542C164.304 2.75344 159.051 2.8774 158.806 3.06334ZM178.111 4.24097C178.233 4.92276 164.304 5.48058 162.777 4.86078C162.35 4.73681 162.166 4.24097 162.35 3.93107C162.899 3.06334 177.867 3.37324 178.111 4.24097Z" fill="#525D7D"/>
<path d="M159.478 13.2905C158.196 14.0343 158.012 16.3276 159.112 17.4432C159.601 17.9391 162.961 18.187 170.292 18.187C181.227 18.187 182.204 17.9391 182.204 15.3979C182.204 12.8567 181.227 12.6088 170.597 12.6088C164.916 12.6088 160.028 12.9187 159.478 13.2905Z" fill="#525D7D"/>
<path d="M159.478 23.8272C158.196 24.5709 158.012 26.8642 159.112 27.9799C159.601 28.4757 162.961 28.7236 170.292 28.7236C177.622 28.7236 180.982 28.4757 181.471 27.9799C182.571 26.8642 182.326 24.509 181.044 23.7652C179.455 22.9594 160.884 22.9594 159.478 23.8272Z" fill="#525D7D"/>
<path d="M2.84135 42.0494C2.59699 42.5452 2.65808 43.6609 2.84135 44.5286L3.20789 46.0781L92.5839 45.9542L181.899 45.7682V43.5989V41.4296L92.5228 41.2436C13.4101 41.1197 3.1468 41.2436 2.84135 42.0494Z" fill="#525D7D"/>
<path d="M7.42311 59.8999C6.32347 60.6437 4.73511 62.2552 3.94092 63.4328C2.65801 65.4162 2.59692 66.036 2.71911 73.8455C2.90238 81.779 2.96347 82.2129 4.24638 82.7088C5.04056 83.0187 5.95692 82.8947 6.62892 82.3988C7.54529 81.6551 7.72856 80.5394 7.72856 74.0935C7.78965 63.0609 5.28492 64.0526 32.898 64.0526H55.6849L56.9067 65.6641C58.1286 67.2756 58.1897 67.9574 58.1897 92.9975V118.657L56.6624 120.145L55.1962 121.695H33.1424C19.7024 121.695 10.5998 121.447 9.92783 121.075C7.85074 119.959 7.42311 116.736 7.54529 104.092C7.66747 91.51 7.42311 90.0844 5.10165 90.0844C2.7802 90.0844 2.59692 91.1381 2.59692 105.704C2.59692 121.509 2.71911 122.19 6.69001 125.227L8.88929 126.963L31.2486 127.149C43.5278 127.273 54.5242 127.149 55.6238 126.963C56.7235 126.777 58.7395 125.599 60.0224 124.422C63.6267 121.075 63.81 119.587 63.5657 90.7042L63.3824 65.6021L61.9162 63.2468C61.1831 61.9453 59.4726 60.3957 58.1286 59.714C55.9293 58.5363 54.4631 58.4743 32.6537 58.4743C9.56129 58.4743 9.5002 58.4743 7.42311 59.8999Z" fill="#525D7D"/>
<path d="M80.488 59.3421C78.1665 60.3958 76.8225 61.8834 75.6007 64.8584C74.8065 66.8418 74.6843 74.1555 74.6843 123.368C74.6843 177.539 74.7454 179.77 75.9061 182.25C77.1891 185.225 80.1825 187.394 82.8705 187.394C84.5811 187.394 84.6421 187.394 83.5425 186.154C82.4429 184.915 82.504 184.915 128.383 184.915C174.14 184.915 174.324 184.915 173.652 186.154C173.041 187.27 173.163 187.394 174.812 187.394C176.889 187.394 179.944 185.039 181.288 182.374C182.082 180.886 182.204 172.395 182.204 123.058V65.4782L180.799 63.3709C180.066 62.2552 178.478 60.6437 177.378 59.9L175.301 58.4744H128.811C91.6065 58.5364 81.9541 58.6604 80.488 59.3421ZM175.851 65.3543C176.951 66.5939 177.012 68.4533 177.012 123.368V180.08L175.545 181.258C174.201 182.374 172.491 182.436 128.383 182.436C83.4203 182.436 82.6261 182.436 81.4043 181.196C80.1825 179.956 80.1825 179.151 80.1825 123.244C80.1825 67.3376 80.1825 66.5319 81.4043 65.2923C82.6261 64.0527 83.4203 64.0527 128.628 64.0527C174.69 64.0527 174.69 64.0527 175.851 65.3543Z" fill="#525D7D"/>
<path d="M120.38 79.4857C111.644 82.3988 105.535 88.2869 102.114 97.0262C100.587 101.055 101.198 103.286 103.825 102.976C105.535 102.79 105.657 102.666 107.918 97.3981C109.873 92.7495 113.538 88.8448 118.181 86.3036C121.419 84.5681 122.824 84.1962 127.1 84.0103C133.27 83.6384 136.63 84.5681 141.273 87.7291C145.061 90.2703 148.543 94.7949 150.193 99.3815C151.659 103.472 151.475 110.6 149.826 115.063C148.054 119.773 142.923 125.413 138.341 127.707C135.225 129.256 134.187 129.442 128.75 129.442C123.435 129.442 122.213 129.256 119.158 127.769C114.21 125.413 110.483 121.694 108.223 116.798C107.185 114.567 106.146 112.273 105.902 111.778C105.596 111.282 104.68 110.786 103.825 110.662C98.8151 110.042 101.503 119.153 108.529 126.529C122.213 140.97 145.427 137.066 153.919 118.843C155.874 114.691 156.179 113.451 156.424 108.183C156.607 103.162 156.485 101.551 155.324 98.2038C152.636 90.0844 147.871 84.6921 140.174 80.9112C136.142 78.9898 135.042 78.6799 129.788 78.494C125.206 78.37 123.068 78.556 120.38 79.4857Z" fill="#525D7D"/>
<path d="M100.953 147.478C98.2043 148.718 96.7992 150.019 95.3941 152.808C92.8283 157.953 94.7221 164.461 99.6094 167.436L102.481 169.109H128.811H155.08L157.646 167.436C160.7 165.391 161.983 163.531 162.716 160.122C163.816 155.102 161.128 149.895 156.241 147.664C153.98 146.61 151.72 146.486 128.444 146.548C107.246 146.548 102.725 146.672 100.953 147.478ZM155.508 153.304C157.462 154.854 158.134 157.767 157.157 160.184C155.63 163.779 155.324 163.841 128.2 163.841H103.397L101.625 162.106C98.9374 159.626 98.8763 156.217 101.32 153.676L102.969 152.065H128.444C153.064 152.065 153.98 152.127 155.508 153.304Z" fill="#525D7D"/>
<path d="M16.0369 77.0683C14.9373 79.1756 16.2813 80.7871 19.0914 80.7871C21.9016 80.7871 23.2456 79.1756 22.146 77.0683C21.6573 76.1386 20.8631 75.8287 19.0914 75.8287C17.3198 75.8287 16.5256 76.1386 16.0369 77.0683Z" fill="#525D7D"/>
<path d="M30.821 76.5726C30.4544 76.9445 30.0879 77.8122 30.0879 78.3701C30.0879 80.5394 31.5541 80.8493 40.4733 80.6633C47.9875 80.4774 49.2704 80.3534 49.8813 79.3617C50.3701 78.618 50.3701 77.9982 49.8813 77.1924C49.2704 76.2627 47.9875 76.1388 40.4123 75.9528C34.0588 75.8289 31.3708 76.0148 30.821 76.5726Z" fill="#525D7D"/>
<path d="M16.4034 91.0759C15.1816 92.2535 15.1816 92.5634 16.4034 94.2989C17.5642 96.0343 20.3743 96.0963 21.8405 94.4228C22.7569 93.3691 22.818 92.9353 22.2682 91.6337C21.7183 90.3941 21.1074 90.0842 19.458 90.0842C18.2972 90.0842 16.8922 90.518 16.4034 91.0759Z" fill="#525D7D"/>
<path d="M30.6987 91.262C29.8434 92.9355 29.9045 93.5553 31.0652 94.6709C31.7983 95.4767 33.57 95.6626 40.1678 95.6626C48.7205 95.6626 50.2478 95.2287 50.2478 92.6255C50.2478 90.3942 49.026 90.0843 40.0456 90.0843C32.1038 90.0843 31.3096 90.2083 30.6987 91.262Z" fill="#525D7D"/>
<path d="M17.3808 104.774C16.0368 105.331 15.3037 107.315 16.0368 108.678C16.5255 109.608 17.3197 109.918 19.1525 109.918C21.1685 109.918 21.6572 109.67 22.2681 108.306C22.9401 106.881 22.879 106.509 21.5961 105.517C20.191 104.34 18.9081 104.154 17.3808 104.774Z" fill="#525D7D"/>
<path d="M31.1264 105.455C29.9045 106.819 29.7824 108.12 30.8209 109.174C31.8594 110.228 48.4762 110.228 49.5147 109.174C50.5533 108.12 50.4311 106.571 49.1482 105.393C48.2318 104.526 46.5824 104.34 40.0456 104.34C33.1424 104.34 31.9816 104.464 31.1264 105.455Z" fill="#525D7D"/>
<path d="M9.13366 141.156C6.20129 142.272 4.49075 143.759 3.4522 146.301C2.16929 149.276 2.23038 179.956 3.51329 182.373C4.85729 185.039 7.91184 187.394 9.98893 187.394C11.6384 187.394 11.7606 187.27 11.1497 186.154C10.4777 184.915 10.6609 184.915 33.2035 184.915H55.9293L54.5853 186.402L53.2413 187.89L55.5627 187.394C58.6784 186.836 60.45 185.658 62.0384 183.055C63.3213 181.01 63.3824 180.08 63.5657 165.949C63.81 149.524 63.5046 147.106 60.6333 143.821C58.0064 140.784 55.5627 140.289 42.7947 140.289C32.2871 140.289 31.4318 140.351 30.3933 141.528C29.4769 142.582 29.4158 143.016 29.9657 144.317L30.6987 145.867H42.9169C55.1351 145.867 55.1962 145.867 56.6624 147.416L58.1897 148.904V164.027C58.1897 178.407 58.1286 179.274 56.9067 180.824L55.6849 182.435H33.1424C11.9438 182.435 10.5998 182.373 9.25584 181.258C7.78966 180.08 7.78966 179.894 7.60638 166.258C7.30093 145.991 7.17875 146.301 15.426 145.867C20.3744 145.619 21.1686 145.371 21.9627 144.193C22.7569 143.016 22.6958 142.706 21.5962 141.59C20.4966 140.474 19.5802 140.289 15.9147 140.289C13.4711 140.351 10.4166 140.722 9.13366 141.156Z" fill="#525D7D"/>
<path d="M19.5803 162.044C18.2974 162.788 18.1141 165.081 19.2137 166.197C19.7636 166.754 23.6734 166.94 32.8981 166.94C43.8945 166.94 46.0327 166.816 46.8268 165.949C48.0487 164.771 48.0487 164.461 46.8268 162.726C45.9105 161.362 45.6661 161.362 33.2647 161.362C25.8116 161.362 20.1912 161.672 19.5803 162.044Z" fill="#525D7D"/>
<path d="M86.1694 2.75368C84.3978 3.74537 84.8865 5.5428 88.1243 10.0674C89.8349 12.4226 91.1789 14.468 91.1789 14.7159C91.1789 14.9019 89.5294 17.3811 87.5134 20.2322C83.6647 25.6865 83.2981 26.8641 84.7032 28.1037C86.5359 29.5913 88.3687 28.5376 91.301 24.199C92.8283 21.8437 94.2945 19.9223 94.4778 19.8603C94.661 19.7983 96.1883 21.7817 97.9599 24.2609C100.587 28.1037 101.32 28.7855 102.664 28.5996C103.519 28.4756 104.497 27.9178 104.863 27.298C105.657 26.0584 105.413 25.5625 100.77 18.8686L97.8378 14.53L100.892 10.2533C104.252 5.5428 104.68 3.74537 102.725 2.6917C101.014 1.70001 99.2429 3.0016 96.677 6.96836L94.7221 10.1294L92.2174 6.59648C88.8574 1.82397 88.3076 1.45209 86.1694 2.75368ZM94.5389 11.4929C94.9054 11.4929 95.6996 11.307 96.3105 10.9971C97.349 10.6252 97.4101 10.6872 96.9825 11.7409C96.3105 13.2284 96.3105 16.2654 96.9214 17.753C97.4101 18.7447 97.2879 18.7447 95.8218 18.1249C94.5999 17.5051 94.0501 17.5051 93.5003 18.0629C92.1563 19.4265 91.8509 18.8686 92.7061 16.8233C93.3781 15.0878 93.3781 14.468 92.645 12.7326C91.8509 10.7492 91.8509 10.6252 92.8894 11.0591C93.4392 11.307 94.2334 11.4929 94.5389 11.4929Z" fill="#525D7D"/>
<path d="M97.6699 10.6719H91.9426V19.0393H97.6699V10.6719Z" fill="#525D7D" stroke="#525D7D"/>
</g>
<defs>
<filter id="filter0_f_2111_3292" x="7.54492" y="0.606934" width="183.684" height="189.783" filterUnits="userSpaceOnUse" color-interpolation-filters="sRGB">
<feFlood flood-opacity="0" result="BackgroundImageFix"/>
<feBlend mode="normal" in="SourceGraphic" in2="BackgroundImageFix" result="shape"/>
<feGaussianBlur stdDeviation="1" result="effect1_foregroundBlur_2111_3292"/>
</filter>
<clipPath id="clip0_2111_3292">
<rect width="189" height="191.752" fill="white" transform="translate(0 0.247559)"/>
</clipPath>
</defs>
</svg>
