<svg width="38" height="26" viewBox="0 0 38 26" fill="none" xmlns="http://www.w3.org/2000/svg">
<path d="M9 13H17M13 9V17M25 9L34.106 4.448C34.4108 4.29567 34.7496 4.22376 35.09 4.23909C35.4304 4.25443 35.7613 4.35649 36.0512 4.53561C36.3411 4.71473 36.5805 4.96495 36.7465 5.26254C36.9126 5.56013 36.9998 5.89522 37 6.236V19.764C36.9998 20.1048 36.9126 20.4399 36.7465 20.7375C36.5805 21.035 36.3411 21.2853 36.0512 21.4644C35.7613 21.6435 35.4304 21.7456 35.09 21.7609C34.7496 21.7762 34.4108 21.7043 34.106 21.552L25 17V9ZM1 5C1 3.93913 1.42143 2.92172 2.17157 2.17157C2.92172 1.42143 3.93913 1 5 1H21C22.0609 1 23.0783 1.42143 23.8284 2.17157C24.5786 2.92172 25 3.93913 25 5V21C25 22.0609 24.5786 23.0783 23.8284 23.8284C23.0783 24.5786 22.0609 25 21 25H5C3.93913 25 2.92172 24.5786 2.17157 23.8284C1.42143 23.0783 1 22.0609 1 21V5Z" stroke="#0B409C" stroke-width="2" stroke-linecap="round" stroke-linejoin="round"/>
</svg>
